G04 Layer_Physical_Order=1*
G04 Layer_Color=255*
%FSLAX43Y43*%
%MOMM*%
G71*
G01*
G75*
%ADD10R,0.800X0.700*%
%ADD11R,1.300X1.100*%
%ADD12R,1.500X0.600*%
%ADD13O,0.600X2.250*%
%ADD14R,0.700X0.800*%
%ADD15R,3.000X6.000*%
G04:AMPARAMS|DCode=16|XSize=0.5mm|YSize=1.7mm|CornerRadius=0.125mm|HoleSize=0mm|Usage=FLASHONLY|Rotation=0.000|XOffset=0mm|YOffset=0mm|HoleType=Round|Shape=RoundedRectangle|*
%AMROUNDEDRECTD16*
21,1,0.500,1.450,0,0,0.0*
21,1,0.250,1.700,0,0,0.0*
1,1,0.250,0.125,-0.725*
1,1,0.250,-0.125,-0.725*
1,1,0.250,-0.125,0.725*
1,1,0.250,0.125,0.725*
%
%ADD16ROUNDEDRECTD16*%
%ADD17R,1.700X1.600*%
%ADD18R,1.600X1.700*%
%ADD19O,1.500X0.400*%
%ADD20O,0.400X1.500*%
G04:AMPARAMS|DCode=21|XSize=1.5mm|YSize=3.2mm|CornerRadius=0.375mm|HoleSize=0mm|Usage=FLASHONLY|Rotation=270.000|XOffset=0mm|YOffset=0mm|HoleType=Round|Shape=RoundedRectangle|*
%AMROUNDEDRECTD21*
21,1,1.500,2.450,0,0,270.0*
21,1,0.750,3.200,0,0,270.0*
1,1,0.750,-1.225,-0.375*
1,1,0.750,-1.225,0.375*
1,1,0.750,1.225,0.375*
1,1,0.750,1.225,-0.375*
%
%ADD21ROUNDEDRECTD21*%
%ADD22R,0.800X0.900*%
%ADD23R,1.500X3.200*%
%ADD24R,1.600X1.000*%
G04:AMPARAMS|DCode=25|XSize=1.5mm|YSize=2.5mm|CornerRadius=0.375mm|HoleSize=0mm|Usage=FLASHONLY|Rotation=0.000|XOffset=0mm|YOffset=0mm|HoleType=Round|Shape=RoundedRectangle|*
%AMROUNDEDRECTD25*
21,1,1.500,1.750,0,0,0.0*
21,1,0.750,2.500,0,0,0.0*
1,1,0.750,0.375,-0.875*
1,1,0.750,-0.375,-0.875*
1,1,0.750,-0.375,0.875*
1,1,0.750,0.375,0.875*
%
%ADD25ROUNDEDRECTD25*%
G04:AMPARAMS|DCode=26|XSize=4mm|YSize=4mm|CornerRadius=1mm|HoleSize=0mm|Usage=FLASHONLY|Rotation=0.000|XOffset=0mm|YOffset=0mm|HoleType=Round|Shape=RoundedRectangle|*
%AMROUNDEDRECTD26*
21,1,4.000,2.000,0,0,0.0*
21,1,2.000,4.000,0,0,0.0*
1,1,2.000,1.000,-1.000*
1,1,2.000,-1.000,-1.000*
1,1,2.000,-1.000,1.000*
1,1,2.000,1.000,1.000*
%
%ADD26ROUNDEDRECTD26*%
%ADD27R,1.800X2.100*%
%ADD28R,2.100X1.800*%
%ADD29R,2.200X1.600*%
%ADD30R,1.000X1.600*%
%ADD31C,1.524*%
G04:AMPARAMS|DCode=32|XSize=12mm|YSize=4mm|CornerRadius=1mm|HoleSize=0mm|Usage=FLASHONLY|Rotation=0.000|XOffset=0mm|YOffset=0mm|HoleType=Round|Shape=RoundedRectangle|*
%AMROUNDEDRECTD32*
21,1,12.000,2.000,0,0,0.0*
21,1,10.000,4.000,0,0,0.0*
1,1,2.000,5.000,-1.000*
1,1,2.000,-5.000,-1.000*
1,1,2.000,-5.000,1.000*
1,1,2.000,5.000,1.000*
%
%ADD32ROUNDEDRECTD32*%
%ADD33C,1.000*%
%ADD34C,0.300*%
%ADD35C,1.000*%
%ADD36C,0.254*%
%ADD37C,0.250*%
%ADD38C,0.400*%
%ADD39C,0.500*%
%ADD40C,0.220*%
%ADD41C,0.600*%
%ADD42C,0.800*%
%ADD43C,0.350*%
%ADD44C,1.520*%
%ADD45C,1.800*%
%ADD46R,1.650X1.650*%
%ADD47C,1.650*%
%ADD48C,2.500*%
%ADD49C,4.500*%
%ADD50C,0.700*%
%ADD51C,1.500*%
%ADD52C,0.800*%
G36*
X277833Y156480D02*
X278633Y155680D01*
Y154480D01*
X281033Y152080D01*
X281510Y151603D01*
X283458Y151603D01*
X283933Y152078D01*
X283933Y153580D01*
Y155180D01*
X284033Y155280D01*
X284433Y155680D01*
X285933D01*
X286017Y155177D01*
X285935Y155080D01*
X285233D01*
X284733Y154580D01*
Y152980D01*
Y150180D01*
X284433Y149880D01*
X283433D01*
X283233Y150080D01*
X282978Y149825D01*
X279888D01*
X279133Y150580D01*
X274233D01*
X274033Y150780D01*
X273933Y150880D01*
Y152380D01*
Y156380D01*
X274233Y156680D01*
X277633D01*
X277833Y156480D01*
D02*
G37*
G36*
X294617Y156374D02*
X296141D01*
X296268Y156247D01*
X298300Y154215D01*
X299951D01*
X300205Y153961D01*
Y153199D01*
X299879Y152873D01*
X295650Y152873D01*
X295125Y153398D01*
X295125Y154469D01*
Y155231D01*
X294744Y155612D01*
X294109D01*
X293347Y156374D01*
X291923D01*
X291843Y156472D01*
X291950Y157009D01*
X293982D01*
X294617Y156374D01*
D02*
G37*
G36*
X266948Y156556D02*
X267075Y156429D01*
Y150968D01*
Y150206D01*
X266821Y149952D01*
X266440Y149571D01*
X256153D01*
X252089Y153635D01*
Y154524D01*
Y155413D01*
X257804D01*
X261487Y159096D01*
X264408Y159096D01*
X266948Y156556D01*
D02*
G37*
G36*
X291333Y166280D02*
X292533Y165080D01*
Y163880D01*
X294133D01*
X294933Y163080D01*
X295433Y162580D01*
X296133D01*
X296633Y162080D01*
Y161580D01*
Y160980D01*
X296333Y160680D01*
X290733D01*
X290433Y160380D01*
X290033Y159980D01*
Y154680D01*
Y153780D01*
X291133Y152680D01*
X292333Y151480D01*
X297233D01*
X297633Y151880D01*
X298733D01*
X299033Y151580D01*
Y150080D01*
X298533Y149580D01*
X286433D01*
X286133Y149880D01*
X286033Y149980D01*
Y151080D01*
Y153680D01*
X286233Y153880D01*
X287133D01*
X287333Y154080D01*
X287633Y154380D01*
Y155980D01*
X287333Y156280D01*
X286233D01*
X286033Y156480D01*
Y156780D01*
X286133Y156880D01*
X286233Y156980D01*
X287133D01*
X287633Y157480D01*
Y157680D01*
Y159180D01*
Y159780D01*
X286933Y160480D01*
X286733Y160680D01*
X286033D01*
X285033Y161680D01*
Y163180D01*
X285433Y163580D01*
X285733Y163880D01*
X285233Y164380D01*
X268033D01*
X267333Y163680D01*
X265033Y161380D01*
X259072D01*
X258566Y160874D01*
X257931Y160239D01*
X255391D01*
X255010Y159858D01*
X254375Y159223D01*
X252851D01*
Y162525D01*
X254121Y163795D01*
X255135Y164809D01*
X257042D01*
X257053Y164811D01*
X258364D01*
X258633Y165080D01*
X260533Y166980D01*
X290633D01*
X291333Y166280D01*
D02*
G37*
G36*
X266642Y190624D02*
Y188306D01*
X266675Y188140D01*
X266769Y187999D01*
X269809Y184959D01*
X269815Y184950D01*
X270971Y183794D01*
X270919Y183667D01*
X270654D01*
X270494Y183635D01*
X270359Y183544D01*
X264896Y178082D01*
X263773D01*
X263011Y177320D01*
Y172511D01*
X262894Y172462D01*
X262589Y172767D01*
Y177466D01*
Y186737D01*
X266524Y190673D01*
X266642Y190624D01*
D02*
G37*
G36*
X280445Y196821D02*
Y194557D01*
X279644D01*
X279511Y194583D01*
X278502D01*
Y195235D01*
X276602D01*
Y194106D01*
X276051Y193554D01*
X275971Y193435D01*
X274302D01*
Y193018D01*
X273652D01*
Y193735D01*
X272252D01*
Y192435D01*
X272989D01*
X273146Y192278D01*
X273286Y192184D01*
X273452Y192151D01*
X274302D01*
Y191735D01*
X274819D01*
Y191559D01*
X274852Y191393D01*
X274946Y191252D01*
X275647Y190551D01*
Y190250D01*
X275609Y190194D01*
X275570Y189999D01*
Y188899D01*
X275609Y188704D01*
X275720Y188538D01*
X275885Y188428D01*
X276080Y188389D01*
X276275Y188428D01*
X276390Y188504D01*
X276480Y188528D01*
X276571Y188504D01*
X276685Y188428D01*
X276880Y188389D01*
X277075Y188428D01*
X277120Y188458D01*
X277247Y188390D01*
Y188305D01*
X277280Y188139D01*
X277374Y187999D01*
X277791Y187582D01*
X277786Y187544D01*
X277808Y187374D01*
X277874Y187216D01*
X277978Y187080D01*
X278114Y186976D01*
X278272Y186910D01*
X278442Y186888D01*
X278611Y186910D01*
X278769Y186976D01*
X278905Y187080D01*
X279009Y187216D01*
X279075Y187374D01*
X279094Y187520D01*
X279587Y188012D01*
X279680Y188153D01*
X279713Y188319D01*
Y188647D01*
X279751Y188704D01*
X279790Y188899D01*
Y189999D01*
X279751Y190194D01*
X279641Y190359D01*
X279475Y190470D01*
X279280Y190509D01*
X279085Y190470D01*
X278920Y190359D01*
X278809Y190194D01*
X278770Y189999D01*
Y188899D01*
X278809Y188704D01*
X278847Y188647D01*
Y188498D01*
X278536Y188187D01*
X278442Y188199D01*
X278404Y188194D01*
X278113Y188485D01*
Y188647D01*
X278151Y188704D01*
X278190Y188899D01*
Y189999D01*
X278151Y190194D01*
X278041Y190359D01*
X277875Y190470D01*
X277680Y190509D01*
X277485Y190470D01*
X277425Y190430D01*
X277298Y190498D01*
Y191074D01*
X277266Y191234D01*
X277176Y191369D01*
X276764Y191781D01*
Y193086D01*
X277213Y193535D01*
X278502D01*
Y193712D01*
X279052D01*
Y193257D01*
X280445D01*
Y190247D01*
X280409Y190194D01*
X280370Y189999D01*
Y188899D01*
X280409Y188704D01*
X280520Y188538D01*
X280685Y188428D01*
X280880Y188389D01*
X281075Y188428D01*
X281190Y188504D01*
X281280Y188528D01*
X281371Y188504D01*
X281485Y188428D01*
X281680Y188389D01*
X281875Y188428D01*
X282041Y188538D01*
X282151Y188704D01*
X282190Y188899D01*
Y189999D01*
X282151Y190194D01*
X282116Y190247D01*
Y194985D01*
X282233Y195033D01*
X282645Y194621D01*
Y188559D01*
X282530D01*
X282335Y188520D01*
X282170Y188409D01*
X282059Y188244D01*
X282020Y188049D01*
X282059Y187854D01*
X282136Y187739D01*
X282159Y187649D01*
X282136Y187558D01*
X282059Y187444D01*
X282020Y187249D01*
X282059Y187054D01*
X282170Y186888D01*
Y186809D01*
X282059Y186644D01*
X282020Y186449D01*
X282059Y186254D01*
X282136Y186139D01*
X282159Y186049D01*
X282136Y185958D01*
X282059Y185844D01*
X282020Y185649D01*
X282059Y185454D01*
X282136Y185339D01*
X282159Y185249D01*
X282136Y185158D01*
X282059Y185044D01*
X282020Y184849D01*
X282059Y184654D01*
X282136Y184539D01*
X282159Y184449D01*
X282136Y184358D01*
X282059Y184244D01*
X282020Y184049D01*
X282059Y183854D01*
X282170Y183688D01*
Y183609D01*
X282059Y183444D01*
X282020Y183249D01*
X282059Y183054D01*
X282136Y182939D01*
X282159Y182849D01*
X282136Y182758D01*
X282059Y182644D01*
X282020Y182449D01*
X282059Y182254D01*
X282170Y182088D01*
X282335Y181978D01*
X282530Y181939D01*
X282952D01*
X283545Y181346D01*
Y174737D01*
X282737Y173929D01*
X282620Y173991D01*
X282621Y173999D01*
Y177257D01*
X282589Y177423D01*
X282495Y177563D01*
X282113Y177944D01*
Y180247D01*
X282151Y180304D01*
X282190Y180499D01*
Y181599D01*
X282151Y181794D01*
X282041Y181959D01*
X281875Y182070D01*
X281680Y182109D01*
X281485Y182070D01*
X281371Y181993D01*
X281280Y181970D01*
X281190Y181993D01*
X281075Y182070D01*
X280880Y182109D01*
X280685Y182070D01*
X280520Y181959D01*
X280441D01*
X280275Y182070D01*
X280080Y182109D01*
X279885Y182070D01*
X279720Y181959D01*
X279609Y181794D01*
X279570Y181599D01*
Y180499D01*
X279609Y180304D01*
X279720Y180138D01*
X279885Y180028D01*
X280080Y179989D01*
X280275Y180028D01*
X280318Y180056D01*
X280445Y179988D01*
Y175651D01*
X280328Y175561D01*
X280223Y175426D01*
X280158Y175267D01*
X280136Y175098D01*
X280158Y174928D01*
X280223Y174770D01*
X280328Y174634D01*
X280463Y174530D01*
X280621Y174464D01*
X280791Y174442D01*
X280961Y174464D01*
X281119Y174530D01*
X281255Y174634D01*
X281359Y174770D01*
X281390Y174846D01*
X281447Y174931D01*
X281480Y175098D01*
X281447Y175264D01*
X281390Y175350D01*
X281359Y175426D01*
X281316Y175482D01*
Y177337D01*
X281443Y177390D01*
X281755Y177077D01*
Y174179D01*
X279384Y171809D01*
X279267Y171857D01*
Y177574D01*
X278759Y178082D01*
X278041D01*
X277502Y178622D01*
X277565Y178739D01*
X277616Y178728D01*
X278018D01*
X278042Y178698D01*
X278177Y178594D01*
X278335Y178528D01*
X278505Y178506D01*
X278675Y178528D01*
X278833Y178594D01*
X278969Y178698D01*
X279073Y178834D01*
X279138Y178992D01*
X279161Y179162D01*
X279138Y179331D01*
X279073Y179490D01*
X278969Y179625D01*
X278833Y179730D01*
X278675Y179795D01*
X278505Y179817D01*
X278335Y179795D01*
X278177Y179730D01*
X278042Y179625D01*
X278018Y179595D01*
X277796D01*
X277494Y179896D01*
X277557Y180013D01*
X277680Y179989D01*
X277875Y180028D01*
X277990Y180104D01*
X278080Y180128D01*
X278171Y180104D01*
X278285Y180028D01*
X278480Y179989D01*
X278675Y180028D01*
X278841Y180138D01*
X278951Y180304D01*
X278990Y180499D01*
Y181599D01*
X278951Y181794D01*
X278841Y181959D01*
X278675Y182070D01*
X278480Y182109D01*
X278285Y182070D01*
X278171Y181993D01*
X278080Y181970D01*
X277990Y181993D01*
X277875Y182070D01*
X277680Y182109D01*
X277485Y182070D01*
X277320Y181959D01*
X277241D01*
X277075Y182070D01*
X276880Y182109D01*
X276685Y182070D01*
X276571Y181993D01*
X276480Y181970D01*
X276390Y181993D01*
X276275Y182070D01*
X276080Y182109D01*
X275885Y182070D01*
X275720Y181959D01*
X275609Y181794D01*
X275570Y181599D01*
Y181484D01*
X274677D01*
X274511Y181451D01*
X274369Y181357D01*
X273879Y180867D01*
X273785Y180725D01*
X273752Y180559D01*
Y179543D01*
X273785Y179376D01*
X273879Y179235D01*
X274279Y178835D01*
X274226Y178708D01*
X271065D01*
X270432Y179342D01*
Y181267D01*
X271177Y182013D01*
X273882D01*
X273935Y181978D01*
X274130Y181939D01*
X275230D01*
X275425Y181978D01*
X275591Y182088D01*
X275701Y182254D01*
X275740Y182449D01*
X275701Y182644D01*
X275625Y182758D01*
X275601Y182849D01*
X275625Y182939D01*
X275701Y183054D01*
X275740Y183249D01*
X275701Y183444D01*
X275591Y183609D01*
Y183688D01*
X275701Y183854D01*
X275740Y184049D01*
X275701Y184244D01*
X275625Y184358D01*
X275601Y184449D01*
X275625Y184539D01*
X275701Y184654D01*
X275740Y184849D01*
X275701Y185044D01*
X275625Y185158D01*
X275601Y185249D01*
X275625Y185339D01*
X275701Y185454D01*
X275740Y185649D01*
X275701Y185844D01*
X275625Y185958D01*
X275601Y186049D01*
X275625Y186139D01*
X275701Y186254D01*
X275740Y186449D01*
X275701Y186644D01*
X275591Y186809D01*
Y186888D01*
X275701Y187054D01*
X275740Y187249D01*
X275701Y187444D01*
X275625Y187558D01*
X275601Y187649D01*
X275625Y187739D01*
X275701Y187854D01*
X275740Y188049D01*
X275701Y188244D01*
X275591Y188409D01*
X275425Y188520D01*
X275230Y188559D01*
X274130D01*
X273935Y188520D01*
X273882Y188484D01*
X273608D01*
X271575Y190518D01*
Y195237D01*
X273488Y197151D01*
X280115D01*
X280445Y196821D01*
D02*
G37*
G36*
X305302Y170399D02*
Y167351D01*
X304667Y166716D01*
X301238D01*
X300730Y167224D01*
X300349Y167605D01*
Y169637D01*
Y171161D01*
X300857Y171669D01*
X304032D01*
X305302Y170399D01*
D02*
G37*
G36*
X287087Y183045D02*
X287229Y182951D01*
X287395Y182917D01*
X287621D01*
X287711Y182828D01*
X287711Y182703D01*
X287711Y182576D01*
Y181403D01*
X287711D01*
X287794Y181276D01*
X287778Y181236D01*
X287756Y181067D01*
X287778Y180897D01*
X287843Y180739D01*
X287948Y180603D01*
X288083Y180499D01*
X288241Y180433D01*
X288411Y180411D01*
X288581Y180433D01*
X288739Y180499D01*
X288875Y180603D01*
X288979Y180739D01*
X289044Y180897D01*
X289067Y181067D01*
X289044Y181236D01*
X289028Y181276D01*
X289111Y181403D01*
X289111D01*
Y182599D01*
X289235Y182606D01*
X289238Y182606D01*
X290635D01*
Y182692D01*
X290686Y182726D01*
X290762Y182746D01*
X290877Y182658D01*
X290951Y182627D01*
Y175094D01*
X287862Y172005D01*
X287354Y171497D01*
X285260D01*
X285211Y171614D01*
X286686Y173089D01*
X286779Y173229D01*
X286812Y173395D01*
Y183140D01*
X286939Y183193D01*
X287087Y183045D01*
D02*
G37*
D10*
X295777Y161255D02*
D03*
Y159955D02*
D03*
X273883Y238090D02*
D03*
Y239390D02*
D03*
X284728Y238090D02*
D03*
Y239390D02*
D03*
X284844Y254058D02*
D03*
Y252758D02*
D03*
X290189Y238090D02*
D03*
Y239390D02*
D03*
X279267Y238090D02*
D03*
Y239390D02*
D03*
X290471Y254058D02*
D03*
Y252758D02*
D03*
X256407Y160747D02*
D03*
Y159447D02*
D03*
X295783Y157530D02*
D03*
Y156230D02*
D03*
X295883Y239868D02*
D03*
Y238568D02*
D03*
X288411Y183353D02*
D03*
Y182053D02*
D03*
X256407Y157191D02*
D03*
Y155891D02*
D03*
X279775Y164303D02*
D03*
Y163003D02*
D03*
X295777Y151476D02*
D03*
Y152776D02*
D03*
X293783Y161280D02*
D03*
Y159980D02*
D03*
X272952Y194385D02*
D03*
Y193085D02*
D03*
X279752Y192607D02*
D03*
Y193907D02*
D03*
X289935Y181956D02*
D03*
Y183256D02*
D03*
X299333Y201387D02*
D03*
Y200087D02*
D03*
X295883Y252280D02*
D03*
Y253580D02*
D03*
X293999Y252314D02*
D03*
Y253614D02*
D03*
X279461Y254058D02*
D03*
Y252758D02*
D03*
X273883Y254058D02*
D03*
Y252758D02*
D03*
X297809Y238568D02*
D03*
Y239868D02*
D03*
X281553Y163003D02*
D03*
Y164303D02*
D03*
D11*
X277552Y194385D02*
D03*
X275252D02*
D03*
X277552Y192585D02*
D03*
X275252D02*
D03*
D12*
X291533Y156650D02*
D03*
Y155380D02*
D03*
Y159190D02*
D03*
Y157920D02*
D03*
X286133Y159190D02*
D03*
Y157920D02*
D03*
Y156650D02*
D03*
Y155380D02*
D03*
D13*
X296158Y204295D02*
D03*
X297428D02*
D03*
X296158Y199495D02*
D03*
X297428D02*
D03*
X294888D02*
D03*
Y204295D02*
D03*
X293618D02*
D03*
Y199495D02*
D03*
D14*
X299079Y206340D02*
D03*
X297779D02*
D03*
X283933Y153280D02*
D03*
X282633D02*
D03*
X281553Y160620D02*
D03*
X280253D02*
D03*
X279043Y255870D02*
D03*
X277743D02*
D03*
X274361Y236312D02*
D03*
X275661D02*
D03*
X282472Y238090D02*
D03*
X281172D02*
D03*
X273455Y255870D02*
D03*
X272155D02*
D03*
X284504D02*
D03*
X283204D02*
D03*
X287933Y238090D02*
D03*
X286633D02*
D03*
X278789Y236312D02*
D03*
X277489D02*
D03*
X290092Y255870D02*
D03*
X288792D02*
D03*
X207863Y198339D02*
D03*
X209163D02*
D03*
X207863Y195799D02*
D03*
X209163D02*
D03*
X207863Y193259D02*
D03*
X209163D02*
D03*
X207863Y190719D02*
D03*
X209163D02*
D03*
X207863Y188179D02*
D03*
X209163D02*
D03*
X244058Y149063D02*
D03*
X245358D02*
D03*
D15*
X275283Y153530D02*
D03*
X265283D02*
D03*
D16*
X287253Y218153D02*
D03*
X285983D02*
D03*
X288523D02*
D03*
X283443D02*
D03*
X282173D02*
D03*
X284713D02*
D03*
X285983Y208753D02*
D03*
X284713D02*
D03*
X288523D02*
D03*
X287253D02*
D03*
X282173D02*
D03*
X280903D02*
D03*
X283443D02*
D03*
X280903Y218153D02*
D03*
X279633D02*
D03*
X278378D02*
D03*
X279633Y208753D02*
D03*
X278378D02*
D03*
D17*
X303270Y153254D02*
D03*
Y156754D02*
D03*
X294380Y166716D02*
D03*
Y170216D02*
D03*
D18*
X287133Y150680D02*
D03*
X283633D02*
D03*
D19*
X283080Y187249D02*
D03*
Y186449D02*
D03*
Y188049D02*
D03*
Y184849D02*
D03*
Y185649D02*
D03*
Y184049D02*
D03*
Y183249D02*
D03*
Y182449D02*
D03*
X274680Y187249D02*
D03*
Y186449D02*
D03*
Y188049D02*
D03*
Y184849D02*
D03*
Y185649D02*
D03*
Y184049D02*
D03*
Y182449D02*
D03*
Y183249D02*
D03*
D20*
X280080Y189449D02*
D03*
X280880D02*
D03*
X279280D02*
D03*
X281680D02*
D03*
X281680Y181049D02*
D03*
X279280D02*
D03*
X278480D02*
D03*
X280880D02*
D03*
X280080D02*
D03*
X276880Y189449D02*
D03*
X277680D02*
D03*
X276080D02*
D03*
X278480D02*
D03*
X277680Y181049D02*
D03*
X276880D02*
D03*
X276080D02*
D03*
D21*
X297809Y177511D02*
D03*
Y173320D02*
D03*
X293999Y177511D02*
D03*
Y173320D02*
D03*
D22*
X295549Y242408D02*
D03*
X293745D02*
D03*
X289961Y242451D02*
D03*
X288157D02*
D03*
X284627Y242430D02*
D03*
X282823D02*
D03*
X279068Y242451D02*
D03*
X277264D02*
D03*
X273513Y242451D02*
D03*
X271709D02*
D03*
X279013Y249901D02*
D03*
X277210D02*
D03*
X284323Y249970D02*
D03*
X282519D02*
D03*
X289825D02*
D03*
X288021D02*
D03*
X295523Y249901D02*
D03*
X293720D02*
D03*
X273564Y249970D02*
D03*
X271760D02*
D03*
D23*
X296185Y184750D02*
D03*
X299385D02*
D03*
X296185Y189957D02*
D03*
X299385D02*
D03*
D24*
X298317Y150714D02*
D03*
Y153514D02*
D03*
X261995Y161890D02*
D03*
Y159090D02*
D03*
D25*
X243326Y157191D02*
D03*
X245626D02*
D03*
X247926D02*
D03*
D26*
X245626Y162191D02*
D03*
D27*
X297219Y195672D02*
D03*
X301619D02*
D03*
X294126D02*
D03*
X289726D02*
D03*
D28*
X293491Y189531D02*
D03*
Y185131D02*
D03*
D29*
X253613Y155511D02*
D03*
Y159731D02*
D03*
D30*
X242818Y152619D02*
D03*
X245618D02*
D03*
D31*
X260471Y151349D02*
D03*
X300730Y163668D02*
D03*
X240659Y255880D02*
D03*
X240633Y243180D02*
D03*
X244443Y255880D02*
D03*
Y243180D02*
D03*
X248253Y255880D02*
D03*
Y243180D02*
D03*
X252063Y255880D02*
D03*
Y243180D02*
D03*
X255873Y255880D02*
D03*
Y243180D02*
D03*
X259683Y255880D02*
D03*
Y243180D02*
D03*
X207434Y255880D02*
D03*
X207408Y243180D02*
D03*
X211218Y255880D02*
D03*
Y243180D02*
D03*
X215028Y255880D02*
D03*
Y243180D02*
D03*
X218838Y255880D02*
D03*
Y243180D02*
D03*
X222648Y255880D02*
D03*
Y243180D02*
D03*
X226458Y255880D02*
D03*
Y243180D02*
D03*
X205353Y198339D02*
D03*
Y195799D02*
D03*
Y193259D02*
D03*
Y188179D02*
D03*
Y190719D02*
D03*
X197733Y198339D02*
D03*
Y193259D02*
D03*
Y195799D02*
D03*
Y190719D02*
D03*
Y188179D02*
D03*
D32*
X245231Y162271D02*
D03*
D33*
X287268Y204562D02*
D03*
X285998Y206340D02*
D03*
X284855Y204435D02*
D03*
X283458Y206213D02*
D03*
X282188Y204308D02*
D03*
X280918Y206213D02*
D03*
X279648Y204308D02*
D03*
X278378Y206213D02*
D03*
D34*
X284640Y210697D02*
X287253Y213310D01*
X277616Y235423D02*
Y236312D01*
X209417Y193259D02*
Y198339D01*
Y186655D02*
Y193259D01*
X282188Y249512D02*
X282646Y249970D01*
X273437Y249970D02*
X273883Y250416D01*
X272028Y235296D02*
X279633Y227691D01*
X254756Y175225D02*
X256407Y176876D01*
X295883Y238598D02*
X297809D01*
X286633Y238090D02*
Y240503D01*
Y237963D02*
Y238090D01*
X277489Y236312D02*
X277616D01*
X275711D02*
X277489D01*
X295883Y238568D02*
Y238598D01*
Y237530D02*
Y238568D01*
X287933Y238090D02*
X290189D01*
X271901Y242451D02*
X272028Y242324D01*
Y235296D02*
Y242324D01*
X273513Y242451D02*
X273679Y242285D01*
X277264Y240405D02*
Y242451D01*
X275965Y239106D02*
X277264Y240405D01*
X282823Y244313D02*
X283966Y245456D01*
X286379Y243424D02*
X287141Y244186D01*
X286379Y240757D02*
Y243424D01*
Y240757D02*
X286633Y240503D01*
X286379Y253457D02*
X288792Y255870D01*
X286379Y248885D02*
Y253457D01*
Y248885D02*
X287141Y248123D01*
X272575Y210697D02*
X284640D01*
X251962Y190084D02*
X272575Y210697D01*
X282950Y229327D02*
X284713Y227564D01*
X283458Y218168D02*
Y220056D01*
X282823Y220691D02*
X283458Y220056D01*
X255264Y171288D02*
X260598Y176622D01*
Y176876D01*
X256407Y176749D02*
Y176876D01*
X298317Y230216D02*
Y235096D01*
X295883Y237530D02*
X298317Y235096D01*
X282823Y213960D02*
X284713Y215850D01*
X265678Y213960D02*
X282823D01*
X264027Y212309D02*
X265678Y213960D01*
X284713Y218153D02*
Y227564D01*
X283966Y245456D02*
Y246218D01*
X282188D02*
Y249512D01*
X279633Y218153D02*
Y227691D01*
X281807Y215738D02*
X282173Y216104D01*
Y218153D01*
X251962Y179543D02*
Y190084D01*
X229356Y175225D02*
X254756D01*
X226054Y178527D02*
X229356Y175225D01*
X253486Y176622D02*
X254502Y177638D01*
X240786Y176622D02*
X253486D01*
X237865Y179543D02*
X240786Y176622D01*
X222244Y171288D02*
X255264D01*
X222117Y171415D02*
X222244Y171288D01*
X226054Y178527D02*
Y197069D01*
X222117Y201006D02*
X226054Y197069D01*
X254502Y190084D02*
X269996Y205578D01*
X275838D01*
X254502Y177638D02*
Y190084D01*
X287253Y213310D02*
Y218153D01*
X287141Y244186D02*
Y248123D01*
X299206Y201514D02*
X299333Y201387D01*
X294507Y201514D02*
X299206D01*
X293618Y200625D02*
X294507Y201514D01*
X293618Y199495D02*
Y200625D01*
X291533Y159190D02*
X293393D01*
X293783Y159580D01*
X284713Y215850D02*
Y218153D01*
X264027Y211039D02*
Y212309D01*
X260598Y207610D02*
X264027Y211039D01*
X256280Y207610D02*
X260598D01*
X252597Y211293D02*
X256280Y207610D01*
X283443Y218153D02*
X283458Y218168D01*
X277616Y235423D02*
X278124Y234915D01*
X280029D01*
X285983Y218153D02*
Y220168D01*
X286252Y220437D01*
X268218Y212055D02*
X283077D01*
X285983Y214961D01*
Y218153D01*
X293783Y159580D02*
Y159980D01*
X288016Y247248D02*
X288919Y246345D01*
X288016Y247248D02*
Y249760D01*
X267202Y211039D02*
X267456Y211293D01*
X268218Y212055D01*
X279043Y255870D02*
X279443Y255470D01*
Y254076D02*
Y255470D01*
X273883Y250416D02*
Y252758D01*
X273513Y239760D02*
X273883Y239390D01*
X273513Y239760D02*
Y242451D01*
X278789Y236312D02*
X279316Y236839D01*
Y238041D01*
X273883Y236790D02*
Y238090D01*
Y236790D02*
X274361Y236312D01*
X281045Y237963D02*
X281172Y238090D01*
X280029Y234915D02*
X281045Y235931D01*
Y237963D01*
Y235931D02*
X284601D01*
X286633Y237963D01*
X289935Y180940D02*
Y181956D01*
X299333Y201387D02*
Y203038D01*
X282823Y242430D02*
Y244313D01*
X288157Y240822D02*
Y242451D01*
X208401Y185639D02*
X209417Y186655D01*
D35*
X294380Y177564D02*
X299153D01*
X240913Y152746D02*
X242818D01*
X253613Y155511D02*
X261262D01*
X294380Y170716D02*
Y173320D01*
X296285Y153762D02*
X302127D01*
X245626Y152605D02*
Y157191D01*
X293783Y161280D02*
X295752D01*
X240913Y152619D02*
Y152746D01*
X301566Y175151D02*
X302322D01*
X295752Y161280D02*
X295777Y161255D01*
X290697Y163316D02*
X291133Y162880D01*
X303270Y156754D02*
Y161128D01*
X297809Y166589D02*
Y172939D01*
X302322Y175151D02*
X302833Y174640D01*
X241675Y207864D02*
X245104Y211293D01*
X241675Y182337D02*
Y207864D01*
Y182337D02*
X244469Y179543D01*
X245104Y211293D02*
X249295Y215484D01*
X255772D01*
X259963Y211293D01*
X293237Y166716D02*
X294380D01*
X291078Y168875D02*
X293237Y166716D01*
X290697Y168875D02*
X291078D01*
X247926Y157191D02*
X249606Y155511D01*
X253613D01*
X261262D02*
X261487Y155286D01*
X243326Y154905D02*
Y157191D01*
X242818Y154397D02*
X243326Y154905D01*
X242818Y152619D02*
Y152746D01*
Y154397D01*
X297809Y166589D02*
X300730Y163668D01*
X303270Y161128D01*
X302127Y153762D02*
X302889Y153000D01*
X303016D01*
X303270Y153254D01*
X301619Y195672D02*
X304921D01*
X288030Y193640D02*
X289726Y195336D01*
Y195672D01*
X299153Y177564D02*
X301566Y175151D01*
D36*
X287253Y202769D02*
Y208753D01*
X277552Y192607D02*
X279752D01*
X284713Y203150D02*
Y208753D01*
X288411Y183353D02*
X291078D01*
X280880Y175263D02*
X281045Y175098D01*
X287395Y183353D02*
X288411D01*
X273174Y194385D02*
X275252D01*
X282633Y153280D02*
Y154780D01*
X274695Y179035D02*
X276473D01*
X274187Y179543D02*
X274695Y179035D01*
X274187Y179543D02*
Y180559D01*
X274677Y181049D02*
X276080D01*
X274187Y180559D02*
X274677Y181049D01*
X276473Y179035D02*
X277870Y177638D01*
X270885Y178273D02*
X274314D01*
X269996Y179162D02*
X270885Y178273D01*
X269996Y179162D02*
Y181448D01*
X270997Y182449D02*
X274680D01*
X269996Y181448D02*
X270997Y182449D01*
X275076Y174717D02*
Y177511D01*
X274314Y178273D02*
X275076Y177511D01*
X273806Y173066D02*
Y173447D01*
Y173066D02*
X274949Y171923D01*
X276981D01*
X277870Y172812D01*
Y177638D01*
X276346Y173447D02*
Y173447D01*
X275076Y174717D02*
X276346Y173447D01*
X280880Y175263D02*
Y181049D01*
X280080Y186020D02*
Y189449D01*
Y183531D02*
Y186020D01*
X281045D01*
X279280Y181049D02*
Y182731D01*
X280080Y183531D01*
X197733Y195799D02*
Y198339D01*
Y193259D02*
Y195799D01*
Y190719D02*
Y193259D01*
Y188179D02*
Y190719D01*
X280791Y175098D02*
X281045D01*
X287253Y208753D02*
X287268Y208738D01*
X285983Y208753D02*
X285998Y208738D01*
X278480Y190821D02*
X278886Y191227D01*
X278480Y189449D02*
Y190821D01*
X291633Y153980D02*
Y155180D01*
X291533Y155280D02*
X291633Y155180D01*
X291533Y156650D02*
X293663D01*
X294633Y155680D01*
X295633D01*
X275552Y192407D02*
X275652Y192307D01*
X285998Y206340D02*
Y208738D01*
X271139Y190338D02*
X273428Y188049D01*
X274680D01*
X273339Y187249D02*
X274680D01*
X271901Y188687D02*
X273339Y187249D01*
X272996Y186449D02*
X274680D01*
X271393Y188052D02*
X272996Y186449D01*
X272399Y185649D02*
X274680D01*
X270631Y187417D02*
X272399Y185649D01*
X271929Y184849D02*
X274680D01*
X270504Y186274D02*
X271929Y184849D01*
X271332Y184049D02*
X274680D01*
X270123Y185258D02*
X271332Y184049D01*
X296031Y204422D02*
X296158Y204295D01*
X279752Y191377D02*
Y192607D01*
X280080Y189449D02*
Y191049D01*
X278886Y191227D02*
X279902D01*
X279752Y191377D02*
X279902Y191227D01*
X280080Y191049D01*
X277552Y194385D02*
X277789Y194148D01*
X279511D01*
X279752Y193907D01*
X294888Y204295D02*
Y205705D01*
X279394Y197831D02*
X284713Y203150D01*
X280880Y189449D02*
Y197793D01*
X285998Y202911D01*
Y206340D01*
X281680Y189449D02*
Y197196D01*
X287253Y202769D01*
X283080Y188049D02*
Y196691D01*
Y185649D02*
X285099D01*
X287395Y183353D01*
X291078D02*
X291205Y183226D01*
X283080Y196691D02*
X292602Y206213D01*
X294380D01*
X294888Y205705D01*
X271139Y190338D02*
Y195799D01*
X273171Y197831D01*
X279394D01*
D37*
X288523Y208753D02*
Y211562D01*
X207512Y211547D02*
X211449Y207610D01*
X283443Y203150D02*
Y208753D01*
X280903Y203531D02*
Y208753D01*
X205226Y170323D02*
Y188179D01*
X279633Y204166D02*
Y208753D01*
X270504Y249076D02*
X271398Y249970D01*
X277616Y179162D02*
X278505D01*
X276880Y179898D02*
X277616Y179162D01*
X276880Y179898D02*
Y181049D01*
X283080Y182424D02*
Y182449D01*
X279705Y170284D02*
X283978Y174557D01*
X283080Y182424D02*
X283978Y181526D01*
Y174557D02*
Y181526D01*
X280364Y168784D02*
X285617Y174037D01*
X259237Y168784D02*
X280364D01*
X280053Y169534D02*
X284728Y174209D01*
X258717Y169534D02*
X280053D01*
X258070Y170284D02*
X279705D01*
X279223Y171034D02*
X282188Y173999D01*
X257677Y171034D02*
X279223D01*
X286379Y173395D02*
Y183226D01*
X259521Y167925D02*
X280909D01*
X285617Y174037D02*
Y182845D01*
X280909Y167925D02*
X286379Y173395D01*
X284728Y174209D02*
Y182718D01*
X284413Y184049D02*
X285617Y182845D01*
X283080Y183249D02*
X284197D01*
X284728Y182718D01*
X270758Y203419D02*
X272536D01*
X258566Y191227D02*
X270758Y203419D01*
X258566Y176622D02*
Y191227D01*
X256026Y174082D02*
X258566Y176622D01*
X216656Y174082D02*
X256026D01*
X211449Y179289D02*
X216656Y174082D01*
X278378Y218153D02*
Y221580D01*
X211449Y179289D02*
Y207610D01*
X282188Y173999D02*
Y177257D01*
X203920Y170569D02*
Y189286D01*
X203170Y170258D02*
Y191076D01*
X202420Y169947D02*
Y192866D01*
X201670Y169637D02*
Y194656D01*
X203920Y189286D02*
X205353Y190719D01*
X203170Y191076D02*
X205353Y193259D01*
X202420Y192866D02*
X205353Y195799D01*
X201670Y194656D02*
X205353Y198339D01*
X281680Y177765D02*
X282188Y177257D01*
X283108Y184877D02*
X284728D01*
X286379Y183226D01*
X205353Y188179D02*
X207717D01*
X205353Y190719D02*
X207717D01*
X205353Y193259D02*
X207717D01*
X205353Y195799D02*
X207717D01*
X205226Y188179D02*
X205353D01*
X283080Y184849D02*
X283108Y184877D01*
X283080Y184049D02*
X284413D01*
X281680Y177765D02*
Y181049D01*
X282173Y204450D02*
Y208753D01*
X275252Y191559D02*
Y192585D01*
Y191559D02*
X276080Y190731D01*
Y189449D02*
Y190731D01*
X294888Y204295D02*
X296158D01*
X278378Y206213D02*
Y208753D01*
X272952Y195326D02*
X273806Y196180D01*
X272952Y194385D02*
Y195326D01*
X288523Y211562D02*
X288538Y211547D01*
Y211166D02*
Y211547D01*
X201670Y169637D02*
X205353Y165954D01*
X257550D01*
X259521Y167925D01*
X202420Y169947D02*
X205664Y166704D01*
X257157D01*
X259237Y168784D01*
X203170Y170258D02*
X205974Y167454D01*
X256637D01*
X258717Y169534D01*
X203920Y170569D02*
X206285Y168204D01*
X255990D01*
X258070Y170284D01*
X255597Y168954D02*
X257677Y171034D01*
X277680Y188305D02*
Y189449D01*
Y188305D02*
X278442Y187544D01*
X278505D02*
X279280Y188319D01*
Y189449D01*
X270377Y190211D02*
X271901Y188687D01*
X269615Y189830D02*
X271393Y188052D01*
X268853Y189195D02*
X270631Y187417D01*
X268091Y188687D02*
X270504Y186274D01*
X267075Y188306D02*
X270123Y185258D01*
X206596Y168954D02*
X255597D01*
X205226Y170323D02*
X206596Y168954D01*
X272952Y193085D02*
X273452Y192585D01*
X275252D01*
X271398Y249970D02*
X271760D01*
X205353Y198339D02*
X207717D01*
X297428Y204295D02*
Y205989D01*
X297779Y206340D01*
X283080Y186449D02*
X285030D01*
X296666Y202530D02*
X297428Y203292D01*
Y204295D01*
X274266Y201466D02*
X278378Y205578D01*
Y206213D01*
X276183Y200716D02*
X279633Y204166D01*
X277338Y199966D02*
X280903Y203531D01*
X278112Y199216D02*
X282188Y203292D01*
Y204308D01*
X278759Y198466D02*
X283443Y203150D01*
X283080Y187249D02*
X284433D01*
X284728Y187544D01*
Y196942D01*
X285030Y186449D02*
X285490Y186909D01*
Y196180D01*
X291840Y202530D01*
X296666D01*
X284728Y196942D02*
X292081Y204295D01*
X293618D01*
X267075Y188306D02*
Y197196D01*
X271345Y201466D01*
X274266D01*
X268853Y189195D02*
Y196688D01*
X272131Y199966D01*
X277338D01*
X268091Y188687D02*
Y197069D01*
X271738Y200716D01*
X276183D01*
X269615Y189830D02*
Y196307D01*
X272524Y199216D01*
X278112D01*
X270377Y190211D02*
Y196053D01*
X272790Y198466D01*
X278759D01*
X278378Y221580D02*
Y226914D01*
X270504Y234788D02*
Y249076D01*
Y234788D02*
X278378Y226914D01*
D38*
X278941Y239716D02*
Y242451D01*
X277235Y246345D02*
Y249970D01*
X296285Y184750D02*
Y185258D01*
X284474Y238090D02*
X284601Y237963D01*
X278865Y249970D02*
X279461Y250566D01*
X297428Y199990D02*
X299333D01*
X279461Y250566D02*
Y252758D01*
X282472Y238090D02*
X284474D01*
X284601Y239517D02*
Y242337D01*
X280903Y218153D02*
Y228961D01*
X277997Y231867D02*
X280903Y228961D01*
X237992Y211293D02*
X250184Y223485D01*
X276219D01*
X282442Y157920D02*
X286133D01*
X279775Y162906D02*
Y163003D01*
Y162906D02*
X280156Y162525D01*
X280253Y160109D02*
X282442Y157920D01*
X280253Y160109D02*
Y160620D01*
X280156Y160717D02*
X280253Y160620D01*
X280156Y160717D02*
Y162525D01*
X299333Y197958D02*
Y199990D01*
X297428Y199495D02*
Y199990D01*
X273455Y255870D02*
X273883Y255442D01*
Y254058D02*
Y255442D01*
X278941Y239716D02*
X279267Y239390D01*
X284601Y239517D02*
X284728Y239390D01*
X290062Y239517D02*
X290189Y239390D01*
X290062Y239517D02*
Y242296D01*
X245358Y149063D02*
X245626Y149331D01*
Y152605D01*
X242818Y150303D02*
Y152619D01*
Y150303D02*
X244058Y149063D01*
X299587Y205197D02*
Y205832D01*
X299079Y206340D02*
X299587Y205832D01*
X288411Y181067D02*
Y182053D01*
X293491Y185430D02*
X293700Y185639D01*
X295904D01*
X296285Y185258D01*
D39*
X290189Y192243D02*
X293999Y196053D01*
X296285Y189322D02*
Y189957D01*
X292729Y187798D02*
X294126Y189195D01*
X293999Y253584D02*
X297936D01*
X293720Y246853D02*
Y249901D01*
Y242433D02*
Y246853D01*
Y242433D02*
X293745Y242408D01*
X295549Y240202D02*
X295883Y239868D01*
X295549Y240202D02*
Y242408D01*
X295523Y251920D02*
X295883Y252280D01*
X295523Y249901D02*
Y251920D01*
X289825Y249970D02*
X290471Y250616D01*
X295883Y239868D02*
X297809D01*
X295849Y252314D02*
X295883Y252280D01*
X293999Y252314D02*
X295849D01*
X245626Y157191D02*
Y162191D01*
X295777Y157636D02*
X295783Y157530D01*
X295777Y157636D02*
Y159955D01*
X263243Y153530D02*
X265283D01*
X279443Y254076D02*
X279461Y254058D01*
X291533Y157920D02*
X295393D01*
X295733Y157580D01*
X259963Y156810D02*
X261262Y155511D01*
X261487Y155286D02*
X263243Y153530D01*
X290471Y250616D02*
Y252758D01*
Y254058D02*
Y255491D01*
X290092Y255870D02*
X290471Y255491D01*
X284844Y254058D02*
Y255530D01*
X284504Y255870D02*
X284844Y255530D01*
Y250491D02*
Y252758D01*
X284323Y249970D02*
X284844Y250491D01*
X297936Y253584D02*
X298317Y253965D01*
X299385Y189957D02*
X299462Y189880D01*
X302833D01*
X299435Y184800D02*
X302833D01*
X299385Y184750D02*
X299435Y184800D01*
X294126Y189195D02*
X296158D01*
X296285Y189322D01*
X294888Y197577D02*
Y199495D01*
X293999Y196688D02*
X294888Y197577D01*
X290189Y187290D02*
Y192243D01*
X293999Y196053D02*
Y196688D01*
X290189Y187290D02*
X291459Y186020D01*
X292901D01*
X293491Y185430D01*
X291332Y191227D02*
X293237Y193132D01*
X291332Y188433D02*
Y191227D01*
Y188433D02*
X291967Y187798D01*
X292729D01*
X296158Y197704D02*
Y199495D01*
X296920Y196053D02*
Y196942D01*
X296158Y197704D02*
X296920Y196942D01*
X293237Y193132D02*
X295269D01*
X297219Y195082D01*
Y195672D01*
D40*
X277394Y194307D02*
X277552D01*
X264408Y177003D02*
X270654Y183249D01*
X265170Y173447D02*
X266186D01*
X264408Y174209D02*
X265170Y173447D01*
X264408Y174209D02*
Y177003D01*
X270654Y183249D02*
X274680D01*
X276346Y193259D02*
X277394Y194307D01*
X276346Y191608D02*
Y193259D01*
Y191608D02*
X276880Y191074D01*
Y189449D02*
Y191074D01*
D41*
X288792Y255870D02*
Y256505D01*
X283204Y255870D02*
Y256632D01*
X277743Y255870D02*
Y256632D01*
X272155Y255870D02*
Y256759D01*
X272663Y257267D02*
X277362D01*
X272155Y256759D02*
X272663Y257267D01*
X298444D02*
X300603Y255108D01*
X288030Y257267D02*
X298444D01*
X288030D02*
X288792Y256505D01*
X279267Y238090D02*
X279316Y238041D01*
X277362Y257267D02*
X277743Y256886D01*
X278378Y257267D02*
X282569D01*
X283204Y256632D01*
X283839Y257267D01*
X288030D01*
X277743Y256632D02*
Y256886D01*
Y256632D02*
X278378Y257267D01*
X281553Y160620D02*
Y163003D01*
X300603Y241646D02*
Y255108D01*
D42*
X222648Y232398D02*
Y243180D01*
X217418Y227168D02*
X222648Y232398D01*
X217418Y195984D02*
Y227168D01*
X234309Y238476D02*
Y248377D01*
X226806Y255880D02*
X234309Y248377D01*
X226458Y255880D02*
X226806D01*
X234309Y238476D02*
X237992Y234793D01*
X230690Y235105D02*
Y244249D01*
X227451Y247488D02*
X230690Y244249D01*
X224403Y247488D02*
X227451D01*
X209290Y246980D02*
X215028Y252718D01*
X209290Y236825D02*
Y246980D01*
X264535Y230724D02*
X267456Y227803D01*
X264535Y230724D02*
Y244821D01*
X261106Y248250D02*
X264535Y244821D01*
X258439Y248250D02*
X261106D01*
X252063Y254626D02*
X258439Y248250D01*
X252063Y254626D02*
Y255880D01*
X243961Y227803D02*
X252597D01*
X242818Y228946D02*
X243961Y227803D01*
X242818Y228946D02*
Y240995D01*
X240633Y243180D02*
X242818Y240995D01*
X244443Y243180D02*
X245104Y242519D01*
Y231290D02*
Y242519D01*
X245097Y231283D02*
X245104Y231290D01*
X237611Y240249D02*
X240659Y237201D01*
Y224247D02*
Y237201D01*
X248253Y239137D02*
X252597Y234793D01*
X248253Y239137D02*
Y243180D01*
X237611Y252832D02*
X240659Y255880D01*
X237611Y240249D02*
Y252832D01*
X230690Y235105D02*
X237992Y227803D01*
X218838Y253053D02*
X224403Y247488D01*
X218838Y253053D02*
Y255880D01*
X214617Y193183D02*
X217418Y195984D01*
X214617Y191405D02*
Y193183D01*
X219704Y197328D02*
X222117Y194915D01*
X219704Y197328D02*
Y226406D01*
X226458Y233160D01*
X211218Y224395D02*
Y243180D01*
Y224395D02*
X214617Y220996D01*
X226458Y233160D02*
Y243180D01*
X215028Y252718D02*
Y255880D01*
X204845Y230724D02*
X207512Y228057D01*
X204845Y230724D02*
Y248377D01*
X207434Y250965D01*
Y255880D01*
X234563Y199355D02*
X237865Y196053D01*
X234563Y199355D02*
Y218151D01*
X240659Y224247D01*
X207512Y235047D02*
X209290Y236825D01*
D43*
X283712Y162144D02*
X283761Y162193D01*
X283712Y161611D02*
Y162144D01*
Y161611D02*
X286133Y159190D01*
X256407Y157191D02*
Y159047D01*
X256505Y159145D01*
X256554Y159096D01*
X258566D01*
D44*
X296733Y247430D02*
D03*
Y244890D02*
D03*
X274808Y247430D02*
D03*
Y244890D02*
D03*
X280236Y247430D02*
D03*
Y244890D02*
D03*
X285694Y247430D02*
D03*
Y244890D02*
D03*
X291196Y247430D02*
D03*
Y244890D02*
D03*
D45*
X222117Y194915D02*
D03*
Y171415D02*
D03*
Y187925D02*
D03*
X214617Y191405D02*
D03*
X214624Y171415D02*
D03*
X237992Y234793D02*
D03*
Y211293D02*
D03*
Y227803D02*
D03*
X230492Y231283D02*
D03*
X230499Y211293D02*
D03*
X222117Y224506D02*
D03*
Y201006D02*
D03*
Y217516D02*
D03*
X214617Y220996D02*
D03*
X214624Y201006D02*
D03*
X207519Y234869D02*
D03*
Y211369D02*
D03*
Y227879D02*
D03*
X200019Y231359D02*
D03*
X200026Y211369D02*
D03*
X267456Y234793D02*
D03*
Y211293D02*
D03*
Y227803D02*
D03*
X259956Y231283D02*
D03*
X259963Y211293D02*
D03*
X251962Y203043D02*
D03*
Y179543D02*
D03*
Y196053D02*
D03*
X244462Y199533D02*
D03*
X244469Y179543D02*
D03*
X252597Y234793D02*
D03*
Y211293D02*
D03*
Y227803D02*
D03*
X245097Y231283D02*
D03*
X245104Y211293D02*
D03*
X237865Y203043D02*
D03*
Y179543D02*
D03*
Y196053D02*
D03*
X230365Y199533D02*
D03*
X230372Y179543D02*
D03*
D46*
X266186Y173447D02*
D03*
D47*
Y175987D02*
D03*
X268726Y173447D02*
D03*
Y175987D02*
D03*
X271266Y173447D02*
D03*
X273806D02*
D03*
Y175987D02*
D03*
X271266D02*
D03*
X276346Y173447D02*
D03*
Y175987D02*
D03*
D48*
X302833Y184800D02*
D03*
Y179720D02*
D03*
Y189880D02*
D03*
Y169560D02*
D03*
Y174640D02*
D03*
D49*
X217803Y233705D02*
D03*
X287803D02*
D03*
D50*
X293720Y246853D02*
D03*
X240913Y152746D02*
D03*
X282569Y155159D02*
D03*
X286252Y220437D02*
D03*
X278505Y179162D02*
D03*
X282950Y229327D02*
D03*
X282823Y220691D02*
D03*
X260598Y176876D02*
D03*
X256407Y176749D02*
D03*
X298317Y230216D02*
D03*
X278442Y187544D02*
D03*
X283966Y246218D02*
D03*
X282188D02*
D03*
X277997Y231867D02*
D03*
X275457Y231994D02*
D03*
X275965Y239106D02*
D03*
X281807Y215738D02*
D03*
X272536Y203419D02*
D03*
X277235Y246345D02*
D03*
X276219Y223485D02*
D03*
X278378Y221580D02*
D03*
X275838Y205578D02*
D03*
X241294Y161128D02*
D03*
X261106Y165827D02*
D03*
X283761Y162193D02*
D03*
X265424Y165827D02*
D03*
X263265D02*
D03*
X281045Y186020D02*
D03*
X280791Y175098D02*
D03*
X291633Y153980D02*
D03*
X286133Y162780D02*
D03*
X288633D02*
D03*
X291133Y162880D02*
D03*
X288833Y159080D02*
D03*
Y157380D02*
D03*
Y155680D02*
D03*
X290062Y150460D02*
D03*
X291840D02*
D03*
X273806Y196307D02*
D03*
X266186Y181575D02*
D03*
X299333Y197958D02*
D03*
X298317Y253965D02*
D03*
X208401Y185639D02*
D03*
X288538Y211166D02*
D03*
X287268Y213071D02*
D03*
X288919Y246345D02*
D03*
X250184Y163414D02*
D03*
X250311Y161001D02*
D03*
X240024Y161128D02*
D03*
Y163414D02*
D03*
X241294D02*
D03*
X258566Y159096D02*
D03*
X300603Y241646D02*
D03*
X299587Y205197D02*
D03*
X291205Y183226D02*
D03*
X288411Y181067D02*
D03*
X289935Y180940D02*
D03*
X299333Y203038D02*
D03*
X304921Y195672D02*
D03*
X288030Y193640D02*
D03*
D51*
X290697Y168875D02*
D03*
D52*
X288157Y240822D02*
D03*
M02*
