G04 Layer_Color=8388736*
%FSLAX43Y43*%
%MOMM*%
G71*
G01*
G75*
%ADD44C,1.520*%
%ADD76R,1.003X0.903*%
%ADD77R,1.503X1.303*%
%ADD78R,1.703X0.803*%
%ADD79O,0.803X2.453*%
%ADD80R,0.903X1.003*%
%ADD81R,3.203X6.203*%
G04:AMPARAMS|DCode=82|XSize=0.703mm|YSize=1.903mm|CornerRadius=0.227mm|HoleSize=0mm|Usage=FLASHONLY|Rotation=0.000|XOffset=0mm|YOffset=0mm|HoleType=Round|Shape=RoundedRectangle|*
%AMROUNDEDRECTD82*
21,1,0.703,1.450,0,0,0.0*
21,1,0.250,1.903,0,0,0.0*
1,1,0.453,0.125,-0.725*
1,1,0.453,-0.125,-0.725*
1,1,0.453,-0.125,0.725*
1,1,0.453,0.125,0.725*
%
%ADD82ROUNDEDRECTD82*%
%ADD83R,1.903X1.803*%
%ADD84R,1.803X1.903*%
%ADD85O,1.600X0.500*%
%ADD86O,0.500X1.600*%
G04:AMPARAMS|DCode=87|XSize=1.703mm|YSize=3.403mm|CornerRadius=0.477mm|HoleSize=0mm|Usage=FLASHONLY|Rotation=270.000|XOffset=0mm|YOffset=0mm|HoleType=Round|Shape=RoundedRectangle|*
%AMROUNDEDRECTD87*
21,1,1.703,2.450,0,0,270.0*
21,1,0.750,3.403,0,0,270.0*
1,1,0.953,-1.225,-0.375*
1,1,0.953,-1.225,0.375*
1,1,0.953,1.225,0.375*
1,1,0.953,1.225,-0.375*
%
%ADD87ROUNDEDRECTD87*%
%ADD88R,1.003X1.103*%
%ADD89R,1.703X3.403*%
%ADD90R,1.803X1.203*%
G04:AMPARAMS|DCode=91|XSize=1.7mm|YSize=2.7mm|CornerRadius=0.475mm|HoleSize=0mm|Usage=FLASHONLY|Rotation=0.000|XOffset=0mm|YOffset=0mm|HoleType=Round|Shape=RoundedRectangle|*
%AMROUNDEDRECTD91*
21,1,1.700,1.750,0,0,0.0*
21,1,0.750,2.700,0,0,0.0*
1,1,0.950,0.375,-0.875*
1,1,0.950,-0.375,-0.875*
1,1,0.950,-0.375,0.875*
1,1,0.950,0.375,0.875*
%
%ADD91ROUNDEDRECTD91*%
G04:AMPARAMS|DCode=92|XSize=4.203mm|YSize=4.203mm|CornerRadius=1.102mm|HoleSize=0mm|Usage=FLASHONLY|Rotation=0.000|XOffset=0mm|YOffset=0mm|HoleType=Round|Shape=RoundedRectangle|*
%AMROUNDEDRECTD92*
21,1,4.203,2.000,0,0,0.0*
21,1,2.000,4.203,0,0,0.0*
1,1,2.203,1.000,-1.000*
1,1,2.203,-1.000,-1.000*
1,1,2.203,-1.000,1.000*
1,1,2.203,1.000,1.000*
%
%ADD92ROUNDEDRECTD92*%
%ADD93R,2.003X2.303*%
%ADD94R,2.303X2.003*%
%ADD95R,2.403X1.803*%
%ADD96R,1.203X1.803*%
%ADD97C,1.727*%
G04:AMPARAMS|DCode=98|XSize=12.203mm|YSize=4.203mm|CornerRadius=1.102mm|HoleSize=0mm|Usage=FLASHONLY|Rotation=0.000|XOffset=0mm|YOffset=0mm|HoleType=Round|Shape=RoundedRectangle|*
%AMROUNDEDRECTD98*
21,1,12.203,2.000,0,0,0.0*
21,1,10.000,4.203,0,0,0.0*
1,1,2.203,5.000,-1.000*
1,1,2.203,-5.000,-1.000*
1,1,2.203,-5.000,1.000*
1,1,2.203,5.000,1.000*
%
%ADD98ROUNDEDRECTD98*%
%ADD99C,1.203*%
%ADD100C,2.003*%
%ADD101R,1.853X1.853*%
%ADD102C,1.853*%
%ADD103C,2.703*%
%ADD104C,4.703*%
%ADD105C,1.703*%
%ADD106C,1.003*%
D44*
X296733Y247430D02*
D03*
Y244890D02*
D03*
X274808Y247430D02*
D03*
Y244890D02*
D03*
X280236Y247430D02*
D03*
Y244890D02*
D03*
X285694Y247430D02*
D03*
Y244890D02*
D03*
X291196Y247430D02*
D03*
Y244890D02*
D03*
D76*
X295777Y161255D02*
D03*
Y159955D02*
D03*
X273883Y238090D02*
D03*
Y239390D02*
D03*
X284728Y238090D02*
D03*
Y239390D02*
D03*
X284844Y254058D02*
D03*
Y252758D02*
D03*
X290189Y238090D02*
D03*
Y239390D02*
D03*
X279267Y238090D02*
D03*
Y239390D02*
D03*
X290471Y254058D02*
D03*
Y252758D02*
D03*
X256407Y160747D02*
D03*
Y159447D02*
D03*
X295783Y157530D02*
D03*
Y156230D02*
D03*
X295883Y239868D02*
D03*
Y238568D02*
D03*
X288411Y183353D02*
D03*
Y182053D02*
D03*
X256407Y157191D02*
D03*
Y155891D02*
D03*
X279775Y164303D02*
D03*
Y163003D02*
D03*
X295777Y151476D02*
D03*
Y152776D02*
D03*
X293783Y161280D02*
D03*
Y159980D02*
D03*
X272952Y194385D02*
D03*
Y193085D02*
D03*
X279752Y192607D02*
D03*
Y193907D02*
D03*
X289935Y181956D02*
D03*
Y183256D02*
D03*
X299333Y201387D02*
D03*
Y200087D02*
D03*
X295883Y252280D02*
D03*
Y253580D02*
D03*
X293999Y252314D02*
D03*
Y253614D02*
D03*
X279461Y254058D02*
D03*
Y252758D02*
D03*
X273883Y254058D02*
D03*
Y252758D02*
D03*
X297809Y238568D02*
D03*
Y239868D02*
D03*
X281553Y163003D02*
D03*
Y164303D02*
D03*
D77*
X277552Y194385D02*
D03*
X275252D02*
D03*
X277552Y192585D02*
D03*
X275252D02*
D03*
D78*
X291533Y156650D02*
D03*
Y155380D02*
D03*
Y159190D02*
D03*
Y157920D02*
D03*
X286133Y159190D02*
D03*
Y157920D02*
D03*
Y156650D02*
D03*
Y155380D02*
D03*
D79*
X296158Y204295D02*
D03*
X297428D02*
D03*
X296158Y199495D02*
D03*
X297428D02*
D03*
X294888D02*
D03*
Y204295D02*
D03*
X293618D02*
D03*
Y199495D02*
D03*
D80*
X299079Y206340D02*
D03*
X297779D02*
D03*
X283933Y153280D02*
D03*
X282633D02*
D03*
X281553Y160620D02*
D03*
X280253D02*
D03*
X279043Y255870D02*
D03*
X277743D02*
D03*
X274361Y236312D02*
D03*
X275661D02*
D03*
X282472Y238090D02*
D03*
X281172D02*
D03*
X273455Y255870D02*
D03*
X272155D02*
D03*
X284504D02*
D03*
X283204D02*
D03*
X287933Y238090D02*
D03*
X286633D02*
D03*
X278789Y236312D02*
D03*
X277489D02*
D03*
X290092Y255870D02*
D03*
X288792D02*
D03*
X207863Y198339D02*
D03*
X209163D02*
D03*
X207863Y195799D02*
D03*
X209163D02*
D03*
X207863Y193259D02*
D03*
X209163D02*
D03*
X207863Y190719D02*
D03*
X209163D02*
D03*
X207863Y188179D02*
D03*
X209163D02*
D03*
X244058Y149063D02*
D03*
X245358D02*
D03*
D81*
X275283Y153530D02*
D03*
X265283D02*
D03*
D82*
X287253Y218153D02*
D03*
X285983D02*
D03*
X288523D02*
D03*
X283443D02*
D03*
X282173D02*
D03*
X284713D02*
D03*
X285983Y208753D02*
D03*
X284713D02*
D03*
X288523D02*
D03*
X287253D02*
D03*
X282173D02*
D03*
X280903D02*
D03*
X283443D02*
D03*
X280903Y218153D02*
D03*
X279633D02*
D03*
X278378D02*
D03*
X279633Y208753D02*
D03*
X278378D02*
D03*
D83*
X303270Y153254D02*
D03*
Y156754D02*
D03*
X294380Y166716D02*
D03*
Y170216D02*
D03*
D84*
X287133Y150680D02*
D03*
X283633D02*
D03*
D85*
X283080Y187249D02*
D03*
Y186449D02*
D03*
Y188049D02*
D03*
Y184849D02*
D03*
Y185649D02*
D03*
Y184049D02*
D03*
Y183249D02*
D03*
Y182449D02*
D03*
X274680Y187249D02*
D03*
Y186449D02*
D03*
Y188049D02*
D03*
Y184849D02*
D03*
Y185649D02*
D03*
Y184049D02*
D03*
Y182449D02*
D03*
Y183249D02*
D03*
D86*
X280080Y189449D02*
D03*
X280880D02*
D03*
X279280D02*
D03*
X281680D02*
D03*
X281680Y181049D02*
D03*
X279280D02*
D03*
X278480D02*
D03*
X280880D02*
D03*
X280080D02*
D03*
X276880Y189449D02*
D03*
X277680D02*
D03*
X276080D02*
D03*
X278480D02*
D03*
X277680Y181049D02*
D03*
X276880D02*
D03*
X276080D02*
D03*
D87*
X297809Y177511D02*
D03*
Y173320D02*
D03*
X293999Y177511D02*
D03*
Y173320D02*
D03*
D88*
X295549Y242408D02*
D03*
X293745D02*
D03*
X289961Y242451D02*
D03*
X288157D02*
D03*
X284627Y242430D02*
D03*
X282823D02*
D03*
X279068Y242451D02*
D03*
X277264D02*
D03*
X273513Y242451D02*
D03*
X271709D02*
D03*
X279013Y249901D02*
D03*
X277210D02*
D03*
X284323Y249970D02*
D03*
X282519D02*
D03*
X289825D02*
D03*
X288021D02*
D03*
X295523Y249901D02*
D03*
X293720D02*
D03*
X273564Y249970D02*
D03*
X271760D02*
D03*
D89*
X296185Y184750D02*
D03*
X299385D02*
D03*
X296185Y189957D02*
D03*
X299385D02*
D03*
D90*
X298317Y150714D02*
D03*
Y153514D02*
D03*
X261995Y161890D02*
D03*
Y159090D02*
D03*
D91*
X243326Y157191D02*
D03*
X245626D02*
D03*
X247926D02*
D03*
D92*
X245626Y162191D02*
D03*
D93*
X297219Y195672D02*
D03*
X301619D02*
D03*
X294126D02*
D03*
X289726D02*
D03*
D94*
X293491Y189531D02*
D03*
Y185131D02*
D03*
D95*
X253613Y155511D02*
D03*
Y159731D02*
D03*
D96*
X242818Y152619D02*
D03*
X245618D02*
D03*
D97*
X260471Y151349D02*
D03*
X300730Y163668D02*
D03*
X240659Y255880D02*
D03*
X240633Y243180D02*
D03*
X244443Y255880D02*
D03*
Y243180D02*
D03*
X248253Y255880D02*
D03*
Y243180D02*
D03*
X252063Y255880D02*
D03*
Y243180D02*
D03*
X255873Y255880D02*
D03*
Y243180D02*
D03*
X259683Y255880D02*
D03*
Y243180D02*
D03*
X207434Y255880D02*
D03*
X207408Y243180D02*
D03*
X211218Y255880D02*
D03*
Y243180D02*
D03*
X215028Y255880D02*
D03*
Y243180D02*
D03*
X218838Y255880D02*
D03*
Y243180D02*
D03*
X222648Y255880D02*
D03*
Y243180D02*
D03*
X226458Y255880D02*
D03*
Y243180D02*
D03*
X205353Y198339D02*
D03*
Y195799D02*
D03*
Y193259D02*
D03*
Y188179D02*
D03*
Y190719D02*
D03*
X197733Y198339D02*
D03*
Y193259D02*
D03*
Y195799D02*
D03*
Y190719D02*
D03*
Y188179D02*
D03*
D98*
X245231Y162271D02*
D03*
D99*
X287268Y204562D02*
D03*
X285998Y206340D02*
D03*
X284855Y204435D02*
D03*
X283458Y206213D02*
D03*
X282188Y204308D02*
D03*
X280918Y206213D02*
D03*
X279648Y204308D02*
D03*
X278378Y206213D02*
D03*
D100*
X222117Y194915D02*
D03*
Y171415D02*
D03*
Y187925D02*
D03*
X214617Y191405D02*
D03*
X214624Y171415D02*
D03*
X237992Y234793D02*
D03*
Y211293D02*
D03*
Y227803D02*
D03*
X230492Y231283D02*
D03*
X230499Y211293D02*
D03*
X222117Y224506D02*
D03*
Y201006D02*
D03*
Y217516D02*
D03*
X214617Y220996D02*
D03*
X214624Y201006D02*
D03*
X207519Y234869D02*
D03*
Y211369D02*
D03*
Y227879D02*
D03*
X200019Y231359D02*
D03*
X200026Y211369D02*
D03*
X267456Y234793D02*
D03*
Y211293D02*
D03*
Y227803D02*
D03*
X259956Y231283D02*
D03*
X259963Y211293D02*
D03*
X251962Y203043D02*
D03*
Y179543D02*
D03*
Y196053D02*
D03*
X244462Y199533D02*
D03*
X244469Y179543D02*
D03*
X252597Y234793D02*
D03*
Y211293D02*
D03*
Y227803D02*
D03*
X245097Y231283D02*
D03*
X245104Y211293D02*
D03*
X237865Y203043D02*
D03*
Y179543D02*
D03*
Y196053D02*
D03*
X230365Y199533D02*
D03*
X230372Y179543D02*
D03*
D101*
X266186Y173447D02*
D03*
D102*
Y175987D02*
D03*
X268726Y173447D02*
D03*
Y175987D02*
D03*
X271266Y173447D02*
D03*
X273806D02*
D03*
Y175987D02*
D03*
X271266D02*
D03*
X276346Y173447D02*
D03*
Y175987D02*
D03*
D103*
X302833Y184800D02*
D03*
Y179720D02*
D03*
Y189880D02*
D03*
Y169560D02*
D03*
Y174640D02*
D03*
D104*
X217803Y233705D02*
D03*
X287803D02*
D03*
D105*
X290697Y168875D02*
D03*
D106*
X288157Y240822D02*
D03*
M02*
