G04 Layer_Physical_Order=4*
G04 Layer_Color=16711680*
%FSLAX43Y43*%
%MOMM*%
G71*
G01*
G75*
%ADD31C,1.524*%
%ADD34C,0.300*%
%ADD35C,1.000*%
%ADD36C,0.254*%
%ADD37C,0.250*%
%ADD38C,0.400*%
%ADD42C,0.800*%
%ADD43C,0.350*%
%ADD44C,1.520*%
%ADD45C,1.800*%
%ADD46R,1.650X1.650*%
%ADD47C,1.650*%
%ADD48C,2.500*%
%ADD49C,4.500*%
%ADD50C,0.700*%
%ADD51C,1.500*%
%ADD52C,0.800*%
G36*
X290156Y178728D02*
X286961Y175533D01*
X281276D01*
X281255Y175561D01*
X281119Y175666D01*
X280961Y175731D01*
X280791Y175753D01*
X280621Y175731D01*
X280463Y175666D01*
X280328Y175561D01*
X280223Y175426D01*
X280158Y175267D01*
X280136Y175098D01*
X280158Y174928D01*
X280223Y174770D01*
X280328Y174634D01*
X280463Y174530D01*
X280621Y174464D01*
X280791Y174442D01*
X280961Y174464D01*
X281119Y174530D01*
X281255Y174634D01*
X281276Y174662D01*
X287141D01*
X287308Y174696D01*
X287449Y174790D01*
X290038Y177379D01*
X290156Y177331D01*
Y173320D01*
X288632Y171796D01*
X287489Y170653D01*
X265010D01*
X264746Y170916D01*
X264795Y171034D01*
X278886D01*
X279267Y171415D01*
Y175879D01*
X286178Y182790D01*
X290156D01*
Y178728D01*
D02*
G37*
G36*
X305429Y170653D02*
X305556Y170526D01*
Y168113D01*
Y167986D01*
X304667Y167097D01*
X304540Y166970D01*
X301365D01*
X300349Y167986D01*
Y171288D01*
X300349Y171288D01*
X300349D01*
Y171288D01*
X300730Y171669D01*
X304413D01*
X305429Y170653D01*
D02*
G37*
G36*
X297428Y161890D02*
X297682Y161636D01*
Y150587D01*
Y150079D01*
X296666Y149063D01*
X296412Y148809D01*
X281807D01*
X280664Y149952D01*
X280283Y150333D01*
Y158415D01*
X281172D01*
X281348Y158438D01*
X281430Y158472D01*
X281513Y158506D01*
X281654Y158614D01*
X284239Y161200D01*
X284316Y161232D01*
X284546Y161408D01*
X284722Y161638D01*
X284833Y161906D01*
X284871Y162193D01*
X284833Y162480D01*
X284722Y162747D01*
X284546Y162977D01*
X284316Y163154D01*
X284048Y163264D01*
X283761Y163302D01*
X283474Y163264D01*
X283206Y163154D01*
X282977Y162977D01*
X282800Y162747D01*
X282689Y162480D01*
X282652Y162193D01*
X282689Y161906D01*
X282786Y161672D01*
X280890Y159777D01*
X280283D01*
Y160874D01*
X282950Y163541D01*
X295777D01*
X297428Y161890D01*
D02*
G37*
G36*
X250819Y164239D02*
X251327Y163731D01*
Y161318D01*
Y160810D01*
X250692Y160175D01*
X239770D01*
X239389Y160556D01*
Y160810D01*
Y163985D01*
X239770Y164366D01*
X250692D01*
X250819Y164239D01*
D02*
G37*
G36*
X289521Y195926D02*
X290156Y195291D01*
Y185512D01*
Y183661D01*
X285998D01*
X285832Y183628D01*
X285690Y183534D01*
X279384Y177228D01*
X279267Y177276D01*
Y177765D01*
X278759Y178273D01*
X263773D01*
X263011Y177511D01*
Y172930D01*
X262884Y172865D01*
X262851Y172888D01*
Y179543D01*
Y186528D01*
X274408Y198085D01*
X287362D01*
X289521Y195926D01*
D02*
G37*
%LPC*%
G36*
X288411Y181722D02*
X288241Y181700D01*
X288083Y181635D01*
X287948Y181530D01*
X287843Y181395D01*
X287778Y181236D01*
X287756Y181067D01*
X287778Y180897D01*
X287843Y180739D01*
X287948Y180603D01*
X288083Y180499D01*
X288241Y180433D01*
X288411Y180411D01*
X288581Y180433D01*
X288739Y180499D01*
X288875Y180603D01*
X288979Y180739D01*
X289044Y180897D01*
X289067Y181067D01*
X289044Y181236D01*
X288979Y181395D01*
X288875Y181530D01*
X288739Y181635D01*
X288581Y181700D01*
X288411Y181722D01*
D02*
G37*
G36*
X282569Y156268D02*
X282282Y156230D01*
X282014Y156120D01*
X281785Y155943D01*
X281608Y155713D01*
X281497Y155446D01*
X281460Y155159D01*
X281497Y154872D01*
X281608Y154604D01*
X281785Y154374D01*
X282014Y154198D01*
X282282Y154087D01*
X282558Y154051D01*
X283881Y152728D01*
X284089Y152589D01*
X284333Y152540D01*
X290833D01*
X291078Y152589D01*
X291285Y152728D01*
X291452Y152894D01*
X291633Y152870D01*
X291920Y152908D01*
X292188Y153019D01*
X292418Y153195D01*
X292594Y153425D01*
X292705Y153693D01*
X292743Y153980D01*
X292705Y154267D01*
X292594Y154534D01*
X292418Y154764D01*
X292188Y154941D01*
X291920Y155051D01*
X291633Y155089D01*
X291346Y155051D01*
X291078Y154941D01*
X290849Y154764D01*
X290672Y154534D01*
X290561Y154267D01*
X290524Y153980D01*
X290532Y153915D01*
X290449Y153819D01*
X284598D01*
X283613Y154804D01*
X283641Y154872D01*
X283679Y155159D01*
X283641Y155446D01*
X283530Y155713D01*
X283354Y155943D01*
X283124Y156120D01*
X282856Y156230D01*
X282569Y156268D01*
D02*
G37*
G36*
X278442Y188199D02*
X278272Y188177D01*
X278114Y188112D01*
X277978Y188007D01*
X277874Y187872D01*
X277808Y187713D01*
X277786Y187544D01*
X277808Y187374D01*
X277874Y187216D01*
X277978Y187080D01*
X278114Y186976D01*
X278272Y186910D01*
X278442Y186888D01*
X278611Y186910D01*
X278769Y186976D01*
X278905Y187080D01*
X279009Y187216D01*
X279075Y187374D01*
X279097Y187544D01*
X279075Y187713D01*
X279009Y187872D01*
X278905Y188007D01*
X278769Y188112D01*
X278611Y188177D01*
X278442Y188199D01*
D02*
G37*
G36*
X278505Y179817D02*
X278335Y179795D01*
X278177Y179730D01*
X278042Y179625D01*
X277937Y179490D01*
X277872Y179331D01*
X277850Y179162D01*
X277872Y178992D01*
X277937Y178834D01*
X278042Y178698D01*
X278177Y178594D01*
X278335Y178528D01*
X278505Y178506D01*
X278675Y178528D01*
X278833Y178594D01*
X278969Y178698D01*
X279073Y178834D01*
X279138Y178992D01*
X279161Y179162D01*
X279138Y179331D01*
X279073Y179490D01*
X278969Y179625D01*
X278833Y179730D01*
X278675Y179795D01*
X278505Y179817D01*
D02*
G37*
%LPD*%
D31*
X240659Y255880D02*
D03*
X240633Y243180D02*
D03*
X244443Y255880D02*
D03*
Y243180D02*
D03*
X248253Y255880D02*
D03*
Y243180D02*
D03*
X252063Y255880D02*
D03*
Y243180D02*
D03*
X255873Y255880D02*
D03*
Y243180D02*
D03*
X259683Y255880D02*
D03*
Y243180D02*
D03*
X207434Y255880D02*
D03*
X207408Y243180D02*
D03*
X211218Y255880D02*
D03*
Y243180D02*
D03*
X215028Y255880D02*
D03*
Y243180D02*
D03*
X218838Y255880D02*
D03*
Y243180D02*
D03*
X222648Y255880D02*
D03*
Y243180D02*
D03*
X226458Y255880D02*
D03*
Y243180D02*
D03*
X205353Y198339D02*
D03*
Y195799D02*
D03*
Y193259D02*
D03*
Y188179D02*
D03*
Y190719D02*
D03*
X197733Y198339D02*
D03*
Y193259D02*
D03*
Y195799D02*
D03*
Y190719D02*
D03*
Y188179D02*
D03*
D34*
X282188Y230089D02*
X282950Y229327D01*
X282188Y230089D02*
Y239614D01*
X282950Y228946D02*
Y229327D01*
X283458Y213198D02*
Y220056D01*
X282823Y220691D02*
X283458Y220056D01*
X281045Y222469D02*
X282823Y220691D01*
X281045Y222469D02*
Y240249D01*
X260598Y189068D02*
X274314Y202784D01*
X260598Y176876D02*
Y189068D01*
X256407Y192624D02*
X271647Y207864D01*
X256407Y176749D02*
Y192624D01*
X298317Y228184D02*
Y230216D01*
X294507Y224374D02*
X298317Y228184D01*
X282188Y241392D02*
Y246218D01*
X281045Y240249D02*
X282188Y241392D01*
X275457Y231867D02*
Y231994D01*
X271647Y228057D02*
X275457Y231867D01*
X271647Y207864D02*
Y228057D01*
X283966Y241392D02*
Y246218D01*
X282188Y239614D02*
X283966Y241392D01*
X275965Y236566D02*
X280029Y232502D01*
Y217516D02*
Y232502D01*
Y217516D02*
X281807Y215738D01*
X275965Y236566D02*
Y239106D01*
X274314Y208245D02*
X281807Y215738D01*
X274314Y202784D02*
Y208245D01*
X275838Y205578D02*
X283458Y213198D01*
X294507Y214722D02*
Y224374D01*
X288157Y240822D02*
X292348Y236185D01*
X288919Y244059D02*
Y246345D01*
X283331Y238471D02*
X288919Y244059D01*
X283331Y231232D02*
Y238471D01*
Y231232D02*
X285871Y228692D01*
X287268Y213071D02*
X292348Y218151D01*
Y236185D01*
X285871Y220818D02*
Y228692D01*
Y220818D02*
X286252Y220437D01*
D35*
X200019Y211547D02*
X211576Y199990D01*
X244469Y179543D02*
X255137Y168875D01*
X217164D02*
X241040D01*
X214624Y171415D02*
X217164Y168875D01*
X230372Y179543D02*
X241040Y168875D01*
X211576Y174463D02*
X214624Y171415D01*
X211576Y174463D02*
Y197958D01*
X214624Y201006D01*
X226689Y183226D02*
X230372Y179543D01*
X226689Y183226D02*
Y207483D01*
X230499Y211293D01*
X211576Y197958D02*
Y199990D01*
X241040Y168875D02*
X255137D01*
X290697D01*
X297174Y175352D01*
X300984Y241646D02*
X306318Y236312D01*
X300603Y241646D02*
X300984D01*
X297174Y175352D02*
Y190973D01*
X306318Y200117D01*
Y236312D01*
D36*
X282569Y154944D02*
Y155159D01*
Y154944D02*
X284333Y153180D01*
X271266Y172431D02*
Y173447D01*
Y172431D02*
X272155Y171542D01*
X277362D01*
X278632Y172812D01*
Y175860D01*
X294507Y182464D02*
Y214722D01*
X287141Y175098D02*
X294507Y182464D01*
X280791Y175098D02*
X287141D01*
X284333Y153180D02*
X290833D01*
X291633Y153980D01*
X278632Y175860D02*
X285998Y183226D01*
X291205D01*
D37*
X272536Y215738D02*
X278378Y221580D01*
X272536Y203419D02*
Y215738D01*
D38*
X274568Y235931D02*
X277997Y232502D01*
X276219Y223485D02*
X277997Y225263D01*
X277235Y243678D02*
Y246345D01*
X274568Y241011D02*
X277235Y243678D01*
X274568Y235931D02*
Y241011D01*
X277997Y225263D02*
Y231867D01*
Y232502D01*
D42*
X220842Y224506D02*
X222117D01*
X213227Y232121D02*
X220842Y224506D01*
X213227Y232121D02*
Y238217D01*
X215028Y240018D01*
X247771Y208499D02*
Y237582D01*
X241675Y202403D02*
X247771Y208499D01*
X241675Y197704D02*
Y202403D01*
Y197704D02*
X243326Y196053D01*
X252063Y241874D02*
Y243180D01*
X247771Y237582D02*
X252063Y241874D01*
X259683Y255880D02*
X265805Y249758D01*
Y236444D02*
Y249758D01*
Y236444D02*
X267456Y234793D01*
X233293Y244730D02*
X244443Y255880D01*
X233293Y202461D02*
Y244730D01*
X262884Y234211D02*
Y247742D01*
X255873Y254753D02*
X262884Y247742D01*
X255873Y254753D02*
Y255880D01*
X259956Y231283D02*
X262884Y234211D01*
X243326Y196053D02*
X251962D01*
Y203043D02*
X255391Y206472D01*
Y237709D01*
X259683Y242001D01*
Y243180D01*
X244462Y199533D02*
X249803Y204874D01*
Y236058D01*
X255873Y242128D01*
Y243180D01*
X235452Y242916D02*
X248253Y255717D01*
X235452Y205456D02*
Y242916D01*
X230365Y199533D02*
X233293Y202461D01*
X248253Y255717D02*
Y255880D01*
X218688Y191354D02*
X222117Y187925D01*
X218688Y191354D02*
Y206975D01*
X225038Y213325D01*
Y233645D01*
X218838Y239845D02*
X225038Y233645D01*
X218838Y239845D02*
Y243180D01*
X222117Y217516D02*
Y219294D01*
X230492Y231283D02*
Y245971D01*
X222648Y253815D02*
X230492Y245971D01*
X222648Y253815D02*
Y255880D01*
X215028Y240018D02*
Y243180D01*
X207408Y240988D02*
Y243180D01*
X204845Y241265D02*
Y247488D01*
X200012Y236432D02*
X204845Y241265D01*
Y247488D02*
X211218Y253861D01*
Y255880D01*
X235452Y205456D02*
X237865Y203043D01*
X207408Y240988D02*
X210687Y237709D01*
Y230724D02*
X222117Y219294D01*
X210687Y230724D02*
Y237709D01*
X200012Y231537D02*
Y236432D01*
D43*
X281172Y159096D02*
X283761Y161685D01*
Y162193D01*
X258566Y159096D02*
X281172D01*
D44*
X296733Y247430D02*
D03*
Y244890D02*
D03*
X274808Y247430D02*
D03*
Y244890D02*
D03*
X280236Y247430D02*
D03*
Y244890D02*
D03*
X285694Y247430D02*
D03*
Y244890D02*
D03*
X291196Y247430D02*
D03*
Y244890D02*
D03*
D45*
X222117Y194915D02*
D03*
Y171415D02*
D03*
Y187925D02*
D03*
X214617Y191405D02*
D03*
X214624Y171415D02*
D03*
X237992Y234793D02*
D03*
Y211293D02*
D03*
Y227803D02*
D03*
X230492Y231283D02*
D03*
X230499Y211293D02*
D03*
X222117Y224506D02*
D03*
Y201006D02*
D03*
Y217516D02*
D03*
X214617Y220996D02*
D03*
X214624Y201006D02*
D03*
X207519Y234869D02*
D03*
Y211369D02*
D03*
Y227879D02*
D03*
X200019Y231359D02*
D03*
X200026Y211369D02*
D03*
X267456Y234793D02*
D03*
Y211293D02*
D03*
Y227803D02*
D03*
X259956Y231283D02*
D03*
X259963Y211293D02*
D03*
X251962Y203043D02*
D03*
Y179543D02*
D03*
Y196053D02*
D03*
X244462Y199533D02*
D03*
X244469Y179543D02*
D03*
X252597Y234793D02*
D03*
Y211293D02*
D03*
Y227803D02*
D03*
X245097Y231283D02*
D03*
X245104Y211293D02*
D03*
X237865Y203043D02*
D03*
Y179543D02*
D03*
Y196053D02*
D03*
X230365Y199533D02*
D03*
X230372Y179543D02*
D03*
D46*
X266186Y173447D02*
D03*
D47*
Y175987D02*
D03*
X268726Y173447D02*
D03*
Y175987D02*
D03*
X271266Y173447D02*
D03*
X273806D02*
D03*
Y175987D02*
D03*
X271266D02*
D03*
X276346Y173447D02*
D03*
Y175987D02*
D03*
D48*
X302833Y184800D02*
D03*
Y179720D02*
D03*
Y189880D02*
D03*
Y169560D02*
D03*
Y174640D02*
D03*
D49*
X217803Y233705D02*
D03*
X287803D02*
D03*
D50*
X293720Y246853D02*
D03*
X240913Y152746D02*
D03*
X282569Y155159D02*
D03*
X286252Y220437D02*
D03*
X278505Y179162D02*
D03*
X282950Y229327D02*
D03*
X282823Y220691D02*
D03*
X260598Y176876D02*
D03*
X256407Y176749D02*
D03*
X298317Y230216D02*
D03*
X278442Y187544D02*
D03*
X283966Y246218D02*
D03*
X282188D02*
D03*
X277997Y231867D02*
D03*
X275457Y231994D02*
D03*
X275965Y239106D02*
D03*
X281807Y215738D02*
D03*
X272536Y203419D02*
D03*
X277235Y246345D02*
D03*
X276219Y223485D02*
D03*
X278378Y221580D02*
D03*
X275838Y205578D02*
D03*
X241294Y161128D02*
D03*
X261106Y165827D02*
D03*
X283761Y162193D02*
D03*
X265424Y165827D02*
D03*
X263265D02*
D03*
X281045Y186020D02*
D03*
X280791Y175098D02*
D03*
X291633Y153980D02*
D03*
X286133Y162780D02*
D03*
X288633D02*
D03*
X291133Y162880D02*
D03*
X288833Y159080D02*
D03*
Y157380D02*
D03*
Y155680D02*
D03*
X290062Y150460D02*
D03*
X291840D02*
D03*
X273806Y196307D02*
D03*
X266186Y181575D02*
D03*
X299333Y197958D02*
D03*
X298317Y253965D02*
D03*
X208401Y185639D02*
D03*
X288538Y211166D02*
D03*
X287268Y213071D02*
D03*
X288919Y246345D02*
D03*
X250184Y163414D02*
D03*
X250311Y161001D02*
D03*
X240024Y161128D02*
D03*
Y163414D02*
D03*
X241294D02*
D03*
X258566Y159096D02*
D03*
X300603Y241646D02*
D03*
X299587Y205197D02*
D03*
X291205Y183226D02*
D03*
X288411Y181067D02*
D03*
X289935Y180940D02*
D03*
X299333Y203038D02*
D03*
X304921Y195672D02*
D03*
X288030Y193640D02*
D03*
D51*
X290697Y168875D02*
D03*
D52*
X288157Y240822D02*
D03*
M02*
