G04 Layer_Color=16711935*
%FSLAX43Y43*%
%MOMM*%
G71*
G01*
G75*
%ADD44C,1.520*%
%ADD97C,1.727*%
%ADD100C,2.003*%
%ADD101R,1.853X1.853*%
%ADD102C,1.853*%
%ADD103C,2.703*%
%ADD104C,4.703*%
%ADD105C,1.703*%
%ADD106C,1.003*%
D44*
X296733Y247430D02*
D03*
Y244890D02*
D03*
X274808Y247430D02*
D03*
Y244890D02*
D03*
X280236Y247430D02*
D03*
Y244890D02*
D03*
X285694Y247430D02*
D03*
Y244890D02*
D03*
X291196Y247430D02*
D03*
Y244890D02*
D03*
D97*
X240659Y255880D02*
D03*
X240633Y243180D02*
D03*
X244443Y255880D02*
D03*
Y243180D02*
D03*
X248253Y255880D02*
D03*
Y243180D02*
D03*
X252063Y255880D02*
D03*
Y243180D02*
D03*
X255873Y255880D02*
D03*
Y243180D02*
D03*
X259683Y255880D02*
D03*
Y243180D02*
D03*
X207434Y255880D02*
D03*
X207408Y243180D02*
D03*
X211218Y255880D02*
D03*
Y243180D02*
D03*
X215028Y255880D02*
D03*
Y243180D02*
D03*
X218838Y255880D02*
D03*
Y243180D02*
D03*
X222648Y255880D02*
D03*
Y243180D02*
D03*
X226458Y255880D02*
D03*
Y243180D02*
D03*
X205353Y198339D02*
D03*
Y195799D02*
D03*
Y193259D02*
D03*
Y188179D02*
D03*
Y190719D02*
D03*
X197733Y198339D02*
D03*
Y193259D02*
D03*
Y195799D02*
D03*
Y190719D02*
D03*
Y188179D02*
D03*
D100*
X222117Y194915D02*
D03*
Y171415D02*
D03*
Y187925D02*
D03*
X214617Y191405D02*
D03*
X214624Y171415D02*
D03*
X237992Y234793D02*
D03*
Y211293D02*
D03*
Y227803D02*
D03*
X230492Y231283D02*
D03*
X230499Y211293D02*
D03*
X222117Y224506D02*
D03*
Y201006D02*
D03*
Y217516D02*
D03*
X214617Y220996D02*
D03*
X214624Y201006D02*
D03*
X207519Y234869D02*
D03*
Y211369D02*
D03*
Y227879D02*
D03*
X200019Y231359D02*
D03*
X200026Y211369D02*
D03*
X267456Y234793D02*
D03*
Y211293D02*
D03*
Y227803D02*
D03*
X259956Y231283D02*
D03*
X259963Y211293D02*
D03*
X251962Y203043D02*
D03*
Y179543D02*
D03*
Y196053D02*
D03*
X244462Y199533D02*
D03*
X244469Y179543D02*
D03*
X252597Y234793D02*
D03*
Y211293D02*
D03*
Y227803D02*
D03*
X245097Y231283D02*
D03*
X245104Y211293D02*
D03*
X237865Y203043D02*
D03*
Y179543D02*
D03*
Y196053D02*
D03*
X230365Y199533D02*
D03*
X230372Y179543D02*
D03*
D101*
X266186Y173447D02*
D03*
D102*
Y175987D02*
D03*
X268726Y173447D02*
D03*
Y175987D02*
D03*
X271266Y173447D02*
D03*
X273806D02*
D03*
Y175987D02*
D03*
X271266D02*
D03*
X276346Y173447D02*
D03*
Y175987D02*
D03*
D103*
X302833Y184800D02*
D03*
Y179720D02*
D03*
Y189880D02*
D03*
Y169560D02*
D03*
Y174640D02*
D03*
D104*
X217803Y233705D02*
D03*
X287803D02*
D03*
D105*
X290697Y168875D02*
D03*
D106*
X288157Y240822D02*
D03*
M02*
