G04 Layer_Color=128*
%FSLAX43Y43*%
%MOMM*%
G71*
G01*
G75*
%ADD65C,0.051*%
D65*
X240059Y255880D02*
X241259D01*
X240659Y255280D02*
Y256480D01*
X240033Y243180D02*
X241233D01*
X240633Y242580D02*
Y243780D01*
X243843Y255880D02*
X245043D01*
X244443Y255280D02*
Y256480D01*
X243843Y243180D02*
X245043D01*
X244443Y242580D02*
Y243780D01*
X247653Y255880D02*
X248853D01*
X248253Y255280D02*
Y256480D01*
X247653Y243180D02*
X248853D01*
X248253Y242580D02*
Y243780D01*
X251463Y255880D02*
X252663D01*
X252063Y255280D02*
Y256480D01*
X251463Y243180D02*
X252663D01*
X252063Y242580D02*
Y243780D01*
X255273Y255880D02*
X256473D01*
X255873Y255280D02*
Y256480D01*
X255273Y243180D02*
X256473D01*
X255873Y242580D02*
Y243780D01*
X259083Y255880D02*
X260283D01*
X259683Y255280D02*
Y256480D01*
X259083Y243180D02*
X260283D01*
X259683Y242580D02*
Y243780D01*
X206834Y255880D02*
X208034D01*
X207434Y255280D02*
Y256480D01*
X206808Y243180D02*
X208008D01*
X207408Y242580D02*
Y243780D01*
X210618Y255880D02*
X211818D01*
X211218Y255280D02*
Y256480D01*
X210618Y243180D02*
X211818D01*
X211218Y242580D02*
Y243780D01*
X214428Y255880D02*
X215628D01*
X215028Y255280D02*
Y256480D01*
X214428Y243180D02*
X215628D01*
X215028Y242580D02*
Y243780D01*
X218238Y255880D02*
X219438D01*
X218838Y255280D02*
Y256480D01*
X218238Y243180D02*
X219438D01*
X218838Y242580D02*
Y243780D01*
X222048Y255880D02*
X223248D01*
X222648Y255280D02*
Y256480D01*
X222048Y243180D02*
X223248D01*
X222648Y242580D02*
Y243780D01*
X225858Y255880D02*
X227058D01*
X226458Y255280D02*
Y256480D01*
X225858Y243180D02*
X227058D01*
X226458Y242580D02*
Y243780D01*
X205003Y198339D02*
X205703D01*
X205353Y197989D02*
Y198689D01*
X205003Y195799D02*
X205703D01*
X205353Y195449D02*
Y196149D01*
X205003Y193259D02*
X205703D01*
X205353Y192909D02*
Y193609D01*
X205003Y188179D02*
X205703D01*
X205353Y187829D02*
Y188529D01*
X205003Y190719D02*
X205703D01*
X205353Y190369D02*
Y191069D01*
X197383Y198339D02*
X198083D01*
X197733Y197989D02*
Y198689D01*
X197383Y193259D02*
X198083D01*
X197733Y192909D02*
Y193609D01*
X197383Y195799D02*
X198083D01*
X197733Y195449D02*
Y196149D01*
X197383Y190719D02*
X198083D01*
X197733Y190369D02*
Y191069D01*
X197383Y188179D02*
X198083D01*
X197733Y187829D02*
Y188529D01*
X295973Y247430D02*
X297493D01*
X296733Y246670D02*
Y248190D01*
X295973Y244890D02*
X297493D01*
X296733Y244130D02*
Y245650D01*
X274048Y247430D02*
X275568D01*
X274808Y246670D02*
Y248190D01*
X274048Y244890D02*
X275568D01*
X274808Y244130D02*
Y245650D01*
X279476Y247430D02*
X280996D01*
X280236Y246670D02*
Y248190D01*
X279476Y244890D02*
X280996D01*
X280236Y244130D02*
Y245650D01*
X284934Y247430D02*
X286454D01*
X285694Y246670D02*
Y248190D01*
X284934Y244890D02*
X286454D01*
X285694Y244130D02*
Y245650D01*
X290436Y247430D02*
X291956D01*
X291196Y246670D02*
Y248190D01*
X290436Y244890D02*
X291956D01*
X291196Y244130D02*
Y245650D01*
X221617Y194915D02*
X222617D01*
X222117Y194415D02*
Y195415D01*
X221617Y171415D02*
X222617D01*
X222117Y170915D02*
Y171915D01*
X221617Y187925D02*
X222617D01*
X222117Y187425D02*
Y188425D01*
X214117Y191405D02*
X215117D01*
X214617Y190905D02*
Y191905D01*
X214124Y171415D02*
X215124D01*
X214624Y170915D02*
Y171915D01*
X237492Y234793D02*
X238492D01*
X237992Y234293D02*
Y235293D01*
X237492Y211293D02*
X238492D01*
X237992Y210793D02*
Y211793D01*
X237492Y227803D02*
X238492D01*
X237992Y227303D02*
Y228303D01*
X229992Y231283D02*
X230992D01*
X230492Y230783D02*
Y231783D01*
X229999Y211293D02*
X230999D01*
X230499Y210793D02*
Y211793D01*
X221617Y224506D02*
X222617D01*
X222117Y224006D02*
Y225006D01*
X221617Y201006D02*
X222617D01*
X222117Y200506D02*
Y201506D01*
X221617Y217516D02*
X222617D01*
X222117Y217016D02*
Y218016D01*
X214117Y220996D02*
X215117D01*
X214617Y220496D02*
Y221496D01*
X214124Y201006D02*
X215124D01*
X214624Y200506D02*
Y201506D01*
X207019Y234869D02*
X208019D01*
X207519Y234369D02*
Y235369D01*
X207019Y211369D02*
X208019D01*
X207519Y210869D02*
Y211869D01*
X207019Y227879D02*
X208019D01*
X207519Y227379D02*
Y228379D01*
X199519Y231359D02*
X200519D01*
X200019Y230859D02*
Y231859D01*
X199526Y211369D02*
X200526D01*
X200026Y210869D02*
Y211869D01*
X266956Y234793D02*
X267956D01*
X267456Y234293D02*
Y235293D01*
X266956Y211293D02*
X267956D01*
X267456Y210793D02*
Y211793D01*
X266956Y227803D02*
X267956D01*
X267456Y227303D02*
Y228303D01*
X259456Y231283D02*
X260456D01*
X259956Y230783D02*
Y231783D01*
X259463Y211293D02*
X260463D01*
X259963Y210793D02*
Y211793D01*
X251462Y203043D02*
X252462D01*
X251962Y202543D02*
Y203543D01*
X251462Y179543D02*
X252462D01*
X251962Y179043D02*
Y180043D01*
X251462Y196053D02*
X252462D01*
X251962Y195553D02*
Y196553D01*
X243962Y199533D02*
X244962D01*
X244462Y199033D02*
Y200033D01*
X243969Y179543D02*
X244969D01*
X244469Y179043D02*
Y180043D01*
X252097Y234793D02*
X253097D01*
X252597Y234293D02*
Y235293D01*
X252097Y211293D02*
X253097D01*
X252597Y210793D02*
Y211793D01*
X252097Y227803D02*
X253097D01*
X252597Y227303D02*
Y228303D01*
X244597Y231283D02*
X245597D01*
X245097Y230783D02*
Y231783D01*
X244604Y211293D02*
X245604D01*
X245104Y210793D02*
Y211793D01*
X237365Y203043D02*
X238365D01*
X237865Y202543D02*
Y203543D01*
X237365Y179543D02*
X238365D01*
X237865Y179043D02*
Y180043D01*
X237365Y196053D02*
X238365D01*
X237865Y195553D02*
Y196553D01*
X229865Y199533D02*
X230865D01*
X230365Y199033D02*
Y200033D01*
X229872Y179543D02*
X230872D01*
X230372Y179043D02*
Y180043D01*
X265686Y173447D02*
X266686D01*
X266186Y172947D02*
Y173947D01*
X265686Y175987D02*
X266686D01*
X266186Y175487D02*
Y176487D01*
X268226Y173447D02*
X269226D01*
X268726Y172947D02*
Y173947D01*
X268226Y175987D02*
X269226D01*
X268726Y175487D02*
Y176487D01*
X270766Y173447D02*
X271766D01*
X271266Y172947D02*
Y173947D01*
X273306Y173447D02*
X274306D01*
X273806Y172947D02*
Y173947D01*
X273306Y175987D02*
X274306D01*
X273806Y175487D02*
Y176487D01*
X270766Y175987D02*
X271766D01*
X271266Y175487D02*
Y176487D01*
X275846Y173447D02*
X276846D01*
X276346Y172947D02*
Y173947D01*
X275846Y175987D02*
X276846D01*
X276346Y175487D02*
Y176487D01*
X302083Y184800D02*
X303583D01*
X302833Y184050D02*
Y185550D01*
X302083Y179720D02*
X303583D01*
X302833Y178970D02*
Y180470D01*
X302083Y189880D02*
X303583D01*
X302833Y189130D02*
Y190630D01*
X302083Y169560D02*
X303583D01*
X302833Y168810D02*
Y170310D01*
X302058Y174640D02*
X303608D01*
X302833Y173865D02*
Y175415D01*
X216253Y233705D02*
X219353D01*
X217803Y232155D02*
Y235255D01*
X286253Y233705D02*
X289353D01*
X287803Y232155D02*
Y235255D01*
X293570Y246853D02*
X293870D01*
X293720Y246703D02*
Y247003D01*
X240763Y152746D02*
X241063D01*
X240913Y152596D02*
Y152896D01*
X282419Y155159D02*
X282719D01*
X282569Y155009D02*
Y155309D01*
X286102Y220437D02*
X286402D01*
X286252Y220287D02*
Y220587D01*
X278355Y179162D02*
X278655D01*
X278505Y179012D02*
Y179312D01*
X282800Y229327D02*
X283100D01*
X282950Y229177D02*
Y229477D01*
X282673Y220691D02*
X282973D01*
X282823Y220541D02*
Y220841D01*
X260448Y176876D02*
X260748D01*
X260598Y176726D02*
Y177026D01*
X256257Y176749D02*
X256557D01*
X256407Y176599D02*
Y176899D01*
X298167Y230216D02*
X298467D01*
X298317Y230066D02*
Y230366D01*
X278292Y187544D02*
X278592D01*
X278442Y187394D02*
Y187694D01*
X283816Y246218D02*
X284116D01*
X283966Y246068D02*
Y246368D01*
X282038Y246218D02*
X282338D01*
X282188Y246068D02*
Y246368D01*
X277847Y231867D02*
X278147D01*
X277997Y231717D02*
Y232017D01*
X275307Y231994D02*
X275607D01*
X275457Y231844D02*
Y232144D01*
X275815Y239106D02*
X276115D01*
X275965Y238956D02*
Y239256D01*
X281657Y215738D02*
X281957D01*
X281807Y215588D02*
Y215888D01*
X272386Y203419D02*
X272686D01*
X272536Y203269D02*
Y203569D01*
X277085Y246345D02*
X277385D01*
X277235Y246195D02*
Y246495D01*
X276069Y223485D02*
X276369D01*
X276219Y223335D02*
Y223635D01*
X278228Y221580D02*
X278528D01*
X278378Y221430D02*
Y221730D01*
X275688Y205578D02*
X275988D01*
X275838Y205428D02*
Y205728D01*
X241144Y161128D02*
X241444D01*
X241294Y160978D02*
Y161278D01*
X260956Y165827D02*
X261256D01*
X261106Y165677D02*
Y165977D01*
X283611Y162193D02*
X283911D01*
X283761Y162043D02*
Y162343D01*
X265274Y165827D02*
X265574D01*
X265424Y165677D02*
Y165977D01*
X263115Y165827D02*
X263415D01*
X263265Y165677D02*
Y165977D01*
X280895Y186020D02*
X281195D01*
X281045Y185870D02*
Y186170D01*
X280641Y175098D02*
X280941D01*
X280791Y174948D02*
Y175248D01*
X291483Y153980D02*
X291783D01*
X291633Y153830D02*
Y154130D01*
X285983Y162780D02*
X286283D01*
X286133Y162630D02*
Y162930D01*
X288483Y162780D02*
X288783D01*
X288633Y162630D02*
Y162930D01*
X290983Y162880D02*
X291283D01*
X291133Y162730D02*
Y163030D01*
X288683Y159080D02*
X288983D01*
X288833Y158930D02*
Y159230D01*
X288683Y157380D02*
X288983D01*
X288833Y157230D02*
Y157530D01*
X288683Y155680D02*
X288983D01*
X288833Y155530D02*
Y155830D01*
X289912Y150460D02*
X290212D01*
X290062Y150310D02*
Y150610D01*
X291690Y150460D02*
X291990D01*
X291840Y150310D02*
Y150610D01*
X273656Y196307D02*
X273956D01*
X273806Y196157D02*
Y196457D01*
X266036Y181575D02*
X266336D01*
X266186Y181425D02*
Y181725D01*
X299183Y197958D02*
X299483D01*
X299333Y197808D02*
Y198108D01*
X298167Y253965D02*
X298467D01*
X298317Y253815D02*
Y254115D01*
X208251Y185639D02*
X208551D01*
X208401Y185489D02*
Y185789D01*
X290347Y168875D02*
X291047D01*
X290697Y168525D02*
Y169225D01*
X288007Y240822D02*
X288307D01*
X288157Y240672D02*
Y240972D01*
X288388Y211166D02*
X288688D01*
X288538Y211016D02*
Y211316D01*
X287118Y213071D02*
X287418D01*
X287268Y212921D02*
Y213221D01*
X288769Y246345D02*
X289069D01*
X288919Y246195D02*
Y246495D01*
X250034Y163414D02*
X250334D01*
X250184Y163264D02*
Y163564D01*
X250161Y161001D02*
X250461D01*
X250311Y160851D02*
Y161151D01*
X239874Y161128D02*
X240174D01*
X240024Y160978D02*
Y161278D01*
X239874Y163414D02*
X240174D01*
X240024Y163264D02*
Y163564D01*
X241144Y163414D02*
X241444D01*
X241294Y163264D02*
Y163564D01*
X258416Y159096D02*
X258716D01*
X258566Y158946D02*
Y159246D01*
X300453Y241646D02*
X300753D01*
X300603Y241496D02*
Y241796D01*
X299437Y205197D02*
X299737D01*
X299587Y205047D02*
Y205347D01*
X291055Y183226D02*
X291355D01*
X291205Y183076D02*
Y183376D01*
X288261Y181067D02*
X288561D01*
X288411Y180917D02*
Y181217D01*
X289785Y180940D02*
X290085D01*
X289935Y180790D02*
Y181090D01*
X299183Y203038D02*
X299483D01*
X299333Y202888D02*
Y203188D01*
X304771Y195672D02*
X305071D01*
X304921Y195522D02*
Y195822D01*
X287880Y193640D02*
X288180D01*
X288030Y193490D02*
Y193790D01*
M02*
