G04 Layer_Color=65535*
%FSLAX43Y43*%
%MOMM*%
G71*
G01*
G75*
%ADD34C,0.300*%
%ADD35C,1.000*%
%ADD36C,0.254*%
%ADD38C,0.400*%
%ADD39C,0.500*%
%ADD40C,0.220*%
%ADD41C,0.600*%
%ADD62C,0.200*%
%ADD63C,0.025*%
%ADD64C,0.076*%
%ADD65C,0.051*%
%ADD66C,0.154*%
%ADD67C,0.150*%
%ADD68R,12.802X29.007*%
%ADD69R,12.500X29.007*%
%ADD70R,12.500X28.829*%
%ADD71R,12.398X28.829*%
%ADD72R,12.294X29.007*%
%ADD73R,24.250X16.968*%
%ADD74R,12.500X28.626*%
%ADD75R,25.220X17.745*%
D34*
X219557Y194915D02*
X222117D01*
X219679Y187925D02*
X222117D01*
X219399Y193233D02*
Y194757D01*
X219450Y188153D02*
Y190363D01*
X224505Y168443D02*
Y197450D01*
X219450Y188153D02*
X219679Y187925D01*
X212005Y197450D02*
X224505D01*
X219399Y194757D02*
X219557Y194915D01*
X214617Y191405D02*
X218815D01*
X220136Y190084D01*
X212005Y168443D02*
X224505D01*
X212005D02*
Y197450D01*
X235432Y234793D02*
X237992D01*
X235554Y227803D02*
X237992D01*
X235274Y233111D02*
Y234635D01*
X235325Y228031D02*
Y230241D01*
X240380Y208321D02*
Y237328D01*
X235325Y228031D02*
X235554Y227803D01*
X227880Y237328D02*
X240380D01*
X235274Y234635D02*
X235432Y234793D01*
X230492Y231283D02*
X234690D01*
X236011Y229962D01*
X227880Y208321D02*
X240380D01*
X227880D02*
Y237328D01*
X219557Y224506D02*
X222117D01*
X219679Y217516D02*
X222117D01*
X219399Y222824D02*
Y224348D01*
X219450Y217744D02*
Y219954D01*
X224505Y198034D02*
Y227041D01*
X219450Y217744D02*
X219679Y217516D01*
X212005Y227041D02*
X224505D01*
X219399Y224348D02*
X219557Y224506D01*
X214617Y220996D02*
X218815D01*
X220136Y219675D01*
X212005Y198034D02*
X224505D01*
X212005D02*
Y227041D01*
X204959Y234869D02*
X207519D01*
X205081Y227879D02*
X207519D01*
X204801Y233188D02*
Y234712D01*
X204852Y228108D02*
Y230317D01*
X209907Y208397D02*
Y237404D01*
X204852Y228108D02*
X205081Y227879D01*
X197407Y237404D02*
X209907D01*
X204801Y234712D02*
X204959Y234869D01*
X200019Y231359D02*
X204217D01*
X205538Y230038D01*
X197407Y208397D02*
X209907D01*
X197407D02*
Y237404D01*
X264896Y234793D02*
X267456D01*
X265018Y227803D02*
X267456D01*
X264738Y233111D02*
Y234635D01*
X264789Y228031D02*
Y230241D01*
X269844Y208321D02*
Y237328D01*
X264789Y228031D02*
X265018Y227803D01*
X257344Y237328D02*
X269844D01*
X264738Y234635D02*
X264896Y234793D01*
X259956Y231283D02*
X264154D01*
X265475Y229962D01*
X257344Y208321D02*
X269844D01*
X257344D02*
Y237328D01*
X249402Y203043D02*
X251962D01*
X249524Y196053D02*
X251962D01*
X249244Y201361D02*
Y202885D01*
X249295Y196281D02*
Y198491D01*
X254350Y176571D02*
Y205578D01*
X249295Y196281D02*
X249524Y196053D01*
X241850Y205578D02*
X254350D01*
X249244Y202885D02*
X249402Y203043D01*
X244462Y199533D02*
X248660D01*
X249981Y198212D01*
X241850Y176571D02*
X254350D01*
X241850D02*
Y205578D01*
X250037Y234793D02*
X252597D01*
X250159Y227803D02*
X252597D01*
X249879Y233111D02*
Y234635D01*
X249930Y228031D02*
Y230241D01*
X254985Y208321D02*
Y237328D01*
X249930Y228031D02*
X250159Y227803D01*
X242485Y237328D02*
X254985D01*
X249879Y234635D02*
X250037Y234793D01*
X245097Y231283D02*
X249295D01*
X250616Y229962D01*
X242485Y208321D02*
X254985D01*
X242485D02*
Y237328D01*
X235305Y203043D02*
X237865D01*
X235427Y196053D02*
X237865D01*
X235147Y201361D02*
Y202885D01*
X235198Y196281D02*
Y198491D01*
X240253Y176571D02*
Y205578D01*
X235198Y196281D02*
X235427Y196053D01*
X227753Y205578D02*
X240253D01*
X235147Y202885D02*
X235305Y203043D01*
X230365Y199533D02*
X234563D01*
X235884Y198212D01*
X227753Y176571D02*
X240253D01*
X227753D02*
Y205578D01*
X254858Y154727D02*
Y160721D01*
X254578Y154448D02*
X254858Y154727D01*
X252394Y154448D02*
X254578D01*
X252369Y160721D02*
X254858D01*
X252292Y160645D02*
X252369Y160721D01*
X252292Y154549D02*
X252394Y154448D01*
X252292Y154549D02*
Y160645D01*
X285490Y171796D02*
X284490D01*
X283991Y172296D01*
X284490Y172795D01*
X285490D01*
X284740D01*
Y171796D01*
X284241Y174295D02*
X283991Y174045D01*
Y173545D01*
X284241Y173295D01*
X284490D01*
X284740Y173545D01*
Y174045D01*
X284990Y174295D01*
X285240D01*
X285490Y174045D01*
Y173545D01*
X285240Y173295D01*
X285490Y174795D02*
X283991D01*
Y175545D01*
X284241Y175794D01*
X284740D01*
X284990Y175545D01*
Y174795D01*
X281959Y171796D02*
X283208D01*
X283458Y172046D01*
Y172546D01*
X283208Y172795D01*
X281959D01*
X282209Y174295D02*
X281959Y174045D01*
Y173545D01*
X282209Y173295D01*
X282458D01*
X282708Y173545D01*
Y174045D01*
X282958Y174295D01*
X283208D01*
X283458Y174045D01*
Y173545D01*
X283208Y173295D01*
X281959Y174795D02*
X283458D01*
Y175545D01*
X283208Y175794D01*
X282958D01*
X282708Y175545D01*
Y174795D01*
Y175545D01*
X282458Y175794D01*
X282209D01*
X281959Y175545D01*
Y174795D01*
X258460Y170763D02*
X258210Y170514D01*
Y170014D01*
X258460Y169764D01*
X258709D01*
X258959Y170014D01*
Y170514D01*
X259209Y170763D01*
X259459D01*
X259709Y170514D01*
Y170014D01*
X259459Y169764D01*
X259709Y172013D02*
Y171513D01*
X259459Y171263D01*
X258959D01*
X258709Y171513D01*
Y172013D01*
X258959Y172263D01*
X259209D01*
Y171263D01*
X258709Y172763D02*
X259709D01*
X259209D01*
X258959Y173013D01*
X258709Y173263D01*
Y173513D01*
Y174262D02*
X259709Y174762D01*
X258709Y175262D01*
X259709Y175762D02*
Y176262D01*
Y176012D01*
X258709D01*
Y175762D01*
Y178011D02*
Y177261D01*
X258959Y177011D01*
X259459D01*
X259709Y177261D01*
Y178011D01*
Y179261D02*
Y178761D01*
X259459Y178511D01*
X258959D01*
X258709Y178761D01*
Y179261D01*
X258959Y179511D01*
X259209D01*
Y178511D01*
D35*
X201747Y146904D02*
G03*
X201747Y146904I-458J0D01*
G01*
X204541D02*
G03*
X204541Y146904I-458J0D01*
G01*
X207335D02*
G03*
X207335Y146904I-458J0D01*
G01*
X275076Y213325D02*
X290316D01*
X271774Y206721D02*
X273171Y208118D01*
X258312Y206721D02*
X271774D01*
X256788Y205197D02*
X258312Y206721D01*
X256788Y172431D02*
Y205197D01*
X255518Y171161D02*
X256788Y172431D01*
X253359Y171161D02*
X255518D01*
X240786D02*
X242437D01*
X235706Y166081D02*
X240786Y171161D01*
X233928Y166081D02*
X235706D01*
X208528Y180686D02*
X210052Y182210D01*
Y185131D01*
X237484Y148301D02*
Y162779D01*
X242945Y168240D01*
X253105D01*
X304286Y233518D02*
X307956D01*
X291332D02*
X294828D01*
X273298D02*
X284220D01*
X269234Y237582D02*
X273298Y233518D01*
X269234Y237582D02*
Y258283D01*
X195727Y149774D02*
X222574D01*
X224962Y152162D01*
Y160594D01*
X222701Y162855D02*
X224962Y160594D01*
X196514Y162855D02*
X222701D01*
X208782Y201895D02*
X210052Y200625D01*
X196336Y201895D02*
X208782D01*
X268345Y180432D02*
Y181829D01*
Y180432D02*
X269361Y179416D01*
X283331D01*
X284601Y180686D01*
Y196307D01*
X282950Y197958D02*
X284601Y196307D01*
X269869Y197958D02*
X282950D01*
X268345Y196434D02*
X269869Y197958D01*
X268345Y192116D02*
Y196434D01*
X291713Y221326D02*
X308223D01*
X290189Y222850D02*
X291713Y221326D01*
X290189Y222850D02*
Y227168D01*
X291586Y228565D01*
X308223D01*
X277108Y168240D02*
X288792D01*
X253105D02*
X266313D01*
X287522Y179416D02*
X300706D01*
X286506Y180432D02*
X287522Y179416D01*
X286506Y180432D02*
Y201260D01*
X296666Y211420D01*
X297682D01*
X305175D02*
X308350D01*
X273552Y210658D02*
X273052D01*
Y211158D01*
X273552D01*
Y210658D01*
Y213157D02*
X273052D01*
Y213657D01*
X273552D01*
Y213157D01*
Y215656D02*
X273052D01*
Y216156D01*
X273552D01*
Y215656D01*
X273374Y224628D02*
X272875D01*
Y225128D01*
X273374D01*
Y224628D01*
Y227127D02*
X272875D01*
Y227627D01*
X273374D01*
Y227127D01*
Y229626D02*
X272875D01*
Y230126D01*
X273374D01*
Y229626D01*
X244215Y171034D02*
Y171534D01*
X244715D01*
Y171034D01*
X244215D01*
X246714D02*
Y171534D01*
X247214D01*
Y171034D01*
X246714D01*
X249214D02*
Y171534D01*
X249713D01*
Y171034D01*
X249214D01*
X251713D02*
Y171534D01*
X252213D01*
Y171034D01*
X251713D01*
X198241Y165807D02*
Y166306D01*
X198741D01*
Y165807D01*
X198241D01*
X200740D02*
Y166306D01*
X201240D01*
Y165807D01*
X200740D01*
X203240D02*
Y166306D01*
X203739D01*
Y165807D01*
X203240D01*
X205739D02*
Y166306D01*
X206239D01*
Y165807D01*
X205739D01*
D36*
X276488Y205578D02*
G03*
X276488Y205578I-635J0D01*
G01*
X286887Y220437D02*
G03*
X286887Y220437I-635J0D01*
G01*
X283600Y229327D02*
G03*
X283600Y229327I-635J0D01*
G01*
X276615Y239106D02*
G03*
X276615Y239106I-635J0D01*
G01*
X279028Y221580D02*
G03*
X279028Y221580I-635J0D01*
G01*
X278647Y231867D02*
G03*
X278647Y231867I-635J0D01*
G01*
X276107Y231994D02*
G03*
X276107Y231994I-635J0D01*
G01*
X221826Y233705D02*
G03*
X221826Y233705I-4000J0D01*
G01*
X287903Y204562D02*
G03*
X287903Y204562I-635J0D01*
G01*
X282823Y204308D02*
G03*
X282823Y204308I-635J0D01*
G01*
X286633Y206340D02*
G03*
X286633Y206340I-635J0D01*
G01*
X285490Y204435D02*
G03*
X285490Y204435I-635J0D01*
G01*
X284093Y206213D02*
G03*
X284093Y206213I-635J0D01*
G01*
X281553D02*
G03*
X281553Y206213I-635J0D01*
G01*
X280283Y204308D02*
G03*
X280283Y204308I-635J0D01*
G01*
X279013Y206213D02*
G03*
X279013Y206213I-635J0D01*
G01*
X291082Y233603D02*
G03*
X291082Y233603I-3355J0D01*
G01*
X291613Y168875D02*
G03*
X291613Y168875I-916J0D01*
G01*
X261387Y151349D02*
G03*
X261387Y151349I-916J0D01*
G01*
X301646Y163668D02*
G03*
X301646Y163668I-916J0D01*
G01*
X291158Y233705D02*
G03*
X291158Y233705I-3355J0D01*
G01*
X238053Y240665D02*
X262274D01*
X238042Y262555D02*
X262274Y262560D01*
X262283Y240680D02*
Y262555D01*
X238033Y240680D02*
Y262555D01*
X278441Y191845D02*
Y195147D01*
X274377D02*
X278441D01*
X274377Y191845D02*
X278441D01*
X274377D02*
Y195147D01*
X290390Y154745D02*
Y159825D01*
X289755Y154745D02*
X290390D01*
X288231D02*
X288993Y155507D01*
X289755Y154745D01*
X287342Y159825D02*
X290390D01*
X287342Y154745D02*
X288231D01*
X287342D02*
Y159825D01*
X265123Y160515D02*
X275410D01*
X265123Y146672D02*
X275410D01*
Y160515D01*
X265123Y146672D02*
Y160515D01*
X304616Y152263D02*
Y157775D01*
X301848Y152263D02*
X304616D01*
X301848Y157800D02*
X304597D01*
X302203Y151755D02*
X304362D01*
X301848Y152263D02*
Y157800D01*
X288180Y149353D02*
Y152102D01*
X282643D02*
X288180D01*
X282135Y149588D02*
Y151747D01*
X282643Y149334D02*
X288154D01*
X282643D02*
Y152102D01*
X281618Y188749D02*
X282380Y187987D01*
Y181749D02*
Y187987D01*
X275380Y188749D02*
X281618D01*
X275380Y181749D02*
X282380D01*
X275380D02*
Y188749D01*
X204828Y240665D02*
X229049D01*
X204817Y262555D02*
X229049Y262560D01*
X229058Y240680D02*
Y262555D01*
X204808Y240680D02*
Y262555D01*
X295726Y165725D02*
Y171237D01*
X292958Y165725D02*
X295726D01*
X292958Y171262D02*
X295707D01*
X293313Y165217D02*
X295472D01*
X292958Y165725D02*
Y171262D01*
X292390Y249284D02*
Y250656D01*
X292415Y241791D02*
Y243163D01*
X292628Y241773D02*
Y243043D01*
X287040Y241816D02*
Y243086D01*
X281706Y241795D02*
Y243065D01*
X276147Y241816D02*
Y243086D01*
X270592Y241816D02*
Y243086D01*
X276092Y249266D02*
Y250536D01*
X281402Y249335D02*
Y250605D01*
X286904Y249335D02*
Y250605D01*
X292602Y249266D02*
Y250536D01*
X270643Y249335D02*
Y250605D01*
X270465Y249284D02*
Y250655D01*
X270490Y241791D02*
Y243162D01*
X275893Y249284D02*
Y250656D01*
X275918Y241791D02*
Y243163D01*
X281351Y249284D02*
Y250656D01*
X281376Y241791D02*
Y243163D01*
X286853Y249284D02*
Y250656D01*
X286878Y241791D02*
Y243163D01*
X295067Y182845D02*
Y186655D01*
X300401D01*
X295067Y182845D02*
X300401D01*
Y186655D01*
X295067Y188052D02*
Y191862D01*
X300401D01*
X295067Y188052D02*
X300401D01*
Y191862D01*
X297225Y150104D02*
Y154117D01*
X299409Y150079D02*
Y154117D01*
X242056Y158207D02*
X242183Y158080D01*
X242056Y158207D02*
Y161636D01*
X242183Y158080D02*
X248914D01*
X242056Y161636D02*
X249041D01*
X248914Y158080D02*
X249041Y158207D01*
Y161636D01*
X261233Y170272D02*
Y179162D01*
Y170272D02*
X268726D01*
Y173193D01*
X261233Y179162D02*
X273806D01*
X273806Y170272D02*
Y173193D01*
Y170272D02*
X281299D01*
Y179162D01*
X273806D02*
X281299D01*
X312833Y166320D02*
Y193480D01*
X300833D02*
X312833D01*
X300833Y166320D02*
X312833D01*
X300833D02*
Y193480D01*
X242209Y153711D02*
X246222D01*
X242183Y151527D02*
X246222D01*
X263087Y158486D02*
Y162499D01*
X260903Y158486D02*
Y162525D01*
X297174Y201133D02*
Y202657D01*
X210941Y148399D02*
Y147849D01*
X211124Y147666D01*
X211308Y147849D01*
X211491Y147666D01*
X211674Y147849D01*
Y148399D01*
X212041D02*
Y147849D01*
X212224Y147666D01*
X212407Y147849D01*
X212591Y147666D01*
X212774Y147849D01*
Y148399D01*
X213140D02*
Y147849D01*
X213324Y147666D01*
X213507Y147849D01*
X213690Y147666D01*
X213874Y147849D01*
Y148399D01*
X214240Y147666D02*
Y147849D01*
X214423D01*
Y147666D01*
X214240D01*
X215156D02*
X215523D01*
X215340D01*
Y148399D01*
X215156D01*
X216439Y147299D02*
X216623D01*
X216806Y147482D01*
Y148399D01*
X216256D01*
X216073Y148216D01*
Y147849D01*
X216256Y147666D01*
X216806D01*
X217356Y148399D02*
X217722D01*
X217906Y148216D01*
Y147666D01*
X217356D01*
X217172Y147849D01*
X217356Y148032D01*
X217906D01*
X218272Y147666D02*
X218822D01*
X219005Y147849D01*
X218822Y148032D01*
X218455D01*
X218272Y148216D01*
X218455Y148399D01*
X219005D01*
X220105Y148765D02*
Y147666D01*
X219555D01*
X219372Y147849D01*
Y148216D01*
X219555Y148399D01*
X220105D01*
X221021Y147666D02*
X220655D01*
X220471Y147849D01*
Y148216D01*
X220655Y148399D01*
X221021D01*
X221204Y148216D01*
Y148032D01*
X220471D01*
X221754Y148582D02*
Y148399D01*
X221571D01*
X221938D01*
X221754D01*
Y147849D01*
X221938Y147666D01*
X223037D02*
X222671D01*
X222487Y147849D01*
Y148216D01*
X222671Y148399D01*
X223037D01*
X223221Y148216D01*
Y148032D01*
X222487D01*
X224320Y148399D02*
X223770D01*
X223587Y148216D01*
Y147849D01*
X223770Y147666D01*
X224320D01*
X224870Y148582D02*
Y148399D01*
X224687D01*
X225053D01*
X224870D01*
Y147849D01*
X225053Y147666D01*
X225603D02*
X225970D01*
X225786D01*
Y148399D01*
X225603D01*
X226703Y147666D02*
X227069D01*
X227253Y147849D01*
Y148216D01*
X227069Y148399D01*
X226703D01*
X226519Y148216D01*
Y147849D01*
X226703Y147666D01*
X227619D02*
Y148399D01*
X228169D01*
X228352Y148216D01*
Y147666D01*
X228719D02*
Y147849D01*
X228902D01*
Y147666D01*
X228719D01*
X230368Y148399D02*
X229818D01*
X229635Y148216D01*
Y147849D01*
X229818Y147666D01*
X230368D01*
X230918D02*
X231285D01*
X231468Y147849D01*
Y148216D01*
X231285Y148399D01*
X230918D01*
X230735Y148216D01*
Y147849D01*
X230918Y147666D01*
X231834D02*
Y148399D01*
X232018D01*
X232201Y148216D01*
Y147666D01*
Y148216D01*
X232384Y148399D01*
X232568Y148216D01*
Y147666D01*
X208020Y166806D02*
Y165307D01*
Y166057D01*
X209020D01*
Y166806D01*
Y165307D01*
X209520Y166806D02*
X210020D01*
X209770D01*
Y165307D01*
X209520D01*
X210020D01*
X211769Y166556D02*
X211519Y166806D01*
X211019D01*
X210769Y166556D01*
Y165557D01*
X211019Y165307D01*
X211519D01*
X211769Y165557D01*
Y166057D01*
X211269D01*
X212269Y166806D02*
Y165307D01*
Y166057D01*
X213268D01*
Y166806D01*
Y165307D01*
X215268Y166806D02*
Y165807D01*
X215768Y165307D01*
X216267Y165807D01*
Y166806D01*
X217517D02*
X217017D01*
X216767Y166556D01*
Y165557D01*
X217017Y165307D01*
X217517D01*
X217767Y165557D01*
Y166556D01*
X217517Y166806D01*
X218267D02*
Y165307D01*
X219267D01*
X219766Y166806D02*
X220766D01*
X220266D01*
Y165307D01*
X221266D02*
Y166306D01*
X221766Y166806D01*
X222266Y166306D01*
Y165307D01*
Y166057D01*
X221266D01*
X223765Y166556D02*
X223515Y166806D01*
X223015D01*
X222765Y166556D01*
Y165557D01*
X223015Y165307D01*
X223515D01*
X223765Y165557D01*
Y166057D01*
X223265D01*
X225265Y166806D02*
X224265D01*
Y165307D01*
X225265D01*
X224265Y166057D02*
X224765D01*
X228264Y166556D02*
X228014Y166806D01*
X227514D01*
X227264Y166556D01*
Y166306D01*
X227514Y166057D01*
X228014D01*
X228264Y165807D01*
Y165557D01*
X228014Y165307D01*
X227514D01*
X227264Y165557D01*
X228763Y166806D02*
X229263D01*
X229013D01*
Y165307D01*
X228763D01*
X229263D01*
X230013Y166806D02*
Y165307D01*
X230763D01*
X231013Y165557D01*
Y166556D01*
X230763Y166806D01*
X230013D01*
X232512D02*
X231513D01*
Y165307D01*
X232512D01*
X231513Y166057D02*
X232012D01*
X210941Y144745D02*
Y146144D01*
X211408Y145678D01*
X211874Y146144D01*
Y144745D01*
X213274Y145911D02*
X213040Y146144D01*
X212574D01*
X212341Y145911D01*
Y144978D01*
X212574Y144745D01*
X213040D01*
X213274Y144978D01*
X213740Y146144D02*
X214673D01*
X214207D01*
Y144745D01*
X215140D02*
Y146144D01*
X215840D01*
X216073Y145911D01*
Y145445D01*
X215840Y145211D01*
X215140D01*
X215606D02*
X216073Y144745D01*
X216539D02*
Y144978D01*
X216773D01*
Y144745D01*
X216539D01*
X217706Y145911D02*
X217939Y146144D01*
X218405D01*
X218639Y145911D01*
Y144978D01*
X218405Y144745D01*
X217939D01*
X217706Y144978D01*
Y145911D01*
X219105D02*
X219338Y146144D01*
X219805D01*
X220038Y145911D01*
Y144978D01*
X219805Y144745D01*
X219338D01*
X219105Y144978D01*
Y145911D01*
X220505D02*
X220738Y146144D01*
X221204D01*
X221438Y145911D01*
Y144978D01*
X221204Y144745D01*
X220738D01*
X220505Y144978D01*
Y145911D01*
X221904Y144745D02*
X222371D01*
X222138D01*
Y146144D01*
X221904Y145911D01*
X223071D02*
X223304Y146144D01*
X223770D01*
X224004Y145911D01*
Y144978D01*
X223770Y144745D01*
X223304D01*
X223071Y144978D01*
Y145911D01*
X225403Y146144D02*
X224470D01*
Y145445D01*
X224937Y145678D01*
X225170D01*
X225403Y145445D01*
Y144978D01*
X225170Y144745D01*
X224703D01*
X224470Y144978D01*
X225870Y145911D02*
X226103Y146144D01*
X226569D01*
X226803Y145911D01*
Y145678D01*
X226569Y145445D01*
X226803Y145211D01*
Y144978D01*
X226569Y144745D01*
X226103D01*
X225870Y144978D01*
Y145211D01*
X226103Y145445D01*
X225870Y145678D01*
Y145911D01*
X226103Y145445D02*
X226569D01*
X228202Y144745D02*
X227269D01*
X228202Y145678D01*
Y145911D01*
X227969Y146144D01*
X227502D01*
X227269Y145911D01*
X228669Y144745D02*
Y144978D01*
X228902D01*
Y144745D01*
X228669D01*
X229835Y145911D02*
X230068Y146144D01*
X230535D01*
X230768Y145911D01*
Y144978D01*
X230535Y144745D01*
X230068D01*
X229835Y144978D01*
Y145911D01*
X231235D02*
X231468Y146144D01*
X231934D01*
X232168Y145911D01*
Y144978D01*
X231934Y144745D01*
X231468D01*
X231235Y144978D01*
Y145911D01*
X232634Y144745D02*
Y144978D01*
X232867D01*
Y144745D01*
X232634D01*
X233800Y145911D02*
X234034Y146144D01*
X234500D01*
X234733Y145911D01*
Y144978D01*
X234500Y144745D01*
X234034D01*
X233800Y144978D01*
Y145911D01*
X235200D02*
X235433Y146144D01*
X235900D01*
X236133Y145911D01*
Y144978D01*
X235900Y144745D01*
X235433D01*
X235200Y144978D01*
Y145911D01*
X237533Y144745D02*
X236600D01*
X237533Y145678D01*
Y145911D01*
X237299Y146144D01*
X236833D01*
X236600Y145911D01*
X277660Y146038D02*
X277427Y146271D01*
X276960D01*
X276727Y146038D01*
Y145805D01*
X276960Y145572D01*
X277427D01*
X277660Y145338D01*
Y145105D01*
X277427Y144872D01*
X276960D01*
X276727Y145105D01*
X278826Y144872D02*
X278360D01*
X278127Y145105D01*
Y145572D01*
X278360Y145805D01*
X278826D01*
X279060Y145572D01*
Y145338D01*
X278127D01*
X279526Y145805D02*
Y144872D01*
Y145338D01*
X279759Y145572D01*
X279993Y145805D01*
X280226D01*
X280926Y144872D02*
X281392D01*
X281159D01*
Y145805D01*
X280926D01*
X282325D02*
X282792D01*
X283025Y145572D01*
Y144872D01*
X282325D01*
X282092Y145105D01*
X282325Y145338D01*
X283025D01*
X283492Y144872D02*
X283958D01*
X283725D01*
Y146271D01*
X283492D01*
X284658Y145805D02*
X284891D01*
Y145572D01*
X284658D01*
Y145805D01*
Y145105D02*
X284891D01*
Y144872D01*
X284658D01*
Y145105D01*
D38*
X296742Y234679D02*
Y232680D01*
X298075D01*
X300075Y234679D02*
X298742D01*
Y232680D01*
X300075D01*
X298742Y233679D02*
X299408D01*
X300741Y234679D02*
Y232680D01*
X301741D01*
X302074Y233013D01*
Y234346D01*
X301741Y234679D01*
X300741D01*
X198939Y206228D02*
X198606Y206561D01*
X197939D01*
X197606Y206228D01*
Y205895D01*
X197939Y205561D01*
X198606D01*
X198939Y205228D01*
Y204895D01*
X198606Y204562D01*
X197939D01*
X197606Y204895D01*
X199605Y204562D02*
X200272D01*
X199939D01*
Y206561D01*
X199605D01*
X201605Y205895D02*
X202271D01*
X202605Y205561D01*
Y204562D01*
X201605D01*
X201272Y204895D01*
X201605Y205228D01*
X202605D01*
X203271Y205895D02*
X203937Y204562D01*
X204604Y205895D01*
X206270Y204562D02*
X205604D01*
X205270Y204895D01*
Y205561D01*
X205604Y205895D01*
X206270D01*
X206603Y205561D01*
Y205228D01*
X205270D01*
X268802Y166233D02*
Y168232D01*
X269802D01*
X270135Y167899D01*
Y167233D01*
X269802Y166900D01*
X268802D01*
X272135Y167899D02*
X271801Y168232D01*
X271135D01*
X270802Y167899D01*
Y167566D01*
X271135Y167233D01*
X271801D01*
X272135Y166900D01*
Y166566D01*
X271801Y166233D01*
X271135D01*
X270802Y166566D01*
X272801Y168232D02*
Y166566D01*
X273134Y166233D01*
X273801D01*
X274134Y166566D01*
Y168232D01*
X293840Y226018D02*
Y224018D01*
X295173D01*
X295840Y226018D02*
Y224018D01*
X296839D01*
X297173Y224351D01*
Y225684D01*
X296839Y226018D01*
X295840D01*
X298839D02*
X298172D01*
X297839Y225684D01*
Y224351D01*
X298172Y224018D01*
X298839D01*
X299172Y224351D01*
Y225684D01*
X298839Y226018D01*
X299838Y224018D02*
X300505D01*
X300172D01*
Y226018D01*
X299838Y225684D01*
X301505Y224018D02*
X302171D01*
X301838D01*
Y226018D01*
X301505Y225684D01*
X304504Y224018D02*
X303171D01*
X304504Y225351D01*
Y225684D01*
X304170Y226018D01*
X303504D01*
X303171Y225684D01*
X305170D02*
X305503Y226018D01*
X306170D01*
X306503Y225684D01*
Y225351D01*
X306170Y225018D01*
X306503Y224685D01*
Y224351D01*
X306170Y224018D01*
X305503D01*
X305170Y224351D01*
Y224685D01*
X305503Y225018D01*
X305170Y225351D01*
Y225684D01*
X305503Y225018D02*
X306170D01*
X267670Y185270D02*
X267336Y184937D01*
Y184270D01*
X267670Y183937D01*
X269003D01*
X269336Y184270D01*
Y184937D01*
X269003Y185270D01*
X269336Y185936D02*
X267336D01*
Y186936D01*
X267670Y187269D01*
X268336D01*
X268669Y186936D01*
Y185936D01*
X267336Y187936D02*
X269003D01*
X269336Y188269D01*
Y188935D01*
X269003Y189269D01*
X267336D01*
X298597Y212454D02*
X299929Y210455D01*
Y212454D02*
X298597Y210455D01*
X301929D02*
X300596D01*
X301929Y211787D01*
Y212121D01*
X301596Y212454D01*
X300929D01*
X300596Y212121D01*
X302595Y212454D02*
X303928Y210455D01*
Y212454D02*
X302595Y210455D01*
D39*
X204147Y200244D02*
X206750D01*
X203004Y199101D02*
X204147Y200244D01*
X200273Y195164D02*
X202432D01*
X200273Y193513D02*
X202432D01*
X200400Y197958D02*
X202305D01*
X200273Y197831D02*
X200400Y197958D01*
X200273Y197450D02*
Y197831D01*
Y197450D02*
X200400Y197323D01*
X202305D01*
X200273Y195799D02*
X202432D01*
X206750Y186909D02*
Y200244D01*
X203321Y186782D02*
Y199418D01*
X206496Y186655D02*
X206750Y186909D01*
X200273Y192878D02*
X202432D01*
Y186782D02*
Y199101D01*
X200273Y191227D02*
X202432D01*
X200273Y188814D02*
X202432D01*
X200273Y188179D02*
X202432D01*
X200273Y190592D02*
X202432D01*
X200146Y195672D02*
X200273Y195799D01*
X200146Y195291D02*
Y195672D01*
X200083Y199101D02*
X203004D01*
X200146Y193386D02*
X200273Y193513D01*
X200146Y193005D02*
X200273Y192878D01*
X200146Y195291D02*
X200273Y195164D01*
X198940Y200244D02*
X200083Y199101D01*
X196336Y200244D02*
X198940D01*
X200146Y193005D02*
Y193386D01*
Y191100D02*
X200273Y191227D01*
X200146Y190719D02*
X200273Y190592D01*
X200146Y188687D02*
X200273Y188814D01*
X200146Y188306D02*
X200273Y188179D01*
X196971Y186655D02*
X206496D01*
X200146Y190719D02*
Y191100D01*
X196336Y187290D02*
Y200244D01*
X200146Y188306D02*
Y188687D01*
X196336Y187290D02*
X196971Y186655D01*
X292475Y241519D02*
Y243170D01*
Y249266D02*
Y250917D01*
X286887Y241519D02*
Y243170D01*
Y249139D02*
Y250790D01*
X281299Y241519D02*
Y243170D01*
Y249139D02*
Y250790D01*
X275838Y249139D02*
Y250790D01*
Y241519D02*
Y243170D01*
X270377Y241519D02*
Y243170D01*
Y249139D02*
Y250790D01*
X284601Y146904D02*
X307969D01*
X201035D02*
X284601D01*
D40*
X203624Y183988D02*
Y184987D01*
X204124D01*
X204291Y184821D01*
Y184488D01*
X204124Y184321D01*
X203624D01*
X203957D02*
X204291Y183988D01*
X205290D02*
X204624D01*
X205290Y184654D01*
Y184821D01*
X205124Y184987D01*
X204790D01*
X204624Y184821D01*
X206290Y184987D02*
X205957Y184821D01*
X205624Y184488D01*
Y184154D01*
X205790Y183988D01*
X206123D01*
X206290Y184154D01*
Y184321D01*
X206123Y184488D01*
X205624D01*
X203575Y182337D02*
Y183336D01*
X204075D01*
X204242Y183170D01*
Y182837D01*
X204075Y182670D01*
X203575D01*
X203908D02*
X204242Y182337D01*
X205241D02*
X204575D01*
X205241Y183003D01*
Y183170D01*
X205075Y183336D01*
X204741D01*
X204575Y183170D01*
X206241Y183336D02*
X205574D01*
Y182837D01*
X205908Y183003D01*
X206074D01*
X206241Y182837D01*
Y182503D01*
X206074Y182337D01*
X205741D01*
X205574Y182503D01*
X203575Y180686D02*
Y181685D01*
X204075D01*
X204242Y181519D01*
Y181186D01*
X204075Y181019D01*
X203575D01*
X203908D02*
X204242Y180686D01*
X205241D02*
X204575D01*
X205241Y181352D01*
Y181519D01*
X205075Y181685D01*
X204741D01*
X204575Y181519D01*
X206074Y180686D02*
Y181685D01*
X205574Y181186D01*
X206241D01*
X203575Y177257D02*
Y178256D01*
X204075D01*
X204242Y178090D01*
Y177757D01*
X204075Y177590D01*
X203575D01*
X203908D02*
X204242Y177257D01*
X205241D02*
X204575D01*
X205241Y177923D01*
Y178090D01*
X205075Y178256D01*
X204741D01*
X204575Y178090D01*
X205574D02*
X205741Y178256D01*
X206074D01*
X206241Y178090D01*
Y177923D01*
X206074Y177757D01*
X205908D01*
X206074D01*
X206241Y177590D01*
Y177423D01*
X206074Y177257D01*
X205741D01*
X205574Y177423D01*
X203575Y178908D02*
Y179907D01*
X204075D01*
X204242Y179741D01*
Y179408D01*
X204075Y179241D01*
X203575D01*
X203908D02*
X204242Y178908D01*
X205241D02*
X204575D01*
X205241Y179574D01*
Y179741D01*
X205075Y179907D01*
X204741D01*
X204575Y179741D01*
X206241Y178908D02*
X205574D01*
X206241Y179574D01*
Y179741D01*
X206074Y179907D01*
X205741D01*
X205574Y179741D01*
D41*
X258642Y184140D02*
G03*
X263973Y184013I2667J0D01*
G01*
X263976Y201666D02*
G03*
X258645Y201793I-2667J0D01*
G01*
X258642Y184140D02*
Y201793D01*
X263976Y184013D02*
Y201666D01*
X260131Y184750D02*
X262630D01*
Y186416D01*
X260131Y188499D02*
Y187665D01*
X260547Y187249D01*
X262214D01*
X262630Y187665D01*
Y188499D01*
X262214Y188915D01*
X260547D01*
X260131Y188499D01*
X262630Y189748D02*
X260131D01*
Y190998D01*
X260547Y191414D01*
X261381D01*
X261797Y190998D01*
Y189748D01*
Y190581D02*
X262630Y191414D01*
X260131Y193913D02*
Y192247D01*
X262630D01*
Y193913D01*
X261381Y192247D02*
Y193080D01*
X262630Y194747D02*
X260131D01*
X262630Y196413D01*
X260131D01*
Y197246D02*
Y198912D01*
Y198079D01*
X262630D01*
X260131Y199745D02*
Y201411D01*
X260547D01*
X262214Y199745D01*
X262630D01*
Y201411D01*
D62*
X296438Y159451D02*
Y161661D01*
X295117Y159451D02*
Y161661D01*
X297137Y202770D02*
X298023Y201884D01*
Y201020D02*
Y201884D01*
X293023Y202770D02*
X297137D01*
X293023Y201020D02*
Y202770D01*
Y201020D02*
X298023D01*
X274544Y237683D02*
Y239893D01*
X273223Y237683D02*
Y239893D01*
X285389Y237683D02*
Y239893D01*
X284068Y237683D02*
Y239893D01*
X285505Y252254D02*
Y254464D01*
X284184Y252254D02*
Y254464D01*
X290850Y237683D02*
Y239893D01*
X289529Y237683D02*
Y239893D01*
X279928Y237683D02*
Y239893D01*
X278607Y237683D02*
Y239893D01*
X291132Y252254D02*
Y254464D01*
X289811Y252254D02*
Y254464D01*
X257068Y158943D02*
Y161153D01*
X255747Y158943D02*
Y161153D01*
X296444Y155726D02*
Y157936D01*
X295123Y155726D02*
Y157936D01*
X296544Y238064D02*
Y240274D01*
X295223Y238064D02*
Y240274D01*
X289072Y181549D02*
Y183759D01*
X287751Y181549D02*
Y183759D01*
X257068Y155387D02*
Y157597D01*
X255747Y155387D02*
Y157597D01*
X297373Y207000D02*
X299583D01*
X297373Y205679D02*
X299583D01*
X289046Y209769D02*
Y217008D01*
X277743Y215198D02*
X278632Y214309D01*
X277743Y217008D02*
X289046D01*
X277743Y215198D02*
Y217008D01*
X278632Y212467D02*
Y214309D01*
X277743Y209769D02*
X289046D01*
X277743D02*
Y211579D01*
X278632Y212467D01*
X280436Y162499D02*
Y164709D01*
X279115Y162499D02*
Y164709D01*
X296438Y151069D02*
Y153279D01*
X295117Y151069D02*
Y153279D01*
X294444Y159476D02*
Y161686D01*
X293123Y159476D02*
Y161686D01*
X282227Y153940D02*
X284437D01*
X282227Y152619D02*
X284437D01*
X273613Y192581D02*
Y194791D01*
X272292Y192581D02*
Y194791D01*
X280413Y192200D02*
Y194410D01*
X279092Y192200D02*
Y194410D01*
X290596Y181549D02*
Y183759D01*
X289275Y181549D02*
Y183759D01*
X299994Y199583D02*
Y201793D01*
X298673Y199583D02*
Y201793D01*
X279750Y161280D02*
X281960D01*
X279750Y159959D02*
X281960D01*
X298127Y176749D02*
X298508Y177130D01*
X299206D01*
X297492Y176749D02*
X298127D01*
X297492Y174209D02*
X298127D01*
X299206Y173828D02*
Y177130D01*
X298508Y173828D02*
X299206D01*
X297111D02*
X297492Y174209D01*
X298127D02*
X298508Y173828D01*
X297111Y177130D02*
X297492Y176749D01*
X296412Y173828D02*
Y177130D01*
X297111D01*
X296412Y173828D02*
X297111D01*
X294317Y176749D02*
X294698Y177130D01*
X295396D01*
X293682Y176749D02*
X294317D01*
X293682Y174209D02*
X294317D01*
X295396Y173828D02*
Y177130D01*
X294698Y173828D02*
X295396D01*
X293301D02*
X293682Y174209D01*
X294317D02*
X294698Y173828D01*
X293301Y177130D02*
X293682Y176749D01*
X292602Y173828D02*
Y177130D01*
X293301D01*
X292602Y173828D02*
X293301D01*
X296544Y251873D02*
Y254083D01*
X295223Y251873D02*
Y254083D01*
X294660Y251907D02*
Y254117D01*
X293339Y251907D02*
Y254117D01*
X280122Y252254D02*
Y254464D01*
X278801Y252254D02*
Y254464D01*
X274544Y252254D02*
Y254464D01*
X273223Y252254D02*
Y254464D01*
X297333Y244890D02*
Y259130D01*
X295920Y249386D02*
Y250529D01*
X293126Y243010D02*
X295997D01*
X297333Y241330D02*
Y245525D01*
X293126Y241867D02*
X295997D01*
X293126D02*
Y243010D01*
X295997Y241867D02*
Y243010D01*
X292733Y259130D02*
X297333D01*
X293101Y250529D02*
X295920D01*
X293101Y249386D02*
Y250529D01*
Y249386D02*
X295920D01*
X292733Y241330D02*
Y259130D01*
Y241330D02*
X297333D01*
X296133Y241747D02*
Y243068D01*
X293136D02*
X296133D01*
X293136Y241747D02*
Y243068D01*
Y241747D02*
X296133D01*
X290545Y241791D02*
Y243112D01*
X287548D02*
X290545D01*
X287548Y241791D02*
Y243112D01*
Y241791D02*
X290545D01*
X285211Y241769D02*
Y243090D01*
X282214D02*
X285211D01*
X282214Y241769D02*
Y243090D01*
Y241769D02*
X285211D01*
X279652Y241791D02*
Y243112D01*
X276655D02*
X279652D01*
X276655Y241791D02*
Y243112D01*
Y241791D02*
X279652D01*
X274097Y241791D02*
Y243112D01*
X271100D02*
X274097D01*
X271100Y241791D02*
Y243112D01*
Y241791D02*
X274097D01*
X279597Y249240D02*
Y250561D01*
X276600D02*
X279597D01*
X276600Y249240D02*
Y250561D01*
Y249240D02*
X279597D01*
X284907Y249309D02*
Y250630D01*
X281910D02*
X284907D01*
X281910Y249309D02*
Y250630D01*
Y249309D02*
X284907D01*
X290409D02*
Y250630D01*
X287412D02*
X290409D01*
X287412Y249309D02*
Y250630D01*
Y249309D02*
X290409D01*
X296107Y249240D02*
Y250561D01*
X293110D02*
X296107D01*
X293110Y249240D02*
Y250561D01*
Y249240D02*
X296107D01*
X274148Y249309D02*
Y250630D01*
X271151D02*
X274148D01*
X271151Y249309D02*
Y250630D01*
Y249309D02*
X274148D01*
X277337Y256530D02*
X279547D01*
X277337Y255209D02*
X279547D01*
X275408Y244890D02*
Y259130D01*
X273995Y249385D02*
Y250528D01*
X271201Y243010D02*
X274072D01*
X275408Y241330D02*
Y245525D01*
X271201Y241867D02*
X274072D01*
X271201D02*
Y243010D01*
X274072Y241867D02*
Y243010D01*
X270808Y259130D02*
X275408D01*
X271176Y250528D02*
X273995D01*
X271176Y249385D02*
Y250528D01*
Y249385D02*
X273995D01*
X270808Y241330D02*
Y259130D01*
Y241330D02*
X275408D01*
X280836Y244890D02*
Y259130D01*
X279423Y249386D02*
Y250529D01*
X276629Y243010D02*
X279500D01*
X280836Y241330D02*
Y245525D01*
X276629Y241867D02*
X279500D01*
X276629D02*
Y243010D01*
X279500Y241867D02*
Y243010D01*
X276236Y259130D02*
X280836D01*
X276604Y250529D02*
X279423D01*
X276604Y249386D02*
Y250529D01*
Y249386D02*
X279423D01*
X276236Y241330D02*
Y259130D01*
Y241330D02*
X280836D01*
X286294Y244890D02*
Y259130D01*
X284881Y249386D02*
Y250529D01*
X282087Y243010D02*
X284958D01*
X286294Y241330D02*
Y245525D01*
X282087Y241867D02*
X284958D01*
X282087D02*
Y243010D01*
X284958Y241867D02*
Y243010D01*
X281694Y259130D02*
X286294D01*
X282062Y250529D02*
X284881D01*
X282062Y249386D02*
Y250529D01*
Y249386D02*
X284881D01*
X281694Y241330D02*
Y259130D01*
Y241330D02*
X286294D01*
X291796Y244890D02*
Y259130D01*
X290383Y249386D02*
Y250529D01*
X287589Y243010D02*
X290460D01*
X291796Y241330D02*
Y245525D01*
X287589Y241867D02*
X290460D01*
X287589D02*
Y243010D01*
X290460Y241867D02*
Y243010D01*
X287196Y259130D02*
X291796D01*
X287564Y250529D02*
X290383D01*
X287564Y249386D02*
Y250529D01*
Y249386D02*
X290383D01*
X287196Y241330D02*
Y259130D01*
Y241330D02*
X291796D01*
X273858Y235651D02*
X276068D01*
X273858Y236972D02*
X276068D01*
X280766Y238750D02*
X282976D01*
X280766Y237429D02*
X282976D01*
X271749Y256530D02*
X273959D01*
X271749Y255209D02*
X273959D01*
X282798Y256530D02*
X285008D01*
X282798Y255209D02*
X285008D01*
X286227Y238750D02*
X288437D01*
X286227Y237429D02*
X288437D01*
X277083Y236972D02*
X279293D01*
X277083Y235651D02*
X279293D01*
X288386Y256530D02*
X290596D01*
X288386Y255209D02*
X290596D01*
X298470Y238064D02*
Y240274D01*
X297149Y238064D02*
Y240274D01*
X207360Y197678D02*
X209570D01*
X207360Y198999D02*
X209570D01*
X207360Y195138D02*
X209570D01*
X207360Y196459D02*
X209570D01*
X207360Y192598D02*
X209570D01*
X207360Y193919D02*
X209570D01*
X207360Y190058D02*
X209570D01*
X207360Y191379D02*
X209570D01*
X207360Y187518D02*
X209570D01*
X207360Y188839D02*
X209570D01*
X243555Y148402D02*
X245765D01*
X243555Y149723D02*
X245765D01*
X282214Y162499D02*
Y164709D01*
X280893Y162499D02*
Y164709D01*
X296158Y194376D02*
X302661D01*
X296057Y194478D02*
X296158Y194376D01*
X296057Y194478D02*
Y196840D01*
X296184Y196967D01*
X302610D01*
X302813Y196764D01*
Y194529D02*
Y196764D01*
X302661Y194376D02*
X302813Y194529D01*
X288685Y196967D02*
X295187D01*
X295289Y196866D01*
Y194503D02*
Y196866D01*
X295162Y194376D02*
X295289Y194503D01*
X288736Y194376D02*
X295162D01*
X288532Y194580D02*
X288736Y194376D01*
X288532Y194580D02*
Y196815D01*
X288685Y196967D01*
X292196Y184089D02*
Y190592D01*
X292297Y190693D01*
X294660D01*
X294787Y190566D01*
Y184140D02*
Y190566D01*
X294583Y183937D02*
X294787Y184140D01*
X292348Y183937D02*
X294583D01*
X292196Y184089D02*
X292348Y183937D01*
X269234Y258283D02*
X269361Y258410D01*
X266846Y198339D02*
X268345D01*
Y199089D01*
X268095Y199338D01*
X267845D01*
X267595Y199089D01*
Y198339D01*
Y199089D01*
X267345Y199338D01*
X267096D01*
X266846Y199089D01*
Y198339D01*
X268345Y200088D02*
Y200588D01*
X268095Y200838D01*
X267595D01*
X267345Y200588D01*
Y200088D01*
X267595Y199838D01*
X268095D01*
X268345Y200088D01*
X267345Y201588D02*
Y202088D01*
X267595Y202337D01*
X268345D01*
Y201588D01*
X268095Y201338D01*
X267845Y201588D01*
Y202337D01*
X267345Y202837D02*
X268345D01*
X267845D01*
X267595Y203087D01*
X267345Y203337D01*
Y203587D01*
X266846Y205336D02*
X268345D01*
Y204587D01*
X268095Y204337D01*
X267595D01*
X267345Y204587D01*
Y205336D01*
X266186Y197323D02*
X264687D01*
Y198072D01*
X264937Y198322D01*
X265436D01*
X265686Y198072D01*
Y197323D01*
Y197823D02*
X266186Y198322D01*
Y199572D02*
Y199072D01*
X265936Y198822D01*
X265436D01*
X265186Y199072D01*
Y199572D01*
X265436Y199822D01*
X265686D01*
Y198822D01*
X266186Y200322D02*
Y200822D01*
Y200572D01*
X264687D01*
Y200322D01*
X265186Y201821D02*
Y202321D01*
X265436Y202571D01*
X266186D01*
Y201821D01*
X265936Y201571D01*
X265686Y201821D01*
Y202571D01*
X265186Y203071D02*
X265936D01*
X266186Y203321D01*
Y204071D01*
X266436D01*
X266686Y203821D01*
Y203571D01*
X266186Y204071D02*
X265186D01*
D63*
X281172Y221885D02*
X287167D01*
X281147Y221910D02*
X287192D01*
X281121Y221935D02*
X287217D01*
X281096Y221961D02*
X287243D01*
X281071Y221986D02*
X287268D01*
X281071Y222012D02*
X287268D01*
X281045Y222037D02*
X287294D01*
X281045Y222062D02*
X287294D01*
X281045Y222088D02*
X287294D01*
X281045Y222113D02*
X287294D01*
X281045Y222139D02*
X287294D01*
X281045Y222164D02*
X287294D01*
X281045Y222189D02*
X287294D01*
X281045Y222215D02*
X287294D01*
X281045Y222240D02*
X287294D01*
X281045Y222266D02*
X287294D01*
X281045Y222291D02*
X287294D01*
X281045Y222316D02*
X287294D01*
X281045Y222342D02*
X287294D01*
X281045Y222367D02*
X287294D01*
X286887Y222393D02*
X287294D01*
X281045D02*
X283966D01*
X286887Y222418D02*
X287294D01*
X281045D02*
X283966D01*
X286887Y222443D02*
X287294D01*
X281045D02*
X283966D01*
X286887Y222469D02*
X287294D01*
X281045D02*
X283966D01*
X286887Y222494D02*
X287294D01*
X281045D02*
X283966D01*
X286887Y222520D02*
X287294D01*
X281045D02*
X283966D01*
X286887Y222545D02*
X287294D01*
X281045D02*
X283966D01*
X286887Y222570D02*
X287294D01*
X281045D02*
X283966D01*
X286887Y222596D02*
X287294D01*
X281045D02*
X283966D01*
X286887Y222621D02*
X287294D01*
X281045D02*
X283966D01*
X286887Y222647D02*
X287294D01*
X281045D02*
X283966D01*
X286887Y222672D02*
X287294D01*
X281045D02*
X283966D01*
X286887Y222697D02*
X287294D01*
X281045D02*
X283966D01*
X286887Y222723D02*
X287294D01*
X281045D02*
X283966D01*
X286887Y222748D02*
X287294D01*
X281045D02*
X283966D01*
X286887Y222774D02*
X287294D01*
X284373D02*
X286481D01*
X281045D02*
X283966D01*
X286887Y222799D02*
X287294D01*
X284373D02*
X286481D01*
X281045D02*
X283966D01*
X286887Y222824D02*
X287294D01*
X284373D02*
X286481D01*
X281045D02*
X283966D01*
X286887Y222850D02*
X287294D01*
X284373D02*
X286481D01*
X281045D02*
X283966D01*
X286887Y222875D02*
X287294D01*
X284373D02*
X286481D01*
X281045D02*
X283966D01*
X286887Y222901D02*
X287294D01*
X284373D02*
X286481D01*
X281045D02*
X283966D01*
X286887Y222926D02*
X287294D01*
X284373D02*
X286481D01*
X281045D02*
X283966D01*
X286887Y222951D02*
X287294D01*
X284373D02*
X286481D01*
X281045D02*
X283966D01*
X286887Y222977D02*
X287294D01*
X284373D02*
X286481D01*
X281045D02*
X283966D01*
X286887Y223002D02*
X287294D01*
X284373D02*
X286481D01*
X281045D02*
X283966D01*
X286887Y223028D02*
X287294D01*
X284373D02*
X286481D01*
X281045D02*
X283966D01*
X286887Y223053D02*
X287294D01*
X284373D02*
X286481D01*
X281045D02*
X283966D01*
X286887Y223078D02*
X287294D01*
X284373D02*
X286481D01*
X281045D02*
X283966D01*
X286887Y223104D02*
X287294D01*
X284373D02*
X286481D01*
X281045D02*
X283966D01*
X286887Y223129D02*
X287294D01*
X284373D02*
X286481D01*
X281045D02*
X283966D01*
X286887Y223155D02*
X287294D01*
X284373D02*
X286481D01*
X281045D02*
X283966D01*
X286887Y223180D02*
X287294D01*
X284373D02*
X286481D01*
X281045D02*
X283966D01*
X286887Y223205D02*
X287294D01*
X284373D02*
X286481D01*
X281045D02*
X283966D01*
X286887Y223231D02*
X287294D01*
X284373D02*
X286481D01*
X281045D02*
X283966D01*
X286887Y223256D02*
X287294D01*
X284373D02*
X286481D01*
X281045D02*
X283966D01*
X286887Y223282D02*
X287294D01*
X284373D02*
X286481D01*
X281045D02*
X283966D01*
X286887Y223307D02*
X287294D01*
X284373D02*
X286481D01*
X281045D02*
X283966D01*
X286887Y223332D02*
X287294D01*
X284373D02*
X286481D01*
X281045D02*
X283966D01*
X286887Y223358D02*
X287294D01*
X284373D02*
X286481D01*
X281045D02*
X283966D01*
X286887Y223383D02*
X287294D01*
X284373D02*
X286481D01*
X281045D02*
X283966D01*
X286887Y223409D02*
X287294D01*
X284373D02*
X286481D01*
X281045D02*
X283966D01*
X286887Y223434D02*
X287294D01*
X284373D02*
X286481D01*
X281045D02*
X283966D01*
X286887Y223459D02*
X287294D01*
X284373D02*
X286481D01*
X281045D02*
X283966D01*
X286887Y223485D02*
X287294D01*
X284373D02*
X286481D01*
X281045D02*
X283966D01*
X286887Y223510D02*
X287294D01*
X284373D02*
X286481D01*
X281045D02*
X283966D01*
X286887Y223536D02*
X287294D01*
X284373D02*
X286481D01*
X281045D02*
X283966D01*
X286887Y223561D02*
X287294D01*
X284373D02*
X286481D01*
X281045D02*
X283966D01*
X286887Y223586D02*
X287294D01*
X284373D02*
X286481D01*
X281045D02*
X283966D01*
X286887Y223612D02*
X287294D01*
X284373D02*
X286481D01*
X281045D02*
X283966D01*
X286887Y223637D02*
X287294D01*
X284373D02*
X286481D01*
X281045D02*
X283966D01*
X286887Y223663D02*
X287294D01*
X284373D02*
X286481D01*
X281045D02*
X283966D01*
X286887Y223688D02*
X287294D01*
X284373D02*
X286481D01*
X281045D02*
X283966D01*
X286887Y223713D02*
X287294D01*
X284373D02*
X286481D01*
X281045D02*
X283966D01*
X286887Y223739D02*
X287294D01*
X284373D02*
X286481D01*
X281045D02*
X283966D01*
X286887Y223764D02*
X287294D01*
X284373D02*
X286481D01*
X281045D02*
X283966D01*
X286887Y223790D02*
X287294D01*
X284373D02*
X286481D01*
X281045D02*
X283966D01*
X286887Y223815D02*
X287294D01*
X284373D02*
X286481D01*
X281045D02*
X283966D01*
X286887Y223840D02*
X287294D01*
X284373D02*
X286481D01*
X281045D02*
X283966D01*
X286887Y223866D02*
X287294D01*
X284373D02*
X286481D01*
X281045D02*
X283966D01*
X286887Y223891D02*
X287294D01*
X284373D02*
X286481D01*
X281045D02*
X283966D01*
X286887Y223917D02*
X287294D01*
X284373D02*
X286481D01*
X281045D02*
X283966D01*
X286887Y223942D02*
X287294D01*
X284373D02*
X286481D01*
X281045D02*
X283966D01*
X286887Y223967D02*
X287294D01*
X284373D02*
X286481D01*
X281045D02*
X283966D01*
X286887Y223993D02*
X287294D01*
X284373D02*
X286481D01*
X281045D02*
X283966D01*
X286887Y224018D02*
X287294D01*
X284373D02*
X286481D01*
X281045D02*
X283966D01*
X286887Y224044D02*
X287294D01*
X284373D02*
X286481D01*
X281045D02*
X283966D01*
X286887Y224069D02*
X287294D01*
X284373D02*
X286481D01*
X281045D02*
X283966D01*
X286887Y224094D02*
X287294D01*
X284373D02*
X286481D01*
X281045D02*
X283966D01*
X286862Y224120D02*
X287294D01*
X284373D02*
X286481D01*
X281045D02*
X283966D01*
X284373Y224145D02*
X287294D01*
X281858D02*
X283966D01*
X281045D02*
X281452D01*
X284373Y224171D02*
X287294D01*
X281858D02*
X283966D01*
X281045D02*
X281452D01*
X284373Y224196D02*
X287294D01*
X281858D02*
X283966D01*
X281045D02*
X281452D01*
X284373Y224221D02*
X287294D01*
X281858D02*
X283966D01*
X281045D02*
X281452D01*
X284373Y224247D02*
X287294D01*
X281858D02*
X283966D01*
X281045D02*
X281452D01*
X284373Y224272D02*
X287294D01*
X281858D02*
X283966D01*
X281045D02*
X281452D01*
X284373Y224298D02*
X287294D01*
X281858D02*
X283966D01*
X281045D02*
X281452D01*
X284373Y224323D02*
X287294D01*
X281858D02*
X283966D01*
X281045D02*
X281452D01*
X284373Y224348D02*
X287294D01*
X281858D02*
X283966D01*
X281045D02*
X281452D01*
X284373Y224374D02*
X287294D01*
X281858D02*
X283966D01*
X281045D02*
X281452D01*
X284373Y224399D02*
X287294D01*
X281858D02*
X283966D01*
X281045D02*
X281452D01*
X284373Y224425D02*
X287294D01*
X281858D02*
X283966D01*
X281045D02*
X281452D01*
X284373Y224450D02*
X287294D01*
X281858D02*
X283966D01*
X281045D02*
X281452D01*
X284373Y224475D02*
X287294D01*
X281858D02*
X283966D01*
X281045D02*
X281452D01*
X284373Y224501D02*
X287294D01*
X281858D02*
X283966D01*
X281045D02*
X281452D01*
X284373Y224526D02*
X287294D01*
X281858D02*
X283966D01*
X281045D02*
X281452D01*
X284373Y224552D02*
X287294D01*
X281858D02*
X283966D01*
X281045D02*
X281452D01*
X284373Y224577D02*
X287294D01*
X281858D02*
X283966D01*
X281045D02*
X281452D01*
X284373Y224602D02*
X287294D01*
X281858D02*
X283966D01*
X281045D02*
X281452D01*
X284373Y224628D02*
X287294D01*
X281858D02*
X283966D01*
X281045D02*
X281452D01*
X284373Y224653D02*
X287294D01*
X281858D02*
X283966D01*
X281045D02*
X281452D01*
X284373Y224679D02*
X287294D01*
X281858D02*
X283966D01*
X281045D02*
X281452D01*
X284373Y224704D02*
X287294D01*
X281858D02*
X283966D01*
X281045D02*
X281452D01*
X284373Y224729D02*
X287294D01*
X281858D02*
X283966D01*
X281045D02*
X281452D01*
X284373Y224755D02*
X287294D01*
X281858D02*
X283966D01*
X281045D02*
X281452D01*
X284373Y224780D02*
X287294D01*
X281858D02*
X283966D01*
X281045D02*
X281452D01*
X284373Y224806D02*
X287294D01*
X281858D02*
X283966D01*
X281045D02*
X281452D01*
X284373Y224831D02*
X287294D01*
X281858D02*
X283966D01*
X281045D02*
X281452D01*
X284373Y224856D02*
X287294D01*
X281858D02*
X283966D01*
X281045D02*
X281452D01*
X284373Y224882D02*
X287294D01*
X281858D02*
X283966D01*
X281045D02*
X281452D01*
X284373Y224907D02*
X287294D01*
X281858D02*
X283966D01*
X281045D02*
X281452D01*
X284373Y224933D02*
X287294D01*
X281858D02*
X283966D01*
X281045D02*
X281452D01*
X284373Y224958D02*
X287294D01*
X281858D02*
X283966D01*
X281045D02*
X281452D01*
X284373Y224983D02*
X287294D01*
X281858D02*
X283966D01*
X281045D02*
X281452D01*
X284373Y225009D02*
X287294D01*
X281858D02*
X283966D01*
X281045D02*
X281452D01*
X284373Y225034D02*
X287294D01*
X281858D02*
X283966D01*
X281045D02*
X281452D01*
X284373Y225060D02*
X287294D01*
X281858D02*
X283966D01*
X281045D02*
X281452D01*
X284373Y225085D02*
X287294D01*
X281858D02*
X283966D01*
X281045D02*
X281452D01*
X284373Y225110D02*
X287294D01*
X281858D02*
X283966D01*
X281045D02*
X281452D01*
X284373Y225136D02*
X287294D01*
X281858D02*
X283966D01*
X281045D02*
X281452D01*
X284373Y225161D02*
X287294D01*
X281858D02*
X283966D01*
X281045D02*
X281452D01*
X284373Y225187D02*
X287294D01*
X281858D02*
X283966D01*
X281045D02*
X281452D01*
X284373Y225212D02*
X287294D01*
X281858D02*
X283966D01*
X281045D02*
X281452D01*
X284373Y225237D02*
X287294D01*
X281858D02*
X283966D01*
X281045D02*
X281452D01*
X284373Y225263D02*
X287294D01*
X281858D02*
X283966D01*
X281045D02*
X281452D01*
X284373Y225288D02*
X287294D01*
X281858D02*
X283966D01*
X281045D02*
X281452D01*
X284373Y225314D02*
X287294D01*
X281858D02*
X283966D01*
X281045D02*
X281452D01*
X284373Y225339D02*
X287294D01*
X281858D02*
X283966D01*
X281045D02*
X281452D01*
X284373Y225364D02*
X287294D01*
X281858D02*
X283966D01*
X281045D02*
X281452D01*
X284373Y225390D02*
X287294D01*
X281858D02*
X283966D01*
X281045D02*
X281452D01*
X284373Y225415D02*
X287294D01*
X281858D02*
X283966D01*
X281045D02*
X281452D01*
X284373Y225441D02*
X287294D01*
X281858D02*
X283966D01*
X281045D02*
X281452D01*
X284373Y225466D02*
X287294D01*
X281858D02*
X283966D01*
X281045D02*
X281452D01*
X284373Y225491D02*
X287294D01*
X281858D02*
X283966D01*
X281045D02*
X281452D01*
X284373Y225517D02*
X287294D01*
X281045D02*
X281452D01*
X284373Y225542D02*
X287294D01*
X281045D02*
X281452D01*
X284373Y225568D02*
X287294D01*
X281045D02*
X281452D01*
X284373Y225593D02*
X287294D01*
X281045D02*
X281452D01*
X284373Y225618D02*
X287294D01*
X281045D02*
X281452D01*
X284373Y225644D02*
X287294D01*
X281045D02*
X281452D01*
X284373Y225669D02*
X287294D01*
X281045D02*
X281452D01*
X284373Y225695D02*
X287294D01*
X281045D02*
X281452D01*
X284373Y225720D02*
X287294D01*
X281045D02*
X281452D01*
X284373Y225745D02*
X287294D01*
X281045D02*
X281452D01*
X284373Y225771D02*
X287294D01*
X281045D02*
X281452D01*
X284373Y225796D02*
X287294D01*
X281045D02*
X281452D01*
X284373Y225822D02*
X287294D01*
X281045D02*
X281452D01*
X284373Y225847D02*
X287294D01*
X281045D02*
X281452D01*
X284373Y225872D02*
X287294D01*
X281045D02*
X281452D01*
X281045Y225898D02*
X287294D01*
X281045Y225923D02*
X287294D01*
X281045Y225949D02*
X287294D01*
X281045Y225974D02*
X287294D01*
X281045Y225999D02*
X287294D01*
X281045Y226025D02*
X287294D01*
X281045Y226050D02*
X287294D01*
X281045Y226076D02*
X287294D01*
X281045Y226101D02*
X287294D01*
X281045Y226126D02*
X287294D01*
X281045Y226152D02*
X287294D01*
X281045Y226177D02*
X287294D01*
X281045Y226203D02*
X287294D01*
X281071Y226228D02*
X287268D01*
X281071Y226253D02*
X287268D01*
X281071Y226279D02*
X287268D01*
X281096Y226304D02*
X287243D01*
X281121Y226330D02*
X287217D01*
X281147Y226355D02*
X287192D01*
X281198Y226380D02*
X287141D01*
X270199Y219929D02*
Y220361D01*
X270225Y219700D02*
Y220615D01*
X270250Y219548D02*
Y220742D01*
X270276Y219421D02*
Y220869D01*
X270301Y219319D02*
Y220970D01*
X270326Y219243D02*
Y221072D01*
X270352Y219141D02*
Y221148D01*
X270377Y219091D02*
Y221224D01*
X270403Y219014D02*
Y221275D01*
X270428Y218938D02*
Y221351D01*
X270453Y218887D02*
Y221402D01*
X270479Y218837D02*
Y221453D01*
X270504Y218786D02*
Y221529D01*
X270530Y218735D02*
Y221580D01*
X270555Y218684D02*
Y221631D01*
X270580Y218633D02*
Y221656D01*
X270606Y218583D02*
Y221707D01*
X270631Y218532D02*
Y221758D01*
X270657Y218506D02*
Y221808D01*
X270682Y218456D02*
Y221834D01*
X270707Y218405D02*
Y221885D01*
X270733Y218379D02*
Y219954D01*
Y220335D02*
Y221910D01*
X270758Y218354D02*
Y219726D01*
Y220564D02*
Y221961D01*
X270784Y218303D02*
Y219599D01*
Y220691D02*
Y221986D01*
X270809Y218278D02*
Y219497D01*
Y220818D02*
Y222012D01*
X270834Y218227D02*
Y219395D01*
Y220894D02*
Y222062D01*
X270860Y218202D02*
Y219319D01*
Y220970D02*
Y222088D01*
X270885Y218176D02*
Y219243D01*
Y221046D02*
Y222113D01*
X270911Y218151D02*
Y219167D01*
Y221123D02*
Y222164D01*
X270936Y218100D02*
Y219116D01*
Y221173D02*
Y222189D01*
X270961Y218075D02*
Y219065D01*
Y221224D02*
Y222215D01*
X270987Y218049D02*
Y219014D01*
Y221300D02*
Y222240D01*
X271012Y218024D02*
Y218964D01*
Y221351D02*
Y222266D01*
X271038Y217998D02*
Y218913D01*
Y221377D02*
Y222291D01*
X271063Y217973D02*
Y218862D01*
Y221427D02*
Y222316D01*
X271088Y217948D02*
Y218811D01*
Y221478D02*
Y222342D01*
X271114Y217922D02*
Y218760D01*
Y221529D02*
Y222367D01*
X271139Y217897D02*
Y218735D01*
Y221554D02*
Y222393D01*
X271165Y217871D02*
Y218684D01*
Y221605D02*
Y222418D01*
X271190Y217846D02*
Y218659D01*
Y221631D02*
Y222443D01*
X271215Y217821D02*
Y218608D01*
Y221681D02*
Y222469D01*
X271241Y217795D02*
Y218583D01*
Y221707D02*
Y222494D01*
X271266Y217770D02*
Y218557D01*
Y221732D02*
Y222520D01*
X271292Y217744D02*
Y218532D01*
Y221783D02*
Y222545D01*
X271317Y217719D02*
Y218481D01*
Y221808D02*
Y222570D01*
X271342Y217719D02*
Y218456D01*
Y221834D02*
Y222596D01*
X271368Y217694D02*
Y218430D01*
Y221859D02*
Y222596D01*
X271393Y217668D02*
Y218405D01*
Y221885D02*
Y222621D01*
X271419Y217643D02*
Y218379D01*
Y221935D02*
Y222647D01*
X271444Y217617D02*
Y218354D01*
Y221961D02*
Y222672D01*
X271469Y217617D02*
Y218303D01*
Y221986D02*
Y222697D01*
X271495Y217592D02*
Y218278D01*
Y222012D02*
Y222697D01*
X271520Y217567D02*
Y218252D01*
Y222037D02*
Y222723D01*
X271546Y217567D02*
Y218252D01*
Y222062D02*
Y222748D01*
X271571Y217541D02*
Y218227D01*
Y222088D02*
Y222748D01*
X271596Y217516D02*
Y218202D01*
Y222088D02*
Y222774D01*
X271622Y217490D02*
Y218176D01*
Y222113D02*
Y222799D01*
X271647Y217490D02*
Y218151D01*
Y222139D02*
Y222799D01*
X271673Y217465D02*
Y218125D01*
Y222164D02*
Y222824D01*
X271698Y217465D02*
Y218100D01*
Y222189D02*
Y222850D01*
X271723Y217440D02*
Y218100D01*
Y222215D02*
Y222850D01*
X271749Y217414D02*
Y218075D01*
Y222215D02*
Y222875D01*
X271774Y217414D02*
Y218049D01*
Y222240D02*
Y222875D01*
X271800Y217389D02*
Y218024D01*
Y222266D02*
Y222901D01*
X271825Y217389D02*
Y217998D01*
Y222291D02*
Y222926D01*
X271850Y217363D02*
Y217998D01*
Y222291D02*
Y222926D01*
X271876Y217363D02*
Y217973D01*
Y218151D02*
Y219522D01*
Y220742D02*
Y221097D01*
Y222316D02*
Y222951D01*
X271901Y217338D02*
Y217948D01*
Y218151D02*
Y219700D01*
Y220742D02*
Y221097D01*
Y222342D02*
Y222951D01*
X271927Y217338D02*
Y217948D01*
Y218151D02*
Y219802D01*
Y220742D02*
Y221097D01*
Y222342D02*
Y222977D01*
X271952Y217313D02*
Y217922D01*
Y218151D02*
Y219878D01*
Y220742D02*
Y221097D01*
Y222367D02*
Y222977D01*
X271977Y217313D02*
Y217922D01*
Y218151D02*
Y219929D01*
Y220742D02*
Y221097D01*
Y222393D02*
Y223002D01*
X272003Y217287D02*
Y217922D01*
Y218151D02*
Y219980D01*
Y220742D02*
Y221097D01*
Y222393D02*
Y223002D01*
X272028Y217287D02*
Y217973D01*
Y218151D02*
Y220005D01*
Y220742D02*
Y221097D01*
Y222418D02*
Y223028D01*
X272054Y217262D02*
Y218024D01*
Y218151D02*
Y220030D01*
Y220742D02*
Y221097D01*
Y222443D02*
Y223028D01*
X272079Y217262D02*
Y218075D01*
Y218151D02*
Y220056D01*
Y220742D02*
Y221097D01*
Y222443D02*
Y223053D01*
X272104Y217236D02*
Y218125D01*
Y218151D02*
Y220107D01*
Y220742D02*
Y221097D01*
Y222469D02*
Y223053D01*
X272130Y217236D02*
Y220107D01*
Y220742D02*
Y221097D01*
Y222469D02*
Y223053D01*
X272155Y217211D02*
Y220132D01*
Y220742D02*
Y221097D01*
Y222494D02*
Y223078D01*
X272181Y217211D02*
Y220157D01*
Y220742D02*
Y221097D01*
Y222494D02*
Y223078D01*
X272206Y217211D02*
Y218532D01*
Y219421D02*
Y220183D01*
Y220742D02*
Y221097D01*
Y222520D02*
Y223104D01*
X272231Y217186D02*
Y218532D01*
Y219624D02*
Y220183D01*
Y220742D02*
Y221097D01*
Y222520D02*
Y223104D01*
X272257Y217186D02*
Y218532D01*
Y219675D02*
Y220208D01*
Y220742D02*
Y221097D01*
Y222545D02*
Y223104D01*
X272282Y217186D02*
Y218532D01*
Y219726D02*
Y220208D01*
Y220742D02*
Y221097D01*
Y222545D02*
Y223129D01*
X272308Y217160D02*
Y218532D01*
Y219751D02*
Y220234D01*
Y220742D02*
Y221097D01*
Y222545D02*
Y223129D01*
X272333Y217160D02*
Y218583D01*
Y219776D02*
Y220234D01*
Y220742D02*
Y221097D01*
Y222570D02*
Y223129D01*
X272358Y217160D02*
Y217719D01*
Y217770D02*
Y218608D01*
Y219802D02*
Y220259D01*
Y220742D02*
Y221097D01*
Y222570D02*
Y223155D01*
X272384Y217135D02*
Y217694D01*
Y217821D02*
Y218659D01*
Y219827D02*
Y220259D01*
Y220742D02*
Y221097D01*
Y222596D02*
Y223155D01*
X272409Y217135D02*
Y217694D01*
Y217871D02*
Y218710D01*
Y219853D02*
Y220284D01*
Y220742D02*
Y221097D01*
Y222596D02*
Y223155D01*
X272435Y217135D02*
Y217694D01*
Y217922D02*
Y218760D01*
Y219853D02*
Y220284D01*
Y220742D02*
Y221097D01*
Y222621D02*
Y223180D01*
X272460Y217109D02*
Y217668D01*
Y217973D02*
Y218811D01*
Y219878D02*
Y220284D01*
Y220742D02*
Y221097D01*
Y222621D02*
Y223180D01*
X272485Y217109D02*
Y217668D01*
Y218024D02*
Y218862D01*
Y219878D02*
Y220284D01*
Y220742D02*
Y221097D01*
Y222621D02*
Y223180D01*
X272511Y217109D02*
Y217668D01*
Y218075D02*
Y218913D01*
Y219903D02*
Y220310D01*
Y220742D02*
Y221097D01*
Y222647D02*
Y223205D01*
X272536Y217084D02*
Y217643D01*
Y218125D02*
Y218964D01*
Y219903D02*
Y220310D01*
Y220742D02*
Y221097D01*
Y222647D02*
Y223205D01*
X272562Y217084D02*
Y217643D01*
Y218151D02*
Y219014D01*
Y219903D02*
Y220310D01*
Y220742D02*
Y221097D01*
Y222647D02*
Y223205D01*
X272587Y217084D02*
Y217643D01*
Y218151D02*
Y219065D01*
Y219903D02*
Y220310D01*
Y220742D02*
Y221097D01*
Y222672D02*
Y223205D01*
X272612Y217084D02*
Y217617D01*
Y218151D02*
Y219116D01*
Y219929D02*
Y220310D01*
Y220742D02*
Y221097D01*
Y221504D02*
Y221808D01*
Y222672D02*
Y223231D01*
X272638Y217059D02*
Y217617D01*
Y218151D02*
Y219167D01*
Y219929D02*
Y220310D01*
Y220742D02*
Y221097D01*
Y221402D02*
Y221910D01*
Y222672D02*
Y223231D01*
X272663Y217059D02*
Y217617D01*
Y218151D02*
Y219218D01*
Y219929D02*
Y220310D01*
Y220742D02*
Y221097D01*
Y221351D02*
Y221986D01*
Y222672D02*
Y223231D01*
X272689Y217059D02*
Y217617D01*
Y218151D02*
Y219268D01*
Y219929D02*
Y220310D01*
Y220742D02*
Y221097D01*
Y221300D02*
Y222037D01*
Y222697D02*
Y223231D01*
X272714Y217059D02*
Y217592D01*
Y218151D02*
Y219319D01*
Y219929D02*
Y220310D01*
Y220742D02*
Y221097D01*
Y221250D02*
Y222088D01*
Y222697D02*
Y223231D01*
X272739Y217059D02*
Y217592D01*
Y218151D02*
Y219370D01*
Y219929D02*
Y220310D01*
Y220742D02*
Y221097D01*
Y221224D02*
Y222139D01*
Y222697D02*
Y223256D01*
X272765Y217033D02*
Y217592D01*
Y218151D02*
Y218532D01*
Y218557D02*
Y219421D01*
Y219929D02*
Y220310D01*
Y220742D02*
Y221097D01*
Y221199D02*
Y222164D01*
Y222697D02*
Y223256D01*
X272790Y217033D02*
Y217592D01*
Y218151D02*
Y218532D01*
Y218608D02*
Y219472D01*
Y219929D02*
Y220310D01*
Y220742D02*
Y221097D01*
Y221173D02*
Y222189D01*
Y222723D02*
Y223256D01*
X272816Y217033D02*
Y217567D01*
Y218151D02*
Y218532D01*
Y218659D02*
Y219522D01*
Y219903D02*
Y220310D01*
Y220742D02*
Y221097D01*
Y221148D02*
Y222215D01*
Y222723D02*
Y223256D01*
X272841Y217033D02*
Y217567D01*
Y218151D02*
Y218532D01*
Y218710D02*
Y219573D01*
Y219903D02*
Y220310D01*
Y220742D02*
Y221097D01*
Y221123D02*
Y222240D01*
Y222723D02*
Y223256D01*
X272866Y217033D02*
Y217567D01*
Y218151D02*
Y218532D01*
Y218760D02*
Y219624D01*
Y219903D02*
Y220310D01*
Y220742D02*
Y222266D01*
Y222723D02*
Y223282D01*
X272892Y217033D02*
Y217567D01*
Y218151D02*
Y218532D01*
Y218811D02*
Y219675D01*
Y219903D02*
Y220284D01*
Y220742D02*
Y221554D01*
Y221681D02*
Y222291D01*
Y222723D02*
Y223282D01*
X272917Y217008D02*
Y217567D01*
Y218151D02*
Y218532D01*
Y218862D02*
Y219726D01*
Y219878D02*
Y220284D01*
Y220742D02*
Y221453D01*
Y221783D02*
Y222316D01*
Y222748D02*
Y223282D01*
X272943Y217008D02*
Y217541D01*
Y218151D02*
Y218532D01*
Y218913D02*
Y219776D01*
Y219878D02*
Y220284D01*
Y220742D02*
Y221402D01*
Y221834D02*
Y222316D01*
Y222748D02*
Y223282D01*
X272968Y217008D02*
Y217541D01*
Y218151D02*
Y218532D01*
Y218964D02*
Y219802D01*
Y219853D02*
Y220284D01*
Y220742D02*
Y221351D01*
Y221885D02*
Y222342D01*
Y222748D02*
Y223282D01*
X272993Y217008D02*
Y217541D01*
Y218151D02*
Y218532D01*
Y219014D02*
Y220259D01*
Y220742D02*
Y221326D01*
Y221910D02*
Y222367D01*
Y222748D02*
Y223282D01*
X273019Y217008D02*
Y217541D01*
Y218151D02*
Y218532D01*
Y219065D02*
Y220259D01*
Y220742D02*
Y221300D01*
Y221961D02*
Y222367D01*
Y222748D02*
Y223282D01*
X273044Y217008D02*
Y217541D01*
Y218151D02*
Y218532D01*
Y219116D02*
Y220259D01*
Y220742D02*
Y221275D01*
Y221986D02*
Y222393D01*
Y222748D02*
Y223282D01*
X273070Y217008D02*
Y217541D01*
Y218151D02*
Y218532D01*
Y219167D02*
Y220234D01*
Y220742D02*
Y221250D01*
Y221986D02*
Y222393D01*
Y222748D02*
Y223307D01*
X273095Y217008D02*
Y217541D01*
Y218151D02*
Y218532D01*
Y219218D02*
Y220234D01*
Y220742D02*
Y221224D01*
Y222012D02*
Y222418D01*
Y222774D02*
Y223307D01*
X273120Y217008D02*
Y217541D01*
Y218151D02*
Y218532D01*
Y219268D02*
Y220208D01*
Y220742D02*
Y221199D01*
Y222037D02*
Y222418D01*
Y222774D02*
Y223307D01*
X273146Y216982D02*
Y217541D01*
Y218151D02*
Y218532D01*
Y219319D02*
Y220208D01*
Y220742D02*
Y221199D01*
Y222062D02*
Y222443D01*
Y222774D02*
Y223307D01*
X273171Y216982D02*
Y217516D01*
Y218151D02*
Y218532D01*
Y219370D02*
Y220208D01*
Y222062D02*
Y222443D01*
Y222774D02*
Y223307D01*
X273197Y216982D02*
Y217516D01*
Y218151D02*
Y218532D01*
Y219395D02*
Y220259D01*
Y220742D02*
Y221148D01*
Y222088D02*
Y222443D01*
Y222774D02*
Y223307D01*
X273222Y216982D02*
Y217516D01*
Y218151D02*
Y220310D01*
Y220742D02*
Y221148D01*
Y222088D02*
Y222469D01*
Y222774D02*
Y223307D01*
X273247Y216982D02*
Y217516D01*
Y218151D02*
Y220361D01*
Y220742D02*
Y221123D01*
Y222088D02*
Y222469D01*
Y222774D02*
Y223307D01*
X273273Y216982D02*
Y217516D01*
Y218151D02*
Y220411D01*
Y220742D02*
Y221123D01*
Y222113D02*
Y222469D01*
Y222774D02*
Y223307D01*
X273298Y216982D02*
Y217516D01*
Y218151D02*
Y220462D01*
Y220742D02*
Y221123D01*
Y222113D02*
Y222494D01*
Y222774D02*
Y223307D01*
X273324Y216982D02*
Y217516D01*
Y218151D02*
Y220513D01*
Y220742D02*
Y221097D01*
Y222113D02*
Y222494D01*
Y222774D02*
Y223307D01*
X273349Y216982D02*
Y217516D01*
Y218151D02*
Y220564D01*
Y220742D02*
Y221097D01*
Y222139D02*
Y222494D01*
Y222774D02*
Y223307D01*
X273374Y216982D02*
Y217516D01*
Y218151D02*
Y220615D01*
Y220742D02*
Y221097D01*
Y222139D02*
Y222494D01*
Y222774D02*
Y223307D01*
X273400Y216982D02*
Y217516D01*
Y218151D02*
Y220665D01*
Y220742D02*
Y221097D01*
Y222139D02*
Y222494D01*
Y222774D02*
Y223307D01*
X273425Y216982D02*
Y217516D01*
Y218151D02*
Y220716D01*
Y220742D02*
Y221072D01*
Y222139D02*
Y222520D01*
Y222774D02*
Y223307D01*
X273451Y216982D02*
Y217516D01*
Y218151D02*
Y219853D01*
Y219903D02*
Y221072D01*
Y222139D02*
Y222520D01*
Y222774D02*
Y223307D01*
X273476Y216982D02*
Y217516D01*
Y218151D02*
Y219802D01*
Y219954D02*
Y221072D01*
Y222164D02*
Y222520D01*
Y222774D02*
Y223307D01*
X273501Y216982D02*
Y217516D01*
Y218151D02*
Y219700D01*
Y220005D02*
Y221072D01*
Y222164D02*
Y222520D01*
Y222774D02*
Y223307D01*
X273527Y216982D02*
Y217516D01*
Y218151D02*
Y219573D01*
Y220056D02*
Y221072D01*
Y222164D02*
Y222520D01*
Y222774D02*
Y223307D01*
X273552Y216982D02*
Y217516D01*
Y218151D02*
Y218532D01*
Y220107D02*
Y221072D01*
Y222164D02*
Y222520D01*
Y222774D02*
Y223307D01*
X273578Y216982D02*
Y217541D01*
Y218151D02*
Y218532D01*
Y220157D02*
Y221072D01*
Y222164D02*
Y222520D01*
Y222774D02*
Y223307D01*
X273603Y217008D02*
Y217541D01*
Y218151D02*
Y218532D01*
Y220208D02*
Y221072D01*
Y222164D02*
Y222520D01*
Y222774D02*
Y223307D01*
X273628Y217008D02*
Y217541D01*
Y218151D02*
Y218532D01*
Y220259D02*
Y221097D01*
Y222164D02*
Y222520D01*
Y222748D02*
Y223307D01*
X273654Y217008D02*
Y217541D01*
Y218151D02*
Y218532D01*
Y220310D02*
Y221148D01*
Y222164D02*
Y222520D01*
Y222748D02*
Y223282D01*
X273679Y217008D02*
Y217541D01*
Y218151D02*
Y218532D01*
Y220361D02*
Y221199D01*
Y222164D02*
Y222520D01*
Y222748D02*
Y223282D01*
X273705Y217008D02*
Y217541D01*
Y218151D02*
Y218532D01*
Y220411D02*
Y221250D01*
Y222164D02*
Y222520D01*
Y222748D02*
Y223282D01*
X273730Y217008D02*
Y217541D01*
Y218151D02*
Y218532D01*
Y220462D02*
Y221300D01*
Y222164D02*
Y222520D01*
Y222748D02*
Y223282D01*
X273755Y217008D02*
Y217541D01*
Y218151D02*
Y218532D01*
Y220513D02*
Y221351D01*
Y222164D02*
Y222520D01*
Y222748D02*
Y223282D01*
X273781Y217008D02*
Y217567D01*
Y218151D02*
Y218532D01*
Y220564D02*
Y221402D01*
Y222164D02*
Y222520D01*
Y222748D02*
Y223282D01*
X273806Y217008D02*
Y217567D01*
Y218151D02*
Y218532D01*
Y220615D02*
Y221453D01*
Y222164D02*
Y222520D01*
Y222748D02*
Y223282D01*
X273832Y217033D02*
Y217567D01*
Y218151D02*
Y218532D01*
Y220665D02*
Y221504D01*
Y222164D02*
Y222520D01*
Y222723D02*
Y223282D01*
X273857Y217033D02*
Y217567D01*
Y218151D02*
Y218532D01*
Y220716D02*
Y221554D01*
Y222164D02*
Y222520D01*
Y222723D02*
Y223256D01*
X273882Y217033D02*
Y217567D01*
Y218151D02*
Y218532D01*
Y220742D02*
Y221605D01*
Y222139D02*
Y222520D01*
Y222723D02*
Y223256D01*
X273908Y217033D02*
Y217567D01*
Y218151D02*
Y218532D01*
Y220742D02*
Y221656D01*
Y222139D02*
Y222494D01*
Y222723D02*
Y223256D01*
X273933Y217033D02*
Y217592D01*
Y218151D02*
Y218532D01*
Y220742D02*
Y221707D01*
Y222139D02*
Y222494D01*
Y222697D02*
Y223256D01*
X273959Y217033D02*
Y217592D01*
Y218151D02*
Y218532D01*
Y220742D02*
Y221758D01*
Y222139D02*
Y222494D01*
Y222697D02*
Y223256D01*
X273984Y217059D02*
Y217592D01*
Y218151D02*
Y218532D01*
Y220742D02*
Y221808D01*
Y222139D02*
Y222494D01*
Y222697D02*
Y223256D01*
X274009Y217059D02*
Y217592D01*
Y218151D02*
Y218532D01*
Y220742D02*
Y221859D01*
Y222113D02*
Y222494D01*
Y222697D02*
Y223231D01*
X274035Y217059D02*
Y217617D01*
Y218151D02*
Y218532D01*
Y220742D02*
Y221910D01*
Y222113D02*
Y222469D01*
Y222697D02*
Y223231D01*
X274060Y217059D02*
Y217617D01*
Y218151D02*
Y218532D01*
Y220742D02*
Y221961D01*
Y222113D02*
Y222469D01*
Y222672D02*
Y223231D01*
X274086Y217084D02*
Y217617D01*
Y218151D02*
Y218532D01*
Y220742D02*
Y221123D01*
Y221148D02*
Y222012D01*
Y222088D02*
Y222469D01*
Y222672D02*
Y223231D01*
X274111Y217084D02*
Y217643D01*
Y218151D02*
Y218532D01*
Y220742D02*
Y221123D01*
Y221199D02*
Y222062D01*
Y222088D02*
Y222469D01*
Y222672D02*
Y223205D01*
X274136Y217084D02*
Y217643D01*
Y218151D02*
Y218532D01*
Y220742D02*
Y221148D01*
Y221250D02*
Y222443D01*
Y222647D02*
Y223205D01*
X274162Y217084D02*
Y217643D01*
Y218151D02*
Y218532D01*
Y220742D02*
Y221148D01*
Y221300D02*
Y222443D01*
Y222647D02*
Y223205D01*
X274187Y217109D02*
Y217643D01*
Y218151D02*
Y218532D01*
Y220742D02*
Y221173D01*
Y221351D02*
Y222418D01*
Y222647D02*
Y223205D01*
X274213Y217109D02*
Y217668D01*
Y218151D02*
Y218532D01*
Y220742D02*
Y221173D01*
Y221402D02*
Y222418D01*
Y222621D02*
Y223180D01*
X274238Y217109D02*
Y217668D01*
Y218151D02*
Y218532D01*
Y220742D02*
Y221199D01*
Y221453D02*
Y222418D01*
Y222621D02*
Y223180D01*
X274263Y217109D02*
Y217694D01*
Y218151D02*
Y218532D01*
Y220742D02*
Y221224D01*
Y221504D02*
Y222393D01*
Y222621D02*
Y223180D01*
X274289Y217135D02*
Y217694D01*
Y218151D02*
Y218532D01*
Y220742D02*
Y221250D01*
Y221554D02*
Y222393D01*
Y222596D02*
Y223180D01*
X274314Y217135D02*
Y217694D01*
Y218151D02*
Y218532D01*
Y220742D02*
Y221275D01*
Y221605D02*
Y222443D01*
Y222596D02*
Y223155D01*
X274340Y217135D02*
Y217719D01*
Y218151D02*
Y218532D01*
Y220742D02*
Y221300D01*
Y221656D02*
Y222494D01*
Y222596D02*
Y223155D01*
X274365Y217160D02*
Y217719D01*
Y218151D02*
Y218532D01*
Y220742D02*
Y221326D01*
Y221707D02*
Y222545D01*
Y222570D02*
Y223155D01*
X274390Y217160D02*
Y217744D01*
Y218151D02*
Y218532D01*
Y220742D02*
Y221351D01*
Y221758D02*
Y223129D01*
X274416Y217160D02*
Y217744D01*
Y218151D02*
Y218532D01*
Y220742D02*
Y221402D01*
Y221783D02*
Y223129D01*
X274441Y217186D02*
Y217744D01*
Y218151D02*
Y218532D01*
Y220742D02*
Y221478D01*
Y221732D02*
Y223104D01*
X274467Y217186D02*
Y217770D01*
Y218151D02*
Y218532D01*
Y220742D02*
Y223104D01*
X274492Y217186D02*
Y217770D01*
Y218151D02*
Y218532D01*
Y220742D02*
Y221072D01*
Y221097D02*
Y223104D01*
X274517Y217211D02*
Y217795D01*
Y218151D02*
Y218532D01*
Y220742D02*
Y221072D01*
Y221123D02*
Y223078D01*
X274543Y217211D02*
Y217795D01*
Y218151D02*
Y218532D01*
Y220742D02*
Y221072D01*
Y221148D02*
Y223078D01*
X274568Y217236D02*
Y217821D01*
Y218151D02*
Y218532D01*
Y220742D02*
Y221072D01*
Y221173D02*
Y223078D01*
X274594Y217236D02*
Y217821D01*
Y218151D02*
Y218532D01*
Y220742D02*
Y221072D01*
Y221199D02*
Y222113D01*
Y222139D02*
Y223053D01*
X274619Y217262D02*
Y217846D01*
Y218151D02*
Y218532D01*
Y220742D02*
Y221072D01*
Y221224D02*
Y222088D01*
Y222189D02*
Y223053D01*
X274644Y217262D02*
Y217846D01*
Y218151D02*
Y218532D01*
Y220742D02*
Y221072D01*
Y221275D02*
Y222037D01*
Y222240D02*
Y223028D01*
X274670Y217262D02*
Y217871D01*
Y218151D02*
Y218532D01*
Y220742D02*
Y221072D01*
Y221300D02*
Y221986D01*
Y222291D02*
Y223028D01*
X274695Y217287D02*
Y217897D01*
Y218151D02*
Y218532D01*
Y220742D02*
Y221072D01*
Y221351D02*
Y221935D01*
Y222342D02*
Y223002D01*
X274721Y217287D02*
Y217897D01*
Y221427D02*
Y221834D01*
Y222393D02*
Y223002D01*
X274746Y217313D02*
Y217922D01*
Y222367D02*
Y222977D01*
X274771Y217313D02*
Y217922D01*
Y222367D02*
Y222977D01*
X274797Y217338D02*
Y217948D01*
Y222342D02*
Y222951D01*
X274822Y217338D02*
Y217973D01*
Y222316D02*
Y222951D01*
X274848Y217363D02*
Y217973D01*
Y222316D02*
Y222926D01*
X274873Y217363D02*
Y217998D01*
Y222291D02*
Y222926D01*
X274898Y217389D02*
Y218024D01*
Y222266D02*
Y222901D01*
X274924Y217414D02*
Y218049D01*
Y222266D02*
Y222901D01*
X274949Y217414D02*
Y218049D01*
Y222240D02*
Y222875D01*
X274975Y217440D02*
Y218075D01*
Y222215D02*
Y222850D01*
X275000Y217440D02*
Y218100D01*
Y222189D02*
Y222850D01*
X275025Y217465D02*
Y218125D01*
Y222164D02*
Y222824D01*
X275051Y217490D02*
Y218151D01*
Y222164D02*
Y222824D01*
X275076Y217490D02*
Y218151D01*
Y222139D02*
Y222799D01*
X275102Y217516D02*
Y218176D01*
Y222113D02*
Y222774D01*
X275127Y217541D02*
Y218202D01*
Y222088D02*
Y222774D01*
X275152Y217541D02*
Y218227D01*
Y222062D02*
Y222748D01*
X275178Y217567D02*
Y218252D01*
Y222037D02*
Y222723D01*
X275203Y217592D02*
Y218278D01*
Y222012D02*
Y222723D01*
X275229Y217592D02*
Y218303D01*
Y221986D02*
Y222697D01*
X275254Y217617D02*
Y218329D01*
Y221961D02*
Y222672D01*
X275279Y217643D02*
Y218354D01*
Y221935D02*
Y222647D01*
X275305Y217668D02*
Y218379D01*
Y221910D02*
Y222647D01*
X275330Y217668D02*
Y218405D01*
Y221885D02*
Y222621D01*
X275356Y217694D02*
Y218456D01*
Y221859D02*
Y222596D01*
X275381Y217719D02*
Y218481D01*
Y221834D02*
Y222570D01*
X275406Y217744D02*
Y218506D01*
Y221783D02*
Y222545D01*
X275432Y217770D02*
Y218532D01*
Y221758D02*
Y222520D01*
X275457Y217795D02*
Y218557D01*
Y221732D02*
Y222520D01*
X275483Y217821D02*
Y218608D01*
Y221681D02*
Y222494D01*
X275508Y217821D02*
Y218633D01*
Y221656D02*
Y222469D01*
X275533Y217846D02*
Y218684D01*
Y221631D02*
Y222443D01*
X275559Y217871D02*
Y218710D01*
Y221580D02*
Y222418D01*
X275584Y217897D02*
Y218760D01*
Y221529D02*
Y222393D01*
X275610Y217922D02*
Y218786D01*
Y221504D02*
Y222367D01*
X275635Y217948D02*
Y218837D01*
Y221453D02*
Y222342D01*
X275660Y217973D02*
Y218887D01*
Y221402D02*
Y222316D01*
X275686Y217998D02*
Y218938D01*
Y221351D02*
Y222291D01*
X275711Y218049D02*
Y218989D01*
Y221300D02*
Y222266D01*
X275737Y218075D02*
Y219040D01*
Y221250D02*
Y222240D01*
X275762Y218100D02*
Y219091D01*
Y221199D02*
Y222189D01*
X275787Y218125D02*
Y219141D01*
Y221148D02*
Y222164D01*
X275813Y218151D02*
Y219218D01*
Y221072D02*
Y222139D01*
X275838Y218176D02*
Y219294D01*
Y221021D02*
Y222113D01*
X275864Y218227D02*
Y219370D01*
Y220945D02*
Y222062D01*
X275889Y218252D02*
Y219446D01*
Y220843D02*
Y222037D01*
X275914Y218278D02*
Y219548D01*
Y220742D02*
Y222012D01*
X275940Y218329D02*
Y219675D01*
Y220640D02*
Y221961D01*
X275965Y218354D02*
Y219827D01*
Y220462D02*
Y221935D01*
X275991Y218405D02*
Y221885D01*
X276016Y218430D02*
Y221859D01*
X276041Y218481D02*
Y221808D01*
X276067Y218506D02*
Y221783D01*
X276092Y218557D02*
Y221732D01*
X276118Y218608D02*
Y221681D01*
X276143Y218659D02*
Y221631D01*
X276168Y218710D02*
Y221605D01*
X276194Y218760D02*
Y221554D01*
X276219Y218811D02*
Y221504D01*
X276245Y218862D02*
Y221427D01*
X276270Y218913D02*
Y221377D01*
X276295Y218989D02*
Y221300D01*
X276321Y219040D02*
Y221250D01*
X276346Y219116D02*
Y221173D01*
X276372Y219192D02*
Y221097D01*
X276397Y219268D02*
Y221021D01*
X276422Y219370D02*
Y220919D01*
X276448Y219472D02*
Y220818D01*
X276473Y219624D02*
Y220691D01*
X276499Y219802D02*
Y220488D01*
X276600Y220691D02*
Y220843D01*
X276626Y218024D02*
Y218100D01*
Y219929D02*
Y220030D01*
Y220640D02*
Y220843D01*
X276651Y218024D02*
Y218100D01*
Y219929D02*
Y220030D01*
Y220615D02*
Y220843D01*
X276676Y218024D02*
Y218100D01*
Y219929D02*
Y220030D01*
Y220615D02*
Y220843D01*
X276702Y218024D02*
Y218100D01*
Y219929D02*
Y220030D01*
Y220589D02*
Y220716D01*
X276727Y218024D02*
Y218100D01*
Y219929D02*
Y220030D01*
Y220589D02*
Y220691D01*
X276753Y218024D02*
Y218100D01*
Y219929D02*
Y220030D01*
Y220589D02*
Y220691D01*
X276778Y218024D02*
Y218100D01*
Y219929D02*
Y220030D01*
Y220589D02*
Y220691D01*
X276803Y218024D02*
Y218100D01*
Y219929D02*
Y220030D01*
Y220589D02*
Y220691D01*
X276829Y218024D02*
Y218100D01*
Y218456D02*
Y218583D01*
Y219091D02*
Y219243D01*
Y219700D02*
Y219827D01*
Y219929D02*
Y220030D01*
Y220589D02*
Y220691D01*
Y221072D02*
Y221148D01*
Y221453D02*
Y221580D01*
Y222088D02*
Y222215D01*
X276854Y218024D02*
Y218100D01*
Y218379D02*
Y218633D01*
Y218989D02*
Y219319D01*
Y219649D02*
Y219878D01*
Y219929D02*
Y220030D01*
Y220513D02*
Y220818D01*
Y220894D02*
Y220970D01*
Y221021D02*
Y221199D01*
Y221377D02*
Y221656D01*
Y222012D02*
Y222291D01*
X276880Y218024D02*
Y218100D01*
Y218329D02*
Y218684D01*
Y218964D02*
Y219345D01*
Y219599D02*
Y219903D01*
Y219929D02*
Y220030D01*
Y220513D02*
Y220818D01*
Y220894D02*
Y220970D01*
Y220996D02*
Y221199D01*
Y221351D02*
Y221681D01*
Y221986D02*
Y222316D01*
X276905Y218024D02*
Y218100D01*
Y218303D02*
Y218710D01*
Y218938D02*
Y219370D01*
Y219573D02*
Y220030D01*
Y220513D02*
Y220792D01*
Y220894D02*
Y221199D01*
Y221326D02*
Y221707D01*
Y221961D02*
Y222342D01*
X276930Y218024D02*
Y218100D01*
Y218303D02*
Y218430D01*
Y218608D02*
Y218735D01*
Y218913D02*
Y219040D01*
Y219243D02*
Y219370D01*
Y219573D02*
Y219700D01*
Y219853D02*
Y220030D01*
Y220589D02*
Y220691D01*
Y220894D02*
Y221072D01*
Y221123D02*
Y221173D01*
Y221300D02*
Y221427D01*
Y221605D02*
Y221732D01*
Y221935D02*
Y222062D01*
Y222240D02*
Y222367D01*
X276956Y218024D02*
Y218100D01*
Y218278D02*
Y218379D01*
Y218633D02*
Y218735D01*
Y218913D02*
Y219014D01*
Y219268D02*
Y219395D01*
Y219548D02*
Y219649D01*
Y219878D02*
Y220030D01*
Y220589D02*
Y220691D01*
Y220894D02*
Y221021D01*
Y221275D02*
Y221402D01*
Y221631D02*
Y221758D01*
Y221910D02*
Y222037D01*
Y222266D02*
Y222393D01*
X276981Y218024D02*
Y218100D01*
Y218252D02*
Y218379D01*
Y218659D02*
Y218760D01*
Y218887D02*
Y219014D01*
Y219294D02*
Y219395D01*
Y219548D02*
Y219649D01*
Y219903D02*
Y220030D01*
Y220589D02*
Y220691D01*
Y220894D02*
Y221021D01*
Y221275D02*
Y221377D01*
Y221656D02*
Y221758D01*
Y221910D02*
Y222012D01*
Y222291D02*
Y222393D01*
X277007Y218024D02*
Y218100D01*
Y218252D02*
Y218354D01*
Y218659D02*
Y218760D01*
Y218887D02*
Y218989D01*
Y219294D02*
Y219395D01*
Y219522D02*
Y219624D01*
Y219903D02*
Y220030D01*
Y220589D02*
Y220691D01*
Y220894D02*
Y220996D01*
Y221250D02*
Y221351D01*
Y221656D02*
Y221758D01*
Y221885D02*
Y221986D01*
Y222291D02*
Y222418D01*
X277032Y218024D02*
Y218100D01*
Y218252D02*
Y218354D01*
Y218659D02*
Y218760D01*
Y219294D02*
Y219395D01*
Y219522D02*
Y219624D01*
Y219929D02*
Y220030D01*
Y220589D02*
Y220691D01*
Y220894D02*
Y220996D01*
Y221250D02*
Y221351D01*
Y221681D02*
Y221783D01*
Y221885D02*
Y221986D01*
Y222316D02*
Y222418D01*
X277057Y218024D02*
Y218100D01*
Y218252D02*
Y218354D01*
Y218684D02*
Y218786D01*
Y219268D02*
Y219395D01*
Y219522D02*
Y219624D01*
Y219929D02*
Y220030D01*
Y220589D02*
Y220691D01*
Y220894D02*
Y220996D01*
Y221250D02*
Y221351D01*
Y221681D02*
Y221783D01*
Y221885D02*
Y221986D01*
Y222316D02*
Y222418D01*
X277083Y218024D02*
Y218100D01*
Y218227D02*
Y218786D01*
Y219141D02*
Y219395D01*
Y219522D02*
Y219624D01*
Y219929D02*
Y220030D01*
Y220589D02*
Y220691D01*
Y220894D02*
Y220996D01*
Y221250D02*
Y221783D01*
Y221885D02*
Y222418D01*
X277108Y218024D02*
Y218100D01*
Y218227D02*
Y218786D01*
Y218989D02*
Y219395D01*
Y219497D02*
Y219599D01*
Y219929D02*
Y220030D01*
Y220157D02*
Y220462D01*
Y220589D02*
Y220691D01*
Y220894D02*
Y220996D01*
Y221250D02*
Y221783D01*
Y221885D02*
Y222418D01*
X277134Y218024D02*
Y218100D01*
Y218227D02*
Y218786D01*
Y218938D02*
Y219395D01*
Y219497D02*
Y219599D01*
Y219929D02*
Y220030D01*
Y220132D02*
Y220462D01*
Y220589D02*
Y220691D01*
Y220894D02*
Y220996D01*
Y221250D02*
Y221783D01*
Y221885D02*
Y222418D01*
X277159Y218024D02*
Y218100D01*
Y218227D02*
Y218760D01*
Y218913D02*
Y219192D01*
Y219294D02*
Y219395D01*
Y219522D02*
Y219599D01*
Y219929D02*
Y220030D01*
Y220157D02*
Y220462D01*
Y220589D02*
Y220691D01*
Y220894D02*
Y220996D01*
Y221250D02*
Y221758D01*
Y221885D02*
Y222418D01*
X277184Y218024D02*
Y218100D01*
Y218227D02*
Y218329D01*
Y218887D02*
Y219065D01*
Y219294D02*
Y219395D01*
Y219522D02*
Y219624D01*
Y219929D02*
Y220030D01*
Y220157D02*
Y220437D01*
Y220589D02*
Y220691D01*
Y220894D02*
Y220996D01*
Y221250D02*
Y221351D01*
Y221885D02*
Y221986D01*
X277210Y218024D02*
Y218100D01*
Y218252D02*
Y218354D01*
Y218887D02*
Y219014D01*
Y219294D02*
Y219395D01*
Y219522D02*
Y219624D01*
Y219929D02*
Y220030D01*
Y220589D02*
Y220691D01*
Y220894D02*
Y220996D01*
Y221250D02*
Y221351D01*
Y221885D02*
Y221986D01*
X277235Y218024D02*
Y218100D01*
Y218252D02*
Y218354D01*
Y218887D02*
Y218989D01*
Y219294D02*
Y219395D01*
Y219522D02*
Y219624D01*
Y219929D02*
Y220030D01*
Y220589D02*
Y220691D01*
Y220894D02*
Y220996D01*
Y221250D02*
Y221351D01*
Y221885D02*
Y221986D01*
X277261Y218024D02*
Y218100D01*
Y218252D02*
Y218354D01*
Y218659D02*
Y218760D01*
Y218862D02*
Y218989D01*
Y219268D02*
Y219395D01*
Y219522D02*
Y219624D01*
Y219929D02*
Y220030D01*
Y220589D02*
Y220691D01*
Y220894D02*
Y220996D01*
Y221250D02*
Y221377D01*
Y221681D02*
Y221783D01*
Y221885D02*
Y222012D01*
Y222316D02*
Y222418D01*
X277286Y218024D02*
Y218100D01*
Y218252D02*
Y218379D01*
Y218659D02*
Y218760D01*
Y218862D02*
Y218989D01*
Y219268D02*
Y219395D01*
Y219548D02*
Y219649D01*
Y219903D02*
Y220030D01*
Y220589D02*
Y220691D01*
Y220894D02*
Y220996D01*
Y221275D02*
Y221377D01*
Y221656D02*
Y221783D01*
Y221910D02*
Y222012D01*
Y222291D02*
Y222418D01*
X277311Y218024D02*
Y218100D01*
Y218278D02*
Y218405D01*
Y218633D02*
Y218760D01*
Y218887D02*
Y218989D01*
Y219243D02*
Y219395D01*
Y219548D02*
Y219675D01*
Y219878D02*
Y220030D01*
Y220589D02*
Y220691D01*
Y220894D02*
Y220996D01*
Y221275D02*
Y221402D01*
Y221631D02*
Y221758D01*
Y221910D02*
Y222037D01*
Y222266D02*
Y222393D01*
X277337Y218024D02*
Y218100D01*
Y218278D02*
Y218430D01*
Y218608D02*
Y218735D01*
Y218887D02*
Y219014D01*
Y219218D02*
Y219395D01*
Y219573D02*
Y219700D01*
Y219853D02*
Y220030D01*
Y220589D02*
Y220691D01*
Y220894D02*
Y220996D01*
Y221300D02*
Y221427D01*
Y221605D02*
Y221732D01*
Y221935D02*
Y222062D01*
Y222240D02*
Y222393D01*
X277362Y218024D02*
Y218100D01*
Y218303D02*
Y218710D01*
Y218887D02*
Y219065D01*
Y219141D02*
Y219395D01*
Y219599D02*
Y220030D01*
Y220589D02*
Y220691D01*
Y220894D02*
Y220996D01*
Y221326D02*
Y221732D01*
Y221961D02*
Y222367D01*
X277388Y218024D02*
Y218100D01*
Y218329D02*
Y218684D01*
Y218913D02*
Y219268D01*
Y219294D02*
Y219395D01*
Y219624D02*
Y219903D01*
Y219929D02*
Y220030D01*
Y220589D02*
Y220691D01*
Y220894D02*
Y220996D01*
Y221351D02*
Y221707D01*
Y221986D02*
Y222342D01*
X277413Y218024D02*
Y218100D01*
Y218379D02*
Y218659D01*
Y218938D02*
Y219218D01*
Y219319D02*
Y219421D01*
Y219649D02*
Y219878D01*
Y219929D02*
Y220030D01*
Y220589D02*
Y220691D01*
Y220894D02*
Y220996D01*
Y221377D02*
Y221656D01*
Y222012D02*
Y222291D01*
X277438Y218456D02*
Y218583D01*
Y219014D02*
Y219141D01*
Y219726D02*
Y219827D01*
Y221453D02*
Y221580D01*
Y222088D02*
Y222215D01*
X228416Y150485D02*
X233776D01*
X228416Y150511D02*
X233776D01*
X228416Y150536D02*
X233776D01*
X228416Y150561D02*
X233776D01*
X228416Y150587D02*
X233776D01*
X228416Y150612D02*
X233776D01*
X228416Y150638D02*
X233776D01*
X228416Y150663D02*
X233776D01*
X228416Y150688D02*
X233776D01*
X228416Y150714D02*
X233776D01*
X228416Y150739D02*
X233776D01*
X228416Y150765D02*
X233776D01*
X228416Y150790D02*
X233776D01*
X228416Y150815D02*
X233776D01*
X228416Y150841D02*
X233776D01*
X228416Y150866D02*
X233776D01*
X228416Y150892D02*
X233776D01*
X228416Y150917D02*
X233776D01*
X228416Y150942D02*
X233776D01*
X228416Y150968D02*
X233776D01*
X228416Y150993D02*
X233776D01*
X228416Y151019D02*
X233776D01*
X228416Y151044D02*
X233776D01*
X228416Y151069D02*
X233776D01*
X228416Y151095D02*
X233776D01*
X228416Y151120D02*
X233776D01*
X228416Y151146D02*
X233776D01*
X228416Y151171D02*
X233776D01*
X228416Y151196D02*
X233776D01*
X228416Y151222D02*
X233776D01*
X228416Y151247D02*
X233776D01*
X228416Y151273D02*
X233776D01*
X228416Y151298D02*
X233776D01*
X228416Y151323D02*
X233776D01*
X228416Y151349D02*
X233776D01*
X228416Y151374D02*
X233776D01*
X228416Y151400D02*
X233776D01*
X228416Y151425D02*
X233776D01*
X228416Y151450D02*
X233776D01*
X228416Y151476D02*
X233776D01*
X228416Y151501D02*
X233776D01*
X228416Y151527D02*
X233776D01*
X228416Y151552D02*
X233776D01*
X228416Y151577D02*
X233776D01*
X228416Y151603D02*
X233776D01*
X228416Y151628D02*
X233776D01*
X228416Y151654D02*
X233776D01*
X228416Y151679D02*
X233776D01*
X228416Y151704D02*
X233776D01*
X228416Y151730D02*
X233776D01*
X228416Y151755D02*
X233776D01*
X233877Y153101D02*
X233903D01*
X228086D02*
X228162D01*
X233852Y153127D02*
X233928D01*
X228061D02*
X228188D01*
X233852Y153152D02*
X233954D01*
X228035D02*
X228188D01*
X233801Y153178D02*
X233979D01*
X228035D02*
X228239D01*
X233776Y153203D02*
X234004D01*
X228035D02*
X228264D01*
X233776Y153228D02*
X233979D01*
X228061D02*
X228264D01*
X233725Y153254D02*
X233954D01*
X228086D02*
X228315D01*
X233700Y153279D02*
X233928D01*
X228112D02*
X228340D01*
X233700Y153305D02*
X233903D01*
X228137D02*
X228340D01*
X233649Y153330D02*
X233877D01*
X228162D02*
X228391D01*
X233649Y153355D02*
X233852D01*
X228188D02*
X228416D01*
X233623Y153381D02*
X233827D01*
X228213D02*
X228416D01*
X233598Y153406D02*
X233801D01*
X228239D02*
X228467D01*
X233573Y153432D02*
X233776D01*
X228264D02*
X228493D01*
X233547Y153457D02*
X233750D01*
X228289D02*
X228493D01*
X233522Y153482D02*
X233725D01*
X228315D02*
X228543D01*
X233496Y153508D02*
X233700D01*
X228340D02*
X228569D01*
X233471Y153533D02*
X233700D01*
X228366D02*
X228569D01*
X233446Y153559D02*
X233649D01*
X228391D02*
X228620D01*
X233420Y153584D02*
X233623D01*
X228416D02*
X228645D01*
X233395Y153609D02*
X233623D01*
X228442D02*
X228645D01*
X233369Y153635D02*
X233573D01*
X228467D02*
X228696D01*
X233344Y153660D02*
X233547D01*
X228493D02*
X228721D01*
X233344Y153686D02*
X233522D01*
X228518D02*
X228747D01*
X233293Y153711D02*
X233496D01*
X232074D02*
X232328D01*
X230093D02*
X230423D01*
X228543D02*
X228772D01*
X233268Y153736D02*
X233471D01*
X231998D02*
X232430D01*
X230093D02*
X230423D01*
X228569D02*
X228797D01*
X233268Y153762D02*
X233446D01*
X231972D02*
X232455D01*
X230093D02*
X230423D01*
X228594D02*
X228823D01*
X233217Y153787D02*
X233446D01*
X231922D02*
X232506D01*
X230093D02*
X230423D01*
X228620D02*
X228848D01*
X233192Y153813D02*
X233420D01*
X231871D02*
X232531D01*
X230093D02*
X230423D01*
X228645D02*
X228874D01*
X233192Y153838D02*
X233395D01*
X231845D02*
X232557D01*
X230093D02*
X230423D01*
X228670D02*
X228874D01*
X233141Y153863D02*
X233369D01*
X231820D02*
X232582D01*
X230093D02*
X230423D01*
X228696D02*
X228899D01*
X233115Y153889D02*
X233344D01*
X231795D02*
X232607D01*
X230093D02*
X230423D01*
X228747D02*
X228924D01*
X233115Y153914D02*
X233319D01*
X231769D02*
X232633D01*
X230093D02*
X230423D01*
X228747D02*
X228950D01*
X233065Y153940D02*
X233293D01*
X231769D02*
X232658D01*
X230093D02*
X230423D01*
X228772D02*
X228975D01*
X233065Y153965D02*
X233268D01*
X232303D02*
X232658D01*
X231744D02*
X232099D01*
X230093D02*
X230423D01*
X228823D02*
X229001D01*
X233039Y153990D02*
X233242D01*
X232353D02*
X232684D01*
X230067D02*
X232074D01*
X228823D02*
X229026D01*
X233014Y154016D02*
X233217D01*
X232379D02*
X232684D01*
X230042D02*
X232023D01*
X228848D02*
X229051D01*
X232988Y154041D02*
X233192D01*
X232430D02*
X232684D01*
X230017D02*
X231998D01*
X228874D02*
X229077D01*
X232963Y154067D02*
X233166D01*
X232430D02*
X232709D01*
X232125D02*
X232277D01*
X230017D02*
X231972D01*
X228899D02*
X229102D01*
X232938Y154092D02*
X233141D01*
X232455D02*
X232709D01*
X232074D02*
X232328D01*
X229991D02*
X231972D01*
X228924D02*
X229128D01*
X232912Y154117D02*
X233115D01*
X232455D02*
X232734D01*
X232049D02*
X232353D01*
X229991D02*
X231947D01*
X228950D02*
X229153D01*
X232887Y154143D02*
X233115D01*
X232455D02*
X232734D01*
X232049D02*
X232353D01*
X229991D02*
X231947D01*
X228975D02*
X229178D01*
X232861Y154168D02*
X233065D01*
X232480D02*
X232734D01*
X232049D02*
X232379D01*
X231668D02*
X231922D01*
X229991D02*
X230194D01*
X229001D02*
X229204D01*
X232836Y154194D02*
X233039D01*
X232480D02*
X232734D01*
X232023D02*
X232379D01*
X231668D02*
X231922D01*
X229991D02*
X230194D01*
X229026D02*
X229229D01*
X232811Y154219D02*
X233039D01*
X232480D02*
X232734D01*
X232023D02*
X232379D01*
X231668D02*
X231922D01*
X229991D02*
X230194D01*
X229051D02*
X229255D01*
X232811Y154244D02*
X232988D01*
X232480D02*
X232734D01*
X232023D02*
X232379D01*
X231668D02*
X231922D01*
X229991D02*
X230194D01*
X229077D02*
X229280D01*
X232760Y154270D02*
X232963D01*
X232480D02*
X232734D01*
X232049D02*
X232379D01*
X231668D02*
X231922D01*
X229991D02*
X230169D01*
X229102D02*
X229305D01*
X232760Y154295D02*
X232963D01*
X232455D02*
X232734D01*
X232049D02*
X232379D01*
X231668D02*
X231922D01*
X229991D02*
X230169D01*
X229128D02*
X229331D01*
X232455Y154321D02*
X232912D01*
X232049D02*
X232353D01*
X231693D02*
X231947D01*
X229991D02*
X230169D01*
X229153D02*
X229356D01*
X232455Y154346D02*
X232887D01*
X232074D02*
X232328D01*
X231693D02*
X231972D01*
X229991D02*
X230169D01*
X229178D02*
X229382D01*
X232430Y154371D02*
X232887D01*
X232099D02*
X232303D01*
X231693D02*
X231972D01*
X229991D02*
X230169D01*
X229204D02*
X229407D01*
X232430Y154397D02*
X232861D01*
X232150D02*
X232252D01*
X231693D02*
X231998D01*
X229991D02*
X230169D01*
X229229D02*
X229432D01*
X232379Y154422D02*
X232836D01*
X231718D02*
X232023D01*
X229991D02*
X230169D01*
X229255D02*
X229458D01*
X232379Y154448D02*
X232811D01*
X231718D02*
X232049D01*
X229966D02*
X230169D01*
X229280D02*
X229483D01*
X232328Y154473D02*
X232785D01*
X231718D02*
X232074D01*
X229966D02*
X230144D01*
X229305D02*
X229509D01*
X231744Y154498D02*
X232760D01*
X229966D02*
X230144D01*
X229331D02*
X229534D01*
X231769Y154524D02*
X232734D01*
X229966D02*
X230144D01*
X229356D02*
X229559D01*
X231769Y154549D02*
X232709D01*
X229966D02*
X230144D01*
X229382D02*
X229585D01*
X231795Y154575D02*
X232684D01*
X229966D02*
X230144D01*
X229407D02*
X229610D01*
X231820Y154600D02*
X232658D01*
X229966D02*
X230144D01*
X229432D02*
X229636D01*
X231845Y154625D02*
X232633D01*
X229966D02*
X230144D01*
X229458D02*
X229661D01*
X231871Y154651D02*
X232607D01*
X229966D02*
X230144D01*
X229483D02*
X229686D01*
X231922Y154676D02*
X232582D01*
X229966D02*
X230144D01*
X229509D02*
X229686D01*
X231972Y154702D02*
X232582D01*
X229966D02*
X230144D01*
X229534D02*
X229737D01*
X232049Y154727D02*
X232531D01*
X229966D02*
X230144D01*
X229559D02*
X229763D01*
X232125Y154752D02*
X232531D01*
X229966D02*
X230144D01*
X229585D02*
X229763D01*
X232150Y154778D02*
X232506D01*
X229966D02*
X230144D01*
X229610D02*
X229813D01*
X232150Y154803D02*
X232455D01*
X229940D02*
X230118D01*
X229636D02*
X229839D01*
X232150Y154829D02*
X232455D01*
X229940D02*
X230118D01*
X229636D02*
X229839D01*
X232150Y154854D02*
X232430D01*
X229940D02*
X230118D01*
X229661D02*
X229890D01*
X232150Y154879D02*
X232379D01*
X229940D02*
X230118D01*
X229686D02*
X229915D01*
X232150Y154905D02*
X232379D01*
X229940D02*
X230118D01*
X229712D02*
X229915D01*
X232150Y154930D02*
X232353D01*
X229737D02*
X230118D01*
X232125Y154956D02*
X232353D01*
X229763D02*
X230118D01*
X232099Y154981D02*
X232353D01*
X229788D02*
X230118D01*
X232074Y155006D02*
X232353D01*
X229813D02*
X230118D01*
X232049Y155032D02*
X232353D01*
X229839D02*
X230118D01*
X232023Y155057D02*
X232353D01*
X229864D02*
X230118D01*
X231998Y155083D02*
X232353D01*
X229890D02*
X230118D01*
X231972Y155108D02*
X232353D01*
X229915D02*
X230144D01*
X232176Y155133D02*
X232353D01*
X231972D02*
X232150D01*
X229915D02*
X230144D01*
X232176Y155159D02*
X232353D01*
X231922D02*
X232125D01*
X229915D02*
X230194D01*
X232176Y155184D02*
X232379D01*
X231896D02*
X232099D01*
X229915D02*
X230220D01*
X232201Y155210D02*
X232379D01*
X231871D02*
X232074D01*
X229915D02*
X230220D01*
X232201Y155235D02*
X232379D01*
X231845D02*
X232049D01*
X229915D02*
X230271D01*
X232201Y155260D02*
X232379D01*
X231820D02*
X232023D01*
X229915D02*
X230296D01*
X232201Y155286D02*
X232379D01*
X231795D02*
X232023D01*
X229915D02*
X230296D01*
X232201Y155311D02*
X232379D01*
X231769D02*
X231998D01*
X230118D02*
X230347D01*
X229915D02*
X230093D01*
X232201Y155337D02*
X232379D01*
X231744D02*
X231972D01*
X230144D02*
X230372D01*
X229890D02*
X230067D01*
X232201Y155362D02*
X232379D01*
X231718D02*
X231947D01*
X230169D02*
X230398D01*
X229890D02*
X230067D01*
X232201Y155387D02*
X232379D01*
X231693D02*
X231922D01*
X230194D02*
X230423D01*
X229890D02*
X230067D01*
X232201Y155413D02*
X232379D01*
X231693D02*
X231871D01*
X230220D02*
X230448D01*
X229890D02*
X230067D01*
X232201Y155438D02*
X232379D01*
X231668D02*
X231871D01*
X230245D02*
X230474D01*
X229890D02*
X230067D01*
X232201Y155464D02*
X232379D01*
X231642D02*
X231845D01*
X230271D02*
X230499D01*
X229890D02*
X230067D01*
X232201Y155489D02*
X232379D01*
X231617D02*
X231795D01*
X230296D02*
X230499D01*
X229890D02*
X230067D01*
X232201Y155514D02*
X232404D01*
X231591D02*
X231795D01*
X230321D02*
X230525D01*
X229890D02*
X230067D01*
X232226Y155540D02*
X232404D01*
X231566D02*
X231769D01*
X230347D02*
X230550D01*
X229890D02*
X230067D01*
X232226Y155565D02*
X232404D01*
X231541D02*
X231744D01*
X230398D02*
X230575D01*
X229890D02*
X230067D01*
X232226Y155591D02*
X232404D01*
X231515D02*
X231718D01*
X230398D02*
X230601D01*
X229890D02*
X230067D01*
X232226Y155616D02*
X232404D01*
X231490D02*
X231693D01*
X230423D02*
X230626D01*
X229890D02*
X230067D01*
X232226Y155641D02*
X232404D01*
X231464D02*
X231668D01*
X230474D02*
X230652D01*
X229890D02*
X230067D01*
X232226Y155667D02*
X232404D01*
X231439D02*
X231642D01*
X230474D02*
X230677D01*
X229890D02*
X230067D01*
X232226Y155692D02*
X232430D01*
X231414D02*
X231617D01*
X230499D02*
X230702D01*
X229864D02*
X230042D01*
X232226Y155718D02*
X232430D01*
X231388D02*
X231591D01*
X230525D02*
X230728D01*
X229864D02*
X230042D01*
X232226Y155743D02*
X232430D01*
X231388D02*
X231566D01*
X230550D02*
X230753D01*
X229864D02*
X230042D01*
X232226Y155768D02*
X232430D01*
X231337D02*
X231541D01*
X230575D02*
X230779D01*
X229864D02*
X230042D01*
X232226Y155794D02*
X232430D01*
X231312D02*
X231515D01*
X230601D02*
X230804D01*
X229864D02*
X230042D01*
X232226Y155819D02*
X232430D01*
X231312D02*
X231490D01*
X230626D02*
X230829D01*
X229864D02*
X230042D01*
X232226Y155845D02*
X232430D01*
X231261D02*
X231464D01*
X230652D02*
X230855D01*
X229864D02*
X230042D01*
X232252Y155870D02*
X232430D01*
X231236D02*
X231464D01*
X230677D02*
X230880D01*
X229839D02*
X230042D01*
X232252Y155895D02*
X232430D01*
X231236D02*
X231439D01*
X230702D02*
X230906D01*
X229839D02*
X230042D01*
X232252Y155921D02*
X232430D01*
X231185D02*
X231414D01*
X230728D02*
X230931D01*
X229839D02*
X230042D01*
X232252Y155946D02*
X232430D01*
X231160D02*
X231388D01*
X230753D02*
X230956D01*
X229839D02*
X230042D01*
X232252Y155972D02*
X232430D01*
X231160D02*
X231363D01*
X230779D02*
X230982D01*
X229839D02*
X230042D01*
X232252Y155997D02*
X232455D01*
X231134D02*
X231337D01*
X230804D02*
X231007D01*
X229839D02*
X230042D01*
X232277Y156022D02*
X232455D01*
X231109D02*
X231312D01*
X230829D02*
X231033D01*
X229839D02*
X230042D01*
X232277Y156048D02*
X232455D01*
X231083D02*
X231287D01*
X230855D02*
X231058D01*
X229839D02*
X230017D01*
X232277Y156073D02*
X232455D01*
X230880D02*
X231261D01*
X229839D02*
X230017D01*
X232277Y156099D02*
X232455D01*
X230906D02*
X231236D01*
X229839D02*
X230017D01*
X232277Y156124D02*
X232455D01*
X230931D02*
X231210D01*
X229839D02*
X230017D01*
X232277Y156149D02*
X232455D01*
X230956D02*
X231185D01*
X229839D02*
X230017D01*
X232277Y156175D02*
X232455D01*
X230956D02*
X231185D01*
X229839D02*
X230017D01*
X232277Y156200D02*
X232455D01*
X230931D02*
X231210D01*
X229839D02*
X230017D01*
X232277Y156226D02*
X232455D01*
X230906D02*
X231236D01*
X229813D02*
X229991D01*
X232277Y156251D02*
X232455D01*
X230880D02*
X231261D01*
X229813D02*
X229991D01*
X232277Y156276D02*
X232455D01*
X230855D02*
X231287D01*
X229813D02*
X229991D01*
X232277Y156302D02*
X232455D01*
X231109D02*
X231312D01*
X230855D02*
X231033D01*
X229813D02*
X229991D01*
X232277Y156327D02*
X232480D01*
X231134D02*
X231337D01*
X230804D02*
X231007D01*
X229813D02*
X229991D01*
X232303Y156353D02*
X232480D01*
X231160D02*
X231337D01*
X230804D02*
X231007D01*
X229813D02*
X229991D01*
X232303Y156378D02*
X232480D01*
X231185D02*
X231388D01*
X230779D02*
X230956D01*
X229813D02*
X229991D01*
X232303Y156403D02*
X232480D01*
X231210D02*
X231414D01*
X230728D02*
X230931D01*
X229813D02*
X229991D01*
X232303Y156429D02*
X232480D01*
X231236D02*
X231414D01*
X230728D02*
X230931D01*
X229813D02*
X229991D01*
X232303Y156454D02*
X232480D01*
X231261D02*
X231464D01*
X230702D02*
X230880D01*
X229813D02*
X229991D01*
X232303Y156480D02*
X232506D01*
X231287D02*
X231490D01*
X230652D02*
X230880D01*
X229813D02*
X229991D01*
X232303Y156505D02*
X232506D01*
X231312D02*
X231490D01*
X230652D02*
X230855D01*
X229813D02*
X229991D01*
X232303Y156530D02*
X232506D01*
X231337D02*
X231541D01*
X230626D02*
X230829D01*
X229813D02*
X229991D01*
X232303Y156556D02*
X232506D01*
X231337D02*
X231566D01*
X230575D02*
X230804D01*
X229788D02*
X229991D01*
X232303Y156581D02*
X232506D01*
X231363D02*
X231566D01*
X230575D02*
X230779D01*
X229788D02*
X229966D01*
X232303Y156607D02*
X232506D01*
X231388D02*
X231617D01*
X230550D02*
X230753D01*
X229788D02*
X229966D01*
X232303Y156632D02*
X232506D01*
X231414D02*
X231642D01*
X230525D02*
X230728D01*
X229788D02*
X229966D01*
X232303Y156657D02*
X232506D01*
X231439D02*
X231642D01*
X230499D02*
X230702D01*
X229788D02*
X229966D01*
X232328Y156683D02*
X232506D01*
X231464D02*
X231693D01*
X230474D02*
X230677D01*
X229788D02*
X229966D01*
X232328Y156708D02*
X232506D01*
X231490D02*
X231718D01*
X230448D02*
X230652D01*
X229788D02*
X229966D01*
X232328Y156734D02*
X232506D01*
X231515D02*
X231718D01*
X230423D02*
X230626D01*
X229788D02*
X229966D01*
X232328Y156759D02*
X232506D01*
X231541D02*
X231769D01*
X230398D02*
X230601D01*
X229763D02*
X229966D01*
X232328Y156784D02*
X232506D01*
X231566D02*
X231795D01*
X230372D02*
X230575D01*
X229763D02*
X229966D01*
X232328Y156810D02*
X232506D01*
X231591D02*
X231795D01*
X230347D02*
X230575D01*
X229763D02*
X229966D01*
X232353Y156835D02*
X232531D01*
X231617D02*
X231845D01*
X230321D02*
X230550D01*
X229763D02*
X229966D01*
X232353Y156861D02*
X232531D01*
X231642D02*
X231871D01*
X230296D02*
X230499D01*
X229763D02*
X229966D01*
X232353Y156886D02*
X232531D01*
X231668D02*
X231871D01*
X230296D02*
X230499D01*
X229763D02*
X229966D01*
X232353Y156911D02*
X232531D01*
X231693D02*
X231922D01*
X230271D02*
X230474D01*
X229763D02*
X229966D01*
X232353Y156937D02*
X232531D01*
X231718D02*
X231947D01*
X230220D02*
X230423D01*
X229763D02*
X229940D01*
X232353Y156962D02*
X232531D01*
X231744D02*
X231972D01*
X230220D02*
X230423D01*
X229763D02*
X229940D01*
X232353Y156988D02*
X232531D01*
X230779D02*
X231998D01*
X230194D02*
X230398D01*
X229763D02*
X229940D01*
X232353Y157013D02*
X232531D01*
X230779D02*
X232023D01*
X230144D02*
X230347D01*
X229763D02*
X229940D01*
X232353Y157038D02*
X232531D01*
X230779D02*
X232049D01*
X230144D02*
X230347D01*
X229763D02*
X229940D01*
X232353Y157064D02*
X232531D01*
X230779D02*
X232074D01*
X230118D02*
X230321D01*
X229763D02*
X229940D01*
X232353Y157089D02*
X232531D01*
X230779D02*
X232074D01*
X230067D02*
X230296D01*
X229737D02*
X229940D01*
X232353Y157115D02*
X232531D01*
X230779D02*
X232099D01*
X230067D02*
X230271D01*
X229737D02*
X229915D01*
X232353Y157140D02*
X232557D01*
X230779D02*
X232125D01*
X230042D02*
X230245D01*
X229737D02*
X229915D01*
X232379Y157165D02*
X232557D01*
X231972D02*
X232150D01*
X230779D02*
X231922D01*
X230017D02*
X230220D01*
X229737D02*
X229915D01*
X232379Y157191D02*
X232557D01*
X231972D02*
X232176D01*
X230779D02*
X231922D01*
X229991D02*
X230194D01*
X229737D02*
X229915D01*
X232379Y157216D02*
X232557D01*
X231998D02*
X232201D01*
X230779D02*
X231922D01*
X229966D02*
X230169D01*
X229737D02*
X229915D01*
X232379Y157242D02*
X232557D01*
X232049D02*
X232226D01*
X230779D02*
X231922D01*
X229940D02*
X230144D01*
X229737D02*
X229915D01*
X232379Y157267D02*
X232557D01*
X232049D02*
X232252D01*
X230779D02*
X231922D01*
X229737D02*
X230118D01*
X232379Y157292D02*
X232557D01*
X232074D02*
X232277D01*
X230779D02*
X231922D01*
X229737D02*
X230093D01*
X232379Y157318D02*
X232582D01*
X232125D02*
X232303D01*
X230779D02*
X231922D01*
X229737D02*
X230067D01*
X232353Y157343D02*
X232988D01*
X232125D02*
X232328D01*
X230779D02*
X231922D01*
X229737D02*
X230042D01*
X232150Y157369D02*
X232988D01*
X229737D02*
X230017D01*
X232201Y157394D02*
X232988D01*
X229737D02*
X229991D01*
X232201Y157419D02*
X232988D01*
X229737D02*
X229991D01*
X232226Y157445D02*
X232988D01*
X229712D02*
X229966D01*
X232252Y157470D02*
X232988D01*
X229712D02*
X229915D01*
X232277Y157496D02*
X232988D01*
X229712D02*
X229915D01*
X232836Y157521D02*
X232988D01*
X232303D02*
X232582D01*
X229686D02*
X229890D01*
X232836Y157546D02*
X232988D01*
X232328D02*
X232582D01*
X229661D02*
X229890D01*
X232836Y157572D02*
X232988D01*
X232353D02*
X232582D01*
X229636D02*
X229890D01*
X232836Y157597D02*
X232988D01*
X232353D02*
X232582D01*
X229610D02*
X229890D01*
X232836Y157623D02*
X232988D01*
X232353D02*
X232607D01*
X229585D02*
X229890D01*
X232836Y157648D02*
X232988D01*
X232353D02*
X232633D01*
X229559D02*
X229890D01*
X232836Y157673D02*
X232988D01*
X232353D02*
X232658D01*
X229534D02*
X229890D01*
X232836Y157699D02*
X232988D01*
X232353D02*
X232684D01*
X229509D02*
X229890D01*
X232836Y157724D02*
X232988D01*
X232353D02*
X232709D01*
X229483D02*
X229890D01*
X232836Y157750D02*
X232988D01*
X232353D02*
X232734D01*
X229686D02*
X229890D01*
X229458D02*
X229661D01*
X232836Y157775D02*
X232988D01*
X232353D02*
X232760D01*
X229686D02*
X229890D01*
X229432D02*
X229636D01*
X232836Y157800D02*
X232988D01*
X232353D02*
X232785D01*
X229686D02*
X229890D01*
X229432D02*
X229610D01*
X232353Y157826D02*
X232988D01*
X229686D02*
X229864D01*
X229382D02*
X229585D01*
X232353Y157851D02*
X232988D01*
X229686D02*
X229864D01*
X229356D02*
X229559D01*
X232353Y157877D02*
X232988D01*
X229686D02*
X229864D01*
X229356D02*
X229534D01*
X232353Y157902D02*
X232988D01*
X229686D02*
X229864D01*
X229305D02*
X229509D01*
X232353Y157927D02*
X232988D01*
X229686D02*
X229864D01*
X229280D02*
X229483D01*
X232353Y157953D02*
X232988D01*
X229686D02*
X229864D01*
X229280D02*
X229458D01*
X232760Y157978D02*
X232963D01*
X232430D02*
X232633D01*
X229661D02*
X229864D01*
X229229D02*
X229458D01*
X232785Y158004D02*
X232988D01*
X232455D02*
X232633D01*
X229661D02*
X229839D01*
X229204D02*
X229432D01*
X232811Y158029D02*
X232988D01*
X232455D02*
X232633D01*
X229661D02*
X229839D01*
X229204D02*
X229407D01*
X232836Y158054D02*
X233039D01*
X232455D02*
X232633D01*
X229661D02*
X229839D01*
X229178D02*
X229382D01*
X232861Y158080D02*
X233065D01*
X232455D02*
X232633D01*
X229661D02*
X229839D01*
X229153D02*
X229356D01*
X232887Y158105D02*
X233065D01*
X232455D02*
X232633D01*
X229661D02*
X229839D01*
X229128D02*
X229331D01*
X232912Y158131D02*
X233115D01*
X232455D02*
X232658D01*
X229661D02*
X229839D01*
X229102D02*
X229305D01*
X232938Y158156D02*
X233141D01*
X232455D02*
X232658D01*
X229661D02*
X229839D01*
X229077D02*
X229280D01*
X232963Y158181D02*
X233141D01*
X232455D02*
X232658D01*
X229661D02*
X229839D01*
X229051D02*
X229255D01*
X232988Y158207D02*
X233192D01*
X232455D02*
X232658D01*
X229661D02*
X229839D01*
X229026D02*
X229229D01*
X233014Y158232D02*
X233217D01*
X232455D02*
X232658D01*
X229661D02*
X229839D01*
X229001D02*
X229204D01*
X233039Y158258D02*
X233217D01*
X232455D02*
X232836D01*
X229661D02*
X229839D01*
X228975D02*
X229178D01*
X233065Y158283D02*
X233268D01*
X229432D02*
X232887D01*
X228950D02*
X229153D01*
X233090Y158308D02*
X233293D01*
X229432D02*
X232912D01*
X228924D02*
X229128D01*
X233090Y158334D02*
X233293D01*
X229432D02*
X232938D01*
X228924D02*
X229128D01*
X233115Y158359D02*
X233344D01*
X229432D02*
X232963D01*
X228899D02*
X229077D01*
X233141Y158385D02*
X233369D01*
X229432D02*
X232963D01*
X228848D02*
X229051D01*
X233166Y158410D02*
X233369D01*
X229432D02*
X232988D01*
X228848D02*
X229051D01*
X233192Y158435D02*
X233420D01*
X229432D02*
X232988D01*
X228823D02*
X229001D01*
X233217Y158461D02*
X233446D01*
X232455D02*
X232988D01*
X229991D02*
X230321D01*
X229636D02*
X229839D01*
X228772D02*
X228975D01*
X233242Y158486D02*
X233446D01*
X232430D02*
X232988D01*
X229991D02*
X230321D01*
X229636D02*
X229839D01*
X228772D02*
X228975D01*
X233268Y158512D02*
X233496D01*
X232430D02*
X232988D01*
X229991D02*
X230321D01*
X229661D02*
X229864D01*
X228747D02*
X228924D01*
X233293Y158537D02*
X233522D01*
X232379D02*
X232988D01*
X229991D02*
X230321D01*
X229661D02*
X229890D01*
X228696D02*
X228899D01*
X233319Y158562D02*
X233522D01*
X232379D02*
X232988D01*
X229991D02*
X230321D01*
X229686D02*
X229915D01*
X228696D02*
X228899D01*
X233344Y158588D02*
X233573D01*
X232353D02*
X232963D01*
X229991D02*
X230321D01*
X229686D02*
X229966D01*
X228645D02*
X228874D01*
X233369Y158613D02*
X233598D01*
X232277D02*
X232963D01*
X230804D02*
X231718D01*
X229737D02*
X230321D01*
X228645D02*
X228848D01*
X233395Y158639D02*
X233623D01*
X232277D02*
X232938D01*
X230804D02*
X231718D01*
X229737D02*
X230321D01*
X228620D02*
X228823D01*
X233420Y158664D02*
X233649D01*
X232582D02*
X232912D01*
X232201D02*
X232531D01*
X230804D02*
X231718D01*
X229763D02*
X230321D01*
X228594D02*
X228797D01*
X233446Y158689D02*
X233674D01*
X232607D02*
X232887D01*
X232125D02*
X232506D01*
X230804D02*
X231718D01*
X229813D02*
X230321D01*
X228569D02*
X228772D01*
X233471Y158715D02*
X233700D01*
X232658D02*
X232836D01*
X232049D02*
X232480D01*
X230804D02*
X231718D01*
X229813D02*
X230321D01*
X228543D02*
X228747D01*
X233496Y158740D02*
X233725D01*
X231947D02*
X232430D01*
X230804D02*
X231718D01*
X229864D02*
X230398D01*
X228518D02*
X228721D01*
X233522Y158766D02*
X233750D01*
X231769D02*
X232379D01*
X230804D02*
X231718D01*
X229915D02*
X230575D01*
X228493D02*
X228696D01*
X233547Y158791D02*
X233776D01*
X230804D02*
X232353D01*
X229940D02*
X230702D01*
X228467D02*
X228670D01*
X233573Y158816D02*
X233776D01*
X231541D02*
X232303D01*
X229991D02*
X231007D01*
X228442D02*
X228645D01*
X233623Y158842D02*
X233801D01*
X231541D02*
X232226D01*
X229991D02*
X231007D01*
X228416D02*
X228620D01*
X233623Y158867D02*
X233827D01*
X231541D02*
X232201D01*
X229991D02*
X231007D01*
X228391D02*
X228594D01*
X233649Y158893D02*
X233852D01*
X229991D02*
X232074D01*
X228366D02*
X228569D01*
X233700Y158918D02*
X233877D01*
X230347D02*
X231972D01*
X229991D02*
X230321D01*
X228340D02*
X228543D01*
X233700Y158943D02*
X233903D01*
X230423D02*
X231871D01*
X228340D02*
X228543D01*
X233725Y158969D02*
X233928D01*
X230652D02*
X231718D01*
X228315D02*
X228493D01*
X233776Y158994D02*
X233954D01*
X230804D02*
X231718D01*
X228264D02*
X228467D01*
X233776Y159020D02*
X233979D01*
X230804D02*
X231718D01*
X228264D02*
X228467D01*
X233801Y159045D02*
X234004D01*
X230804D02*
X231718D01*
X228239D02*
X228416D01*
X233852Y159070D02*
X234030D01*
X228188D02*
X228391D01*
X233852Y159096D02*
X234055D01*
X228188D02*
X228391D01*
X233877Y159121D02*
X234081D01*
X228162D02*
X228340D01*
X233928Y159147D02*
X234106D01*
X228112D02*
X228315D01*
X233928Y159172D02*
X234131D01*
X228112D02*
X228315D01*
X233954Y159197D02*
X234157D01*
X228086D02*
X228289D01*
X233979Y159223D02*
X234182D01*
X228061D02*
X228264D01*
X234004Y159248D02*
X234208D01*
X228035D02*
X228239D01*
X234030Y159274D02*
X234233D01*
X228010D02*
X228213D01*
X234055Y159299D02*
X234258D01*
X227985D02*
X228188D01*
X234081Y159324D02*
X234284D01*
X227959D02*
X228162D01*
X234106Y159350D02*
X234309D01*
X227934D02*
X228137D01*
X234131Y159375D02*
X234335D01*
X227908D02*
X228112D01*
X234157Y159401D02*
X234360D01*
X227908D02*
X228086D01*
X234182Y159426D02*
X234360D01*
X227908D02*
X228061D01*
X234208Y159451D02*
X234360D01*
X227908D02*
X228035D01*
X234233Y159477D02*
X234360D01*
X227908D02*
X228010D01*
X234258Y159502D02*
X234360D01*
X227908D02*
X228010D01*
X234284Y159528D02*
X234360D01*
X227908D02*
X227959D01*
X234309Y159553D02*
X234360D01*
X227908D02*
X227959D01*
X234335Y159578D02*
X234360D01*
X227908D02*
X227934D01*
X280740Y243805D02*
X281172D01*
D64*
X205201Y153076D02*
X205429D01*
X221660Y153152D02*
X222193D01*
X216936D02*
X218383D01*
X208249D02*
X209925D01*
X204515D02*
X206115D01*
X221508Y153228D02*
X222346D01*
X216555D02*
X218688D01*
X213278D02*
X213354D01*
X208325D02*
X209925D01*
X204210D02*
X206420D01*
X221355Y153305D02*
X222422D01*
X216326D02*
X218917D01*
X213278D02*
X213354D01*
X208325D02*
X210001D01*
X203982D02*
X206572D01*
X199562D02*
X199638D01*
X221279Y153381D02*
X222498D01*
X216097D02*
X219069D01*
X213202D02*
X213430D01*
X208325D02*
X210001D01*
X203829D02*
X206801D01*
X199562D02*
X199638D01*
X221203Y153457D02*
X222574D01*
X215869D02*
X219222D01*
X213202D02*
X213430D01*
X208401D02*
X210001D01*
X203601D02*
X206953D01*
X199562D02*
X199714D01*
X221203Y153533D02*
X222574D01*
X215716D02*
X219374D01*
X213202D02*
X213507D01*
X208401D02*
X210078D01*
X203524D02*
X207106D01*
X199562D02*
X199714D01*
X221127Y153609D02*
X222651D01*
X215564D02*
X219450D01*
X213126D02*
X213507D01*
X208477D02*
X210078D01*
X203372D02*
X207258D01*
X199562D02*
X199791D01*
X221127Y153686D02*
X222651D01*
X215488D02*
X219603D01*
X213126D02*
X213583D01*
X208477D02*
X210078D01*
X203220D02*
X207334D01*
X199562D02*
X199791D01*
X221050Y153762D02*
X222727D01*
X215335D02*
X219679D01*
X213049D02*
X213659D01*
X208477D02*
X210154D01*
X203143D02*
X207411D01*
X199562D02*
X199867D01*
X221050Y153838D02*
X222727D01*
X215259D02*
X219755D01*
X213049D02*
X213659D01*
X208554D02*
X210154D01*
X203067D02*
X207563D01*
X199562D02*
X199943D01*
X221050Y153914D02*
X222727D01*
X215183D02*
X219831D01*
X213049D02*
X213735D01*
X208554D02*
X210154D01*
X202991D02*
X207639D01*
X199562D02*
X199943D01*
X221050Y153990D02*
X222727D01*
X215107D02*
X219831D01*
X212973D02*
X213735D01*
X208630D02*
X210230D01*
X202915D02*
X207715D01*
X199562D02*
X200019D01*
X221050Y154067D02*
X222727D01*
X215183D02*
X219907D01*
X212973D02*
X213811D01*
X208630D02*
X210230D01*
X202839D02*
X207792D01*
X199562D02*
X200019D01*
X221050Y154143D02*
X222727D01*
X215259D02*
X219984D01*
X212973D02*
X213811D01*
X208630D02*
X210230D01*
X202762D02*
X207868D01*
X199562D02*
X200095D01*
X221127Y154219D02*
X222651D01*
X215259D02*
X219984D01*
X208706D02*
X213888D01*
X202686D02*
X207944D01*
X199562D02*
X200095D01*
X221127Y154295D02*
X222651D01*
X215335D02*
X220060D01*
X208706D02*
X213964D01*
X202610D02*
X208020D01*
X199562D02*
X200172D01*
X221203Y154371D02*
X222574D01*
X217850D02*
X220060D01*
X215335D02*
X217545D01*
X208706D02*
X213964D01*
X202534D02*
X208020D01*
X199562D02*
X200248D01*
X221279Y154448D02*
X222574D01*
X218231D02*
X220136D01*
X215412D02*
X217012D01*
X208782D02*
X214040D01*
X205734D02*
X208020D01*
X202534D02*
X204820D01*
X199562D02*
X200248D01*
X221355Y154524D02*
X222498D01*
X218383D02*
X220136D01*
X215412D02*
X216707D01*
X208782D02*
X214040D01*
X206039D02*
X208020D01*
X202458D02*
X204591D01*
X199562D02*
X200324D01*
X221431Y154600D02*
X222346D01*
X218536D02*
X220136D01*
X215488D02*
X216555D01*
X208858D02*
X214116D01*
X206191D02*
X208020D01*
X202381D02*
X204439D01*
X199562D02*
X200324D01*
X221508Y154676D02*
X222270D01*
X218536D02*
X220136D01*
X215564D02*
X216402D01*
X208858D02*
X214192D01*
X206344D02*
X208020D01*
X202381D02*
X204286D01*
X199562D02*
X200400D01*
X221736Y154752D02*
X222041D01*
X218612D02*
X220212D01*
X215564D02*
X216250D01*
X208858D02*
X214192D01*
X206496D02*
X208020D01*
X202305D02*
X204210D01*
X199562D02*
X200476D01*
X218612Y154829D02*
X220212D01*
X215640D02*
X216097D01*
X208935D02*
X214269D01*
X206496D02*
X208020D01*
X202305D02*
X204134D01*
X199562D02*
X200476D01*
X218612Y154905D02*
X220212D01*
X215640D02*
X216021D01*
X208935D02*
X214269D01*
X206496D02*
X208020D01*
X202229D02*
X204058D01*
X199562D02*
X200553D01*
X218612Y154981D02*
X220212D01*
X215716D02*
X215945D01*
X208935D02*
X214269D01*
X206496D02*
X208020D01*
X202229D02*
X203982D01*
X199562D02*
X200553D01*
X218612Y155057D02*
X220212D01*
X215716D02*
X215793D01*
X209011D02*
X214192D01*
X206496D02*
X208020D01*
X202153D02*
X203905D01*
X199562D02*
X200629D01*
X218612Y155133D02*
X220212D01*
X209011D02*
X214192D01*
X206496D02*
X208020D01*
X202153D02*
X203829D01*
X199562D02*
X200629D01*
X218536Y155210D02*
X220212D01*
X209087D02*
X214192D01*
X206496D02*
X208020D01*
X202153D02*
X203753D01*
X199562D02*
X200705D01*
X218460Y155286D02*
X220212D01*
X209087D02*
X214116D01*
X206496D02*
X208020D01*
X202077D02*
X203753D01*
X199562D02*
X200781D01*
X218383Y155362D02*
X220212D01*
X209087D02*
X214116D01*
X206496D02*
X208020D01*
X202077D02*
X203677D01*
X199562D02*
X200781D01*
X218155Y155438D02*
X220212D01*
X209163D02*
X214040D01*
X205048D02*
X208020D01*
X202077D02*
X203677D01*
X199562D02*
X200857D01*
X217926Y155514D02*
X220136D01*
X212516D02*
X214040D01*
X209163D02*
X210687D01*
X205048D02*
X208020D01*
X202077D02*
X203601D01*
X199562D02*
X200857D01*
X217621Y155591D02*
X220136D01*
X212516D02*
X214040D01*
X209163D02*
X210687D01*
X205048D02*
X208020D01*
X202000D02*
X203601D01*
X199562D02*
X200934D01*
X217317Y155667D02*
X220136D01*
X212440D02*
X213964D01*
X209239D02*
X210763D01*
X205048D02*
X208020D01*
X202000D02*
X203601D01*
X199562D02*
X200934D01*
X216936Y155743D02*
X220060D01*
X212440D02*
X213964D01*
X209239D02*
X210763D01*
X205048D02*
X208020D01*
X202000D02*
X203601D01*
X199562D02*
X201010D01*
X216707Y155819D02*
X220060D01*
X212440D02*
X213964D01*
X209316D02*
X210763D01*
X205048D02*
X208020D01*
X202000D02*
X203524D01*
X199562D02*
X201086D01*
X216402Y155895D02*
X219984D01*
X212364D02*
X213888D01*
X209316D02*
X210840D01*
X205048D02*
X208020D01*
X202000D02*
X203524D01*
X199562D02*
X201086D01*
X216250Y155972D02*
X219984D01*
X212364D02*
X213888D01*
X209316D02*
X210840D01*
X205048D02*
X208020D01*
X202000D02*
X203524D01*
X199562D02*
X201086D01*
X216097Y156048D02*
X219907D01*
X212364D02*
X213811D01*
X209392D02*
X210840D01*
X205048D02*
X208020D01*
X202000D02*
X203524D01*
X199562D02*
X201086D01*
X215945Y156124D02*
X219831D01*
X212287D02*
X213811D01*
X209392D02*
X210916D01*
X205048D02*
X208020D01*
X202000D02*
X203524D01*
X199562D02*
X201086D01*
X215793Y156200D02*
X219755D01*
X212287D02*
X213811D01*
X209392D02*
X210916D01*
X205048D02*
X208020D01*
X202000D02*
X203524D01*
X199562D02*
X201086D01*
X215716Y156276D02*
X219679D01*
X212287D02*
X213735D01*
X209468D02*
X210916D01*
X205048D02*
X208020D01*
X202000D02*
X203524D01*
X199562D02*
X201086D01*
X215640Y156353D02*
X219603D01*
X212211D02*
X213735D01*
X209468D02*
X210992D01*
X205048D02*
X208020D01*
X202000D02*
X203524D01*
X199562D02*
X201086D01*
X215564Y156429D02*
X219450D01*
X212211D02*
X213735D01*
X209544D02*
X210992D01*
X205048D02*
X208020D01*
X202000D02*
X203524D01*
X199562D02*
X201086D01*
X215488Y156505D02*
X219374D01*
X212211D02*
X213659D01*
X209544D02*
X210992D01*
X205048D02*
X208020D01*
X202000D02*
X203524D01*
X199562D02*
X201086D01*
X215412Y156581D02*
X219222D01*
X212135D02*
X213659D01*
X209544D02*
X211068D01*
X205048D02*
X208020D01*
X202000D02*
X203524D01*
X199562D02*
X201086D01*
X215335Y156657D02*
X218993D01*
X212135D02*
X213583D01*
X209620D02*
X211068D01*
X202000D02*
X203524D01*
X199562D02*
X201086D01*
X215335Y156734D02*
X218764D01*
X212135D02*
X213583D01*
X209620D02*
X211068D01*
X202000D02*
X203601D01*
X199562D02*
X201086D01*
X215259Y156810D02*
X218536D01*
X212059D02*
X213583D01*
X209620D02*
X211144D01*
X202000D02*
X203601D01*
X199562D02*
X201086D01*
X215259Y156886D02*
X218231D01*
X212059D02*
X213507D01*
X209697D02*
X211144D01*
X202000D02*
X203601D01*
X199562D02*
X201086D01*
X215259Y156962D02*
X217926D01*
X212059D02*
X213507D01*
X209697D02*
X211221D01*
X202077D02*
X203677D01*
X199562D02*
X201086D01*
X215183Y157038D02*
X217621D01*
X211983D02*
X213507D01*
X209773D02*
X211221D01*
X202077D02*
X203677D01*
X199562D02*
X201086D01*
X215183Y157115D02*
X217240D01*
X211983D02*
X213430D01*
X209773D02*
X211221D01*
X202077D02*
X203677D01*
X199562D02*
X201086D01*
X215183Y157191D02*
X217012D01*
X211983D02*
X213430D01*
X209773D02*
X211297D01*
X202077D02*
X203753D01*
X199562D02*
X201086D01*
X215183Y157267D02*
X216859D01*
X211906D02*
X213354D01*
X209849D02*
X211297D01*
X202153D02*
X203829D01*
X199562D02*
X201086D01*
X215183Y157343D02*
X216783D01*
X211906D02*
X213354D01*
X209849D02*
X211297D01*
X202153D02*
X203829D01*
X199562D02*
X201086D01*
X215183Y157419D02*
X216707D01*
X211830D02*
X213354D01*
X209849D02*
X211373D01*
X206572D02*
X206649D01*
X202153D02*
X203905D01*
X199562D02*
X201086D01*
X215183Y157496D02*
X216707D01*
X211830D02*
X213278D01*
X209925D02*
X211373D01*
X206496D02*
X206725D01*
X202229D02*
X203982D01*
X199562D02*
X201086D01*
X219145Y157572D02*
X219222D01*
X215183D02*
X216707D01*
X211830D02*
X213278D01*
X209925D02*
X211373D01*
X206420D02*
X206725D01*
X202229D02*
X204058D01*
X199562D02*
X201086D01*
X218993Y157648D02*
X219298D01*
X215183D02*
X216707D01*
X211754D02*
X213278D01*
X210001D02*
X211449D01*
X206344D02*
X206801D01*
X202305D02*
X204134D01*
X199562D02*
X201086D01*
X218917Y157724D02*
X219374D01*
X215183D02*
X216707D01*
X211754D02*
X213202D01*
X210001D02*
X211449D01*
X206268D02*
X206801D01*
X202305D02*
X204210D01*
X199562D02*
X201086D01*
X218764Y157800D02*
X219374D01*
X215183D02*
X216783D01*
X211754D02*
X213202D01*
X210001D02*
X211449D01*
X206191D02*
X206877D01*
X202381D02*
X204286D01*
X199562D02*
X201086D01*
X218612Y157877D02*
X219450D01*
X215183D02*
X216783D01*
X211678D02*
X213126D01*
X210078D02*
X211525D01*
X206039D02*
X206877D01*
X202381D02*
X204439D01*
X199562D02*
X201086D01*
X218383Y157953D02*
X219450D01*
X215183D02*
X216859D01*
X211678D02*
X213126D01*
X210078D02*
X211525D01*
X205887D02*
X206953D01*
X202458D02*
X204591D01*
X199562D02*
X201086D01*
X218079Y158029D02*
X219526D01*
X215259D02*
X217012D01*
X211678D02*
X213126D01*
X210078D02*
X211525D01*
X205658D02*
X207030D01*
X202458D02*
X204896D01*
X199562D02*
X201086D01*
X217621Y158105D02*
X219526D01*
X215259D02*
X217393D01*
X210154D02*
X213049D01*
X202534D02*
X207030D01*
X199562D02*
X201086D01*
X215335Y158181D02*
X219603D01*
X210154D02*
X213049D01*
X202610D02*
X207106D01*
X199562D02*
X201086D01*
X215335Y158258D02*
X219679D01*
X210230D02*
X212973D01*
X202686D02*
X207106D01*
X199562D02*
X201086D01*
X215412Y158334D02*
X219679D01*
X210230D02*
X212973D01*
X202686D02*
X207182D01*
X199562D02*
X201086D01*
X215412Y158410D02*
X219755D01*
X210230D02*
X212973D01*
X202762D02*
X207258D01*
X199562D02*
X201086D01*
X215488Y158486D02*
X219755D01*
X210306D02*
X212897D01*
X202839D02*
X207258D01*
X199562D02*
X201086D01*
X215564Y158562D02*
X219831D01*
X210306D02*
X212897D01*
X202915D02*
X207334D01*
X199562D02*
X201086D01*
X215640Y158639D02*
X219831D01*
X210306D02*
X212897D01*
X203067D02*
X207334D01*
X199562D02*
X201086D01*
X215716Y158715D02*
X219831D01*
X210382D02*
X212821D01*
X203143D02*
X207258D01*
X199562D02*
X201086D01*
X215793Y158791D02*
X219755D01*
X210382D02*
X212821D01*
X203220D02*
X207182D01*
X199562D02*
X201086D01*
X215869Y158867D02*
X219603D01*
X210459D02*
X212745D01*
X203372D02*
X207106D01*
X199562D02*
X201086D01*
X215945Y158943D02*
X219450D01*
X210459D02*
X212745D01*
X203448D02*
X206953D01*
X199562D02*
X201086D01*
X216097Y159020D02*
X219298D01*
X210459D02*
X212745D01*
X203601D02*
X206877D01*
X199562D02*
X201086D01*
X216250Y159096D02*
X219145D01*
X210535D02*
X212668D01*
X203753D02*
X206725D01*
X199562D02*
X201086D01*
X216402Y159172D02*
X218993D01*
X210535D02*
X212668D01*
X203982D02*
X206572D01*
X199562D02*
X201086D01*
X216555Y159248D02*
X218688D01*
X210535D02*
X212668D01*
X204210D02*
X206344D01*
X199562D02*
X201086D01*
X216859Y159324D02*
X218383D01*
X210611D02*
X212592D01*
X204515D02*
X206039D01*
X199562D02*
X201086D01*
X217545Y159401D02*
X217621D01*
X210611D02*
X212592D01*
X205201D02*
X205429D01*
X199562D02*
X201086D01*
D65*
X234360Y168164D02*
X235122D01*
X234309Y168214D02*
X235122D01*
X234309Y168265D02*
X235071D01*
X234258Y168316D02*
X235071D01*
X234258Y168367D02*
X235020D01*
X234208Y168418D02*
X234970D01*
X234157Y168468D02*
X234970D01*
X234157Y168519D02*
X234919D01*
X234106Y168570D02*
X234919D01*
X234106Y168621D02*
X234868D01*
X234055Y168672D02*
X234868D01*
X234004Y168773D02*
X234766D01*
X234004Y168824D02*
X234766D01*
X233954Y168875D02*
X234716D01*
X233903Y168926D02*
X234716D01*
X233903Y168976D02*
X234665D01*
X233852Y169027D02*
X234665D01*
X233852Y169078D02*
X234614D01*
X233801Y169129D02*
X234563D01*
X232938Y170653D02*
X233700D01*
X232887Y170704D02*
X233700D01*
X232836Y170805D02*
X233649D01*
X232836Y170856D02*
X233598D01*
X232785Y170907D02*
X233547D01*
X232785Y170958D02*
X233547D01*
X232734Y171008D02*
X233496D01*
X232684Y171059D02*
X233496D01*
X232684Y171110D02*
X233446D01*
X232633Y171161D02*
X233446D01*
X232633Y171212D02*
X233395D01*
X232582Y171262D02*
X233344D01*
X232582Y171313D02*
X233344D01*
X232531Y171364D02*
X233293D01*
X232480Y171415D02*
X233293D01*
X232480Y171466D02*
X233242D01*
X232430Y171516D02*
X233242D01*
X232430Y171567D02*
X233192D01*
X232379Y171618D02*
X233192D01*
X232379Y171669D02*
X233141D01*
X232328Y171720D02*
X233090D01*
X232277Y171770D02*
X233090D01*
X232277Y171821D02*
X233039D01*
X232226Y171872D02*
X233039D01*
X232226Y171923D02*
X232988D01*
X232176Y171974D02*
X232988D01*
X232176Y172024D02*
X232938D01*
X232125Y172075D02*
X232887D01*
X232074Y172126D02*
X232887D01*
X232074Y172177D02*
X232836D01*
X232023Y172228D02*
X232836D01*
X232023Y172278D02*
X232785D01*
X231972Y172329D02*
X232785D01*
X231972Y172380D02*
X232734D01*
X231922Y172431D02*
X232684D01*
X231871Y172482D02*
X232684D01*
X231871Y172532D02*
X232633D01*
X231820Y172583D02*
X232633D01*
X231820Y172634D02*
X232582D01*
X231769Y172685D02*
X232582D01*
X231769Y172736D02*
X232531D01*
X230499Y168773D02*
X230601D01*
X230499Y168824D02*
X230601D01*
X230448Y168875D02*
X230601D01*
X230398Y168926D02*
X230652D01*
X230398Y168976D02*
X230652D01*
X230347Y169027D02*
X230702D01*
X230296Y169078D02*
X230702D01*
X230296Y169129D02*
X230702D01*
X230245Y169180D02*
X230753D01*
X230194Y169230D02*
X230753D01*
X230194Y169281D02*
X230753D01*
X230144Y169332D02*
X230804D01*
X230093Y169383D02*
X230804D01*
X230093Y169434D02*
X230855D01*
X230042Y169484D02*
X230855D01*
X230245Y169535D02*
X230855D01*
X230245Y169586D02*
X230652D01*
X230194Y169637D02*
X230601D01*
X230194Y169688D02*
X230601D01*
X230194Y169738D02*
X230601D01*
X230194Y169789D02*
X230550D01*
X230144Y169840D02*
X230550D01*
X230144Y169891D02*
X230550D01*
X230144Y169942D02*
X230550D01*
X230093Y169992D02*
X230499D01*
X230093Y170043D02*
X230499D01*
X230093Y170094D02*
X230499D01*
X230093Y170145D02*
X230499D01*
X230042Y170196D02*
X230448D01*
X230042Y170246D02*
X230448D01*
X230042Y170297D02*
X230448D01*
X230042Y170348D02*
X230448D01*
X229991Y170399D02*
X230398D01*
X231261D02*
X231363D01*
X229991Y170450D02*
X230398D01*
X231109D02*
X231312D01*
X229991Y170500D02*
X230398D01*
X231007D02*
X231312D01*
X229940Y170551D02*
X230347D01*
X230855D02*
X231312D01*
X229940Y170602D02*
X230347D01*
X230753D02*
X231312D01*
X229940Y170653D02*
X230347D01*
X230652D02*
X231261D01*
X229940Y170704D02*
X230347D01*
X230499D02*
X231261D01*
X229890Y170805D02*
X231210D01*
X229890Y170856D02*
X231210D01*
X229890Y170907D02*
X231210D01*
X229839Y170958D02*
X231210D01*
X229839Y171008D02*
X231160D01*
X229839Y171059D02*
X231160D01*
X229788Y171110D02*
X231160D01*
X229788Y171161D02*
X230702D01*
X230804D02*
X231109D01*
X229788Y171212D02*
X230550D01*
X230753D02*
X231109D01*
X229788Y171262D02*
X230448D01*
X230753D02*
X231109D01*
X229737Y171313D02*
X230296D01*
X230702D02*
X231109D01*
X229737Y171364D02*
X230194D01*
X230702D02*
X231058D01*
X229737Y171415D02*
X230042D01*
X230652D02*
X231058D01*
X230652Y171466D02*
X231058D01*
X230601Y171516D02*
X231007D01*
X230601Y171567D02*
X231007D01*
X230601Y171618D02*
X231007D01*
X230550Y171669D02*
X231007D01*
X230550Y171720D02*
X230956D01*
X230499Y171770D02*
X230956D01*
X230499Y171821D02*
X230956D01*
X230448Y171872D02*
X230906D01*
X230448Y171923D02*
X230906D01*
X230398Y171974D02*
X230906D01*
X230398Y172024D02*
X230906D01*
X230398Y172075D02*
X230855D01*
X230347Y172126D02*
X230855D01*
X230347Y172177D02*
X230855D01*
X230296Y172228D02*
X230804D01*
X230296Y172278D02*
X230804D01*
X230245Y172329D02*
X230804D01*
X230245Y172380D02*
X230804D01*
X230194Y172431D02*
X230753D01*
X230194Y172482D02*
X230753D01*
X230144Y172532D02*
X230753D01*
X230144Y172583D02*
X230702D01*
X230144Y172634D02*
X230702D01*
X230093Y172685D02*
X230702D01*
X230093Y172736D02*
X230702D01*
X230042Y172837D02*
X230652D01*
X229991Y172888D02*
X230652D01*
X230906Y174209D02*
X231668D01*
X230855Y174260D02*
X231668D01*
X230855Y174310D02*
X231617D01*
X230804Y174361D02*
X231617D01*
X230804Y174412D02*
X231566D01*
X230753Y174463D02*
X231566D01*
X230753Y174514D02*
X231515D01*
X230702Y174564D02*
X231464D01*
X230652Y174615D02*
X231464D01*
X230652Y174666D02*
X231414D01*
X230601Y174717D02*
X231414D01*
X230601Y174768D02*
X231363D01*
X230550Y174869D02*
X231312D01*
X229737Y174971D02*
X231261D01*
X229737Y175022D02*
X231210D01*
X229788Y175072D02*
X231210D01*
X229839Y175123D02*
X231160D01*
X229839Y175174D02*
X231160D01*
X229890Y175225D02*
X231109D01*
X229890Y175276D02*
X231058D01*
X229940Y175326D02*
X231058D01*
X229940Y175377D02*
X231007D01*
X229991Y175428D02*
X231007D01*
X230042Y175479D02*
X230956D01*
X230042Y175530D02*
X230956D01*
X230093Y175580D02*
X230906D01*
X230093Y175631D02*
X230855D01*
X230144Y175682D02*
X230855D01*
X230144Y175733D02*
X230804D01*
X230194Y175784D02*
X230804D01*
X230194Y175834D02*
X230753D01*
X230245Y175885D02*
X230702D01*
X230347Y175936D02*
X230652D01*
X227705Y171364D02*
X228467D01*
X227756Y171415D02*
X228518D01*
X227756Y171466D02*
X228518D01*
X227807Y171516D02*
X228569D01*
X227807Y171567D02*
X228620D01*
X227858Y171618D02*
X228620D01*
X227858Y171669D02*
X228670D01*
X227908Y171720D02*
X228670D01*
X227959Y171770D02*
X228721D01*
X227959Y171821D02*
X228721D01*
X228010Y171872D02*
X228772D01*
X228010Y171923D02*
X228823D01*
X228061Y171974D02*
X228823D01*
X228061Y172024D02*
X228874D01*
X228112Y172075D02*
X228874D01*
X228112Y172126D02*
X228924D01*
X228162Y172177D02*
X228924D01*
X228213Y172228D02*
X228975D01*
X228213Y172278D02*
X228975D01*
X228264Y172329D02*
X229026D01*
X228264Y172380D02*
X229077D01*
X228315Y172431D02*
X229077D01*
X228315Y172482D02*
X229128D01*
X228366Y172532D02*
X229128D01*
X228416Y172583D02*
X229178D01*
X228416Y172634D02*
X229178D01*
X228467Y172685D02*
X229229D01*
X228467Y172736D02*
X229280D01*
X228518Y172837D02*
X229331D01*
X228569Y172888D02*
X229331D01*
X228569Y172939D02*
X229382D01*
X228620Y172990D02*
X229382D01*
X228670Y173040D02*
X229432D01*
X228670Y173091D02*
X229432D01*
X228721Y173142D02*
X229483D01*
X228721Y173193D02*
X229534D01*
X228772Y173244D02*
X229534D01*
X228772Y173294D02*
X229585D01*
X228823Y173345D02*
X229585D01*
X228823Y173396D02*
X229636D01*
X228874Y173447D02*
X229636D01*
X225927Y168164D02*
X226689D01*
X225927Y168214D02*
X226740D01*
X225978Y168265D02*
X226740D01*
X225978Y168316D02*
X226791D01*
X226029Y168367D02*
X226791D01*
X226029Y168418D02*
X226842D01*
X226080Y168468D02*
X226842D01*
X226130Y168519D02*
X226892D01*
X226130Y168570D02*
X226892D01*
X226181Y168621D02*
X226943D01*
X226181Y168672D02*
X226994D01*
X226232Y168773D02*
X227045D01*
X226283Y168824D02*
X227045D01*
X226334Y168875D02*
X227096D01*
X226334Y168926D02*
X227096D01*
X226384Y168976D02*
X227146D01*
X226384Y169027D02*
X227197D01*
X226435Y169078D02*
X227197D01*
X226435Y169129D02*
X227248D01*
X226486Y169180D02*
X227248D01*
X226486Y169230D02*
X227299D01*
X226537Y169281D02*
X227299D01*
X226588Y169332D02*
X227350D01*
X226588Y169383D02*
X227350D01*
X226638Y169434D02*
X227400D01*
X226638Y169484D02*
X227451D01*
X226689Y169535D02*
X227451D01*
X226689Y169586D02*
X227502D01*
X226740Y169637D02*
X227502D01*
X226791Y169688D02*
X227553D01*
X226791Y169738D02*
X227553D01*
X226842Y169789D02*
X227604D01*
X234055Y168722D02*
X234817D01*
X232887Y170754D02*
X233649D01*
X229890D02*
X231261D01*
X230042Y172786D02*
X230652D01*
X230550Y174818D02*
X231363D01*
X228518Y172786D02*
X229280D01*
X226232Y168722D02*
X226994D01*
X233750Y169180D02*
X234563D01*
X233750Y169230D02*
X234512D01*
X233700Y169281D02*
X234512D01*
X233700Y169332D02*
X234462D01*
X233649Y169383D02*
X234462D01*
X233649Y169434D02*
X234411D01*
X233598Y169484D02*
X234411D01*
X233598Y169535D02*
X234360D01*
X233547Y169586D02*
X234309D01*
X233496Y169637D02*
X234309D01*
X233496Y169688D02*
X234258D01*
X233446Y169738D02*
X234258D01*
X233446Y169789D02*
X234208D01*
X233395Y169840D02*
X234157D01*
X233395Y169891D02*
X234157D01*
X233344Y169942D02*
X234106D01*
X233293Y169992D02*
X234106D01*
X233293Y170043D02*
X234055D01*
X233242Y170094D02*
X234055D01*
X233242Y170145D02*
X234004D01*
X233192Y170196D02*
X233954D01*
X233192Y170246D02*
X233954D01*
X233141Y170297D02*
X233903D01*
X233090Y170348D02*
X233903D01*
X233090Y170399D02*
X233852D01*
X233039Y170450D02*
X233852D01*
X233039Y170500D02*
X233801D01*
X232988Y170551D02*
X233750D01*
X232988Y170602D02*
X233750D01*
X226842Y169840D02*
X227654D01*
X226892Y169891D02*
X227654D01*
X226892Y169942D02*
X227705D01*
X226943Y169992D02*
X227705D01*
X226943Y170043D02*
X227756D01*
X226994Y170094D02*
X227756D01*
X227045Y170145D02*
X227807D01*
X227045Y170196D02*
X227807D01*
X227096Y170246D02*
X227858D01*
X227096Y170297D02*
X227908D01*
X227146Y170348D02*
X227908D01*
X227146Y170399D02*
X227959D01*
X227197Y170450D02*
X227959D01*
X227197Y170500D02*
X228010D01*
X227248Y170551D02*
X228010D01*
X227299Y170602D02*
X228061D01*
X227299Y170653D02*
X228112D01*
X227350Y170704D02*
X228112D01*
X227400Y170805D02*
X228162D01*
X227400Y170856D02*
X228213D01*
X227451Y170907D02*
X228213D01*
X227502Y170958D02*
X228264D01*
X227502Y171008D02*
X228264D01*
X227553Y171059D02*
X228315D01*
X227553Y171110D02*
X228366D01*
X227604Y171161D02*
X228366D01*
X227604Y171212D02*
X228416D01*
X227654Y171262D02*
X228416D01*
X227654Y171313D02*
X228467D01*
X229686Y171466D02*
X229940D01*
X229686Y171516D02*
X229788D01*
X231668Y172837D02*
X232480D01*
X231668Y172888D02*
X232430D01*
X231617Y172939D02*
X232430D01*
X231617Y172990D02*
X232379D01*
X231566Y173040D02*
X232379D01*
X231566Y173091D02*
X232328D01*
X231515Y173142D02*
X232277D01*
X231464Y173193D02*
X232277D01*
X231464Y173244D02*
X232226D01*
X231414Y173294D02*
X232226D01*
X231414Y173345D02*
X232176D01*
X231363Y173396D02*
X232176D01*
X231363Y173447D02*
X232125D01*
X228924Y173498D02*
X229686D01*
X231312D02*
X232074D01*
X228924Y173548D02*
X229686D01*
X231261D02*
X232074D01*
X228975Y173599D02*
X229737D01*
X231261D02*
X232023D01*
X228975Y173650D02*
X229788D01*
X231210D02*
X232023D01*
X229026Y173701D02*
X229788D01*
X231210D02*
X231972D01*
X229026Y173752D02*
X229839D01*
X231160D02*
X231972D01*
X229077Y173802D02*
X229839D01*
X231160D02*
X231922D01*
X229128Y173853D02*
X229890D01*
X231109D02*
X231871D01*
X229128Y173904D02*
X229890D01*
X231058D02*
X231871D01*
X229178Y173955D02*
X229940D01*
X231058D02*
X231820D01*
X229178Y174006D02*
X229991D01*
X231007D02*
X231820D01*
X229229Y174056D02*
X229991D01*
X231007D02*
X231769D01*
X229229Y174107D02*
X230042D01*
X230956D02*
X231769D01*
X229280Y174158D02*
X230042D01*
X230956D02*
X231718D01*
X229280Y174209D02*
X230093D01*
X229331Y174260D02*
X230093D01*
X229382Y174310D02*
X230144D01*
X229382Y174361D02*
X230144D01*
X229432Y174412D02*
X230194D01*
X229432Y174463D02*
X230245D01*
X229483Y174514D02*
X230245D01*
X229483Y174564D02*
X230296D01*
X229534Y174615D02*
X230296D01*
X229585Y174666D02*
X230347D01*
X229585Y174717D02*
X230347D01*
X229636Y174768D02*
X230398D01*
X229686Y174869D02*
X230448D01*
X229686Y174920D02*
X231261D01*
X227350Y170754D02*
X228162D01*
X231718Y172786D02*
X232480D01*
X229636Y174818D02*
X230448D01*
X225978Y167503D02*
X235071D01*
X225876Y167554D02*
X235173D01*
X225826Y167605D02*
X235224D01*
X225775Y167656D02*
X235274D01*
X225775Y167706D02*
X235274D01*
X225775Y167757D02*
X235274D01*
X225775Y167808D02*
X235274D01*
X225775Y167859D02*
X235274D01*
X225775Y167910D02*
X235274D01*
X225775Y167960D02*
X235274D01*
X225826Y168011D02*
X235224D01*
X225876Y168062D02*
X235173D01*
X225876Y168113D02*
X235173D01*
X237408Y247412D02*
X238170D01*
X237357Y247462D02*
X238170D01*
X237357Y247513D02*
X238119D01*
X237306Y247564D02*
X238119D01*
X237306Y247615D02*
X238068D01*
X237256Y247666D02*
X238018D01*
X237205Y247716D02*
X238018D01*
X237205Y247767D02*
X237967D01*
X237154Y247818D02*
X237967D01*
X237154Y247869D02*
X237916D01*
X237103Y247920D02*
X237916D01*
X237052Y248021D02*
X237814D01*
X237052Y248072D02*
X237814D01*
X237002Y248123D02*
X237764D01*
X236951Y248174D02*
X237764D01*
X236951Y248224D02*
X237713D01*
X236900Y248275D02*
X237713D01*
X236900Y248326D02*
X237662D01*
X236849Y248377D02*
X237611D01*
X235986Y249901D02*
X236748D01*
X235935Y249952D02*
X236748D01*
X235884Y250053D02*
X236697D01*
X235884Y250104D02*
X236646D01*
X235833Y250155D02*
X236595D01*
X235833Y250206D02*
X236595D01*
X235782Y250256D02*
X236544D01*
X235732Y250307D02*
X236544D01*
X235732Y250358D02*
X236494D01*
X235681Y250409D02*
X236494D01*
X235681Y250460D02*
X236443D01*
X235630Y250510D02*
X236392D01*
X235630Y250561D02*
X236392D01*
X235579Y250612D02*
X236341D01*
X235528Y250663D02*
X236341D01*
X235528Y250714D02*
X236290D01*
X235478Y250764D02*
X236290D01*
X235478Y250815D02*
X236240D01*
X235427Y250866D02*
X236240D01*
X235427Y250917D02*
X236189D01*
X235376Y250968D02*
X236138D01*
X235325Y251018D02*
X236138D01*
X235325Y251069D02*
X236087D01*
X235274Y251120D02*
X236087D01*
X235274Y251171D02*
X236036D01*
X235224Y251222D02*
X236036D01*
X235224Y251272D02*
X235986D01*
X235173Y251323D02*
X235935D01*
X235122Y251374D02*
X235935D01*
X235122Y251425D02*
X235884D01*
X235071Y251476D02*
X235884D01*
X235071Y251526D02*
X235833D01*
X235020Y251577D02*
X235833D01*
X235020Y251628D02*
X235782D01*
X234970Y251679D02*
X235732D01*
X234919Y251730D02*
X235732D01*
X234919Y251780D02*
X235681D01*
X234868Y251831D02*
X235681D01*
X234868Y251882D02*
X235630D01*
X234817Y251933D02*
X235630D01*
X234817Y251984D02*
X235579D01*
X233547Y248021D02*
X233649D01*
X233547Y248072D02*
X233649D01*
X233496Y248123D02*
X233649D01*
X233446Y248174D02*
X233700D01*
X233446Y248224D02*
X233700D01*
X233395Y248275D02*
X233750D01*
X233344Y248326D02*
X233750D01*
X233344Y248377D02*
X233750D01*
X233293Y248428D02*
X233801D01*
X233242Y248478D02*
X233801D01*
X233242Y248529D02*
X233801D01*
X233192Y248580D02*
X233852D01*
X233141Y248631D02*
X233852D01*
X233141Y248682D02*
X233903D01*
X233090Y248732D02*
X233903D01*
X233293Y248783D02*
X233903D01*
X233293Y248834D02*
X233700D01*
X233242Y248885D02*
X233649D01*
X233242Y248936D02*
X233649D01*
X233242Y248986D02*
X233649D01*
X233242Y249037D02*
X233598D01*
X233192Y249088D02*
X233598D01*
X233192Y249139D02*
X233598D01*
X233192Y249190D02*
X233598D01*
X233141Y249240D02*
X233547D01*
X233141Y249291D02*
X233547D01*
X233141Y249342D02*
X233547D01*
X233141Y249393D02*
X233547D01*
X233090Y249444D02*
X233496D01*
X233090Y249494D02*
X233496D01*
X233090Y249545D02*
X233496D01*
X233090Y249596D02*
X233496D01*
X233039Y249647D02*
X233446D01*
X234309D02*
X234411D01*
X233039Y249698D02*
X233446D01*
X234157D02*
X234360D01*
X233039Y249748D02*
X233446D01*
X234055D02*
X234360D01*
X232988Y249799D02*
X233395D01*
X233903D02*
X234360D01*
X232988Y249850D02*
X233395D01*
X233801D02*
X234360D01*
X232988Y249901D02*
X233395D01*
X233700D02*
X234309D01*
X232988Y249952D02*
X233395D01*
X233547D02*
X234309D01*
X232938Y250053D02*
X234258D01*
X232938Y250104D02*
X234258D01*
X232938Y250155D02*
X234258D01*
X232887Y250206D02*
X234258D01*
X232887Y250256D02*
X234208D01*
X232887Y250307D02*
X234208D01*
X232836Y250358D02*
X234208D01*
X232836Y250409D02*
X233750D01*
X233852D02*
X234157D01*
X232836Y250460D02*
X233598D01*
X233801D02*
X234157D01*
X232836Y250510D02*
X233496D01*
X233801D02*
X234157D01*
X232785Y250561D02*
X233344D01*
X233750D02*
X234157D01*
X232785Y250612D02*
X233242D01*
X233750D02*
X234106D01*
X232785Y250663D02*
X233090D01*
X233700D02*
X234106D01*
X233700Y250714D02*
X234106D01*
X233649Y250764D02*
X234055D01*
X233649Y250815D02*
X234055D01*
X233649Y250866D02*
X234055D01*
X233598Y250917D02*
X234055D01*
X233598Y250968D02*
X234004D01*
X233547Y251018D02*
X234004D01*
X233547Y251069D02*
X234004D01*
X233496Y251120D02*
X233954D01*
X233496Y251171D02*
X233954D01*
X233446Y251222D02*
X233954D01*
X233446Y251272D02*
X233954D01*
X233446Y251323D02*
X233903D01*
X233395Y251374D02*
X233903D01*
X233395Y251425D02*
X233903D01*
X233344Y251476D02*
X233852D01*
X233344Y251526D02*
X233852D01*
X233293Y251577D02*
X233852D01*
X233293Y251628D02*
X233852D01*
X233242Y251679D02*
X233801D01*
X233242Y251730D02*
X233801D01*
X233192Y251780D02*
X233801D01*
X233192Y251831D02*
X233750D01*
X233192Y251882D02*
X233750D01*
X233141Y251933D02*
X233750D01*
X233141Y251984D02*
X233750D01*
X233090Y252085D02*
X233700D01*
X233039Y252136D02*
X233700D01*
X233954Y253457D02*
X234716D01*
X233903Y253508D02*
X234716D01*
X233903Y253558D02*
X234665D01*
X233852Y253609D02*
X234665D01*
X233852Y253660D02*
X234614D01*
X233801Y253711D02*
X234614D01*
X233801Y253762D02*
X234563D01*
X233750Y253812D02*
X234512D01*
X233700Y253863D02*
X234512D01*
X233700Y253914D02*
X234462D01*
X233649Y253965D02*
X234462D01*
X233649Y254016D02*
X234411D01*
X233598Y254117D02*
X234360D01*
X232785Y254219D02*
X234309D01*
X232785Y254270D02*
X234258D01*
X232836Y254320D02*
X234258D01*
X232887Y254371D02*
X234208D01*
X232887Y254422D02*
X234208D01*
X232938Y254473D02*
X234157D01*
X232938Y254524D02*
X234106D01*
X232988Y254574D02*
X234106D01*
X232988Y254625D02*
X234055D01*
X233039Y254676D02*
X234055D01*
X233090Y254727D02*
X234004D01*
X233090Y254778D02*
X234004D01*
X233141Y254828D02*
X233954D01*
X233141Y254879D02*
X233903D01*
X233192Y254930D02*
X233903D01*
X233192Y254981D02*
X233852D01*
X233242Y255032D02*
X233852D01*
X233242Y255082D02*
X233801D01*
X233293Y255133D02*
X233750D01*
X233395Y255184D02*
X233700D01*
X230753Y250612D02*
X231515D01*
X230804Y250663D02*
X231566D01*
X230804Y250714D02*
X231566D01*
X230855Y250764D02*
X231617D01*
X230855Y250815D02*
X231668D01*
X230906Y250866D02*
X231668D01*
X230906Y250917D02*
X231718D01*
X230956Y250968D02*
X231718D01*
X231007Y251018D02*
X231769D01*
X231007Y251069D02*
X231769D01*
X231058Y251120D02*
X231820D01*
X231058Y251171D02*
X231871D01*
X231109Y251222D02*
X231871D01*
X231109Y251272D02*
X231922D01*
X231160Y251323D02*
X231922D01*
X231160Y251374D02*
X231972D01*
X231210Y251425D02*
X231972D01*
X231261Y251476D02*
X232023D01*
X231261Y251526D02*
X232023D01*
X231312Y251577D02*
X232074D01*
X231312Y251628D02*
X232125D01*
X231363Y251679D02*
X232125D01*
X231363Y251730D02*
X232176D01*
X231414Y251780D02*
X232176D01*
X231464Y251831D02*
X232226D01*
X231464Y251882D02*
X232226D01*
X231515Y251933D02*
X232277D01*
X231515Y251984D02*
X232328D01*
X231566Y252085D02*
X232379D01*
X231617Y252136D02*
X232379D01*
X231617Y252187D02*
X232430D01*
X231668Y252238D02*
X232430D01*
X231718Y252288D02*
X232480D01*
X231718Y252339D02*
X232480D01*
X231769Y252390D02*
X232531D01*
X231769Y252441D02*
X232582D01*
X231820Y252492D02*
X232582D01*
X231820Y252542D02*
X232633D01*
X231871Y252593D02*
X232633D01*
X231871Y252644D02*
X232684D01*
X231922Y252695D02*
X232684D01*
X228975Y247412D02*
X229737D01*
X228975Y247462D02*
X229788D01*
X229026Y247513D02*
X229788D01*
X229026Y247564D02*
X229839D01*
X229077Y247615D02*
X229839D01*
X229077Y247666D02*
X229890D01*
X229128Y247716D02*
X229890D01*
X229178Y247767D02*
X229940D01*
X229178Y247818D02*
X229940D01*
X229229Y247869D02*
X229991D01*
X229229Y247920D02*
X230042D01*
X229280Y248021D02*
X230093D01*
X229331Y248072D02*
X230093D01*
X229382Y248123D02*
X230144D01*
X229382Y248174D02*
X230144D01*
X229432Y248224D02*
X230194D01*
X229432Y248275D02*
X230245D01*
X229483Y248326D02*
X230245D01*
X229483Y248377D02*
X230296D01*
X229534Y248428D02*
X230296D01*
X229534Y248478D02*
X230347D01*
X229585Y248529D02*
X230347D01*
X229636Y248580D02*
X230398D01*
X229636Y248631D02*
X230398D01*
X229686Y248682D02*
X230448D01*
X229686Y248732D02*
X230499D01*
X229737Y248783D02*
X230499D01*
X229737Y248834D02*
X230550D01*
X229788Y248885D02*
X230550D01*
X229839Y248936D02*
X230601D01*
X229839Y248986D02*
X230601D01*
X229890Y249037D02*
X230652D01*
X237103Y247970D02*
X237865D01*
X235935Y250002D02*
X236697D01*
X232938D02*
X234309D01*
X233090Y252034D02*
X233700D01*
X233598Y254066D02*
X234411D01*
X231566Y252034D02*
X232328D01*
X229280Y247970D02*
X230042D01*
X236798Y248428D02*
X237611D01*
X236798Y248478D02*
X237560D01*
X236748Y248529D02*
X237560D01*
X236748Y248580D02*
X237510D01*
X236697Y248631D02*
X237510D01*
X236697Y248682D02*
X237459D01*
X236646Y248732D02*
X237459D01*
X236646Y248783D02*
X237408D01*
X236595Y248834D02*
X237357D01*
X236544Y248885D02*
X237357D01*
X236544Y248936D02*
X237306D01*
X236494Y248986D02*
X237306D01*
X236494Y249037D02*
X237256D01*
X236443Y249088D02*
X237205D01*
X236443Y249139D02*
X237205D01*
X236392Y249190D02*
X237154D01*
X236341Y249240D02*
X237154D01*
X236341Y249291D02*
X237103D01*
X236290Y249342D02*
X237103D01*
X236290Y249393D02*
X237052D01*
X236240Y249444D02*
X237002D01*
X236240Y249494D02*
X237002D01*
X236189Y249545D02*
X236951D01*
X236138Y249596D02*
X236951D01*
X236138Y249647D02*
X236900D01*
X236087Y249698D02*
X236900D01*
X236087Y249748D02*
X236849D01*
X236036Y249799D02*
X236798D01*
X236036Y249850D02*
X236798D01*
X229890Y249088D02*
X230702D01*
X229940Y249139D02*
X230702D01*
X229940Y249190D02*
X230753D01*
X229991Y249240D02*
X230753D01*
X229991Y249291D02*
X230804D01*
X230042Y249342D02*
X230804D01*
X230093Y249393D02*
X230855D01*
X230093Y249444D02*
X230855D01*
X230144Y249494D02*
X230906D01*
X230144Y249545D02*
X230956D01*
X230194Y249596D02*
X230956D01*
X230194Y249647D02*
X231007D01*
X230245Y249698D02*
X231007D01*
X230245Y249748D02*
X231058D01*
X230296Y249799D02*
X231058D01*
X230347Y249850D02*
X231109D01*
X230347Y249901D02*
X231160D01*
X230398Y249952D02*
X231160D01*
X230448Y250053D02*
X231210D01*
X230448Y250104D02*
X231261D01*
X230499Y250155D02*
X231261D01*
X230550Y250206D02*
X231312D01*
X230550Y250256D02*
X231312D01*
X230601Y250307D02*
X231363D01*
X230601Y250358D02*
X231414D01*
X230652Y250409D02*
X231414D01*
X230652Y250460D02*
X231464D01*
X230702Y250510D02*
X231464D01*
X230702Y250561D02*
X231515D01*
X232734Y250714D02*
X232988D01*
X232734Y250764D02*
X232836D01*
X234716Y252085D02*
X235528D01*
X234716Y252136D02*
X235478D01*
X234665Y252187D02*
X235478D01*
X234665Y252238D02*
X235427D01*
X234614Y252288D02*
X235427D01*
X234614Y252339D02*
X235376D01*
X234563Y252390D02*
X235325D01*
X234512Y252441D02*
X235325D01*
X234512Y252492D02*
X235274D01*
X234462Y252542D02*
X235274D01*
X234462Y252593D02*
X235224D01*
X234411Y252644D02*
X235224D01*
X234411Y252695D02*
X235173D01*
X231972Y252746D02*
X232734D01*
X234360D02*
X235122D01*
X231972Y252796D02*
X232734D01*
X234309D02*
X235122D01*
X232023Y252847D02*
X232785D01*
X234309D02*
X235071D01*
X232023Y252898D02*
X232836D01*
X234258D02*
X235071D01*
X232074Y252949D02*
X232836D01*
X234258D02*
X235020D01*
X232074Y253000D02*
X232887D01*
X234208D02*
X235020D01*
X232125Y253050D02*
X232887D01*
X234208D02*
X234970D01*
X232176Y253101D02*
X232938D01*
X234157D02*
X234919D01*
X232176Y253152D02*
X232938D01*
X234106D02*
X234919D01*
X232226Y253203D02*
X232988D01*
X234106D02*
X234868D01*
X232226Y253254D02*
X233039D01*
X234055D02*
X234868D01*
X232277Y253304D02*
X233039D01*
X234055D02*
X234817D01*
X232277Y253355D02*
X233090D01*
X234004D02*
X234817D01*
X232328Y253406D02*
X233090D01*
X234004D02*
X234766D01*
X232328Y253457D02*
X233141D01*
X232379Y253508D02*
X233141D01*
X232430Y253558D02*
X233192D01*
X232430Y253609D02*
X233192D01*
X232480Y253660D02*
X233242D01*
X232480Y253711D02*
X233293D01*
X232531Y253762D02*
X233293D01*
X232531Y253812D02*
X233344D01*
X232582Y253863D02*
X233344D01*
X232633Y253914D02*
X233395D01*
X232633Y253965D02*
X233395D01*
X232684Y254016D02*
X233446D01*
X232734Y254117D02*
X233496D01*
X232734Y254168D02*
X234309D01*
X230398Y250002D02*
X231210D01*
X234766Y252034D02*
X235528D01*
X232684Y254066D02*
X233496D01*
X229026Y246751D02*
X238119D01*
X228924Y246802D02*
X238221D01*
X228874Y246853D02*
X238272D01*
X228823Y246904D02*
X238322D01*
X228823Y246954D02*
X238322D01*
X228823Y247005D02*
X238322D01*
X228823Y247056D02*
X238322D01*
X228823Y247107D02*
X238322D01*
X228823Y247158D02*
X238322D01*
X228823Y247208D02*
X238322D01*
X228874Y247259D02*
X238272D01*
X228924Y247310D02*
X238221D01*
X228924Y247361D02*
X238221D01*
D66*
X271774Y260352D02*
Y259553D01*
X272307D01*
X273107Y260219D02*
X272974Y260352D01*
X272707D01*
X272574Y260219D01*
Y259686D01*
X272707Y259553D01*
X272974D01*
X273107Y259686D01*
Y259953D01*
X272840D01*
X273907Y260352D02*
X273374D01*
Y259953D01*
X273640Y260086D01*
X273773D01*
X273907Y259953D01*
Y259686D01*
X273773Y259553D01*
X273507D01*
X273374Y259686D01*
X275914Y260683D02*
Y259883D01*
X276448D01*
X277247Y260549D02*
X277114Y260683D01*
X276847D01*
X276714Y260549D01*
Y260016D01*
X276847Y259883D01*
X277114D01*
X277247Y260016D01*
Y260283D01*
X276981D01*
X277914Y259883D02*
Y260683D01*
X277514Y260283D01*
X278047D01*
X281375Y260683D02*
Y259883D01*
X281909D01*
X282708Y260549D02*
X282575Y260683D01*
X282308D01*
X282175Y260549D01*
Y260016D01*
X282308Y259883D01*
X282575D01*
X282708Y260016D01*
Y260283D01*
X282442D01*
X282975Y260549D02*
X283108Y260683D01*
X283375D01*
X283508Y260549D01*
Y260416D01*
X283375Y260283D01*
X283241D01*
X283375D01*
X283508Y260150D01*
Y260016D01*
X283375Y259883D01*
X283108D01*
X282975Y260016D01*
X286887Y260683D02*
Y259883D01*
X287420D01*
X288220Y260549D02*
X288087Y260683D01*
X287820D01*
X287687Y260549D01*
Y260016D01*
X287820Y259883D01*
X288087D01*
X288220Y260016D01*
Y260283D01*
X287953D01*
X289020Y259883D02*
X288487D01*
X289020Y260416D01*
Y260549D01*
X288887Y260683D01*
X288620D01*
X288487Y260549D01*
X292983Y260987D02*
Y260188D01*
X293516D01*
X294316Y260854D02*
X294183Y260987D01*
X293916D01*
X293783Y260854D01*
Y260321D01*
X293916Y260188D01*
X294183D01*
X294316Y260321D01*
Y260588D01*
X294049D01*
X294583Y260188D02*
X294849D01*
X294716D01*
Y260987D01*
X294583Y260854D01*
X271266Y244350D02*
Y243551D01*
X271799D01*
X272599Y244350D02*
X272066D01*
Y243551D01*
X272599D01*
X272066Y243951D02*
X272332D01*
X272866Y244350D02*
Y243551D01*
X273266D01*
X273399Y243684D01*
Y244217D01*
X273266Y244350D01*
X272866D01*
X273665Y243551D02*
X273932D01*
X273799D01*
Y244350D01*
X273665Y244217D01*
X274332D02*
X274465Y244350D01*
X274732D01*
X274865Y244217D01*
Y243684D01*
X274732Y243551D01*
X274465D01*
X274332Y243684D01*
Y244217D01*
X282188Y244223D02*
Y243424D01*
X282721D01*
X283521Y244223D02*
X282988D01*
Y243424D01*
X283521D01*
X282988Y243824D02*
X283254D01*
X283788Y244223D02*
Y243424D01*
X284188D01*
X284321Y243557D01*
Y244090D01*
X284188Y244223D01*
X283788D01*
X284587Y243557D02*
X284721Y243424D01*
X284987D01*
X285121Y243557D01*
Y244090D01*
X284987Y244223D01*
X284721D01*
X284587Y244090D01*
Y243957D01*
X284721Y243824D01*
X285121D01*
X271266Y248922D02*
Y248123D01*
X271799D01*
X272599Y248922D02*
X272066D01*
Y248123D01*
X272599D01*
X272066Y248523D02*
X272332D01*
X272866Y248922D02*
Y248123D01*
X273266D01*
X273399Y248256D01*
Y248789D01*
X273266Y248922D01*
X272866D01*
X273665Y248789D02*
X273799Y248922D01*
X274065D01*
X274199Y248789D01*
Y248656D01*
X274065Y248523D01*
X274199Y248389D01*
Y248256D01*
X274065Y248123D01*
X273799D01*
X273665Y248256D01*
Y248389D01*
X273799Y248523D01*
X273665Y248656D01*
Y248789D01*
X273799Y248523D02*
X274065D01*
X282188Y248795D02*
Y247996D01*
X282721D01*
X283521Y248795D02*
X282988D01*
Y247996D01*
X283521D01*
X282988Y248396D02*
X283254D01*
X283788Y248795D02*
Y247996D01*
X284188D01*
X284321Y248129D01*
Y248662D01*
X284188Y248795D01*
X283788D01*
X284587D02*
X285121D01*
Y248662D01*
X284587Y248129D01*
Y247996D01*
X276727Y244350D02*
Y243551D01*
X277260D01*
X278060Y244350D02*
X277527D01*
Y243551D01*
X278060D01*
X277527Y243951D02*
X277793D01*
X278327Y244350D02*
Y243551D01*
X278727D01*
X278860Y243684D01*
Y244217D01*
X278727Y244350D01*
X278327D01*
X279660D02*
X279393Y244217D01*
X279126Y243951D01*
Y243684D01*
X279260Y243551D01*
X279526D01*
X279660Y243684D01*
Y243817D01*
X279526Y243951D01*
X279126D01*
X287649Y244350D02*
Y243551D01*
X288182D01*
X288982Y244350D02*
X288449D01*
Y243551D01*
X288982D01*
X288449Y243951D02*
X288715D01*
X289249Y244350D02*
Y243551D01*
X289648D01*
X289782Y243684D01*
Y244217D01*
X289648Y244350D01*
X289249D01*
X290582D02*
X290048D01*
Y243951D01*
X290315Y244084D01*
X290448D01*
X290582Y243951D01*
Y243684D01*
X290448Y243551D01*
X290182D01*
X290048Y243684D01*
X287649Y248795D02*
Y247996D01*
X288182D01*
X288982Y248795D02*
X288449D01*
Y247996D01*
X288982D01*
X288449Y248396D02*
X288715D01*
X289249Y248795D02*
Y247996D01*
X289648D01*
X289782Y248129D01*
Y248662D01*
X289648Y248795D01*
X289249D01*
X290448Y247996D02*
Y248795D01*
X290048Y248396D01*
X290582D01*
X276600Y248795D02*
Y247996D01*
X277133D01*
X277933Y248795D02*
X277400D01*
Y247996D01*
X277933D01*
X277400Y248396D02*
X277666D01*
X278200Y248795D02*
Y247996D01*
X278599D01*
X278733Y248129D01*
Y248662D01*
X278599Y248795D01*
X278200D01*
X278999Y248662D02*
X279133Y248795D01*
X279399D01*
X279533Y248662D01*
Y248529D01*
X279399Y248396D01*
X279266D01*
X279399D01*
X279533Y248262D01*
Y248129D01*
X279399Y247996D01*
X279133D01*
X278999Y248129D01*
X293237Y244223D02*
Y243424D01*
X293770D01*
X294570Y244223D02*
X294037D01*
Y243424D01*
X294570D01*
X294037Y243824D02*
X294303D01*
X294837Y244223D02*
Y243424D01*
X295237D01*
X295370Y243557D01*
Y244090D01*
X295237Y244223D01*
X294837D01*
X296170Y243424D02*
X295636D01*
X296170Y243957D01*
Y244090D01*
X296036Y244223D01*
X295770D01*
X295636Y244090D01*
X293364Y248668D02*
Y247869D01*
X293897D01*
X294697Y248668D02*
X294164D01*
Y247869D01*
X294697D01*
X294164Y248269D02*
X294430D01*
X294964Y248668D02*
Y247869D01*
X295363D01*
X295497Y248002D01*
Y248535D01*
X295363Y248668D01*
X294964D01*
X295763Y247869D02*
X296030D01*
X295897D01*
Y248668D01*
X295763Y248535D01*
X298246Y155698D02*
X298079Y155532D01*
Y155198D01*
X298246Y155032D01*
X298913D01*
X299079Y155198D01*
Y155532D01*
X298913Y155698D01*
X298246Y156031D02*
X298079Y156198D01*
Y156531D01*
X298246Y156698D01*
X298413D01*
X298579Y156531D01*
Y156365D01*
Y156531D01*
X298746Y156698D01*
X298913D01*
X299079Y156531D01*
Y156198D01*
X298913Y156031D01*
X247930Y152690D02*
X247763Y152856D01*
X247430D01*
X247263Y152690D01*
Y152023D01*
X247430Y151857D01*
X247763D01*
X247930Y152023D01*
X248263D02*
X248429Y151857D01*
X248763D01*
X248929Y152023D01*
Y152690D01*
X248763Y152856D01*
X248429D01*
X248263Y152690D01*
Y152523D01*
X248429Y152357D01*
X248929D01*
X261924Y155952D02*
X261757Y155786D01*
Y155452D01*
X261924Y155286D01*
X262591D01*
X262757Y155452D01*
Y155786D01*
X262591Y155952D01*
X262757Y156952D02*
Y156285D01*
X262091Y156952D01*
X261924D01*
X261757Y156785D01*
Y156452D01*
X261924Y156285D01*
X304540Y191227D02*
Y192226D01*
X305040D01*
X305207Y192060D01*
Y191727D01*
X305040Y191560D01*
X304540D01*
X305540Y192060D02*
X305706Y192226D01*
X306040D01*
X306206Y192060D01*
Y191893D01*
X306040Y191727D01*
X305873D01*
X306040D01*
X306206Y191560D01*
Y191393D01*
X306040Y191227D01*
X305706D01*
X305540Y191393D01*
X280410Y173066D02*
X279410D01*
Y173566D01*
X279577Y173732D01*
X279910D01*
X280077Y173566D01*
Y173066D01*
X279410Y174065D02*
X280410D01*
Y174732D01*
X279577Y175065D02*
X279410Y175232D01*
Y175565D01*
X279577Y175732D01*
X279744D01*
X279910Y175565D01*
Y175398D01*
Y175565D01*
X280077Y175732D01*
X280244D01*
X280410Y175565D01*
Y175232D01*
X280244Y175065D01*
X243154Y239140D02*
X242488D01*
Y238640D01*
X242821D01*
X242488D01*
Y238141D01*
X243987D02*
Y239140D01*
X243488Y238640D01*
X244154D01*
X242519Y207390D02*
X241853D01*
Y206890D01*
X242186D01*
X241853D01*
Y206391D01*
X243519Y207390D02*
X242853D01*
Y206890D01*
X243186Y207057D01*
X243352D01*
X243519Y206890D01*
Y206557D01*
X243352Y206391D01*
X243019D01*
X242853Y206557D01*
X258013Y239140D02*
X257347D01*
Y238640D01*
X257680D01*
X257347D01*
Y238141D01*
X259013Y239140D02*
X258680Y238974D01*
X258347Y238640D01*
Y238307D01*
X258513Y238141D01*
X258846D01*
X259013Y238307D01*
Y238474D01*
X258846Y238640D01*
X258347D01*
X198076Y239216D02*
X197410D01*
Y238717D01*
X197743D01*
X197410D01*
Y238217D01*
X198410Y239216D02*
X199076D01*
Y239050D01*
X198410Y238383D01*
Y238217D01*
X212674Y228853D02*
X212008D01*
Y228353D01*
X212341D01*
X212008D01*
Y227854D01*
X213008Y228687D02*
X213174Y228853D01*
X213507D01*
X213674Y228687D01*
Y228520D01*
X213507Y228353D01*
X213674Y228187D01*
Y228020D01*
X213507Y227854D01*
X213174D01*
X213008Y228020D01*
Y228187D01*
X213174Y228353D01*
X213008Y228520D01*
Y228687D01*
X213174Y228353D02*
X213507D01*
X228549Y239140D02*
X227883D01*
Y238640D01*
X228216D01*
X227883D01*
Y238141D01*
X228883Y238307D02*
X229049Y238141D01*
X229382D01*
X229549Y238307D01*
Y238974D01*
X229382Y239140D01*
X229049D01*
X228883Y238974D01*
Y238807D01*
X229049Y238640D01*
X229549D01*
X209687Y172970D02*
Y172304D01*
X210187D01*
Y172637D01*
Y172304D01*
X210687D01*
Y173303D02*
Y173637D01*
Y173470D01*
X209687D01*
X209854Y173303D01*
Y174136D02*
X209687Y174303D01*
Y174636D01*
X209854Y174803D01*
X210521D01*
X210687Y174636D01*
Y174303D01*
X210521Y174136D01*
X209854D01*
X238881Y159714D02*
Y158881D01*
X239048Y158715D01*
X239381D01*
X239548Y158881D01*
Y159714D01*
X240547Y158715D02*
X239881D01*
X240547Y159381D01*
Y159548D01*
X240381Y159714D01*
X240047D01*
X239881Y159548D01*
X253248Y148555D02*
Y149221D01*
Y148888D01*
X254248D01*
X253248Y149554D02*
X253915D01*
X254248Y149888D01*
X253915Y150221D01*
X253248D01*
X253415Y151221D02*
X253248Y151054D01*
Y150721D01*
X253415Y150554D01*
X253582D01*
X253748Y150721D01*
Y151054D01*
X253915Y151221D01*
X254082D01*
X254248Y151054D01*
Y150721D01*
X254082Y150554D01*
X254248Y151554D02*
Y151887D01*
Y151720D01*
X253248D01*
X253415Y151554D01*
X291221Y175383D02*
Y174717D01*
X291721D01*
Y175050D01*
Y174717D01*
X292221D01*
Y176383D02*
Y175716D01*
X291555Y176383D01*
X291388D01*
X291221Y176216D01*
Y175883D01*
X291388Y175716D01*
X299476Y175510D02*
Y174844D01*
X299976D01*
Y175177D01*
Y174844D01*
X300476D01*
Y175843D02*
Y176177D01*
Y176010D01*
X299476D01*
X299643Y175843D01*
X296174Y167478D02*
X297174D01*
Y167978D01*
X297008Y168144D01*
X296341D01*
X296174Y167978D01*
Y167478D01*
X297174Y168477D02*
Y168811D01*
Y168644D01*
X296174D01*
X296341Y168477D01*
X297174Y169977D02*
Y169310D01*
X296508Y169977D01*
X296341D01*
X296174Y169810D01*
Y169477D01*
X296341Y169310D01*
X197860Y185749D02*
Y184750D01*
X198360D01*
X198527Y184916D01*
Y185583D01*
X198360Y185749D01*
X197860D01*
X198860Y184750D02*
X199193D01*
X199026D01*
Y185416D01*
X198860D01*
X199693Y184417D02*
Y185416D01*
X200193D01*
X200359Y185250D01*
Y184916D01*
X200193Y184750D01*
X199693D01*
X200693D02*
X201026D01*
X200859D01*
Y185749D01*
X200693Y185583D01*
X277362Y160112D02*
Y161111D01*
X277862D01*
X278029Y160945D01*
Y160612D01*
X277862Y160445D01*
X277362D01*
X277695D02*
X278029Y160112D01*
X279028Y161111D02*
X278362D01*
Y160612D01*
X278695Y160778D01*
X278862D01*
X279028Y160612D01*
Y160278D01*
X278862Y160112D01*
X278528D01*
X278362Y160278D01*
X230118Y256251D02*
Y257250D01*
X230618D01*
X230785Y257084D01*
Y256751D01*
X230618Y256584D01*
X230118D01*
X231784Y256251D02*
X231118D01*
X231784Y256917D01*
Y257084D01*
X231618Y257250D01*
X231284D01*
X231118Y257084D01*
X276854Y185385D02*
Y186051D01*
X277187Y186384D01*
X277521Y186051D01*
Y185385D01*
Y185885D01*
X276854D01*
X278020Y186218D02*
Y186051D01*
X277854D01*
X278187D01*
X278020D01*
Y185551D01*
X278187Y185385D01*
X278687D02*
Y186051D01*
X278853D01*
X279020Y185885D01*
Y185385D01*
Y185885D01*
X279187Y186051D01*
X279353Y185885D01*
Y185385D01*
X279687D02*
X280020D01*
X279853D01*
Y186384D01*
X279687Y186218D01*
X300659Y200656D02*
X300492Y200490D01*
Y200156D01*
X300659Y199990D01*
X301326D01*
X301492Y200156D01*
Y200490D01*
X301326Y200656D01*
X301492Y200989D02*
Y201323D01*
Y201156D01*
X300492D01*
X300659Y200989D01*
X289610Y185162D02*
X289443Y184996D01*
Y184662D01*
X289610Y184496D01*
X290277D01*
X290443Y184662D01*
Y184996D01*
X290277Y185162D01*
X290443Y185995D02*
X289443D01*
X289943Y185495D01*
Y186162D01*
X282371Y192655D02*
X282204Y192489D01*
Y192155D01*
X282371Y191989D01*
X283038D01*
X283204Y192155D01*
Y192489D01*
X283038Y192655D01*
X282204Y193655D02*
Y192988D01*
X282704D01*
X282538Y193322D01*
Y193488D01*
X282704Y193655D01*
X283038D01*
X283204Y193488D01*
Y193155D01*
X283038Y192988D01*
X270433Y193290D02*
X270266Y193124D01*
Y192790D01*
X270433Y192624D01*
X271100D01*
X271266Y192790D01*
Y193124D01*
X271100Y193290D01*
X270266Y194290D02*
X270433Y193957D01*
X270766Y193623D01*
X271100D01*
X271266Y193790D01*
Y194123D01*
X271100Y194290D01*
X270933D01*
X270766Y194123D01*
Y193623D01*
X280442Y153579D02*
X280275Y153745D01*
X279942D01*
X279775Y153579D01*
Y152912D01*
X279942Y152746D01*
X280275D01*
X280442Y152912D01*
X280775Y153745D02*
X281441D01*
Y153579D01*
X280775Y152912D01*
Y152746D01*
X293293Y163191D02*
X293126Y163025D01*
Y162691D01*
X293293Y162525D01*
X293960D01*
X294126Y162691D01*
Y163025D01*
X293960Y163191D01*
X293293Y163524D02*
X293126Y163691D01*
Y164024D01*
X293293Y164191D01*
X293460D01*
X293626Y164024D01*
X293793Y164191D01*
X293960D01*
X294126Y164024D01*
Y163691D01*
X293960Y163524D01*
X293793D01*
X293626Y163691D01*
X293460Y163524D01*
X293293D01*
X293626Y163691D02*
Y164024D01*
X293674Y151507D02*
X293507Y151341D01*
Y151007D01*
X293674Y150841D01*
X294341D01*
X294507Y151007D01*
Y151341D01*
X294341Y151507D01*
X294507Y151840D02*
Y152174D01*
Y152007D01*
X293507D01*
X293674Y151840D01*
Y152673D02*
X293507Y152840D01*
Y153173D01*
X293674Y153340D01*
X294341D01*
X294507Y153173D01*
Y152840D01*
X294341Y152673D01*
X293674D01*
X279450Y165858D02*
X279283Y165692D01*
Y165358D01*
X279450Y165192D01*
X280117D01*
X280283Y165358D01*
Y165692D01*
X280117Y165858D01*
X280283Y166191D02*
Y166525D01*
Y166358D01*
X279283D01*
X279450Y166191D01*
X280283Y167024D02*
Y167358D01*
Y167191D01*
X279283D01*
X279450Y167024D01*
X285109Y148919D02*
Y147920D01*
X285609D01*
X285776Y148086D01*
Y148753D01*
X285609Y148919D01*
X285109D01*
X286109Y147920D02*
X286442D01*
X286275D01*
Y148919D01*
X286109Y148753D01*
X302778Y149317D02*
X303778D01*
Y149817D01*
X303612Y149983D01*
X302945D01*
X302778Y149817D01*
Y149317D01*
X303778Y150983D02*
Y150316D01*
X303112Y150983D01*
X302945D01*
X302778Y150816D01*
Y150483D01*
X302945Y150316D01*
X282442Y215721D02*
Y214722D01*
X282942D01*
X283109Y214888D01*
Y215555D01*
X282942Y215721D01*
X282442D01*
X283442Y215555D02*
X283608Y215721D01*
X283942D01*
X284108Y215555D01*
Y215388D01*
X283942Y215222D01*
X283775D01*
X283942D01*
X284108Y215055D01*
Y214888D01*
X283942Y214722D01*
X283608D01*
X283442Y214888D01*
X270377Y153872D02*
Y152873D01*
X271044D01*
X271377D02*
X271710D01*
X271543D01*
Y153872D01*
X271377Y153706D01*
X300349Y205832D02*
Y206831D01*
X300849D01*
X301016Y206665D01*
Y206332D01*
X300849Y206165D01*
X300349D01*
X300682D02*
X301016Y205832D01*
X301349D02*
X301682D01*
X301515D01*
Y206831D01*
X301349Y206665D01*
X256915Y153127D02*
X255915D01*
Y153627D01*
X256082Y153793D01*
X256415D01*
X256582Y153627D01*
Y153127D01*
Y153460D02*
X256915Y153793D01*
Y154793D02*
Y154126D01*
X256249Y154793D01*
X256082D01*
X255915Y154626D01*
Y154293D01*
X256082Y154126D01*
X288919Y184242D02*
X287919D01*
Y184742D01*
X288086Y184908D01*
X288419D01*
X288586Y184742D01*
Y184242D01*
Y184575D02*
X288919Y184908D01*
X287919Y185908D02*
X288086Y185575D01*
X288419Y185241D01*
X288753D01*
X288919Y185408D01*
Y185741D01*
X288753Y185908D01*
X288586D01*
X288419Y185741D01*
Y185241D01*
X296412Y254727D02*
X295412D01*
Y255227D01*
X295579Y255393D01*
X295912D01*
X296079Y255227D01*
Y254727D01*
Y255060D02*
X296412Y255393D01*
X295412Y255726D02*
Y256393D01*
X295579D01*
X296246Y255726D01*
X296412D01*
X294761Y238471D02*
X293761D01*
Y238971D01*
X293928Y239137D01*
X294261D01*
X294428Y238971D01*
Y238471D01*
Y238804D02*
X294761Y239137D01*
X293928Y239470D02*
X293761Y239637D01*
Y239970D01*
X293928Y240137D01*
X294095D01*
X294261Y239970D01*
X294428Y240137D01*
X294595D01*
X294761Y239970D01*
Y239637D01*
X294595Y239470D01*
X294428D01*
X294261Y239637D01*
X294095Y239470D01*
X293928D01*
X294261Y239637D02*
Y239970D01*
X294507Y155540D02*
X293507D01*
Y156040D01*
X293674Y156206D01*
X294007D01*
X294174Y156040D01*
Y155540D01*
Y155873D02*
X294507Y156206D01*
Y156539D02*
Y156873D01*
Y156706D01*
X293507D01*
X293674Y156539D01*
Y157372D02*
X293507Y157539D01*
Y157872D01*
X293674Y158039D01*
X294341D01*
X294507Y157872D01*
Y157539D01*
X294341Y157372D01*
X293674D01*
X294380Y254727D02*
X293380D01*
Y255227D01*
X293547Y255393D01*
X293880D01*
X294047Y255227D01*
Y254727D01*
Y255060D02*
X294380Y255393D01*
Y255726D02*
Y256060D01*
Y255893D01*
X293380D01*
X293547Y255726D01*
X294380Y256559D02*
Y256893D01*
Y256726D01*
X293380D01*
X293547Y256559D01*
X256915Y161890D02*
X255915D01*
Y162390D01*
X256082Y162556D01*
X256415D01*
X256582Y162390D01*
Y161890D01*
Y162223D02*
X256915Y162556D01*
Y162889D02*
Y163223D01*
Y163056D01*
X255915D01*
X256082Y162889D01*
X256915Y164389D02*
Y163722D01*
X256249Y164389D01*
X256082D01*
X255915Y164222D01*
Y163889D01*
X256082Y163722D01*
X278251Y252060D02*
X277251D01*
Y252560D01*
X277418Y252726D01*
X277751D01*
X277918Y252560D01*
Y252060D01*
Y252393D02*
X278251Y252726D01*
Y253059D02*
Y253393D01*
Y253226D01*
X277251D01*
X277418Y253059D01*
X278251Y254392D02*
X277251D01*
X277751Y253892D01*
Y254559D01*
X289300Y251933D02*
X288300D01*
Y252433D01*
X288467Y252599D01*
X288800D01*
X288967Y252433D01*
Y251933D01*
Y252266D02*
X289300Y252599D01*
Y252932D02*
Y253266D01*
Y253099D01*
X288300D01*
X288467Y252932D01*
X288300Y254432D02*
Y253765D01*
X288800D01*
X288634Y254099D01*
Y254265D01*
X288800Y254432D01*
X289134D01*
X289300Y254265D01*
Y253932D01*
X289134Y253765D01*
X278124Y237836D02*
X277124D01*
Y238336D01*
X277291Y238502D01*
X277624D01*
X277791Y238336D01*
Y237836D01*
Y238169D02*
X278124Y238502D01*
Y238835D02*
Y239169D01*
Y239002D01*
X277124D01*
X277291Y238835D01*
X277124Y240335D02*
X277291Y240002D01*
X277624Y239668D01*
X277958D01*
X278124Y239835D01*
Y240168D01*
X277958Y240335D01*
X277791D01*
X277624Y240168D01*
Y239668D01*
X292475Y237709D02*
X291475D01*
Y238209D01*
X291642Y238375D01*
X291975D01*
X292142Y238209D01*
Y237709D01*
Y238042D02*
X292475Y238375D01*
Y238708D02*
Y239042D01*
Y238875D01*
X291475D01*
X291642Y238708D01*
X291475Y239541D02*
Y240208D01*
X291642D01*
X292309Y239541D01*
X292475D01*
X283712Y252060D02*
X282712D01*
Y252560D01*
X282879Y252726D01*
X283212D01*
X283379Y252560D01*
Y252060D01*
Y252393D02*
X283712Y252726D01*
Y253059D02*
Y253393D01*
Y253226D01*
X282712D01*
X282879Y253059D01*
Y253892D02*
X282712Y254059D01*
Y254392D01*
X282879Y254559D01*
X283046D01*
X283212Y254392D01*
X283379Y254559D01*
X283546D01*
X283712Y254392D01*
Y254059D01*
X283546Y253892D01*
X283379D01*
X283212Y254059D01*
X283046Y253892D01*
X282879D01*
X283212Y254059D02*
Y254392D01*
X272790Y251806D02*
X271790D01*
Y252306D01*
X271957Y252472D01*
X272290D01*
X272457Y252306D01*
Y251806D01*
Y252139D02*
X272790Y252472D01*
Y252805D02*
Y253139D01*
Y252972D01*
X271790D01*
X271957Y252805D01*
X272624Y253638D02*
X272790Y253805D01*
Y254138D01*
X272624Y254305D01*
X271957D01*
X271790Y254138D01*
Y253805D01*
X271957Y253638D01*
X272124D01*
X272290Y253805D01*
Y254305D01*
X284220Y234534D02*
X283220D01*
Y235034D01*
X283387Y235200D01*
X283720D01*
X283887Y235034D01*
Y234534D01*
Y234867D02*
X284220Y235200D01*
Y236200D02*
Y235533D01*
X283554Y236200D01*
X283387D01*
X283220Y236033D01*
Y235700D01*
X283387Y235533D01*
Y236533D02*
X283220Y236700D01*
Y237033D01*
X283387Y237200D01*
X284054D01*
X284220Y237033D01*
Y236700D01*
X284054Y236533D01*
X283387D01*
X272536Y237836D02*
X271536D01*
Y238336D01*
X271703Y238502D01*
X272036D01*
X272203Y238336D01*
Y237836D01*
Y238169D02*
X272536Y238502D01*
Y239502D02*
Y238835D01*
X271870Y239502D01*
X271703D01*
X271536Y239335D01*
Y239002D01*
X271703Y238835D01*
X272536Y239835D02*
Y240168D01*
Y240002D01*
X271536D01*
X271703Y239835D01*
X291221Y201260D02*
X292055D01*
X292221Y201426D01*
Y201760D01*
X292055Y201926D01*
X291221D01*
X292221Y202259D02*
Y202593D01*
Y202426D01*
X291221D01*
X291388Y202259D01*
X287903Y153872D02*
Y153039D01*
X288070Y152873D01*
X288403D01*
X288570Y153039D01*
Y153872D01*
X288903Y153706D02*
X289069Y153872D01*
X289403D01*
X289569Y153706D01*
Y153539D01*
X289403Y153373D01*
X289236D01*
X289403D01*
X289569Y153206D01*
Y153039D01*
X289403Y152873D01*
X289069D01*
X288903Y153039D01*
X274695Y196798D02*
X275362Y195799D01*
Y196798D02*
X274695Y195799D01*
X275695Y196798D02*
X276361D01*
X276028D01*
Y195799D01*
X276694Y196798D02*
Y195799D01*
X277361D01*
X278361D02*
X277694D01*
X278361Y196465D01*
Y196632D01*
X278194Y196798D01*
X277861D01*
X277694Y196632D01*
X263392Y255997D02*
Y256996D01*
X263892D01*
X264059Y256830D01*
Y256497D01*
X263892Y256330D01*
X263392D01*
X264392Y255997D02*
X264725D01*
X264558D01*
Y256996D01*
X264392Y256830D01*
X296285Y162144D02*
X295285D01*
Y162644D01*
X295452Y162810D01*
X295785D01*
X295952Y162644D01*
Y162144D01*
Y162477D02*
X296285Y162810D01*
Y163143D02*
Y163477D01*
Y163310D01*
X295285D01*
X295452Y163143D01*
Y163976D02*
X295285Y164143D01*
Y164476D01*
X295452Y164643D01*
X295619D01*
X295785Y164476D01*
Y164310D01*
Y164476D01*
X295952Y164643D01*
X296119D01*
X296285Y164476D01*
Y164143D01*
X296119Y163976D01*
X281184Y165792D02*
X281034Y165642D01*
Y165342D01*
X281184Y165192D01*
X281784D01*
X281934Y165342D01*
Y165642D01*
X281784Y165792D01*
X281934Y166091D02*
Y166391D01*
Y166241D01*
X281034D01*
X281184Y166091D01*
X281934Y167291D02*
X281034D01*
X281484Y166841D01*
Y167441D01*
X241259Y149305D02*
X241109Y149454D01*
X240809D01*
X240659Y149305D01*
Y148705D01*
X240809Y148555D01*
X241109D01*
X241259Y148705D01*
X241559Y148555D02*
X241859D01*
X241709D01*
Y149454D01*
X241559Y149305D01*
X242908Y149454D02*
X242309D01*
Y149005D01*
X242609Y149155D01*
X242758D01*
X242908Y149005D01*
Y148705D01*
X242758Y148555D01*
X242459D01*
X242309Y148705D01*
X299968Y238090D02*
X299068D01*
Y238540D01*
X299218Y238690D01*
X299518D01*
X299668Y238540D01*
Y238090D01*
Y238390D02*
X299968Y238690D01*
Y239589D02*
Y238989D01*
X299368Y239589D01*
X299218D01*
X299068Y239439D01*
Y239139D01*
X299218Y238989D01*
X299068Y239889D02*
Y240489D01*
X299218D01*
X299818Y239889D01*
X299968D01*
X288284Y257013D02*
Y257912D01*
X288734D01*
X288884Y257763D01*
Y257463D01*
X288734Y257313D01*
X288284D01*
X288584D02*
X288884Y257013D01*
X289784D02*
X289184D01*
X289784Y257613D01*
Y257763D01*
X289634Y257912D01*
X289334D01*
X289184Y257763D01*
X290084D02*
X290234Y257912D01*
X290533D01*
X290683Y257763D01*
Y257613D01*
X290533Y257463D01*
X290683Y257313D01*
Y257163D01*
X290533Y257013D01*
X290234D01*
X290084Y257163D01*
Y257313D01*
X290234Y257463D01*
X290084Y257613D01*
Y257763D01*
X290234Y257463D02*
X290533D01*
X277235Y257013D02*
Y257912D01*
X277685D01*
X277835Y257763D01*
Y257463D01*
X277685Y257313D01*
X277235D01*
X277535D02*
X277835Y257013D01*
X278735D02*
X278135D01*
X278735Y257613D01*
Y257763D01*
X278585Y257912D01*
X278285D01*
X278135Y257763D01*
X279035Y257163D02*
X279185Y257013D01*
X279484D01*
X279634Y257163D01*
Y257763D01*
X279484Y257912D01*
X279185D01*
X279035Y257763D01*
Y257613D01*
X279185Y257463D01*
X279634D01*
X277235Y234280D02*
Y235179D01*
X277685D01*
X277835Y235029D01*
Y234730D01*
X277685Y234580D01*
X277235D01*
X277535D02*
X277835Y234280D01*
X278135Y235029D02*
X278285Y235179D01*
X278585D01*
X278735Y235029D01*
Y234880D01*
X278585Y234730D01*
X278435D01*
X278585D01*
X278735Y234580D01*
Y234430D01*
X278585Y234280D01*
X278285D01*
X278135Y234430D01*
X279035Y235029D02*
X279185Y235179D01*
X279484D01*
X279634Y235029D01*
Y234430D01*
X279484Y234280D01*
X279185D01*
X279035Y234430D01*
Y235029D01*
X286379Y239106D02*
Y240005D01*
X286829D01*
X286979Y239855D01*
Y239556D01*
X286829Y239406D01*
X286379D01*
X286679D02*
X286979Y239106D01*
X287279Y239855D02*
X287429Y240005D01*
X287729D01*
X287879Y239855D01*
Y239706D01*
X287729Y239556D01*
X287579D01*
X287729D01*
X287879Y239406D01*
Y239256D01*
X287729Y239106D01*
X287429D01*
X287279Y239256D01*
X288179Y239106D02*
X288478D01*
X288329D01*
Y240005D01*
X288179Y239855D01*
X282696Y257013D02*
Y257912D01*
X283146D01*
X283296Y257763D01*
Y257463D01*
X283146Y257313D01*
X282696D01*
X282996D02*
X283296Y257013D01*
X283596Y257763D02*
X283746Y257912D01*
X284046D01*
X284196Y257763D01*
Y257613D01*
X284046Y257463D01*
X283896D01*
X284046D01*
X284196Y257313D01*
Y257163D01*
X284046Y257013D01*
X283746D01*
X283596Y257163D01*
X285095Y257013D02*
X284496D01*
X285095Y257613D01*
Y257763D01*
X284945Y257912D01*
X284646D01*
X284496Y257763D01*
X280791Y239233D02*
Y240132D01*
X281241D01*
X281391Y239982D01*
Y239683D01*
X281241Y239533D01*
X280791D01*
X281091D02*
X281391Y239233D01*
X281691Y239982D02*
X281841Y240132D01*
X282141D01*
X282291Y239982D01*
Y239833D01*
X282141Y239683D01*
X281991D01*
X282141D01*
X282291Y239533D01*
Y239383D01*
X282141Y239233D01*
X281841D01*
X281691Y239383D01*
X283040Y239233D02*
Y240132D01*
X282591Y239683D01*
X283190D01*
X273552Y234280D02*
Y235179D01*
X274002D01*
X274152Y235029D01*
Y234730D01*
X274002Y234580D01*
X273552D01*
X273852D02*
X274152Y234280D01*
X274452Y235029D02*
X274602Y235179D01*
X274902D01*
X275052Y235029D01*
Y234880D01*
X274902Y234730D01*
X274752D01*
X274902D01*
X275052Y234580D01*
Y234430D01*
X274902Y234280D01*
X274602D01*
X274452Y234430D01*
X275951Y235179D02*
X275352D01*
Y234730D01*
X275651Y234880D01*
X275801D01*
X275951Y234730D01*
Y234430D01*
X275801Y234280D01*
X275502D01*
X275352Y234430D01*
X228422Y207390D02*
X227756D01*
Y206890D01*
X228089D01*
X227756D01*
Y206391D01*
X228756Y207224D02*
X228922Y207390D01*
X229255D01*
X229422Y207224D01*
Y207057D01*
X229255Y206890D01*
X229089D01*
X229255D01*
X229422Y206724D01*
Y206557D01*
X229255Y206391D01*
X228922D01*
X228756Y206557D01*
X297460Y188035D02*
X296793D01*
Y187536D01*
X297126D01*
X296793D01*
Y187036D01*
X297793D02*
X298126D01*
X297959D01*
Y188035D01*
X297793Y187869D01*
X298626Y187036D02*
X298959D01*
X298793D01*
Y188035D01*
X298626Y187869D01*
X297460Y182701D02*
X296793D01*
Y182202D01*
X297126D01*
X296793D01*
Y181702D01*
X297793D02*
X298126D01*
X297959D01*
Y182701D01*
X297793Y182535D01*
X299292Y181702D02*
X298626D01*
X299292Y182368D01*
Y182535D01*
X299126Y182701D01*
X298793D01*
X298626Y182535D01*
X290586Y186782D02*
Y187448D01*
Y187115D01*
X291586D01*
X290586Y187781D02*
X291253D01*
X291586Y188115D01*
X291253Y188448D01*
X290586D01*
X290753Y189448D02*
X290586Y189281D01*
Y188948D01*
X290753Y188781D01*
X290920D01*
X291086Y188948D01*
Y189281D01*
X291253Y189448D01*
X291420D01*
X291586Y189281D01*
Y188948D01*
X291420Y188781D01*
X291586Y190447D02*
Y189781D01*
X290920Y190447D01*
X290753D01*
X290586Y190281D01*
Y189947D01*
X290753Y189781D01*
X290189Y193750D02*
X290856D01*
X290522D01*
Y192751D01*
X291189Y193750D02*
Y193084D01*
X291522Y192751D01*
X291855Y193084D01*
Y193750D01*
X292855Y193584D02*
X292688Y193750D01*
X292355D01*
X292189Y193584D01*
Y193417D01*
X292355Y193251D01*
X292688D01*
X292855Y193084D01*
Y192917D01*
X292688Y192751D01*
X292355D01*
X292189Y192917D01*
X293188Y193584D02*
X293355Y193750D01*
X293688D01*
X293855Y193584D01*
Y193417D01*
X293688Y193251D01*
X293521D01*
X293688D01*
X293855Y193084D01*
Y192917D01*
X293688Y192751D01*
X293355D01*
X293188Y192917D01*
X296539Y193750D02*
X297206D01*
X296872D01*
Y192751D01*
X297539Y193750D02*
Y193084D01*
X297872Y192751D01*
X298205Y193084D01*
Y193750D01*
X299205Y193584D02*
X299038Y193750D01*
X298705D01*
X298539Y193584D01*
Y193417D01*
X298705Y193251D01*
X299038D01*
X299205Y193084D01*
Y192917D01*
X299038Y192751D01*
X298705D01*
X298539Y192917D01*
X300038Y192751D02*
Y193750D01*
X299538Y193251D01*
X300205D01*
X287792Y220056D02*
Y220722D01*
Y220389D01*
X288792D01*
Y221055D02*
X287792D01*
Y221555D01*
X287959Y221722D01*
X288292D01*
X288459Y221555D01*
Y221055D01*
X288792Y222055D02*
Y222388D01*
Y222222D01*
X287792D01*
X287959Y222055D01*
Y222888D02*
X287792Y223055D01*
Y223388D01*
X287959Y223555D01*
X288626D01*
X288792Y223388D01*
Y223055D01*
X288626Y222888D01*
X287959D01*
X288792Y223888D02*
Y224221D01*
Y224054D01*
X287792D01*
X287959Y223888D01*
X281299Y231342D02*
X281966D01*
X281632D01*
Y230343D01*
X282299D02*
Y231342D01*
X282799D01*
X282965Y231176D01*
Y230843D01*
X282799Y230676D01*
X282299D01*
X283298Y230509D02*
X283465Y230343D01*
X283798D01*
X283965Y230509D01*
Y231176D01*
X283798Y231342D01*
X283465D01*
X283298Y231176D01*
Y231009D01*
X283465Y230843D01*
X283965D01*
X284298Y230343D02*
X284631D01*
X284465D01*
Y231342D01*
X284298Y231176D01*
X275219Y206467D02*
Y207133D01*
Y206800D01*
X276219D01*
Y207466D02*
X275219D01*
Y207966D01*
X275386Y208133D01*
X275719D01*
X275886Y207966D01*
Y207466D01*
X275386Y208466D02*
X275219Y208633D01*
Y208966D01*
X275386Y209133D01*
X275553D01*
X275719Y208966D01*
X275886Y209133D01*
X276053D01*
X276219Y208966D01*
Y208633D01*
X276053Y208466D01*
X275886D01*
X275719Y208633D01*
X275553Y208466D01*
X275386D01*
X275719Y208633D02*
Y208966D01*
X276219Y209466D02*
Y209799D01*
Y209632D01*
X275219D01*
X275386Y209466D01*
X279156Y229200D02*
Y229866D01*
Y229533D01*
X280156D01*
Y230199D02*
X279156D01*
Y230699D01*
X279323Y230866D01*
X279656D01*
X279823Y230699D01*
Y230199D01*
X279156Y231866D02*
X279323Y231532D01*
X279656Y231199D01*
X279990D01*
X280156Y231366D01*
Y231699D01*
X279990Y231866D01*
X279823D01*
X279656Y231699D01*
Y231199D01*
X280156Y232199D02*
Y232532D01*
Y232365D01*
X279156D01*
X279323Y232199D01*
X274965Y227422D02*
Y228088D01*
Y227755D01*
X275965D01*
Y228421D02*
X274965D01*
Y228921D01*
X275132Y229088D01*
X275465D01*
X275632Y228921D01*
Y228421D01*
X274965Y230088D02*
Y229421D01*
X275465D01*
X275299Y229754D01*
Y229921D01*
X275465Y230088D01*
X275799D01*
X275965Y229921D01*
Y229588D01*
X275799Y229421D01*
X275965Y230421D02*
Y230754D01*
Y230587D01*
X274965D01*
X275132Y230421D01*
X278267Y222850D02*
Y223516D01*
Y223183D01*
X279267D01*
Y223849D02*
X278267D01*
Y224349D01*
X278434Y224516D01*
X278767D01*
X278934Y224349D01*
Y223849D01*
X279267Y225349D02*
X278267D01*
X278767Y224849D01*
Y225516D01*
X279267Y225849D02*
Y226182D01*
Y226015D01*
X278267D01*
X278434Y225849D01*
X296107Y235347D02*
Y235513D01*
X296274D01*
Y235347D01*
X296107D01*
X296940D02*
Y235513D01*
X297107D01*
Y235347D01*
X296940D01*
X297773D02*
Y235513D01*
X297940D01*
Y235347D01*
X297773D01*
X298607D02*
Y235513D01*
X298773D01*
Y235347D01*
X298607D01*
X299440D02*
Y235513D01*
X299606D01*
Y235347D01*
X299440D01*
X300273D02*
Y235513D01*
X300439D01*
Y235347D01*
X300273D01*
X301106D02*
Y235513D01*
X301272D01*
Y235347D01*
X301106D01*
X301939D02*
Y235513D01*
X302105D01*
Y235347D01*
X301939D01*
X302772D02*
Y235513D01*
X302938D01*
Y235347D01*
X302772D01*
X296107Y231791D02*
Y231957D01*
X296274D01*
Y231791D01*
X296107D01*
X296940D02*
Y231957D01*
X297107D01*
Y231791D01*
X296940D01*
X297773D02*
Y231957D01*
X297940D01*
Y231791D01*
X297773D01*
X298607D02*
Y231957D01*
X298773D01*
Y231791D01*
X298607D01*
X299440D02*
Y231957D01*
X299606D01*
Y231791D01*
X299440D01*
X300273D02*
Y231957D01*
X300439D01*
Y231791D01*
X300273D01*
X301106D02*
Y231957D01*
X301272D01*
Y231791D01*
X301106D01*
X301939D02*
Y231957D01*
X302105D01*
Y231791D01*
X301939D01*
X302772D02*
Y231957D01*
X302938D01*
Y231791D01*
X302772D01*
X197860Y203038D02*
Y203204D01*
X198027D01*
Y203038D01*
X197860D01*
X198693D02*
Y203204D01*
X198860D01*
Y203038D01*
X198693D01*
X199526D02*
Y203204D01*
X199693D01*
Y203038D01*
X199526D01*
X200359D02*
Y203204D01*
X200526D01*
Y203038D01*
X200359D01*
X201192D02*
Y203204D01*
X201359D01*
Y203038D01*
X201192D01*
X202025D02*
Y203204D01*
X202192D01*
Y203038D01*
X202025D01*
X202859D02*
Y203204D01*
X203025D01*
Y203038D01*
X202859D01*
X203692D02*
Y203204D01*
X203858D01*
Y203038D01*
X203692D01*
X197860Y207610D02*
Y207776D01*
X198027D01*
Y207610D01*
X197860D01*
X198693D02*
Y207776D01*
X198860D01*
Y207610D01*
X198693D01*
X199526D02*
Y207776D01*
X199693D01*
Y207610D01*
X199526D01*
X200359D02*
Y207776D01*
X200526D01*
Y207610D01*
X200359D01*
X201192D02*
Y207776D01*
X201359D01*
Y207610D01*
X201192D01*
X202025D02*
Y207776D01*
X202192D01*
Y207610D01*
X202025D01*
X202859D02*
Y207776D01*
X203025D01*
Y207610D01*
X202859D01*
X203692D02*
Y207776D01*
X203858D01*
Y207610D01*
X203692D01*
X267659Y169256D02*
Y169422D01*
X267826D01*
Y169256D01*
X267659D01*
X268492D02*
Y169422D01*
X268659D01*
Y169256D01*
X268492D01*
X269325D02*
Y169422D01*
X269492D01*
Y169256D01*
X269325D01*
X270159D02*
Y169422D01*
X270325D01*
Y169256D01*
X270159D01*
X270992D02*
Y169422D01*
X271158D01*
Y169256D01*
X270992D01*
X271825D02*
Y169422D01*
X271991D01*
Y169256D01*
X271825D01*
X272658D02*
Y169422D01*
X272824D01*
Y169256D01*
X272658D01*
X267659Y164709D02*
Y164876D01*
X267826D01*
Y164709D01*
X267659D01*
X268492D02*
Y164876D01*
X268659D01*
Y164709D01*
X268492D01*
X269325D02*
Y164876D01*
X269492D01*
Y164709D01*
X269325D01*
X270159D02*
Y164876D01*
X270325D01*
Y164709D01*
X270159D01*
X270992D02*
Y164876D01*
X271158D01*
Y164709D01*
X270992D01*
X271825D02*
Y164876D01*
X271991D01*
Y164709D01*
X271825D01*
X272658D02*
Y164876D01*
X272824D01*
Y164709D01*
X272658D01*
X293694Y223002D02*
Y223169D01*
X293861D01*
Y223002D01*
X293694D01*
X294527D02*
Y223169D01*
X294694D01*
Y223002D01*
X294527D01*
X295360D02*
Y223169D01*
X295527D01*
Y223002D01*
X295360D01*
X296194D02*
Y223169D01*
X296360D01*
Y223002D01*
X296194D01*
X297027D02*
Y223169D01*
X297193D01*
Y223002D01*
X297027D01*
X297860D02*
Y223169D01*
X298026D01*
Y223002D01*
X297860D01*
X298693D02*
Y223169D01*
X298859D01*
Y223002D01*
X298693D01*
X299526D02*
Y223169D01*
X299692D01*
Y223002D01*
X299526D01*
X300359D02*
Y223169D01*
X300525D01*
Y223002D01*
X300359D01*
X301192D02*
Y223169D01*
X301359D01*
Y223002D01*
X301192D01*
X302025D02*
Y223169D01*
X302192D01*
Y223002D01*
X302025D01*
X293694Y226736D02*
Y226903D01*
X293861D01*
Y226736D01*
X293694D01*
X294527D02*
Y226903D01*
X294694D01*
Y226736D01*
X294527D01*
X295360D02*
Y226903D01*
X295527D01*
Y226736D01*
X295360D01*
X296194D02*
Y226903D01*
X296360D01*
Y226736D01*
X296194D01*
X297027D02*
Y226903D01*
X297193D01*
Y226736D01*
X297027D01*
X297860D02*
Y226903D01*
X298026D01*
Y226736D01*
X297860D01*
X298693D02*
Y226903D01*
X298859D01*
Y226736D01*
X298693D01*
X299526D02*
Y226903D01*
X299692D01*
Y226736D01*
X299526D01*
X300359D02*
Y226903D01*
X300525D01*
Y226736D01*
X300359D01*
X301192D02*
Y226903D01*
X301359D01*
Y226736D01*
X301192D01*
X302025D02*
Y226903D01*
X302192D01*
Y226736D01*
X302025D01*
X270860Y182794D02*
X270693D01*
Y182961D01*
X270860D01*
Y182794D01*
Y183627D02*
X270693D01*
Y183794D01*
X270860D01*
Y183627D01*
Y184460D02*
X270693D01*
Y184627D01*
X270860D01*
Y184460D01*
Y185293D02*
X270693D01*
Y185460D01*
X270860D01*
Y185293D01*
Y186126D02*
X270693D01*
Y186293D01*
X270860D01*
Y186126D01*
Y186959D02*
X270693D01*
Y187126D01*
X270860D01*
Y186959D01*
Y187792D02*
X270693D01*
Y187959D01*
X270860D01*
Y187792D01*
X266313Y182794D02*
X266147D01*
Y182961D01*
X266313D01*
Y182794D01*
Y183627D02*
X266147D01*
Y183794D01*
X266313D01*
Y183627D01*
Y184460D02*
X266147D01*
Y184627D01*
X266313D01*
Y184460D01*
Y185293D02*
X266147D01*
Y185460D01*
X266313D01*
Y185293D01*
Y186126D02*
X266147D01*
Y186293D01*
X266313D01*
Y186126D01*
Y186959D02*
X266147D01*
Y187126D01*
X266313D01*
Y186959D01*
Y187792D02*
X266147D01*
Y187959D01*
X266313D01*
Y187792D01*
X298317Y209515D02*
Y209681D01*
X298484D01*
Y209515D01*
X298317D01*
X299150D02*
Y209681D01*
X299317D01*
Y209515D01*
X299150D01*
X299983D02*
Y209681D01*
X300150D01*
Y209515D01*
X299983D01*
X300816D02*
Y209681D01*
X300983D01*
Y209515D01*
X300816D01*
X301649D02*
Y209681D01*
X301816D01*
Y209515D01*
X301649D01*
X302482D02*
Y209681D01*
X302649D01*
Y209515D01*
X302482D01*
X303316D02*
Y209681D01*
X303482D01*
Y209515D01*
X303316D01*
X304149D02*
Y209681D01*
X304315D01*
Y209515D01*
X304149D01*
X298216Y213122D02*
Y213288D01*
X298382D01*
Y213122D01*
X298216D01*
X299049D02*
Y213288D01*
X299215D01*
Y213122D01*
X299049D01*
X299882D02*
Y213288D01*
X300048D01*
Y213122D01*
X299882D01*
X300715D02*
Y213288D01*
X300881D01*
Y213122D01*
X300715D01*
X301548D02*
Y213288D01*
X301714D01*
Y213122D01*
X301548D01*
X302381D02*
Y213288D01*
X302547D01*
Y213122D01*
X302381D01*
X303214D02*
Y213288D01*
X303381D01*
Y213122D01*
X303214D01*
X304047D02*
Y213288D01*
X304214D01*
Y213122D01*
X304047D01*
X283347Y199482D02*
Y200148D01*
Y199815D01*
X284347D01*
Y200481D02*
X283347D01*
Y200981D01*
X283514Y201148D01*
X283847D01*
X284014Y200981D01*
Y200481D01*
X284347Y201481D02*
Y201814D01*
Y201648D01*
X283347D01*
X283514Y201481D01*
X284347Y202314D02*
Y202647D01*
Y202481D01*
X283347D01*
X283514Y202314D01*
X281442Y199482D02*
Y200148D01*
Y199815D01*
X282442D01*
Y200481D02*
X281442D01*
Y200981D01*
X281609Y201148D01*
X281942D01*
X282109Y200981D01*
Y200481D01*
X282442Y201481D02*
Y201814D01*
Y201648D01*
X281442D01*
X281609Y201481D01*
Y202314D02*
X281442Y202481D01*
Y202814D01*
X281609Y202981D01*
X282276D01*
X282442Y202814D01*
Y202481D01*
X282276Y202314D01*
X281609D01*
X279537Y199482D02*
Y200148D01*
Y199815D01*
X280537D01*
Y200481D02*
X279537D01*
Y200981D01*
X279704Y201148D01*
X280037D01*
X280204Y200981D01*
Y200481D01*
X280371Y201481D02*
X280537Y201648D01*
Y201981D01*
X280371Y202148D01*
X279704D01*
X279537Y201981D01*
Y201648D01*
X279704Y201481D01*
X279871D01*
X280037Y201648D01*
Y202148D01*
X277632Y199482D02*
Y200148D01*
Y199815D01*
X278632D01*
Y200481D02*
X277632D01*
Y200981D01*
X277799Y201148D01*
X278132D01*
X278299Y200981D01*
Y200481D01*
X277799Y201481D02*
X277632Y201648D01*
Y201981D01*
X277799Y202148D01*
X277966D01*
X278132Y201981D01*
X278299Y202148D01*
X278466D01*
X278632Y201981D01*
Y201648D01*
X278466Y201481D01*
X278299D01*
X278132Y201648D01*
X277966Y201481D01*
X277799D01*
X278132Y201648D02*
Y201981D01*
X275727Y199482D02*
Y200148D01*
Y199815D01*
X276727D01*
Y200481D02*
X275727D01*
Y200981D01*
X275894Y201148D01*
X276227D01*
X276394Y200981D01*
Y200481D01*
X275727Y201481D02*
Y202148D01*
X275894D01*
X276561Y201481D01*
X276727D01*
X273822Y199482D02*
Y200148D01*
Y199815D01*
X274822D01*
Y200481D02*
X273822D01*
Y200981D01*
X273989Y201148D01*
X274322D01*
X274489Y200981D01*
Y200481D01*
X273822Y202148D02*
X273989Y201814D01*
X274322Y201481D01*
X274656D01*
X274822Y201648D01*
Y201981D01*
X274656Y202148D01*
X274489D01*
X274322Y201981D01*
Y201481D01*
X271917Y199482D02*
Y200148D01*
Y199815D01*
X272917D01*
Y200481D02*
X271917D01*
Y200981D01*
X272084Y201148D01*
X272417D01*
X272584Y200981D01*
Y200481D01*
X271917Y202148D02*
Y201481D01*
X272417D01*
X272251Y201814D01*
Y201981D01*
X272417Y202148D01*
X272751D01*
X272917Y201981D01*
Y201648D01*
X272751Y201481D01*
X270012Y199482D02*
Y200148D01*
Y199815D01*
X271012D01*
Y200481D02*
X270012D01*
Y200981D01*
X270179Y201148D01*
X270512D01*
X270679Y200981D01*
Y200481D01*
X271012Y201981D02*
X270012D01*
X270512Y201481D01*
Y202148D01*
X259328Y149554D02*
X259995D01*
X259661D01*
Y148555D01*
X260328D02*
Y149554D01*
X260828D01*
X260994Y149388D01*
Y149055D01*
X260828Y148888D01*
X260328D01*
X261328Y149388D02*
X261494Y149554D01*
X261827D01*
X261994Y149388D01*
Y149221D01*
X261827Y149055D01*
X261661D01*
X261827D01*
X261994Y148888D01*
Y148721D01*
X261827Y148555D01*
X261494D01*
X261328Y148721D01*
X289173Y171398D02*
X289840D01*
X289506D01*
Y170399D01*
X290173D02*
Y171398D01*
X290673D01*
X290839Y171232D01*
Y170899D01*
X290673Y170732D01*
X290173D01*
X291839Y170399D02*
X291172D01*
X291839Y171065D01*
Y171232D01*
X291672Y171398D01*
X291339D01*
X291172Y171232D01*
X302254Y164159D02*
X302921D01*
X302587D01*
Y163160D01*
X303254D02*
Y164159D01*
X303754D01*
X303920Y163993D01*
Y163660D01*
X303754Y163493D01*
X303254D01*
X304254Y163160D02*
X304587D01*
X304420D01*
Y164159D01*
X304254Y163993D01*
D67*
X271774Y257013D02*
Y257912D01*
X272224D01*
X272374Y257763D01*
Y257463D01*
X272224Y257313D01*
X271774D01*
X272074D02*
X272374Y257013D01*
X272674Y257763D02*
X272824Y257912D01*
X273124D01*
X273274Y257763D01*
Y257613D01*
X273124Y257463D01*
X272974D01*
X273124D01*
X273274Y257313D01*
Y257163D01*
X273124Y257013D01*
X272824D01*
X272674Y257163D01*
X273574Y257763D02*
X273724Y257912D01*
X274023D01*
X274173Y257763D01*
Y257613D01*
X274023Y257463D01*
X273873D01*
X274023D01*
X274173Y257313D01*
Y257163D01*
X274023Y257013D01*
X273724D01*
X273574Y257163D01*
X265936Y170747D02*
X266436D01*
X266186D01*
Y172246D01*
X265936Y171996D01*
D68*
X218104Y182946D02*
D03*
D69*
X248100Y191074D02*
D03*
X218255Y212537D02*
D03*
X203650Y223078D02*
D03*
D70*
X234003Y191163D02*
D03*
D71*
X263543Y222913D02*
D03*
D72*
X248838Y222824D02*
D03*
D73*
X250117Y249291D02*
D03*
D74*
X234130Y222634D02*
D03*
D75*
X217000Y249410D02*
D03*
M02*
