G04 Layer_Physical_Order=2*
G04 Layer_Color=32768*
%FSLAX43Y43*%
%MOMM*%
G71*
G01*
G75*
%ADD49C,4.500*%
%ADD53C,1.016*%
%ADD54C,1.016*%
%ADD55C,2.600*%
%ADD56C,2.100*%
%ADD57C,2.920*%
%ADD58C,2.400*%
%ADD59C,2.900*%
%ADD60C,2.950*%
%ADD61C,1.700*%
G36*
X203198Y258791D02*
X270377D01*
X271012Y258156D01*
Y206594D01*
X255264Y190846D01*
Y176241D01*
X246628Y167605D01*
X213608D01*
Y167732D01*
X209671Y171669D01*
Y198974D01*
X197479Y211166D01*
Y238090D01*
X203083Y243693D01*
Y243805D01*
X203183Y258805D01*
X203198Y258791D01*
D02*
G37*
G36*
X303517Y183160D02*
X303961Y183041D01*
X304384Y182866D01*
X304782Y182636D01*
X305146Y182357D01*
X305470Y182032D01*
X305750Y181668D01*
X305979Y181271D01*
X306155Y180847D01*
X306273Y180404D01*
X306333Y179949D01*
Y179720D01*
Y179490D01*
X306273Y179035D01*
X306155Y178592D01*
X305979Y178168D01*
X305750Y177771D01*
X305470Y177407D01*
X305146Y177083D01*
X304782Y176803D01*
X304384Y176574D01*
X303961Y176398D01*
X303517Y176280D01*
X303063Y176220D01*
X302604D01*
X302149Y176280D01*
X301706Y176398D01*
X301282Y176574D01*
X300884Y176803D01*
X300520Y177083D01*
X300196Y177407D01*
X299917Y177771D01*
X299687Y178168D01*
X299512Y178592D01*
X299393Y179035D01*
X299333Y179490D01*
Y179720D01*
Y179949D01*
X299393Y180404D01*
X299512Y180847D01*
X299687Y181271D01*
X299917Y181668D01*
X300196Y182032D01*
X300520Y182357D01*
X300884Y182636D01*
X301282Y182866D01*
X301706Y183041D01*
X302149Y183160D01*
X302604Y183220D01*
X303063D01*
X303517Y183160D01*
D02*
G37*
D49*
X217803Y233705D02*
D03*
X287803D02*
D03*
D53*
X196083Y143705D02*
G03*
X196184Y143604I100J0D01*
G01*
X308183D02*
G03*
X308284Y143705I0J100D01*
G01*
Y243705D02*
G03*
X308183Y243805I-100J0D01*
G01*
X301784Y258705D02*
G03*
X301683Y258805I-100J0D01*
G01*
X203183D02*
G03*
X203083Y258705I0J-100D01*
G01*
X196183Y243805D02*
G03*
X196083Y243705I0J-100D01*
G01*
Y143705D02*
Y243705D01*
X196183Y243805D02*
X200046D01*
X200046D02*
Y243805D01*
X203083D01*
Y258705D01*
X203183Y258805D02*
X301683D01*
X301784Y243805D02*
Y258705D01*
Y243805D02*
X308183D01*
X308284Y143705D02*
Y243705D01*
X196184Y143604D02*
X308183D01*
D54*
X200046Y243805D02*
D03*
D55*
X240659Y255880D02*
D03*
X240633Y243180D02*
D03*
X244443Y255880D02*
D03*
Y243180D02*
D03*
X248253Y255880D02*
D03*
Y243180D02*
D03*
X252063Y255880D02*
D03*
Y243180D02*
D03*
X255873Y255880D02*
D03*
Y243180D02*
D03*
X259683Y255880D02*
D03*
Y243180D02*
D03*
X207434Y255880D02*
D03*
X207408Y243180D02*
D03*
X211218Y255880D02*
D03*
Y243180D02*
D03*
X215028Y255880D02*
D03*
Y243180D02*
D03*
X218838Y255880D02*
D03*
Y243180D02*
D03*
X222648Y255880D02*
D03*
Y243180D02*
D03*
X226458Y255880D02*
D03*
Y243180D02*
D03*
D56*
X205353Y198339D02*
D03*
Y195799D02*
D03*
Y193259D02*
D03*
Y188179D02*
D03*
Y190719D02*
D03*
X197733Y198339D02*
D03*
Y193259D02*
D03*
Y195799D02*
D03*
Y190719D02*
D03*
Y188179D02*
D03*
X290697Y168875D02*
D03*
D57*
X296733Y247430D02*
D03*
Y244890D02*
D03*
X274808Y247430D02*
D03*
Y244890D02*
D03*
X280236Y247430D02*
D03*
Y244890D02*
D03*
X285694Y247430D02*
D03*
Y244890D02*
D03*
X291196Y247430D02*
D03*
Y244890D02*
D03*
D58*
X222117Y194915D02*
D03*
Y171415D02*
D03*
Y187925D02*
D03*
X214617Y191405D02*
D03*
X214624Y171415D02*
D03*
X237992Y234793D02*
D03*
Y211293D02*
D03*
Y227803D02*
D03*
X230492Y231283D02*
D03*
X230499Y211293D02*
D03*
X222117Y224506D02*
D03*
Y201006D02*
D03*
Y217516D02*
D03*
X214617Y220996D02*
D03*
X214624Y201006D02*
D03*
X207519Y234869D02*
D03*
Y211369D02*
D03*
Y227879D02*
D03*
X200019Y231359D02*
D03*
X200026Y211369D02*
D03*
X267456Y234793D02*
D03*
Y211293D02*
D03*
Y227803D02*
D03*
X259956Y231283D02*
D03*
X259963Y211293D02*
D03*
X251962Y203043D02*
D03*
Y179543D02*
D03*
Y196053D02*
D03*
X244462Y199533D02*
D03*
X244469Y179543D02*
D03*
X252597Y234793D02*
D03*
Y211293D02*
D03*
Y227803D02*
D03*
X245097Y231283D02*
D03*
X245104Y211293D02*
D03*
X237865Y203043D02*
D03*
Y179543D02*
D03*
Y196053D02*
D03*
X230365Y199533D02*
D03*
X230372Y179543D02*
D03*
X266186Y173447D02*
D03*
Y175987D02*
D03*
X268726Y173447D02*
D03*
Y175987D02*
D03*
X271266Y173447D02*
D03*
X273806D02*
D03*
X271266Y175987D02*
D03*
X276346Y173447D02*
D03*
D59*
X302833Y184800D02*
D03*
Y179720D02*
D03*
Y189880D02*
D03*
D60*
Y174640D02*
D03*
D61*
X282569Y155159D02*
D03*
X286252Y220437D02*
D03*
X278505Y179162D02*
D03*
X282950Y229327D02*
D03*
X282823Y220691D02*
D03*
X260598Y176876D02*
D03*
X256407Y176749D02*
D03*
X298317Y230216D02*
D03*
X278442Y187544D02*
D03*
X283966Y246218D02*
D03*
X282188D02*
D03*
X277997Y231867D02*
D03*
X275457Y231994D02*
D03*
X275965Y239106D02*
D03*
X281807Y215738D02*
D03*
X272536Y203419D02*
D03*
X277235Y246345D02*
D03*
X276219Y223485D02*
D03*
X278378Y221580D02*
D03*
X275838Y205578D02*
D03*
X241294Y161128D02*
D03*
X283761Y162193D02*
D03*
X280791Y175098D02*
D03*
X291633Y153980D02*
D03*
X299333Y197958D02*
D03*
X298317Y253965D02*
D03*
X288157Y240822D02*
D03*
X287268Y213071D02*
D03*
X288919Y246345D02*
D03*
X250184Y163414D02*
D03*
X250311Y161001D02*
D03*
X240024Y161128D02*
D03*
Y163414D02*
D03*
X241294D02*
D03*
X258566Y159096D02*
D03*
X300603Y241646D02*
D03*
X299587Y205197D02*
D03*
X291205Y183226D02*
D03*
X288411Y181067D02*
D03*
M02*
