G04 Layer_Physical_Order=1*
G04 Layer_Color=255*
%FSLAX44Y44*%
%MOMM*%
G71*
G01*
G75*
G04:AMPARAMS|DCode=10|XSize=0.7mm|YSize=0.9mm|CornerRadius=0.035mm|HoleSize=0mm|Usage=FLASHONLY|Rotation=90.000|XOffset=0mm|YOffset=0mm|HoleType=Round|Shape=RoundedRectangle|*
%AMROUNDEDRECTD10*
21,1,0.7000,0.8300,0,0,90.0*
21,1,0.6300,0.9000,0,0,90.0*
1,1,0.0700,0.4150,0.3150*
1,1,0.0700,0.4150,-0.3150*
1,1,0.0700,-0.4150,-0.3150*
1,1,0.0700,-0.4150,0.3150*
%
%ADD10ROUNDEDRECTD10*%
G04:AMPARAMS|DCode=11|XSize=0.7mm|YSize=0.9mm|CornerRadius=0.035mm|HoleSize=0mm|Usage=FLASHONLY|Rotation=0.000|XOffset=0mm|YOffset=0mm|HoleType=Round|Shape=RoundedRectangle|*
%AMROUNDEDRECTD11*
21,1,0.7000,0.8300,0,0,0.0*
21,1,0.6300,0.9000,0,0,0.0*
1,1,0.0700,0.3150,-0.4150*
1,1,0.0700,-0.3150,-0.4150*
1,1,0.0700,-0.3150,0.4150*
1,1,0.0700,0.3150,0.4150*
%
%ADD11ROUNDEDRECTD11*%
%ADD12R,1.3000X1.0000*%
G04:AMPARAMS|DCode=13|XSize=1.3mm|YSize=2.5mm|CornerRadius=0.065mm|HoleSize=0mm|Usage=FLASHONLY|Rotation=270.000|XOffset=0mm|YOffset=0mm|HoleType=Round|Shape=RoundedRectangle|*
%AMROUNDEDRECTD13*
21,1,1.3000,2.3700,0,0,270.0*
21,1,1.1700,2.5000,0,0,270.0*
1,1,0.1300,-1.1850,-0.5850*
1,1,0.1300,-1.1850,0.5850*
1,1,0.1300,1.1850,0.5850*
1,1,0.1300,1.1850,-0.5850*
%
%ADD13ROUNDEDRECTD13*%
G04:AMPARAMS|DCode=14|XSize=1.4mm|YSize=2.5mm|CornerRadius=0.07mm|HoleSize=0mm|Usage=FLASHONLY|Rotation=270.000|XOffset=0mm|YOffset=0mm|HoleType=Round|Shape=RoundedRectangle|*
%AMROUNDEDRECTD14*
21,1,1.4000,2.3600,0,0,270.0*
21,1,1.2600,2.5000,0,0,270.0*
1,1,0.1400,-1.1800,-0.6300*
1,1,0.1400,-1.1800,0.6300*
1,1,0.1400,1.1800,0.6300*
1,1,0.1400,1.1800,-0.6300*
%
%ADD14ROUNDEDRECTD14*%
G04:AMPARAMS|DCode=15|XSize=0.55mm|YSize=1mm|CornerRadius=0.0275mm|HoleSize=0mm|Usage=FLASHONLY|Rotation=270.000|XOffset=0mm|YOffset=0mm|HoleType=Round|Shape=RoundedRectangle|*
%AMROUNDEDRECTD15*
21,1,0.5500,0.9450,0,0,270.0*
21,1,0.4950,1.0000,0,0,270.0*
1,1,0.0550,-0.4725,-0.2475*
1,1,0.0550,-0.4725,0.2475*
1,1,0.0550,0.4725,0.2475*
1,1,0.0550,0.4725,-0.2475*
%
%ADD15ROUNDEDRECTD15*%
G04:AMPARAMS|DCode=16|XSize=0.6mm|YSize=0.6mm|CornerRadius=0.03mm|HoleSize=0mm|Usage=FLASHONLY|Rotation=180.000|XOffset=0mm|YOffset=0mm|HoleType=Round|Shape=RoundedRectangle|*
%AMROUNDEDRECTD16*
21,1,0.6000,0.5400,0,0,180.0*
21,1,0.5400,0.6000,0,0,180.0*
1,1,0.0600,-0.2700,0.2700*
1,1,0.0600,0.2700,0.2700*
1,1,0.0600,0.2700,-0.2700*
1,1,0.0600,-0.2700,-0.2700*
%
%ADD16ROUNDEDRECTD16*%
G04:AMPARAMS|DCode=17|XSize=0.55mm|YSize=1mm|CornerRadius=0.0275mm|HoleSize=0mm|Usage=FLASHONLY|Rotation=0.000|XOffset=0mm|YOffset=0mm|HoleType=Round|Shape=RoundedRectangle|*
%AMROUNDEDRECTD17*
21,1,0.5500,0.9450,0,0,0.0*
21,1,0.4950,1.0000,0,0,0.0*
1,1,0.0550,0.2475,-0.4725*
1,1,0.0550,-0.2475,-0.4725*
1,1,0.0550,-0.2475,0.4725*
1,1,0.0550,0.2475,0.4725*
%
%ADD17ROUNDEDRECTD17*%
G04:AMPARAMS|DCode=18|XSize=1.55mm|YSize=0.6mm|CornerRadius=0.03mm|HoleSize=0mm|Usage=FLASHONLY|Rotation=180.000|XOffset=0mm|YOffset=0mm|HoleType=Round|Shape=RoundedRectangle|*
%AMROUNDEDRECTD18*
21,1,1.5500,0.5400,0,0,180.0*
21,1,1.4900,0.6000,0,0,180.0*
1,1,0.0600,-0.7450,0.2700*
1,1,0.0600,0.7450,0.2700*
1,1,0.0600,0.7450,-0.2700*
1,1,0.0600,-0.7450,-0.2700*
%
%ADD18ROUNDEDRECTD18*%
G04:AMPARAMS|DCode=19|XSize=1.55mm|YSize=0.6mm|CornerRadius=0.03mm|HoleSize=0mm|Usage=FLASHONLY|Rotation=90.000|XOffset=0mm|YOffset=0mm|HoleType=Round|Shape=RoundedRectangle|*
%AMROUNDEDRECTD19*
21,1,1.5500,0.5400,0,0,90.0*
21,1,1.4900,0.6000,0,0,90.0*
1,1,0.0600,0.2700,0.7450*
1,1,0.0600,0.2700,-0.7450*
1,1,0.0600,-0.2700,-0.7450*
1,1,0.0600,-0.2700,0.7450*
%
%ADD19ROUNDEDRECTD19*%
G04:AMPARAMS|DCode=20|XSize=1mm|YSize=1.8mm|CornerRadius=0.05mm|HoleSize=0mm|Usage=FLASHONLY|Rotation=90.000|XOffset=0mm|YOffset=0mm|HoleType=Round|Shape=RoundedRectangle|*
%AMROUNDEDRECTD20*
21,1,1.0000,1.7000,0,0,90.0*
21,1,0.9000,1.8000,0,0,90.0*
1,1,0.1000,0.8500,0.4500*
1,1,0.1000,0.8500,-0.4500*
1,1,0.1000,-0.8500,-0.4500*
1,1,0.1000,-0.8500,0.4500*
%
%ADD20ROUNDEDRECTD20*%
%ADD21R,1.5500X0.6000*%
%ADD22R,1.0000X1.3000*%
%ADD23R,0.9000X0.8000*%
%ADD24R,0.8000X0.9000*%
%ADD25R,2.1000X1.1000*%
%ADD26R,1.6000X1.7000*%
G04:AMPARAMS|DCode=27|XSize=2mm|YSize=3.2mm|CornerRadius=0.5mm|HoleSize=0mm|Usage=FLASHONLY|Rotation=0.000|XOffset=0mm|YOffset=0mm|HoleType=Round|Shape=RoundedRectangle|*
%AMROUNDEDRECTD27*
21,1,2.0000,2.2000,0,0,0.0*
21,1,1.0000,3.2000,0,0,0.0*
1,1,1.0000,0.5000,-1.1000*
1,1,1.0000,-0.5000,-1.1000*
1,1,1.0000,-0.5000,1.1000*
1,1,1.0000,0.5000,1.1000*
%
%ADD27ROUNDEDRECTD27*%
%ADD28R,5.4000X2.9000*%
%ADD29R,1.0000X1.4000*%
%ADD30R,1.4000X1.0000*%
%ADD31R,1.8000X2.1000*%
%ADD32R,2.1000X1.8000*%
G04:AMPARAMS|DCode=33|XSize=0.5mm|YSize=1.05mm|CornerRadius=0.125mm|HoleSize=0mm|Usage=FLASHONLY|Rotation=180.000|XOffset=0mm|YOffset=0mm|HoleType=Round|Shape=RoundedRectangle|*
%AMROUNDEDRECTD33*
21,1,0.5000,0.8000,0,0,180.0*
21,1,0.2500,1.0500,0,0,180.0*
1,1,0.2500,-0.1250,0.4000*
1,1,0.2500,0.1250,0.4000*
1,1,0.2500,0.1250,-0.4000*
1,1,0.2500,-0.1250,-0.4000*
%
%ADD33ROUNDEDRECTD33*%
G04:AMPARAMS|DCode=34|XSize=4mm|YSize=4mm|CornerRadius=1mm|HoleSize=0mm|Usage=FLASHONLY|Rotation=90.000|XOffset=0mm|YOffset=0mm|HoleType=Round|Shape=RoundedRectangle|*
%AMROUNDEDRECTD34*
21,1,4.0000,2.0000,0,0,90.0*
21,1,2.0000,4.0000,0,0,90.0*
1,1,2.0000,1.0000,1.0000*
1,1,2.0000,1.0000,-1.0000*
1,1,2.0000,-1.0000,-1.0000*
1,1,2.0000,-1.0000,1.0000*
%
%ADD34ROUNDEDRECTD34*%
G04:AMPARAMS|DCode=35|XSize=1.5mm|YSize=2.5mm|CornerRadius=0.375mm|HoleSize=0mm|Usage=FLASHONLY|Rotation=90.000|XOffset=0mm|YOffset=0mm|HoleType=Round|Shape=RoundedRectangle|*
%AMROUNDEDRECTD35*
21,1,1.5000,1.7500,0,0,90.0*
21,1,0.7500,2.5000,0,0,90.0*
1,1,0.7500,0.8750,0.3750*
1,1,0.7500,0.8750,-0.3750*
1,1,0.7500,-0.8750,-0.3750*
1,1,0.7500,-0.8750,0.3750*
%
%ADD35ROUNDEDRECTD35*%
%ADD36R,0.5000X1.0000*%
%ADD37R,1.5000X0.6000*%
%ADD38R,1.5000X0.2400*%
%ADD39R,0.2400X1.5000*%
%ADD40R,1.1000X1.3000*%
%ADD41R,2.9500X4.9000*%
%ADD42O,0.5500X1.7500*%
%ADD43O,1.7500X0.5500*%
%ADD44R,1.0000X0.8000*%
%ADD45R,1.7000X1.2500*%
%ADD46R,1.2500X1.7000*%
%ADD47C,0.5000*%
%ADD48C,0.3000*%
%ADD49C,0.2000*%
%ADD50C,1.0000*%
%ADD51C,0.2100*%
%ADD52C,0.2540*%
%ADD53C,0.2500*%
%ADD54C,0.4500*%
%ADD55C,0.4000*%
%ADD56C,0.7000*%
%ADD57C,2.0000*%
%ADD58C,5.5000*%
%ADD59C,1.5240*%
%ADD60C,1.6000*%
%ADD61P,1.7318X8X202.5*%
%ADD62C,2.0000*%
%ADD63P,2.1648X8X292.5*%
%ADD64P,2.7060X8X292.5*%
%ADD65C,2.5000*%
%ADD66P,1.7318X8X112.5*%
%ADD67C,3.2500*%
%ADD68C,0.7000*%
G36*
X829800Y48900D02*
Y39800D01*
X827400Y37400D01*
X809600D01*
X802800Y44200D01*
X763100D01*
Y54700D01*
X824000D01*
X829800Y48900D01*
D02*
G37*
G36*
X827600Y30000D02*
X829800Y27800D01*
Y22634D01*
X824000Y16834D01*
X763100D01*
Y26700D01*
X801000D01*
X804300Y30000D01*
X827600Y30000D01*
D02*
G37*
G36*
X1023470Y139098D02*
Y69530D01*
X1037970Y55030D01*
Y31200D01*
X1015970Y9200D01*
X862997Y8958D01*
X859000Y12955D01*
Y24000D01*
X862997Y27997D01*
X975967D01*
X995970Y48000D01*
Y80700D01*
Y159000D01*
X1004534D01*
X1023470Y139098D01*
D02*
G37*
G36*
X921400Y45100D02*
X866500D01*
Y71000D01*
X921400D01*
Y45100D01*
D02*
G37*
G36*
X1045200Y176600D02*
Y133700D01*
X1029800D01*
Y165200D01*
X1022500Y172500D01*
X921300D01*
Y192200D01*
X1029600D01*
X1045200Y176600D01*
D02*
G37*
G36*
X1096400Y121128D02*
X1060398D01*
X1055470Y116200D01*
X1044500Y116100D01*
Y122000D01*
X1050270D01*
X1059970Y131700D01*
X1096400D01*
Y121128D01*
D02*
G37*
G36*
X1049300Y109300D02*
X1059665Y98935D01*
X1103400Y98935D01*
Y73200D01*
X1074900Y73200D01*
X1044700Y103400D01*
X1030500Y103400D01*
Y109300D01*
X1049300Y109300D01*
D02*
G37*
D10*
X685400Y1430070D02*
D03*
Y1417070D02*
D03*
X443200D02*
D03*
Y1430070D02*
D03*
X200200D02*
D03*
Y1417070D02*
D03*
X236600Y635900D02*
D03*
Y648900D02*
D03*
X210300Y649000D02*
D03*
Y662000D02*
D03*
X223400D02*
D03*
Y649000D02*
D03*
X546100Y693801D02*
D03*
Y680801D02*
D03*
X608900Y707601D02*
D03*
Y694601D02*
D03*
X640800Y785300D02*
D03*
Y772300D02*
D03*
X640800Y760801D02*
D03*
Y747801D02*
D03*
X577000Y658999D02*
D03*
Y671999D02*
D03*
X640800Y734800D02*
D03*
Y721800D02*
D03*
X521000Y694899D02*
D03*
Y707899D02*
D03*
X547300Y785499D02*
D03*
Y798499D02*
D03*
X521000Y719100D02*
D03*
X521000Y732100D02*
D03*
X535500Y798201D02*
D03*
Y785201D02*
D03*
X542067Y647767D02*
D03*
X542067Y634767D02*
D03*
X555433Y647767D02*
D03*
X555433Y634767D02*
D03*
X593567Y244101D02*
D03*
Y231101D02*
D03*
X580167Y244101D02*
D03*
Y231101D02*
D03*
X566767Y244101D02*
D03*
Y231101D02*
D03*
X605300Y310300D02*
D03*
X605300Y323300D02*
D03*
X766900Y133301D02*
D03*
Y120301D02*
D03*
X919600Y696850D02*
D03*
Y709850D02*
D03*
X766900Y157401D02*
D03*
Y144401D02*
D03*
X339600Y649200D02*
D03*
Y662200D02*
D03*
X326500D02*
D03*
Y649200D02*
D03*
X352800Y649100D02*
D03*
Y636100D02*
D03*
X352850Y591800D02*
D03*
Y578800D02*
D03*
X326550Y604900D02*
D03*
Y591900D02*
D03*
X339650D02*
D03*
Y604900D02*
D03*
X236650Y578600D02*
D03*
Y591600D02*
D03*
X223450Y604700D02*
D03*
Y591700D02*
D03*
X210350D02*
D03*
Y604700D02*
D03*
X210300Y535200D02*
D03*
Y548200D02*
D03*
X223400D02*
D03*
Y535200D02*
D03*
X236600Y522100D02*
D03*
Y535100D02*
D03*
X339600Y535400D02*
D03*
Y548400D02*
D03*
X326500D02*
D03*
Y535400D02*
D03*
X352800Y535300D02*
D03*
Y522300D02*
D03*
X352800Y478100D02*
D03*
Y465100D02*
D03*
X326500Y491200D02*
D03*
Y478200D02*
D03*
X339600D02*
D03*
Y491200D02*
D03*
X236600Y464900D02*
D03*
Y477900D02*
D03*
X223400Y491000D02*
D03*
Y478000D02*
D03*
X210300D02*
D03*
Y491000D02*
D03*
X295800Y420400D02*
D03*
Y433400D02*
D03*
X282700D02*
D03*
Y420400D02*
D03*
X929133Y763850D02*
D03*
X929133Y750850D02*
D03*
X929133Y726549D02*
D03*
X929133Y739549D02*
D03*
X915900Y763850D02*
D03*
Y750850D02*
D03*
Y726549D02*
D03*
Y739549D02*
D03*
X929133Y998300D02*
D03*
X929133Y985300D02*
D03*
Y960999D02*
D03*
X929133Y973999D02*
D03*
X915900Y998300D02*
D03*
Y985300D02*
D03*
Y960999D02*
D03*
Y973999D02*
D03*
Y810199D02*
D03*
Y823199D02*
D03*
Y847500D02*
D03*
Y834500D02*
D03*
X929133Y810199D02*
D03*
X929133Y823199D02*
D03*
X929133Y847500D02*
D03*
X929133Y834500D02*
D03*
X309000Y420300D02*
D03*
Y407300D02*
D03*
D11*
X742200Y1383100D02*
D03*
X729200D02*
D03*
Y1396400D02*
D03*
X742200D02*
D03*
X487000Y1383100D02*
D03*
X500000D02*
D03*
Y1396400D02*
D03*
X487000D02*
D03*
X257000D02*
D03*
X244000D02*
D03*
Y1383100D02*
D03*
X257000D02*
D03*
X224401Y636900D02*
D03*
X211401D02*
D03*
X546100Y705900D02*
D03*
X533100Y705900D02*
D03*
X577699Y693600D02*
D03*
X590699D02*
D03*
X590701Y706800D02*
D03*
X577701D02*
D03*
X533099Y719100D02*
D03*
X546099D02*
D03*
X519999Y681800D02*
D03*
X532999D02*
D03*
X533100Y668600D02*
D03*
X546100D02*
D03*
X534699Y772800D02*
D03*
X547699D02*
D03*
X546100Y732300D02*
D03*
X533100Y732300D02*
D03*
X528600Y746400D02*
D03*
X541600Y746400D02*
D03*
X528600Y759600D02*
D03*
X541600Y759600D02*
D03*
X718500Y271000D02*
D03*
X705500D02*
D03*
X735917Y323251D02*
D03*
X722917D02*
D03*
X639318Y310051D02*
D03*
X626318D02*
D03*
X639318Y323251D02*
D03*
X626318D02*
D03*
X945801Y704300D02*
D03*
X932801D02*
D03*
X327601Y637100D02*
D03*
X340601D02*
D03*
X327651Y579800D02*
D03*
X340651D02*
D03*
X224451Y579600D02*
D03*
X211451D02*
D03*
X224401Y523100D02*
D03*
X211401D02*
D03*
X327601Y523300D02*
D03*
X340601D02*
D03*
X327601Y466100D02*
D03*
X340601D02*
D03*
X224401Y465900D02*
D03*
X211401D02*
D03*
X283801Y408300D02*
D03*
X296801D02*
D03*
X1049101Y664033D02*
D03*
X1036101Y664033D02*
D03*
X1011800Y664033D02*
D03*
X1024800Y664033D02*
D03*
X1049101Y650800D02*
D03*
X1036101D02*
D03*
X1011800D02*
D03*
X1024800D02*
D03*
X1026201Y977536D02*
D03*
X1013201Y977536D02*
D03*
X988900Y977536D02*
D03*
X1001900Y977536D02*
D03*
X1026201Y990769D02*
D03*
X1013201D02*
D03*
X988900D02*
D03*
X1001900D02*
D03*
D12*
X362200Y149500D02*
D03*
Y173000D02*
D03*
X893970Y20200D02*
D03*
Y43700D02*
D03*
X872970Y20200D02*
D03*
Y43700D02*
D03*
X914970D02*
D03*
Y20200D02*
D03*
D13*
X189200Y651700D02*
D03*
X305400Y651900D02*
D03*
X305450Y594600D02*
D03*
X189250Y594400D02*
D03*
X189200Y537900D02*
D03*
X305400Y538100D02*
D03*
X305400Y480900D02*
D03*
X189200Y480700D02*
D03*
X261600Y423100D02*
D03*
D14*
X189200Y626700D02*
D03*
X305400Y626900D02*
D03*
X305450Y569600D02*
D03*
X189250Y569400D02*
D03*
X189200Y512900D02*
D03*
X305400Y513100D02*
D03*
X305400Y455900D02*
D03*
X189200Y455700D02*
D03*
X261600Y398100D02*
D03*
D15*
X271400Y637000D02*
D03*
Y656000D02*
D03*
X249400D02*
D03*
X249400Y646500D02*
D03*
X249400Y637000D02*
D03*
X271400Y646500D02*
D03*
X507001Y657267D02*
D03*
X507001Y638267D02*
D03*
X529001D02*
D03*
X529001Y647767D02*
D03*
X529001Y657267D02*
D03*
X507001Y647767D02*
D03*
X387600Y646700D02*
D03*
X365600Y637200D02*
D03*
X365600Y646700D02*
D03*
X365600Y656200D02*
D03*
X387600D02*
D03*
Y637200D02*
D03*
X387650Y589400D02*
D03*
X365650Y579900D02*
D03*
X365650Y589400D02*
D03*
X365650Y598900D02*
D03*
X387650D02*
D03*
Y579900D02*
D03*
X271450Y579700D02*
D03*
Y598700D02*
D03*
X249450D02*
D03*
X249450Y589200D02*
D03*
X249450Y579700D02*
D03*
X271450Y589200D02*
D03*
X271400Y523200D02*
D03*
Y542200D02*
D03*
X249400D02*
D03*
X249400Y532700D02*
D03*
X249400Y523200D02*
D03*
X271400Y532700D02*
D03*
X387600Y532900D02*
D03*
X365600Y523400D02*
D03*
X365600Y532900D02*
D03*
X365600Y542400D02*
D03*
X387600D02*
D03*
Y523400D02*
D03*
Y475700D02*
D03*
X365600Y466200D02*
D03*
X365600Y475700D02*
D03*
X365600Y485200D02*
D03*
X387600D02*
D03*
Y466200D02*
D03*
X271400Y466000D02*
D03*
Y485000D02*
D03*
X249400D02*
D03*
X249400Y475500D02*
D03*
X249400Y466000D02*
D03*
X271400Y475500D02*
D03*
X343800Y417900D02*
D03*
X321800Y408400D02*
D03*
X321800Y417900D02*
D03*
X321800Y427400D02*
D03*
X343800D02*
D03*
Y408400D02*
D03*
X732270Y129770D02*
D03*
Y110770D02*
D03*
X754270D02*
D03*
Y120270D02*
D03*
Y129770D02*
D03*
D16*
X232650Y621500D02*
D03*
X210650D02*
D03*
X326850Y621700D02*
D03*
X348850D02*
D03*
X326900Y564400D02*
D03*
X348900D02*
D03*
X232700Y564200D02*
D03*
X210700D02*
D03*
X232650Y507700D02*
D03*
X210650D02*
D03*
X326850Y507900D02*
D03*
X348850D02*
D03*
X326850Y450700D02*
D03*
X348850D02*
D03*
X232650Y450500D02*
D03*
X210650D02*
D03*
X283050Y392900D02*
D03*
X305050D02*
D03*
D17*
X632700Y708500D02*
D03*
X642200Y686500D02*
D03*
X623200D02*
D03*
X600100Y681000D02*
D03*
X609600Y659000D02*
D03*
X590600Y659000D02*
D03*
X632700Y681000D02*
D03*
X642200Y659000D02*
D03*
X623200Y659000D02*
D03*
D18*
X654750Y285151D02*
D03*
Y297850D02*
D03*
Y310550D02*
D03*
Y323251D02*
D03*
X708750D02*
D03*
Y310550D02*
D03*
Y297850D02*
D03*
Y285151D02*
D03*
X551300Y258151D02*
D03*
Y270851D02*
D03*
Y283550D02*
D03*
Y296250D02*
D03*
X605300D02*
D03*
Y283550D02*
D03*
Y270851D02*
D03*
Y258151D02*
D03*
X1011800Y598050D02*
D03*
Y610750D02*
D03*
Y623450D02*
D03*
Y636150D02*
D03*
X1065800D02*
D03*
Y623450D02*
D03*
Y610750D02*
D03*
Y598050D02*
D03*
X1026201Y1043519D02*
D03*
Y1030819D02*
D03*
Y1018119D02*
D03*
Y1005419D02*
D03*
X972201D02*
D03*
Y1018119D02*
D03*
Y1030819D02*
D03*
Y1043519D02*
D03*
X983470Y131750D02*
D03*
Y119050D02*
D03*
Y106350D02*
D03*
Y93650D02*
D03*
X1037470D02*
D03*
Y106350D02*
D03*
Y119050D02*
D03*
Y131750D02*
D03*
D19*
X863150Y763850D02*
D03*
X875850D02*
D03*
X888550D02*
D03*
X901250D02*
D03*
Y709850D02*
D03*
X888550D02*
D03*
X875850D02*
D03*
X863150D02*
D03*
X863150Y998300D02*
D03*
X875850D02*
D03*
X888550D02*
D03*
X901250D02*
D03*
Y944300D02*
D03*
X888550D02*
D03*
X875850D02*
D03*
X863150D02*
D03*
Y847500D02*
D03*
X875850D02*
D03*
X888550D02*
D03*
X901250D02*
D03*
Y793500D02*
D03*
X888550D02*
D03*
X875850D02*
D03*
X863150D02*
D03*
D20*
X728717Y310151D02*
D03*
Y285151D02*
D03*
D21*
X619300Y721800D02*
D03*
Y734500D02*
D03*
Y747200D02*
D03*
Y759900D02*
D03*
Y772600D02*
D03*
Y785300D02*
D03*
Y798000D02*
D03*
X565300Y721800D02*
D03*
Y734500D02*
D03*
Y747200D02*
D03*
Y759900D02*
D03*
Y772600D02*
D03*
Y785300D02*
D03*
Y798000D02*
D03*
D22*
X342500Y149500D02*
D03*
X319000D02*
D03*
D23*
X980470Y148666D02*
D03*
X980470Y166700D02*
D03*
X1091970Y117734D02*
D03*
X1091970Y99700D02*
D03*
X716230Y120270D02*
D03*
X716230Y102236D02*
D03*
X700730Y120270D02*
D03*
X700730Y102236D02*
D03*
X782470Y24200D02*
D03*
X782470Y42234D02*
D03*
X797970Y24200D02*
D03*
X797970Y42234D02*
D03*
X316700Y952900D02*
D03*
X316700Y934866D02*
D03*
X624030Y575700D02*
D03*
X624030Y593734D02*
D03*
X588030Y370234D02*
D03*
X588030Y352200D02*
D03*
X683530Y369200D02*
D03*
X683530Y351166D02*
D03*
X632030D02*
D03*
X632030Y369200D02*
D03*
X704030Y575700D02*
D03*
X704030Y593734D02*
D03*
X608030Y575700D02*
D03*
X608030Y593734D02*
D03*
X272700Y179500D02*
D03*
X272700Y161466D02*
D03*
X343900Y167866D02*
D03*
X343900Y185900D02*
D03*
X328500Y167866D02*
D03*
X328500Y185900D02*
D03*
X1055970Y50700D02*
D03*
X1055970Y68734D02*
D03*
X1040470Y68480D02*
D03*
X1040470Y50446D02*
D03*
X889000Y1413556D02*
D03*
X889000Y1431590D02*
D03*
X256634Y1098266D02*
D03*
X256634Y1116300D02*
D03*
X408300Y934866D02*
D03*
X408300Y952900D02*
D03*
X410000Y816766D02*
D03*
X410000Y834800D02*
D03*
X410000Y756266D02*
D03*
X410000Y774300D02*
D03*
X410000Y698066D02*
D03*
X410000Y716100D02*
D03*
X604030Y352200D02*
D03*
X604030Y370234D02*
D03*
X191500Y348066D02*
D03*
X191500Y366100D02*
D03*
X191500Y398034D02*
D03*
X191500Y380000D02*
D03*
X293129Y356100D02*
D03*
X293129Y338066D02*
D03*
X277714Y356100D02*
D03*
X277714Y338066D02*
D03*
X262300Y356100D02*
D03*
X262300Y338066D02*
D03*
X185600Y230100D02*
D03*
X185600Y212066D02*
D03*
X170100Y230100D02*
D03*
X170100Y212066D02*
D03*
X370200Y356100D02*
D03*
X370200Y338066D02*
D03*
X354786Y356100D02*
D03*
X354786Y338066D02*
D03*
X339371Y356100D02*
D03*
X339371Y338066D02*
D03*
X323957Y356100D02*
D03*
X323957Y338066D02*
D03*
X308543Y356100D02*
D03*
X308543Y338066D02*
D03*
X260800Y227280D02*
D03*
X260800Y209246D02*
D03*
X245400Y209500D02*
D03*
X245400Y227534D02*
D03*
X665030Y369200D02*
D03*
X648530D02*
D03*
Y356700D02*
D03*
X665030D02*
D03*
X700000Y1418666D02*
D03*
X700000Y1436700D02*
D03*
X457800Y1418666D02*
D03*
X457800Y1436700D02*
D03*
X214800Y1418666D02*
D03*
X214800Y1436700D02*
D03*
X671300Y1388966D02*
D03*
X671300Y1407000D02*
D03*
X429100Y1388966D02*
D03*
X429100Y1407000D02*
D03*
X652800Y1418999D02*
D03*
X652800Y1400966D02*
D03*
X410600Y1418999D02*
D03*
X410600Y1400966D02*
D03*
X601800Y1374808D02*
D03*
X601800Y1356774D02*
D03*
X359600Y1374808D02*
D03*
X359600Y1356774D02*
D03*
X186100Y1388966D02*
D03*
X186100Y1407000D02*
D03*
X167600Y1418999D02*
D03*
X167600Y1400966D02*
D03*
X116600Y1374808D02*
D03*
X116600Y1356774D02*
D03*
D24*
X908136Y580300D02*
D03*
X926170Y580300D02*
D03*
X147100Y1065800D02*
D03*
X165134Y1065800D02*
D03*
X231334Y1017500D02*
D03*
X213300Y1017500D02*
D03*
X292300Y809400D02*
D03*
X310334Y809400D02*
D03*
X292300Y748900D02*
D03*
X310334Y748900D02*
D03*
X292300Y690200D02*
D03*
X310334Y690200D02*
D03*
X604030Y336600D02*
D03*
X585996Y336600D02*
D03*
X214500Y311800D02*
D03*
X196466Y311800D02*
D03*
X388234Y322600D02*
D03*
X370200Y322600D02*
D03*
X192900Y263880D02*
D03*
X210934Y263880D02*
D03*
X192900Y248530D02*
D03*
X210934Y248530D02*
D03*
X393700Y278900D02*
D03*
X411734Y278900D02*
D03*
X214500Y295900D02*
D03*
X196466Y295900D02*
D03*
X411700Y218900D02*
D03*
X393666Y218900D02*
D03*
X362666Y173000D02*
D03*
X380700Y173000D02*
D03*
X700730Y135400D02*
D03*
X718764Y135400D02*
D03*
X939970Y43700D02*
D03*
X958004Y43700D02*
D03*
X972970Y43700D02*
D03*
X991004Y43700D02*
D03*
X955436Y1391700D02*
D03*
X973470Y1391700D02*
D03*
X1006034Y1391700D02*
D03*
X988000Y1391700D02*
D03*
X973216Y1336700D02*
D03*
X955182Y1336700D02*
D03*
X936216Y1336700D02*
D03*
X918182Y1336700D02*
D03*
X885966Y1336700D02*
D03*
X904000Y1336700D02*
D03*
X936216Y1391700D02*
D03*
X918182Y1391700D02*
D03*
X890204Y580800D02*
D03*
X872170Y580800D02*
D03*
X908060Y507700D02*
D03*
X890026Y507700D02*
D03*
X260266Y1075600D02*
D03*
X278300Y1075600D02*
D03*
X214500Y327600D02*
D03*
X196466Y327600D02*
D03*
X388234Y307100D02*
D03*
X370200Y307100D02*
D03*
X225320Y279380D02*
D03*
X207286Y279380D02*
D03*
X225320Y233080D02*
D03*
X207286Y233080D02*
D03*
X429034Y310100D02*
D03*
X411000Y310100D02*
D03*
X429034Y294600D02*
D03*
X411000Y294600D02*
D03*
X206500Y365300D02*
D03*
X224534Y365300D02*
D03*
X206500Y380800D02*
D03*
X224534Y380800D02*
D03*
X225320Y248530D02*
D03*
X243354Y248530D02*
D03*
X225320Y263880D02*
D03*
X243354Y263880D02*
D03*
X671434Y1374166D02*
D03*
X653400Y1374166D02*
D03*
X429234Y1374166D02*
D03*
X411200Y1374166D02*
D03*
X670834Y1433900D02*
D03*
X652800Y1433900D02*
D03*
X428634Y1433900D02*
D03*
X410600Y1433900D02*
D03*
X186234Y1374166D02*
D03*
X168200Y1374166D02*
D03*
X185634Y1433900D02*
D03*
X167600Y1433900D02*
D03*
X671434Y1358500D02*
D03*
X653400Y1358500D02*
D03*
X429234Y1358500D02*
D03*
X411200Y1358500D02*
D03*
X617233Y1374300D02*
D03*
X635267Y1374300D02*
D03*
X375033Y1374300D02*
D03*
X393067Y1374300D02*
D03*
X460838Y1210200D02*
D03*
X478872Y1210200D02*
D03*
X419424Y1210200D02*
D03*
X437458Y1210200D02*
D03*
X186234Y1358500D02*
D03*
X168200Y1358500D02*
D03*
X132033Y1374300D02*
D03*
X150067Y1374300D02*
D03*
D25*
X1069970Y126700D02*
D03*
Y93700D02*
D03*
X1085800Y511430D02*
D03*
Y544430D02*
D03*
X1055800Y511430D02*
D03*
Y544430D02*
D03*
D26*
X1003970Y362700D02*
D03*
X968970D02*
D03*
X1003970Y227700D02*
D03*
X968970D02*
D03*
X1039470Y156700D02*
D03*
X1004470D02*
D03*
D27*
X968970Y327000D02*
D03*
X1023470D02*
D03*
X968970Y290700D02*
D03*
X1023470D02*
D03*
D28*
X894370Y77700D02*
D03*
Y177700D02*
D03*
D29*
X624267Y1418999D02*
D03*
X635267Y1393000D02*
D03*
X613267D02*
D03*
X382067Y1418999D02*
D03*
X393067Y1393000D02*
D03*
X371067D02*
D03*
X139067Y1418999D02*
D03*
X150067Y1393000D02*
D03*
X128067D02*
D03*
D30*
X957900Y1421000D02*
D03*
X983900Y1432000D02*
D03*
Y1410000D02*
D03*
X934000Y1306000D02*
D03*
X908000Y1295000D02*
D03*
Y1317000D02*
D03*
X934000Y1420590D02*
D03*
X908000Y1409590D02*
D03*
Y1431590D02*
D03*
D31*
X1012970Y257190D02*
D03*
X968970D02*
D03*
X995770Y514800D02*
D03*
X951770D02*
D03*
X995770Y570300D02*
D03*
X951770D02*
D03*
X674514Y1280766D02*
D03*
X718514D02*
D03*
X432314D02*
D03*
X476314D02*
D03*
X189314D02*
D03*
X233314D02*
D03*
D32*
X1023270Y564800D02*
D03*
Y520800D02*
D03*
D33*
X730300Y1437600D02*
D03*
X749300D02*
D03*
Y1410600D02*
D03*
X739800D02*
D03*
X730300D02*
D03*
X739952Y1437524D02*
D03*
X488100Y1437600D02*
D03*
X507100D02*
D03*
Y1410600D02*
D03*
X497600D02*
D03*
X488100D02*
D03*
X497752Y1437524D02*
D03*
X245100Y1437600D02*
D03*
X264100D02*
D03*
Y1410600D02*
D03*
X254600D02*
D03*
X245100D02*
D03*
X254752Y1437524D02*
D03*
D34*
X704470Y47200D02*
D03*
D35*
X754470D02*
D03*
Y70200D02*
D03*
Y24200D02*
D03*
D36*
X702600Y1403766D02*
D03*
X683600D02*
D03*
Y1381766D02*
D03*
X693100D02*
D03*
X702600D02*
D03*
X460400Y1403766D02*
D03*
X441400D02*
D03*
Y1381766D02*
D03*
X450900D02*
D03*
X460400D02*
D03*
X217400Y1403766D02*
D03*
X198400D02*
D03*
Y1381766D02*
D03*
X207900D02*
D03*
X217400D02*
D03*
D37*
X926170Y563200D02*
D03*
Y550500D02*
D03*
X926170Y525100D02*
D03*
X926170Y537800D02*
D03*
X872170D02*
D03*
X872170Y525100D02*
D03*
X872170Y550500D02*
D03*
Y563200D02*
D03*
D38*
X361600Y273700D02*
D03*
Y278700D02*
D03*
X361600Y268700D02*
D03*
Y263700D02*
D03*
X361600Y258700D02*
D03*
X361600Y253700D02*
D03*
X361600Y223700D02*
D03*
X361600Y228700D02*
D03*
X361600Y233700D02*
D03*
Y238700D02*
D03*
X361600Y248700D02*
D03*
X361600Y243700D02*
D03*
X276600D02*
D03*
X276600Y248700D02*
D03*
Y238700D02*
D03*
Y233700D02*
D03*
Y228700D02*
D03*
Y223700D02*
D03*
Y253700D02*
D03*
Y258700D02*
D03*
Y263700D02*
D03*
Y268700D02*
D03*
Y278700D02*
D03*
Y273700D02*
D03*
D39*
X296600Y208700D02*
D03*
X291600D02*
D03*
X301600D02*
D03*
X306600D02*
D03*
X311600D02*
D03*
X316600D02*
D03*
X346600D02*
D03*
X341600D02*
D03*
X336600D02*
D03*
X331600D02*
D03*
X321600D02*
D03*
X326600D02*
D03*
X296600Y293700D02*
D03*
X291600D02*
D03*
X301600D02*
D03*
X306600D02*
D03*
X311600D02*
D03*
X316600D02*
D03*
X346600D02*
D03*
X341600D02*
D03*
X336600D02*
D03*
X331600D02*
D03*
X321600D02*
D03*
X326600D02*
D03*
D40*
X411700Y237500D02*
D03*
Y260500D02*
D03*
X393700D02*
D03*
Y237500D02*
D03*
D41*
X1010470Y112700D02*
D03*
D42*
X608030Y555700D02*
D03*
X616030D02*
D03*
X624030D02*
D03*
X632030D02*
D03*
X640030D02*
D03*
X648030D02*
D03*
X656030D02*
D03*
X664030D02*
D03*
X672030Y555700D02*
D03*
X680030Y555700D02*
D03*
X688030D02*
D03*
X696030D02*
D03*
X704030D02*
D03*
X712030D02*
D03*
X720030D02*
D03*
X728030Y555700D02*
D03*
Y402700D02*
D03*
X720030Y402700D02*
D03*
X712030D02*
D03*
X704030D02*
D03*
X696030D02*
D03*
X688030D02*
D03*
X680030D02*
D03*
X672030Y402700D02*
D03*
X664030Y402700D02*
D03*
X656030D02*
D03*
X648030D02*
D03*
X640030D02*
D03*
X632030D02*
D03*
X624030D02*
D03*
X616030D02*
D03*
X608030D02*
D03*
D43*
X744530Y539200D02*
D03*
X744530Y531200D02*
D03*
Y523200D02*
D03*
Y515200D02*
D03*
Y507200D02*
D03*
Y499200D02*
D03*
Y491200D02*
D03*
X744530Y483200D02*
D03*
X744530Y475200D02*
D03*
Y467200D02*
D03*
Y459200D02*
D03*
Y451200D02*
D03*
Y443200D02*
D03*
Y435200D02*
D03*
Y427200D02*
D03*
Y419200D02*
D03*
X591530D02*
D03*
Y427200D02*
D03*
Y435200D02*
D03*
Y443200D02*
D03*
Y451200D02*
D03*
Y459200D02*
D03*
Y467200D02*
D03*
Y475200D02*
D03*
X591530Y483200D02*
D03*
X591530Y491200D02*
D03*
Y499200D02*
D03*
Y507200D02*
D03*
Y515200D02*
D03*
Y523200D02*
D03*
Y531200D02*
D03*
X591530Y539200D02*
D03*
D44*
X241300Y1090900D02*
D03*
X176300D02*
D03*
Y1116300D02*
D03*
X241300Y1116300D02*
D03*
X278300Y1033500D02*
D03*
X213300D02*
D03*
Y1058900D02*
D03*
X278300Y1058900D02*
D03*
X394800Y927500D02*
D03*
X329800D02*
D03*
Y952900D02*
D03*
X394800Y952900D02*
D03*
X394800Y809400D02*
D03*
X329800D02*
D03*
Y834800D02*
D03*
X394800Y834800D02*
D03*
X394800Y748900D02*
D03*
X329800D02*
D03*
Y774300D02*
D03*
X394800Y774300D02*
D03*
X394800Y690700D02*
D03*
X329800D02*
D03*
Y716100D02*
D03*
X394800Y716100D02*
D03*
D45*
X293700Y149500D02*
D03*
Y179500D02*
D03*
X101486Y993400D02*
D03*
Y963400D02*
D03*
Y1013400D02*
D03*
Y1043400D02*
D03*
X143800Y1035814D02*
D03*
Y1005814D02*
D03*
Y975814D02*
D03*
Y945814D02*
D03*
X168500Y975814D02*
D03*
Y1005814D02*
D03*
X271400Y952900D02*
D03*
Y982900D02*
D03*
X196300D02*
D03*
Y952900D02*
D03*
X296400D02*
D03*
Y922900D02*
D03*
D46*
X122200Y219600D02*
D03*
X152200D02*
D03*
X422200Y195500D02*
D03*
X392200D02*
D03*
X681656Y1307100D02*
D03*
X711656D02*
D03*
X681656Y1331500D02*
D03*
X711656D02*
D03*
X439456Y1307100D02*
D03*
X469456D02*
D03*
X439456Y1331500D02*
D03*
X469456D02*
D03*
X196456Y1307100D02*
D03*
X226456D02*
D03*
X196456Y1331500D02*
D03*
X226456D02*
D03*
X129200Y1065800D02*
D03*
X99200D02*
D03*
X129200Y1090900D02*
D03*
X159200D02*
D03*
X166200Y1033500D02*
D03*
X196200D02*
D03*
X218800Y982900D02*
D03*
X248800D02*
D03*
X274400Y809400D02*
D03*
X244400D02*
D03*
X214400D02*
D03*
X184400D02*
D03*
X214400Y834500D02*
D03*
X244400D02*
D03*
X274400D02*
D03*
X304400D02*
D03*
X274400Y748900D02*
D03*
X244400D02*
D03*
X214400D02*
D03*
X184400D02*
D03*
X214400Y774000D02*
D03*
X244400D02*
D03*
X274400D02*
D03*
X304400D02*
D03*
X274400Y690200D02*
D03*
X244400D02*
D03*
X214400D02*
D03*
X184400D02*
D03*
X214400Y715300D02*
D03*
X244400D02*
D03*
X274400D02*
D03*
X304400D02*
D03*
D47*
X328200Y925900D02*
X329800Y927500D01*
X319900Y925900D02*
X328200D01*
X316700Y929100D02*
Y934866D01*
Y929100D02*
X319900Y925900D01*
X682264Y102236D02*
X700730D01*
X635000Y149500D02*
X682264Y102236D01*
X362200Y149500D02*
X635000D01*
X342500D02*
X362200D01*
X308134D02*
X319000D01*
X293700D02*
X308134D01*
X448800Y1210200D02*
X460838D01*
X481272Y1210200D02*
X511121D01*
X437458Y1210200D02*
X448800D01*
X392191D02*
X419424D01*
X129200Y1065800D02*
Y1090900D01*
X101486Y993400D02*
Y1013400D01*
X99200Y1045686D02*
Y1065800D01*
X101486Y947284D02*
Y963400D01*
Y947284D02*
X153970Y894800D01*
X143800Y975814D02*
X168500D01*
X143800Y1005814D02*
X168500D01*
X143800Y1035814D02*
X163886D01*
X153970Y856700D02*
X176100Y878830D01*
Y916600D01*
X146886Y945814D02*
X176100Y916600D01*
X153970Y818600D02*
X191370Y856000D01*
X236100D01*
X214400Y809400D02*
Y834500D01*
X244400Y809400D02*
Y834500D01*
X274400Y809400D02*
Y834500D01*
X214400Y748900D02*
Y774000D01*
X244400Y748900D02*
Y774000D01*
X214400Y690200D02*
Y715300D01*
X244400Y690200D02*
Y715300D01*
X274400Y690200D02*
Y715300D01*
X153970Y742400D02*
X177900D01*
X700730Y120270D02*
Y135400D01*
Y102236D02*
X716230D01*
X723736D01*
X732270Y110770D01*
X754270Y120270D02*
X766869D01*
X274400Y748900D02*
Y768900D01*
X153970Y704300D02*
X154070Y704200D01*
X170400D01*
X236100Y856000D02*
X257500Y877400D01*
Y916300D01*
X201514Y952900D02*
X220900D01*
X257500Y916300D01*
X196300Y982900D02*
X218800D01*
X170400Y704200D02*
X184400Y690200D01*
X177900Y742400D02*
X184400Y748900D01*
X199200Y955214D02*
X201514Y952900D01*
X248800Y982900D02*
X271400D01*
Y952900D02*
X296400D01*
X798056Y42234D02*
X812470D01*
X782470D02*
X797879D01*
X754470Y47200D02*
X777504D01*
X782470Y42234D01*
X911900Y594400D02*
X944600D01*
X941470Y525100D02*
X951770Y514800D01*
Y570300D02*
X965366Y570300D01*
X1032170Y520800D02*
X1055800Y544430D01*
X1085800Y544430D02*
Y558000D01*
X1079000Y564800D02*
X1085800Y558000D01*
X1023270Y564800D02*
X1079000D01*
X1085800Y479111D02*
Y511430D01*
X1067079Y460390D02*
X1085800Y479111D01*
X1038900Y437769D02*
X1067079Y409590D01*
X1038900Y437769D02*
Y494530D01*
X1055800Y511430D01*
X908136Y590636D02*
X911900Y594400D01*
X908136Y580300D02*
Y590636D01*
X944600Y594400D02*
X951770Y587230D01*
Y570300D02*
Y587230D01*
X926170Y525100D02*
X926170D01*
X941470D01*
X1003970Y362700D02*
X1016336D01*
X153970Y780500D02*
X183635Y810165D01*
X754470Y24200D02*
X796970D01*
X700730Y120270D02*
X754270D01*
X951770Y515400D02*
X965366D01*
D48*
X279700Y149500D02*
X293700D01*
X272700Y156500D02*
X279700Y149500D01*
X272700Y156500D02*
Y161466D01*
X863150Y823199D02*
X915900Y823199D01*
X929133D02*
X961371D01*
X929133Y834500D02*
X935000D01*
X173400Y569400D02*
X189250D01*
X165500Y577300D02*
X173400Y569400D01*
X45870Y577300D02*
X165500D01*
X528600Y747366D02*
Y759600D01*
X402766Y177032D02*
Y195500D01*
X398734Y173000D02*
X402766Y177032D01*
X521000Y739766D02*
X527634Y746400D01*
X528600D01*
X532900Y732100D02*
X532900D01*
X521000D02*
X532900D01*
X532900D02*
X533100Y732300D01*
X319900Y748900D02*
X320400Y749400D01*
X319900Y748900D02*
X329800D01*
X319900Y809400D02*
X320400Y809900D01*
X319900Y809400D02*
X329800D01*
X1055970Y50700D02*
X1068970D01*
X903970Y179700D02*
X1026970D01*
X914970Y43700D02*
X939970D01*
X894470D02*
X914970D01*
X872970Y20200D02*
X893970D01*
Y43700D02*
X894470D01*
X872970D02*
X893970D01*
X1054134Y598050D02*
X1065800D01*
X960535Y1043519D02*
X972201D01*
X875850Y986634D02*
X875850Y998300D01*
X173200Y242500D02*
X185600Y230100D01*
X142000Y242500D02*
X173200D01*
X42170Y342330D02*
X142000Y242500D01*
X42170Y342330D02*
Y357500D01*
X704030Y593734D02*
Y603300D01*
X608030Y593734D02*
Y603300D01*
X408300Y952900D02*
Y962466D01*
X394800Y952900D02*
X408300D01*
X394800Y764734D02*
Y774300D01*
X410000D01*
X388234Y322600D02*
Y349366D01*
X381500Y356100D02*
X388234Y349366D01*
X411700Y260500D02*
X421966D01*
X214500Y304300D02*
Y311800D01*
Y295900D02*
Y304300D01*
X754470Y47200D02*
X758436Y43234D01*
X648030Y369700D02*
X648530Y369200D01*
X588030Y370234D02*
X604030D01*
X1037470Y131750D02*
Y154700D01*
X1039470Y156700D01*
X980470Y166700D02*
Y179600D01*
X1034970Y161200D02*
X1039470Y156700D01*
X1026970Y179700D02*
X1034970Y171700D01*
Y161200D02*
Y171700D01*
X893970Y20200D02*
X914970D01*
X939970Y43700D02*
X939970Y43700D01*
X1040470Y68480D02*
X1055716D01*
X1055970Y68734D01*
X1040470Y68480D02*
Y90650D01*
X1037470Y93650D02*
X1040470Y90650D01*
X656030Y402700D02*
X656730Y402000D01*
X665030Y369200D02*
X666530Y370700D01*
X601800Y1374808D02*
X616725D01*
X617233Y1374300D01*
X613267Y1378266D02*
Y1393000D01*
Y1378266D02*
X616725Y1374808D01*
X624267Y1418999D02*
X652800D01*
Y1433900D01*
X670834Y1407466D02*
Y1433900D01*
Y1407466D02*
X671300Y1407000D01*
Y1388966D02*
X675034Y1392700D01*
X698500D01*
X702600Y1396800D01*
Y1403766D01*
X671434Y1374166D02*
X681634D01*
X653400Y1358500D02*
Y1374166D01*
X671434Y1358500D02*
Y1374166D01*
X749300Y1410600D02*
X755500D01*
X739800Y1398800D02*
Y1410600D01*
Y1398800D02*
X742200Y1396400D01*
Y1383100D02*
Y1396400D01*
X730300Y1397500D02*
Y1410600D01*
X729200Y1396400D02*
X730300Y1397500D01*
X729200Y1383100D02*
Y1396400D01*
X683600Y1403766D02*
Y1415270D01*
X685400Y1417070D01*
X698404D02*
X700000Y1418666D01*
X685400Y1417070D02*
X698404D01*
X687800Y1436700D02*
X700000D01*
X635267Y1374300D02*
Y1393000D01*
X711656Y1307100D02*
X711656Y1307100D01*
X681656Y1307100D02*
X681656Y1307100D01*
X702600Y1379300D02*
Y1381766D01*
Y1379300D02*
X711656Y1370244D01*
Y1331500D02*
Y1370244D01*
X638767Y1389500D02*
X647800D01*
X652800Y1394500D01*
Y1400966D01*
X635267Y1393000D02*
X638767Y1389500D01*
X685400Y1439100D02*
X687800Y1436700D01*
X685400Y1430070D02*
Y1439100D01*
X721700Y1396400D02*
X729200D01*
X742200Y1383100D02*
X750000D01*
X693100Y1372200D02*
Y1381766D01*
X700000Y1418666D02*
X709034D01*
X721700Y1406000D01*
Y1396400D02*
Y1406000D01*
X466834Y1418666D02*
X479500Y1406000D01*
X500000Y1383100D02*
Y1396400D01*
X456300Y1392700D02*
X460400Y1396800D01*
X432834Y1392700D02*
X456300D01*
X460400Y1379300D02*
X469456Y1370244D01*
X393067Y1393000D02*
X396567Y1389500D01*
X445600Y1436700D02*
X457800D01*
Y1418666D02*
X466834D01*
X456204Y1417070D02*
X457800Y1418666D01*
X479500Y1396400D02*
Y1406000D01*
Y1396400D02*
X487000D01*
X497600Y1398800D02*
X500000Y1396400D01*
X460400Y1396800D02*
Y1403766D01*
X500000Y1383100D02*
X507800D01*
X460400Y1379300D02*
Y1381766D01*
X439456Y1307100D02*
X439456Y1307100D01*
X382067Y1418999D02*
X410600D01*
X396567Y1389500D02*
X405600D01*
X488100Y1397500D02*
Y1410600D01*
X497600Y1398800D02*
Y1410600D01*
X507100D02*
X513300D01*
X487000Y1383100D02*
Y1396400D01*
X469456Y1331500D02*
Y1370244D01*
X443200Y1430070D02*
Y1439100D01*
X441400Y1403766D02*
Y1415270D01*
X450900Y1372200D02*
Y1381766D01*
X428634Y1407466D02*
Y1433900D01*
X429234Y1358500D02*
Y1374166D01*
X429100Y1388966D02*
X432834Y1392700D01*
X410600Y1418999D02*
Y1433900D01*
X411200Y1358500D02*
Y1374166D01*
X405600Y1389500D02*
X410600Y1394500D01*
X393067Y1374300D02*
Y1393000D01*
X371067Y1378266D02*
Y1393000D01*
X487000Y1396400D02*
X488100Y1397500D01*
X469456Y1307100D02*
X469456Y1307100D01*
X443200Y1439100D02*
X445600Y1436700D01*
X443200Y1417070D02*
X456204D01*
X441400Y1415270D02*
X443200Y1417070D01*
X428634Y1407466D02*
X429100Y1407000D01*
X429234Y1374166D02*
X439434D01*
X410600Y1394500D02*
Y1400966D01*
X371067Y1378266D02*
X374525Y1374808D01*
X375033Y1374300D01*
X359600Y1374808D02*
X374525D01*
X223834Y1418666D02*
X236500Y1406000D01*
X257000Y1383100D02*
Y1396400D01*
X213300Y1392700D02*
X217400Y1396800D01*
X189834Y1392700D02*
X213300D01*
X217400Y1379300D02*
X226456Y1370244D01*
X150067Y1393000D02*
X153567Y1389500D01*
X202600Y1436700D02*
X214800D01*
Y1418666D02*
X223834D01*
X213204Y1417070D02*
X214800Y1418666D01*
X236500Y1396400D02*
Y1406000D01*
Y1396400D02*
X244000D01*
X254600Y1398800D02*
X257000Y1396400D01*
X217400Y1396800D02*
Y1403766D01*
X257000Y1383100D02*
X264800D01*
X217400Y1379300D02*
Y1381766D01*
X196456Y1307100D02*
X196456Y1307100D01*
X139067Y1418999D02*
X167600D01*
X153567Y1389500D02*
X162600D01*
X245100Y1397500D02*
Y1410600D01*
X254600Y1398800D02*
Y1410600D01*
X264100D02*
X270300D01*
X244000Y1383100D02*
Y1396400D01*
X226456Y1331500D02*
Y1370244D01*
X200200Y1430070D02*
Y1439100D01*
X198400Y1403766D02*
Y1415270D01*
X207900Y1372200D02*
Y1381766D01*
X185634Y1407466D02*
Y1433900D01*
X186234Y1358500D02*
Y1374166D01*
X186100Y1388966D02*
X189834Y1392700D01*
X167600Y1418999D02*
Y1433900D01*
X168200Y1358500D02*
Y1374166D01*
X162600Y1389500D02*
X167600Y1394500D01*
X150067Y1374300D02*
Y1393000D01*
X244000Y1396400D02*
X245100Y1397500D01*
X226456Y1307100D02*
X226456Y1307100D01*
X200200Y1439100D02*
X202600Y1436700D01*
X200200Y1417070D02*
X213204D01*
X198400Y1415270D02*
X200200Y1417070D01*
X185634Y1407466D02*
X186100Y1407000D01*
X186234Y1374166D02*
X196434D01*
X167600Y1394500D02*
Y1400966D01*
X131525Y1374808D02*
X132033Y1374300D01*
X116600Y1374808D02*
X131525D01*
X889000Y1431590D02*
X908000D01*
X988000Y1391700D02*
Y1405900D01*
X983900Y1410000D02*
X988000Y1405900D01*
X955436Y1391700D02*
Y1418536D01*
X957900Y1421000D01*
X936216Y1391700D02*
Y1418374D01*
X934000Y1420590D02*
X936216Y1418374D01*
Y1308216D02*
Y1336700D01*
X934000Y1306000D02*
X936216Y1308216D01*
X904000Y1336700D02*
X908000Y1332700D01*
Y1317000D02*
Y1332700D01*
X918436Y1382900D02*
Y1391446D01*
X918182Y1391700D02*
X918436Y1391446D01*
X973216Y1382900D02*
Y1391446D01*
X973470Y1391700D01*
X973216Y1336700D02*
Y1345500D01*
X918182Y1336700D02*
X918436Y1336954D01*
X875600Y1260200D02*
Y1400156D01*
X889000Y1413556D01*
X824851Y1227200D02*
X884400D01*
X1006034Y1348834D01*
Y1391700D01*
X885966Y1249366D02*
Y1336700D01*
X807851Y1210200D02*
X824851Y1227200D01*
X116600Y1272500D02*
Y1356774D01*
Y1272500D02*
X155800Y1233300D01*
X267491D01*
X290591Y1210200D01*
X254752Y1430648D02*
Y1437524D01*
Y1430648D02*
X260900Y1424500D01*
X274800D01*
X315991Y1383309D01*
Y1210200D02*
Y1383309D01*
X359600Y1228409D02*
Y1356774D01*
X341391Y1210200D02*
X359600Y1228409D01*
X497752Y1429648D02*
Y1437524D01*
Y1429648D02*
X503500Y1423900D01*
X519800D01*
X546300Y1397400D01*
Y1269400D02*
Y1397400D01*
X533700Y1256800D02*
X546300Y1269400D01*
X413391Y1256800D02*
X533700D01*
X366791Y1210200D02*
X413391Y1256800D01*
X601800Y1224679D02*
Y1356774D01*
X587321Y1210200D02*
X601800Y1224679D01*
X739952Y1429848D02*
Y1437524D01*
Y1429848D02*
X745400Y1424400D01*
X760500D01*
X787500Y1397400D01*
Y1266400D02*
Y1397400D01*
X776400Y1255300D02*
X787500Y1266400D01*
X657821Y1255300D02*
X776400D01*
X612721Y1210200D02*
X657821Y1255300D01*
X264100Y1437600D02*
Y1449600D01*
X269900Y1455400D01*
X744900D02*
X749300Y1451000D01*
Y1437600D02*
Y1451000D01*
X507100Y1437600D02*
Y1455400D01*
X507100Y1455400D01*
X269900D02*
X507100D01*
X744900D01*
X507100Y1437600D02*
X531800D01*
X560000Y1409400D01*
Y1233679D02*
Y1409400D01*
X536521Y1210200D02*
X560000Y1233679D01*
X481272Y1210200D02*
X481272Y1210200D01*
X245100Y1437600D02*
Y1447166D01*
X488100Y1437600D02*
Y1447166D01*
X730300Y1437600D02*
Y1447166D01*
X561921Y1210200D02*
X574700Y1222979D01*
Y1447166D01*
X441400Y1371000D02*
Y1372200D01*
Y1381766D01*
X439434Y1374166D02*
X441400Y1372200D01*
X683600Y1371000D02*
Y1372200D01*
Y1381766D01*
X681634Y1374166D02*
X683600Y1372200D01*
X198400Y1371000D02*
Y1372200D01*
Y1381766D01*
X196434Y1374166D02*
X198400Y1372200D01*
X653400Y1374166D02*
Y1377300D01*
X665066Y1388966D01*
X671300D01*
X422866D02*
X429100D01*
X411200Y1377300D02*
X422866Y1388966D01*
X411200Y1374166D02*
Y1377300D01*
X179866Y1388966D02*
X186100D01*
X168200Y1377300D02*
X179866Y1388966D01*
X168200Y1374166D02*
Y1377300D01*
X918436Y1336954D02*
Y1345500D01*
X908000Y1285970D02*
Y1295000D01*
X908000Y1400560D02*
Y1409590D01*
X983900Y1422970D02*
Y1432000D01*
X955182Y1336700D02*
Y1346730D01*
X159200Y1090900D02*
X165134Y1084966D01*
Y1065800D02*
Y1084966D01*
X129200Y1065800D02*
X147100D01*
X154600Y1116300D02*
X176300D01*
X129200Y1090900D02*
X154600Y1116300D01*
X159200Y1090900D02*
X176300D01*
X241300Y1116300D02*
X256634D01*
X165134Y1065800D02*
X174700D01*
X99200Y1045686D02*
X101486Y1043400D01*
X191600Y1058900D02*
X213300D01*
X231334Y1017500D02*
Y1040866D01*
X196200Y1033500D02*
X213300D01*
X166200D02*
X191600Y1058900D01*
X213300D02*
X231334Y1040866D01*
X213300Y1017500D02*
Y1033500D01*
X143800Y945814D02*
X146886D01*
X203734Y1017500D02*
X213300D01*
X260266Y1075600D02*
Y1085166D01*
X278300Y1058900D02*
Y1066966D01*
Y1075600D01*
X310334Y809400D02*
X319900D01*
X304400Y834500D02*
X310334Y828566D01*
Y809400D02*
Y828566D01*
X274400Y809400D02*
X292300D01*
X310334Y748900D02*
X319900D01*
X304400Y768900D02*
X310334Y762966D01*
X274400Y748900D02*
X292300D01*
X385234Y690700D02*
X394800D01*
X304400Y715300D02*
X310334Y709366D01*
Y690200D02*
Y709366D01*
X274400Y690200D02*
X292300D01*
X274400Y715300D02*
X290500Y731400D01*
X314500D01*
X394800Y706534D02*
Y716100D01*
X210300Y662000D02*
X223400D01*
X243400D02*
X249400Y656000D01*
X223400Y662000D02*
X243400D01*
X210300Y649000D02*
X223400D01*
X239000Y646500D02*
X249400D01*
X236600Y648900D02*
X239000Y646500D01*
X223400Y649000D02*
X236500D01*
X236600Y648900D01*
X224401Y636900D02*
X235600D01*
X236600Y635900D01*
X232650Y621500D02*
X235600Y624450D01*
X199400Y636900D02*
X211401D01*
X189200Y626700D02*
X199400Y636900D01*
X189200Y651700D02*
X191900Y649000D01*
X210300D01*
X256834Y1116300D02*
X266400D01*
X256634Y1088798D02*
Y1098266D01*
Y1088798D02*
X260266Y1085166D01*
X411734Y260534D02*
Y278900D01*
X343900Y167866D02*
X343900Y167866D01*
X362200Y173000D02*
X380700D01*
X362200D02*
Y195500D01*
X370200Y307100D02*
Y322600D01*
X262300Y356100D02*
X277714D01*
X277714Y356100D01*
X308543Y356100D02*
X323957D01*
X323957Y356100D02*
X339371D01*
X323957Y356100D02*
X323957Y356100D01*
X339371D02*
X339371Y356100D01*
X277714D02*
X285422D01*
X293129D01*
X347400Y349034D02*
Y356100D01*
X339371D02*
X347400D01*
X718764Y135400D02*
X726640D01*
X732270Y129770D01*
X766869Y120270D02*
X766900Y120301D01*
Y133301D02*
Y144401D01*
X754270Y129770D02*
X763369D01*
X766900Y133301D01*
X310334Y762966D02*
Y768066D01*
X274400Y768900D02*
Y773000D01*
X310334Y748900D02*
Y762966D01*
Y690200D02*
X319900D01*
X26970Y282100D02*
X37670Y292800D01*
X315600Y637100D02*
X327601D01*
X355200Y646700D02*
X365600D01*
X359600Y662200D02*
X365600Y656200D01*
X305400Y651900D02*
X308100Y649200D01*
X348850Y621700D02*
X351800Y624650D01*
X326500Y649200D02*
X339600D01*
X352800Y649100D02*
X355200Y646700D01*
X339600Y649200D02*
X352700D01*
X352800Y649100D01*
X340601Y637100D02*
X351800D01*
X352800Y636100D01*
X308100Y649200D02*
X326500D01*
Y662200D02*
X339600D01*
X359600D01*
X305400Y626900D02*
X315600Y637100D01*
X235600Y624450D02*
Y636900D01*
X235700Y637000D01*
X249400D01*
X351800Y624650D02*
Y637100D01*
X351900Y637200D01*
X365600D01*
X305450Y569600D02*
X315650Y579800D01*
X339650Y604900D02*
X359650D01*
X326550D02*
X339650D01*
X308150Y591900D02*
X326550D01*
X351850Y579800D02*
X352850Y578800D01*
X340651Y579800D02*
X351850D01*
X352750Y591900D02*
X352850Y591800D01*
X339650Y591900D02*
X352750D01*
X352850Y591800D02*
X355250Y589400D01*
X326550Y591900D02*
X339650D01*
X348900Y564400D02*
X351850Y567350D01*
X305450Y594600D02*
X308150Y591900D01*
X359650Y604900D02*
X365650Y598900D01*
X355250Y589400D02*
X365650D01*
X315650Y579800D02*
X327651D01*
X191950Y591700D02*
X210350D01*
X189250Y594400D02*
X191950Y591700D01*
X189250Y569400D02*
X199450Y579600D01*
X211451D01*
X232700Y564200D02*
X235650Y567150D01*
Y579600D02*
X236650Y578600D01*
X224451Y579600D02*
X235650D01*
X236550Y591700D02*
X236650Y591600D01*
X223450Y591700D02*
X236550D01*
X236650Y591600D02*
X239050Y589200D01*
X249450D01*
X210350Y591700D02*
X223450D01*
Y604700D02*
X243450D01*
X249450Y598700D01*
X210350Y604700D02*
X223450D01*
X235650Y567150D02*
Y579600D01*
X235750Y579700D01*
X249450D01*
X351850Y567350D02*
Y579800D01*
X351950Y579900D01*
X365650D01*
X210300Y548200D02*
X223400D01*
X243400D02*
X249400Y542200D01*
X223400Y548200D02*
X243400D01*
X210300Y535200D02*
X223400D01*
X239000Y532700D02*
X249400D01*
X236600Y535100D02*
X239000Y532700D01*
X223400Y535200D02*
X236500D01*
X236600Y535100D01*
X224401Y523100D02*
X235600D01*
X236600Y522100D01*
X232650Y507700D02*
X235600Y510650D01*
X199400Y523100D02*
X211401D01*
X189200Y512900D02*
X199400Y523100D01*
X189200Y537900D02*
X191900Y535200D01*
X210300D01*
X315600Y523300D02*
X327601D01*
X355200Y532900D02*
X365600D01*
X359600Y548400D02*
X365600Y542400D01*
X305400Y538100D02*
X308100Y535400D01*
X348850Y507900D02*
X351800Y510850D01*
X326500Y535400D02*
X339600D01*
X352800Y535300D02*
X355200Y532900D01*
X339600Y535400D02*
X352700D01*
X352800Y535300D01*
X340601Y523300D02*
X351800D01*
X352800Y522300D01*
X308100Y535400D02*
X326500D01*
Y548400D02*
X339600D01*
X359600D01*
X305400Y513100D02*
X315600Y523300D01*
X235600Y510650D02*
Y523100D01*
X235700Y523200D01*
X249400D01*
X351800Y510850D02*
Y523300D01*
X351900Y523400D01*
X365600D01*
X153970Y596200D02*
X171170Y613400D01*
X291900D01*
X305400Y626900D01*
X153970Y634300D02*
X161570Y626700D01*
X189200D01*
X26970Y596200D02*
X45870Y577300D01*
X153970Y558100D02*
X155470Y556600D01*
X292450D02*
X305450Y569600D01*
X153970Y520000D02*
X161070Y512900D01*
X189200D01*
X26970Y520000D02*
X47370Y499600D01*
X291900D01*
X305400Y513100D01*
X305400Y455900D02*
X315600Y466100D01*
X339600Y491200D02*
X359600D01*
X326500D02*
X339600D01*
X308100Y478200D02*
X326500D01*
X351800Y466100D02*
X352800Y465100D01*
X340601Y466100D02*
X351800D01*
X352700Y478200D02*
X352800Y478100D01*
X339600Y478200D02*
X352700D01*
X352800Y478100D02*
X355200Y475700D01*
X326500Y478200D02*
X339600D01*
X348850Y450700D02*
X351800Y453650D01*
X305400Y480900D02*
X308100Y478200D01*
X359600Y491200D02*
X365600Y485200D01*
X355200Y475700D02*
X365600D01*
X315600Y466100D02*
X327601D01*
X191900Y478000D02*
X210300D01*
X189200Y480700D02*
X191900Y478000D01*
X189200Y455700D02*
X199400Y465900D01*
X211401D01*
X232650Y450500D02*
X235600Y453450D01*
Y465900D02*
X236600Y464900D01*
X224401Y465900D02*
X235600D01*
X236500Y478000D02*
X236600Y477900D01*
X223400Y478000D02*
X236500D01*
X236600Y477900D02*
X239000Y475500D01*
X249400D01*
X210300Y478000D02*
X223400D01*
Y491000D02*
X243400D01*
X249400Y485000D01*
X210300Y491000D02*
X223400D01*
X235600Y453450D02*
Y465900D01*
X235700Y466000D01*
X249400D01*
X351800Y453650D02*
Y466100D01*
X351900Y466200D01*
X365600D01*
X153970Y481900D02*
X180170Y455700D01*
X189200D01*
X153970Y443800D02*
X155470Y442300D01*
X291800D01*
X305400Y455900D01*
X271800Y408300D02*
X283801D01*
X311400Y417900D02*
X321800D01*
X315800Y433400D02*
X321800Y427400D01*
X261600Y423100D02*
X264300Y420400D01*
X305050Y392900D02*
X308000Y395850D01*
X282700Y420400D02*
X295800D01*
X309000Y420300D02*
X311400Y417900D01*
X295800Y420400D02*
X308900D01*
X309000Y420300D01*
X296801Y408300D02*
X308000D01*
X309000Y407300D01*
X264300Y420400D02*
X282700D01*
Y433400D02*
X295800D01*
X315800D01*
X261600Y398100D02*
X271800Y408300D01*
X308000Y395850D02*
Y408300D01*
X308100Y408400D01*
X321800D01*
X26970Y443800D02*
X121300D01*
X255900Y398100D02*
X261600D01*
X121300Y443800D02*
X138900Y426200D01*
X227800D01*
X255900Y398100D01*
X278300Y1033500D02*
Y1043066D01*
X314500Y731400D02*
X329800Y716100D01*
X319900Y690200D02*
X329300D01*
X329800Y690700D01*
X385234Y748900D02*
X394800D01*
X394800Y825234D02*
Y834800D01*
X385234Y809400D02*
X394800D01*
X394800Y716100D02*
X410000D01*
X394800Y834800D02*
X410000D01*
X314500Y790100D02*
X329800Y774800D01*
X290500Y790100D02*
X314500D01*
X274400Y774000D02*
X290500Y790100D01*
X314500Y850600D02*
X329800Y835300D01*
X290500Y850600D02*
X314500D01*
X274400Y834500D02*
X290500Y850600D01*
X394800Y927500D02*
Y937066D01*
X408300Y925300D02*
Y934866D01*
X296400Y922900D02*
X308366Y934866D01*
X316700D01*
X106470Y235330D02*
Y242300D01*
X161400Y351600D02*
X164870D01*
X271400Y656000D02*
X280966D01*
X271400Y646500D02*
X280966D01*
X271400Y637000D02*
X280966D01*
X387600Y656200D02*
X397166D01*
X387600Y646700D02*
X397166D01*
X387600Y637200D02*
X397166D01*
X387650Y598900D02*
X397216D01*
X387650Y589400D02*
X397216D01*
X387650Y579900D02*
X397216D01*
X387600Y542400D02*
X397166D01*
X387600Y532900D02*
X397166D01*
X387600Y523400D02*
X397166D01*
X387600Y485200D02*
X397166D01*
X387600Y475700D02*
X397166D01*
X387600Y466200D02*
X397166D01*
X343800Y408400D02*
X353366D01*
X343800Y417900D02*
X353366D01*
X343800Y427400D02*
X353366D01*
X271400Y466000D02*
X280966D01*
X271400Y475500D02*
X280966D01*
X271400Y485000D02*
X280966D01*
X271400Y523200D02*
X280966D01*
X271400Y532700D02*
X280966D01*
X271400Y542200D02*
X280966D01*
X271450Y579700D02*
X281016D01*
X271450Y589200D02*
X281016D01*
X271450Y598700D02*
X281016D01*
X393666Y218900D02*
Y237466D01*
X393700Y260500D02*
Y278900D01*
X411700Y218900D02*
Y237500D01*
X1011800Y664033D02*
X1011800Y650800D01*
X1011800Y636150D02*
X1011800Y650800D01*
X1024800D02*
X1036101D01*
X1049101D02*
Y664033D01*
X1049101Y650800D02*
X1049101Y650800D01*
X1055350Y623450D02*
X1065800D01*
X1049101Y629699D02*
X1055350Y623450D01*
X1049101Y629699D02*
Y650800D01*
X1054134Y610750D02*
X1065800Y610750D01*
X1011800Y623450D02*
X1023466D01*
X1065500Y636450D02*
X1065800Y636150D01*
Y643500D01*
X901250Y709850D02*
X908600D01*
X901250D02*
X901550Y710150D01*
X888550Y752184D02*
Y763850D01*
X875850Y709850D02*
Y721516D01*
X894799Y726549D02*
X915900D01*
X888550Y720300D02*
X894799Y726549D01*
X888550Y709850D02*
Y720300D01*
X915900Y726549D02*
X915900Y726549D01*
X929133D01*
X915900Y739549D02*
Y750850D01*
X901250Y763850D02*
X915900Y763850D01*
X929133Y763850D01*
X972201Y998069D02*
Y1005419D01*
X972501Y1005119D01*
X1014535Y1018119D02*
X1026201D01*
X972201Y1030819D02*
X983867D01*
X988900Y990769D02*
Y1011870D01*
X982651Y1018119D02*
X988900Y1011870D01*
X972201Y1018119D02*
X982651D01*
X988900Y990769D02*
X988900Y990769D01*
X988900Y977536D02*
Y990769D01*
X1001900D02*
X1013201D01*
X1026201D02*
X1026201Y1005419D01*
X1026201Y990769D02*
X1026201Y977536D01*
X901250Y944300D02*
X908600D01*
X901250D02*
X901550Y944600D01*
X888550Y986634D02*
Y998300D01*
X875850Y944300D02*
X875850Y955966D01*
X894799Y960999D02*
X915900D01*
X888550Y954750D02*
X894799Y960999D01*
X888550Y944300D02*
Y954750D01*
X915900Y960999D02*
X915900Y960999D01*
X929133D01*
X915900Y973999D02*
Y985300D01*
X901250Y998300D02*
X915900D01*
X929133D01*
X915900Y847500D02*
X929133D01*
X901250D02*
X915900D01*
Y823199D02*
Y834500D01*
Y810199D02*
X929133D01*
X915900Y810199D02*
X915900Y810199D01*
X888550Y793500D02*
Y803950D01*
X894799Y810199D01*
X915900D01*
X875850Y793500D02*
X875850Y805166D01*
X888550Y835834D02*
Y847500D01*
X901250Y793500D02*
X901550Y793800D01*
X901250Y793500D02*
X908600D01*
X210650Y621500D02*
X220216D01*
X210700Y564200D02*
X220266D01*
X210650Y507700D02*
X220216D01*
X210650Y450500D02*
X220216D01*
X283050Y392900D02*
X292616D01*
X326850Y450700D02*
X336416D01*
X189200Y651700D02*
Y662266D01*
X305400Y651900D02*
Y662466D01*
Y480900D02*
Y491466D01*
X305400Y538100D02*
Y548666D01*
X305450Y594600D02*
Y605166D01*
X189200Y480700D02*
Y491266D01*
X189200Y537900D02*
Y548466D01*
X189250Y594400D02*
Y604966D01*
X261600Y423100D02*
Y433666D01*
X214500Y304300D02*
X225066D01*
X392200Y195500D02*
X402766D01*
X315200Y191234D02*
X320000Y196034D01*
X315200Y170800D02*
X318134Y167866D01*
X381466Y237500D02*
X393700D01*
X326850Y507900D02*
X337416D01*
X326900Y564400D02*
X337466D01*
X326850Y621700D02*
X337416D01*
X241300Y1090900D02*
Y1100466D01*
X321800Y427400D02*
Y436966D01*
X365600Y485200D02*
Y494766D01*
X365600Y542400D02*
Y551966D01*
X365650Y598900D02*
Y608466D01*
X365600Y656200D02*
Y665766D01*
X552734Y759900D02*
X565300D01*
X541600Y746400D02*
Y759600D01*
X541600Y759600D02*
X541600Y759600D01*
X606734Y759900D02*
X619300D01*
Y747200D02*
X624900D01*
X638501Y760801D01*
X640800D01*
X623200Y686500D02*
X627200D01*
X632700Y681000D01*
X638200Y686500D02*
X642200D01*
X632700Y681000D02*
X638200Y686500D01*
X608900Y688700D02*
Y694601D01*
X601200Y681000D02*
X608900Y688700D01*
X623200Y659000D02*
Y663200D01*
X605400Y681000D02*
X623200Y663200D01*
X601200Y681000D02*
X605400D01*
X600100D02*
X601200D01*
X577000Y658999D02*
X590599D01*
X590600Y659000D01*
X642200Y657300D02*
Y659000D01*
X633600Y648700D02*
X642200Y657300D01*
X600900Y648700D02*
X633600D01*
X590600Y659000D02*
X600900Y648700D01*
X642200Y686500D02*
Y703900D01*
X650000Y711700D01*
Y741400D01*
X643599Y747801D02*
X650000Y741400D01*
X640800Y747801D02*
X643599Y747801D01*
X631801Y707601D02*
X632700Y708500D01*
X577699Y693600D02*
Y706798D01*
X577701Y706800D01*
X567434Y671999D02*
X577000D01*
X606400Y659000D02*
X609600Y659000D01*
X593401Y671999D02*
X606400Y659000D01*
X529001Y657267D02*
X542167D01*
X546100Y661200D01*
Y668600D01*
X546099Y719100D02*
Y732299D01*
X546100Y732300D01*
Y693801D02*
Y705900D01*
X521000Y719100D02*
X533099D01*
X521000Y707899D02*
X531101Y707899D01*
X533100Y705900D01*
X521000Y707899D02*
X521000Y719100D01*
X547699Y772800D02*
X565100D01*
X565300Y772600D01*
X547300Y785499D02*
X565101D01*
X565300Y785300D01*
X547300Y798499D02*
X564801D01*
X565300Y798000D01*
X535500Y785201D02*
X547002Y785201D01*
X547300Y785499D01*
X533100Y668600D02*
Y681699D01*
X532999Y681800D02*
X533100Y681699D01*
X529001Y647767D02*
X542067D01*
X542067Y634767D02*
X555433D01*
X542067Y634767D02*
X542067Y634767D01*
X529001Y638267D02*
X532501Y634767D01*
X542067D01*
X619300Y785300D02*
Y798000D01*
Y785300D02*
X640800D01*
Y760801D02*
Y772300D01*
X640800Y760801D02*
X640800Y760801D01*
X546100Y732300D02*
Y735100D01*
X558200Y747200D01*
X565300D01*
X546100Y680801D02*
X548701D01*
X565300Y697400D01*
Y721800D01*
Y734500D02*
X577866D01*
X555433Y647767D02*
X564999D01*
X519999Y649901D02*
Y681800D01*
Y649901D02*
X522133Y647767D01*
X590699Y693600D02*
X592800D01*
X606801Y707601D01*
X532900Y732100D02*
X533100Y732300D01*
X521000Y732100D02*
X521000Y739766D01*
X590699Y684634D02*
Y693600D01*
X547300Y798499D02*
Y803800D01*
X544200Y806900D02*
X547300Y803800D01*
X515201Y694899D02*
X521000D01*
X512200Y697900D02*
X515201Y694899D01*
X637934Y734800D02*
X640800Y734800D01*
X632734Y740000D02*
X637934Y734800D01*
X606734Y772600D02*
X619300Y772600D01*
X577701Y706800D02*
Y713201D01*
X599000Y734500D01*
X619300D01*
X590701Y706800D02*
Y713101D01*
X599400Y721800D01*
X619300D01*
X512200Y697900D02*
Y799600D01*
X519500Y806900D01*
X544200D01*
X526534Y798201D02*
X535500D01*
X525733Y772800D02*
X534699D01*
X708750Y285151D02*
X728717D01*
X708750Y297850D02*
X716417D01*
X728717Y310151D01*
X735917Y317351D02*
Y323251D01*
X728717Y310151D02*
X735917Y317351D01*
X718500Y271000D02*
X728717Y281217D01*
Y285151D01*
X639318Y323251D02*
X654750D01*
X639818Y310550D02*
X654750D01*
X639318Y310051D02*
X639818Y310550D01*
X626318Y310051D02*
Y323251D01*
X634866Y285151D02*
X654750D01*
X626318Y293699D02*
X634866Y285151D01*
X626318Y293699D02*
Y310051D01*
X591418Y283550D02*
X605300D01*
X580167Y272300D02*
X591418Y283550D01*
X580167Y244101D02*
Y272300D01*
X596618Y258151D02*
X605300D01*
X593567Y255100D02*
X596618Y258151D01*
X593567Y244101D02*
Y255100D01*
X551300Y270851D02*
X561617D01*
X566767Y265700D01*
Y244101D02*
Y265700D01*
X559166Y231101D02*
X566767D01*
X551300Y238967D02*
X559166Y231101D01*
X551300Y258151D02*
X551300Y238967D01*
X580167Y231101D02*
X593567D01*
X566767D02*
X580167D01*
X605300Y296250D02*
Y310300D01*
X1001900Y947770D02*
Y977536D01*
Y947770D02*
X1092970Y856700D01*
X1013201Y974569D02*
Y977536D01*
Y974569D02*
X1092970Y894800D01*
X929133Y973999D02*
X935701D01*
X965970Y943730D01*
Y894800D02*
Y943730D01*
X929133Y985300D02*
X935500D01*
X965970Y856700D02*
X985500Y876230D01*
Y935300D01*
X935500Y985300D02*
X985500Y935300D01*
X1036101Y664033D02*
Y685531D01*
X1092970Y742400D01*
X1024800Y664033D02*
Y712330D01*
X1092970Y780500D01*
X963119Y739549D02*
X965970Y742400D01*
X936320Y750850D02*
X965970Y780500D01*
X961371Y823199D02*
X965970Y818600D01*
X1074070Y837500D02*
X1092970Y818600D01*
X935000Y834500D02*
X938000Y837500D01*
X1074070D01*
X155470Y556600D02*
X292450D01*
X249400Y542200D02*
X258966D01*
X249450Y598700D02*
X259016D01*
X249400Y656000D02*
X258966D01*
X249400Y485000D02*
X258966D01*
X782451Y1210200D02*
X807751Y1235500D01*
X872100D01*
X885966Y1249366D01*
X757051Y1210200D02*
X790851Y1244000D01*
X859400D01*
X875600Y1260200D01*
X945801Y704300D02*
X965970D01*
X875850Y699650D02*
X878650Y696850D01*
X919600D02*
X925351D01*
X932801Y704300D01*
X878650Y696850D02*
X919600D01*
X908600Y709850D02*
X919600D01*
X929133Y750850D02*
X936320D01*
X929133Y739549D02*
X963119D01*
X875850Y699650D02*
Y709850D01*
X1023270Y520800D02*
X1032170D01*
X1036101Y598050D02*
Y650800D01*
X1011800Y598050D02*
X1036101D01*
X863150Y739549D02*
Y763850D01*
Y739549D02*
X915900Y739549D01*
X863150Y823199D02*
Y847500D01*
Y973999D02*
Y998300D01*
Y973999D02*
X915900Y973999D01*
X1001900Y1043519D02*
X1026201D01*
X1001900Y990769D02*
X1001900Y1043519D01*
X497435Y657267D02*
X507001D01*
X497435Y647767D02*
X507001D01*
X497435Y638267D02*
X507001Y638267D01*
X872170Y537800D02*
Y550500D01*
Y537800D02*
X882300D01*
X890026Y530074D01*
Y507700D02*
Y530074D01*
X908060Y507700D02*
X918300D01*
X926170Y515570D01*
Y525100D01*
X890204Y580800D02*
X907804Y563200D01*
X926170D01*
X131525Y1374808D02*
Y1389541D01*
X128067Y1393000D02*
X131525Y1389541D01*
X754270Y70400D02*
X754470Y70200D01*
X766900Y157401D02*
Y158900D01*
X812700Y204700D01*
X980970D01*
X1003970Y227700D01*
X362200Y195500D02*
X373600D01*
X272700Y179500D02*
X293700D01*
X315200D01*
Y170800D02*
Y179500D01*
Y191234D01*
X376766Y242200D02*
X381466Y237500D01*
X585996Y336600D02*
Y350166D01*
Y326500D02*
Y336600D01*
X421966Y260500D02*
X422266D01*
X605200Y323300D02*
X605300D01*
X615300D01*
X585996Y318904D02*
Y326500D01*
Y318904D02*
X594600Y310300D01*
X605300D01*
X615300Y323300D02*
X626268D01*
X604030Y336600D02*
X610100D01*
X615300Y331400D01*
Y323300D02*
Y331400D01*
X522133Y647767D02*
X529001D01*
X542067D02*
X555433D01*
X546100Y668600D02*
Y680801D01*
X555433Y634767D02*
X564999D01*
X577000Y671999D02*
X593401D01*
X619300Y721800D02*
X640800Y721800D01*
X766869Y112920D02*
Y120270D01*
X166200Y234000D02*
X170100Y230100D01*
X37670Y292800D02*
X80500D01*
X139300Y234000D01*
X166200D01*
X894470Y43700D02*
Y69200D01*
X296400Y952900D02*
X329800D01*
X533100Y681699D02*
Y691265D01*
X410000Y807234D02*
Y816800D01*
Y688534D02*
Y698100D01*
Y746734D02*
Y756300D01*
X797968Y42145D02*
X798056Y42234D01*
X797879D02*
X797968Y42145D01*
X798370Y42134D01*
X541600Y759900D02*
X552734Y759900D01*
X318134Y167866D02*
X343900D01*
X347400Y356100D02*
X381500D01*
X796970Y24200D02*
X797970Y25200D01*
X696300Y323251D02*
X722917D01*
X527634Y746400D02*
X528600Y747366D01*
X606801Y707601D02*
X631801D01*
D49*
X853000Y793500D02*
X863150D01*
X875850Y847500D02*
Y859150D01*
X808900Y499700D02*
Y735900D01*
X776400Y467200D02*
X808900Y499700D01*
X744530Y467200D02*
X776400D01*
X264034Y267200D02*
X265534Y268700D01*
X373266Y273700D02*
X373766Y274200D01*
X361600Y273700D02*
X373266D01*
X373266Y263700D02*
X374766Y265200D01*
X640900Y841500D02*
Y1108400D01*
X629700Y1119600D02*
X640900Y1108400D01*
X334891Y1119600D02*
X629700D01*
X650500Y499200D02*
X731464D01*
X642500Y491200D02*
X650500Y499200D01*
X744530Y419200D02*
X757596D01*
X731464Y427200D02*
X744530D01*
X731464Y499200D02*
X744530D01*
X624030Y402700D02*
Y415630D01*
X616030Y389770D02*
Y402700D01*
X872170Y481170D02*
Y525100D01*
X764400Y373400D02*
X872170Y481170D01*
X711000Y373400D02*
X764400D01*
X899000Y495000D02*
Y542100D01*
X773300Y369300D02*
X899000Y495000D01*
X707900Y369300D02*
X773300D01*
X857400Y479600D02*
Y531600D01*
X755300Y377500D02*
X857400Y479600D01*
X714100Y377500D02*
X755300D01*
X847000Y482500D02*
Y578600D01*
X799700Y435200D02*
X847000Y482500D01*
X744530Y435200D02*
X799700D01*
X861150Y610750D02*
X1011800D01*
X823800Y573400D02*
X861150Y610750D01*
X823800Y486600D02*
Y573400D01*
X832500Y483000D02*
Y572850D01*
X792700Y443200D02*
X832500Y483000D01*
X788400Y451200D02*
X823800Y486600D01*
X816100Y738100D02*
X855700Y777700D01*
X816100Y492300D02*
Y738100D01*
X783000Y459200D02*
X816100Y492300D01*
X801100Y741600D02*
X853000Y793500D01*
X801100Y507000D02*
Y741600D01*
X769300Y475200D02*
X801100Y507000D01*
X793600Y843200D02*
X835600Y885200D01*
X793600Y511900D02*
Y843200D01*
X764900Y483200D02*
X793600Y511900D01*
X786200Y518200D02*
Y851450D01*
X759200Y491200D02*
X786200Y518200D01*
X778700Y859850D02*
X863150Y944300D01*
X778700Y521600D02*
Y859850D01*
X764300Y507200D02*
X778700Y521600D01*
X771700Y1030200D02*
X798600Y1057100D01*
X771700Y525300D02*
Y1030200D01*
X761600Y515200D02*
X771700Y525300D01*
X744530Y443200D02*
X792700D01*
X744530Y451200D02*
X788400D01*
X875850Y763850D02*
Y774750D01*
X872900Y777700D02*
X875850Y774750D01*
X855700Y777700D02*
X872900D01*
X744530Y459200D02*
X783000D01*
X850200Y862800D02*
X872200D01*
X875850Y859150D01*
X744530Y475200D02*
X769300D01*
X835600Y885200D02*
X835700D01*
X744530Y483200D02*
X764900D01*
X744530Y491200D02*
X759200D01*
X744530Y507200D02*
X764300D01*
X1030500Y1057100D02*
X1038000Y1049600D01*
X798600Y1057100D02*
X1030500D01*
X1038000Y1037800D02*
Y1049600D01*
X1031019Y1030819D02*
X1038000Y1037800D01*
X1026201Y1030819D02*
X1031019D01*
X744530Y515200D02*
X761600D01*
X573864Y467200D02*
X591530D01*
X573864Y451200D02*
X591530D01*
X578464Y459200D02*
X591530D01*
X608030Y402700D02*
Y415630D01*
X578600Y419200D02*
X591530D01*
Y427200D02*
X604460D01*
X578599Y443199D02*
X591529D01*
X591530Y443200D01*
X573864Y435200D02*
X591530D01*
X605300Y258151D02*
X616966D01*
X696030Y388370D02*
X711000Y373400D01*
X696030Y388370D02*
Y402700D01*
X688030Y389170D02*
X707900Y369300D01*
X704030Y387570D02*
X714100Y377500D01*
X863600Y537800D02*
X872170D01*
X857400Y531600D02*
X863600Y537800D01*
X877900Y563200D02*
X899000Y542100D01*
X872170Y563200D02*
X877900D01*
X688030Y389170D02*
Y402700D01*
X704030Y387570D02*
Y402700D01*
X720030Y385034D02*
Y402700D01*
X539464Y418800D02*
X588030Y370234D01*
X501200Y418800D02*
X539464D01*
X573864Y523200D02*
X591530D01*
X562460D02*
X573864D01*
X704030Y542634D02*
Y555700D01*
X608030Y542634D02*
Y555700D01*
X656030Y542634D02*
Y555700D01*
X664030D02*
Y568766D01*
X697000Y632600D02*
Y821700D01*
X680030Y615630D02*
X697000Y632600D01*
X680030Y555700D02*
Y615630D01*
X713700Y568100D02*
Y831700D01*
X712030Y566430D02*
X713700Y568100D01*
X712030Y555700D02*
Y566430D01*
X696030Y585734D02*
X704030Y593734D01*
X696030Y555700D02*
Y585734D01*
X704030Y555700D02*
Y575700D01*
X751700Y573500D02*
Y706534D01*
Y573500D02*
X764300Y560900D01*
Y528500D02*
Y560900D01*
X759000Y523200D02*
X764300Y528500D01*
X744530Y523200D02*
X759000D01*
X743800Y571500D02*
Y764734D01*
Y571500D02*
X757800Y557500D01*
Y534000D02*
Y557500D01*
X755000Y531200D02*
X757800Y534000D01*
X744530Y531200D02*
X755000D01*
X735600Y570600D02*
Y825234D01*
Y570600D02*
X744530Y561670D01*
Y539200D02*
Y561670D01*
X693400Y874200D02*
Y962466D01*
Y874200D02*
X728030Y839570D01*
Y555700D02*
Y839570D01*
X659900Y858800D02*
Y1075300D01*
Y1075700D01*
X685000Y871300D02*
X685000Y1050900D01*
X685000Y871300D02*
X720031Y836269D01*
X677000Y868400D02*
Y1059800D01*
Y868400D02*
X713700Y831700D01*
X624030Y593734D02*
X624030Y593734D01*
X608030Y593734D02*
X624030D01*
X608030Y555700D02*
Y575700D01*
X616030Y585734D02*
X624030Y593734D01*
X616030Y555700D02*
Y585734D01*
X624030Y555700D02*
Y575700D01*
X668000Y864500D02*
Y1068200D01*
Y864500D02*
X706000Y826500D01*
Y631500D02*
Y826500D01*
X688030Y613530D02*
X706000Y631500D01*
X688030Y555700D02*
Y613530D01*
X587321Y1082300D02*
Y1099879D01*
X315991Y1100700D02*
X334891Y1119600D01*
X624200Y1113500D02*
X629600Y1108100D01*
X379591Y1113500D02*
X624200D01*
X366791Y1100700D02*
X379591Y1113500D01*
X659900Y858800D02*
X697000Y821700D01*
X651100Y848100D02*
Y1082300D01*
Y848100D02*
X689600Y809600D01*
Y635500D02*
Y809600D01*
X672030Y617930D02*
X689600Y635500D01*
X672030Y555700D02*
Y617930D01*
X640900Y841500D02*
X683300Y799100D01*
Y639700D02*
Y799100D01*
X648030Y604430D02*
X683300Y639700D01*
X648030Y555700D02*
Y604430D01*
X629600Y840200D02*
Y1108100D01*
Y840200D02*
X677000Y792800D01*
Y644900D02*
Y792800D01*
X640030Y607930D02*
X677000Y644900D01*
X640030Y555700D02*
Y607930D01*
X671000Y649100D02*
Y786900D01*
X612721Y845179D02*
X671000Y786900D01*
X612721Y845179D02*
Y1100700D01*
X632030Y610130D02*
X671000Y649100D01*
X632030Y555700D02*
Y610130D01*
X196466Y295900D02*
X196620Y295746D01*
Y279380D02*
Y295746D01*
X202200Y274294D02*
X207286Y279380D01*
X202200Y238800D02*
Y274294D01*
Y238800D02*
X207286Y233714D01*
Y233080D02*
Y233714D01*
X728030Y389634D02*
Y402700D01*
X712030Y389634D02*
Y402700D01*
X411000Y310100D02*
X419266D01*
X411000Y294600D02*
X419266D01*
X202166Y348066D02*
X214500Y335732D01*
Y327600D02*
Y335732D01*
X180834Y398034D02*
X191500D01*
Y348066D02*
X202166D01*
X196620Y279380D02*
X207286D01*
X164870Y326200D02*
X166270Y327600D01*
X196466D01*
Y311800D02*
Y327600D01*
X272100Y218500D02*
X273600Y217000D01*
X220000Y218500D02*
X272100D01*
X218000Y220500D02*
X220000Y218500D01*
X178534Y220500D02*
X218000D01*
X185600Y212066D02*
X197666Y200000D01*
X268800D01*
X302500Y233700D02*
X361600D01*
X268800Y200000D02*
X302500Y233700D01*
X255729Y273700D02*
X276600D01*
X257800Y278700D02*
X276600D01*
X236000Y293429D02*
X255729Y273700D01*
X236000Y293429D02*
Y367500D01*
X241000Y295500D02*
X257800Y278700D01*
X241000Y295500D02*
Y369571D01*
X235021Y375550D02*
X241000Y369571D01*
X232950Y370550D02*
X236000Y367500D01*
X229784Y370550D02*
X232950D01*
X229784Y375550D02*
X235021D01*
X224534Y380800D02*
X229784Y375550D01*
X224534Y365300D02*
X229784Y370550D01*
X201500Y365300D02*
X206500D01*
X200700Y366100D02*
X201500Y365300D01*
X191500Y366100D02*
X200700D01*
X201500Y380800D02*
X206500D01*
X200700Y380000D02*
X201500Y380800D01*
X191500Y380000D02*
X200700D01*
X225320Y233080D02*
Y248530D01*
Y263880D02*
Y279380D01*
X210934Y248530D02*
X225320D01*
X210934Y263880D02*
X225320D01*
X243354Y248530D02*
X248529Y253705D01*
X185930Y265250D02*
Y312550D01*
X181890Y254730D02*
Y306860D01*
X192900Y247350D02*
Y247700D01*
X243354Y263880D02*
X248529Y258705D01*
X182900Y315580D02*
X185930Y312550D01*
X160471Y315580D02*
X182900D01*
X177190Y311560D02*
X181890Y306860D01*
X158010Y311560D02*
X177190D01*
X139470Y336581D02*
X160471Y315580D01*
X156110Y300800D02*
X164870D01*
X154510Y302400D02*
X156110Y300800D01*
X154510Y302400D02*
Y308060D01*
X158010Y311560D01*
X181890Y254730D02*
X188090Y248530D01*
X192900D01*
X185930Y265250D02*
X187300Y263880D01*
X192900D01*
X139470Y336581D02*
Y339000D01*
X648030Y369700D02*
Y402700D01*
X656730Y362900D02*
Y402000D01*
X291600Y293700D02*
Y305366D01*
X301600Y208700D02*
Y220366D01*
X276600Y243700D02*
X288266D01*
X276600Y263700D02*
X288266D01*
X331600Y208700D02*
Y220366D01*
X311600Y208700D02*
Y218700D01*
X309934Y220366D02*
X311600Y218700D01*
X301600Y220366D02*
X309934D01*
X336600Y193200D02*
Y208700D01*
Y193200D02*
X343900Y185900D01*
X326600Y187800D02*
Y208700D01*
Y187800D02*
X328500Y185900D01*
X321600Y197634D02*
Y208700D01*
X320000Y196034D02*
X321600Y197634D01*
X411700Y260500D02*
X411734Y260534D01*
X260200Y340166D02*
X262300Y338066D01*
X286766Y313600D01*
X311600Y293700D02*
Y304180D01*
X275614Y340166D02*
X277714Y338066D01*
X311600Y304180D01*
X323957Y338066D02*
X326600Y335423D01*
Y293700D02*
Y335423D01*
X308543Y338066D02*
X321600Y325009D01*
Y293700D02*
Y325009D01*
X293129Y338066D02*
X316600Y314595D01*
Y293700D02*
Y314595D01*
X331600Y293700D02*
Y330295D01*
X339371Y338066D01*
X336600Y293700D02*
Y319880D01*
X354786Y338066D01*
X341600Y293700D02*
Y309466D01*
X370200Y338066D01*
X286766Y313600D02*
X294800D01*
X306600Y301800D01*
Y293700D02*
Y301800D01*
X285422Y349034D02*
Y356100D01*
X285800Y228700D02*
X288266Y231166D01*
Y243700D01*
X267220Y233700D02*
X276600D01*
X260800Y227280D02*
X267220Y233700D01*
X265334Y238700D02*
X276600D01*
X264234Y239800D02*
X265334Y238700D01*
X245400Y209500D02*
X260546D01*
X260800Y209246D01*
X245400Y227534D02*
X257666Y239800D01*
X264234D01*
X265534Y268700D02*
X276600D01*
X170100Y212066D02*
X178534Y220500D01*
X346600Y223700D02*
X361600D01*
X343300Y227000D02*
X346600Y223700D01*
X315500Y227000D02*
X343300D01*
X386900Y253700D02*
X393700Y260500D01*
X361600Y243700D02*
X375266D01*
X369200Y248700D02*
X400500D01*
X361600Y253700D02*
X386900D01*
X400500Y248700D02*
X411700Y237500D01*
X361600Y238700D02*
X370900D01*
X373600Y236000D01*
Y195500D02*
Y236000D01*
X375266Y243700D02*
X376766Y242200D01*
X293700Y179500D02*
X296600Y182400D01*
Y198400D02*
Y208700D01*
Y198400D02*
X297966Y197034D01*
X319000D02*
X320000Y196034D01*
X306600Y197334D02*
Y208700D01*
Y197334D02*
X306900Y197034D01*
X297966D02*
X306900D01*
X319000D01*
X346600Y293700D02*
Y303200D01*
X350500Y307100D01*
X370200D01*
X405000Y288600D02*
X411000Y294600D01*
X361600Y278700D02*
Y290200D01*
X388000Y288600D02*
X405000D01*
X361600Y290200D02*
X369200Y297800D01*
X398700D01*
X411000Y310100D01*
X664030Y370200D02*
Y402700D01*
X650530Y356700D02*
X656730Y362900D01*
X665030Y356700D02*
X670564Y351166D01*
X665030Y369200D02*
X683530D01*
X632030Y369200D02*
X648530Y369200D01*
X632030Y351166D02*
X642996D01*
X648530Y356700D01*
X604030Y336600D02*
Y352200D01*
X585996Y350166D02*
X588030Y352200D01*
X680030Y388470D02*
Y402700D01*
Y388470D02*
X693800Y374700D01*
Y344900D02*
Y374700D01*
X684000Y335100D02*
X693800Y344900D01*
X666599Y335100D02*
X684000D01*
X672030Y389634D02*
Y402700D01*
X654750Y310550D02*
X666416D01*
X673500Y351166D02*
X683530D01*
X670564D02*
X673500D01*
X699400Y271000D02*
X705500D01*
X696300Y274100D02*
X699400Y271000D01*
X696300Y274100D02*
Y323251D01*
X623000Y346200D02*
X629100Y340100D01*
X662434D01*
X673500Y351166D01*
X623000Y360170D02*
X632030Y369200D01*
X623000Y346200D02*
Y360170D01*
X429034Y294600D02*
Y310100D01*
X388234Y307100D02*
X401634Y320500D01*
X418634D01*
X429034Y310100D01*
Y285300D02*
Y294600D01*
X720030Y555700D02*
X720031Y836269D01*
X654750Y323251D02*
X666599Y335100D01*
X626268Y323300D02*
X626318Y323251D01*
X539634Y296250D02*
X551300D01*
X539634Y283550D02*
X551300D01*
X593634Y270851D02*
X605300D01*
X397166Y646700D02*
X438960D01*
X562460Y523200D01*
X397216Y589400D02*
X465030D01*
X547230Y507200D01*
X397166Y532900D02*
X492660D01*
X534360Y491200D01*
X397166Y475700D02*
X397666Y475200D01*
X361600Y263700D02*
X373266D01*
X361600Y258700D02*
X378050D01*
X382200Y262850D01*
Y282800D01*
X388000Y288600D01*
X349934Y268700D02*
X361600D01*
X578464Y515200D02*
X591530D01*
X578464Y531200D02*
X591530D01*
X397666Y475200D02*
X591530D01*
X578464Y499200D02*
X591530D01*
X578464Y483200D02*
X591530D01*
X534360Y491200D02*
X591530D01*
X547230Y507200D02*
X591530D01*
X276600Y228700D02*
X285800D01*
X248529Y258705D02*
X276600D01*
X248529Y253705D02*
X276600D01*
X786200Y851450D02*
X850600Y915850D01*
X832553Y691361D02*
X863150Y709850D01*
D50*
X1023470Y327000D02*
X1042480Y307990D01*
X1067079D01*
X704470Y47200D02*
X754470D01*
Y70200D02*
X886470D01*
X620470Y1280766D02*
X674514D01*
X711656Y1307100D02*
Y1331500D01*
X711656Y1287624D02*
Y1307100D01*
Y1287624D02*
X718514Y1280766D01*
X681656Y1307100D02*
Y1331500D01*
X681656Y1287908D02*
Y1307100D01*
X674514Y1280766D02*
X681656Y1287908D01*
X432314Y1280766D02*
X439456Y1287908D01*
X476314Y1280766D02*
X530670D01*
X378270D02*
X432314D01*
X439456Y1307100D02*
Y1331500D01*
X469456Y1287624D02*
X476314Y1280766D01*
X439456Y1287908D02*
Y1307100D01*
X469456Y1307100D02*
Y1331500D01*
X469456Y1287624D02*
Y1307100D01*
X233314Y1280766D02*
X287670D01*
X189314D02*
X196456Y1287908D01*
X196456Y1307100D02*
Y1331500D01*
X226456Y1287624D02*
X233314Y1280766D01*
X196456Y1287908D02*
Y1307100D01*
X226456Y1307100D02*
Y1331500D01*
X226456Y1287624D02*
Y1307100D01*
X886470Y70200D02*
X893970Y77700D01*
X106470Y235330D02*
X122200Y219600D01*
X968970Y227700D02*
Y257190D01*
Y290700D01*
Y327000D02*
Y362700D01*
X1023470Y290700D02*
Y327000D01*
X1012970Y257190D02*
X1067079D01*
X754270Y70400D02*
Y108400D01*
X1003970Y227700D02*
X1049100D01*
X1091400Y185400D01*
Y128800D02*
Y185400D01*
X135270Y1280766D02*
X189314D01*
X718514D02*
X772870D01*
D51*
X624100Y383000D02*
X632030Y390930D01*
X611296Y383000D02*
X624100D01*
X604030Y375734D02*
X611296Y383000D01*
X615600Y372700D02*
X620600Y377700D01*
X630100D01*
X630400Y378000D01*
X640030Y387630D01*
X632030Y390930D02*
Y402700D01*
X604030Y370234D02*
Y375734D01*
X640030Y387630D02*
X640030Y402700D01*
X615600Y363770D02*
Y372700D01*
X604030Y352200D02*
X615600Y363770D01*
D52*
X157000Y366970D02*
X158860Y368830D01*
X157000Y359470D02*
Y366970D01*
X158860Y368830D02*
X190230D01*
X156060Y377230D02*
X190230D01*
X143230Y364400D02*
X156060Y377230D01*
X139470Y364400D02*
X143230D01*
X157000Y359470D02*
X164870Y351600D01*
D53*
X958004Y43700D02*
X959970Y45666D01*
X975420Y93650D02*
X983470D01*
X959970Y45666D02*
Y78200D01*
X975420Y93650D01*
X664030Y370200D02*
X665030Y369200D01*
X958004Y43700D02*
X972970D01*
X972970Y43700D01*
X980470Y131700D02*
Y148666D01*
D54*
X872170Y563200D02*
Y580266D01*
X997770Y570300D02*
X1017770D01*
X1023270Y564800D01*
X997770Y514800D02*
X1017270Y514800D01*
X1023270Y520800D01*
X996770Y515800D02*
X997770Y514800D01*
X922170Y550500D02*
X923970D01*
X926170D02*
X977970D01*
X922170Y537800D02*
X925890Y537800D01*
X926170D02*
X974770Y537800D01*
X924170Y550500D02*
X926170D01*
X925890Y537800D02*
X926170D01*
X977970Y550500D02*
X996770Y569300D01*
X997770Y570300D01*
X974770Y537800D02*
X996770Y515800D01*
D55*
X925204Y564166D02*
X926170Y563200D01*
X926170Y564166D02*
Y580300D01*
D56*
X141734Y219600D02*
X152200D01*
D57*
X893970Y77700D02*
Y80700D01*
D58*
X917579Y898212D02*
D03*
X217579D02*
D03*
D59*
X287670Y1280766D02*
D03*
X164870Y275400D02*
D03*
Y300800D02*
D03*
Y351600D02*
D03*
Y326200D02*
D03*
X139470Y339000D02*
D03*
Y364400D02*
D03*
Y313600D02*
D03*
Y288200D02*
D03*
D60*
X511121Y1100700D02*
D03*
X536521Y1100700D02*
D03*
X561921D02*
D03*
X587321D02*
D03*
X290591Y1100700D02*
D03*
X315991Y1100700D02*
D03*
X341391D02*
D03*
X366791D02*
D03*
X731651Y1100700D02*
D03*
X757051D02*
D03*
X782451D02*
D03*
X807851Y1100700D02*
D03*
X772870Y1280766D02*
D03*
X620470Y1280766D02*
D03*
X696670Y1356966D02*
D03*
X530670Y1280766D02*
D03*
X378270Y1280766D02*
D03*
X454470Y1356966D02*
D03*
X92040Y205180D02*
D03*
Y179780D02*
D03*
Y154380D02*
D03*
Y128980D02*
D03*
Y103580D02*
D03*
X15840D02*
D03*
Y128980D02*
D03*
Y154380D02*
D03*
Y179780D02*
D03*
X475800Y368000D02*
D03*
X501200Y393400D02*
D03*
X475800D02*
D03*
X501200Y418800D02*
D03*
X475800D02*
D03*
X42170Y256600D02*
D03*
X26970Y282100D02*
D03*
X42170Y357500D02*
D03*
X26970Y383000D02*
D03*
X287670Y1280766D02*
D03*
X135270Y1280766D02*
D03*
X211470Y1356966D02*
D03*
X567600Y90300D02*
D03*
X366791Y1210200D02*
D03*
X341391Y1210200D02*
D03*
X315991Y1210200D02*
D03*
X290591D02*
D03*
X587321Y1210200D02*
D03*
X561921Y1210200D02*
D03*
X536521Y1210200D02*
D03*
X511121D02*
D03*
X807851Y1210200D02*
D03*
X782451Y1210200D02*
D03*
X757051Y1210200D02*
D03*
X731651D02*
D03*
D61*
X612721Y1100700D02*
D03*
X392191Y1100700D02*
D03*
X833251D02*
D03*
X15840Y205180D02*
D03*
X392191Y1210200D02*
D03*
X612721D02*
D03*
X833251Y1210200D02*
D03*
D62*
X153970Y634300D02*
D03*
X153970Y596200D02*
D03*
X153970Y558100D02*
D03*
X153970Y520000D02*
D03*
X153970Y481900D02*
D03*
Y443800D02*
D03*
X26970Y443800D02*
D03*
X26970Y481900D02*
D03*
X26970Y520000D02*
D03*
X26970Y558100D02*
D03*
X26970Y596200D02*
D03*
X1092970Y742400D02*
D03*
X1092970Y780500D02*
D03*
X1092970Y818600D02*
D03*
X1092970Y856700D02*
D03*
X1092970Y894800D02*
D03*
X965970Y894800D02*
D03*
Y856700D02*
D03*
X965970Y818600D02*
D03*
X965970Y780500D02*
D03*
X965970Y742400D02*
D03*
X965970Y704300D02*
D03*
X26970Y856700D02*
D03*
X26970Y818600D02*
D03*
X26970Y780500D02*
D03*
X26970Y742400D02*
D03*
X26970Y704300D02*
D03*
X153970Y704300D02*
D03*
Y742400D02*
D03*
X153970Y780500D02*
D03*
X153970Y818600D02*
D03*
X153970Y856700D02*
D03*
X153970Y894800D02*
D03*
D63*
X26970Y634300D02*
D03*
X1092970Y704300D02*
D03*
X26970Y894800D02*
D03*
D64*
X1067079Y257190D02*
D03*
D65*
Y307990D02*
D03*
X1067079Y358790D02*
D03*
X1067079Y409590D02*
D03*
Y460390D02*
D03*
X106470Y242300D02*
D03*
Y397300D02*
D03*
D66*
X501200Y368000D02*
D03*
X567600Y45300D02*
D03*
D67*
X75970Y262800D02*
D03*
Y376800D02*
D03*
D68*
X642500Y491200D02*
D03*
X757596Y419200D02*
D03*
X731464Y427200D02*
D03*
Y499200D02*
D03*
X624030Y415630D02*
D03*
X616030Y389770D02*
D03*
X1054134Y598050D02*
D03*
X847000Y578600D02*
D03*
X808900Y735900D02*
D03*
X832500Y691450D02*
D03*
Y572850D02*
D03*
X850200Y862800D02*
D03*
X835700Y885200D02*
D03*
X960535Y1043519D02*
D03*
X875850Y986634D02*
D03*
X850650Y915800D02*
D03*
X573864Y467200D02*
D03*
Y451200D02*
D03*
X578464Y459200D02*
D03*
X608030Y415630D02*
D03*
X578600Y419200D02*
D03*
X604460Y427200D02*
D03*
X704030Y603300D02*
D03*
X608030Y603300D02*
D03*
X578599Y443199D02*
D03*
X573864Y435200D02*
D03*
X616966Y258151D02*
D03*
X551300Y238967D02*
D03*
X720030Y385034D02*
D03*
X573864Y523200D02*
D03*
X704030Y542634D02*
D03*
X608030D02*
D03*
X656030D02*
D03*
X664030Y568766D02*
D03*
X751700Y706534D02*
D03*
X743800Y764734D02*
D03*
X735600Y825234D02*
D03*
X693400Y962466D02*
D03*
X408300D02*
D03*
X685000Y1050900D02*
D03*
X677000Y1059800D02*
D03*
X668000Y1068200D02*
D03*
X659900Y1075300D02*
D03*
X587321Y1082300D02*
D03*
X651100D02*
D03*
X728030Y389634D02*
D03*
X712030Y389634D02*
D03*
X419266Y310100D02*
D03*
Y294600D02*
D03*
X180834Y398034D02*
D03*
X202166Y348066D02*
D03*
X196620Y279380D02*
D03*
X421966Y260500D02*
D03*
X812470Y24200D02*
D03*
X824970D02*
D03*
Y42234D02*
D03*
X812470D02*
D03*
X1068970Y50700D02*
D03*
X1096970Y81200D02*
D03*
X1081970D02*
D03*
X1002470Y95700D02*
D03*
X1018470D02*
D03*
X1018970Y113200D02*
D03*
Y130200D02*
D03*
X1002470Y113200D02*
D03*
X1001970Y130200D02*
D03*
X1091400Y128800D02*
D03*
X683600Y1372200D02*
D03*
X755500Y1410600D02*
D03*
X693100Y1372200D02*
D03*
X685400Y1439100D02*
D03*
X721700Y1396400D02*
D03*
X750000Y1383100D02*
D03*
X647800Y1389500D02*
D03*
X441400Y1372200D02*
D03*
X479500Y1396400D02*
D03*
X513300Y1410600D02*
D03*
X450900Y1372200D02*
D03*
X405600Y1389500D02*
D03*
X507800Y1383100D02*
D03*
X443200Y1439100D02*
D03*
X198400Y1372200D02*
D03*
X236500Y1396400D02*
D03*
X270300Y1410600D02*
D03*
X207900Y1372200D02*
D03*
X162600Y1389500D02*
D03*
X264800Y1383100D02*
D03*
X200200Y1439100D02*
D03*
X945300Y1364463D02*
D03*
X918436Y1345500D02*
D03*
X973216D02*
D03*
Y1382900D02*
D03*
X918436D02*
D03*
X448800Y1210200D02*
D03*
X245100Y1447166D02*
D03*
X488100D02*
D03*
X730300D02*
D03*
X574700D02*
D03*
X908000Y1285970D02*
D03*
X908000Y1400560D02*
D03*
X983900Y1422970D02*
D03*
X955182Y1346730D02*
D03*
X174700Y1065800D02*
D03*
X203734Y1017500D02*
D03*
X260266Y1085166D02*
D03*
X278300Y1066966D02*
D03*
X319900Y809400D02*
D03*
Y748900D02*
D03*
Y690200D02*
D03*
X385234Y690700D02*
D03*
X410000Y688534D02*
D03*
X394800Y706534D02*
D03*
X266400Y1116300D02*
D03*
X320000Y196034D02*
D03*
X264234Y239800D02*
D03*
X264034Y267200D02*
D03*
X291600Y305366D02*
D03*
X376766Y242200D02*
D03*
X301600Y220366D02*
D03*
X288266Y243700D02*
D03*
X288266Y263700D02*
D03*
X331600Y220366D02*
D03*
X285422Y349034D02*
D03*
X347400D02*
D03*
X278300Y1043066D02*
D03*
X394800Y764734D02*
D03*
X410000Y746734D02*
D03*
X385234Y748900D02*
D03*
X394800Y825234D02*
D03*
X410000Y807234D02*
D03*
X385234Y809400D02*
D03*
X394800Y937066D02*
D03*
X408300Y925300D02*
D03*
X319900Y925900D02*
D03*
X141734Y219600D02*
D03*
X273600Y217000D02*
D03*
X315500Y227000D02*
D03*
X280966Y656000D02*
D03*
X280966Y646500D02*
D03*
X280966Y637000D02*
D03*
X397166Y656200D02*
D03*
X397166Y646700D02*
D03*
X397166Y637200D02*
D03*
X397216Y598900D02*
D03*
X397216Y589400D02*
D03*
X397216Y579900D02*
D03*
X397166Y542400D02*
D03*
X397166Y532900D02*
D03*
X397166Y523400D02*
D03*
X397166Y485200D02*
D03*
X397166Y475700D02*
D03*
X397166Y466200D02*
D03*
X353366Y408400D02*
D03*
X353366Y417900D02*
D03*
X353366Y427400D02*
D03*
X280966Y466000D02*
D03*
X280966Y475500D02*
D03*
X280966Y485000D02*
D03*
X280966Y523200D02*
D03*
X280966Y532700D02*
D03*
X280966Y542200D02*
D03*
X281016Y579700D02*
D03*
X281016Y589200D02*
D03*
X281016Y598700D02*
D03*
X1054134Y610750D02*
D03*
X1023466Y623450D02*
D03*
X1065800Y643500D02*
D03*
X908600Y709850D02*
D03*
X888550Y752184D02*
D03*
X875850Y721516D02*
D03*
X972201Y998069D02*
D03*
X1014535Y1018119D02*
D03*
X983867Y1030819D02*
D03*
X908600Y944300D02*
D03*
X888550Y986634D02*
D03*
X875850Y955966D02*
D03*
Y805166D02*
D03*
X888550Y835834D02*
D03*
X908600Y793500D02*
D03*
X220216Y621500D02*
D03*
X220266Y564200D02*
D03*
X220216Y507700D02*
D03*
X220216Y450500D02*
D03*
X292616Y392900D02*
D03*
X336416Y450700D02*
D03*
X189200Y662266D02*
D03*
X305400Y662466D02*
D03*
Y491466D02*
D03*
X305400Y548666D02*
D03*
X305450Y605166D02*
D03*
X189200Y491266D02*
D03*
X189200Y548466D02*
D03*
X189250Y604966D02*
D03*
X261600Y433666D02*
D03*
X225066Y304300D02*
D03*
X402766Y195500D02*
D03*
X337416Y507900D02*
D03*
X337466Y564400D02*
D03*
X337416Y621700D02*
D03*
X241300Y1100466D02*
D03*
X321800Y436966D02*
D03*
X365600Y494766D02*
D03*
X365600Y551966D02*
D03*
X365650Y608466D02*
D03*
X365600Y665766D02*
D03*
X552734Y759900D02*
D03*
X606734D02*
D03*
X590699Y684634D02*
D03*
X567434Y671999D02*
D03*
X564999Y634767D02*
D03*
X577866Y734500D02*
D03*
X533100Y691265D02*
D03*
X564999Y647767D02*
D03*
X521000Y739766D02*
D03*
X632734Y740000D02*
D03*
X606734Y772600D02*
D03*
X526534Y798201D02*
D03*
X525733Y772800D02*
D03*
X258966Y542200D02*
D03*
X259016Y598700D02*
D03*
X258966Y656000D02*
D03*
Y485000D02*
D03*
X965366Y515400D02*
D03*
Y570300D02*
D03*
X308134Y149500D02*
D03*
X1036101Y598050D02*
D03*
X863150Y739549D02*
D03*
X863150Y823199D02*
D03*
Y973999D02*
D03*
X1001900Y1043519D02*
D03*
X497435Y657267D02*
D03*
X497435Y647767D02*
D03*
X497435Y638267D02*
D03*
X907804Y563200D02*
D03*
X1016336Y362700D02*
D03*
X373600Y195500D02*
D03*
X672030Y389634D02*
D03*
X666416Y310550D02*
D03*
X696300Y323251D02*
D03*
X585996Y326500D02*
D03*
X673500Y351166D02*
D03*
X429034Y285300D02*
D03*
X578464Y531200D02*
D03*
Y515200D02*
D03*
Y499200D02*
D03*
X578464Y483200D02*
D03*
X615300Y323300D02*
D03*
X539634Y296250D02*
D03*
Y283550D02*
D03*
X593634Y270851D02*
D03*
X766869Y112920D02*
D03*
X374766Y265200D02*
D03*
X373766Y274200D02*
D03*
X349934Y268700D02*
D03*
M02*
