G04 Layer_Physical_Order=5*
G04 Layer_Color=6736896*
%FSLAX44Y44*%
%MOMM*%
G71*
G01*
G75*
%ADD47C,0.5000*%
%ADD59C,1.5240*%
%ADD60C,1.6000*%
%ADD61P,1.7318X8X202.5*%
%ADD62C,2.0000*%
%ADD68C,0.7000*%
G36*
X1045000Y1185000D02*
X77000D01*
Y1460000D01*
X1045000D01*
Y1185000D01*
D02*
G37*
G36*
X1035000Y980000D02*
X1100000D01*
Y905963D01*
X1098730Y905403D01*
X1096103Y906491D01*
X1092970Y906903D01*
X1089837Y906491D01*
X1086918Y905282D01*
X1084411Y903358D01*
X1082488Y900852D01*
X1081279Y897933D01*
X1080866Y894800D01*
X1081279Y891667D01*
X1082488Y888748D01*
X1084411Y886241D01*
X1086918Y884318D01*
X1089837Y883109D01*
X1092970Y882696D01*
X1096103Y883109D01*
X1098730Y884197D01*
X1100000Y883637D01*
Y867863D01*
X1098730Y867303D01*
X1096103Y868391D01*
X1092970Y868803D01*
X1089837Y868391D01*
X1086918Y867182D01*
X1084411Y865258D01*
X1082488Y862752D01*
X1081279Y859833D01*
X1080866Y856700D01*
X1081279Y853567D01*
X1082488Y850648D01*
X1084411Y848141D01*
X1086918Y846218D01*
X1089837Y845009D01*
X1092970Y844596D01*
X1096103Y845009D01*
X1098730Y846097D01*
X1100000Y845537D01*
Y829763D01*
X1098730Y829203D01*
X1096103Y830291D01*
X1092970Y830704D01*
X1089837Y830291D01*
X1086918Y829082D01*
X1084411Y827159D01*
X1082488Y824652D01*
X1081279Y821733D01*
X1080866Y818600D01*
X1081279Y815467D01*
X1082488Y812548D01*
X1084411Y810042D01*
X1086918Y808118D01*
X1089837Y806909D01*
X1092970Y806497D01*
X1096103Y806909D01*
X1098730Y807997D01*
X1100000Y807437D01*
Y791663D01*
X1098730Y791103D01*
X1096103Y792191D01*
X1092970Y792604D01*
X1089837Y792191D01*
X1086918Y790982D01*
X1084411Y789059D01*
X1082488Y786552D01*
X1081279Y783633D01*
X1080866Y780500D01*
X1081279Y777367D01*
X1082488Y774448D01*
X1084411Y771942D01*
X1086918Y770018D01*
X1089837Y768809D01*
X1092970Y768397D01*
X1096103Y768809D01*
X1098730Y769897D01*
X1100000Y769337D01*
Y753563D01*
X1098730Y753003D01*
X1096103Y754091D01*
X1092970Y754504D01*
X1089837Y754091D01*
X1086918Y752882D01*
X1084411Y750958D01*
X1082488Y748452D01*
X1081279Y745533D01*
X1080866Y742400D01*
X1081279Y739267D01*
X1082488Y736348D01*
X1084411Y733841D01*
X1086918Y731918D01*
X1089837Y730709D01*
X1092970Y730296D01*
X1096103Y730709D01*
X1098730Y731797D01*
X1100000Y731237D01*
Y716727D01*
X1098970Y716300D01*
X1086970D01*
X1080970Y710300D01*
Y698300D01*
X1086970Y692300D01*
X1098970D01*
X1100000Y691873D01*
Y87201D01*
X1098730Y86458D01*
X1096970Y86808D01*
X1094824Y86381D01*
X1093005Y85165D01*
X1091789Y83346D01*
X1091362Y81200D01*
X1091789Y79054D01*
X1093005Y77235D01*
X1094824Y76019D01*
X1096970Y75592D01*
X1098730Y75942D01*
X1100000Y75199D01*
Y20000D01*
X830306D01*
X829627Y21270D01*
X830151Y22054D01*
X830578Y24200D01*
X830151Y26346D01*
X828935Y28165D01*
X827116Y29381D01*
X824970Y29808D01*
X822824Y29381D01*
X821005Y28165D01*
X819789Y26346D01*
X819362Y24200D01*
X819789Y22054D01*
X820313Y21270D01*
X819634Y20000D01*
X817806D01*
X817127Y21270D01*
X817651Y22054D01*
X818078Y24200D01*
X817651Y26346D01*
X816435Y28165D01*
X814616Y29381D01*
X812470Y29808D01*
X810324Y29381D01*
X808505Y28165D01*
X807289Y26346D01*
X806862Y24200D01*
X807289Y22054D01*
X807813Y21270D01*
X807134Y20000D01*
X34641D01*
X33330Y22270D01*
X30138Y26430D01*
X26430Y30138D01*
X22270Y33330D01*
X20000Y34641D01*
Y94479D01*
X20883Y94845D01*
X22972Y96448D01*
X24575Y98537D01*
X25583Y100969D01*
X25926Y103580D01*
X25583Y106191D01*
X24575Y108623D01*
X22972Y110712D01*
X20883Y112315D01*
X20000Y112681D01*
Y119879D01*
X20883Y120245D01*
X22972Y121848D01*
X24575Y123937D01*
X25583Y126369D01*
X25926Y128980D01*
X25583Y131590D01*
X24575Y134023D01*
X22972Y136112D01*
X20883Y137715D01*
X20000Y138081D01*
Y145279D01*
X20883Y145645D01*
X22972Y147248D01*
X24575Y149337D01*
X25583Y151770D01*
X25926Y154380D01*
X25583Y156990D01*
X24575Y159423D01*
X22972Y161512D01*
X20883Y163115D01*
X20000Y163481D01*
Y170679D01*
X20883Y171045D01*
X22972Y172648D01*
X24575Y174737D01*
X25583Y177169D01*
X25926Y179780D01*
X25583Y182390D01*
X24575Y184823D01*
X22972Y186912D01*
X20883Y188515D01*
X20000Y188881D01*
Y195180D01*
X20840D01*
X25840Y200180D01*
Y210180D01*
X20840Y215180D01*
X20000D01*
Y222608D01*
X128892D01*
X175800Y269516D01*
X175800Y280900D01*
X170500Y286200D01*
X159500D01*
X148410Y275110D01*
X134690Y275110D01*
X124600Y285200D01*
Y371911D01*
X146135Y393446D01*
X176246D01*
Y369398D01*
X176595Y367642D01*
X177590Y366154D01*
X196777Y346966D01*
X196985Y345920D01*
X198201Y344101D01*
X200020Y342885D01*
X201066Y342677D01*
X283678Y260065D01*
Y246733D01*
X283085Y245846D01*
X282658Y243700D01*
X283085Y241554D01*
X283678Y240667D01*
Y233700D01*
X284027Y231944D01*
X285022Y230456D01*
X296211Y219266D01*
X296419Y218220D01*
X297635Y216401D01*
X299454Y215185D01*
X300500Y214977D01*
X303546Y211932D01*
Y152533D01*
X302953Y151646D01*
X302526Y149500D01*
X302953Y147354D01*
X304169Y145535D01*
X305988Y144319D01*
X308134Y143892D01*
X310280Y144319D01*
X312099Y145535D01*
X313315Y147354D01*
X313742Y149500D01*
X313315Y151646D01*
X312722Y152533D01*
Y209244D01*
X325066D01*
X326822Y209593D01*
X328310Y210588D01*
X332700Y214977D01*
X333746Y215185D01*
X335565Y216401D01*
X336781Y218220D01*
X337208Y220366D01*
X336781Y222512D01*
X335565Y224331D01*
X333746Y225547D01*
X331600Y225974D01*
X329454Y225547D01*
X327635Y224331D01*
X326419Y222512D01*
X326211Y221466D01*
X323166Y218420D01*
X310035D01*
X306989Y221466D01*
X306781Y222512D01*
X305565Y224331D01*
X303746Y225547D01*
X302700Y225755D01*
X292854Y235600D01*
Y240667D01*
X293447Y241554D01*
X293874Y243700D01*
X293447Y245846D01*
X292854Y246733D01*
Y260667D01*
X293447Y261554D01*
X293874Y263700D01*
X293447Y265846D01*
X292231Y267665D01*
X290412Y268881D01*
X288266Y269308D01*
X287554Y269166D01*
X207555Y349166D01*
X207347Y350212D01*
X206131Y352031D01*
X204312Y353247D01*
X203266Y353455D01*
X185422Y371298D01*
Y395001D01*
X186015Y395888D01*
X186442Y398034D01*
X186015Y400180D01*
X184799Y401999D01*
X182980Y403215D01*
X180834Y403642D01*
X178688Y403215D01*
X177801Y402622D01*
X144234D01*
X142478Y402273D01*
X140990Y401278D01*
X125773Y386062D01*
X124600Y386548D01*
Y406000D01*
X112700Y417900D01*
X20000Y417900D01*
Y432577D01*
X21270Y433172D01*
X23837Y432109D01*
X26970Y431697D01*
X30103Y432109D01*
X33022Y433318D01*
X35529Y435242D01*
X37452Y437748D01*
X38661Y440667D01*
X39074Y443800D01*
X38661Y446933D01*
X37452Y449852D01*
X35529Y452359D01*
X33022Y454282D01*
X30103Y455491D01*
X26970Y455904D01*
X23837Y455491D01*
X21270Y454428D01*
X20000Y455023D01*
Y470677D01*
X21270Y471272D01*
X23837Y470209D01*
X26970Y469796D01*
X30102Y470209D01*
X33022Y471418D01*
X35528Y473341D01*
X37452Y475848D01*
X38661Y478767D01*
X39073Y481900D01*
X38661Y485033D01*
X37452Y487952D01*
X35528Y490458D01*
X33022Y492382D01*
X30102Y493591D01*
X26970Y494004D01*
X23837Y493591D01*
X21270Y492528D01*
X20000Y493123D01*
Y508777D01*
X21270Y509372D01*
X23837Y508309D01*
X26970Y507896D01*
X30103Y508309D01*
X33022Y509518D01*
X35528Y511441D01*
X37452Y513948D01*
X38661Y516867D01*
X39074Y520000D01*
X38661Y523133D01*
X37452Y526052D01*
X35528Y528558D01*
X33022Y530482D01*
X30103Y531691D01*
X26970Y532103D01*
X23837Y531691D01*
X21270Y530628D01*
X20000Y531223D01*
Y546877D01*
X21270Y547472D01*
X23837Y546409D01*
X26970Y545996D01*
X30103Y546409D01*
X33022Y547618D01*
X35528Y549542D01*
X37452Y552048D01*
X38661Y554967D01*
X39074Y558100D01*
X38661Y561233D01*
X37452Y564152D01*
X35528Y566659D01*
X33022Y568582D01*
X30103Y569791D01*
X26970Y570204D01*
X23837Y569791D01*
X21270Y568728D01*
X20000Y569323D01*
Y584977D01*
X21270Y585572D01*
X23837Y584509D01*
X26970Y584096D01*
X30103Y584509D01*
X33022Y585718D01*
X35529Y587641D01*
X37452Y590148D01*
X38661Y593067D01*
X39074Y596200D01*
X38661Y599333D01*
X37452Y602252D01*
X35529Y604758D01*
X33022Y606682D01*
X30103Y607891D01*
X26970Y608304D01*
X23837Y607891D01*
X21270Y606828D01*
X20000Y607423D01*
Y621898D01*
X20970Y622300D01*
X32970D01*
X38970Y628300D01*
Y640300D01*
X32970Y646300D01*
X20970D01*
X20000Y646702D01*
Y693077D01*
X21270Y693672D01*
X23837Y692609D01*
X26970Y692196D01*
X30103Y692609D01*
X33022Y693818D01*
X35529Y695741D01*
X37452Y698248D01*
X38661Y701167D01*
X39074Y704300D01*
X38661Y707433D01*
X37452Y710352D01*
X35529Y712858D01*
X33022Y714782D01*
X30103Y715991D01*
X26970Y716404D01*
X23837Y715991D01*
X21270Y714928D01*
X20000Y715523D01*
Y731177D01*
X21270Y731772D01*
X23837Y730709D01*
X26970Y730296D01*
X30103Y730709D01*
X33022Y731918D01*
X35529Y733841D01*
X37452Y736348D01*
X38661Y739267D01*
X39074Y742400D01*
X38661Y745533D01*
X37452Y748452D01*
X35529Y750958D01*
X33022Y752882D01*
X30103Y754091D01*
X26970Y754503D01*
X23837Y754091D01*
X21270Y753028D01*
X20000Y753623D01*
Y769277D01*
X21270Y769872D01*
X23837Y768809D01*
X26970Y768397D01*
X30103Y768809D01*
X33022Y770018D01*
X35529Y771942D01*
X37452Y774448D01*
X38661Y777367D01*
X39074Y780500D01*
X38661Y783633D01*
X37452Y786552D01*
X35627Y788930D01*
X35868Y790058D01*
X35916Y790200D01*
X76400Y790200D01*
X91700Y774900D01*
X91700Y685900D01*
X108200Y669400D01*
X351200Y669400D01*
X368800Y687000D01*
Y949600D01*
X335500Y982900D01*
X319000D01*
X226670Y1075230D01*
X226670Y1130000D01*
X1035000D01*
Y980000D01*
D02*
G37*
%LPC*%
G36*
X757051Y1220286D02*
X754441Y1219943D01*
X752008Y1218935D01*
X749919Y1217332D01*
X748316Y1215243D01*
X747309Y1212811D01*
X746965Y1210200D01*
X747309Y1207589D01*
X748316Y1205157D01*
X749919Y1203068D01*
X752008Y1201465D01*
X754441Y1200457D01*
X757051Y1200114D01*
X759662Y1200457D01*
X762094Y1201465D01*
X764183Y1203068D01*
X765786Y1205157D01*
X766794Y1207589D01*
X767138Y1210200D01*
X766794Y1212811D01*
X765786Y1215243D01*
X764183Y1217332D01*
X762094Y1218935D01*
X759662Y1219943D01*
X757051Y1220286D01*
D02*
G37*
G36*
X290591Y1220286D02*
X287981Y1219943D01*
X285548Y1218935D01*
X283459Y1217332D01*
X281856Y1215243D01*
X280849Y1212811D01*
X280505Y1210200D01*
X280849Y1207590D01*
X281856Y1205157D01*
X283459Y1203068D01*
X285548Y1201465D01*
X287981Y1200458D01*
X290591Y1200114D01*
X293202Y1200458D01*
X295634Y1201465D01*
X297723Y1203068D01*
X299326Y1205157D01*
X300334Y1207590D01*
X300678Y1210200D01*
X300334Y1212811D01*
X299326Y1215243D01*
X297723Y1217332D01*
X295634Y1218935D01*
X293202Y1219943D01*
X290591Y1220286D01*
D02*
G37*
G36*
X617721Y1220200D02*
X607721D01*
X602721Y1215200D01*
Y1205200D01*
X607721Y1200200D01*
X617721D01*
X622721Y1205200D01*
Y1215200D01*
X617721Y1220200D01*
D02*
G37*
G36*
X731651Y1220286D02*
X729041Y1219943D01*
X726608Y1218935D01*
X724519Y1217332D01*
X722916Y1215243D01*
X721909Y1212811D01*
X721565Y1210200D01*
X721909Y1207589D01*
X722916Y1205157D01*
X724519Y1203068D01*
X726608Y1201465D01*
X729041Y1200457D01*
X731651Y1200114D01*
X734262Y1200457D01*
X736694Y1201465D01*
X738783Y1203068D01*
X740386Y1205157D01*
X741394Y1207589D01*
X741738Y1210200D01*
X741394Y1212811D01*
X740386Y1215243D01*
X738783Y1217332D01*
X736694Y1218935D01*
X734262Y1219943D01*
X731651Y1220286D01*
D02*
G37*
G36*
X366791D02*
X364181Y1219943D01*
X361748Y1218935D01*
X359659Y1217332D01*
X358056Y1215243D01*
X357049Y1212811D01*
X356705Y1210200D01*
X357049Y1207589D01*
X358056Y1205157D01*
X359659Y1203068D01*
X361748Y1201465D01*
X364181Y1200457D01*
X366791Y1200114D01*
X369402Y1200457D01*
X371834Y1201465D01*
X373923Y1203068D01*
X375526Y1205157D01*
X376534Y1207589D01*
X376878Y1210200D01*
X376534Y1212811D01*
X375526Y1215243D01*
X373923Y1217332D01*
X371834Y1218935D01*
X369402Y1219943D01*
X366791Y1220286D01*
D02*
G37*
G36*
X536521D02*
X533911Y1219943D01*
X531478Y1218935D01*
X529389Y1217332D01*
X527786Y1215243D01*
X526779Y1212811D01*
X526435Y1210200D01*
X526779Y1207589D01*
X527786Y1205157D01*
X529389Y1203068D01*
X531478Y1201465D01*
X533911Y1200457D01*
X536521Y1200114D01*
X539132Y1200457D01*
X541564Y1201465D01*
X543653Y1203068D01*
X545256Y1205157D01*
X546264Y1207589D01*
X546608Y1210200D01*
X546264Y1212811D01*
X545256Y1215243D01*
X543653Y1217332D01*
X541564Y1218935D01*
X539132Y1219943D01*
X536521Y1220286D01*
D02*
G37*
G36*
X561921D02*
X559311Y1219943D01*
X556878Y1218935D01*
X554789Y1217332D01*
X553186Y1215243D01*
X552179Y1212811D01*
X551835Y1210200D01*
X552179Y1207589D01*
X553186Y1205157D01*
X554789Y1203068D01*
X556878Y1201465D01*
X559311Y1200457D01*
X561921Y1200114D01*
X564532Y1200457D01*
X566964Y1201465D01*
X569053Y1203068D01*
X570656Y1205157D01*
X571664Y1207589D01*
X572007Y1210200D01*
X571664Y1212811D01*
X570656Y1215243D01*
X569053Y1217332D01*
X566964Y1218935D01*
X564532Y1219943D01*
X561921Y1220286D01*
D02*
G37*
G36*
X397191Y1220200D02*
X387191D01*
X382191Y1215200D01*
Y1205200D01*
X387191Y1200200D01*
X397191D01*
X402191Y1205200D01*
Y1215200D01*
X397191Y1220200D01*
D02*
G37*
G36*
X513621Y1220966D02*
Y1212700D01*
X521887D01*
X521838Y1213072D01*
X520730Y1215747D01*
X518967Y1218045D01*
X516669Y1219808D01*
X513993Y1220917D01*
X513621Y1220966D01*
D02*
G37*
G36*
X135270Y1290852D02*
X132659Y1290509D01*
X130227Y1289501D01*
X128138Y1287898D01*
X126535Y1285809D01*
X125527Y1283376D01*
X125184Y1280766D01*
X125527Y1278155D01*
X126535Y1275723D01*
X128138Y1273634D01*
X130227Y1272031D01*
X132659Y1271023D01*
X135270Y1270680D01*
X137880Y1271023D01*
X140313Y1272031D01*
X142402Y1273634D01*
X144005Y1275723D01*
X145012Y1278155D01*
X145356Y1280766D01*
X145012Y1283376D01*
X144005Y1285809D01*
X142402Y1287898D01*
X140313Y1289501D01*
X137880Y1290509D01*
X135270Y1290852D01*
D02*
G37*
G36*
X378270D02*
X375659Y1290509D01*
X373227Y1289501D01*
X371138Y1287898D01*
X369535Y1285809D01*
X368527Y1283376D01*
X368184Y1280766D01*
X368527Y1278155D01*
X369535Y1275723D01*
X371138Y1273634D01*
X373227Y1272031D01*
X375659Y1271023D01*
X378270Y1270680D01*
X380880Y1271023D01*
X383313Y1272031D01*
X385402Y1273634D01*
X387005Y1275723D01*
X388012Y1278155D01*
X388356Y1280766D01*
X388012Y1283376D01*
X387005Y1285809D01*
X385402Y1287898D01*
X383313Y1289501D01*
X380880Y1290509D01*
X378270Y1290852D01*
D02*
G37*
G36*
X508621Y1220966D02*
X508250Y1220917D01*
X505574Y1219808D01*
X503276Y1218045D01*
X501513Y1215747D01*
X500405Y1213072D01*
X500355Y1212700D01*
X508621D01*
Y1220966D01*
D02*
G37*
G36*
X448800Y1215808D02*
X446654Y1215381D01*
X444835Y1214165D01*
X443619Y1212346D01*
X443192Y1210200D01*
X443619Y1208054D01*
X444835Y1206235D01*
X446654Y1205019D01*
X448800Y1204592D01*
X450946Y1205019D01*
X452765Y1206235D01*
X453981Y1208054D01*
X454408Y1210200D01*
X453981Y1212346D01*
X452765Y1214165D01*
X450946Y1215381D01*
X448800Y1215808D01*
D02*
G37*
G36*
X830751Y1221200D02*
X827751D01*
X822251Y1215700D01*
Y1212700D01*
X830751D01*
Y1221200D01*
D02*
G37*
G36*
X838751D02*
X835751D01*
Y1212700D01*
X844251D01*
Y1215700D01*
X838751Y1221200D01*
D02*
G37*
G36*
X830751Y1207700D02*
X822251D01*
Y1204700D01*
X827751Y1199200D01*
X830751D01*
Y1207700D01*
D02*
G37*
G36*
X844251D02*
X835751D01*
Y1199200D01*
X838751D01*
X844251Y1204700D01*
Y1207700D01*
D02*
G37*
G36*
X587321Y1220286D02*
X584711Y1219943D01*
X582278Y1218935D01*
X580189Y1217332D01*
X578586Y1215243D01*
X577579Y1212811D01*
X577235Y1210200D01*
X577579Y1207589D01*
X578586Y1205157D01*
X580189Y1203068D01*
X582278Y1201465D01*
X584711Y1200457D01*
X587321Y1200114D01*
X589932Y1200457D01*
X592365Y1201465D01*
X594453Y1203068D01*
X596056Y1205157D01*
X597064Y1207589D01*
X597408Y1210200D01*
X597064Y1212811D01*
X596056Y1215243D01*
X594453Y1217332D01*
X592365Y1218935D01*
X589932Y1219943D01*
X587321Y1220286D01*
D02*
G37*
G36*
X782451D02*
X779841Y1219943D01*
X777408Y1218935D01*
X775319Y1217332D01*
X773716Y1215243D01*
X772709Y1212811D01*
X772365Y1210200D01*
X772709Y1207589D01*
X773716Y1205157D01*
X775319Y1203068D01*
X777408Y1201465D01*
X779841Y1200457D01*
X782451Y1200114D01*
X785062Y1200457D01*
X787494Y1201465D01*
X789583Y1203068D01*
X791186Y1205157D01*
X792194Y1207589D01*
X792538Y1210200D01*
X792194Y1212811D01*
X791186Y1215243D01*
X789583Y1217332D01*
X787494Y1218935D01*
X785062Y1219943D01*
X782451Y1220286D01*
D02*
G37*
G36*
X341391Y1220286D02*
X338781Y1219943D01*
X336348Y1218935D01*
X334259Y1217332D01*
X332656Y1215243D01*
X331649Y1212811D01*
X331305Y1210200D01*
X331649Y1207589D01*
X332656Y1205157D01*
X334259Y1203068D01*
X336348Y1201465D01*
X338781Y1200457D01*
X341391Y1200114D01*
X344002Y1200457D01*
X346434Y1201465D01*
X348523Y1203068D01*
X350126Y1205157D01*
X351134Y1207589D01*
X351478Y1210200D01*
X351134Y1212811D01*
X350126Y1215243D01*
X348523Y1217332D01*
X346434Y1218935D01*
X344002Y1219943D01*
X341391Y1220286D01*
D02*
G37*
G36*
X315991Y1220286D02*
X313381Y1219942D01*
X310948Y1218935D01*
X308859Y1217332D01*
X307256Y1215243D01*
X306249Y1212811D01*
X305905Y1210200D01*
X306249Y1207589D01*
X307256Y1205157D01*
X308859Y1203068D01*
X310948Y1201465D01*
X313381Y1200457D01*
X315991Y1200114D01*
X318602Y1200457D01*
X321035Y1201465D01*
X323123Y1203068D01*
X324726Y1205157D01*
X325734Y1207589D01*
X326078Y1210200D01*
X325734Y1212811D01*
X324726Y1215243D01*
X323123Y1217332D01*
X321035Y1218935D01*
X318602Y1219942D01*
X315991Y1220286D01*
D02*
G37*
G36*
X508621Y1207700D02*
X500355D01*
X500405Y1207328D01*
X501513Y1204652D01*
X503276Y1202355D01*
X505574Y1200592D01*
X508250Y1199483D01*
X508621Y1199434D01*
Y1207700D01*
D02*
G37*
G36*
X521887D02*
X513621D01*
Y1199434D01*
X513993Y1199483D01*
X516669Y1200592D01*
X518967Y1202355D01*
X520730Y1204652D01*
X521838Y1207328D01*
X521887Y1207700D01*
D02*
G37*
G36*
X807851Y1220286D02*
X805241Y1219942D01*
X802808Y1218935D01*
X800719Y1217332D01*
X799116Y1215243D01*
X798109Y1212810D01*
X797765Y1210200D01*
X798109Y1207589D01*
X799116Y1205157D01*
X800719Y1203068D01*
X802808Y1201465D01*
X805241Y1200457D01*
X807851Y1200114D01*
X810462Y1200457D01*
X812894Y1201465D01*
X814983Y1203068D01*
X816586Y1205157D01*
X817594Y1207589D01*
X817937Y1210200D01*
X817594Y1212810D01*
X816586Y1215243D01*
X814983Y1217332D01*
X812894Y1218935D01*
X810462Y1219942D01*
X807851Y1220286D01*
D02*
G37*
G36*
X620470Y1290852D02*
X617859Y1290509D01*
X615427Y1289501D01*
X613338Y1287898D01*
X611735Y1285809D01*
X610727Y1283376D01*
X610384Y1280766D01*
X610727Y1278155D01*
X611735Y1275723D01*
X613338Y1273634D01*
X615427Y1272031D01*
X617859Y1271023D01*
X620470Y1270680D01*
X623080Y1271023D01*
X625513Y1272031D01*
X627602Y1273634D01*
X629205Y1275723D01*
X630213Y1278155D01*
X630556Y1280766D01*
X630213Y1283376D01*
X629205Y1285809D01*
X627602Y1287898D01*
X625513Y1289501D01*
X623080Y1290509D01*
X620470Y1290852D01*
D02*
G37*
G36*
X270300Y1416208D02*
X268154Y1415781D01*
X266335Y1414565D01*
X265119Y1412746D01*
X264692Y1410600D01*
X265119Y1408454D01*
X266335Y1406635D01*
X268154Y1405419D01*
X270300Y1404992D01*
X272446Y1405419D01*
X274265Y1406635D01*
X275481Y1408454D01*
X275908Y1410600D01*
X275481Y1412746D01*
X274265Y1414565D01*
X272446Y1415781D01*
X270300Y1416208D01*
D02*
G37*
G36*
X513300D02*
X511154Y1415781D01*
X509335Y1414565D01*
X508119Y1412746D01*
X507692Y1410600D01*
X508119Y1408454D01*
X509335Y1406635D01*
X511154Y1405419D01*
X513300Y1404992D01*
X515446Y1405419D01*
X517265Y1406635D01*
X518481Y1408454D01*
X518908Y1410600D01*
X518481Y1412746D01*
X517265Y1414565D01*
X515446Y1415781D01*
X513300Y1416208D01*
D02*
G37*
G36*
X755500D02*
X753354Y1415781D01*
X751535Y1414565D01*
X750319Y1412746D01*
X749892Y1410600D01*
X750319Y1408454D01*
X751535Y1406635D01*
X753354Y1405419D01*
X755500Y1404992D01*
X757646Y1405419D01*
X759465Y1406635D01*
X760681Y1408454D01*
X761108Y1410600D01*
X760681Y1412746D01*
X759465Y1414565D01*
X757646Y1415781D01*
X755500Y1416208D01*
D02*
G37*
G36*
X908000Y1406168D02*
X905854Y1405741D01*
X904035Y1404525D01*
X902819Y1402706D01*
X902392Y1400560D01*
X902819Y1398414D01*
X904035Y1396595D01*
X905854Y1395379D01*
X908000Y1394952D01*
X910146Y1395379D01*
X911965Y1396595D01*
X913181Y1398414D01*
X913608Y1400560D01*
X913181Y1402706D01*
X911965Y1404525D01*
X910146Y1405741D01*
X908000Y1406168D01*
D02*
G37*
G36*
X162600Y1395108D02*
X160454Y1394681D01*
X158635Y1393465D01*
X157419Y1391646D01*
X156992Y1389500D01*
X157419Y1387354D01*
X158635Y1385535D01*
X160454Y1384319D01*
X162600Y1383892D01*
X164746Y1384319D01*
X166565Y1385535D01*
X167781Y1387354D01*
X168208Y1389500D01*
X167781Y1391646D01*
X166565Y1393465D01*
X164746Y1394681D01*
X162600Y1395108D01*
D02*
G37*
G36*
X405600D02*
X403454Y1394681D01*
X401635Y1393465D01*
X400419Y1391646D01*
X399992Y1389500D01*
X400419Y1387354D01*
X401635Y1385535D01*
X403454Y1384319D01*
X405600Y1383892D01*
X407746Y1384319D01*
X409565Y1385535D01*
X410781Y1387354D01*
X411208Y1389500D01*
X410781Y1391646D01*
X409565Y1393465D01*
X407746Y1394681D01*
X405600Y1395108D01*
D02*
G37*
G36*
X647800D02*
X645654Y1394681D01*
X643835Y1393465D01*
X642619Y1391646D01*
X642192Y1389500D01*
X642619Y1387354D01*
X643835Y1385535D01*
X645654Y1384319D01*
X647800Y1383892D01*
X649946Y1384319D01*
X651765Y1385535D01*
X652981Y1387354D01*
X653408Y1389500D01*
X652981Y1391646D01*
X651765Y1393465D01*
X649946Y1394681D01*
X647800Y1395108D01*
D02*
G37*
G36*
X983900Y1428578D02*
X981754Y1428151D01*
X979935Y1426935D01*
X978719Y1425116D01*
X978292Y1422970D01*
X978719Y1420824D01*
X979935Y1419005D01*
X981754Y1417789D01*
X983900Y1417362D01*
X986046Y1417789D01*
X987865Y1419005D01*
X989081Y1420824D01*
X989508Y1422970D01*
X989081Y1425116D01*
X987865Y1426935D01*
X986046Y1428151D01*
X983900Y1428578D01*
D02*
G37*
G36*
X488100Y1452774D02*
X485954Y1452347D01*
X484135Y1451131D01*
X482919Y1449312D01*
X482492Y1447166D01*
X482919Y1445020D01*
X484135Y1443201D01*
X485954Y1441985D01*
X488100Y1441558D01*
X490246Y1441985D01*
X492065Y1443201D01*
X493281Y1445020D01*
X493708Y1447166D01*
X493281Y1449312D01*
X492065Y1451131D01*
X490246Y1452347D01*
X488100Y1452774D01*
D02*
G37*
G36*
X574700D02*
X572554Y1452347D01*
X570735Y1451131D01*
X569519Y1449312D01*
X569092Y1447166D01*
X569519Y1445020D01*
X570735Y1443201D01*
X572554Y1441985D01*
X574700Y1441558D01*
X576846Y1441985D01*
X578665Y1443201D01*
X579881Y1445020D01*
X580308Y1447166D01*
X579881Y1449312D01*
X578665Y1451131D01*
X576846Y1452347D01*
X574700Y1452774D01*
D02*
G37*
G36*
X730300D02*
X728154Y1452347D01*
X726335Y1451131D01*
X725119Y1449312D01*
X724692Y1447166D01*
X725119Y1445020D01*
X726335Y1443201D01*
X728154Y1441985D01*
X730300Y1441558D01*
X732446Y1441985D01*
X734265Y1443201D01*
X735481Y1445020D01*
X735908Y1447166D01*
X735481Y1449312D01*
X734265Y1451131D01*
X732446Y1452347D01*
X730300Y1452774D01*
D02*
G37*
G36*
X245100D02*
X242954Y1452347D01*
X241135Y1451131D01*
X239919Y1449312D01*
X239492Y1447166D01*
X239919Y1445020D01*
X241135Y1443201D01*
X242954Y1441985D01*
X245100Y1441558D01*
X247246Y1441985D01*
X249065Y1443201D01*
X250281Y1445020D01*
X250708Y1447166D01*
X250281Y1449312D01*
X249065Y1451131D01*
X247246Y1452347D01*
X245100Y1452774D01*
D02*
G37*
G36*
X200200Y1444708D02*
X198054Y1444281D01*
X196235Y1443065D01*
X195019Y1441246D01*
X194592Y1439100D01*
X195019Y1436954D01*
X196235Y1435135D01*
X198054Y1433919D01*
X200200Y1433492D01*
X202346Y1433919D01*
X204165Y1435135D01*
X205381Y1436954D01*
X205808Y1439100D01*
X205381Y1441246D01*
X204165Y1443065D01*
X202346Y1444281D01*
X200200Y1444708D01*
D02*
G37*
G36*
X443200D02*
X441054Y1444281D01*
X439235Y1443065D01*
X438019Y1441246D01*
X437592Y1439100D01*
X438019Y1436954D01*
X439235Y1435135D01*
X441054Y1433919D01*
X443200Y1433492D01*
X445346Y1433919D01*
X447165Y1435135D01*
X448381Y1436954D01*
X448808Y1439100D01*
X448381Y1441246D01*
X447165Y1443065D01*
X445346Y1444281D01*
X443200Y1444708D01*
D02*
G37*
G36*
X685400D02*
X683254Y1444281D01*
X681435Y1443065D01*
X680219Y1441246D01*
X679792Y1439100D01*
X680219Y1436954D01*
X681435Y1435135D01*
X683254Y1433919D01*
X685400Y1433492D01*
X687546Y1433919D01*
X689365Y1435135D01*
X690581Y1436954D01*
X691008Y1439100D01*
X690581Y1441246D01*
X689365Y1443065D01*
X687546Y1444281D01*
X685400Y1444708D01*
D02*
G37*
G36*
X918436Y1351108D02*
X916290Y1350681D01*
X914471Y1349465D01*
X913255Y1347646D01*
X912828Y1345500D01*
X913255Y1343354D01*
X914471Y1341535D01*
X916290Y1340319D01*
X918436Y1339892D01*
X920582Y1340319D01*
X922401Y1341535D01*
X923617Y1343354D01*
X924044Y1345500D01*
X923617Y1347646D01*
X922401Y1349465D01*
X920582Y1350681D01*
X918436Y1351108D01*
D02*
G37*
G36*
X973216D02*
X971070Y1350681D01*
X969251Y1349465D01*
X968035Y1347646D01*
X967608Y1345500D01*
X968035Y1343354D01*
X969251Y1341535D01*
X971070Y1340319D01*
X973216Y1339892D01*
X975362Y1340319D01*
X977181Y1341535D01*
X978397Y1343354D01*
X978824Y1345500D01*
X978397Y1347646D01*
X977181Y1349465D01*
X975362Y1350681D01*
X973216Y1351108D01*
D02*
G37*
G36*
X955182Y1352338D02*
X953036Y1351911D01*
X951217Y1350695D01*
X950001Y1348876D01*
X949574Y1346730D01*
X950001Y1344584D01*
X951217Y1342765D01*
X953036Y1341549D01*
X955182Y1341122D01*
X957328Y1341549D01*
X959147Y1342765D01*
X960363Y1344584D01*
X960790Y1346730D01*
X960363Y1348876D01*
X959147Y1350695D01*
X957328Y1351911D01*
X955182Y1352338D01*
D02*
G37*
G36*
X908000Y1291578D02*
X905854Y1291151D01*
X904035Y1289935D01*
X902819Y1288116D01*
X902392Y1285970D01*
X902819Y1283824D01*
X904035Y1282005D01*
X905854Y1280789D01*
X908000Y1280362D01*
X910146Y1280789D01*
X911965Y1282005D01*
X913181Y1283824D01*
X913608Y1285970D01*
X913181Y1288116D01*
X911965Y1289935D01*
X910146Y1291151D01*
X908000Y1291578D01*
D02*
G37*
G36*
X287670Y1290852D02*
X285059Y1290509D01*
X282627Y1289501D01*
X280538Y1287898D01*
X278935Y1285809D01*
X277927Y1283376D01*
X277584Y1280766D01*
X277927Y1278156D01*
X278935Y1275723D01*
X280538Y1273634D01*
X282627Y1272031D01*
X285059Y1271023D01*
X287670Y1270680D01*
X290280Y1271023D01*
X292713Y1272031D01*
X294802Y1273634D01*
X296405Y1275723D01*
X297412Y1278156D01*
X297756Y1280766D01*
X297412Y1283376D01*
X296405Y1285809D01*
X294802Y1287898D01*
X292713Y1289501D01*
X290280Y1290509D01*
X287670Y1290852D01*
D02*
G37*
G36*
X530670D02*
X528059Y1290509D01*
X525627Y1289501D01*
X523538Y1287898D01*
X521935Y1285809D01*
X520927Y1283376D01*
X520584Y1280766D01*
X520927Y1278156D01*
X521935Y1275723D01*
X523538Y1273634D01*
X525627Y1272031D01*
X528059Y1271023D01*
X530670Y1270680D01*
X533280Y1271023D01*
X535713Y1272031D01*
X537802Y1273634D01*
X539405Y1275723D01*
X540412Y1278156D01*
X540756Y1280766D01*
X540412Y1283376D01*
X539405Y1285809D01*
X537802Y1287898D01*
X535713Y1289501D01*
X533280Y1290509D01*
X530670Y1290852D01*
D02*
G37*
G36*
X772870D02*
X770259Y1290509D01*
X767827Y1289501D01*
X765738Y1287898D01*
X764135Y1285809D01*
X763127Y1283376D01*
X762784Y1280766D01*
X763127Y1278156D01*
X764135Y1275723D01*
X765738Y1273634D01*
X767827Y1272031D01*
X770259Y1271023D01*
X772870Y1270680D01*
X775480Y1271023D01*
X777913Y1272031D01*
X780002Y1273634D01*
X781605Y1275723D01*
X782613Y1278156D01*
X782956Y1280766D01*
X782613Y1283376D01*
X781605Y1285809D01*
X780002Y1287898D01*
X777913Y1289501D01*
X775480Y1290509D01*
X772870Y1290852D01*
D02*
G37*
G36*
X207900Y1377808D02*
X205754Y1377381D01*
X203935Y1376165D01*
X203785Y1375941D01*
X202515D01*
X202365Y1376165D01*
X200546Y1377381D01*
X198400Y1377808D01*
X196254Y1377381D01*
X194435Y1376165D01*
X193219Y1374346D01*
X192792Y1372200D01*
X193219Y1370054D01*
X194435Y1368235D01*
X196254Y1367019D01*
X198400Y1366592D01*
X200546Y1367019D01*
X202365Y1368235D01*
X202515Y1368459D01*
X203785D01*
X203935Y1368235D01*
X205754Y1367019D01*
X206117Y1366947D01*
X206331Y1366087D01*
X206312Y1365613D01*
X204338Y1364098D01*
X202735Y1362009D01*
X201727Y1359577D01*
X201384Y1356966D01*
X201727Y1354355D01*
X202735Y1351923D01*
X204338Y1349834D01*
X206427Y1348231D01*
X208860Y1347223D01*
X211470Y1346880D01*
X214081Y1347223D01*
X216513Y1348231D01*
X218602Y1349834D01*
X220205Y1351923D01*
X221213Y1354355D01*
X221556Y1356966D01*
X221213Y1359577D01*
X220205Y1362009D01*
X218602Y1364098D01*
X216513Y1365701D01*
X214081Y1366709D01*
X212232Y1366952D01*
X211865Y1368235D01*
X213081Y1370054D01*
X213508Y1372200D01*
X213081Y1374346D01*
X211865Y1376165D01*
X210046Y1377381D01*
X207900Y1377808D01*
D02*
G37*
G36*
X264800Y1388708D02*
X262654Y1388281D01*
X260835Y1387065D01*
X259619Y1385246D01*
X259192Y1383100D01*
X259619Y1380954D01*
X260835Y1379135D01*
X262654Y1377919D01*
X264800Y1377492D01*
X266946Y1377919D01*
X268765Y1379135D01*
X269981Y1380954D01*
X270408Y1383100D01*
X269981Y1385246D01*
X268765Y1387065D01*
X266946Y1388281D01*
X264800Y1388708D01*
D02*
G37*
G36*
X507800D02*
X505654Y1388281D01*
X503835Y1387065D01*
X502619Y1385246D01*
X502192Y1383100D01*
X502619Y1380954D01*
X503835Y1379135D01*
X505654Y1377919D01*
X507800Y1377492D01*
X509946Y1377919D01*
X511765Y1379135D01*
X512981Y1380954D01*
X513408Y1383100D01*
X512981Y1385246D01*
X511765Y1387065D01*
X509946Y1388281D01*
X507800Y1388708D01*
D02*
G37*
G36*
X750000D02*
X747854Y1388281D01*
X746035Y1387065D01*
X744819Y1385246D01*
X744392Y1383100D01*
X744819Y1380954D01*
X746035Y1379135D01*
X747854Y1377919D01*
X750000Y1377492D01*
X752146Y1377919D01*
X753965Y1379135D01*
X755181Y1380954D01*
X755608Y1383100D01*
X755181Y1385246D01*
X753965Y1387065D01*
X752146Y1388281D01*
X750000Y1388708D01*
D02*
G37*
G36*
X973216Y1388508D02*
X971070Y1388081D01*
X969251Y1386865D01*
X968035Y1385046D01*
X967608Y1382900D01*
X968035Y1380754D01*
X969251Y1378935D01*
X971070Y1377719D01*
X973216Y1377292D01*
X975362Y1377719D01*
X977181Y1378935D01*
X978397Y1380754D01*
X978824Y1382900D01*
X978397Y1385046D01*
X977181Y1386865D01*
X975362Y1388081D01*
X973216Y1388508D01*
D02*
G37*
G36*
X450900Y1377808D02*
X448754Y1377381D01*
X446935Y1376165D01*
X446785Y1375941D01*
X445515D01*
X445365Y1376165D01*
X443546Y1377381D01*
X441400Y1377808D01*
X439254Y1377381D01*
X437435Y1376165D01*
X436219Y1374346D01*
X435792Y1372200D01*
X436219Y1370054D01*
X437435Y1368235D01*
X439254Y1367019D01*
X441400Y1366592D01*
X443546Y1367019D01*
X445365Y1368235D01*
X445515Y1368459D01*
X446785D01*
X446935Y1368235D01*
X448754Y1367019D01*
X449117Y1366947D01*
X449331Y1366087D01*
X449312Y1365613D01*
X447338Y1364098D01*
X445735Y1362009D01*
X444727Y1359577D01*
X444384Y1356966D01*
X444727Y1354355D01*
X445735Y1351923D01*
X447338Y1349834D01*
X449427Y1348231D01*
X451859Y1347223D01*
X454470Y1346880D01*
X457080Y1347223D01*
X459513Y1348231D01*
X461602Y1349834D01*
X463205Y1351923D01*
X464212Y1354355D01*
X464556Y1356966D01*
X464212Y1359577D01*
X463205Y1362009D01*
X461602Y1364098D01*
X459513Y1365701D01*
X457080Y1366709D01*
X455232Y1366952D01*
X454865Y1368235D01*
X456081Y1370054D01*
X456508Y1372200D01*
X456081Y1374346D01*
X454865Y1376165D01*
X453046Y1377381D01*
X450900Y1377808D01*
D02*
G37*
G36*
X693100D02*
X690954Y1377381D01*
X689135Y1376165D01*
X688985Y1375941D01*
X687715D01*
X687565Y1376165D01*
X685746Y1377381D01*
X683600Y1377808D01*
X681454Y1377381D01*
X679635Y1376165D01*
X678419Y1374346D01*
X677992Y1372200D01*
X678419Y1370054D01*
X679635Y1368235D01*
X681454Y1367019D01*
X683600Y1366592D01*
X685746Y1367019D01*
X687565Y1368235D01*
X687715Y1368459D01*
X688985D01*
X689135Y1368235D01*
X690954Y1367019D01*
X691317Y1366947D01*
X691531Y1366087D01*
X691513Y1365613D01*
X689538Y1364098D01*
X687935Y1362009D01*
X686927Y1359577D01*
X686584Y1356966D01*
X686927Y1354355D01*
X687935Y1351923D01*
X689538Y1349834D01*
X691627Y1348231D01*
X694060Y1347223D01*
X696670Y1346880D01*
X699280Y1347223D01*
X701713Y1348231D01*
X703802Y1349834D01*
X705405Y1351923D01*
X706413Y1354355D01*
X706756Y1356966D01*
X706413Y1359577D01*
X705405Y1362009D01*
X703802Y1364098D01*
X701713Y1365701D01*
X699280Y1366709D01*
X697431Y1366952D01*
X697065Y1368235D01*
X698281Y1370054D01*
X698708Y1372200D01*
X698281Y1374346D01*
X697065Y1376165D01*
X695246Y1377381D01*
X693100Y1377808D01*
D02*
G37*
G36*
X918436Y1388508D02*
X916290Y1388081D01*
X914471Y1386865D01*
X913255Y1385046D01*
X912828Y1382900D01*
X913255Y1380754D01*
X914471Y1378935D01*
X916290Y1377719D01*
X918436Y1377292D01*
X920582Y1377719D01*
X922401Y1378935D01*
X923617Y1380754D01*
X924044Y1382900D01*
X923617Y1385046D01*
X922401Y1386865D01*
X920582Y1388081D01*
X918436Y1388508D01*
D02*
G37*
G36*
X153970Y494003D02*
X150837Y493591D01*
X147918Y492382D01*
X145412Y490458D01*
X143488Y487952D01*
X142279Y485033D01*
X141866Y481900D01*
X142279Y478767D01*
X143488Y475848D01*
X145412Y473341D01*
X147918Y471418D01*
X150837Y470209D01*
X153970Y469796D01*
X157103Y470209D01*
X160022Y471418D01*
X162528Y473341D01*
X164452Y475848D01*
X165661Y478767D01*
X166074Y481900D01*
X165661Y485033D01*
X164452Y487952D01*
X162528Y490458D01*
X160022Y492382D01*
X157103Y493591D01*
X153970Y494003D01*
D02*
G37*
G36*
X642500Y496808D02*
X640354Y496381D01*
X638535Y495165D01*
X637319Y493346D01*
X636892Y491200D01*
X637319Y489054D01*
X638535Y487235D01*
X640354Y486019D01*
X642500Y485592D01*
X644646Y486019D01*
X646465Y487235D01*
X647681Y489054D01*
X648108Y491200D01*
X647681Y493346D01*
X646465Y495165D01*
X644646Y496381D01*
X642500Y496808D01*
D02*
G37*
G36*
X578464Y488808D02*
X576318Y488381D01*
X574499Y487165D01*
X573283Y485346D01*
X572856Y483200D01*
X573283Y481054D01*
X574499Y479235D01*
X576318Y478019D01*
X578464Y477592D01*
X580610Y478019D01*
X582429Y479235D01*
X583645Y481054D01*
X584072Y483200D01*
X583645Y485346D01*
X582429Y487165D01*
X580610Y488381D01*
X578464Y488808D01*
D02*
G37*
G36*
X1067079Y475015D02*
X1063294Y474517D01*
X1059766Y473056D01*
X1056737Y470732D01*
X1054413Y467703D01*
X1052952Y464175D01*
X1052454Y460390D01*
X1052952Y456605D01*
X1054413Y453078D01*
X1056737Y450048D01*
X1059766Y447724D01*
X1063294Y446263D01*
X1067079Y445765D01*
X1070864Y446263D01*
X1074391Y447724D01*
X1077420Y450048D01*
X1079744Y453078D01*
X1081206Y456605D01*
X1081704Y460390D01*
X1081206Y464175D01*
X1079744Y467703D01*
X1077420Y470732D01*
X1074391Y473056D01*
X1070864Y474517D01*
X1067079Y475015D01*
D02*
G37*
G36*
X336416Y456308D02*
X334270Y455881D01*
X332451Y454665D01*
X331235Y452846D01*
X330808Y450700D01*
X331235Y448554D01*
X332451Y446735D01*
X334270Y445519D01*
X336416Y445092D01*
X338562Y445519D01*
X340381Y446735D01*
X341597Y448554D01*
X342024Y450700D01*
X341597Y452846D01*
X340381Y454665D01*
X338562Y455881D01*
X336416Y456308D01*
D02*
G37*
G36*
X397166Y490808D02*
X395020Y490381D01*
X393201Y489165D01*
X391985Y487346D01*
X391558Y485200D01*
X391985Y483054D01*
X393201Y481235D01*
X393425Y481085D01*
Y479815D01*
X393201Y479665D01*
X391985Y477846D01*
X391558Y475700D01*
X391985Y473554D01*
X393201Y471735D01*
X393425Y471585D01*
Y470315D01*
X393201Y470165D01*
X391985Y468346D01*
X391558Y466200D01*
X391985Y464054D01*
X393201Y462235D01*
X395020Y461019D01*
X397166Y460592D01*
X399312Y461019D01*
X401131Y462235D01*
X402347Y464054D01*
X402774Y466200D01*
X402347Y468346D01*
X401131Y470165D01*
X400907Y470315D01*
Y471585D01*
X401131Y471735D01*
X402347Y473554D01*
X402774Y475700D01*
X402347Y477846D01*
X401131Y479665D01*
X400907Y479815D01*
Y481085D01*
X401131Y481235D01*
X402347Y483054D01*
X402774Y485200D01*
X402347Y487346D01*
X401131Y489165D01*
X399312Y490381D01*
X397166Y490808D01*
D02*
G37*
G36*
X280966Y490608D02*
X278820Y490181D01*
X277001Y488965D01*
X275785Y487146D01*
X275358Y485000D01*
X275785Y482854D01*
X277001Y481035D01*
X277225Y480885D01*
Y479615D01*
X277001Y479465D01*
X275785Y477646D01*
X275358Y475500D01*
X275785Y473354D01*
X277001Y471535D01*
X277225Y471385D01*
Y470115D01*
X277001Y469965D01*
X275785Y468146D01*
X275358Y466000D01*
X275785Y463854D01*
X277001Y462035D01*
X278820Y460819D01*
X280966Y460392D01*
X283112Y460819D01*
X284931Y462035D01*
X286147Y463854D01*
X286574Y466000D01*
X286147Y468146D01*
X284931Y469965D01*
X284707Y470115D01*
Y471385D01*
X284931Y471535D01*
X286147Y473354D01*
X286574Y475500D01*
X286147Y477646D01*
X284931Y479465D01*
X284707Y479615D01*
Y480885D01*
X284931Y481035D01*
X286147Y482854D01*
X286574Y485000D01*
X286147Y487146D01*
X284931Y488965D01*
X283112Y490181D01*
X280966Y490608D01*
D02*
G37*
G36*
X220216Y513308D02*
X218070Y512881D01*
X216251Y511665D01*
X215035Y509846D01*
X214608Y507700D01*
X215035Y505554D01*
X216251Y503735D01*
X218070Y502519D01*
X220216Y502092D01*
X222362Y502519D01*
X224181Y503735D01*
X225397Y505554D01*
X225824Y507700D01*
X225397Y509846D01*
X224181Y511665D01*
X222362Y512881D01*
X220216Y513308D01*
D02*
G37*
G36*
X337416Y513508D02*
X335270Y513081D01*
X333451Y511865D01*
X332235Y510046D01*
X331808Y507900D01*
X332235Y505754D01*
X333451Y503935D01*
X335270Y502719D01*
X337416Y502292D01*
X339562Y502719D01*
X341381Y503935D01*
X342597Y505754D01*
X343024Y507900D01*
X342597Y510046D01*
X341381Y511865D01*
X339562Y513081D01*
X337416Y513508D01*
D02*
G37*
G36*
X153970Y532104D02*
X150837Y531691D01*
X147918Y530482D01*
X145412Y528559D01*
X143488Y526052D01*
X142279Y523133D01*
X141867Y520000D01*
X142279Y516868D01*
X143488Y513948D01*
X145412Y511442D01*
X147918Y509518D01*
X150837Y508309D01*
X153970Y507897D01*
X157103Y508309D01*
X160022Y509518D01*
X162528Y511442D01*
X164452Y513948D01*
X165661Y516868D01*
X166074Y520000D01*
X165661Y523133D01*
X164452Y526052D01*
X162528Y528559D01*
X160022Y530482D01*
X157103Y531691D01*
X153970Y532104D01*
D02*
G37*
G36*
X731464Y504808D02*
X729318Y504381D01*
X727499Y503165D01*
X726283Y501346D01*
X725856Y499200D01*
X726283Y497054D01*
X727499Y495235D01*
X729318Y494019D01*
X731464Y493592D01*
X733610Y494019D01*
X735429Y495235D01*
X736645Y497054D01*
X737072Y499200D01*
X736645Y501346D01*
X735429Y503165D01*
X733610Y504381D01*
X731464Y504808D01*
D02*
G37*
G36*
X189200Y496874D02*
X187054Y496447D01*
X185235Y495231D01*
X184019Y493412D01*
X183592Y491266D01*
X184019Y489120D01*
X185235Y487301D01*
X187054Y486085D01*
X189200Y485658D01*
X191346Y486085D01*
X193165Y487301D01*
X194381Y489120D01*
X194808Y491266D01*
X194381Y493412D01*
X193165Y495231D01*
X191346Y496447D01*
X189200Y496874D01*
D02*
G37*
G36*
X305400Y497074D02*
X303254Y496647D01*
X301435Y495431D01*
X300219Y493612D01*
X299792Y491466D01*
X300219Y489320D01*
X301435Y487501D01*
X303254Y486285D01*
X305400Y485858D01*
X307546Y486285D01*
X309365Y487501D01*
X310581Y489320D01*
X311008Y491466D01*
X310581Y493612D01*
X309365Y495431D01*
X307546Y496647D01*
X305400Y497074D01*
D02*
G37*
G36*
X578464Y504808D02*
X576318Y504381D01*
X574499Y503165D01*
X573283Y501346D01*
X572856Y499200D01*
X573283Y497054D01*
X574499Y495235D01*
X576318Y494019D01*
X578464Y493592D01*
X580610Y494019D01*
X582429Y495235D01*
X583645Y497054D01*
X584072Y499200D01*
X583645Y501346D01*
X582429Y503165D01*
X580610Y504381D01*
X578464Y504808D01*
D02*
G37*
G36*
X475800Y428886D02*
X473190Y428543D01*
X470757Y427535D01*
X468668Y425932D01*
X467065Y423843D01*
X466057Y421410D01*
X465714Y418800D01*
X466057Y416189D01*
X467065Y413757D01*
X468668Y411668D01*
X470757Y410065D01*
X473190Y409057D01*
X475800Y408714D01*
X478410Y409057D01*
X480843Y410065D01*
X482932Y411668D01*
X484535Y413757D01*
X485543Y416189D01*
X485886Y418800D01*
X485543Y421410D01*
X484535Y423843D01*
X482932Y425932D01*
X480843Y427535D01*
X478410Y428543D01*
X475800Y428886D01*
D02*
G37*
G36*
X501200D02*
X498590Y428543D01*
X496157Y427535D01*
X494068Y425932D01*
X492465Y423843D01*
X491457Y421410D01*
X491114Y418800D01*
X491457Y416189D01*
X492465Y413757D01*
X494068Y411668D01*
X496157Y410065D01*
X498590Y409057D01*
X501200Y408714D01*
X503811Y409057D01*
X506243Y410065D01*
X508332Y411668D01*
X509935Y413757D01*
X510943Y416189D01*
X511286Y418800D01*
X510943Y421410D01*
X509935Y423843D01*
X508332Y425932D01*
X506243Y427535D01*
X503811Y428543D01*
X501200Y428886D01*
D02*
G37*
G36*
X604460Y432808D02*
X602314Y432381D01*
X600495Y431165D01*
X599279Y429346D01*
X598853Y427200D01*
X599279Y425054D01*
X600495Y423235D01*
X602314Y422019D01*
X604460Y421592D01*
X604897Y421679D01*
X605393Y420483D01*
X604065Y419595D01*
X602849Y417776D01*
X602422Y415630D01*
X602849Y413484D01*
X604065Y411665D01*
X605884Y410449D01*
X608030Y410023D01*
X610176Y410449D01*
X611995Y411665D01*
X613211Y413484D01*
X613638Y415630D01*
X613211Y417776D01*
X611995Y419595D01*
X610176Y420811D01*
X608030Y421238D01*
X607593Y421151D01*
X607098Y422347D01*
X608425Y423235D01*
X609641Y425054D01*
X610068Y427200D01*
X609641Y429346D01*
X608425Y431165D01*
X606606Y432381D01*
X604460Y432808D01*
D02*
G37*
G36*
X353366Y433008D02*
X351220Y432581D01*
X349401Y431365D01*
X348185Y429546D01*
X347758Y427400D01*
X348185Y425254D01*
X349401Y423435D01*
X349625Y423285D01*
Y422015D01*
X349401Y421865D01*
X348185Y420046D01*
X347758Y417900D01*
X348185Y415754D01*
X349401Y413935D01*
X349625Y413785D01*
Y412515D01*
X349401Y412365D01*
X348185Y410546D01*
X347758Y408400D01*
X348185Y406254D01*
X349401Y404435D01*
X351220Y403219D01*
X353366Y402792D01*
X355512Y403219D01*
X357331Y404435D01*
X358547Y406254D01*
X358974Y408400D01*
X358547Y410546D01*
X357331Y412365D01*
X357107Y412515D01*
Y413785D01*
X357331Y413935D01*
X358547Y415754D01*
X358974Y417900D01*
X358547Y420046D01*
X357331Y421865D01*
X357107Y422015D01*
Y423285D01*
X357331Y423435D01*
X358547Y425254D01*
X358974Y427400D01*
X358547Y429546D01*
X357331Y431365D01*
X355512Y432581D01*
X353366Y433008D01*
D02*
G37*
G36*
X292616Y398508D02*
X290470Y398081D01*
X288651Y396865D01*
X287435Y395046D01*
X287008Y392900D01*
X287435Y390754D01*
X288651Y388935D01*
X290470Y387719D01*
X292616Y387292D01*
X294762Y387719D01*
X296581Y388935D01*
X297797Y390754D01*
X298224Y392900D01*
X297797Y395046D01*
X296581Y396865D01*
X294762Y398081D01*
X292616Y398508D01*
D02*
G37*
G36*
X728030Y395242D02*
X725884Y394815D01*
X724065Y393599D01*
X722849Y391780D01*
X722743Y391247D01*
X721278Y390393D01*
X720030Y390642D01*
X718782Y390393D01*
X717317Y391247D01*
X717211Y391780D01*
X715995Y393599D01*
X714176Y394815D01*
X712030Y395242D01*
X709884Y394815D01*
X708065Y393599D01*
X706849Y391780D01*
X706422Y389634D01*
X706849Y387488D01*
X708065Y385669D01*
X709884Y384453D01*
X712030Y384026D01*
X713278Y384275D01*
X714743Y383421D01*
X714849Y382888D01*
X716065Y381069D01*
X717884Y379853D01*
X720030Y379426D01*
X722176Y379853D01*
X723995Y381069D01*
X725211Y382888D01*
X725490Y384290D01*
X725884Y384453D01*
X728030Y384026D01*
X730176Y384453D01*
X731995Y385669D01*
X733211Y387488D01*
X733638Y389634D01*
X733211Y391780D01*
X731995Y393599D01*
X730176Y394815D01*
X728030Y395242D01*
D02*
G37*
G36*
X1067079Y424215D02*
X1063294Y423717D01*
X1059766Y422256D01*
X1056737Y419931D01*
X1054413Y416903D01*
X1052952Y413375D01*
X1052454Y409590D01*
X1052952Y405805D01*
X1054413Y402277D01*
X1056737Y399249D01*
X1059766Y396924D01*
X1063294Y395463D01*
X1067079Y394965D01*
X1070864Y395463D01*
X1074391Y396924D01*
X1077420Y399249D01*
X1079744Y402277D01*
X1081206Y405805D01*
X1081704Y409590D01*
X1081206Y413375D01*
X1079744Y416903D01*
X1077420Y419931D01*
X1074391Y422256D01*
X1070864Y423717D01*
X1067079Y424215D01*
D02*
G37*
G36*
X624030Y421238D02*
X621884Y420811D01*
X620065Y419595D01*
X618849Y417776D01*
X618422Y415630D01*
X618849Y413484D01*
X620065Y411665D01*
X621884Y410449D01*
X624030Y410023D01*
X626176Y410449D01*
X627995Y411665D01*
X629211Y413484D01*
X629638Y415630D01*
X629211Y417776D01*
X627995Y419595D01*
X626176Y420811D01*
X624030Y421238D01*
D02*
G37*
G36*
X573864Y472808D02*
X571718Y472381D01*
X569899Y471165D01*
X568683Y469346D01*
X568256Y467200D01*
X568683Y465054D01*
X569899Y463235D01*
X571718Y462019D01*
X572251Y461913D01*
X573105Y460448D01*
X572856Y459200D01*
X573105Y457952D01*
X572251Y456487D01*
X571718Y456381D01*
X569899Y455165D01*
X568683Y453346D01*
X568256Y451200D01*
X568683Y449054D01*
X569899Y447235D01*
X571718Y446019D01*
X573266Y445711D01*
X573418Y445345D01*
X572991Y443199D01*
X573418Y441053D01*
X573267Y440689D01*
X571718Y440381D01*
X569899Y439165D01*
X568683Y437346D01*
X568256Y435200D01*
X568683Y433054D01*
X569899Y431235D01*
X571718Y430019D01*
X573864Y429592D01*
X576010Y430019D01*
X577829Y431235D01*
X579045Y433054D01*
X579472Y435200D01*
X579045Y437346D01*
X579196Y437710D01*
X580745Y438018D01*
X582564Y439234D01*
X583780Y441053D01*
X584207Y443199D01*
X583780Y445345D01*
X582564Y447164D01*
X580745Y448380D01*
X579197Y448688D01*
X579045Y449054D01*
X579472Y451200D01*
X579223Y452448D01*
X580077Y453913D01*
X580610Y454019D01*
X582429Y455235D01*
X583645Y457054D01*
X584072Y459200D01*
X583645Y461346D01*
X582429Y463165D01*
X580610Y464381D01*
X580077Y464487D01*
X579223Y465951D01*
X579472Y467200D01*
X579045Y469346D01*
X577829Y471165D01*
X576010Y472381D01*
X573864Y472808D01*
D02*
G37*
G36*
X153970Y455904D02*
X150837Y455491D01*
X147918Y454282D01*
X145412Y452358D01*
X143488Y449852D01*
X142279Y446932D01*
X141866Y443800D01*
X142279Y440667D01*
X143488Y437748D01*
X145412Y435241D01*
X147918Y433318D01*
X150837Y432109D01*
X153970Y431696D01*
X157103Y432109D01*
X160022Y433318D01*
X162528Y435241D01*
X164452Y437748D01*
X165661Y440667D01*
X166074Y443800D01*
X165661Y446932D01*
X164452Y449852D01*
X162528Y452358D01*
X160022Y454282D01*
X157103Y455491D01*
X153970Y455904D01*
D02*
G37*
G36*
X220216Y456108D02*
X218070Y455681D01*
X216251Y454465D01*
X215035Y452646D01*
X214608Y450500D01*
X215035Y448354D01*
X216251Y446535D01*
X218070Y445319D01*
X220216Y444892D01*
X222362Y445319D01*
X224181Y446535D01*
X225397Y448354D01*
X225824Y450500D01*
X225397Y452646D01*
X224181Y454465D01*
X222362Y455681D01*
X220216Y456108D01*
D02*
G37*
G36*
X261600Y439274D02*
X259454Y438847D01*
X257635Y437631D01*
X256419Y435812D01*
X255992Y433666D01*
X256419Y431520D01*
X257635Y429701D01*
X259454Y428485D01*
X261600Y428058D01*
X263746Y428485D01*
X265565Y429701D01*
X266781Y431520D01*
X267208Y433666D01*
X266781Y435812D01*
X265565Y437631D01*
X263746Y438847D01*
X261600Y439274D01*
D02*
G37*
G36*
X578600Y424808D02*
X576454Y424381D01*
X574635Y423165D01*
X573419Y421346D01*
X572992Y419200D01*
X573419Y417054D01*
X574635Y415235D01*
X576454Y414019D01*
X578600Y413592D01*
X580746Y414019D01*
X582565Y415235D01*
X583781Y417054D01*
X584207Y419200D01*
X583781Y421346D01*
X582565Y423165D01*
X580746Y424381D01*
X578600Y424808D01*
D02*
G37*
G36*
X757596D02*
X755450Y424381D01*
X753631Y423165D01*
X752415Y421346D01*
X751988Y419200D01*
X752415Y417054D01*
X753631Y415235D01*
X755450Y414019D01*
X757596Y413592D01*
X759742Y414019D01*
X761561Y415235D01*
X762777Y417054D01*
X763204Y419200D01*
X762777Y421346D01*
X761561Y423165D01*
X759742Y424381D01*
X757596Y424808D01*
D02*
G37*
G36*
X731464Y432808D02*
X729318Y432381D01*
X727499Y431165D01*
X726283Y429346D01*
X725856Y427200D01*
X726283Y425054D01*
X727499Y423235D01*
X729318Y422019D01*
X731464Y421592D01*
X733610Y422019D01*
X735429Y423235D01*
X736645Y425054D01*
X737072Y427200D01*
X736645Y429346D01*
X735429Y431165D01*
X733610Y432381D01*
X731464Y432808D01*
D02*
G37*
G36*
X189250Y610574D02*
X187104Y610147D01*
X185285Y608931D01*
X184069Y607112D01*
X183642Y604966D01*
X184069Y602820D01*
X185285Y601001D01*
X187104Y599785D01*
X189250Y599358D01*
X191396Y599785D01*
X193215Y601001D01*
X194431Y602820D01*
X194858Y604966D01*
X194431Y607112D01*
X193215Y608931D01*
X191396Y610147D01*
X189250Y610574D01*
D02*
G37*
G36*
X305450Y610774D02*
X303304Y610347D01*
X301485Y609131D01*
X300269Y607312D01*
X299842Y605166D01*
X300269Y603020D01*
X301485Y601201D01*
X303304Y599985D01*
X305450Y599558D01*
X307596Y599985D01*
X309415Y601201D01*
X310631Y603020D01*
X311058Y605166D01*
X310631Y607312D01*
X309415Y609131D01*
X307596Y610347D01*
X305450Y610774D01*
D02*
G37*
G36*
X1054134Y616358D02*
X1051988Y615931D01*
X1050169Y614715D01*
X1048953Y612896D01*
X1048526Y610750D01*
X1048953Y608604D01*
X1050169Y606785D01*
X1051988Y605569D01*
X1054134Y605142D01*
X1056280Y605569D01*
X1058099Y606785D01*
X1059315Y608604D01*
X1059742Y610750D01*
X1059315Y612896D01*
X1058099Y614715D01*
X1056280Y615931D01*
X1054134Y616358D01*
D02*
G37*
G36*
X704030Y608908D02*
X701884Y608481D01*
X700065Y607265D01*
X698849Y605446D01*
X698422Y603300D01*
X698849Y601154D01*
X700065Y599335D01*
X701884Y598119D01*
X704030Y597692D01*
X706176Y598119D01*
X707995Y599335D01*
X709211Y601154D01*
X709638Y603300D01*
X709211Y605446D01*
X707995Y607265D01*
X706176Y608481D01*
X704030Y608908D01*
D02*
G37*
G36*
X153970Y608303D02*
X150837Y607891D01*
X147918Y606682D01*
X145411Y604758D01*
X143488Y602252D01*
X142279Y599333D01*
X141866Y596200D01*
X142279Y593067D01*
X143488Y590148D01*
X145411Y587641D01*
X147918Y585718D01*
X150837Y584509D01*
X153970Y584096D01*
X157102Y584509D01*
X160022Y585718D01*
X162528Y587641D01*
X164452Y590148D01*
X165661Y593067D01*
X166073Y596200D01*
X165661Y599333D01*
X164452Y602252D01*
X162528Y604758D01*
X160022Y606682D01*
X157102Y607891D01*
X153970Y608303D01*
D02*
G37*
G36*
X1054134Y603658D02*
X1051988Y603231D01*
X1050169Y602015D01*
X1048953Y600196D01*
X1048526Y598050D01*
X1048953Y595904D01*
X1050169Y594085D01*
X1051988Y592869D01*
X1054134Y592442D01*
X1056280Y592869D01*
X1058099Y594085D01*
X1059315Y595904D01*
X1059742Y598050D01*
X1059315Y600196D01*
X1058099Y602015D01*
X1056280Y603231D01*
X1054134Y603658D01*
D02*
G37*
G36*
X608030Y608908D02*
X605884Y608481D01*
X604065Y607265D01*
X602849Y605446D01*
X602422Y603300D01*
X602849Y601154D01*
X604065Y599335D01*
X605884Y598119D01*
X608030Y597692D01*
X610176Y598119D01*
X611995Y599335D01*
X613211Y601154D01*
X613638Y603300D01*
X613211Y605446D01*
X611995Y607265D01*
X610176Y608481D01*
X608030Y608908D01*
D02*
G37*
G36*
X220216Y627108D02*
X218070Y626681D01*
X216251Y625465D01*
X215035Y623646D01*
X214608Y621500D01*
X215035Y619354D01*
X216251Y617535D01*
X218070Y616319D01*
X220216Y615892D01*
X222362Y616319D01*
X224181Y617535D01*
X225397Y619354D01*
X225824Y621500D01*
X225397Y623646D01*
X224181Y625465D01*
X222362Y626681D01*
X220216Y627108D01*
D02*
G37*
G36*
X397166Y661808D02*
X395020Y661381D01*
X393201Y660165D01*
X391985Y658346D01*
X391558Y656200D01*
X391985Y654054D01*
X393201Y652235D01*
X393425Y652085D01*
Y650815D01*
X393201Y650665D01*
X391985Y648846D01*
X391558Y646700D01*
X391985Y644554D01*
X393201Y642735D01*
X393425Y642585D01*
Y641315D01*
X393201Y641165D01*
X391985Y639346D01*
X391558Y637200D01*
X391985Y635054D01*
X393201Y633235D01*
X395020Y632019D01*
X397166Y631592D01*
X399312Y632019D01*
X401131Y633235D01*
X402347Y635054D01*
X402774Y637200D01*
X402347Y639346D01*
X401131Y641165D01*
X400907Y641315D01*
Y642585D01*
X401131Y642735D01*
X402347Y644554D01*
X402774Y646700D01*
X402347Y648846D01*
X401131Y650665D01*
X400907Y650815D01*
Y652085D01*
X401131Y652235D01*
X402347Y654054D01*
X402774Y656200D01*
X402347Y658346D01*
X401131Y660165D01*
X399312Y661381D01*
X397166Y661808D01*
D02*
G37*
G36*
X497435Y662875D02*
X495289Y662448D01*
X493469Y661233D01*
X492254Y659413D01*
X491827Y657267D01*
X492254Y655121D01*
X493469Y653302D01*
X493693Y653152D01*
Y651882D01*
X493469Y651732D01*
X492254Y649913D01*
X491827Y647767D01*
X492254Y645621D01*
X493469Y643802D01*
X493693Y643652D01*
Y642382D01*
X493469Y642233D01*
X492254Y640413D01*
X491827Y638267D01*
X492254Y636121D01*
X493469Y634302D01*
X495289Y633086D01*
X497435Y632659D01*
X499580Y633086D01*
X501400Y634302D01*
X502615Y636121D01*
X503042Y638267D01*
X502615Y640413D01*
X501400Y642233D01*
X501176Y642382D01*
Y643652D01*
X501400Y643802D01*
X502615Y645621D01*
X503042Y647767D01*
X502615Y649913D01*
X501400Y651732D01*
X501176Y651882D01*
Y653152D01*
X501400Y653302D01*
X502615Y655121D01*
X503042Y657267D01*
X502615Y659413D01*
X501400Y661233D01*
X499580Y662448D01*
X497435Y662875D01*
D02*
G37*
G36*
X1065800Y649108D02*
X1063654Y648681D01*
X1061835Y647465D01*
X1060619Y645646D01*
X1060192Y643500D01*
X1060619Y641354D01*
X1061835Y639535D01*
X1063654Y638319D01*
X1065800Y637892D01*
X1067946Y638319D01*
X1069765Y639535D01*
X1070981Y641354D01*
X1071408Y643500D01*
X1070981Y645646D01*
X1069765Y647465D01*
X1067946Y648681D01*
X1065800Y649108D01*
D02*
G37*
G36*
X280966Y661608D02*
X278820Y661181D01*
X277001Y659965D01*
X275785Y658146D01*
X275358Y656000D01*
X275785Y653854D01*
X277001Y652035D01*
X277225Y651885D01*
Y650615D01*
X277001Y650465D01*
X275785Y648646D01*
X275358Y646500D01*
X275785Y644354D01*
X277001Y642535D01*
X277225Y642385D01*
Y641115D01*
X277001Y640965D01*
X275785Y639146D01*
X275358Y637000D01*
X275785Y634854D01*
X277001Y633035D01*
X278820Y631819D01*
X280966Y631392D01*
X283112Y631819D01*
X284931Y633035D01*
X286147Y634854D01*
X286574Y637000D01*
X286147Y639146D01*
X284931Y640965D01*
X284707Y641115D01*
Y642385D01*
X284931Y642535D01*
X286147Y644354D01*
X286574Y646500D01*
X286147Y648646D01*
X284931Y650465D01*
X284707Y650615D01*
Y651885D01*
X284931Y652035D01*
X286147Y653854D01*
X286574Y656000D01*
X286147Y658146D01*
X284931Y659965D01*
X283112Y661181D01*
X280966Y661608D01*
D02*
G37*
G36*
X337416Y627308D02*
X335270Y626881D01*
X333451Y625665D01*
X332235Y623846D01*
X331808Y621700D01*
X332235Y619554D01*
X333451Y617735D01*
X335270Y616519D01*
X337416Y616092D01*
X339562Y616519D01*
X341381Y617735D01*
X342597Y619554D01*
X343024Y621700D01*
X342597Y623846D01*
X341381Y625665D01*
X339562Y626881D01*
X337416Y627308D01*
D02*
G37*
G36*
X1023466Y629058D02*
X1021320Y628631D01*
X1019501Y627415D01*
X1018285Y625596D01*
X1017858Y623450D01*
X1018285Y621304D01*
X1019501Y619485D01*
X1021320Y618269D01*
X1023466Y617842D01*
X1025612Y618269D01*
X1027431Y619485D01*
X1028647Y621304D01*
X1029074Y623450D01*
X1028647Y625596D01*
X1027431Y627415D01*
X1025612Y628631D01*
X1023466Y629058D01*
D02*
G37*
G36*
X153970Y646404D02*
X150837Y645991D01*
X147918Y644782D01*
X145412Y642858D01*
X143488Y640352D01*
X142279Y637433D01*
X141866Y634300D01*
X142279Y631167D01*
X143488Y628248D01*
X145412Y625741D01*
X147918Y623818D01*
X150837Y622609D01*
X153970Y622196D01*
X157103Y622609D01*
X160022Y623818D01*
X162528Y625741D01*
X164452Y628248D01*
X165661Y631167D01*
X166074Y634300D01*
X165661Y637433D01*
X164452Y640352D01*
X162528Y642858D01*
X160022Y644782D01*
X157103Y645991D01*
X153970Y646404D01*
D02*
G37*
G36*
X397216Y604508D02*
X395070Y604081D01*
X393251Y602865D01*
X392035Y601046D01*
X391608Y598900D01*
X392035Y596754D01*
X393251Y594935D01*
X393475Y594785D01*
Y593515D01*
X393251Y593365D01*
X392035Y591546D01*
X391608Y589400D01*
X392035Y587254D01*
X393251Y585435D01*
X393475Y585285D01*
Y584015D01*
X393251Y583865D01*
X392035Y582046D01*
X391608Y579900D01*
X392035Y577754D01*
X393251Y575935D01*
X395070Y574719D01*
X397216Y574292D01*
X399362Y574719D01*
X401181Y575935D01*
X402397Y577754D01*
X402824Y579900D01*
X402397Y582046D01*
X401181Y583865D01*
X400957Y584015D01*
Y585285D01*
X401181Y585435D01*
X402397Y587254D01*
X402824Y589400D01*
X402397Y591546D01*
X401181Y593365D01*
X400957Y593515D01*
Y594785D01*
X401181Y594935D01*
X402397Y596754D01*
X402824Y598900D01*
X402397Y601046D01*
X401181Y602865D01*
X399362Y604081D01*
X397216Y604508D01*
D02*
G37*
G36*
X656030Y548242D02*
X653884Y547815D01*
X652065Y546599D01*
X650849Y544780D01*
X650422Y542634D01*
X650849Y540488D01*
X652065Y538669D01*
X653884Y537453D01*
X656030Y537026D01*
X658176Y537453D01*
X659995Y538669D01*
X661211Y540488D01*
X661638Y542634D01*
X661211Y544780D01*
X659995Y546599D01*
X658176Y547815D01*
X656030Y548242D01*
D02*
G37*
G36*
X189200Y554074D02*
X187054Y553647D01*
X185235Y552431D01*
X184019Y550612D01*
X183592Y548466D01*
X184019Y546320D01*
X185235Y544501D01*
X187054Y543285D01*
X189200Y542858D01*
X191346Y543285D01*
X193165Y544501D01*
X194381Y546320D01*
X194808Y548466D01*
X194381Y550612D01*
X193165Y552431D01*
X191346Y553647D01*
X189200Y554074D01*
D02*
G37*
G36*
X305400Y554274D02*
X303254Y553847D01*
X301435Y552631D01*
X300219Y550812D01*
X299792Y548666D01*
X300219Y546520D01*
X301435Y544701D01*
X303254Y543485D01*
X305400Y543058D01*
X307546Y543485D01*
X309365Y544701D01*
X310581Y546520D01*
X311008Y548666D01*
X310581Y550812D01*
X309365Y552631D01*
X307546Y553847D01*
X305400Y554274D01*
D02*
G37*
G36*
X397166Y548008D02*
X395020Y547581D01*
X393201Y546365D01*
X391985Y544546D01*
X391558Y542400D01*
X391985Y540254D01*
X393201Y538435D01*
X393425Y538285D01*
Y537015D01*
X393201Y536865D01*
X391985Y535046D01*
X391558Y532900D01*
X391985Y530754D01*
X393201Y528935D01*
X393425Y528785D01*
Y527515D01*
X393201Y527365D01*
X391985Y525546D01*
X391558Y523400D01*
X391985Y521254D01*
X393201Y519435D01*
X395020Y518219D01*
X397166Y517792D01*
X399312Y518219D01*
X401131Y519435D01*
X402347Y521254D01*
X402774Y523400D01*
X402347Y525546D01*
X401131Y527365D01*
X400907Y527515D01*
Y528785D01*
X401131Y528935D01*
X402347Y530754D01*
X402774Y532900D01*
X402347Y535046D01*
X401131Y536865D01*
X400907Y537015D01*
Y538285D01*
X401131Y538435D01*
X402347Y540254D01*
X402774Y542400D01*
X402347Y544546D01*
X401131Y546365D01*
X399312Y547581D01*
X397166Y548008D01*
D02*
G37*
G36*
X578464Y536808D02*
X576318Y536381D01*
X574499Y535165D01*
X573283Y533346D01*
X572856Y531200D01*
X573105Y529952D01*
X572251Y528487D01*
X571718Y528381D01*
X569899Y527165D01*
X568683Y525346D01*
X568256Y523200D01*
X568683Y521054D01*
X569899Y519235D01*
X571718Y518019D01*
X573120Y517740D01*
X573283Y517346D01*
X572856Y515200D01*
X573283Y513054D01*
X574499Y511235D01*
X576318Y510019D01*
X578464Y509592D01*
X580610Y510019D01*
X582429Y511235D01*
X583645Y513054D01*
X584072Y515200D01*
X583645Y517346D01*
X582429Y519165D01*
X580610Y520381D01*
X579208Y520660D01*
X579045Y521054D01*
X579472Y523200D01*
X579223Y524448D01*
X580077Y525913D01*
X580610Y526019D01*
X582429Y527235D01*
X583645Y529054D01*
X584072Y531200D01*
X583645Y533346D01*
X582429Y535165D01*
X580610Y536381D01*
X578464Y536808D01*
D02*
G37*
G36*
X965366Y521008D02*
X963220Y520581D01*
X961401Y519365D01*
X960185Y517546D01*
X959758Y515400D01*
X960185Y513254D01*
X961401Y511435D01*
X963220Y510219D01*
X965366Y509792D01*
X967512Y510219D01*
X969331Y511435D01*
X970547Y513254D01*
X970974Y515400D01*
X970547Y517546D01*
X969331Y519365D01*
X967512Y520581D01*
X965366Y521008D01*
D02*
G37*
G36*
X280966Y547808D02*
X278820Y547381D01*
X277001Y546165D01*
X275785Y544346D01*
X275358Y542200D01*
X275785Y540054D01*
X277001Y538235D01*
X277225Y538085D01*
Y536815D01*
X277001Y536665D01*
X275785Y534846D01*
X275358Y532700D01*
X275785Y530554D01*
X277001Y528735D01*
X277225Y528585D01*
Y527315D01*
X277001Y527165D01*
X275785Y525346D01*
X275358Y523200D01*
X275785Y521054D01*
X277001Y519235D01*
X278820Y518019D01*
X280966Y517592D01*
X283112Y518019D01*
X284931Y519235D01*
X286147Y521054D01*
X286574Y523200D01*
X286147Y525346D01*
X284931Y527165D01*
X284707Y527315D01*
Y528585D01*
X284931Y528735D01*
X286147Y530554D01*
X286574Y532700D01*
X286147Y534846D01*
X284931Y536665D01*
X284707Y536815D01*
Y538085D01*
X284931Y538235D01*
X286147Y540054D01*
X286574Y542200D01*
X286147Y544346D01*
X284931Y546165D01*
X283112Y547381D01*
X280966Y547808D01*
D02*
G37*
G36*
X153970Y570204D02*
X150837Y569791D01*
X147918Y568582D01*
X145411Y566659D01*
X143488Y564152D01*
X142279Y561233D01*
X141866Y558100D01*
X142279Y554967D01*
X143488Y552048D01*
X145411Y549542D01*
X147918Y547618D01*
X150837Y546409D01*
X153970Y545996D01*
X157103Y546409D01*
X160022Y547618D01*
X162528Y549542D01*
X164452Y552048D01*
X165661Y554967D01*
X166073Y558100D01*
X165661Y561233D01*
X164452Y564152D01*
X162528Y566659D01*
X160022Y568582D01*
X157103Y569791D01*
X153970Y570204D01*
D02*
G37*
G36*
X832500Y578458D02*
X830354Y578031D01*
X828535Y576815D01*
X827319Y574996D01*
X826892Y572850D01*
X827319Y570704D01*
X828535Y568885D01*
X830354Y567669D01*
X832500Y567242D01*
X834646Y567669D01*
X836465Y568885D01*
X837681Y570704D01*
X838108Y572850D01*
X837681Y574996D01*
X836465Y576815D01*
X834646Y578031D01*
X832500Y578458D01*
D02*
G37*
G36*
X847000Y584208D02*
X844854Y583781D01*
X843035Y582565D01*
X841819Y580746D01*
X841392Y578600D01*
X841819Y576454D01*
X843035Y574635D01*
X844854Y573419D01*
X847000Y572992D01*
X849146Y573419D01*
X850965Y574635D01*
X852181Y576454D01*
X852608Y578600D01*
X852181Y580746D01*
X850965Y582565D01*
X849146Y583781D01*
X847000Y584208D01*
D02*
G37*
G36*
X281016Y604308D02*
X278870Y603881D01*
X277051Y602665D01*
X275835Y600846D01*
X275408Y598700D01*
X275835Y596554D01*
X277051Y594735D01*
X277275Y594585D01*
Y593315D01*
X277051Y593165D01*
X275835Y591346D01*
X275408Y589200D01*
X275835Y587054D01*
X277051Y585235D01*
X277275Y585085D01*
Y583815D01*
X277051Y583665D01*
X275835Y581846D01*
X275408Y579700D01*
X275835Y577554D01*
X277051Y575735D01*
X278870Y574519D01*
X281016Y574092D01*
X283162Y574519D01*
X284981Y575735D01*
X286197Y577554D01*
X286624Y579700D01*
X286197Y581846D01*
X284981Y583665D01*
X284757Y583815D01*
Y585085D01*
X284981Y585235D01*
X286197Y587054D01*
X286624Y589200D01*
X286197Y591346D01*
X284981Y593165D01*
X284757Y593315D01*
Y594585D01*
X284981Y594735D01*
X286197Y596554D01*
X286624Y598700D01*
X286197Y600846D01*
X284981Y602665D01*
X283162Y603881D01*
X281016Y604308D01*
D02*
G37*
G36*
X965366Y575908D02*
X963220Y575481D01*
X961401Y574265D01*
X960185Y572446D01*
X959758Y570300D01*
X960185Y568154D01*
X961401Y566335D01*
X963220Y565119D01*
X965366Y564692D01*
X967512Y565119D01*
X969331Y566335D01*
X970547Y568154D01*
X970974Y570300D01*
X970547Y572446D01*
X969331Y574265D01*
X967512Y575481D01*
X965366Y575908D01*
D02*
G37*
G36*
X220266Y569808D02*
X218120Y569381D01*
X216301Y568165D01*
X215085Y566346D01*
X214658Y564200D01*
X215085Y562054D01*
X216301Y560235D01*
X218120Y559019D01*
X220266Y558592D01*
X222412Y559019D01*
X224231Y560235D01*
X225447Y562054D01*
X225874Y564200D01*
X225447Y566346D01*
X224231Y568165D01*
X222412Y569381D01*
X220266Y569808D01*
D02*
G37*
G36*
X337466Y570008D02*
X335320Y569581D01*
X333501Y568365D01*
X332285Y566546D01*
X331858Y564400D01*
X332285Y562254D01*
X333501Y560435D01*
X335320Y559219D01*
X337466Y558792D01*
X339612Y559219D01*
X341431Y560435D01*
X342647Y562254D01*
X343074Y564400D01*
X342647Y566546D01*
X341431Y568365D01*
X339612Y569581D01*
X337466Y570008D01*
D02*
G37*
G36*
X664030Y574374D02*
X661884Y573947D01*
X660065Y572731D01*
X658849Y570912D01*
X658422Y568766D01*
X658849Y566620D01*
X660065Y564801D01*
X661884Y563585D01*
X664030Y563158D01*
X666176Y563585D01*
X667995Y564801D01*
X669211Y566620D01*
X669638Y568766D01*
X669211Y570912D01*
X667995Y572731D01*
X666176Y573947D01*
X664030Y574374D01*
D02*
G37*
G36*
X616030Y395378D02*
X613884Y394951D01*
X612065Y393735D01*
X610849Y391916D01*
X610422Y389770D01*
X610849Y387624D01*
X612065Y385804D01*
X613884Y384589D01*
X616030Y384162D01*
X618176Y384589D01*
X619995Y385804D01*
X621211Y387624D01*
X621638Y389770D01*
X621211Y391916D01*
X619995Y393735D01*
X618176Y394951D01*
X616030Y395378D01*
D02*
G37*
G36*
X402766Y201108D02*
X400620Y200681D01*
X398801Y199465D01*
X397585Y197646D01*
X397158Y195500D01*
X397585Y193354D01*
X398801Y191535D01*
X400620Y190319D01*
X402766Y189892D01*
X404912Y190319D01*
X406731Y191535D01*
X407947Y193354D01*
X408374Y195500D01*
X407947Y197646D01*
X406731Y199465D01*
X404912Y200681D01*
X402766Y201108D01*
D02*
G37*
G36*
X320000Y201642D02*
X317854Y201215D01*
X316035Y199999D01*
X314819Y198180D01*
X314392Y196034D01*
X314819Y193888D01*
X316035Y192069D01*
X317854Y190853D01*
X320000Y190426D01*
X322146Y190853D01*
X323965Y192069D01*
X325181Y193888D01*
X325608Y196034D01*
X325181Y198180D01*
X323965Y199999D01*
X322146Y201215D01*
X320000Y201642D01*
D02*
G37*
G36*
X92040Y215266D02*
X89430Y214923D01*
X86997Y213915D01*
X84908Y212312D01*
X83305Y210223D01*
X82297Y207791D01*
X81954Y205180D01*
X82297Y202570D01*
X83305Y200137D01*
X84908Y198048D01*
X86997Y196445D01*
X89430Y195437D01*
X92040Y195094D01*
X94650Y195437D01*
X97083Y196445D01*
X99172Y198048D01*
X100775Y200137D01*
X101783Y202570D01*
X102126Y205180D01*
X101783Y207791D01*
X100775Y210223D01*
X99172Y212312D01*
X97083Y213915D01*
X94650Y214923D01*
X92040Y215266D01*
D02*
G37*
G36*
Y189866D02*
X89430Y189523D01*
X86997Y188515D01*
X84908Y186912D01*
X83305Y184823D01*
X82297Y182390D01*
X81954Y179780D01*
X82297Y177169D01*
X83305Y174737D01*
X84908Y172648D01*
X86997Y171045D01*
X89430Y170037D01*
X92040Y169694D01*
X94650Y170037D01*
X97083Y171045D01*
X99172Y172648D01*
X100775Y174737D01*
X101783Y177169D01*
X102126Y179780D01*
X101783Y182390D01*
X100775Y184823D01*
X99172Y186912D01*
X97083Y188515D01*
X94650Y189523D01*
X92040Y189866D01*
D02*
G37*
G36*
X1001970Y135808D02*
X999824Y135381D01*
X998005Y134165D01*
X996789Y132346D01*
X996362Y130200D01*
X996789Y128054D01*
X998005Y126235D01*
X999824Y125019D01*
X1001970Y124592D01*
X1004116Y125019D01*
X1005935Y126235D01*
X1007151Y128054D01*
X1007578Y130200D01*
X1007151Y132346D01*
X1005935Y134165D01*
X1004116Y135381D01*
X1001970Y135808D01*
D02*
G37*
G36*
X1018970D02*
X1016824Y135381D01*
X1015005Y134165D01*
X1013789Y132346D01*
X1013362Y130200D01*
X1013789Y128054D01*
X1015005Y126235D01*
X1016824Y125019D01*
X1018970Y124592D01*
X1021116Y125019D01*
X1022935Y126235D01*
X1024151Y128054D01*
X1024578Y130200D01*
X1024151Y132346D01*
X1022935Y134165D01*
X1021116Y135381D01*
X1018970Y135808D01*
D02*
G37*
G36*
X92040Y164466D02*
X89430Y164123D01*
X86997Y163115D01*
X84908Y161512D01*
X83305Y159423D01*
X82297Y156990D01*
X81954Y154380D01*
X82297Y151770D01*
X83305Y149337D01*
X84908Y147248D01*
X86997Y145645D01*
X89430Y144637D01*
X92040Y144294D01*
X94650Y144637D01*
X97083Y145645D01*
X99172Y147248D01*
X100775Y149337D01*
X101783Y151770D01*
X102126Y154380D01*
X101783Y156990D01*
X100775Y159423D01*
X99172Y161512D01*
X97083Y163115D01*
X94650Y164123D01*
X92040Y164466D01*
D02*
G37*
G36*
X273600Y222608D02*
X271454Y222181D01*
X269635Y220965D01*
X268419Y219146D01*
X267992Y217000D01*
X268419Y214854D01*
X269635Y213035D01*
X271454Y211819D01*
X273600Y211392D01*
X275746Y211819D01*
X277565Y213035D01*
X278781Y214854D01*
X279208Y217000D01*
X278781Y219146D01*
X277565Y220965D01*
X275746Y222181D01*
X273600Y222608D01*
D02*
G37*
G36*
X1074329Y271690D02*
X1059829D01*
X1052579Y264440D01*
Y249940D01*
X1059829Y242690D01*
X1074329D01*
X1081579Y249940D01*
Y264440D01*
X1074329Y271690D01*
D02*
G37*
G36*
X616966Y263758D02*
X614820Y263331D01*
X613001Y262116D01*
X611785Y260296D01*
X611358Y258151D01*
X611785Y256005D01*
X613001Y254185D01*
X614820Y252970D01*
X616966Y252543D01*
X619112Y252970D01*
X620931Y254185D01*
X622147Y256005D01*
X622574Y258151D01*
X622147Y260296D01*
X620931Y262116D01*
X619112Y263331D01*
X616966Y263758D01*
D02*
G37*
G36*
X264034Y272808D02*
X261888Y272381D01*
X260069Y271165D01*
X258853Y269346D01*
X258426Y267200D01*
X258853Y265054D01*
X260069Y263235D01*
X261888Y262019D01*
X264034Y261592D01*
X266180Y262019D01*
X267999Y263235D01*
X269215Y265054D01*
X269642Y267200D01*
X269215Y269346D01*
X267999Y271165D01*
X266180Y272381D01*
X264034Y272808D01*
D02*
G37*
G36*
X376766Y247808D02*
X374620Y247381D01*
X372801Y246165D01*
X371585Y244346D01*
X371158Y242200D01*
X371585Y240054D01*
X372801Y238235D01*
X374620Y237019D01*
X376766Y236592D01*
X378912Y237019D01*
X380731Y238235D01*
X381947Y240054D01*
X382374Y242200D01*
X381947Y244346D01*
X380731Y246165D01*
X378912Y247381D01*
X376766Y247808D01*
D02*
G37*
G36*
X141734Y225208D02*
X139588Y224781D01*
X137769Y223565D01*
X136553Y221746D01*
X136126Y219600D01*
X136553Y217454D01*
X137769Y215635D01*
X139588Y214419D01*
X141734Y213992D01*
X143880Y214419D01*
X145699Y215635D01*
X146915Y217454D01*
X147342Y219600D01*
X146915Y221746D01*
X145699Y223565D01*
X143880Y224781D01*
X141734Y225208D01*
D02*
G37*
G36*
X315500Y232608D02*
X313354Y232181D01*
X311535Y230965D01*
X310319Y229146D01*
X309892Y227000D01*
X310319Y224854D01*
X311535Y223035D01*
X313354Y221819D01*
X315500Y221392D01*
X317646Y221819D01*
X319465Y223035D01*
X320681Y224854D01*
X321108Y227000D01*
X320681Y229146D01*
X319465Y230965D01*
X317646Y232181D01*
X315500Y232608D01*
D02*
G37*
G36*
X264234Y245408D02*
X262088Y244981D01*
X260269Y243765D01*
X259053Y241946D01*
X258626Y239800D01*
X259053Y237654D01*
X260269Y235835D01*
X262088Y234619D01*
X264234Y234192D01*
X266380Y234619D01*
X268199Y235835D01*
X269415Y237654D01*
X269842Y239800D01*
X269415Y241946D01*
X268199Y243765D01*
X266380Y244981D01*
X264234Y245408D01*
D02*
G37*
G36*
X578366Y87800D02*
X570100D01*
Y79534D01*
X570472Y79583D01*
X573147Y80692D01*
X575445Y82455D01*
X577209Y84753D01*
X578317Y87429D01*
X578366Y87800D01*
D02*
G37*
G36*
X1002470Y101308D02*
X1000324Y100881D01*
X998505Y99665D01*
X997289Y97846D01*
X996862Y95700D01*
X997289Y93554D01*
X998505Y91735D01*
X1000324Y90519D01*
X1002470Y90092D01*
X1004616Y90519D01*
X1006435Y91735D01*
X1007651Y93554D01*
X1008078Y95700D01*
X1007651Y97846D01*
X1006435Y99665D01*
X1004616Y100881D01*
X1002470Y101308D01*
D02*
G37*
G36*
X1018470D02*
X1016324Y100881D01*
X1014505Y99665D01*
X1013289Y97846D01*
X1012862Y95700D01*
X1013289Y93554D01*
X1014505Y91735D01*
X1016324Y90519D01*
X1018470Y90092D01*
X1020616Y90519D01*
X1022435Y91735D01*
X1023651Y93554D01*
X1024078Y95700D01*
X1023651Y97846D01*
X1022435Y99665D01*
X1020616Y100881D01*
X1018470Y101308D01*
D02*
G37*
G36*
X565100Y87800D02*
X556834D01*
X556883Y87429D01*
X557991Y84753D01*
X559755Y82455D01*
X562053Y80692D01*
X564728Y79583D01*
X565100Y79534D01*
Y87800D01*
D02*
G37*
G36*
X572600Y55300D02*
X562600D01*
X557600Y50300D01*
Y40300D01*
X562600Y35300D01*
X572600D01*
X577600Y40300D01*
Y50300D01*
X572600Y55300D01*
D02*
G37*
G36*
X1068970Y56308D02*
X1066824Y55881D01*
X1065005Y54665D01*
X1063789Y52846D01*
X1063362Y50700D01*
X1063789Y48554D01*
X1065005Y46735D01*
X1066824Y45519D01*
X1068970Y45092D01*
X1071116Y45519D01*
X1072935Y46735D01*
X1074151Y48554D01*
X1074578Y50700D01*
X1074151Y52846D01*
X1072935Y54665D01*
X1071116Y55881D01*
X1068970Y56308D01*
D02*
G37*
G36*
X1081970Y86808D02*
X1079824Y86381D01*
X1078005Y85165D01*
X1076789Y83346D01*
X1076362Y81200D01*
X1076789Y79054D01*
X1078005Y77235D01*
X1079824Y76019D01*
X1081970Y75592D01*
X1084116Y76019D01*
X1085935Y77235D01*
X1087151Y79054D01*
X1087578Y81200D01*
X1087151Y83346D01*
X1085935Y85165D01*
X1084116Y86381D01*
X1081970Y86808D01*
D02*
G37*
G36*
X565100Y101066D02*
X564728Y101017D01*
X562053Y99909D01*
X559755Y98145D01*
X557991Y95848D01*
X556883Y93172D01*
X556834Y92800D01*
X565100D01*
Y101066D01*
D02*
G37*
G36*
X1018970Y118808D02*
X1016824Y118381D01*
X1015005Y117165D01*
X1013789Y115346D01*
X1013362Y113200D01*
X1013789Y111054D01*
X1015005Y109235D01*
X1016824Y108019D01*
X1018970Y107592D01*
X1021116Y108019D01*
X1022935Y109235D01*
X1024151Y111054D01*
X1024578Y113200D01*
X1024151Y115346D01*
X1022935Y117165D01*
X1021116Y118381D01*
X1018970Y118808D01*
D02*
G37*
G36*
X92040Y139066D02*
X89430Y138723D01*
X86997Y137715D01*
X84908Y136112D01*
X83305Y134023D01*
X82297Y131590D01*
X81954Y128980D01*
X82297Y126369D01*
X83305Y123937D01*
X84908Y121848D01*
X86997Y120245D01*
X89430Y119237D01*
X92040Y118894D01*
X94650Y119237D01*
X97083Y120245D01*
X99172Y121848D01*
X100775Y123937D01*
X101783Y126369D01*
X102126Y128980D01*
X101783Y131590D01*
X100775Y134023D01*
X99172Y136112D01*
X97083Y137715D01*
X94650Y138723D01*
X92040Y139066D01*
D02*
G37*
G36*
X1091400Y134408D02*
X1089254Y133981D01*
X1087435Y132765D01*
X1086219Y130946D01*
X1085792Y128800D01*
X1086219Y126654D01*
X1087435Y124835D01*
X1089254Y123619D01*
X1091400Y123192D01*
X1093546Y123619D01*
X1095365Y124835D01*
X1096581Y126654D01*
X1097008Y128800D01*
X1096581Y130946D01*
X1095365Y132765D01*
X1093546Y133981D01*
X1091400Y134408D01*
D02*
G37*
G36*
X1002470Y118808D02*
X1000324Y118381D01*
X998505Y117165D01*
X997289Y115346D01*
X996862Y113200D01*
X997289Y111054D01*
X998505Y109235D01*
X1000324Y108019D01*
X1002470Y107592D01*
X1004616Y108019D01*
X1006435Y109235D01*
X1007651Y111054D01*
X1008078Y113200D01*
X1007651Y115346D01*
X1006435Y117165D01*
X1004616Y118381D01*
X1002470Y118808D01*
D02*
G37*
G36*
X570100Y101066D02*
Y92800D01*
X578366D01*
X578317Y93172D01*
X577209Y95848D01*
X575445Y98145D01*
X573147Y99909D01*
X570472Y101017D01*
X570100Y101066D01*
D02*
G37*
G36*
X92040Y113666D02*
X89430Y113323D01*
X86997Y112315D01*
X84908Y110712D01*
X83305Y108623D01*
X82297Y106191D01*
X81954Y103580D01*
X82297Y100969D01*
X83305Y98537D01*
X84908Y96448D01*
X86997Y94845D01*
X89430Y93837D01*
X92040Y93494D01*
X94650Y93837D01*
X97083Y94845D01*
X99172Y96448D01*
X100775Y98537D01*
X101783Y100969D01*
X102126Y103580D01*
X101783Y106191D01*
X100775Y108623D01*
X99172Y110712D01*
X97083Y112315D01*
X94650Y113323D01*
X92040Y113666D01*
D02*
G37*
G36*
X766869Y118528D02*
X764723Y118101D01*
X762904Y116885D01*
X761688Y115066D01*
X761261Y112920D01*
X761688Y110774D01*
X762904Y108955D01*
X764723Y107739D01*
X766869Y107312D01*
X769015Y107739D01*
X770835Y108955D01*
X772050Y110774D01*
X772477Y112920D01*
X772050Y115066D01*
X770835Y116885D01*
X769015Y118101D01*
X766869Y118528D01*
D02*
G37*
G36*
X349934Y274308D02*
X347788Y273881D01*
X345969Y272665D01*
X344753Y270846D01*
X344326Y268700D01*
X344753Y266554D01*
X345969Y264735D01*
X347788Y263519D01*
X349934Y263092D01*
X352080Y263519D01*
X353899Y264735D01*
X355115Y266554D01*
X355542Y268700D01*
X355115Y270846D01*
X353899Y272665D01*
X352080Y273881D01*
X349934Y274308D01*
D02*
G37*
G36*
X1067079Y373415D02*
X1063294Y372917D01*
X1059766Y371456D01*
X1056737Y369132D01*
X1054413Y366103D01*
X1052952Y362575D01*
X1052454Y358790D01*
X1052952Y355005D01*
X1054413Y351478D01*
X1056737Y348449D01*
X1059766Y346124D01*
X1063294Y344663D01*
X1067079Y344165D01*
X1070864Y344663D01*
X1074391Y346124D01*
X1077420Y348449D01*
X1079745Y351478D01*
X1081206Y355005D01*
X1081704Y358790D01*
X1081206Y362575D01*
X1079745Y366103D01*
X1077420Y369132D01*
X1074391Y371456D01*
X1070864Y372917D01*
X1067079Y373415D01*
D02*
G37*
G36*
X673500Y356774D02*
X671354Y356347D01*
X669535Y355131D01*
X668319Y353312D01*
X667892Y351166D01*
X668319Y349020D01*
X669535Y347201D01*
X671354Y345985D01*
X673500Y345558D01*
X675646Y345985D01*
X677465Y347201D01*
X678681Y349020D01*
X679108Y351166D01*
X678681Y353312D01*
X677465Y355131D01*
X675646Y356347D01*
X673500Y356774D01*
D02*
G37*
G36*
X139470Y374103D02*
X136959Y373772D01*
X134619Y372803D01*
X132609Y371261D01*
X131067Y369252D01*
X130098Y366911D01*
X129767Y364400D01*
X130098Y361889D01*
X131067Y359548D01*
X132609Y357539D01*
X134619Y355997D01*
X136959Y355028D01*
X139470Y354697D01*
X141982Y355028D01*
X144322Y355997D01*
X146331Y357539D01*
X147873Y359548D01*
X148843Y361889D01*
X149173Y364400D01*
X148843Y366911D01*
X147873Y369252D01*
X146331Y371261D01*
X144322Y372803D01*
X141982Y373772D01*
X139470Y374103D01*
D02*
G37*
G36*
X347400Y354642D02*
X345254Y354215D01*
X343435Y352999D01*
X342219Y351180D01*
X341792Y349034D01*
X342219Y346888D01*
X343435Y345069D01*
X345254Y343853D01*
X347400Y343426D01*
X349546Y343853D01*
X351365Y345069D01*
X352581Y346888D01*
X353008Y349034D01*
X352581Y351180D01*
X351365Y352999D01*
X349546Y354215D01*
X347400Y354642D01*
D02*
G37*
G36*
X585996Y332108D02*
X583850Y331681D01*
X582031Y330465D01*
X580815Y328646D01*
X580388Y326500D01*
X580815Y324354D01*
X582031Y322535D01*
X583850Y321319D01*
X585996Y320892D01*
X588142Y321319D01*
X589961Y322535D01*
X591177Y324354D01*
X591604Y326500D01*
X591177Y328646D01*
X589961Y330465D01*
X588142Y331681D01*
X585996Y332108D01*
D02*
G37*
G36*
X139470Y348703D02*
X136959Y348372D01*
X134619Y347403D01*
X132609Y345861D01*
X131067Y343852D01*
X130098Y341511D01*
X129767Y339000D01*
X130098Y336489D01*
X131067Y334148D01*
X132609Y332139D01*
X134619Y330597D01*
X136959Y329628D01*
X139470Y329297D01*
X141982Y329628D01*
X144322Y330597D01*
X146331Y332139D01*
X147873Y334148D01*
X148843Y336489D01*
X149173Y339000D01*
X148843Y341511D01*
X147873Y343852D01*
X146331Y345861D01*
X144322Y347403D01*
X141982Y348372D01*
X139470Y348703D01*
D02*
G37*
G36*
X164870Y361303D02*
X162359Y360972D01*
X160019Y360003D01*
X158009Y358461D01*
X156467Y356451D01*
X155498Y354111D01*
X155167Y351600D01*
X155498Y349089D01*
X156467Y346749D01*
X158009Y344739D01*
X160019Y343197D01*
X162359Y342228D01*
X164870Y341897D01*
X167382Y342228D01*
X169722Y343197D01*
X171731Y344739D01*
X173273Y346749D01*
X174243Y349089D01*
X174573Y351600D01*
X174243Y354111D01*
X173273Y356451D01*
X171731Y358461D01*
X169722Y360003D01*
X167382Y360972D01*
X164870Y361303D01*
D02*
G37*
G36*
X486566Y365500D02*
X478300D01*
Y357234D01*
X478672Y357283D01*
X481347Y358391D01*
X483645Y360155D01*
X485409Y362453D01*
X486517Y365128D01*
X486566Y365500D01*
D02*
G37*
G36*
X475800Y403486D02*
X473190Y403143D01*
X470757Y402135D01*
X468668Y400532D01*
X467065Y398443D01*
X466057Y396011D01*
X465714Y393400D01*
X466057Y390789D01*
X467065Y388357D01*
X468668Y386268D01*
X470757Y384665D01*
X473190Y383657D01*
X475800Y383314D01*
X478410Y383657D01*
X480843Y384665D01*
X482932Y386268D01*
X484535Y388357D01*
X485543Y390789D01*
X485886Y393400D01*
X485543Y396011D01*
X484535Y398443D01*
X482932Y400532D01*
X480843Y402135D01*
X478410Y403143D01*
X475800Y403486D01*
D02*
G37*
G36*
X501200D02*
X498590Y403143D01*
X496157Y402135D01*
X494068Y400532D01*
X492465Y398443D01*
X491457Y396011D01*
X491114Y393400D01*
X491457Y390789D01*
X492465Y388357D01*
X494068Y386268D01*
X496157Y384665D01*
X498590Y383657D01*
X501200Y383314D01*
X503811Y383657D01*
X506243Y384665D01*
X508332Y386268D01*
X509935Y388357D01*
X510943Y390789D01*
X511286Y393400D01*
X510943Y396011D01*
X509935Y398443D01*
X508332Y400532D01*
X506243Y402135D01*
X503811Y403143D01*
X501200Y403486D01*
D02*
G37*
G36*
X672030Y395242D02*
X669884Y394815D01*
X668065Y393599D01*
X666849Y391780D01*
X666422Y389634D01*
X666849Y387488D01*
X668065Y385669D01*
X669884Y384453D01*
X672030Y384026D01*
X674176Y384453D01*
X675995Y385669D01*
X677211Y387488D01*
X677638Y389634D01*
X677211Y391780D01*
X675995Y393599D01*
X674176Y394815D01*
X672030Y395242D01*
D02*
G37*
G36*
X478300Y378766D02*
Y370500D01*
X486566D01*
X486517Y370872D01*
X485409Y373547D01*
X483645Y375845D01*
X481347Y377608D01*
X478672Y378717D01*
X478300Y378766D01*
D02*
G37*
G36*
X473300Y365500D02*
X465034D01*
X465083Y365128D01*
X466191Y362453D01*
X467955Y360155D01*
X470252Y358391D01*
X472928Y357283D01*
X473300Y357234D01*
Y365500D01*
D02*
G37*
G36*
X506200Y378000D02*
X496200D01*
X491200Y373000D01*
Y363000D01*
X496200Y358000D01*
X506200D01*
X511200Y363000D01*
Y373000D01*
X506200Y378000D01*
D02*
G37*
G36*
X473300Y378766D02*
X472928Y378717D01*
X470252Y377608D01*
X467955Y375845D01*
X466191Y373547D01*
X465083Y370872D01*
X465034Y370500D01*
X473300D01*
Y378766D01*
D02*
G37*
G36*
X139470Y297903D02*
X136959Y297572D01*
X134619Y296603D01*
X132609Y295061D01*
X131067Y293051D01*
X130098Y290711D01*
X129767Y288200D01*
X130098Y285689D01*
X131067Y283349D01*
X132609Y281339D01*
X134619Y279797D01*
X136959Y278828D01*
X139470Y278497D01*
X141982Y278828D01*
X144322Y279797D01*
X146331Y281339D01*
X147873Y283349D01*
X148843Y285689D01*
X149173Y288200D01*
X148843Y290711D01*
X147873Y293051D01*
X146331Y295061D01*
X144322Y296603D01*
X141982Y297572D01*
X139470Y297903D01*
D02*
G37*
G36*
X539634Y301858D02*
X537488Y301431D01*
X535669Y300216D01*
X534453Y298396D01*
X534026Y296250D01*
X534453Y294104D01*
X535669Y292285D01*
X537488Y291070D01*
X539634Y290643D01*
X541780Y291070D01*
X543599Y292285D01*
X544815Y294104D01*
X545242Y296250D01*
X544815Y298396D01*
X543599Y300216D01*
X541780Y301431D01*
X539634Y301858D01*
D02*
G37*
G36*
X164870Y310503D02*
X162359Y310172D01*
X160019Y309203D01*
X158009Y307661D01*
X156467Y305651D01*
X155498Y303311D01*
X155167Y300800D01*
X155498Y298289D01*
X156467Y295949D01*
X158009Y293939D01*
X160019Y292397D01*
X162359Y291428D01*
X164870Y291097D01*
X167382Y291428D01*
X169722Y292397D01*
X171731Y293939D01*
X173273Y295949D01*
X174243Y298289D01*
X174573Y300800D01*
X174243Y303311D01*
X173273Y305651D01*
X171731Y307661D01*
X169722Y309203D01*
X167382Y310172D01*
X164870Y310503D01*
D02*
G37*
G36*
X539634Y289158D02*
X537488Y288731D01*
X535669Y287516D01*
X534453Y285697D01*
X534026Y283550D01*
X534453Y281404D01*
X535669Y279585D01*
X537488Y278370D01*
X539634Y277943D01*
X541780Y278370D01*
X543599Y279585D01*
X544815Y281404D01*
X545242Y283550D01*
X544815Y285697D01*
X543599Y287516D01*
X541780Y288731D01*
X539634Y289158D01*
D02*
G37*
G36*
X285422Y354642D02*
X283276Y354215D01*
X281456Y352999D01*
X280241Y351180D01*
X279814Y349034D01*
X280241Y346888D01*
X281456Y345069D01*
X283276Y343853D01*
X284322Y343645D01*
X345911Y282056D01*
X347400Y281061D01*
X349156Y280712D01*
X371801D01*
X371926Y279442D01*
X371620Y279381D01*
X369801Y278165D01*
X368585Y276346D01*
X368158Y274200D01*
X368585Y272054D01*
X369801Y270235D01*
X370045Y270072D01*
X370281Y268387D01*
X369585Y267346D01*
X369158Y265200D01*
X369585Y263054D01*
X370801Y261235D01*
X372620Y260019D01*
X374766Y259592D01*
X376912Y260019D01*
X378731Y261235D01*
X379947Y263054D01*
X380374Y265200D01*
X379947Y267346D01*
X378731Y269165D01*
X378487Y269328D01*
X378251Y271013D01*
X378947Y272054D01*
X379374Y274200D01*
X378947Y276346D01*
X377731Y278165D01*
X375912Y279381D01*
X375606Y279442D01*
X375731Y280712D01*
X426001D01*
X426888Y280119D01*
X427412Y280015D01*
Y264536D01*
X426142Y264150D01*
X425931Y264465D01*
X424112Y265681D01*
X421966Y266108D01*
X419820Y265681D01*
X418001Y264465D01*
X416785Y262646D01*
X416358Y260500D01*
X416785Y258354D01*
X418001Y256535D01*
X419820Y255319D01*
X421966Y254892D01*
X424112Y255319D01*
X425391Y256174D01*
X426780Y255732D01*
X426805Y255708D01*
X426903Y255292D01*
X372500Y200889D01*
X371454Y200681D01*
X369635Y199465D01*
X368419Y197646D01*
X367992Y195500D01*
X368419Y193354D01*
X369635Y191535D01*
X371454Y190319D01*
X373600Y189892D01*
X375746Y190319D01*
X377565Y191535D01*
X378781Y193354D01*
X378989Y194400D01*
X435244Y250656D01*
X436239Y252144D01*
X436588Y253900D01*
Y282334D01*
X436239Y284090D01*
X435244Y285578D01*
X434423Y286400D01*
X434215Y287446D01*
X432999Y289265D01*
X431180Y290481D01*
X429034Y290908D01*
X426888Y290481D01*
X426001Y289888D01*
X424226D01*
X423581Y291158D01*
X424447Y292454D01*
X424874Y294600D01*
X424447Y296746D01*
X423231Y298565D01*
X421412Y299781D01*
X419266Y300208D01*
X417120Y299781D01*
X415301Y298565D01*
X414085Y296746D01*
X413658Y294600D01*
X414085Y292454D01*
X414951Y291158D01*
X414306Y289888D01*
X351056D01*
X290810Y350134D01*
X290602Y351180D01*
X289387Y352999D01*
X287567Y354215D01*
X285422Y354642D01*
D02*
G37*
G36*
X593634Y276458D02*
X591488Y276031D01*
X589669Y274816D01*
X588453Y272997D01*
X588026Y270851D01*
X588453Y268704D01*
X589669Y266885D01*
X591488Y265670D01*
X593634Y265243D01*
X595780Y265670D01*
X597599Y266885D01*
X598815Y268704D01*
X599242Y270851D01*
X598815Y272997D01*
X597599Y274816D01*
X595780Y276031D01*
X593634Y276458D01*
D02*
G37*
G36*
X196620Y284988D02*
X194474Y284561D01*
X192655Y283345D01*
X191439Y281526D01*
X191012Y279380D01*
X191439Y277234D01*
X192655Y275415D01*
X194474Y274199D01*
X196620Y273772D01*
X198766Y274199D01*
X200585Y275415D01*
X201801Y277234D01*
X202228Y279380D01*
X201801Y281526D01*
X200585Y283345D01*
X198766Y284561D01*
X196620Y284988D01*
D02*
G37*
G36*
X1067079Y322615D02*
X1063294Y322117D01*
X1059766Y320656D01*
X1056737Y318332D01*
X1054413Y315303D01*
X1052952Y311775D01*
X1052454Y307990D01*
X1052952Y304205D01*
X1054413Y300677D01*
X1056737Y297649D01*
X1059766Y295324D01*
X1063294Y293863D01*
X1067079Y293365D01*
X1070864Y293863D01*
X1074391Y295324D01*
X1077420Y297649D01*
X1079744Y300677D01*
X1081206Y304205D01*
X1081704Y307990D01*
X1081206Y311775D01*
X1079744Y315303D01*
X1077420Y318332D01*
X1074391Y320656D01*
X1070864Y322117D01*
X1067079Y322615D01*
D02*
G37*
G36*
X666416Y316158D02*
X664270Y315731D01*
X662451Y314516D01*
X661235Y312696D01*
X660808Y310550D01*
X661235Y308405D01*
X662451Y306585D01*
X664270Y305370D01*
X666416Y304943D01*
X668562Y305370D01*
X670381Y306585D01*
X671597Y308405D01*
X672024Y310550D01*
X671597Y312696D01*
X670381Y314516D01*
X668562Y315731D01*
X666416Y316158D01*
D02*
G37*
G36*
X164870Y335903D02*
X162359Y335572D01*
X160019Y334603D01*
X158009Y333061D01*
X156467Y331051D01*
X155498Y328711D01*
X155167Y326200D01*
X155498Y323689D01*
X156467Y321348D01*
X158009Y319339D01*
X160019Y317797D01*
X162359Y316828D01*
X164870Y316497D01*
X167382Y316828D01*
X169722Y317797D01*
X171731Y319339D01*
X173273Y321348D01*
X174243Y323689D01*
X174573Y326200D01*
X174243Y328711D01*
X173273Y331051D01*
X171731Y333061D01*
X169722Y334603D01*
X167382Y335572D01*
X164870Y335903D01*
D02*
G37*
G36*
X696300Y328858D02*
X694154Y328431D01*
X692335Y327216D01*
X691119Y325396D01*
X690692Y323251D01*
X691119Y321105D01*
X692335Y319285D01*
X694154Y318070D01*
X696300Y317643D01*
X698446Y318070D01*
X700265Y319285D01*
X701481Y321105D01*
X701908Y323251D01*
X701481Y325396D01*
X700265Y327216D01*
X698446Y328431D01*
X696300Y328858D01*
D02*
G37*
G36*
X419266Y315708D02*
X417120Y315281D01*
X415301Y314065D01*
X414085Y312246D01*
X413658Y310100D01*
X414085Y307954D01*
X415301Y306135D01*
X417120Y304919D01*
X419266Y304492D01*
X421412Y304919D01*
X423231Y306135D01*
X424447Y307954D01*
X424874Y310100D01*
X424447Y312246D01*
X423231Y314065D01*
X421412Y315281D01*
X419266Y315708D01*
D02*
G37*
G36*
X225066Y309908D02*
X222920Y309481D01*
X221101Y308265D01*
X219885Y306446D01*
X219458Y304300D01*
X219885Y302154D01*
X221101Y300335D01*
X222920Y299119D01*
X225066Y298692D01*
X227212Y299119D01*
X229031Y300335D01*
X230247Y302154D01*
X230674Y304300D01*
X230247Y306446D01*
X229031Y308265D01*
X227212Y309481D01*
X225066Y309908D01*
D02*
G37*
G36*
X291600Y310974D02*
X289454Y310547D01*
X287635Y309331D01*
X286419Y307512D01*
X285992Y305366D01*
X286419Y303220D01*
X287635Y301401D01*
X289454Y300185D01*
X291600Y299758D01*
X293746Y300185D01*
X295565Y301401D01*
X296781Y303220D01*
X297208Y305366D01*
X296781Y307512D01*
X295565Y309331D01*
X293746Y310547D01*
X291600Y310974D01*
D02*
G37*
G36*
X139470Y323303D02*
X136959Y322972D01*
X134619Y322003D01*
X132609Y320461D01*
X131067Y318451D01*
X130098Y316111D01*
X129767Y313600D01*
X130098Y311089D01*
X131067Y308748D01*
X132609Y306739D01*
X134619Y305197D01*
X136959Y304228D01*
X139470Y303897D01*
X141982Y304228D01*
X144322Y305197D01*
X146331Y306739D01*
X147873Y308748D01*
X148843Y311089D01*
X149173Y313600D01*
X148843Y316111D01*
X147873Y318451D01*
X146331Y320461D01*
X144322Y322003D01*
X141982Y322972D01*
X139470Y323303D01*
D02*
G37*
G36*
X564999Y653375D02*
X562853Y652948D01*
X561033Y651732D01*
X559818Y649913D01*
X559391Y647767D01*
X559818Y645621D01*
X561033Y643802D01*
X562853Y642586D01*
X564999Y642160D01*
X567145Y642586D01*
X568964Y643802D01*
X570180Y645621D01*
X570606Y647767D01*
X570180Y649913D01*
X568964Y651732D01*
X567145Y652948D01*
X564999Y653375D01*
D02*
G37*
G36*
X838751Y1111700D02*
X835751D01*
Y1103200D01*
X844251D01*
Y1106200D01*
X838751Y1111700D01*
D02*
G37*
G36*
X266400Y1121908D02*
X264254Y1121481D01*
X262435Y1120265D01*
X261219Y1118446D01*
X260792Y1116300D01*
X261219Y1114154D01*
X262435Y1112335D01*
X264254Y1111119D01*
X266400Y1110692D01*
X268546Y1111119D01*
X270365Y1112335D01*
X271581Y1114154D01*
X272008Y1116300D01*
X271581Y1118446D01*
X270365Y1120265D01*
X268546Y1121481D01*
X266400Y1121908D01*
D02*
G37*
G36*
X830751Y1111700D02*
X827751D01*
X822251Y1106200D01*
Y1103200D01*
X830751D01*
Y1111700D01*
D02*
G37*
G36*
X241300Y1106074D02*
X239154Y1105647D01*
X237335Y1104431D01*
X236119Y1102612D01*
X235692Y1100466D01*
X236119Y1098320D01*
X237335Y1096501D01*
X239154Y1095285D01*
X241300Y1094858D01*
X243446Y1095285D01*
X245265Y1096501D01*
X246481Y1098320D01*
X246908Y1100466D01*
X246481Y1102612D01*
X245265Y1104431D01*
X243446Y1105647D01*
X241300Y1106074D01*
D02*
G37*
G36*
X508621Y1111466D02*
X508250Y1111417D01*
X505574Y1110309D01*
X503276Y1108545D01*
X501513Y1106247D01*
X500405Y1103572D01*
X500355Y1103200D01*
X508621D01*
Y1111466D01*
D02*
G37*
G36*
X513621D02*
Y1103200D01*
X521887D01*
X521838Y1103572D01*
X520730Y1106247D01*
X518967Y1108545D01*
X516669Y1110309D01*
X513993Y1111417D01*
X513621Y1111466D01*
D02*
G37*
G36*
X606734Y778208D02*
X604588Y777781D01*
X602769Y776565D01*
X601553Y774746D01*
X601126Y772600D01*
X601553Y770454D01*
X602769Y768635D01*
X604588Y767419D01*
X606734Y766992D01*
X608880Y767419D01*
X610699Y768635D01*
X611915Y770454D01*
X612342Y772600D01*
X611915Y774746D01*
X610699Y776565D01*
X608880Y777781D01*
X606734Y778208D01*
D02*
G37*
G36*
X525733Y778408D02*
X523587Y777981D01*
X521768Y776765D01*
X520552Y774946D01*
X520126Y772800D01*
X520552Y770654D01*
X521768Y768835D01*
X523587Y767619D01*
X525733Y767192D01*
X527879Y767619D01*
X529698Y768835D01*
X530914Y770654D01*
X531341Y772800D01*
X530914Y774946D01*
X529698Y776765D01*
X527879Y777981D01*
X525733Y778408D01*
D02*
G37*
G36*
X965970Y792604D02*
X962837Y792191D01*
X959918Y790982D01*
X957411Y789059D01*
X955488Y786552D01*
X954279Y783633D01*
X953866Y780500D01*
X954279Y777367D01*
X955488Y774448D01*
X957411Y771942D01*
X959918Y770018D01*
X962837Y768809D01*
X965970Y768396D01*
X969103Y768809D01*
X972022Y770018D01*
X974529Y771942D01*
X976452Y774448D01*
X977661Y777367D01*
X978074Y780500D01*
X977661Y783633D01*
X976452Y786552D01*
X974529Y789059D01*
X972022Y790982D01*
X969103Y792191D01*
X965970Y792604D01*
D02*
G37*
G36*
X743800Y770342D02*
X741654Y769915D01*
X739835Y768699D01*
X738619Y766880D01*
X738192Y764734D01*
X738619Y762588D01*
X739835Y760769D01*
X741654Y759553D01*
X743800Y759126D01*
X745946Y759553D01*
X747765Y760769D01*
X748981Y762588D01*
X749408Y764734D01*
X748981Y766880D01*
X747765Y768699D01*
X745946Y769915D01*
X743800Y770342D01*
D02*
G37*
G36*
X385234Y754508D02*
X383088Y754081D01*
X381269Y752865D01*
X380053Y751046D01*
X379626Y748900D01*
X380053Y746754D01*
X381269Y744935D01*
X383088Y743719D01*
X385234Y743292D01*
X387380Y743719D01*
X389199Y744935D01*
X390415Y746754D01*
X390842Y748900D01*
X390415Y751046D01*
X389199Y752865D01*
X387380Y754081D01*
X385234Y754508D01*
D02*
G37*
G36*
X606734Y765508D02*
X604588Y765081D01*
X602769Y763865D01*
X601553Y762046D01*
X601126Y759900D01*
X601553Y757754D01*
X602769Y755935D01*
X604588Y754719D01*
X606734Y754292D01*
X608880Y754719D01*
X610699Y755935D01*
X611915Y757754D01*
X612342Y759900D01*
X611915Y762046D01*
X610699Y763865D01*
X608880Y765081D01*
X606734Y765508D01*
D02*
G37*
G36*
X394800Y770342D02*
X392654Y769915D01*
X390835Y768699D01*
X389619Y766880D01*
X389192Y764734D01*
X389619Y762588D01*
X390835Y760769D01*
X392654Y759553D01*
X394800Y759126D01*
X396946Y759553D01*
X398765Y760769D01*
X399981Y762588D01*
X400408Y764734D01*
X399981Y766880D01*
X398765Y768699D01*
X396946Y769915D01*
X394800Y770342D01*
D02*
G37*
G36*
X908600Y799108D02*
X906454Y798681D01*
X904635Y797465D01*
X903419Y795646D01*
X902992Y793500D01*
X903419Y791354D01*
X904635Y789535D01*
X906454Y788319D01*
X908600Y787892D01*
X910746Y788319D01*
X912565Y789535D01*
X913781Y791354D01*
X914208Y793500D01*
X913781Y795646D01*
X912565Y797465D01*
X910746Y798681D01*
X908600Y799108D01*
D02*
G37*
G36*
X735600Y830842D02*
X733454Y830415D01*
X731635Y829199D01*
X730419Y827380D01*
X729992Y825234D01*
X730419Y823088D01*
X731635Y821269D01*
X733454Y820053D01*
X735600Y819626D01*
X737746Y820053D01*
X739565Y821269D01*
X740781Y823088D01*
X741208Y825234D01*
X740781Y827380D01*
X739565Y829199D01*
X737746Y830415D01*
X735600Y830842D01*
D02*
G37*
G36*
X888550Y841442D02*
X886404Y841015D01*
X884585Y839799D01*
X883369Y837980D01*
X882942Y835834D01*
X883369Y833688D01*
X884585Y831869D01*
X886404Y830653D01*
X888550Y830226D01*
X890696Y830653D01*
X892515Y831869D01*
X893731Y833688D01*
X894158Y835834D01*
X893731Y837980D01*
X892515Y839799D01*
X890696Y841015D01*
X888550Y841442D01*
D02*
G37*
G36*
X965970Y868804D02*
X962837Y868391D01*
X959918Y867182D01*
X957411Y865258D01*
X955488Y862752D01*
X954279Y859833D01*
X953867Y856700D01*
X954279Y853567D01*
X955488Y850648D01*
X957411Y848141D01*
X959918Y846218D01*
X962837Y845009D01*
X965970Y844596D01*
X969103Y845009D01*
X972022Y846218D01*
X974529Y848141D01*
X976452Y850648D01*
X977661Y853567D01*
X978074Y856700D01*
X977661Y859833D01*
X976452Y862752D01*
X974529Y865258D01*
X972022Y867182D01*
X969103Y868391D01*
X965970Y868804D01*
D02*
G37*
G36*
X394800Y830842D02*
X392654Y830415D01*
X390835Y829199D01*
X389619Y827380D01*
X389192Y825234D01*
X389619Y823088D01*
X390835Y821269D01*
X392654Y820053D01*
X394800Y819626D01*
X396946Y820053D01*
X398765Y821269D01*
X399981Y823088D01*
X400408Y825234D01*
X399981Y827380D01*
X398765Y829199D01*
X396946Y830415D01*
X394800Y830842D01*
D02*
G37*
G36*
X526534Y803809D02*
X524388Y803382D01*
X522569Y802166D01*
X521353Y800347D01*
X520926Y798201D01*
X521353Y796055D01*
X522569Y794236D01*
X524388Y793020D01*
X526534Y792593D01*
X528680Y793020D01*
X530499Y794236D01*
X531715Y796055D01*
X532142Y798201D01*
X531715Y800347D01*
X530499Y802166D01*
X528680Y803382D01*
X526534Y803809D01*
D02*
G37*
G36*
X385234Y815008D02*
X383088Y814581D01*
X381269Y813365D01*
X380053Y811546D01*
X379626Y809400D01*
X380053Y807254D01*
X381269Y805435D01*
X383088Y804219D01*
X385234Y803792D01*
X387380Y804219D01*
X389199Y805435D01*
X390415Y807254D01*
X390842Y809400D01*
X390415Y811546D01*
X389199Y813365D01*
X387380Y814581D01*
X385234Y815008D01*
D02*
G37*
G36*
X965970Y830704D02*
X962837Y830291D01*
X959918Y829082D01*
X957411Y827159D01*
X955488Y824652D01*
X954279Y821733D01*
X953866Y818600D01*
X954279Y815467D01*
X955488Y812548D01*
X957411Y810042D01*
X959918Y808118D01*
X962837Y806909D01*
X965970Y806496D01*
X969103Y806909D01*
X972022Y808118D01*
X974529Y810042D01*
X976452Y812548D01*
X977661Y815467D01*
X978074Y818600D01*
X977661Y821733D01*
X976452Y824652D01*
X974529Y827159D01*
X972022Y829082D01*
X969103Y830291D01*
X965970Y830704D01*
D02*
G37*
G36*
X533100Y696873D02*
X530954Y696446D01*
X529135Y695230D01*
X527919Y693411D01*
X527492Y691265D01*
X527919Y689119D01*
X529135Y687300D01*
X530954Y686084D01*
X533100Y685657D01*
X535246Y686084D01*
X537065Y687300D01*
X538281Y689119D01*
X538708Y691265D01*
X538281Y693411D01*
X537065Y695230D01*
X535246Y696446D01*
X533100Y696873D01*
D02*
G37*
G36*
X832500Y697058D02*
X830354Y696631D01*
X828535Y695415D01*
X827319Y693596D01*
X826892Y691450D01*
X827319Y689304D01*
X828535Y687485D01*
X830354Y686269D01*
X832500Y685842D01*
X834646Y686269D01*
X836465Y687485D01*
X837681Y689304D01*
X838108Y691450D01*
X837681Y693596D01*
X836465Y695415D01*
X834646Y696631D01*
X832500Y697058D01*
D02*
G37*
G36*
X394800Y712142D02*
X392654Y711715D01*
X390835Y710499D01*
X389619Y708680D01*
X389192Y706534D01*
X389619Y704388D01*
X390835Y702569D01*
X392654Y701353D01*
X394800Y700926D01*
X396946Y701353D01*
X398765Y702569D01*
X399981Y704388D01*
X400408Y706534D01*
X399981Y708680D01*
X398765Y710499D01*
X396946Y711715D01*
X394800Y712142D01*
D02*
G37*
G36*
X385234Y696308D02*
X383088Y695881D01*
X381269Y694665D01*
X380053Y692846D01*
X379626Y690700D01*
X380053Y688554D01*
X381269Y686735D01*
X383088Y685519D01*
X385234Y685092D01*
X387380Y685519D01*
X389199Y686735D01*
X390415Y688554D01*
X390842Y690700D01*
X390415Y692846D01*
X389199Y694665D01*
X387380Y695881D01*
X385234Y696308D01*
D02*
G37*
G36*
X189200Y667874D02*
X187054Y667447D01*
X185235Y666231D01*
X184019Y664412D01*
X183592Y662266D01*
X184019Y660120D01*
X185235Y658301D01*
X187054Y657085D01*
X189200Y656658D01*
X191346Y657085D01*
X193165Y658301D01*
X194381Y660120D01*
X194808Y662266D01*
X194381Y664412D01*
X193165Y666231D01*
X191346Y667447D01*
X189200Y667874D01*
D02*
G37*
G36*
X305400Y668074D02*
X303254Y667647D01*
X301435Y666431D01*
X300219Y664612D01*
X299792Y662466D01*
X300219Y660320D01*
X301435Y658501D01*
X303254Y657285D01*
X305400Y656858D01*
X307546Y657285D01*
X309365Y658501D01*
X310581Y660320D01*
X311008Y662466D01*
X310581Y664612D01*
X309365Y666431D01*
X307546Y667647D01*
X305400Y668074D01*
D02*
G37*
G36*
X590699Y690242D02*
X588553Y689815D01*
X586734Y688599D01*
X585518Y686780D01*
X585092Y684634D01*
X585518Y682488D01*
X586734Y680669D01*
X588553Y679453D01*
X590699Y679026D01*
X592845Y679453D01*
X594664Y680669D01*
X595880Y682488D01*
X596307Y684634D01*
X595880Y686780D01*
X594664Y688599D01*
X592845Y689815D01*
X590699Y690242D01*
D02*
G37*
G36*
X751700Y712142D02*
X749554Y711715D01*
X747735Y710499D01*
X746519Y708680D01*
X746092Y706534D01*
X746519Y704388D01*
X747735Y702569D01*
X749554Y701353D01*
X751700Y700926D01*
X753846Y701353D01*
X755665Y702569D01*
X756881Y704388D01*
X757308Y706534D01*
X756881Y708680D01*
X755665Y710499D01*
X753846Y711715D01*
X751700Y712142D01*
D02*
G37*
G36*
X965970Y754503D02*
X962837Y754091D01*
X959918Y752882D01*
X957412Y750958D01*
X955488Y748452D01*
X954279Y745533D01*
X953867Y742400D01*
X954279Y739267D01*
X955488Y736348D01*
X957412Y733841D01*
X959918Y731918D01*
X962837Y730709D01*
X965970Y730296D01*
X969103Y730709D01*
X972022Y731918D01*
X974529Y733841D01*
X976452Y736348D01*
X977661Y739267D01*
X978074Y742400D01*
X977661Y745533D01*
X976452Y748452D01*
X974529Y750958D01*
X972022Y752882D01*
X969103Y754091D01*
X965970Y754503D01*
D02*
G37*
G36*
X521000Y745374D02*
X518854Y744947D01*
X517035Y743731D01*
X515819Y741912D01*
X515392Y739766D01*
X515819Y737620D01*
X517035Y735801D01*
X518854Y734585D01*
X521000Y734158D01*
X523146Y734585D01*
X524965Y735801D01*
X526181Y737620D01*
X526608Y739766D01*
X526181Y741912D01*
X524965Y743731D01*
X523146Y744947D01*
X521000Y745374D01*
D02*
G37*
G36*
X632734Y745608D02*
X630588Y745181D01*
X628769Y743965D01*
X627553Y742146D01*
X627126Y740000D01*
X627553Y737854D01*
X628769Y736035D01*
X630588Y734819D01*
X632734Y734392D01*
X634880Y734819D01*
X636699Y736035D01*
X637915Y737854D01*
X638342Y740000D01*
X637915Y742146D01*
X636699Y743965D01*
X634880Y745181D01*
X632734Y745608D01*
D02*
G37*
G36*
X808900Y741508D02*
X806754Y741081D01*
X804935Y739865D01*
X803719Y738046D01*
X803292Y735900D01*
X803719Y733754D01*
X804935Y731935D01*
X806754Y730719D01*
X808900Y730292D01*
X811046Y730719D01*
X812865Y731935D01*
X814081Y733754D01*
X814508Y735900D01*
X814081Y738046D01*
X812865Y739865D01*
X811046Y741081D01*
X808900Y741508D01*
D02*
G37*
G36*
X908600Y715458D02*
X906454Y715031D01*
X904635Y713815D01*
X903419Y711996D01*
X902992Y709850D01*
X903419Y707704D01*
X904635Y705885D01*
X906454Y704669D01*
X908600Y704242D01*
X910746Y704669D01*
X912565Y705885D01*
X913781Y707704D01*
X914208Y709850D01*
X913781Y711996D01*
X912565Y713815D01*
X910746Y715031D01*
X908600Y715458D01*
D02*
G37*
G36*
X875850Y727124D02*
X873704Y726697D01*
X871885Y725481D01*
X870669Y723662D01*
X870242Y721516D01*
X870669Y719370D01*
X871885Y717551D01*
X873704Y716335D01*
X875850Y715908D01*
X877996Y716335D01*
X879815Y717551D01*
X881031Y719370D01*
X881458Y721516D01*
X881031Y723662D01*
X879815Y725481D01*
X877996Y726697D01*
X875850Y727124D01*
D02*
G37*
G36*
X577866Y740108D02*
X575720Y739681D01*
X573901Y738465D01*
X572685Y736646D01*
X572258Y734500D01*
X572685Y732354D01*
X573901Y730535D01*
X575720Y729319D01*
X577866Y728892D01*
X580012Y729319D01*
X581831Y730535D01*
X583047Y732354D01*
X583474Y734500D01*
X583047Y736646D01*
X581831Y738465D01*
X580012Y739681D01*
X577866Y740108D01*
D02*
G37*
G36*
X835700Y890808D02*
X833554Y890381D01*
X831735Y889165D01*
X830519Y887346D01*
X830092Y885200D01*
X830519Y883054D01*
X831735Y881235D01*
X833554Y880019D01*
X835700Y879592D01*
X837846Y880019D01*
X839665Y881235D01*
X840881Y883054D01*
X841308Y885200D01*
X840881Y887346D01*
X839665Y889165D01*
X837846Y890381D01*
X835700Y890808D01*
D02*
G37*
G36*
X366791Y1110786D02*
X364181Y1110443D01*
X361748Y1109435D01*
X359659Y1107832D01*
X358056Y1105743D01*
X357049Y1103310D01*
X356705Y1100700D01*
X357049Y1098090D01*
X358056Y1095657D01*
X359659Y1093568D01*
X361748Y1091965D01*
X364181Y1090957D01*
X366791Y1090614D01*
X369402Y1090957D01*
X371834Y1091965D01*
X373923Y1093568D01*
X375526Y1095657D01*
X376534Y1098090D01*
X376878Y1100700D01*
X376534Y1103310D01*
X375526Y1105743D01*
X373923Y1107832D01*
X371834Y1109435D01*
X369402Y1110443D01*
X366791Y1110786D01*
D02*
G37*
G36*
X290591Y1110786D02*
X287981Y1110443D01*
X285548Y1109435D01*
X283459Y1107832D01*
X281856Y1105743D01*
X280849Y1103310D01*
X280505Y1100700D01*
X280849Y1098090D01*
X281856Y1095657D01*
X283459Y1093568D01*
X285548Y1091965D01*
X287981Y1090957D01*
X290591Y1090614D01*
X293202Y1090957D01*
X295634Y1091965D01*
X297723Y1093568D01*
X299326Y1095657D01*
X300334Y1098090D01*
X300678Y1100700D01*
X300334Y1103310D01*
X299326Y1105743D01*
X297723Y1107832D01*
X295634Y1109435D01*
X293202Y1110443D01*
X290591Y1110786D01*
D02*
G37*
G36*
X731651D02*
X729041Y1110443D01*
X726608Y1109435D01*
X724519Y1107832D01*
X722916Y1105743D01*
X721909Y1103310D01*
X721565Y1100700D01*
X721909Y1098090D01*
X722916Y1095657D01*
X724519Y1093568D01*
X726608Y1091965D01*
X729041Y1090957D01*
X731651Y1090614D01*
X734262Y1090957D01*
X736694Y1091965D01*
X738783Y1093568D01*
X740386Y1095657D01*
X741394Y1098090D01*
X741738Y1100700D01*
X741394Y1103310D01*
X740386Y1105743D01*
X738783Y1107832D01*
X736694Y1109435D01*
X734262Y1110443D01*
X731651Y1110786D01*
D02*
G37*
G36*
X341391Y1110786D02*
X338781Y1110443D01*
X336348Y1109435D01*
X334259Y1107832D01*
X332656Y1105743D01*
X331649Y1103310D01*
X331305Y1100700D01*
X331649Y1098090D01*
X332656Y1095657D01*
X334259Y1093568D01*
X336348Y1091965D01*
X338781Y1090957D01*
X341391Y1090614D01*
X344002Y1090957D01*
X346434Y1091965D01*
X348523Y1093568D01*
X350126Y1095657D01*
X351134Y1098090D01*
X351478Y1100700D01*
X351134Y1103310D01*
X350126Y1105743D01*
X348523Y1107832D01*
X346434Y1109435D01*
X344002Y1110443D01*
X341391Y1110786D01*
D02*
G37*
G36*
X508621Y1098200D02*
X500355D01*
X500405Y1097829D01*
X501513Y1095153D01*
X503276Y1092855D01*
X505574Y1091092D01*
X508250Y1089983D01*
X508621Y1089934D01*
Y1098200D01*
D02*
G37*
G36*
X521887D02*
X513621D01*
Y1089934D01*
X513993Y1089983D01*
X516669Y1091092D01*
X518967Y1092855D01*
X520730Y1095153D01*
X521838Y1097829D01*
X521887Y1098200D01*
D02*
G37*
G36*
X315991Y1110786D02*
X313381Y1110443D01*
X310948Y1109435D01*
X308859Y1107832D01*
X307256Y1105743D01*
X306249Y1103310D01*
X305905Y1100700D01*
X306249Y1098090D01*
X307256Y1095657D01*
X308859Y1093568D01*
X310948Y1091965D01*
X313381Y1090957D01*
X315991Y1090614D01*
X318602Y1090957D01*
X321035Y1091965D01*
X323123Y1093568D01*
X324726Y1095657D01*
X325734Y1098090D01*
X326078Y1100700D01*
X325734Y1103310D01*
X324726Y1105743D01*
X323123Y1107832D01*
X321035Y1109435D01*
X318602Y1110443D01*
X315991Y1110786D01*
D02*
G37*
G36*
X757051Y1110786D02*
X754441Y1110443D01*
X752008Y1109435D01*
X749919Y1107832D01*
X748316Y1105743D01*
X747309Y1103310D01*
X746965Y1100700D01*
X747309Y1098090D01*
X748316Y1095657D01*
X749919Y1093568D01*
X752008Y1091965D01*
X754441Y1090957D01*
X757051Y1090614D01*
X759662Y1090957D01*
X762094Y1091965D01*
X764183Y1093568D01*
X765786Y1095657D01*
X766794Y1098090D01*
X767138Y1100700D01*
X766794Y1103310D01*
X765786Y1105743D01*
X764183Y1107832D01*
X762094Y1109435D01*
X759662Y1110443D01*
X757051Y1110786D01*
D02*
G37*
G36*
X587321Y1110786D02*
X584711Y1110443D01*
X582278Y1109435D01*
X580189Y1107832D01*
X578586Y1105743D01*
X577579Y1103311D01*
X577235Y1100700D01*
X577579Y1098090D01*
X578586Y1095657D01*
X580189Y1093568D01*
X582278Y1091965D01*
X584711Y1090958D01*
X587321Y1090614D01*
X589932Y1090958D01*
X592365Y1091965D01*
X594453Y1093568D01*
X596056Y1095657D01*
X597064Y1098090D01*
X597408Y1100700D01*
X597064Y1103311D01*
X596056Y1105743D01*
X594453Y1107832D01*
X592365Y1109435D01*
X589932Y1110443D01*
X587321Y1110786D01*
D02*
G37*
G36*
X397191Y1110700D02*
X387191D01*
X382191Y1105700D01*
Y1095700D01*
X387191Y1090700D01*
X397191D01*
X402191Y1095700D01*
Y1105700D01*
X397191Y1110700D01*
D02*
G37*
G36*
X617721Y1110700D02*
X607721D01*
X602721Y1105700D01*
Y1095700D01*
X607721Y1090700D01*
X617721D01*
X622721Y1095700D01*
Y1105700D01*
X617721Y1110700D01*
D02*
G37*
G36*
X561921Y1110786D02*
X559311Y1110443D01*
X556878Y1109435D01*
X554789Y1107832D01*
X553186Y1105743D01*
X552179Y1103311D01*
X551835Y1100700D01*
X552179Y1098090D01*
X553186Y1095657D01*
X554789Y1093568D01*
X556878Y1091965D01*
X559311Y1090958D01*
X561921Y1090614D01*
X564532Y1090958D01*
X566964Y1091965D01*
X569053Y1093568D01*
X570656Y1095657D01*
X571664Y1098090D01*
X572008Y1100700D01*
X571664Y1103311D01*
X570656Y1105743D01*
X569053Y1107832D01*
X566964Y1109435D01*
X564532Y1110443D01*
X561921Y1110786D01*
D02*
G37*
G36*
X782451Y1110786D02*
X779841Y1110443D01*
X777408Y1109435D01*
X775319Y1107832D01*
X773716Y1105743D01*
X772709Y1103310D01*
X772365Y1100700D01*
X772709Y1098090D01*
X773716Y1095657D01*
X775319Y1093568D01*
X777408Y1091965D01*
X779841Y1090957D01*
X782451Y1090614D01*
X785062Y1090957D01*
X787494Y1091965D01*
X789583Y1093568D01*
X791186Y1095657D01*
X792194Y1098090D01*
X792538Y1100700D01*
X792194Y1103310D01*
X791186Y1105743D01*
X789583Y1107832D01*
X787494Y1109435D01*
X785062Y1110443D01*
X782451Y1110786D01*
D02*
G37*
G36*
X807851Y1110786D02*
X805241Y1110443D01*
X802808Y1109435D01*
X800719Y1107832D01*
X799116Y1105743D01*
X798109Y1103311D01*
X797765Y1100700D01*
X798109Y1098090D01*
X799116Y1095657D01*
X800719Y1093568D01*
X802808Y1091965D01*
X805241Y1090957D01*
X807851Y1090614D01*
X810462Y1090957D01*
X812894Y1091965D01*
X814983Y1093568D01*
X816586Y1095657D01*
X817594Y1098090D01*
X817937Y1100700D01*
X817594Y1103311D01*
X816586Y1105743D01*
X814983Y1107832D01*
X812894Y1109435D01*
X810462Y1110443D01*
X807851Y1110786D01*
D02*
G37*
G36*
X536521Y1110786D02*
X533911Y1110443D01*
X531478Y1109435D01*
X529389Y1107832D01*
X527786Y1105743D01*
X526779Y1103311D01*
X526435Y1100700D01*
X526779Y1098090D01*
X527786Y1095657D01*
X529389Y1093568D01*
X531478Y1091965D01*
X533911Y1090958D01*
X536521Y1090614D01*
X539132Y1090958D01*
X541564Y1091965D01*
X543653Y1093568D01*
X545256Y1095657D01*
X546264Y1098090D01*
X546608Y1100700D01*
X546264Y1103311D01*
X545256Y1105743D01*
X543653Y1107832D01*
X541564Y1109435D01*
X539132Y1110443D01*
X536521Y1110786D01*
D02*
G37*
G36*
X693400Y968074D02*
X691254Y967647D01*
X689435Y966431D01*
X688219Y964612D01*
X687792Y962466D01*
X688219Y960320D01*
X689435Y958501D01*
X691254Y957285D01*
X693400Y956858D01*
X695546Y957285D01*
X697365Y958501D01*
X698581Y960320D01*
X699008Y962466D01*
X698581Y964612D01*
X697365Y966431D01*
X695546Y967647D01*
X693400Y968074D01*
D02*
G37*
G36*
X972201Y1003677D02*
X970055Y1003250D01*
X968236Y1002035D01*
X967020Y1000215D01*
X966593Y998069D01*
X967020Y995923D01*
X968236Y994104D01*
X970055Y992888D01*
X972201Y992461D01*
X974347Y992888D01*
X976166Y994104D01*
X977382Y995923D01*
X977809Y998069D01*
X977382Y1000215D01*
X976166Y1002035D01*
X974347Y1003250D01*
X972201Y1003677D01*
D02*
G37*
G36*
X1001900Y1052093D02*
X999681Y1051800D01*
X997613Y1050944D01*
X995838Y1049582D01*
X994475Y1047806D01*
X993619Y1045738D01*
X993327Y1043519D01*
X993619Y1041300D01*
X994335Y1039570D01*
Y1008533D01*
X967366Y981564D01*
X892974D01*
X892626Y982834D01*
X893731Y984488D01*
X894158Y986634D01*
X893731Y988780D01*
X892515Y990599D01*
X890696Y991815D01*
X888550Y992242D01*
X886404Y991815D01*
X884585Y990599D01*
X883369Y988780D01*
X882942Y986634D01*
X883369Y984488D01*
X884474Y982834D01*
X884126Y981564D01*
X880274D01*
X879926Y982834D01*
X881031Y984488D01*
X881458Y986634D01*
X881031Y988780D01*
X879815Y990599D01*
X877996Y991815D01*
X875850Y992242D01*
X873704Y991815D01*
X871885Y990599D01*
X870669Y988780D01*
X870242Y986634D01*
X870669Y984488D01*
X871774Y982834D01*
X871426Y981564D01*
X867099D01*
X865369Y982280D01*
X863150Y982572D01*
X860931Y982280D01*
X858863Y981424D01*
X857088Y980061D01*
X855725Y978286D01*
X854869Y976218D01*
X854577Y973999D01*
X854869Y971780D01*
X855585Y970050D01*
Y920425D01*
X854315Y919966D01*
X852796Y920981D01*
X850650Y921408D01*
X848504Y920981D01*
X846685Y919765D01*
X845469Y917946D01*
X845042Y915800D01*
X845469Y913654D01*
X846685Y911835D01*
X848504Y910619D01*
X850650Y910192D01*
X852796Y910619D01*
X854315Y911634D01*
X855585Y911174D01*
Y866926D01*
X854315Y866541D01*
X854165Y866765D01*
X852346Y867981D01*
X850200Y868408D01*
X848054Y867981D01*
X846235Y866765D01*
X845019Y864946D01*
X844592Y862800D01*
X845019Y860654D01*
X846235Y858835D01*
X848054Y857619D01*
X850200Y857192D01*
X852346Y857619D01*
X854165Y858835D01*
X854315Y859059D01*
X855585Y858674D01*
Y827148D01*
X854869Y825418D01*
X854577Y823199D01*
X854869Y820980D01*
X855585Y819250D01*
Y743498D01*
X854869Y741768D01*
X854577Y739549D01*
X854869Y737330D01*
X855725Y735263D01*
X857088Y733487D01*
X858863Y732124D01*
X860931Y731268D01*
X863150Y730976D01*
X865369Y731268D01*
X867099Y731984D01*
X927587D01*
X951453Y708119D01*
X951187Y707241D01*
X950897Y704300D01*
X951187Y701359D01*
X952045Y698532D01*
X953438Y695926D01*
X955312Y693642D01*
X957596Y691768D01*
X958405Y691335D01*
Y657483D01*
X958663Y655525D01*
X959419Y653700D01*
X960621Y652134D01*
X1020054Y592701D01*
X1021620Y591499D01*
X1023445Y590743D01*
X1025403Y590485D01*
X1028536D01*
Y385598D01*
X1013779Y370841D01*
X1012049Y370125D01*
X1010274Y368762D01*
X1008911Y366987D01*
X1008055Y364919D01*
X1007763Y362700D01*
X1008055Y360481D01*
X1008911Y358413D01*
X1010274Y356638D01*
X1012049Y355275D01*
X1014117Y354419D01*
X1016336Y354127D01*
X1018555Y354419D01*
X1020623Y355275D01*
X1022398Y356638D01*
X1023761Y358413D01*
X1024477Y360143D01*
X1041450Y377116D01*
X1042652Y378683D01*
X1043408Y380507D01*
X1043666Y382465D01*
Y594101D01*
X1044382Y595831D01*
X1044674Y598050D01*
X1044382Y600269D01*
X1043526Y602337D01*
X1042163Y604112D01*
X1040387Y605475D01*
X1038320Y606331D01*
X1036101Y606623D01*
X1033882Y606331D01*
X1032152Y605615D01*
X1028536D01*
X973535Y660616D01*
Y691335D01*
X974344Y691768D01*
X976628Y693642D01*
X978502Y695926D01*
X979895Y698532D01*
X980753Y701359D01*
X981042Y704300D01*
X980753Y707241D01*
X979895Y710068D01*
X978502Y712674D01*
X976628Y714958D01*
X974344Y716832D01*
X971738Y718225D01*
X968911Y719083D01*
X965970Y719373D01*
X963029Y719083D01*
X962151Y718817D01*
X936070Y744898D01*
X934503Y746100D01*
X932679Y746856D01*
X930721Y747114D01*
X892974D01*
X892626Y748384D01*
X893731Y750038D01*
X894158Y752184D01*
X893731Y754330D01*
X892515Y756149D01*
X890696Y757365D01*
X888550Y757792D01*
X886404Y757365D01*
X884585Y756149D01*
X883369Y754330D01*
X882942Y752184D01*
X883369Y750038D01*
X884474Y748384D01*
X884126Y747114D01*
X870715D01*
Y800840D01*
X871985Y801134D01*
X873704Y799985D01*
X875850Y799558D01*
X877996Y799985D01*
X879815Y801201D01*
X881031Y803020D01*
X881458Y805166D01*
X881031Y807312D01*
X879815Y809131D01*
X877996Y810347D01*
X875850Y810774D01*
X873704Y810347D01*
X871985Y809198D01*
X870715Y809492D01*
Y819250D01*
X871431Y820980D01*
X871723Y823199D01*
X871431Y825418D01*
X870715Y827148D01*
Y951640D01*
X871985Y951934D01*
X873704Y950785D01*
X875850Y950358D01*
X877996Y950785D01*
X879815Y952001D01*
X881031Y953820D01*
X881458Y955966D01*
X881031Y958112D01*
X879815Y959931D01*
X877996Y961147D01*
X875850Y961574D01*
X873704Y961147D01*
X871985Y959998D01*
X870715Y960292D01*
Y966434D01*
X970499D01*
X972457Y966692D01*
X974281Y967448D01*
X975848Y968650D01*
X1007249Y1000051D01*
X1008451Y1001618D01*
X1009207Y1003442D01*
X1009465Y1005400D01*
Y1013696D01*
X1010735Y1014044D01*
X1012389Y1012938D01*
X1014535Y1012512D01*
X1016681Y1012938D01*
X1018500Y1014154D01*
X1019716Y1015973D01*
X1020143Y1018119D01*
X1019716Y1020265D01*
X1018500Y1022085D01*
X1016681Y1023300D01*
X1014535Y1023727D01*
X1012389Y1023300D01*
X1010735Y1022195D01*
X1009465Y1022543D01*
Y1039570D01*
X1010181Y1041300D01*
X1010473Y1043519D01*
X1010181Y1045738D01*
X1009325Y1047806D01*
X1007962Y1049582D01*
X1006187Y1050944D01*
X1004119Y1051800D01*
X1001900Y1052093D01*
D02*
G37*
G36*
X408300Y968074D02*
X406154Y967647D01*
X404335Y966431D01*
X403119Y964612D01*
X402692Y962466D01*
X403119Y960320D01*
X404335Y958501D01*
X406154Y957285D01*
X408300Y956858D01*
X410446Y957285D01*
X412265Y958501D01*
X413481Y960320D01*
X413908Y962466D01*
X413481Y964612D01*
X412265Y966431D01*
X410446Y967647D01*
X408300Y968074D01*
D02*
G37*
G36*
X920200Y938212D02*
X917579D01*
Y938212D01*
X914957D01*
X909758Y937527D01*
X904694Y936170D01*
X899849Y934164D01*
X895308Y931542D01*
X891148Y928350D01*
X887441Y924642D01*
X884249Y920482D01*
X881627Y915941D01*
X879620Y911097D01*
X878263Y906032D01*
X877579Y900834D01*
X877579Y898212D01*
X877579Y895064D01*
X878564Y888845D01*
X880509Y882857D01*
X883368Y877247D01*
X887068Y872154D01*
X891520Y867702D01*
X896614Y864001D01*
X902224Y861142D01*
X908212Y859197D01*
X914431Y858212D01*
X920727Y858212D01*
X926945Y859197D01*
X932933Y861142D01*
X938543Y864001D01*
X943637Y867702D01*
X948089Y872154D01*
X951790Y877247D01*
X954648Y882857D01*
X955821Y886468D01*
X957073Y886683D01*
X957411Y886242D01*
X959918Y884318D01*
X962837Y883109D01*
X965970Y882697D01*
X969103Y883109D01*
X972022Y884318D01*
X974529Y886242D01*
X976452Y888748D01*
X977661Y891667D01*
X978074Y894800D01*
X977661Y897933D01*
X976452Y900852D01*
X974529Y903359D01*
X972022Y905282D01*
X969103Y906491D01*
X965970Y906904D01*
X962837Y906491D01*
X959918Y905282D01*
X958425Y904136D01*
X957070Y904697D01*
X956894Y906032D01*
X955537Y911097D01*
X953531Y915941D01*
X950909Y920482D01*
X947717Y924642D01*
X944009Y928350D01*
X939849Y931542D01*
X935308Y934164D01*
X930464Y936170D01*
X925399Y937527D01*
X920200Y938212D01*
D02*
G37*
G36*
X394800Y942674D02*
X392654Y942247D01*
X390835Y941031D01*
X389619Y939212D01*
X389192Y937066D01*
X389619Y934920D01*
X390835Y933101D01*
X392654Y931885D01*
X394800Y931458D01*
X396946Y931885D01*
X398765Y933101D01*
X399981Y934920D01*
X400408Y937066D01*
X399981Y939212D01*
X398765Y941031D01*
X396946Y942247D01*
X394800Y942674D01*
D02*
G37*
G36*
X908600Y949908D02*
X906454Y949481D01*
X904635Y948265D01*
X903419Y946446D01*
X902992Y944300D01*
X903419Y942154D01*
X904635Y940335D01*
X906454Y939119D01*
X908600Y938692D01*
X910746Y939119D01*
X912565Y940335D01*
X913781Y942154D01*
X914208Y944300D01*
X913781Y946446D01*
X912565Y948265D01*
X910746Y949481D01*
X908600Y949908D01*
D02*
G37*
G36*
X983867Y1036427D02*
X981721Y1036000D01*
X979902Y1034784D01*
X978686Y1032965D01*
X978259Y1030819D01*
X978686Y1028673D01*
X979902Y1026854D01*
X981721Y1025638D01*
X983867Y1025211D01*
X986013Y1025638D01*
X987832Y1026854D01*
X989048Y1028673D01*
X989475Y1030819D01*
X989048Y1032965D01*
X987832Y1034784D01*
X986013Y1036000D01*
X983867Y1036427D01*
D02*
G37*
G36*
X587321Y1087908D02*
X585175Y1087481D01*
X583356Y1086265D01*
X582141Y1084446D01*
X581714Y1082300D01*
X582141Y1080154D01*
X583356Y1078335D01*
X585175Y1077119D01*
X587321Y1076692D01*
X589467Y1077119D01*
X591287Y1078335D01*
X592502Y1080154D01*
X592929Y1082300D01*
X592502Y1084446D01*
X591287Y1086265D01*
X589467Y1087481D01*
X587321Y1087908D01*
D02*
G37*
G36*
X830751Y1098200D02*
X822251D01*
Y1095200D01*
X827751Y1089700D01*
X830751D01*
Y1098200D01*
D02*
G37*
G36*
X844251D02*
X835751D01*
Y1089700D01*
X838751D01*
X844251Y1095200D01*
Y1098200D01*
D02*
G37*
G36*
X278300Y1072574D02*
X276154Y1072147D01*
X274335Y1070931D01*
X273119Y1069112D01*
X272692Y1066966D01*
X273119Y1064820D01*
X274335Y1063001D01*
X276154Y1061785D01*
X278300Y1061358D01*
X280446Y1061785D01*
X282265Y1063001D01*
X283481Y1064820D01*
X283908Y1066966D01*
X283481Y1069112D01*
X282265Y1070931D01*
X280446Y1072147D01*
X278300Y1072574D01*
D02*
G37*
G36*
X278300Y1048674D02*
X276154Y1048247D01*
X274335Y1047031D01*
X273119Y1045212D01*
X272692Y1043066D01*
X273119Y1040920D01*
X274335Y1039101D01*
X276154Y1037885D01*
X278300Y1037458D01*
X280446Y1037885D01*
X282265Y1039101D01*
X283481Y1040920D01*
X283908Y1043066D01*
X283481Y1045212D01*
X282265Y1047031D01*
X280446Y1048247D01*
X278300Y1048674D01*
D02*
G37*
G36*
X960535Y1049127D02*
X958389Y1048700D01*
X956570Y1047485D01*
X955354Y1045665D01*
X954927Y1043519D01*
X955354Y1041373D01*
X956570Y1039554D01*
X958389Y1038338D01*
X960535Y1037912D01*
X962681Y1038338D01*
X964500Y1039554D01*
X965716Y1041373D01*
X966143Y1043519D01*
X965716Y1045665D01*
X964500Y1047485D01*
X962681Y1048700D01*
X960535Y1049127D01*
D02*
G37*
G36*
X651100Y1087908D02*
X648954Y1087481D01*
X647135Y1086265D01*
X645919Y1084446D01*
X645492Y1082300D01*
X645919Y1080154D01*
X647135Y1078335D01*
X648954Y1077119D01*
X651100Y1076692D01*
X653246Y1077119D01*
X653377Y1077206D01*
X654520Y1076443D01*
X654292Y1075300D01*
X654719Y1073154D01*
X655935Y1071335D01*
X657754Y1070119D01*
X659900Y1069692D01*
X661456Y1070002D01*
X662531Y1069080D01*
X662556Y1069024D01*
X662392Y1068200D01*
X662819Y1066054D01*
X664035Y1064235D01*
X665854Y1063019D01*
X668000Y1062592D01*
X670146Y1063019D01*
X671509Y1063930D01*
X671705Y1064061D01*
X672620Y1063145D01*
X672518Y1062991D01*
X671819Y1061946D01*
X671392Y1059800D01*
X671819Y1057654D01*
X673035Y1055835D01*
X674854Y1054619D01*
X677000Y1054192D01*
X679146Y1054619D01*
X679501Y1054856D01*
X680417Y1053941D01*
X679819Y1053046D01*
X679392Y1050900D01*
X679819Y1048754D01*
X681034Y1046935D01*
X682854Y1045719D01*
X685000Y1045292D01*
X687146Y1045719D01*
X688965Y1046935D01*
X690181Y1048754D01*
X690608Y1050900D01*
X690181Y1053046D01*
X688965Y1054865D01*
X687146Y1056081D01*
X685000Y1056508D01*
X682854Y1056081D01*
X682499Y1055844D01*
X681583Y1056759D01*
X682181Y1057654D01*
X682608Y1059800D01*
X682181Y1061946D01*
X680965Y1063765D01*
X679146Y1064981D01*
X677000Y1065408D01*
X674854Y1064981D01*
X673491Y1064070D01*
X673295Y1063940D01*
X672380Y1064855D01*
X672482Y1065008D01*
X673181Y1066054D01*
X673608Y1068200D01*
X673181Y1070346D01*
X671965Y1072165D01*
X670146Y1073381D01*
X668000Y1073808D01*
X666444Y1073498D01*
X665370Y1074420D01*
X665344Y1074476D01*
X665508Y1075300D01*
X665081Y1077446D01*
X663865Y1079265D01*
X662046Y1080481D01*
X659900Y1080908D01*
X657754Y1080481D01*
X657623Y1080394D01*
X656480Y1081157D01*
X656708Y1082300D01*
X656281Y1084446D01*
X655065Y1086265D01*
X653246Y1087481D01*
X651100Y1087908D01*
D02*
G37*
%LPD*%
D47*
X429034Y285300D02*
X432000Y282334D01*
Y253900D02*
Y282334D01*
X373600Y195500D02*
X432000Y253900D01*
X1025403Y598050D02*
X1036101D01*
X965970Y657483D02*
X1025403Y598050D01*
X965970Y657483D02*
Y704300D01*
X349156Y285300D02*
X429034D01*
X285422Y349034D02*
X349156Y285300D01*
X180834Y369398D02*
X202166Y348066D01*
X180834Y369398D02*
Y398034D01*
X288266Y261966D02*
Y263700D01*
X144234Y398034D02*
X180834D01*
X75530Y329330D02*
X144234Y398034D01*
X325066Y213832D02*
X331600Y220366D01*
X308134Y213832D02*
X325066D01*
X301600Y220366D02*
X308134Y213832D01*
Y149500D02*
Y213832D01*
X288266Y233700D02*
X301600Y220366D01*
X863150Y739549D02*
X930721D01*
X965970Y704300D01*
X863150Y739549D02*
Y823199D01*
Y739549D02*
X863150Y739549D01*
X863150Y823199D02*
Y973999D01*
X970499D01*
X1001900Y1005400D01*
Y1043519D01*
X1016336Y362700D02*
X1036101Y382465D01*
Y598050D01*
X42170Y256600D02*
Y314130D01*
X26970Y329330D02*
X42170Y314130D01*
X26970Y329330D02*
Y383000D01*
Y329330D02*
X75530D01*
X202166Y348066D02*
X288266Y261966D01*
Y233700D02*
Y261966D01*
D59*
X287670Y1280766D02*
D03*
D60*
X511121Y1100700D02*
D03*
X475800Y368000D02*
D03*
X42170Y256600D02*
D03*
X26970Y383000D02*
D03*
X287670Y1280766D02*
D03*
X567600Y90300D02*
D03*
X511121Y1210200D02*
D03*
D61*
X833251Y1100700D02*
D03*
X833251Y1210200D02*
D03*
D62*
X965970Y704300D02*
D03*
D68*
X551300Y238967D02*
D03*
X704030Y542634D02*
D03*
X608030D02*
D03*
X180834Y398034D02*
D03*
X202166Y348066D02*
D03*
X824970Y42234D02*
D03*
X812470D02*
D03*
X721700Y1396400D02*
D03*
X479500D02*
D03*
X236500D02*
D03*
X945300Y1364463D02*
D03*
X260266Y1085166D02*
D03*
X410000Y688534D02*
D03*
X301600Y220366D02*
D03*
X288266Y243700D02*
D03*
X288266Y263700D02*
D03*
X331600Y220366D02*
D03*
X285422Y349034D02*
D03*
X410000Y746734D02*
D03*
Y807234D02*
D03*
X408300Y925300D02*
D03*
X321800Y436966D02*
D03*
X365600Y494766D02*
D03*
X365600Y551966D02*
D03*
X365650Y608466D02*
D03*
X365600Y665766D02*
D03*
X552734Y759900D02*
D03*
X567434Y671999D02*
D03*
X564999Y634767D02*
D03*
X258966Y542200D02*
D03*
X259016Y598700D02*
D03*
X258966Y656000D02*
D03*
Y485000D02*
D03*
X308134Y149500D02*
D03*
X1036101Y598050D02*
D03*
X863150Y739549D02*
D03*
X863150Y823199D02*
D03*
Y973999D02*
D03*
X1001900Y1043519D02*
D03*
X907804Y563200D02*
D03*
X1016336Y362700D02*
D03*
X373600Y195500D02*
D03*
X429034Y285300D02*
D03*
X615300Y323300D02*
D03*
M02*
