G04 Layer_Physical_Order=3*
G04 Layer_Color=8060976*
%FSLAX44Y44*%
%MOMM*%
G71*
G01*
G75*
%ADD47C,0.5000*%
%ADD48C,0.3000*%
%ADD49C,0.2000*%
%ADD59C,1.5240*%
%ADD60C,1.6000*%
%ADD61P,1.7318X8X202.5*%
%ADD62C,2.0000*%
%ADD63P,2.1648X8X292.5*%
%ADD64P,2.7060X8X292.5*%
%ADD65C,2.5000*%
%ADD66P,1.7318X8X112.5*%
%ADD68C,0.7000*%
%ADD69C,0.3000*%
D47*
X833251Y1100700D02*
X833251Y1100700D01*
X15840Y103580D02*
X26840D01*
X15840Y128980D02*
X26840D01*
X15840Y154380D02*
X26840D01*
X15840Y179780D02*
X26840D01*
X15840Y205180D02*
X26840D01*
X26970Y468900D02*
Y481900D01*
Y494900D01*
Y481900D02*
X39970D01*
X26970Y558100D02*
Y571100D01*
Y558100D02*
X39970D01*
X26970Y545100D02*
Y558100D01*
X26970Y621300D02*
Y634300D01*
X39970D01*
X26970D02*
Y647300D01*
X26970Y691300D02*
Y704300D01*
Y717300D01*
Y704300D02*
X39970D01*
X381191Y1100700D02*
X392191D01*
Y1089700D02*
Y1100700D01*
Y1111700D01*
Y1100700D02*
X403191D01*
X567600Y34300D02*
Y45300D01*
X556600D02*
X567600D01*
Y56300D01*
Y45300D02*
X578600D01*
X464800Y418800D02*
X475800D01*
Y407800D02*
Y418800D01*
X486800D01*
X475800D02*
Y429800D01*
X1067079Y241690D02*
Y257190D01*
X1051579D02*
X1067079D01*
Y272690D01*
X1051579Y358790D02*
X1067079D01*
Y343290D02*
Y358790D01*
Y374290D01*
X1067079Y257190D02*
X1082579D01*
X1067079Y358790D02*
X1082579D01*
X731651Y1089700D02*
Y1100700D01*
X720651D02*
X731651D01*
X742651D01*
X731651D02*
Y1111700D01*
X1079970Y704300D02*
X1092970D01*
Y691300D02*
Y704300D01*
Y717300D01*
X381191Y1210200D02*
X392191D01*
Y1199200D02*
Y1210200D01*
X403191D01*
X392191D02*
Y1221200D01*
X731651Y1199200D02*
Y1210200D01*
X720651D02*
X731651D01*
X742651D01*
X731651D02*
Y1221200D01*
D48*
X20000Y91793D02*
G03*
X28340Y103580I-4160J11788D01*
G01*
D02*
G03*
X20000Y115367I-12500J0D01*
G01*
Y117193D02*
G03*
X28340Y128980I-4160J11788D01*
G01*
D02*
G03*
X20000Y140767I-12500J0D01*
G01*
Y142593D02*
G03*
X28340Y154380I-4160J11788D01*
G01*
X103540Y103580D02*
G03*
X103540Y103580I-11500J0D01*
G01*
Y128980D02*
G03*
X103540Y128980I-11500J0D01*
G01*
Y154380D02*
G03*
X103540Y154380I-11500J0D01*
G01*
X28340D02*
G03*
X20000Y166168I-12500J0D01*
G01*
Y167993D02*
G03*
X28340Y179780I-4160J11788D01*
G01*
D02*
G03*
X20000Y191567I-12500J0D01*
G01*
X103540Y179780D02*
G03*
X103540Y179780I-11500J0D01*
G01*
Y205180D02*
G03*
X103540Y205180I-11500J0D01*
G01*
X280600Y217000D02*
G03*
X280600Y217000I-7000J0D01*
G01*
X295266Y243700D02*
G03*
X295266Y243700I-7000J0D01*
G01*
X308600Y220366D02*
G03*
X308600Y220366I-7000J0D01*
G01*
X150590Y288200D02*
G03*
X150590Y288200I-11120J0D01*
G01*
X175990Y275400D02*
G03*
X175800Y277449I-11120J0D01*
G01*
X295266Y263700D02*
G03*
X295266Y263700I-7000J0D01*
G01*
X175800Y273351D02*
G03*
X175990Y275400I-10930J2049D01*
G01*
X167519Y286200D02*
G03*
X162222Y286200I-2648J-10800D01*
G01*
X203620Y279380D02*
G03*
X203620Y279380I-7000J0D01*
G01*
X150590Y313600D02*
G03*
X150590Y313600I-11120J0D01*
G01*
Y339000D02*
G03*
X150590Y339000I-11120J0D01*
G01*
Y364400D02*
G03*
X150590Y364400I-11120J0D01*
G01*
X20000Y432239D02*
G03*
X40470Y443800I6970J11561D01*
G01*
D02*
G03*
X20000Y455362I-13500J0D01*
G01*
Y469185D02*
G03*
X41470Y481900I6970J12715D01*
G01*
D02*
G03*
X20000Y494615I-14500J0D01*
G01*
X167470Y443800D02*
G03*
X167470Y443800I-13500J0D01*
G01*
Y481900D02*
G03*
X167470Y481900I-13500J0D01*
G01*
X175990Y300800D02*
G03*
X175990Y300800I-11120J0D01*
G01*
Y326200D02*
G03*
X175990Y326200I-11120J0D01*
G01*
Y351600D02*
G03*
X175990Y351600I-11120J0D01*
G01*
X209166Y348066D02*
G03*
X209166Y348066I-7000J0D01*
G01*
X292421Y349034D02*
G03*
X292421Y349034I-7000J0D01*
G01*
X187834Y398034D02*
G03*
X187834Y398034I-7000J0D01*
G01*
X265966Y485000D02*
G03*
X265966Y485000I-7000J0D01*
G01*
X306000Y416500D02*
G03*
X307318Y413318I4500J0D01*
G01*
X306000Y416500D02*
G03*
X307318Y413318I4500J0D01*
G01*
X275824Y470750D02*
G03*
X287229Y462873I5142J-4750D01*
G01*
X275824Y480250D02*
G03*
X275824Y470750I5142J-4750D01*
G01*
X287966Y475500D02*
G03*
X287217Y478650I-7000J0D01*
G01*
X287445Y487650D02*
G03*
X275824Y480250I-6479J-2650D01*
G01*
X315134Y149500D02*
G03*
X315134Y149500I-7000J0D01*
G01*
X380600Y195500D02*
G03*
X380600Y195500I-7000J0D01*
G01*
X322500Y227000D02*
G03*
X322500Y227000I-7000J0D01*
G01*
X338600Y220366D02*
G03*
X338600Y220366I-7000J0D01*
G01*
X362652Y249618D02*
G03*
X365834Y248300I3182J3182D01*
G01*
X362652Y249618D02*
G03*
X365834Y248300I3182J3182D01*
G01*
X356934Y268700D02*
G03*
X350544Y261727I-7000J0D01*
G01*
X368960Y269111D02*
G03*
X380128Y260700I5806J-3911D01*
G01*
X380766Y274200D02*
G03*
X368960Y269111I-7000J0D01*
G01*
X407800Y260700D02*
G03*
X410982Y262018I0J4500D01*
G01*
X407800Y260700D02*
G03*
X410982Y262018I0J4500D01*
G01*
X443100Y248300D02*
G03*
X446282Y249618I0J4500D01*
G01*
X443100Y248300D02*
G03*
X446282Y249618I0J4500D01*
G01*
X442400Y269000D02*
G03*
X445582Y270318I0J4500D01*
G01*
X442400Y269000D02*
G03*
X445582Y270318I0J4500D01*
G01*
X379572Y270290D02*
G03*
X380766Y274200I-5806J3911D01*
G01*
X416100Y278000D02*
G03*
X412918Y276682I0J-4500D01*
G01*
X416100Y278000D02*
G03*
X412918Y276682I0J-4500D01*
G01*
X422856Y288590D02*
G03*
X436034Y285300I6178J-3290D01*
G01*
D02*
G03*
X425444Y291310I-7000J0D01*
G01*
X419875Y301573D02*
G03*
X422856Y288590I-609J-6973D01*
G01*
X425444Y291310D02*
G03*
X426266Y294600I-6178J3290D01*
G01*
Y310100D02*
G03*
X421928Y303626I-7000J0D01*
G01*
X425740Y307438D02*
G03*
X426266Y310100I-6474J2662D01*
G01*
X452450Y288050D02*
G03*
X449268Y286733I0J-4500D01*
G01*
X452450Y288050D02*
G03*
X449268Y286733I0J-4500D01*
G01*
X438082Y307052D02*
G03*
X439400Y310234I-3182J3182D01*
G01*
X438082Y307052D02*
G03*
X439400Y310234I-3182J3182D01*
G01*
X326318Y394318D02*
G03*
X329500Y393000I3182J3182D01*
G01*
X326318Y394318D02*
G03*
X329500Y393000I3182J3182D01*
G01*
X348224Y413150D02*
G03*
X350530Y402000I5142J-4750D01*
G01*
X348224Y422650D02*
G03*
X348224Y413150I5142J-4750D01*
G01*
X356202Y402000D02*
G03*
X360366Y408400I-2836J6400D01*
G01*
X358508Y413150D02*
G03*
X360366Y417900I-5142J4750D01*
G01*
X360366Y408400D02*
G03*
X358508Y413150I-7000J0D01*
G01*
X315000Y435305D02*
G03*
X328800Y436966I6800J1661D01*
G01*
X348866Y432762D02*
G03*
X348224Y422650I4500J-5362D01*
G01*
X328800Y436966D02*
G03*
X315000Y438627I-7000J0D01*
G01*
Y445966D02*
G03*
X313682Y449148I-4500J0D01*
G01*
X315000Y445966D02*
G03*
X313682Y449148I-4500J0D01*
G01*
X350184Y444582D02*
G03*
X348866Y441400I3182J-3182D01*
G01*
X360366Y427400D02*
G03*
X357866Y432762I-7000J0D01*
G01*
X358508Y422650D02*
G03*
X360366Y427400I-5142J4750D01*
G01*
X350184Y444582D02*
G03*
X348866Y441400I3182J-3182D01*
G01*
X360366Y417900D02*
G03*
X358508Y422650I-7000J0D01*
G01*
X384000Y393000D02*
G03*
X387182Y394318I0J4500D01*
G01*
X384000Y393000D02*
G03*
X387182Y394318I0J4500D01*
G01*
X431718Y407482D02*
G03*
X430400Y404300I3182J-3182D01*
G01*
X431718Y407482D02*
G03*
X430400Y404300I3182J-3182D01*
G01*
X392024Y470950D02*
G03*
X404166Y466200I5142J-4750D01*
G01*
D02*
G03*
X402308Y470950I-7000J0D01*
G01*
D02*
G03*
X404166Y475700I-5142J4750D01*
G01*
X402308Y480450D02*
G03*
X404166Y485200I-5142J4750D01*
G01*
D02*
G03*
X390609Y487650I-7000J0D01*
G01*
X404166Y475700D02*
G03*
X402308Y480450I-7000J0D01*
G01*
X20000Y508438D02*
G03*
X40470Y520000I6970J11562D01*
G01*
D02*
G03*
X20000Y531562I-13500J0D01*
G01*
Y545385D02*
G03*
X41470Y558100I6970J12715D01*
G01*
D02*
G03*
X20000Y570815I-14500J0D01*
G01*
X167470Y520000D02*
G03*
X167470Y520000I-13500J0D01*
G01*
X167470Y558100D02*
G03*
X167470Y558100I-13500J0D01*
G01*
X20000Y584638D02*
G03*
X40470Y596200I6970J11561D01*
G01*
D02*
G03*
X20000Y607761I-13500J0D01*
G01*
X167470Y596200D02*
G03*
X167470Y596200I-13500J0D01*
G01*
X275824Y527950D02*
G03*
X287966Y523200I5142J-4750D01*
G01*
D02*
G03*
X286108Y527950I-7000J0D01*
G01*
X265966Y542200D02*
G03*
X265966Y542200I-7000J0D01*
G01*
X275824Y537450D02*
G03*
X275824Y527950I5142J-4750D01*
G01*
X287453Y544830D02*
G03*
X275824Y537450I-6487J-2630D01*
G01*
X275874Y593950D02*
G03*
X275874Y584450I5142J-4750D01*
G01*
D02*
G03*
X288016Y579700I5142J-4750D01*
G01*
D02*
G03*
X286158Y584450I-7000J0D01*
G01*
X266016Y598700D02*
G03*
X266016Y598700I-7000J0D01*
G01*
X287396Y601580D02*
G03*
X275874Y593950I-6380J-2880D01*
G01*
X275824Y641750D02*
G03*
X287966Y637000I5142J-4750D01*
G01*
D02*
G03*
X286108Y641750I-7000J0D01*
G01*
X20000Y691585D02*
G03*
X41470Y704300I6970J12715D01*
G01*
D02*
G03*
X20000Y717015I-14500J0D01*
G01*
X167470Y634300D02*
G03*
X167470Y634300I-13500J0D01*
G01*
X265966Y656000D02*
G03*
X265966Y656000I-7000J0D01*
G01*
X20000Y730838D02*
G03*
X40470Y742400I6970J11561D01*
G01*
D02*
G03*
X20000Y753961I-13500J0D01*
G01*
Y768939D02*
G03*
X40470Y780500I6970J11561D01*
G01*
D02*
G03*
X36360Y790200I-13500J0D01*
G01*
X267266Y1085166D02*
G03*
X267266Y1085166I-7000J0D01*
G01*
X275824Y651250D02*
G03*
X275824Y641750I5142J-4750D01*
G01*
X287412Y658730D02*
G03*
X275824Y651250I-6446J-2730D01*
G01*
X285300Y1066966D02*
G03*
X285300Y1066966I-7000J0D01*
G01*
X273400Y1116300D02*
G03*
X273400Y1116300I-7000J0D01*
G01*
X302091Y1100700D02*
G03*
X302091Y1100700I-11500J0D01*
G01*
X327491Y1100700D02*
G03*
X327491Y1100700I-11500J0D01*
G01*
X352891D02*
G03*
X352891Y1100700I-11500J0D01*
G01*
X372600Y494766D02*
G03*
X372600Y494766I-7000J0D01*
G01*
X372600Y551966D02*
G03*
X372600Y551966I-7000J0D01*
G01*
X374018Y561338D02*
G03*
X377200Y560020I3182J3182D01*
G01*
X374018Y561338D02*
G03*
X377200Y560020I3182J3182D01*
G01*
X382608Y496018D02*
G03*
X385790Y494700I3182J3182D01*
G01*
X382608Y496018D02*
G03*
X385790Y494700I3182J3182D01*
G01*
X392024Y528150D02*
G03*
X404166Y523400I5142J-4750D01*
G01*
X390809Y535830D02*
G03*
X392024Y528150I6357J-2930D01*
G01*
X372650Y608466D02*
G03*
X364392Y601580I-7000J0D01*
G01*
X366908D02*
G03*
X372650Y608466I-1258J6886D01*
G01*
X374668Y617618D02*
G03*
X377850Y616300I3182J3182D01*
G01*
X374668Y617618D02*
G03*
X377850Y616300I3182J3182D01*
G01*
X404166Y523400D02*
G03*
X402308Y528150I-7000J0D01*
G01*
D02*
G03*
X404166Y532900I-5142J4750D01*
G01*
D02*
G03*
X402308Y537650I-7000J0D01*
G01*
D02*
G03*
X404166Y542400I-5142J4750D01*
G01*
D02*
G03*
X390601Y544830I-7000J0D01*
G01*
X392074Y584650D02*
G03*
X404216Y579900I5142J-4750D01*
G01*
D02*
G03*
X402358Y584650I-7000J0D01*
G01*
X390980Y592580D02*
G03*
X392074Y584650I6236J-3180D01*
G01*
X404216Y598900D02*
G03*
X390749Y601580I-7000J0D01*
G01*
X404216Y589400D02*
G03*
X402358Y594150I-7000J0D01*
G01*
Y584650D02*
G03*
X404216Y589400I-5142J4750D01*
G01*
X402358Y594150D02*
G03*
X404216Y598900I-5142J4750D01*
G01*
X392024Y641950D02*
G03*
X404166Y637200I5142J-4750D01*
G01*
D02*
G03*
X402308Y641950I-7000J0D01*
G01*
X390856Y649730D02*
G03*
X392024Y641950I6310J-3030D01*
G01*
X404166Y646700D02*
G03*
X402308Y651450I-7000J0D01*
G01*
Y641950D02*
G03*
X404166Y646700I-5142J4750D01*
G01*
X442621Y635085D02*
G03*
X445803Y633767I3182J3182D01*
G01*
X442621Y635085D02*
G03*
X445803Y633767I3182J3182D01*
G01*
X372600Y665766D02*
G03*
X372600Y665766I-7000J0D01*
G01*
X378291Y1100700D02*
G03*
X378291Y1100700I-11500J0D01*
G01*
X402528Y660700D02*
G03*
X390639Y658730I-5362J-4500D01*
G01*
X401800Y706534D02*
G03*
X401800Y706534I-7000J0D01*
G01*
X417000Y688534D02*
G03*
X417000Y688534I-7000J0D01*
G01*
X401800Y764734D02*
G03*
X401800Y764734I-7000J0D01*
G01*
X417000Y746734D02*
G03*
X417000Y746734I-7000J0D01*
G01*
X431052Y659382D02*
G03*
X427870Y660700I-3182J-3182D01*
G01*
X431052Y659382D02*
G03*
X427870Y660700I-3182J-3182D01*
G01*
X417000Y807234D02*
G03*
X417000Y807234I-7000J0D01*
G01*
X401800Y825234D02*
G03*
X401800Y825234I-7000J0D01*
G01*
X415300Y925300D02*
G03*
X415300Y925300I-7000J0D01*
G01*
Y962466D02*
G03*
X415300Y962466I-7000J0D01*
G01*
X461151Y275350D02*
G03*
X457969Y274032I0J-4500D01*
G01*
X461151Y275350D02*
G03*
X457969Y274032I0J-4500D01*
G01*
X487300Y368000D02*
G03*
X487300Y368000I-11500J0D01*
G01*
Y393400D02*
G03*
X487300Y393400I-11500J0D01*
G01*
X511783Y397900D02*
G03*
X511783Y388900I-10583J-4500D01*
G01*
X558300Y238967D02*
G03*
X558300Y238967I-7000J0D01*
G01*
X579100Y90300D02*
G03*
X579100Y90300I-11500J0D01*
G01*
X588272Y266350D02*
G03*
X600634Y270851I5362J4500D01*
G01*
D02*
G03*
X593025Y277824I-7000J0D01*
G01*
X534272Y279051D02*
G03*
X544996Y279051I5362J4500D01*
G01*
X536688Y289900D02*
G03*
X534272Y288050I2946J-6350D01*
G01*
X546550Y279051D02*
G03*
X549733Y280369I0J4500D01*
G01*
X546550Y279051D02*
G03*
X549733Y280369I0J4500D01*
G01*
X544852Y288216D02*
G03*
X542580Y289900I-5218J-4666D01*
G01*
X546634Y296250D02*
G03*
X536688Y289900I-7000J0D01*
G01*
X542580D02*
G03*
X546634Y296250I-2946J6350D01*
G01*
X560182Y290818D02*
G03*
X561500Y294000I-3182J3182D01*
G01*
X560182Y290818D02*
G03*
X561500Y294000I-3182J3182D01*
G01*
X562864Y297121D02*
G03*
X564182Y293939I4500J0D01*
G01*
X562864Y297121D02*
G03*
X564182Y293939I4500J0D01*
G01*
X571864Y417295D02*
G03*
X585600Y419200I6736J1905D01*
G01*
X488300Y418800D02*
G03*
X488300Y418800I-12500J0D01*
G01*
X512700D02*
G03*
X512700Y418800I-11500J0D01*
G01*
X497800Y471700D02*
G03*
X494618Y470382I0J-4500D01*
G01*
X497800Y471700D02*
G03*
X494618Y470382I0J-4500D01*
G01*
X469700Y487700D02*
G03*
X466518Y486382I0J-4500D01*
G01*
X469700Y487700D02*
G03*
X466518Y486382I0J-4500D01*
G01*
X553818Y454682D02*
G03*
X552500Y451500I3182J-3182D01*
G01*
X553818Y454682D02*
G03*
X552500Y451500I3182J-3182D01*
G01*
X564182Y442746D02*
G03*
X562864Y439564I3182J-3182D01*
G01*
X564182Y442746D02*
G03*
X562864Y439564I3182J-3182D01*
G01*
X585600Y419200D02*
G03*
X571864Y421105I-7000J0D01*
G01*
Y428492D02*
G03*
X580864Y435200I2000J6708D01*
G01*
X580736Y436533D02*
G03*
X585599Y443199I-2137J6666D01*
G01*
X567802Y454700D02*
G03*
X568375Y446855I6062J-3500D01*
G01*
X580864Y467200D02*
G03*
X568502Y471700I-7000J0D01*
G01*
X580728Y452576D02*
G03*
X585464Y459200I-2263J6624D01*
G01*
D02*
G03*
X580727Y465824I-7000J0D01*
G01*
X585599Y443199D02*
G03*
X580736Y449865I-7000J0D01*
G01*
X547938Y512018D02*
G03*
X551120Y510700I3182J3182D01*
G01*
X547938Y512018D02*
G03*
X551120Y510700I3182J3182D01*
G01*
X553788Y528018D02*
G03*
X556970Y526700I3182J3182D01*
G01*
X553788Y528018D02*
G03*
X556970Y526700I3182J3182D01*
G01*
X573102Y478700D02*
G03*
X585464Y483200I5362J4500D01*
G01*
D02*
G03*
X573102Y487700I-7000J0D01*
G01*
X585464Y499200D02*
G03*
X573102Y503700I-7000J0D01*
G01*
Y494700D02*
G03*
X585464Y499200I5362J4500D01*
G01*
X567802Y526700D02*
G03*
X567802Y519700I6062J-3500D01*
G01*
X573102Y510700D02*
G03*
X585464Y515200I5362J4500D01*
G01*
D02*
G03*
X580727Y521824I-7000J0D01*
G01*
Y524576D02*
G03*
X585464Y531200I-2263J6624D01*
G01*
D02*
G03*
X573102Y535700I-7000J0D01*
G01*
X623966Y258151D02*
G03*
X623966Y258151I-7000J0D01*
G01*
X818720Y45386D02*
G03*
X818720Y39082I-6250J-3152D01*
G01*
D02*
G03*
X831970Y42234I6250J3152D01*
G01*
D02*
G03*
X818720Y45386I-7000J0D01*
G01*
X673416Y310550D02*
G03*
X673416Y310550I-7000J0D01*
G01*
X622300Y323300D02*
G03*
X622300Y323300I-7000J0D01*
G01*
X713406Y382771D02*
G03*
X726654Y382771I6624J2263D01*
G01*
D02*
G03*
X735030Y389634I1376J6863D01*
G01*
X721406Y391897D02*
G03*
X718654Y391897I-1376J-6863D01*
G01*
X1023336Y362700D02*
G03*
X1023336Y362700I-7000J0D01*
G01*
X1073970Y50700D02*
G03*
X1073970Y50700I-5000J0D01*
G01*
X1075970D02*
G03*
X1075970Y50700I-7000J0D01*
G01*
X1098400Y128800D02*
G03*
X1098400Y128800I-7000J0D01*
G01*
X1096400D02*
G03*
X1096400Y128800I-5000J0D01*
G01*
X1083079Y307990D02*
G03*
X1083079Y307990I-16000J0D01*
G01*
X1084079Y358790D02*
G03*
X1084079Y358790I-17000J0D01*
G01*
X623030Y389770D02*
G03*
X623030Y389770I-7000J0D01*
G01*
X602887Y420379D02*
G03*
X615030Y415630I5143J-4749D01*
G01*
D02*
G03*
X609603Y422451I-7000J0D01*
G01*
X631030Y415630D02*
G03*
X631030Y415630I-7000J0D01*
G01*
X679030Y389634D02*
G03*
X679030Y389634I-7000J0D01*
G01*
X718654Y391897D02*
G03*
X713406Y382771I-6624J-2263D01*
G01*
X735030Y389634D02*
G03*
X721406Y391897I-7000J0D01*
G01*
X609603Y422451D02*
G03*
X611460Y427200I-5143J4749D01*
G01*
D02*
G03*
X602887Y420379I-7000J0D01*
G01*
X649500Y491200D02*
G03*
X649500Y491200I-7000J0D01*
G01*
X738464Y427200D02*
G03*
X738464Y427200I-7000J0D01*
G01*
Y499200D02*
G03*
X738464Y499200I-7000J0D01*
G01*
X764596Y419200D02*
G03*
X764596Y419200I-7000J0D01*
G01*
X1083079Y409590D02*
G03*
X1083079Y409590I-16000J0D01*
G01*
Y460390D02*
G03*
X1083079Y460390I-16000J0D01*
G01*
X504982Y567702D02*
G03*
X501800Y569020I-3182J-3182D01*
G01*
X504982Y567702D02*
G03*
X501800Y569020I-3182J-3182D01*
G01*
X470552Y623982D02*
G03*
X467370Y625300I-3182J-3182D01*
G01*
X470552Y623982D02*
G03*
X467370Y625300I-3182J-3182D01*
G01*
X492073Y633767D02*
G03*
X504435Y638267I5362J4500D01*
G01*
X492293Y652517D02*
G03*
X492293Y643017I5142J-4750D01*
G01*
X502576Y652517D02*
G03*
X504435Y657267I-5142J4750D01*
G01*
D02*
G03*
X492293Y652517I-7000J0D01*
G01*
X532733Y772800D02*
G03*
X532733Y772800I-7000J0D01*
G01*
X533534Y798201D02*
G03*
X533534Y798201I-7000J0D01*
G01*
X540100Y691265D02*
G03*
X540100Y691265I-7000J0D01*
G01*
X571999Y634767D02*
G03*
X571999Y634767I-7000J0D01*
G01*
X557421Y765099D02*
G03*
X557421Y754701I-4687J-5199D01*
G01*
X615030Y542634D02*
G03*
X615030Y542634I-7000J0D01*
G01*
X663030D02*
G03*
X663030Y542634I-7000J0D01*
G01*
X574434Y671999D02*
G03*
X574434Y671999I-7000J0D01*
G01*
X565103Y699572D02*
G03*
X566421Y702754I-3182J3182D01*
G01*
X565103Y699572D02*
G03*
X566421Y702754I-3182J3182D01*
G01*
X671030Y568766D02*
G03*
X671030Y568766I-7000J0D01*
G01*
X711030Y542634D02*
G03*
X711030Y542634I-7000J0D01*
G01*
X839500Y572850D02*
G03*
X839500Y572850I-7000J0D01*
G01*
X854000Y578600D02*
G03*
X854000Y578600I-7000J0D01*
G01*
X758700Y706534D02*
G03*
X758700Y706534I-7000J0D01*
G01*
X839500Y691450D02*
G03*
X839500Y691450I-7000J0D01*
G01*
X584866Y734500D02*
G03*
X584866Y734500I-7000J0D01*
G01*
X639734Y740000D02*
G03*
X639734Y740000I-7000J0D01*
G01*
X613734Y772600D02*
G03*
X613734Y772600I-7000J0D01*
G01*
X678298Y1052921D02*
G03*
X692000Y1050900I6702J-2021D01*
G01*
D02*
G03*
X683702Y1057779I-7000J0D01*
G01*
X670226Y1061563D02*
G03*
X678298Y1052921I6774J-1763D01*
G01*
X683702Y1057779D02*
G03*
X684000Y1059800I-6702J2021D01*
G01*
D02*
G03*
X674774Y1066437I-7000J0D01*
G01*
X815900Y735900D02*
G03*
X815900Y735900I-7000J0D01*
G01*
X750800Y764734D02*
G03*
X750800Y764734I-7000J0D01*
G01*
X742600Y825234D02*
G03*
X742600Y825234I-7000J0D01*
G01*
X700400Y962466D02*
G03*
X700400Y962466I-7000J0D01*
G01*
X842700Y885200D02*
G03*
X842700Y885200I-7000J0D01*
G01*
X522621Y1100700D02*
G03*
X522621Y1100700I-11500J0D01*
G01*
X548021Y1100700D02*
G03*
X548021Y1100700I-11500J0D01*
G01*
X586391Y1089238D02*
G03*
X594321Y1082300I931J-6938D01*
G01*
D02*
G03*
X588252Y1089238I-7000J0D01*
G01*
X566421Y1090117D02*
G03*
X573421Y1100700I-4500J10583D01*
G01*
X598821D02*
G03*
X586391Y1089238I-11500J0D01*
G01*
X573421Y1100700D02*
G03*
X557421Y1090117I-11500J0D01*
G01*
X588252Y1089238D02*
G03*
X598821Y1100700I-931J11462D01*
G01*
X652904Y1075536D02*
G03*
X661003Y1068387I6996J-236D01*
G01*
X666900Y1075300D02*
G03*
X658096Y1082064I-7000J0D01*
G01*
X658100Y1082300D02*
G03*
X652904Y1075536I-7000J0D01*
G01*
X661003Y1068387D02*
G03*
X670226Y1061563I6998J-187D01*
G01*
X675000Y1068200D02*
G03*
X666898Y1075113I-7000J0D01*
G01*
X744151Y1100700D02*
G03*
X744151Y1100700I-12500J0D01*
G01*
X793951D02*
G03*
X793951Y1100700I-11500J0D01*
G01*
X768551D02*
G03*
X768551Y1100700I-11500J0D01*
G01*
X819351Y1100700D02*
G03*
X819351Y1100700I-11500J0D01*
G01*
X914804Y563200D02*
G03*
X914804Y563200I-7000J0D01*
G01*
X882850Y721516D02*
G03*
X882850Y721516I-7000J0D01*
G01*
X870150Y739549D02*
G03*
X870150Y739549I-7000J0D01*
G01*
X882850Y805166D02*
G03*
X882850Y805166I-7000J0D01*
G01*
X870150Y823199D02*
G03*
X870150Y823199I-7000J0D01*
G01*
X895550Y835834D02*
G03*
X895550Y835834I-7000J0D01*
G01*
X895550Y752184D02*
G03*
X895550Y752184I-7000J0D01*
G01*
X979470Y818600D02*
G03*
X979470Y818600I-13500J0D01*
G01*
X1043101Y598050D02*
G03*
X1043101Y598050I-7000J0D01*
G01*
X1030466Y623450D02*
G03*
X1030466Y623450I-7000J0D01*
G01*
X1061134Y598050D02*
G03*
X1057080Y604400I-7000J0D01*
G01*
X1051188D02*
G03*
X1061134Y598050I2946J-6350D01*
G01*
X1057080Y604400D02*
G03*
X1061134Y610750I-2946J6350D01*
G01*
D02*
G03*
X1051188Y604400I-7000J0D01*
G01*
X979470Y704300D02*
G03*
X979470Y704300I-13500J0D01*
G01*
X979470Y742400D02*
G03*
X979470Y742400I-13500J0D01*
G01*
X1100000Y753925D02*
G03*
X1100000Y730875I-7030J-11525D01*
G01*
X979470Y780500D02*
G03*
X979470Y780500I-13500J0D01*
G01*
X1100000Y792025D02*
G03*
X1100000Y768975I-7030J-11525D01*
G01*
Y830125D02*
G03*
X1100000Y807075I-7030J-11525D01*
G01*
X857200Y862800D02*
G03*
X857200Y862800I-7000J0D01*
G01*
X857650Y915800D02*
G03*
X857650Y915800I-7000J0D01*
G01*
X882850Y955966D02*
G03*
X882850Y955966I-7000J0D01*
G01*
X937579Y898212D02*
G03*
X937579Y898212I-20000J0D01*
G01*
D02*
G03*
X937579Y898212I-20000J0D01*
G01*
X870150Y973999D02*
G03*
X870150Y973999I-7000J0D01*
G01*
X882200Y989580D02*
G03*
X882200Y983688I-6350J-2946D01*
G01*
D02*
G03*
X895550Y986634I6350J2946D01*
G01*
D02*
G03*
X882200Y989580I-7000J0D01*
G01*
X979470Y856700D02*
G03*
X979470Y856700I-13500J0D01*
G01*
X979470Y894800D02*
G03*
X979470Y894800I-13500J0D01*
G01*
X1100000Y868225D02*
G03*
X1100000Y845175I-7030J-11525D01*
G01*
Y906325D02*
G03*
X1100000Y883275I-7030J-11525D01*
G01*
X967535Y1043519D02*
G03*
X967535Y1043519I-7000J0D01*
G01*
X990867Y1030819D02*
G03*
X990867Y1030819I-7000J0D01*
G01*
X1021535Y1018119D02*
G03*
X1021535Y1018119I-7000J0D01*
G01*
X1008900Y1043519D02*
G03*
X1008900Y1043519I-7000J0D01*
G01*
X302091Y1210200D02*
G03*
X302091Y1210200I-11500J0D01*
G01*
X327491Y1210200D02*
G03*
X327491Y1210200I-11500J0D01*
G01*
X352891Y1210200D02*
G03*
X352891Y1210200I-11500J0D01*
G01*
X378291D02*
G03*
X378291Y1210200I-11500J0D01*
G01*
X455800Y1210200D02*
G03*
X455800Y1210200I-7000J0D01*
G01*
X522621Y1210200D02*
G03*
X522621Y1210200I-11500J0D01*
G01*
X146770Y1280766D02*
G03*
X146770Y1280766I-11500J0D01*
G01*
X299170Y1280766D02*
G03*
X299170Y1280766I-11500J0D01*
G01*
X389770Y1280766D02*
G03*
X389770Y1280766I-11500J0D01*
G01*
X222970Y1356966D02*
G03*
X222970Y1356966I-11500J0D01*
G01*
X205400Y1372200D02*
G03*
X205400Y1372200I-7000J0D01*
G01*
X243500Y1396400D02*
G03*
X243500Y1396400I-7000J0D01*
G01*
X252100Y1447166D02*
G03*
X252100Y1447166I-7000J0D01*
G01*
X277300Y1410600D02*
G03*
X277300Y1410600I-7000J0D01*
G01*
X465970Y1356966D02*
G03*
X465970Y1356966I-11500J0D01*
G01*
X542170Y1280766D02*
G03*
X542170Y1280766I-11500J0D01*
G01*
X448400Y1372200D02*
G03*
X448400Y1372200I-7000J0D01*
G01*
X486500Y1396400D02*
G03*
X486500Y1396400I-7000J0D01*
G01*
X520300Y1410600D02*
G03*
X520300Y1410600I-7000J0D01*
G01*
X495100Y1447166D02*
G03*
X495100Y1447166I-7000J0D01*
G01*
X598821Y1210200D02*
G03*
X598821Y1210200I-11500J0D01*
G01*
X548021Y1210200D02*
G03*
X548021Y1210200I-11500J0D01*
G01*
X573421D02*
G03*
X573421Y1210200I-11500J0D01*
G01*
X744151D02*
G03*
X744151Y1210200I-12500J0D01*
G01*
X819351Y1210200D02*
G03*
X819351Y1210200I-11500J0D01*
G01*
X768551Y1210200D02*
G03*
X768551Y1210200I-11500J0D01*
G01*
X793951Y1210200D02*
G03*
X793951Y1210200I-11500J0D01*
G01*
X631970Y1280766D02*
G03*
X631970Y1280766I-11500J0D01*
G01*
X708170Y1356966D02*
G03*
X708170Y1356966I-11500J0D01*
G01*
X690600Y1372200D02*
G03*
X690600Y1372200I-7000J0D01*
G01*
X728700Y1396400D02*
G03*
X728700Y1396400I-7000J0D01*
G01*
X762500Y1410600D02*
G03*
X762500Y1410600I-7000J0D01*
G01*
X581700Y1447166D02*
G03*
X581700Y1447166I-7000J0D01*
G01*
X737300D02*
G03*
X737300Y1447166I-7000J0D01*
G01*
X784370Y1280766D02*
G03*
X784370Y1280766I-11500J0D01*
G01*
X925436Y1345500D02*
G03*
X925436Y1345500I-7000J0D01*
G01*
X980216D02*
G03*
X980216Y1345500I-7000J0D01*
G01*
X952300Y1364463D02*
G03*
X952300Y1364463I-7000J0D01*
G01*
X925436Y1382900D02*
G03*
X925436Y1382900I-7000J0D01*
G01*
X980216D02*
G03*
X980216Y1382900I-7000J0D01*
G01*
X782451Y1210200D02*
X782451Y1210200D01*
X782451Y1100700D02*
Y1106649D01*
Y1100700D02*
X782451Y1100700D01*
X807851Y1100700D02*
X812100Y1104200D01*
X757051Y1100700D02*
Y1101149D01*
Y1100700D02*
X757051Y1100700D01*
X731651Y1100700D02*
X731651Y1100700D01*
X587321Y1100700D02*
X587321Y1100700D01*
X536521Y1100700D02*
X536521Y1100700D01*
X392191Y1210200D02*
X392191Y1210200D01*
X315991Y1100700D02*
X315991Y1100700D01*
X20000Y20000D02*
Y91793D01*
X24469Y20000D02*
Y94537D01*
X28198Y101699D02*
X80695D01*
X24469Y112623D02*
Y119937D01*
X36470Y20000D02*
Y222608D01*
X42470Y20000D02*
Y222608D01*
X24469Y138023D02*
Y145337D01*
X30470Y20000D02*
Y222608D01*
X66469Y20000D02*
Y222608D01*
X78469Y20000D02*
Y222608D01*
X72469Y20000D02*
Y222608D01*
X48469Y20000D02*
Y222608D01*
X60469Y20000D02*
Y222608D01*
X54469Y20000D02*
Y222608D01*
X84469Y20000D02*
Y94923D01*
X27642Y107699D02*
X81303D01*
X25543Y95699D02*
X83665D01*
X23178Y113699D02*
X86576D01*
X90469Y20000D02*
Y92188D01*
X96469Y20000D02*
Y92967D01*
X90469Y114972D02*
Y117588D01*
X102469Y20000D02*
Y98735D01*
X96469Y114193D02*
Y118367D01*
X24214Y119699D02*
X85249D01*
X28041Y131699D02*
X80866D01*
X27902Y125699D02*
X81018D01*
X24797Y137699D02*
X84542D01*
X84469Y112237D02*
Y120323D01*
X96469Y139593D02*
Y143767D01*
X84469Y137637D02*
Y145723D01*
X90469Y140372D02*
Y142988D01*
X96303Y143699D02*
X304216D01*
X28270Y155699D02*
X80616D01*
X27431Y149699D02*
X81536D01*
X24469Y163423D02*
Y170737D01*
X28340Y179699D02*
X80540D01*
X26850Y185699D02*
X82180D01*
X20000Y192680D02*
X22090D01*
X28340Y198930D01*
X20000Y217680D02*
Y222608D01*
Y217680D02*
X22090D01*
X24469Y188823D02*
Y195060D01*
X28340Y203699D02*
X80636D01*
X28340Y198930D02*
Y211430D01*
X24469Y215301D02*
Y222608D01*
X28340Y209699D02*
X81465D01*
X22090Y217680D02*
X28340Y211430D01*
X25973Y161699D02*
X83170D01*
X22334Y143699D02*
X87777D01*
X26761Y173699D02*
X82279D01*
X84469Y163037D02*
Y171124D01*
X96469Y164993D02*
Y169167D01*
X102469Y159226D02*
Y174935D01*
X90469Y165772D02*
Y168388D01*
Y191172D02*
Y193788D01*
X96469Y190393D02*
Y194567D01*
X27109Y197699D02*
X83306D01*
X24071Y215699D02*
X87393D01*
X20000Y221699D02*
X268412D01*
X20000Y222608D02*
X128892D01*
X84469Y213837D02*
Y222608D01*
Y188437D02*
Y196523D01*
X102469Y184625D02*
Y200334D01*
X90469Y216572D02*
Y222608D01*
X96687Y215699D02*
X266722D01*
X96469Y215793D02*
Y222608D01*
X108469Y20000D02*
Y222608D01*
X114469Y20000D02*
Y222608D01*
X102469Y210026D02*
Y222608D01*
Y108426D02*
Y124135D01*
Y133826D02*
Y149535D01*
X120469Y20000D02*
Y222608D01*
X126469Y20000D02*
Y222608D01*
X270469Y20000D02*
Y210739D01*
X276469Y20000D02*
Y210615D01*
X144469Y20000D02*
Y238185D01*
X150469Y20000D02*
Y244185D01*
X132469Y20000D02*
Y226185D01*
X138469Y20000D02*
Y232185D01*
X128892Y222608D02*
X175800Y269516D01*
X174469Y20000D02*
Y268185D01*
X198469Y20000D02*
Y272629D01*
X192469Y20000D02*
Y273743D01*
X156469Y20000D02*
Y250185D01*
X162469Y20000D02*
Y256185D01*
X168469Y20000D02*
Y262185D01*
X300469Y20000D02*
Y213458D01*
X102544Y149699D02*
X301137D01*
X278788Y221699D02*
X294728D01*
X103464Y155699D02*
X304883D01*
X280478Y215699D02*
X296383D01*
X306469Y20000D02*
Y142701D01*
X312469Y20000D02*
Y144004D01*
X306469Y156299D02*
Y215337D01*
X312469Y154996D02*
Y220690D01*
X308472Y221699D02*
X310928D01*
X133983Y227699D02*
X308535D01*
X139983Y233699D02*
X313470D01*
X151983Y245699D02*
X281558D01*
X145983Y239699D02*
X282522D01*
X282469Y20000D02*
Y239776D01*
X288469Y20000D02*
Y236703D01*
X294469Y20000D02*
Y240456D01*
X282469Y247624D02*
Y259776D01*
X294469Y246944D02*
Y260456D01*
X124600Y285200D02*
X134690Y275110D01*
X134101Y275699D02*
X148999D01*
X124600Y287699D02*
X128362D01*
X132469Y277331D02*
Y279561D01*
X128101Y281699D02*
X130449D01*
X144469Y275110D02*
Y278267D01*
X134690Y275110D02*
X148410Y275110D01*
X138469Y275110D02*
Y277125D01*
X148492Y281699D02*
X154999D01*
X150469Y277169D02*
Y286563D01*
X124600Y293699D02*
X129805D01*
X124600Y311699D02*
X128514D01*
X124600Y299699D02*
X153805D01*
X124600Y305699D02*
X131646D01*
X132469Y296839D02*
Y304961D01*
X156469Y283169D02*
Y293515D01*
X149136Y293699D02*
X156313D01*
X138469Y299275D02*
Y302525D01*
X144469Y298133D02*
Y303667D01*
X147295Y305699D02*
X154888D01*
X169983Y263699D02*
X281266D01*
X163983Y257699D02*
X284662D01*
X175800Y277449D02*
Y280900D01*
X175800Y269699D02*
X284659D01*
X288469Y250697D02*
Y256703D01*
X175800Y269516D02*
Y273351D01*
X175986Y275699D02*
X190666D01*
X148410Y275110D02*
X159500Y286200D01*
X162222D01*
X162469Y286258D02*
Y289942D01*
X150427Y311699D02*
X162664D01*
X170500Y286200D02*
X175800Y280900D01*
X175001Y281699D02*
X190015D01*
X168469Y286200D02*
Y290278D01*
X167519Y286200D02*
X170500D01*
X174469Y282231D02*
Y295186D01*
X124600Y317699D02*
X129133D01*
X124600Y323699D02*
X134816D01*
X124600Y341699D02*
X128683D01*
X124600Y329699D02*
X133376D01*
X124600Y335699D02*
X128852D01*
X132469Y347639D02*
Y355761D01*
Y322239D02*
Y330361D01*
X124600Y359699D02*
X129393D01*
X124600Y347699D02*
X132543D01*
X124600Y353699D02*
X136447D01*
X120469Y410131D02*
Y669400D01*
X112700Y417900D02*
X124600Y406000D01*
X84469Y417900D02*
Y782131D01*
X114469Y416131D02*
Y669400D01*
X90469Y417900D02*
Y776131D01*
X124600Y285200D02*
Y406000D01*
Y365699D02*
X128427D01*
X126469Y283331D02*
Y669400D01*
X124600Y371699D02*
X131081D01*
X138469Y375475D02*
Y669400D01*
X132469Y373039D02*
Y669400D01*
X144469Y323533D02*
Y329067D01*
X138469Y324675D02*
Y327925D01*
X144125Y323699D02*
X154035D01*
X145565Y329699D02*
X154315D01*
X150469Y289837D02*
Y311963D01*
X149807Y317699D02*
X157702D01*
X146397Y347699D02*
X154457D01*
X150089Y335699D02*
X159089D01*
X150258Y341699D02*
X159809D01*
X124600Y395699D02*
X174235D01*
X124600Y401699D02*
X174870D01*
X122901Y407699D02*
X312937D01*
X116901Y413699D02*
X306978D01*
X138469Y350075D02*
Y353325D01*
X144469Y348933D02*
Y354467D01*
Y374333D02*
Y434209D01*
X142493Y353699D02*
X153950D01*
X149548Y359699D02*
X157250D01*
X20000Y417900D02*
Y432239D01*
Y455362D02*
Y469185D01*
Y467699D02*
X24042D01*
X24469Y417900D02*
Y430534D01*
X30470Y417900D02*
Y430762D01*
X24469Y457066D02*
Y467617D01*
X36470Y417900D02*
Y434208D01*
X30470Y456839D02*
Y467829D01*
X54469Y417900D02*
Y790200D01*
X66469Y417900D02*
Y790200D01*
X60469Y417900D02*
Y790200D01*
X36470Y453392D02*
Y470945D01*
X48469Y417900D02*
Y790200D01*
X42470Y417900D02*
Y790200D01*
X20000Y417900D02*
X112700Y417900D01*
X20000Y419699D02*
X306000D01*
X32954Y431699D02*
X147986D01*
X20000Y425699D02*
X306000D01*
X20000Y461699D02*
X275443D01*
X39013Y437699D02*
X141927D01*
X40470Y443699D02*
X140470D01*
X39113Y449699D02*
X141827D01*
X33348Y455699D02*
X147593D01*
X72469Y417900D02*
Y790200D01*
X29897Y467699D02*
X274175D01*
X41302Y479699D02*
X140651D01*
X38927Y473699D02*
X143247D01*
X40963Y485699D02*
X141015D01*
X78469Y417900D02*
Y788131D01*
X102469Y417900D02*
Y675131D01*
X96469Y417900D02*
Y681131D01*
X108469Y417900D02*
Y669400D01*
X144469Y453391D02*
Y472309D01*
X156469Y308085D02*
Y318915D01*
X150469Y315237D02*
Y337363D01*
X162469Y337058D02*
Y340742D01*
X174469Y306414D02*
Y320586D01*
X204469Y20000D02*
Y341456D01*
X162469Y311658D02*
Y315342D01*
X168469Y311322D02*
Y315679D01*
Y336721D02*
Y341078D01*
X156469Y333485D02*
Y344315D01*
X174469Y331814D02*
Y345986D01*
X150469Y340637D02*
Y362763D01*
X169932Y341699D02*
X199258D01*
X180469Y20000D02*
Y391044D01*
X186469Y20000D02*
Y393881D01*
X192469Y285016D02*
Y669400D01*
X175284Y347699D02*
X195176D01*
X198469Y286131D02*
Y342122D01*
X175791Y353699D02*
X198010D01*
X276469Y223385D02*
Y460635D01*
X282469Y267624D02*
Y342687D01*
X209156Y347699D02*
X278550D01*
X300469Y227274D02*
Y449633D01*
X306469Y225395D02*
Y414500D01*
X288469Y270697D02*
Y342732D01*
X312469Y233310D02*
Y408167D01*
X294469Y266944D02*
Y455633D01*
X228469Y20000D02*
Y669400D01*
X234469Y20000D02*
Y669400D01*
X210469Y20000D02*
Y669400D01*
X222469Y20000D02*
Y669400D01*
X216469Y20000D02*
Y669400D01*
X240469Y20000D02*
Y669400D01*
X252469Y20000D02*
Y482394D01*
X246469Y20000D02*
Y669400D01*
X258469Y20000D02*
Y478018D01*
X264469Y20000D02*
Y480674D01*
X270469Y223261D02*
Y669400D01*
X156469Y358885D02*
Y430533D01*
X162469Y362458D02*
Y433311D01*
X150469Y366037D02*
Y430762D01*
X156469Y457066D02*
Y468633D01*
X150469Y456838D02*
Y468862D01*
X174469Y357214D02*
Y395120D01*
X162469Y454289D02*
Y471411D01*
X164693Y473699D02*
X274202D01*
X167289Y479699D02*
X254395D01*
X168469Y362122D02*
Y669400D01*
X174469Y400948D02*
Y669400D01*
X180469Y405024D02*
Y669400D01*
X166925Y485699D02*
X252001D01*
X186469Y402187D02*
Y669400D01*
X198469Y354010D02*
Y669400D01*
X204469Y354676D02*
Y669400D01*
X252469Y487606D02*
Y539594D01*
X263537Y479699D02*
X275365D01*
X265931Y485699D02*
X274001D01*
X166013Y437699D02*
X306000D01*
X159954Y431699D02*
X306000D01*
X160347Y455699D02*
X294403D01*
X167470Y443699D02*
X306000D01*
X166113Y449699D02*
X300403D01*
X206322Y353699D02*
X280202D01*
X282469Y355381D02*
Y459163D01*
X288469Y355336D02*
Y461633D01*
X306000Y416500D02*
Y444102D01*
X287229Y462873D02*
X306000Y444102D01*
X300469Y462361D02*
Y478650D01*
X312469Y450361D02*
Y478650D01*
X306469Y456361D02*
Y478650D01*
X288469Y474361D02*
Y478650D01*
X294469Y468361D02*
Y478650D01*
X300469Y487650D02*
Y528200D01*
X20000Y41700D02*
X555100D01*
X20000Y35700D02*
X558451D01*
X20000Y47699D02*
X555100D01*
X20000Y53699D02*
X557249D01*
X20000Y83699D02*
X558183D01*
X372469Y20000D02*
Y188592D01*
X20000Y89699D02*
X556116D01*
X100415Y95699D02*
X557446D01*
X103385Y101699D02*
X566081D01*
X318469Y20000D02*
Y220661D01*
X330469Y20000D02*
Y213458D01*
X336469Y20000D02*
Y215337D01*
X20000Y191699D02*
X367722D01*
X100774Y197699D02*
X366954D01*
X348469Y20000D02*
Y261855D01*
X360469Y20000D02*
Y251801D01*
X354469Y20000D02*
Y257801D01*
X366469Y20000D02*
Y248300D01*
X378469Y20000D02*
Y190471D01*
X20000Y23700D02*
X1100000D01*
X20000Y20000D02*
X1100000D01*
X20000Y65699D02*
X1100000D01*
X20000Y29699D02*
X1100000D01*
X20000Y59699D02*
X1100000D01*
X20000Y77699D02*
X1100000D01*
X20000Y71699D02*
X1100000D01*
X98831Y119699D02*
X1100000D01*
X102777Y107699D02*
X1100000D01*
X97503Y113699D02*
X1100000D01*
X100910Y161699D02*
X1100000D01*
X99538Y137699D02*
X1100000D01*
X101900Y185699D02*
X1100000D01*
X20000Y167699D02*
X1100000D01*
X101801Y173699D02*
X1100000D01*
X103214Y131699D02*
X1085029D01*
X103062Y125699D02*
X1085124D01*
X312052Y143699D02*
X1100000D01*
X103540Y179699D02*
X1100000D01*
X315131Y149699D02*
X1100000D01*
X311385Y155699D02*
X1100000D01*
X306817Y215699D02*
X326383D01*
X320072Y221699D02*
X324728D01*
X157983Y251699D02*
X360571D01*
X291870Y257699D02*
X354571D01*
X372469Y202408D02*
Y248300D01*
X378469Y200529D02*
Y248300D01*
X295266Y263699D02*
X345036D01*
X291873Y269699D02*
X343006D01*
X350055Y275699D02*
X366928D01*
X202574D02*
X349813D01*
X350544Y261727D02*
X362652Y249618D01*
X356908Y268091D02*
X367698Y257300D01*
X361299Y263699D02*
X367929D01*
X356862Y269699D02*
X368405D01*
X102615Y209699D02*
X1100000D01*
X103444Y203699D02*
X1100000D01*
X294010Y239699D02*
X544338D01*
X317530Y233699D02*
X546691D01*
X294974Y245699D02*
X549381D01*
X338472Y221699D02*
X1100000D01*
X336817Y215699D02*
X1100000D01*
X367698Y257300D02*
X441236D01*
X322465Y227699D02*
X1100000D01*
X365834Y248300D02*
X443100D01*
X173428Y293699D02*
X412324D01*
X150579Y287699D02*
X418093D01*
X167077Y311699D02*
X412451D01*
X172039Y317699D02*
X430400D01*
X170652Y335699D02*
X430400D01*
X175936Y299699D02*
X414470D01*
X367299Y257699D02*
X441635D01*
X203225Y281699D02*
X423031D01*
X174853Y305699D02*
X413823D01*
X175705Y323699D02*
X430400D01*
X175426Y329699D02*
X430400D01*
X384469Y20000D02*
Y248300D01*
X390469Y20000D02*
Y248300D01*
X396469Y20000D02*
Y248300D01*
X380128Y260700D02*
X407800D01*
X402469Y257300D02*
Y260700D01*
X420469Y20000D02*
Y248300D01*
X426469Y20000D02*
Y248300D01*
X402469Y20000D02*
Y248300D01*
X414469Y20000D02*
Y248300D01*
X408469Y20000D02*
Y248300D01*
X384469Y257300D02*
Y260700D01*
X390469Y257300D02*
Y260700D01*
X396469Y257300D02*
Y260700D01*
X405936Y269700D02*
X412918Y276682D01*
X408469Y257300D02*
Y260750D01*
X414469Y257300D02*
Y265505D01*
X426469Y257300D02*
Y269000D01*
X420469Y257300D02*
Y269000D01*
X410982Y262018D02*
X417964Y269000D01*
X432469Y20000D02*
Y248300D01*
X438469Y20000D02*
Y248300D01*
X379478Y191699D02*
X1100000D01*
X380246Y197699D02*
X1100000D01*
X444469Y20000D02*
Y248513D01*
X450469Y20000D02*
Y253805D01*
X448363Y251699D02*
X614250D01*
X454363Y257699D02*
X609981D01*
X432469Y257300D02*
Y269000D01*
X438469Y257300D02*
Y269000D01*
X417964D02*
X442400D01*
X412663Y263699D02*
X447635D01*
X441236Y257300D02*
X457969Y274032D01*
X444469Y260533D02*
Y269504D01*
X446282Y249618D02*
X463014Y266350D01*
X450469Y266533D02*
Y275205D01*
X444809Y269699D02*
X453635D01*
X380128Y269700D02*
X405936D01*
X380604Y275699D02*
X411935D01*
X414469Y277694D02*
Y289502D01*
X420469Y278000D02*
Y287704D01*
X420439Y287699D02*
X422458D01*
X414469Y299698D02*
Y305002D01*
X419875Y301573D02*
X421928Y303626D01*
X426469Y291813D02*
Y295439D01*
X432469Y291399D02*
Y301439D01*
X426240Y295210D02*
X438082Y307052D01*
X426081Y311699D02*
X430001D01*
X425740Y307438D02*
X430400Y312098D01*
X416100Y278000D02*
X440536D01*
X449268Y286733D01*
X435037Y281699D02*
X444235D01*
X435610Y287699D02*
X450707D01*
X426208Y293699D02*
X533116D01*
X445582Y270318D02*
X454314Y279051D01*
X450963Y275699D02*
X582422D01*
X454314Y279051D02*
X534272D01*
X452450Y288050D02*
X534272D01*
X438469Y278000D02*
Y307493D01*
X430729Y299699D02*
X533542D01*
X436729Y305699D02*
X552500D01*
X439400Y323699D02*
X552500D01*
X439400Y311699D02*
X552500D01*
X439400Y317699D02*
X552500D01*
X439400Y341699D02*
X552500D01*
X439400Y329699D02*
X552500D01*
X439400Y335699D02*
X552500D01*
X318469Y233339D02*
Y402167D01*
X324469Y20000D02*
Y396167D01*
X186798Y401699D02*
X318937D01*
X187433Y395699D02*
X324937D01*
X336469Y225395D02*
Y393000D01*
X342469Y20000D02*
Y393000D01*
X348469Y275545D02*
Y393000D01*
X330469Y227274D02*
Y393000D01*
X307318Y413318D02*
X326318Y394318D01*
X315000Y418364D02*
X331364Y402000D01*
X318469Y414895D02*
Y430809D01*
X319665Y413699D02*
X347767D01*
X324469Y408895D02*
Y430495D01*
X336469Y402000D02*
Y478650D01*
X342469Y402000D02*
Y478650D01*
X330469Y402895D02*
Y478650D01*
X325665Y407699D02*
X346401D01*
X147860Y371699D02*
X430400D01*
X150514Y365699D02*
X430400D01*
X124600Y389699D02*
X430400D01*
X124600Y377699D02*
X430400D01*
X124600Y383699D02*
X430400D01*
X366469Y258529D02*
Y393000D01*
X205075Y341699D02*
X430400D01*
X172490Y359699D02*
X430400D01*
X292293Y347699D02*
X430400D01*
X290641Y353699D02*
X430400D01*
X354469Y274032D02*
Y393000D01*
X329500D02*
X384000D01*
X331364Y402000D02*
X350530D01*
X356202D02*
X382136D01*
X360469Y264529D02*
Y393000D01*
X360331Y407699D02*
X387835D01*
X360469Y402000D02*
Y442139D01*
X358965Y413699D02*
X393835D01*
X315000Y418364D02*
Y435305D01*
Y419699D02*
X346601D01*
X315000Y431699D02*
X317190D01*
X315000Y425699D02*
X346576D01*
X315000Y443699D02*
X319884D01*
X326410Y431699D02*
X347841D01*
X328761Y437699D02*
X348866D01*
Y432762D02*
Y441400D01*
X315000Y438627D02*
Y445966D01*
X287939Y474891D02*
X313682Y449148D01*
X318469Y443123D02*
Y478650D01*
X348469Y432402D02*
Y478650D01*
X318469Y487650D02*
Y528200D01*
X323716Y443699D02*
X349497D01*
X324469Y443437D02*
Y478650D01*
X357866Y437699D02*
X417835D01*
X357866Y432762D02*
Y439536D01*
X360131Y419699D02*
X399835D01*
X360156Y425699D02*
X405835D01*
X358891Y431699D02*
X411835D01*
X362029Y443699D02*
X423835D01*
X301131Y461699D02*
X367301D01*
X295131Y467699D02*
X373301D01*
X289131Y473699D02*
X379301D01*
X287217Y478650D02*
X384252D01*
X287445Y487650D02*
X390609D01*
X354469Y448867D02*
Y478650D01*
X357866Y439536D02*
X390903Y472573D01*
X350184Y444582D02*
X384252Y478650D01*
X313131Y449699D02*
X355301D01*
X307131Y455699D02*
X361301D01*
X360469Y454867D02*
Y478650D01*
X378469Y279385D02*
Y393000D01*
X384469Y269700D02*
Y393024D01*
X372469Y281079D02*
Y393000D01*
X390469Y269700D02*
Y397605D01*
X396469Y269700D02*
Y403605D01*
X394563Y401699D02*
X430400D01*
X388563Y395699D02*
X430400D01*
Y312098D02*
Y404300D01*
X366469Y402000D02*
Y448139D01*
X372469Y402000D02*
Y454139D01*
X378469Y402000D02*
Y460139D01*
X390469Y410333D02*
Y464164D01*
X384469Y404333D02*
Y466139D01*
X402469Y269700D02*
Y409605D01*
X408469Y272233D02*
Y415605D01*
X426469Y308167D02*
Y433605D01*
X414469Y315198D02*
Y421605D01*
X420469Y316996D02*
Y427605D01*
X439400Y377699D02*
X469621D01*
X439400Y383699D02*
X469624D01*
X439400Y395699D02*
X464532D01*
X439400Y389699D02*
X464912D01*
X439400Y401699D02*
X467839D01*
X439400Y353699D02*
X552500D01*
X439400Y347699D02*
X552500D01*
X439400Y365699D02*
X464533D01*
X439400Y359699D02*
X467841D01*
X439400Y371699D02*
X464911D01*
X382136Y402000D02*
X466518Y486382D01*
X387182Y394318D02*
X471564Y478700D01*
X400563Y407699D02*
X431935D01*
X431718Y407482D02*
X494618Y470382D01*
X439400Y310234D02*
Y402436D01*
X444469Y281933D02*
Y407505D01*
X450469Y287591D02*
Y413505D01*
X432469Y408233D02*
Y439605D01*
X444663Y407699D02*
X470054D01*
X439400Y402436D02*
X499664Y462700D01*
X368029Y449699D02*
X429835D01*
X366469Y460867D02*
Y478650D01*
X380029Y461699D02*
X391805D01*
X386029Y467699D02*
X390328D01*
X396469Y416333D02*
Y459235D01*
X402469Y422333D02*
Y461630D01*
X390469Y468237D02*
Y472139D01*
X372469Y466867D02*
Y478650D01*
X378469Y472867D02*
Y478650D01*
X390469Y487650D02*
Y494700D01*
X408469Y428333D02*
Y494700D01*
X420469Y440333D02*
Y494700D01*
X414469Y434333D02*
Y494700D01*
X432469Y452333D02*
Y494700D01*
X426469Y446333D02*
Y494700D01*
X406563Y413699D02*
X437935D01*
X412563Y419699D02*
X443935D01*
X418563Y425699D02*
X449935D01*
X424563Y431699D02*
X455935D01*
X430563Y437699D02*
X461935D01*
X438469Y414233D02*
Y445605D01*
X450663Y413699D02*
X464388D01*
X444469Y420233D02*
Y451605D01*
X436563Y443699D02*
X467935D01*
X442563Y449699D02*
X473935D01*
X448563Y455699D02*
X479935D01*
X374029D02*
X435835D01*
X402527Y461699D02*
X441835D01*
X404004Y467699D02*
X447835D01*
X403874Y473699D02*
X453835D01*
X402912Y479699D02*
X459835D01*
X438469Y458333D02*
Y494700D01*
X450469Y426233D02*
Y457605D01*
X454563Y461699D02*
X485935D01*
X444469Y464333D02*
Y494700D01*
X404148Y485699D02*
X465835D01*
X450469Y470333D02*
Y494700D01*
X20000Y494615D02*
Y508438D01*
X24469Y496183D02*
Y506734D01*
Y533266D02*
Y543817D01*
X30470Y495971D02*
Y506961D01*
X36470Y492855D02*
Y510408D01*
X40363Y521698D02*
X140577D01*
X39766Y515699D02*
X141174D01*
X38060Y527699D02*
X142880D01*
X20000Y531562D02*
Y545385D01*
X30470Y533038D02*
Y544029D01*
X36470Y529592D02*
Y547145D01*
X41464Y557698D02*
X140476D01*
X39980Y551698D02*
X142084D01*
X40346Y563698D02*
X141685D01*
X144469Y491491D02*
Y510409D01*
X37658Y491699D02*
X144684D01*
X35695Y509698D02*
X145245D01*
X20000Y497699D02*
X359244D01*
X150469Y494938D02*
Y506962D01*
X162469Y492389D02*
Y509511D01*
X163256Y491699D02*
X256934D01*
X156469Y495167D02*
Y506734D01*
X166766Y515699D02*
X362928D01*
X165060Y527699D02*
X275603D01*
X20000Y533699D02*
X274037D01*
X34483Y545699D02*
X148636D01*
X20000Y539698D02*
X252428D01*
X144469Y529591D02*
Y548509D01*
X150469Y533038D02*
Y545062D01*
X162469Y530489D02*
Y547611D01*
X156469Y533267D02*
Y544833D01*
X159304Y545699D02*
X252903D01*
X165856Y551698D02*
X358605D01*
X20000Y570815D02*
Y584638D01*
X24469Y572383D02*
Y582934D01*
X30470Y609239D02*
Y619800D01*
Y572171D02*
Y583162D01*
X36470Y569055D02*
Y586608D01*
X40236Y593698D02*
X140704D01*
X37457Y587698D02*
X143483D01*
X40009Y599698D02*
X140931D01*
X20000Y607761D02*
Y619800D01*
X24469Y609466D02*
Y619800D01*
X20000D02*
X34220D01*
X36470Y605792D02*
Y622050D01*
X34220Y619800D02*
X41470Y627050D01*
Y641550D01*
Y635698D02*
X140543D01*
X41470Y629698D02*
X141278D01*
X41322Y641698D02*
X142678D01*
X144469Y567691D02*
Y586609D01*
X35672Y569698D02*
X147062D01*
X150469Y571138D02*
Y583162D01*
X20000Y575698D02*
X275273D01*
X20000Y581698D02*
X274307D01*
X156469Y571367D02*
Y582933D01*
X162469Y568589D02*
Y585711D01*
X167009Y599698D02*
X252087D01*
X164457Y587698D02*
X274179D01*
X167236Y593698D02*
X254119D01*
X36563Y605698D02*
X144377D01*
X144469Y605791D02*
Y624709D01*
X20000Y611698D02*
X359441D01*
X38118Y623698D02*
X145612D01*
X150469Y609238D02*
Y621262D01*
X163563Y605698D02*
X258863D01*
X162469Y606689D02*
Y623811D01*
X156469Y609467D02*
Y621033D01*
X166661Y629698D02*
X362588D01*
X165262Y641698D02*
X275777D01*
X276469Y490364D02*
Y517836D01*
X260998Y491699D02*
X278934D01*
X167363Y521698D02*
X274129D01*
X282469Y491837D02*
Y516363D01*
X306469Y487650D02*
Y528200D01*
X312469Y487650D02*
Y528200D01*
X294469Y487650D02*
Y528200D01*
X288469Y487650D02*
Y528200D01*
X258469Y491982D02*
Y535218D01*
X264469Y489326D02*
Y537874D01*
X252469Y544806D02*
Y596223D01*
X265504Y539698D02*
X274428D01*
X288469Y544830D02*
Y584700D01*
X294469Y544830D02*
Y584700D01*
X306469Y544830D02*
Y584700D01*
X300469Y544830D02*
Y584700D01*
X324469Y487650D02*
Y528200D01*
X330469Y487650D02*
Y528200D01*
X286329Y527699D02*
X350928D01*
X282998Y491699D02*
X359308D01*
X287803Y521698D02*
X356927D01*
X342469Y487650D02*
Y528200D01*
X348469Y487650D02*
Y528200D01*
X354469Y487650D02*
Y524157D01*
X360469Y487650D02*
Y490005D01*
Y499527D02*
Y518157D01*
X336469Y487650D02*
Y528200D01*
X286328D02*
X350426D01*
X312469Y544830D02*
Y584700D01*
X330469Y544830D02*
Y584700D01*
X318469Y544830D02*
Y584700D01*
X354469Y544830D02*
Y580887D01*
X360469Y530885D02*
Y535830D01*
Y544830D02*
Y547205D01*
X336469Y544830D02*
Y584700D01*
X348469Y544830D02*
Y584700D01*
X342469Y544830D02*
Y584700D01*
X264469Y546526D02*
Y594311D01*
X265029Y545699D02*
X274903D01*
X258469Y549182D02*
Y591721D01*
X263913Y593698D02*
X275653D01*
X265944Y599698D02*
X274088D01*
X276469Y547564D02*
Y574378D01*
X282469Y549037D02*
Y572852D01*
X167397Y635698D02*
X274088D01*
X259169Y605698D02*
X280863D01*
X288469Y601580D02*
Y642000D01*
X300469Y601580D02*
Y642000D01*
X294469Y601580D02*
Y642000D01*
X276469Y604022D02*
Y631636D01*
X282469Y605548D02*
Y630163D01*
X167464Y557698D02*
X361582D01*
X287029Y545699D02*
X362483D01*
X286378Y584700D02*
X350656D01*
X286759Y575698D02*
X359658D01*
X281169Y605698D02*
X359220D01*
X324469Y544830D02*
Y584700D01*
X360469Y556727D02*
Y574887D01*
X287725Y581698D02*
X353658D01*
X360469Y587615D02*
Y592580D01*
Y601580D02*
Y603759D01*
X312469Y601580D02*
Y642000D01*
X318469Y601580D02*
Y642000D01*
X286328D02*
X350286D01*
X287844Y635698D02*
X356588D01*
X286155Y641698D02*
X350588D01*
X324469Y601580D02*
Y642000D01*
X336469Y601580D02*
Y642000D01*
X330469Y601580D02*
Y642000D01*
X342469Y601580D02*
Y642000D01*
X360469Y613173D02*
Y631817D01*
X354469Y601580D02*
Y637817D01*
X24469Y648800D02*
Y690017D01*
X20000Y648800D02*
Y691585D01*
Y648800D02*
X34220D01*
X20000Y689698D02*
X91700D01*
X36470Y646551D02*
Y693345D01*
X34220Y648800D02*
X41470Y641550D01*
X30470Y648800D02*
Y690229D01*
X38643Y695698D02*
X91700D01*
X41235Y701698D02*
X91700D01*
X20000Y717015D02*
Y730838D01*
X24469Y718583D02*
Y729134D01*
X41066Y707698D02*
X91700D01*
X30470Y718371D02*
Y729361D01*
X38012Y713698D02*
X91700D01*
X36470Y715255D02*
Y732808D01*
X35322Y647698D02*
X152316D01*
X20000Y653698D02*
X252355D01*
X20000Y659698D02*
X253023D01*
X20000Y665698D02*
X358600D01*
X252469Y601177D02*
Y653394D01*
X258469Y605679D02*
Y649018D01*
X252469Y658606D02*
Y669400D01*
X155624Y647698D02*
X274069D01*
X20000Y677698D02*
X99902D01*
X20000Y671698D02*
X105902D01*
X20000Y719698D02*
X91700D01*
X20000Y683698D02*
X93902D01*
X91700Y685900D02*
X91700Y774900D01*
X144469Y643891D02*
Y669400D01*
X162469Y644789D02*
Y669400D01*
X150469Y647338D02*
Y669400D01*
X91700Y685900D02*
X108200Y669400D01*
X156469Y647567D02*
Y669400D01*
X108200Y669400D02*
X351200Y669400D01*
X20000Y725698D02*
X91700D01*
X24469Y755666D02*
Y767234D01*
X20000Y755698D02*
X24644D01*
X39625Y737698D02*
X91700D01*
X35199Y731698D02*
X91700D01*
X40407Y743698D02*
X91700D01*
X38327Y749698D02*
X91700D01*
X29296Y755698D02*
X91700D01*
X20000Y753961D02*
Y768939D01*
X30470Y755439D02*
Y767461D01*
X20000Y767698D02*
X22685D01*
X36470Y751992D02*
Y770908D01*
X38631Y773698D02*
X91700D01*
X76400Y790200D02*
X91700Y774900D01*
X36360Y790200D02*
X76400Y790200D01*
X40446Y779698D02*
X86902D01*
X39429Y785698D02*
X80902D01*
X31255Y767698D02*
X91700D01*
X20000Y761698D02*
X91700D01*
X226670Y1079697D02*
X255896D01*
X226670Y1075230D02*
X319000Y982900D01*
X226670Y1091697D02*
X257748D01*
X234203Y1067697D02*
X271338D01*
X240203Y1061697D02*
X273691D01*
X226670Y1085697D02*
X253286D01*
X228203Y1073697D02*
X276380D01*
X226670Y1130000D02*
X226670Y1075230D01*
X226670Y1103697D02*
X279489D01*
X226670Y1115697D02*
X259426D01*
X226670Y1109697D02*
X264075D01*
X226670Y1121697D02*
X261943D01*
X240469Y1061431D02*
Y1130000D01*
X252469Y1049431D02*
Y1130000D01*
X246469Y1055431D02*
Y1130000D01*
X228469Y1073431D02*
Y1130000D01*
X226670Y1097697D02*
X279490D01*
X234469Y1067431D02*
Y1130000D01*
X264469Y603089D02*
Y651674D01*
Y660326D02*
Y669400D01*
X265577Y653698D02*
X274355D01*
X264909Y659698D02*
X275023D01*
X306469Y601580D02*
Y642000D01*
X276469Y661364D02*
Y669400D01*
X288469Y658730D02*
Y669400D01*
X282469Y662837D02*
Y669400D01*
X294469Y658730D02*
Y669400D01*
X300469Y658730D02*
Y669400D01*
X258469Y662982D02*
Y669400D01*
X288469Y1013431D02*
Y1089398D01*
X294469Y1007431D02*
Y1089874D01*
X306469Y658730D02*
Y669400D01*
X318469Y658730D02*
Y669400D01*
X312469Y658730D02*
Y669400D01*
X300469Y1001431D02*
Y1094811D01*
X312469Y989431D02*
Y1089753D01*
X306469Y995431D02*
Y1094252D01*
X336469Y658730D02*
Y669400D01*
X342469Y658730D02*
Y669400D01*
X324469Y658730D02*
Y669400D01*
X286909Y659698D02*
X362110D01*
X330469Y658730D02*
Y669400D01*
X348469Y601580D02*
Y642000D01*
X360469Y644545D02*
Y649730D01*
X348469Y658730D02*
Y669400D01*
X360469Y658730D02*
Y661005D01*
X353498Y671698D02*
X361884D01*
X330469Y982900D02*
Y1097101D01*
X336469Y981931D02*
Y1090307D01*
X318469Y983431D02*
Y1089470D01*
X319000Y982900D02*
X335500D01*
X324469D02*
Y1092930D01*
X354469Y658730D02*
Y672669D01*
X360469Y670527D02*
Y678669D01*
Y957931D02*
Y1091094D01*
X342469Y975931D02*
Y1089251D01*
X348469Y969931D02*
Y1091636D01*
X354469Y963931D02*
Y1130000D01*
X258469Y1043431D02*
Y1078401D01*
X264469Y1037431D02*
Y1079568D01*
Y1090764D02*
Y1109572D01*
X262784Y1091697D02*
X283436D01*
X268725Y1109697D02*
X283429D01*
X276469Y1025431D02*
Y1060210D01*
X282469Y1019431D02*
Y1061343D01*
Y1072589D02*
Y1092559D01*
X301694Y1103697D02*
X304889D01*
X258469Y1091931D02*
Y1130000D01*
X270469Y1031431D02*
Y1110604D01*
X264469Y1123028D02*
Y1130000D01*
X270469Y1121996D02*
Y1130000D01*
X276469Y1073722D02*
Y1130000D01*
X300469Y1106589D02*
Y1130000D01*
X282469Y1108841D02*
Y1130000D01*
X294469Y1111527D02*
Y1130000D01*
X288469Y1112002D02*
Y1130000D01*
X297747Y1091697D02*
X308836D01*
X323147D02*
X334236D01*
X301692Y1097697D02*
X304890D01*
X323154Y1109697D02*
X334229D01*
X297754D02*
X308829D01*
X327092Y1097697D02*
X330290D01*
X348547Y1091697D02*
X359636D01*
X352492Y1097697D02*
X355690D01*
X327094Y1103697D02*
X330289D01*
X352494D02*
X355689D01*
X348554Y1109697D02*
X359629D01*
X306469Y1107148D02*
Y1130000D01*
X312469Y1111647D02*
Y1130000D01*
X324469Y1108471D02*
Y1130000D01*
X318469Y1111930D02*
Y1130000D01*
X330469Y1104299D02*
Y1130000D01*
X348469Y1109764D02*
Y1130000D01*
X336469Y1111093D02*
Y1130000D01*
X360469Y1110306D02*
Y1130000D01*
X342469Y1112149D02*
Y1130000D01*
X350426Y528200D02*
X382608Y496018D01*
X366469Y501712D02*
Y512157D01*
X20000Y503699D02*
X374927D01*
X162695Y509698D02*
X368927D01*
X372469Y487650D02*
Y493417D01*
X378469Y487650D02*
Y500157D01*
X372469Y496115D02*
Y506157D01*
X371956Y497699D02*
X380928D01*
X372469Y518885D02*
Y535830D01*
X366469Y524885D02*
Y535830D01*
X372469Y544830D02*
Y550617D01*
X366469Y558912D02*
Y568887D01*
X350656Y584700D02*
X374018Y561338D01*
X378469Y544830D02*
Y560020D01*
X384469Y506885D02*
Y535830D01*
X378469Y512885D02*
Y535830D01*
X372469Y553315D02*
Y562887D01*
X371892Y491699D02*
X394564D01*
X381655Y509698D02*
X574136D01*
X369655Y521698D02*
X390376D01*
X375656Y515699D02*
X544258D01*
X363656Y527699D02*
X391641D01*
X384469Y487650D02*
Y494898D01*
X385790Y494700D02*
X573102D01*
X387654Y503700D02*
X573102D01*
X355524Y535830D02*
X387654Y503700D01*
X357655Y533699D02*
X390212D01*
X287453Y544830D02*
X390601D01*
X355524Y535830D02*
X390809D01*
X368717Y545699D02*
X390992D01*
X384469Y544830D02*
Y560020D01*
X377200D02*
X499936D01*
X372595Y551698D02*
X508258D01*
X369617Y557698D02*
X502258D01*
X166254Y563698D02*
X371658D01*
X355702Y592382D02*
X379064Y569020D01*
X287396Y601580D02*
X364392D01*
X160878Y569698D02*
X365658D01*
X372469Y575615D02*
Y592580D01*
X378469Y569615D02*
Y592580D01*
X366469Y581615D02*
Y592580D01*
X372469Y601580D02*
Y606884D01*
X366469Y615418D02*
Y625817D01*
X350286Y642000D02*
X374668Y617618D01*
X366469Y638545D02*
Y649730D01*
X20000Y617698D02*
X374588D01*
X162328Y623698D02*
X368588D01*
X372469Y610048D02*
Y619817D01*
X378469Y601580D02*
Y616300D01*
X372469Y632545D02*
Y649730D01*
X378469Y626545D02*
Y649730D01*
X360386Y587698D02*
X390426D01*
X366386Y581698D02*
X390451D01*
X366908Y601580D02*
X390749D01*
X355491Y592580D02*
X390980D01*
X371859Y611698D02*
X470108D01*
X384469Y569020D02*
Y592580D01*
X379064Y569020D02*
X501800D01*
X372386Y575698D02*
X391617D01*
X378386Y569698D02*
X512108D01*
X372080Y605698D02*
X395548D01*
X355332Y649682D02*
X379714Y625300D01*
X363316Y641698D02*
X391803D01*
X357316Y647698D02*
X390238D01*
X355283Y649730D02*
X390856D01*
X287412Y658730D02*
X390639D01*
X384469Y601580D02*
Y616300D01*
X377850D02*
X465506D01*
X379714Y625300D02*
X467370D01*
X384469D02*
Y649730D01*
X375316Y629698D02*
X560171D01*
X369316Y635698D02*
X390329D01*
X390469Y503700D02*
Y521363D01*
X396469Y492165D02*
Y494700D01*
X390469Y525437D02*
Y530863D01*
X396469Y503700D02*
Y516435D01*
X402469Y503700D02*
Y518830D01*
Y489770D02*
Y494700D01*
X390469Y544830D02*
Y560020D01*
Y569020D02*
Y578036D01*
X396469Y549365D02*
Y560020D01*
Y569020D02*
Y572940D01*
X408469Y503700D02*
Y560020D01*
X402469Y546970D02*
Y560020D01*
Y569020D02*
Y575273D01*
X408469Y569020D02*
Y616300D01*
X403956Y521698D02*
X538257D01*
X399768Y491699D02*
X635518D01*
X403340Y545699D02*
X514258D01*
X402691Y527699D02*
X532257D01*
X403624Y539698D02*
X520258D01*
X432469Y503700D02*
Y560020D01*
X438469Y503700D02*
Y560020D01*
X420469Y503700D02*
Y560020D01*
X404120Y533699D02*
X526258D01*
X426469Y503700D02*
Y560020D01*
X414469Y569020D02*
Y616300D01*
Y503700D02*
Y560020D01*
X420469Y569020D02*
Y616300D01*
X402815Y575698D02*
X506108D01*
X426469Y569020D02*
Y616300D01*
X432469Y569020D02*
Y616300D01*
X450469Y503700D02*
Y560020D01*
X444469Y503700D02*
Y560020D01*
X438469Y569020D02*
Y616300D01*
X450469Y569020D02*
Y616300D01*
X444469Y569020D02*
Y616300D01*
X390469Y581764D02*
Y587536D01*
Y601580D02*
Y616300D01*
X396469Y605860D02*
Y616300D01*
Y625300D02*
Y630235D01*
X402469Y603527D02*
Y616300D01*
X390469Y625300D02*
Y635164D01*
Y639236D02*
Y644663D01*
X402469Y625300D02*
Y632630D01*
X420469Y625300D02*
Y651700D01*
X408469Y625300D02*
Y651700D01*
X414469Y625300D02*
Y651700D01*
X404006Y587698D02*
X494108D01*
X403981Y581698D02*
X500108D01*
X404003Y635698D02*
X442008D01*
X402741Y593698D02*
X488108D01*
X398884Y605698D02*
X476108D01*
X444469Y625300D02*
Y633970D01*
X404170Y599698D02*
X482108D01*
X450469Y625300D02*
Y633767D01*
X445803D02*
X492073D01*
X426469Y625300D02*
Y651237D01*
X426006Y651700D02*
X442621Y635085D01*
X402528Y651700D02*
X426006D01*
X402529Y641698D02*
X436008D01*
X404094Y647698D02*
X430008D01*
X432469Y625300D02*
Y645237D01*
X438469Y625300D02*
Y639237D01*
X447667Y642767D02*
X492073D01*
X431052Y659382D02*
X447667Y642767D01*
X442736Y647698D02*
X490435D01*
X436736Y653698D02*
X491413D01*
X351200Y669400D02*
X368800Y687000D01*
X366469Y672712D02*
Y684669D01*
X365498Y683698D02*
X404939D01*
X368800Y689698D02*
X403097D01*
X368800Y701698D02*
X389739D01*
X369090Y659698D02*
X391103D01*
X368800Y707698D02*
X387897D01*
X368800Y743698D02*
X403693D01*
X368800Y749698D02*
X403658D01*
X368800Y767698D02*
X388459D01*
X368800Y761698D02*
X388493D01*
X368800Y773698D02*
X518791D01*
X368800Y791698D02*
X523943D01*
X368800Y797698D02*
X519552D01*
X368800Y687000D02*
Y949600D01*
Y803698D02*
X403959D01*
X372469Y667115D02*
Y1090699D01*
X368800Y827698D02*
X388248D01*
X368800Y809698D02*
X403448D01*
X368800Y821698D02*
X388759D01*
X368800Y695698D02*
X527683D01*
X359498Y677698D02*
X530502D01*
X368800Y725698D02*
X557421D01*
X368800Y713698D02*
X557421D01*
X368800Y719698D02*
X557421D01*
X369316Y671698D02*
X524501D01*
X368800Y731698D02*
X557421D01*
X368800Y779698D02*
X524542D01*
X368800Y737698D02*
X557421D01*
X368800Y755698D02*
X547136D01*
X368800Y863698D02*
X557421D01*
X368800Y857698D02*
X557421D01*
X368800Y881698D02*
X557421D01*
X368800Y869698D02*
X557421D01*
X368800Y875698D02*
X557421D01*
X368800Y833698D02*
X557421D01*
X368800Y785698D02*
X557421D01*
X368800Y815698D02*
X557421D01*
X368800Y851698D02*
X557421D01*
X368800Y839698D02*
X557421D01*
X368800Y845698D02*
X557421D01*
X368800Y923698D02*
X401486D01*
X368800Y917698D02*
X557421D01*
X368800Y929698D02*
X402854D01*
X368800Y941698D02*
X557421D01*
X368800Y947698D02*
X557421D01*
X368800Y893698D02*
X557421D01*
X368800Y887698D02*
X557421D01*
X368800Y911698D02*
X557421D01*
X368800Y899698D02*
X557421D01*
X368800Y905698D02*
X557421D01*
X335500Y982900D02*
X368800Y949600D01*
X346702Y971698D02*
X557421D01*
X312202Y989698D02*
X557421D01*
X340702Y977698D02*
X557421D01*
X318202Y983698D02*
X557421D01*
X366469Y951931D02*
Y1089204D01*
X364702Y953698D02*
X557421D01*
X358702Y959698D02*
X401871D01*
X366469Y1112196D02*
Y1130000D01*
X352702Y965698D02*
X402091D01*
X276203Y1025697D02*
X557421D01*
X282202Y1019697D02*
X557421D01*
X258202Y1043698D02*
X557421D01*
X270203Y1031697D02*
X557421D01*
X264202Y1037698D02*
X557421D01*
X306202Y995698D02*
X557421D01*
X368800Y935698D02*
X557421D01*
X288202Y1013698D02*
X557421D01*
X300202Y1001697D02*
X557421D01*
X294202Y1007698D02*
X557421D01*
X246203Y1055697D02*
X557421D01*
X252202Y1049697D02*
X557421D01*
X264636Y1079697D02*
X557421D01*
X226670Y1127697D02*
X1035000D01*
X226670Y1130000D02*
X1035000D01*
X280221Y1073697D02*
X557421D01*
X282909Y1061697D02*
X557421D01*
X285262Y1067697D02*
X557421D01*
X267246Y1085697D02*
X557421D01*
X273374Y1115697D02*
X1035000D01*
X270858Y1121697D02*
X1035000D01*
X372469Y658730D02*
Y664417D01*
X390469Y658730D02*
Y701035D01*
X396469Y663165D02*
Y699736D01*
X408469Y660700D02*
Y681704D01*
X414469Y660700D02*
Y683146D01*
X408469Y695365D02*
Y739904D01*
X414469Y693922D02*
Y741346D01*
X378469Y658730D02*
Y1130000D01*
X384469Y658730D02*
Y1089672D01*
X390469Y712033D02*
Y759235D01*
Y770233D02*
Y819735D01*
X396469Y713332D02*
Y757936D01*
X402469Y660770D02*
Y921428D01*
X396469Y771532D02*
Y818436D01*
X408469Y753565D02*
Y800404D01*
X414469Y752122D02*
Y801846D01*
X402528Y660700D02*
X427870D01*
X372600Y665698D02*
X518502D01*
X415061Y683698D02*
X536502D01*
X399861Y701698D02*
X554501D01*
X401702Y707698D02*
X557421D01*
X430701Y659698D02*
X490870D01*
X416903Y689698D02*
X526278D01*
X416307Y743698D02*
X557421D01*
X401107Y761698D02*
X545969D01*
X416342Y749698D02*
X557421D01*
X401142Y767698D02*
X520941D01*
X416041Y803698D02*
X522200D01*
X438469Y651965D02*
Y1130000D01*
X450469Y642767D02*
Y1130000D01*
X444469Y645965D02*
Y1130000D01*
X420469Y660700D02*
Y1130000D01*
X432469Y657965D02*
Y1130000D01*
X426469Y660700D02*
Y1130000D01*
X379691Y1094450D02*
X385941Y1088200D01*
X373947Y1091697D02*
X382444D01*
X385941Y1088200D02*
X398441D01*
X390469Y830733D02*
Y1088200D01*
X396469Y832032D02*
Y1088200D01*
X402469Y929173D02*
Y958594D01*
Y966339D02*
Y1092227D01*
X379691Y1094450D02*
Y1106950D01*
X385941Y1113200D01*
X372469Y1110701D02*
Y1130000D01*
X373954Y1109697D02*
X382439D01*
X384469Y1111728D02*
Y1130000D01*
X402469Y1109173D02*
Y1130000D01*
X390469Y1113200D02*
Y1130000D01*
X385941Y1113200D02*
X398441D01*
X396469D02*
Y1130000D01*
X408469Y814064D02*
Y918302D01*
X400841Y821698D02*
X557421D01*
X408469Y932298D02*
Y955468D01*
X401352Y827698D02*
X557421D01*
X414469Y812622D02*
Y921991D01*
X416552Y809698D02*
X557421D01*
X415114Y923698D02*
X557421D01*
X414469Y928609D02*
Y959157D01*
X413746Y929698D02*
X557421D01*
X414729Y959698D02*
X557421D01*
X398441Y1088200D02*
X404691Y1094450D01*
X398441Y1113200D02*
X404691Y1106950D01*
X401939Y1091697D02*
X503966D01*
X401944Y1109697D02*
X503959D01*
X408469Y969464D02*
Y1130000D01*
X414509Y965698D02*
X557421D01*
X414469Y965775D02*
Y1130000D01*
X404691Y1094450D02*
Y1106950D01*
Y1097697D02*
X500020D01*
X404691Y1103697D02*
X500019D01*
X456469Y20000D02*
Y259805D01*
X462469Y20000D02*
Y265805D01*
X456469Y272533D02*
Y279051D01*
X468469Y20000D02*
Y266350D01*
X474469Y20000D02*
Y266350D01*
X468469Y275350D02*
Y279051D01*
X486469Y20000D02*
Y266350D01*
X480469Y20000D02*
Y266350D01*
X462469Y275350D02*
Y279051D01*
X474469Y275350D02*
Y279051D01*
X456469Y288050D02*
Y419505D01*
X468469Y288050D02*
Y359140D01*
X480469Y275350D02*
Y279051D01*
X492469Y275350D02*
Y279051D01*
X486469Y275350D02*
Y279051D01*
X474469Y288050D02*
Y356577D01*
X480469Y288050D02*
Y357490D01*
X486469Y288050D02*
Y363707D01*
X492469Y20000D02*
Y266350D01*
X498469Y20000D02*
Y266350D01*
Y275350D02*
Y279051D01*
X463014Y266350D02*
X588272D01*
X461151Y275350D02*
X582770D01*
X504468Y20000D02*
Y266350D01*
X510468Y20000D02*
Y266350D01*
X504468Y275350D02*
Y279051D01*
X522468Y20000D02*
Y266350D01*
X516469Y20000D02*
Y266350D01*
X492469Y288050D02*
Y359481D01*
X498469Y288050D02*
Y356500D01*
X489700Y362250D02*
X495450Y356500D01*
X506950D01*
X504468Y288050D02*
Y356500D01*
X510468Y275350D02*
Y279051D01*
X522468Y275350D02*
Y279051D01*
X516469Y275350D02*
Y279051D01*
X510468Y288050D02*
Y360019D01*
X506950Y356500D02*
X512700Y362250D01*
X516469Y288050D02*
Y388900D01*
X468469Y376860D02*
Y384540D01*
X481979Y377699D02*
X493649D01*
X474469Y379423D02*
Y381977D01*
X480469Y378510D02*
Y382890D01*
X481975Y383699D02*
X495024D01*
X489700Y362250D02*
Y373750D01*
X483759Y359699D02*
X492251D01*
X487067Y365699D02*
X489700D01*
X486689Y371699D02*
X489700D01*
Y373750D02*
X495450Y379500D01*
X486469Y397693D02*
Y412286D01*
X468469Y402260D02*
Y408676D01*
X483761Y401699D02*
X493239D01*
X480469Y403910D02*
Y407205D01*
X486469Y372293D02*
Y389107D01*
X492469Y376519D02*
Y385916D01*
X486688Y389699D02*
X490312D01*
X487068Y395699D02*
X489932D01*
X492469Y400884D02*
Y411316D01*
X487212Y413699D02*
X490893D01*
X498469Y379500D02*
Y382229D01*
X506950Y379500D02*
X512700Y373750D01*
X504468Y379500D02*
Y382374D01*
X495450Y379500D02*
X506950D01*
X507375Y383699D02*
X552500D01*
X512700Y362250D02*
Y373750D01*
X510149Y359699D02*
X552500D01*
X508751Y377699D02*
X552500D01*
X512700Y365699D02*
X552500D01*
X512700Y371699D02*
X552500D01*
X504468Y404426D02*
Y407774D01*
X481546Y407699D02*
X498198D01*
X498469Y404571D02*
Y407629D01*
X504202Y407699D02*
X552500D01*
X510468Y375981D02*
Y386592D01*
X511783Y388900D02*
X552500D01*
X511783Y397900D02*
X552500D01*
X510468Y400208D02*
Y411992D01*
X509161Y401699D02*
X552500D01*
X511507Y413699D02*
X552500D01*
X546469Y20000D02*
Y233902D01*
X552468Y20000D02*
Y232065D01*
X555100Y39050D02*
Y51550D01*
Y39050D02*
X561350Y32800D01*
X555100Y51550D02*
X561350Y57800D01*
X558468Y20000D02*
Y35682D01*
X564468Y20000D02*
Y32800D01*
X558468Y54918D02*
Y83310D01*
X564468Y57800D02*
Y79235D01*
X528469Y20000D02*
Y266350D01*
X534468Y20000D02*
Y266350D01*
X540468Y20000D02*
Y266350D01*
X546469Y244032D02*
Y266350D01*
X552468Y245869D02*
Y266350D01*
X564468Y101365D02*
Y266350D01*
X558468Y97290D02*
Y266350D01*
X546469Y275350D02*
Y279051D01*
X552468Y275350D02*
Y283104D01*
X558468Y275350D02*
Y289104D01*
X561350Y32800D02*
X573850D01*
X561350Y57800D02*
X573850D01*
X570468Y20000D02*
Y32800D01*
X576468Y20000D02*
Y35418D01*
X573850Y57800D02*
X580100Y51550D01*
X573850Y32800D02*
X580100Y39050D01*
Y51550D01*
X570468Y57800D02*
Y79163D01*
X576468Y55182D02*
Y82979D01*
X570468Y101437D02*
Y266350D01*
X576468Y97621D02*
Y266350D01*
X582468Y20000D02*
Y266350D01*
X588468Y20000D02*
Y266127D01*
X600468Y20000D02*
Y269336D01*
X594468Y20000D02*
Y263900D01*
X528469Y275350D02*
Y279051D01*
X534468Y275350D02*
Y278826D01*
Y288275D02*
Y291526D01*
X546152Y293699D02*
X550335D01*
X546469Y289832D02*
Y294737D01*
X522468Y288050D02*
Y388900D01*
X528469Y288050D02*
Y388900D01*
X534468Y300975D02*
Y388900D01*
X540468Y303201D02*
Y388900D01*
X544852Y288216D02*
X552500Y295864D01*
X552468Y295832D02*
Y388900D01*
X546469Y297764D02*
Y388900D01*
X545726Y299699D02*
X552500D01*
Y295864D02*
Y388900D01*
X549733Y280369D02*
X560182Y290818D01*
X551063Y281699D02*
X576422D01*
X557063Y287699D02*
X570422D01*
X570468Y275350D02*
Y287652D01*
X576468Y275350D02*
Y281652D01*
X561490Y293699D02*
X564422D01*
X564468Y275350D02*
Y293652D01*
X564182Y293939D02*
X582770Y275350D01*
X571864Y298985D02*
X593025Y277824D01*
X561500Y294000D02*
Y393500D01*
X571864Y298985D02*
Y417295D01*
X576468Y294380D02*
Y412532D01*
X582468Y288380D02*
Y413366D01*
X571864Y413699D02*
X574271D01*
X582928D02*
X601302D01*
X585582Y419699D02*
X602334D01*
X462469Y288050D02*
Y425505D01*
X456663Y419699D02*
X463332D01*
X462663Y425699D02*
X465376D01*
X468469Y428924D02*
Y431505D01*
X486224Y425699D02*
X491999D01*
X456469Y432233D02*
Y463605D01*
X462469Y438233D02*
Y469605D01*
X468469Y444233D02*
Y475605D01*
X460563Y467699D02*
X491935D01*
X474469Y450233D02*
Y478700D01*
X480469Y430395D02*
Y443505D01*
X486469Y425314D02*
Y449505D01*
X492469Y426284D02*
Y455505D01*
X474469Y431229D02*
Y437505D01*
X486469Y462233D02*
Y478700D01*
X480469Y456233D02*
Y478700D01*
X468663Y431699D02*
X552500D01*
X486663Y449699D02*
X552500D01*
X474663Y437699D02*
X552500D01*
X480663Y443699D02*
X552500D01*
X510401Y425699D02*
X552500D01*
X512665Y419699D02*
X552500D01*
X498469Y429971D02*
Y461505D01*
X492663Y455699D02*
X554835D01*
X498663Y461699D02*
X560835D01*
X504468Y429826D02*
Y462700D01*
X499664D02*
X561872D01*
X492469Y468232D02*
Y478700D01*
X516469Y397900D02*
Y462700D01*
X534468Y397900D02*
Y462700D01*
X522468Y397900D02*
Y462700D01*
X510468Y471700D02*
Y478700D01*
X528469Y397900D02*
Y462700D01*
X510468Y425608D02*
Y462700D01*
X456469Y476333D02*
Y494700D01*
X462469Y482333D02*
Y494700D01*
X468469Y487528D02*
Y494700D01*
X498469Y471700D02*
Y478700D01*
X504468Y471700D02*
Y478700D01*
X474469Y487700D02*
Y494700D01*
X498469Y487700D02*
Y494700D01*
X480469Y487700D02*
Y494700D01*
X474469Y503700D02*
Y560020D01*
X480469Y503700D02*
Y560020D01*
X456469Y503700D02*
Y560020D01*
X468469Y503700D02*
Y560020D01*
X462469Y503700D02*
Y560020D01*
X486469Y487700D02*
Y494700D01*
X504468Y487700D02*
Y494700D01*
X492469Y487700D02*
Y494700D01*
X486469Y503700D02*
Y560020D01*
X498469Y503700D02*
Y560020D01*
X492469Y503700D02*
Y560020D01*
X516469Y471700D02*
Y478700D01*
X497800Y471700D02*
X568502D01*
X466563Y473699D02*
X571262D01*
X471564Y478700D02*
X573102D01*
X469700Y487700D02*
X573102D01*
X522468Y471700D02*
Y478700D01*
X528469Y471700D02*
Y478700D01*
X516469Y487700D02*
Y494700D01*
X528469Y487700D02*
Y494700D01*
X522468Y487700D02*
Y494700D01*
X504468Y503700D02*
Y555488D01*
X510468Y487700D02*
Y494700D01*
X499936Y560020D02*
X547938Y512018D01*
X504982Y567702D02*
X552984Y519700D01*
X465506Y616300D02*
X553788Y528018D01*
X510468Y503700D02*
Y549487D01*
X534468Y487700D02*
Y494700D01*
X516469Y503700D02*
Y543488D01*
X522468Y503700D02*
Y537487D01*
X534468Y503700D02*
Y525488D01*
X528469Y503700D02*
Y531488D01*
X552500Y397900D02*
Y451500D01*
X561500Y393500D02*
Y449636D01*
Y443699D02*
X565135D01*
X562864Y297121D02*
Y439564D01*
X561563Y449699D02*
X567027D01*
X564468Y443032D02*
Y452604D01*
X540468Y397900D02*
Y462700D01*
X546469Y397900D02*
Y462700D01*
X540468Y471700D02*
Y478700D01*
X552468Y471700D02*
Y478700D01*
X546469Y471700D02*
Y478700D01*
X552468Y397900D02*
Y462700D01*
X561500Y449636D02*
X566564Y454700D01*
X553818Y454682D02*
X561518Y462382D01*
X558468Y459332D02*
Y462700D01*
X564468Y471700D02*
Y478700D01*
X558468Y471700D02*
Y478700D01*
X571864Y421105D02*
Y428492D01*
Y425699D02*
X575998D01*
X576468Y425868D02*
Y428703D01*
X582468Y425034D02*
Y437366D01*
X600468Y272365D02*
Y421450D01*
X581201Y425699D02*
X597623D01*
X579925Y431699D02*
X599097D01*
X564182Y442746D02*
X567818Y446382D01*
X588468Y282380D02*
Y1075395D01*
X600468Y432950D02*
Y769479D01*
X594468Y277801D02*
Y1091691D01*
X582468Y464941D02*
Y477458D01*
Y449032D02*
Y453459D01*
X534468Y471700D02*
Y478700D01*
X540468Y487700D02*
Y494700D01*
X546469Y487700D02*
Y494700D01*
X552468Y487700D02*
Y494700D01*
X558468Y487700D02*
Y494700D01*
X564468Y487700D02*
Y494700D01*
X552468Y503700D02*
Y510700D01*
X564468Y503700D02*
Y510700D01*
X558468Y503700D02*
Y510700D01*
X540468Y503700D02*
Y519488D01*
X546469Y503700D02*
Y513488D01*
X540468Y532215D02*
Y541338D01*
X544986Y527699D02*
X554143D01*
X546469Y526216D02*
Y535338D01*
X564468Y519700D02*
Y526700D01*
X558468Y519700D02*
Y526700D01*
X552468Y520215D02*
Y529338D01*
X570468Y473321D02*
Y478700D01*
Y487700D02*
Y494700D01*
X576468Y473698D02*
Y476490D01*
Y489910D02*
Y492491D01*
X582468Y488941D02*
Y493459D01*
X576468Y505910D02*
Y508490D01*
X582468Y504941D02*
Y509459D01*
X552984Y519700D02*
X567802D01*
X551120Y510700D02*
X573102D01*
X550985Y521698D02*
X567027D01*
X556970Y526700D02*
X567802D01*
X570468Y503700D02*
Y510700D01*
X582468Y520942D02*
Y525458D01*
X580100Y41700D02*
X805490D01*
X576749Y35700D02*
X809960D01*
X460363Y263699D02*
X612698D01*
X580100Y47699D02*
X808096D01*
X612468Y20000D02*
Y252787D01*
X618468Y20000D02*
Y251314D01*
X810468Y20000D02*
Y35526D01*
X816468Y20000D02*
Y36488D01*
X660468Y20000D02*
Y306859D01*
X666468Y20000D02*
Y303551D01*
X612468Y263514D02*
Y316898D01*
X672468Y20000D02*
Y307033D01*
X618468Y264988D02*
Y317058D01*
X720468Y20000D02*
Y378048D01*
X726468Y20000D02*
Y382286D01*
X732468Y20000D02*
Y384221D01*
X678468Y20000D02*
Y386886D01*
X714468Y20000D02*
Y380784D01*
X708468Y20000D02*
Y383608D01*
X814980Y35700D02*
X822460D01*
X816844Y47699D02*
X820596D01*
X577951Y53699D02*
X1062645D01*
X822468Y20000D02*
Y35696D01*
X828468Y20000D02*
Y36171D01*
X829344Y47699D02*
X1062646D01*
X827480Y35700D02*
X1100000D01*
X831950Y41700D02*
X1100000D01*
X569119Y101699D02*
X1100000D01*
X577017Y83699D02*
X1100000D01*
X553219Y245699D02*
X1053070D01*
X555910Y233699D02*
X1100000D01*
X558262Y239699D02*
X1100000D01*
X1014467Y20000D02*
Y355954D01*
X579084Y89699D02*
X1100000D01*
X577754Y95699D02*
X1100000D01*
X621234Y263699D02*
X1050079D01*
X619682Y251699D02*
X1050079D01*
X623951Y257699D02*
X1050079D01*
X571864Y311699D02*
X659511D01*
X571864Y305699D02*
X661370D01*
X571864Y323699D02*
X608311D01*
X571864Y317699D02*
X611101D01*
X571864Y329699D02*
X612462D01*
X672468Y314068D02*
Y382648D01*
X571864Y365699D02*
X1010011D01*
X612468Y329702D02*
Y383744D01*
X618468Y329542D02*
Y383208D01*
X571864Y389699D02*
X609030D01*
X619515Y383699D02*
X668319D01*
X571864D02*
X612545D01*
X666468Y317550D02*
Y385383D01*
X675741Y383699D02*
X708319D01*
X623030Y389699D02*
X665030D01*
X679030D02*
X705030D01*
X589150Y281699D02*
X1100000D01*
X598683Y275699D02*
X1100000D01*
X571864Y299699D02*
X1053394D01*
X583150Y287699D02*
X1100000D01*
X577150Y293699D02*
X1059884D01*
X671462Y305699D02*
X1051244D01*
X600539Y269699D02*
X1054088D01*
X673321Y311699D02*
X1051515D01*
X619499Y317699D02*
X1054361D01*
X622289Y323699D02*
X1064041D01*
X571864Y341699D02*
X1100000D01*
X571864Y335699D02*
X1100000D01*
X571864Y359699D02*
X1010012D01*
X571864Y347699D02*
X1054195D01*
X571864Y353699D02*
X1050859D01*
X618138Y329699D02*
X1100000D01*
X571864Y371699D02*
X1056017D01*
X735030Y389699D02*
X1100000D01*
X571864Y377699D02*
X1100000D01*
X731741Y383699D02*
X1100000D01*
X1062467Y20000D02*
Y48109D01*
X1068467Y43718D02*
Y45725D01*
X1062467Y48109D02*
Y53292D01*
X1062646Y47699D02*
X1064970D01*
X1062645Y53699D02*
X1064970D01*
X1068467Y20000D02*
Y43718D01*
X1074467Y20000D02*
Y46367D01*
Y55033D01*
X1072970Y47699D02*
X1075294D01*
X1072970Y53699D02*
X1075295D01*
X1020468Y20000D02*
Y357049D01*
X1050467Y20000D02*
Y248301D01*
X1056467Y20000D02*
Y242301D01*
X1058579Y240190D02*
X1075579D01*
X1050079Y248690D02*
X1058579Y240190D01*
X1062467Y53292D02*
Y240190D01*
X1074467Y55033D02*
Y240190D01*
X1068467Y55675D02*
Y57682D01*
Y240190D01*
X1086467Y20000D02*
Y123833D01*
X1085124Y125699D02*
X1087478D01*
X1075294Y47699D02*
X1100000D01*
X1075295Y53699D02*
X1100000D01*
X1092467Y121882D02*
Y123915D01*
Y20000D02*
Y121882D01*
X1086467Y123833D02*
Y127982D01*
X1097676Y125699D02*
X1100000D01*
X1095322D02*
X1097676D01*
X1080467Y20000D02*
Y245079D01*
X1075579Y240190D02*
X1084079Y248690D01*
X1081088Y245699D02*
X1100000D01*
X1084079Y248690D02*
Y265690D01*
X1086467Y129618D02*
Y133767D01*
X1085029Y131699D02*
X1087326D01*
X1092467Y133685D02*
Y135718D01*
X1097771Y131699D02*
X1100000D01*
X1095474D02*
X1097771D01*
X1050079Y248690D02*
Y265690D01*
X1056467Y272079D02*
Y296015D01*
X1058579Y274190D02*
X1075579D01*
X1050079Y265690D02*
X1058579Y274190D01*
X1062467D02*
Y292669D01*
X1068467Y323930D02*
Y341847D01*
Y274190D02*
Y292050D01*
X1074467Y274190D02*
Y293798D01*
X1050467Y266079D02*
Y355176D01*
X1056467Y319965D02*
Y345509D01*
X1022660Y359699D02*
X1050103D01*
X1022661Y365699D02*
X1051546D01*
X1062467Y323311D02*
Y342427D01*
X1074467Y322182D02*
Y343480D01*
X1062467Y375153D02*
Y394269D01*
X1068467Y375733D02*
Y393650D01*
X1075579Y274190D02*
X1084079Y265690D01*
X1080467Y269301D02*
Y299230D01*
X1080070Y269699D02*
X1100000D01*
X1074274Y293699D02*
X1100000D01*
X1084079Y263699D02*
X1100000D01*
X1084079Y251699D02*
X1100000D01*
X1084079Y257699D02*
X1100000D01*
X1082643Y311699D02*
X1100000D01*
X1080763Y299699D02*
X1100000D01*
X1082914Y305699D02*
X1100000D01*
X1070117Y323699D02*
X1100000D01*
X1078141Y371699D02*
X1100000D01*
X1080467Y316750D02*
Y348314D01*
X1079796Y317699D02*
X1100000D01*
X1079962Y347699D02*
X1100000D01*
X1082612Y365699D02*
X1100000D01*
X1083298Y353699D02*
X1100000D01*
X1084054Y359699D02*
X1100000D01*
X606468Y20000D02*
Y408807D01*
X571864Y395699D02*
X612309D01*
X612468Y395796D02*
Y410217D01*
X624468Y20000D02*
Y408644D01*
X630468Y20000D02*
Y412883D01*
X614758Y413699D02*
X617302D01*
X619751Y395699D02*
X668534D01*
X618468Y396331D02*
Y411380D01*
X636468Y20000D02*
Y487648D01*
X642468Y20000D02*
Y484200D01*
X630468Y418378D02*
Y733377D01*
X648468Y20000D02*
Y487542D01*
X654468Y20000D02*
Y535810D01*
X660468Y314242D02*
Y537221D01*
X666468Y393885D02*
Y562204D01*
X678468Y392382D02*
Y1048382D01*
X672468Y396620D02*
Y1054465D01*
X675526Y395699D02*
X708534D01*
X630758Y413699D02*
X753267D01*
X571864Y401699D02*
X1053160D01*
X571864Y407699D02*
X1051191D01*
X715526Y395699D02*
X724534D01*
X731526D02*
X1059139D01*
X732468Y395047D02*
Y420272D01*
X684468Y20000D02*
Y1043920D01*
X690468Y20000D02*
Y956110D01*
X696468Y20000D02*
Y956174D01*
X702468Y20000D02*
Y535810D01*
X708468Y395660D02*
Y537221D01*
X738468Y20000D02*
Y760199D01*
X750468Y20000D02*
Y699643D01*
X744468Y20000D02*
Y757766D01*
X714468Y396196D02*
Y1130000D01*
X726468Y396458D02*
Y422297D01*
X720468Y392020D02*
Y1095115D01*
X585003Y485699D02*
X638172D01*
X609823Y431699D02*
X726101D01*
X585301Y497699D02*
X639898D01*
X613726Y419699D02*
X618334D01*
X611297Y425699D02*
X724627D01*
X645102Y497699D02*
X724627D01*
X732468Y434128D02*
Y492272D01*
X726468Y432103D02*
Y494297D01*
X612468Y421043D02*
Y537221D01*
X618468Y419881D02*
Y1089200D01*
X606468Y433906D02*
Y535810D01*
X583827Y503699D02*
X726101D01*
X624468Y422617D02*
Y1130000D01*
X636468Y494752D02*
Y734079D01*
X648468Y494858D02*
Y1075814D01*
X642468Y498200D02*
Y1130000D01*
X732468Y506128D02*
Y818974D01*
X726468Y504103D02*
Y1089325D01*
X581198Y449699D02*
X1055175D01*
X582928Y437699D02*
X1100000D01*
X585003Y461699D02*
X1051132D01*
X584525Y455699D02*
X1051782D01*
X580846Y467699D02*
X1052846D01*
X629726Y419699D02*
X750614D01*
X738301Y425699D02*
X754995D01*
X736827Y431699D02*
X1100000D01*
X585581Y443699D02*
X1100000D01*
X576466Y473699D02*
X1058197D01*
X584525Y479699D02*
X1100000D01*
X584525Y527699D02*
X1100000D01*
X582792Y509698D02*
X1100000D01*
X581066Y521698D02*
X1100000D01*
X646828Y485699D02*
X1100000D01*
X649482Y491699D02*
X1100000D01*
X585446Y515699D02*
X1100000D01*
X738301Y497699D02*
X1100000D01*
X736827Y503699D02*
X1100000D01*
X834468Y20000D02*
Y566132D01*
X840468Y20000D02*
Y576084D01*
X756468Y20000D02*
Y412291D01*
X762468Y20000D02*
Y414174D01*
X804468Y20000D02*
Y730482D01*
X876468Y20000D02*
Y714543D01*
X882468Y20000D02*
Y719234D01*
X846468Y20000D02*
Y571620D01*
X852468Y20000D02*
Y574229D01*
X870468Y20000D02*
Y717040D01*
X786468Y20000D02*
Y1089924D01*
X792468Y20000D02*
Y1095051D01*
X768468Y20000D02*
Y1099319D01*
X780468Y20000D02*
Y1089372D01*
X774468Y20000D02*
Y1092422D01*
X888468Y20000D02*
Y745184D01*
X894468Y20000D02*
Y748445D01*
X900468Y20000D02*
Y887858D01*
X798468Y20000D02*
Y1094052D01*
X864468Y20000D02*
Y732674D01*
X858468Y20000D02*
Y734346D01*
X960468Y20000D02*
Y691972D01*
X966468Y20000D02*
Y690809D01*
X906468Y20000D02*
Y556329D01*
X912468Y20000D02*
Y557980D01*
X954468Y20000D02*
Y697233D01*
X1098467Y20000D02*
Y689800D01*
X1100000Y20000D02*
Y689800D01*
X972468Y20000D02*
Y692467D01*
X1038467Y20000D02*
Y591462D01*
X978468Y20000D02*
Y699195D01*
X936468Y20000D02*
Y891638D01*
X942468Y20000D02*
Y1130000D01*
X918468Y20000D02*
Y878232D01*
X924468Y20000D02*
Y879436D01*
X930468Y20000D02*
Y882919D01*
X996468Y20000D02*
Y1039105D01*
X1044467Y20000D02*
Y980000D01*
X1002467Y20000D02*
Y1036542D01*
X948468Y20000D02*
Y1130000D01*
X984468Y20000D02*
Y1023845D01*
X990468Y20000D02*
Y1028489D01*
X828468Y48297D02*
Y567128D01*
X1032467Y20000D02*
Y592067D01*
X761925Y413699D02*
X1051615D01*
X764578Y419699D02*
X1054677D01*
X1056467Y421565D02*
Y448415D01*
Y372072D02*
Y397615D01*
Y472365D02*
Y591450D01*
X1068467Y425530D02*
Y444450D01*
X1062467Y424911D02*
Y445069D01*
X816468Y47980D02*
Y1093084D01*
X822468Y48772D02*
Y1094233D01*
X756468Y426109D02*
Y701409D01*
X810468Y48942D02*
Y729078D01*
X762468Y424226D02*
Y1090556D01*
X1008467Y20000D02*
Y1014628D01*
X1050467Y362404D02*
Y592087D01*
X1026468Y20000D02*
Y617126D01*
X1014467Y369446D02*
Y1011120D01*
X1020468Y368351D02*
Y617125D01*
X1062467Y475711D02*
Y980000D01*
X1074467Y374100D02*
Y395398D01*
Y423782D02*
Y446198D01*
X1075018Y395699D02*
X1100000D01*
X760197Y425699D02*
X1100000D01*
X1080467Y369266D02*
Y400830D01*
X1080997Y401699D02*
X1100000D01*
X1082967Y407699D02*
X1100000D01*
X1078982Y449699D02*
X1100000D01*
X1082542Y413699D02*
X1100000D01*
X1079481Y419699D02*
X1100000D01*
X1080467Y469150D02*
Y695053D01*
X1068467Y476330D02*
Y980000D01*
X1075960Y473699D02*
X1100000D01*
X1074467Y474582D02*
Y980000D01*
X1080467Y418350D02*
Y451630D01*
X1092467Y135718D02*
Y689800D01*
X1086467Y133767D02*
Y689800D01*
X1081312Y467699D02*
X1100000D01*
X1082375Y455699D02*
X1100000D01*
X1083025Y461699D02*
X1100000D01*
X498469Y569020D02*
Y583338D01*
X480469Y569020D02*
Y601337D01*
X492469Y569020D02*
Y589338D01*
X486469Y569020D02*
Y595337D01*
X510468Y562215D02*
Y571338D01*
X516469Y556215D02*
Y565337D01*
X504468Y568143D02*
Y577337D01*
X508985Y563698D02*
X518108D01*
X456469Y569020D02*
Y616300D01*
X462469Y569020D02*
Y616300D01*
X468469Y569020D02*
Y613337D01*
X474469Y569020D02*
Y607337D01*
X480469Y614065D02*
Y633767D01*
X504468Y590065D02*
Y638937D01*
X510468Y584065D02*
Y644937D01*
X516469Y578065D02*
Y650937D01*
X486469Y608065D02*
Y633767D01*
X498469Y596065D02*
Y631344D01*
X492469Y602065D02*
Y633334D01*
X528469Y544216D02*
Y553338D01*
X526986Y545699D02*
X536108D01*
X522468Y550215D02*
Y559338D01*
X520985Y551698D02*
X530108D01*
X514986Y557698D02*
X524108D01*
X534468Y538215D02*
Y547337D01*
X538985Y533699D02*
X548107D01*
X532985Y539698D02*
X542108D01*
X554836D02*
X601675D01*
X548835Y545699D02*
X601736D01*
X470552Y623982D02*
X558834Y535700D01*
X524836Y569698D02*
X657092D01*
X522468Y572066D02*
Y656937D01*
X518836Y575698D02*
X663060D01*
X512836Y581698D02*
X840723D01*
X540468Y554066D02*
Y674937D01*
X546469Y548065D02*
Y680937D01*
X552468Y542066D02*
Y686937D01*
X528469Y566065D02*
Y662937D01*
X530835Y563698D02*
X659201D01*
X534468Y560065D02*
Y668937D01*
X456469Y625300D02*
Y633767D01*
X468469Y625164D02*
Y633767D01*
X462469Y625300D02*
Y633767D01*
X474469Y620065D02*
Y633767D01*
X503456Y653698D02*
X506502D01*
X503999Y659698D02*
X512501D01*
X522468Y669665D02*
Y766608D01*
X528469Y675665D02*
Y686016D01*
X534468Y681665D02*
Y684400D01*
X522468Y778992D02*
Y792502D01*
X528469Y696514D02*
Y766357D01*
Y779243D02*
Y791473D01*
X503946Y635698D02*
X558061D01*
X504408Y638877D02*
X565103Y699572D01*
X537229Y671698D02*
X560440D01*
X507229Y641698D02*
X564018D01*
X531229Y665698D02*
X564385D01*
X543229Y677698D02*
X563369D01*
X539922Y689698D02*
X542501D01*
X555229D02*
X825723D01*
X538517Y695698D02*
X548501D01*
X530526Y767698D02*
X557421D01*
X503697Y650894D02*
X557421Y704618D01*
X530868Y803698D02*
X557421D01*
X526924Y779698D02*
X557421D01*
X529125Y791698D02*
X557421D01*
X546469Y693665D02*
Y756779D01*
X552468Y699665D02*
Y752905D01*
X557421Y704618D02*
Y754701D01*
X533516Y797698D02*
X557421D01*
X532675Y773698D02*
X557421D01*
X564468Y535700D02*
Y627787D01*
X558834Y535700D02*
X573102D01*
X558468Y536065D02*
Y632246D01*
X570468Y535700D02*
Y630399D01*
X564468Y641747D02*
Y665658D01*
X614385Y539698D02*
X649675D01*
X614324Y545699D02*
X649736D01*
X660468Y548047D02*
Y562740D01*
X558468Y637288D02*
Y692937D01*
X564468Y678340D02*
Y698937D01*
X576468Y537910D02*
Y727641D01*
X582468Y536941D02*
Y729226D01*
X612468Y548047D02*
Y768585D01*
X570468Y639136D02*
Y665691D01*
X606468Y549458D02*
Y765605D01*
X660468Y574792D02*
Y1068323D01*
X662385Y539698D02*
X697675D01*
X662324Y545699D02*
X697736D01*
X670968Y569698D02*
X826250D01*
X665000Y575698D02*
X826106D01*
X828468Y578572D02*
Y685728D01*
X834468Y579568D02*
Y684732D01*
X666468Y575328D02*
Y1061370D01*
X561229Y695698D02*
X826936D01*
X566421Y707698D02*
X744798D01*
X566296Y701698D02*
X746639D01*
X840468Y581116D02*
Y880075D01*
X852468Y582971D02*
Y856178D01*
X846468Y585580D02*
Y856878D01*
X750468Y713425D02*
Y762604D01*
X834468Y698168D02*
Y878309D01*
X566421Y731698D02*
X571451D01*
X566421Y737698D02*
X571639D01*
X566421Y767698D02*
X601737D01*
X566421Y743698D02*
X626791D01*
X566421Y959698D02*
X686971D01*
X566421Y773698D02*
X599821D01*
X584093Y737698D02*
X626123D01*
X566421Y1049697D02*
X678104D01*
X566421Y965698D02*
X687191D01*
X566421Y1067697D02*
X661018D01*
X566421Y1055697D02*
X671328D01*
X566421Y1061697D02*
X665408D01*
X690468Y968822D02*
Y1046530D01*
X566421Y761698D02*
X737493D01*
X584281Y731698D02*
X803301D01*
X566421Y827698D02*
X729048D01*
X611731Y767698D02*
X737458D01*
X566421Y821698D02*
X729559D01*
X639345Y737698D02*
X802135D01*
X738468Y769269D02*
Y818848D01*
X566421Y863698D02*
X843258D01*
X566421Y869698D02*
X849008D01*
X566421Y887698D02*
X829161D01*
X566421Y881698D02*
X829639D01*
X566421Y917698D02*
X843912D01*
X566421Y857698D02*
X845407D01*
X852468Y869423D02*
Y909040D01*
X846468Y868722D02*
Y910187D01*
X566421Y911698D02*
X844978D01*
X504468Y651665D02*
Y1091320D01*
X510468Y657665D02*
Y1089219D01*
X516469Y663665D02*
Y1090519D01*
X534468Y698130D02*
Y1089385D01*
X528469Y804928D02*
Y1092490D01*
X540468Y687665D02*
Y1089899D01*
X566421Y702754D02*
Y1090117D01*
X546469Y763021D02*
Y1094929D01*
X557421Y765099D02*
Y1090117D01*
X552468Y766895D02*
Y1094151D01*
X474469Y642767D02*
Y1130000D01*
X480469Y642767D02*
Y1130000D01*
X456469Y642767D02*
Y1130000D01*
X468469Y642767D02*
Y1130000D01*
X462469Y642767D02*
Y1130000D01*
X486469Y642767D02*
Y1130000D01*
X498469Y664191D02*
Y1130000D01*
X492469Y662201D02*
Y1130000D01*
X522468Y803899D02*
Y1098832D01*
X582468Y739774D02*
Y1077255D01*
X566421Y1073697D02*
X653086D01*
X566421Y1079697D02*
X580823D01*
X566421Y1085697D02*
X581201D01*
X612468Y776615D02*
Y1089200D01*
X593820Y1079697D02*
X644602D01*
X593442Y1085697D02*
X644980D01*
X606971Y1089200D02*
X618471D01*
X570468Y678307D02*
Y1093006D01*
X576468Y741359D02*
Y1096897D01*
X582468Y1087345D02*
Y1090274D01*
X606468Y779595D02*
Y1089703D01*
X600468Y775721D02*
Y1130000D01*
X618471Y1089200D02*
X624221Y1094950D01*
X601221D02*
X606971Y1089200D01*
X522222Y1097697D02*
X525420D01*
X518277Y1091697D02*
X529366D01*
X522224Y1103697D02*
X525419D01*
X518284Y1109697D02*
X529359D01*
X528469Y1108910D02*
Y1130000D01*
X547622Y1097697D02*
X550820D01*
X543677Y1091697D02*
X554766D01*
X547624Y1103697D02*
X550819D01*
X573024D02*
X576219D01*
X543684Y1109697D02*
X554759D01*
X504468Y1110080D02*
Y1130000D01*
X522468Y1102569D02*
Y1130000D01*
X510468Y1112181D02*
Y1130000D01*
X534468Y1112016D02*
Y1130000D01*
X516469Y1110881D02*
Y1130000D01*
X546469Y1106471D02*
Y1130000D01*
X570468Y1108394D02*
Y1130000D01*
X552468Y1107249D02*
Y1130000D01*
X540468Y1111501D02*
Y1130000D01*
X564468Y1111915D02*
Y1130000D01*
X558468Y1111669D02*
Y1130000D01*
X569077Y1091697D02*
X580166D01*
X594477D02*
X604474D01*
X573022Y1097697D02*
X576220D01*
X594484Y1109697D02*
X604468D01*
X569084D02*
X580159D01*
X601221Y1094950D02*
Y1106450D01*
X620969Y1091697D02*
X722979D01*
X598422Y1097697D02*
X601221D01*
X624221Y1103697D02*
X719516D01*
X598424D02*
X601221D01*
X576468Y1104503D02*
Y1130000D01*
X601221Y1106450D02*
X606971Y1112200D01*
X582468Y1111126D02*
Y1130000D01*
X594468Y1109710D02*
Y1130000D01*
X588468Y1112143D02*
Y1130000D01*
X606468Y1111697D02*
Y1130000D01*
X620974Y1109697D02*
X722974D01*
X618471Y1112200D02*
X624221Y1106450D01*
X612468Y1112200D02*
Y1130000D01*
X606971Y1112200D02*
X618471D01*
X618468D02*
Y1130000D01*
X654468Y549458D02*
Y1070885D01*
Y1088436D02*
Y1130000D01*
X708468Y548047D02*
Y1130000D01*
X732468Y831494D02*
Y1088227D01*
X630468Y746623D02*
Y1130000D01*
X636468Y745921D02*
Y1130000D01*
X648468Y1088786D02*
Y1130000D01*
X666468Y1077720D02*
Y1130000D01*
X660468Y1082277D02*
Y1130000D01*
X690468Y1055270D02*
Y1130000D01*
X702468Y549458D02*
Y1130000D01*
X696468Y968758D02*
Y1130000D01*
X672468Y1073588D02*
Y1130000D01*
X684468Y1057880D02*
Y1130000D01*
X678468Y1066644D02*
Y1130000D01*
X756468Y711659D02*
Y1089215D01*
X804468Y741318D02*
Y1089709D01*
X738468Y831619D02*
Y1090222D01*
X750468Y766864D02*
Y1091271D01*
X764207Y1091697D02*
X775296D01*
X810468Y742722D02*
Y1089502D01*
X828468Y697172D02*
Y1089200D01*
X834468Y892091D02*
Y1089200D01*
X827501D02*
X839001D01*
X840468Y890325D02*
Y1090667D01*
X744468Y771702D02*
Y1130000D01*
X740323Y1091697D02*
X749896D01*
X821751Y1094950D02*
X827501Y1089200D01*
X852468Y922560D02*
Y1130000D01*
X846468Y921413D02*
Y1130000D01*
X789607Y1091697D02*
X800696D01*
X839001Y1089200D02*
X844751Y1094950D01*
X624221Y1094950D02*
Y1106450D01*
Y1097697D02*
X719517D01*
X740329Y1109697D02*
X749889D01*
X743785Y1097697D02*
X745950D01*
X768152D02*
X771350D01*
X743786Y1103697D02*
X745949D01*
X768154D02*
X771349D01*
X764214Y1109697D02*
X775289D01*
X720468Y1106285D02*
Y1130000D01*
X726468Y1112075D02*
Y1130000D01*
X738468Y1111178D02*
Y1130000D01*
X732468Y1113173D02*
Y1130000D01*
X750468Y1110129D02*
Y1130000D01*
X774468Y1108978D02*
Y1130000D01*
X768468Y1102081D02*
Y1130000D01*
X756468Y1112185D02*
Y1130000D01*
X780468Y1112028D02*
Y1130000D01*
X762468Y1110844D02*
Y1130000D01*
X793552Y1097697D02*
X796750D01*
X815007Y1091697D02*
X825004D01*
X793554Y1103697D02*
X796749D01*
X815014Y1109697D02*
X824999D01*
X789613D02*
X800689D01*
X821751Y1094950D02*
Y1106450D01*
X818952Y1097697D02*
X821751D01*
X844751Y1094950D02*
Y1106450D01*
X818954Y1103697D02*
X821751D01*
X839001Y1112200D02*
X844751Y1106450D01*
X827501Y1112200D02*
X839001D01*
X792468Y1106349D02*
Y1130000D01*
X798468Y1107349D02*
Y1130000D01*
X786468Y1111476D02*
Y1130000D01*
X810468Y1111898D02*
Y1130000D01*
X804468Y1111691D02*
Y1130000D01*
X816468Y1108316D02*
Y1130000D01*
X821751Y1106450D02*
X827501Y1112200D01*
X822468Y1107167D02*
Y1130000D01*
X828468Y1112200D02*
Y1130000D01*
X840468Y1110733D02*
Y1130000D01*
X834468Y1112200D02*
Y1130000D01*
X494836Y599698D02*
X1029298D01*
X500836Y593698D02*
X1030618D01*
X476836Y617698D02*
X1019476D01*
X488836Y605698D02*
X1049288D01*
X482836Y611698D02*
X1047198D01*
X536836Y557698D02*
X903476D01*
X668859Y563698D02*
X900822D01*
X838750Y569698D02*
X905202D01*
X853277Y581698D02*
X1100000D01*
X470836Y623698D02*
X1016470D01*
X569826Y629698D02*
X1020310D01*
X566421Y719698D02*
X869090D01*
X566421Y713698D02*
X956279D01*
X566421Y725698D02*
X870237D01*
X756761Y701698D02*
X952723D01*
X838064Y695698D02*
X955565D01*
X758603Y707698D02*
X952905D01*
X870468Y725992D02*
Y800690D01*
X882468Y723798D02*
Y748719D01*
X710324Y545699D02*
X1100000D01*
X585003Y533699D02*
X1100000D01*
X571937Y635698D02*
X1100000D01*
X542836Y551698D02*
X1100000D01*
X506836Y587698D02*
X1100000D01*
X912132Y557698D02*
X1100000D01*
X710385Y539698D02*
X1100000D01*
X853370Y575698D02*
X1100000D01*
X914786Y563698D02*
X1100000D01*
X910406Y569698D02*
X1100000D01*
X513229Y647698D02*
X1100000D01*
X565979Y641698D02*
X1100000D01*
X549229Y683698D02*
X1100000D01*
X519230Y653698D02*
X1100000D01*
X525229Y659698D02*
X1100000D01*
X571499Y677698D02*
X1100000D01*
X570483Y665698D02*
X1100000D01*
X574427Y671698D02*
X1100000D01*
X881463Y725698D02*
X1100000D01*
X839277Y689698D02*
X1100000D01*
X882610Y719698D02*
X1100000D01*
X638677Y743698D02*
X857512D01*
X566421Y749698D02*
X882006D01*
X566421Y803698D02*
X869006D01*
X566421Y755698D02*
X882496D01*
X566421Y809698D02*
X870515D01*
X876468Y728489D02*
Y798193D01*
X815665Y737698D02*
X856399D01*
X882468Y755649D02*
Y802885D01*
X741641Y821698D02*
X856313D01*
X742152Y827698D02*
X857787D01*
X566421Y833698D02*
X881884D01*
X566421Y839698D02*
X882713D01*
X858468Y744753D02*
Y817996D01*
X864468Y746424D02*
Y816324D01*
X894468Y755923D02*
Y832095D01*
X882468Y807448D02*
Y832369D01*
X888468Y759184D02*
Y828835D01*
X814499Y731698D02*
X957741D01*
X750107Y761698D02*
X1100000D01*
X566421Y779698D02*
X952494D01*
X750142Y767698D02*
X961685D01*
X613647Y773698D02*
X954309D01*
X868788Y743698D02*
X952533D01*
X869901Y737698D02*
X953315D01*
X895094Y749698D02*
X954613D01*
X894604Y755698D02*
X963644D01*
X566421Y785698D02*
X953511D01*
X566421Y791698D02*
X958430D01*
X566421Y815698D02*
X952786D01*
X566421Y797698D02*
X1100000D01*
X868513Y827698D02*
X955996D01*
X881185Y809698D02*
X955821D01*
X882694Y803698D02*
X1100000D01*
X869987Y821698D02*
X952830D01*
X895216Y833698D02*
X1100000D01*
X894387Y839698D02*
X1100000D01*
X1041584Y593698D02*
X1048651D01*
X1027456Y617698D02*
X1053285D01*
X976375Y695698D02*
X1079822D01*
X1042904Y599698D02*
X1047331D01*
X954468Y711367D02*
Y735333D01*
X960468Y716628D02*
Y730072D01*
X966468Y717791D02*
Y728909D01*
X979035Y707698D02*
X1078470D01*
X979217Y701698D02*
X1078470D01*
Y697050D02*
Y711550D01*
X972468Y716133D02*
Y730566D01*
X978468Y709405D02*
Y737295D01*
X1080467Y713547D02*
Y737308D01*
X1058980Y605698D02*
X1100000D01*
X1059617Y593698D02*
X1100000D01*
X1026622Y629698D02*
X1100000D01*
X1054983Y617698D02*
X1100000D01*
X1030462Y623698D02*
X1100000D01*
X1061069Y611698D02*
X1100000D01*
X1060937Y599698D02*
X1100000D01*
X1078470Y697050D02*
X1085720Y689800D01*
X1100000D01*
X975661Y713698D02*
X1080618D01*
X1078470Y711550D02*
X1085720Y718800D01*
X974199Y731698D02*
X1084741D01*
X1085720Y718800D02*
X1100000D01*
X1086467D02*
Y730569D01*
X1092467Y718800D02*
Y728909D01*
X1098467Y718800D02*
Y730070D01*
X1100000Y718800D02*
Y730875D01*
X954468Y749467D02*
Y773433D01*
X972468Y754233D02*
Y768667D01*
X960468Y754728D02*
Y768172D01*
X966468Y755891D02*
Y767009D01*
X979408Y743698D02*
X1079533D01*
X978625Y737698D02*
X1080315D01*
X978468Y747505D02*
Y775395D01*
X1080467Y747493D02*
Y775407D01*
X979446Y779698D02*
X1079494D01*
X954468Y787567D02*
Y811533D01*
X960468Y792828D02*
Y806272D01*
Y830928D02*
Y844372D01*
X966468Y793991D02*
Y805109D01*
Y832091D02*
Y843209D01*
X972468Y792334D02*
Y806767D01*
X978468Y785605D02*
Y813495D01*
X1080467Y785592D02*
Y813508D01*
X972468Y830433D02*
Y844866D01*
X979154Y815698D02*
X1079786D01*
X979110Y821698D02*
X1079830D01*
X977327Y749698D02*
X1081613D01*
X968296Y755698D02*
X1090643D01*
X978429Y785698D02*
X1080511D01*
X970255Y767698D02*
X1088685D01*
X977631Y773698D02*
X1081309D01*
X1086467Y754231D02*
Y768669D01*
X1098467Y754730D02*
Y768170D01*
X1100000Y753925D02*
Y768975D01*
X1092467Y755891D02*
Y767009D01*
X1095297Y755698D02*
X1100000D01*
X1097255Y767698D02*
X1100000D01*
X973510Y791698D02*
X1085430D01*
X976119Y809698D02*
X1082821D01*
X975944Y827698D02*
X1082996D01*
X1086467Y792331D02*
Y806769D01*
X1098467Y792830D02*
Y806270D01*
X1100000Y792025D02*
Y807075D01*
X1092467Y793991D02*
Y805109D01*
Y832091D02*
Y843209D01*
X1098467Y830930D02*
Y844370D01*
X842239Y887698D02*
X900565D01*
X841761Y881698D02*
X906297D01*
X566421Y899698D02*
X897634D01*
X566421Y893698D02*
X898095D01*
X566421Y905698D02*
X899033D01*
X876468Y812139D02*
Y948993D01*
X906468Y570071D02*
Y881582D01*
X856322Y911698D02*
X902809D01*
X858468Y828403D02*
Y968796D01*
X864468Y830074D02*
Y967124D01*
X566421Y953698D02*
X869228D01*
X699829Y959698D02*
X869928D01*
X870468Y809642D02*
Y951490D01*
X882468Y839299D02*
Y953684D01*
X894468Y839573D02*
Y982895D01*
X882468Y958247D02*
Y983169D01*
X888468Y842833D02*
Y979634D01*
X900468Y908566D02*
Y1130000D01*
X566421Y851698D02*
X953431D01*
X566421Y845698D02*
X958147D01*
X854993Y857698D02*
X952507D01*
X851392Y869698D02*
X962322D01*
X566421Y875698D02*
X1100000D01*
X912468Y568420D02*
Y878876D01*
X857142Y863698D02*
X954425D01*
X857388Y917698D02*
X913073D01*
X922085D02*
X1100000D01*
X566421Y929698D02*
X1100000D01*
X566421Y923698D02*
X1100000D01*
X566421Y947698D02*
X1100000D01*
X566421Y935698D02*
X1100000D01*
X566421Y941698D02*
X1100000D01*
X906468Y914842D02*
Y1130000D01*
X912468Y917548D02*
Y1130000D01*
X918468Y918192D02*
Y1130000D01*
X882472Y953698D02*
X1100000D01*
X881772Y959698D02*
X1100000D01*
X566421Y971698D02*
X856539D01*
X566421Y977698D02*
X857207D01*
X566421Y983698D02*
X869496D01*
X566421Y989698D02*
X869556D01*
X870468Y960442D02*
Y982158D01*
X876468Y962939D02*
Y979661D01*
X858468Y979203D02*
Y1130000D01*
X566421Y1031697D02*
X976922D01*
X566421Y1043698D02*
X953537D01*
X566421Y1037698D02*
X956648D01*
X691896Y1049697D02*
X957244D01*
X864468Y980874D02*
Y1130000D01*
X894468Y990373D02*
Y1130000D01*
X882468Y990099D02*
Y1130000D01*
X870468Y991110D02*
Y1130000D01*
X888468Y993633D02*
Y1130000D01*
X876468Y993607D02*
Y1130000D01*
X566421Y1001697D02*
X1035000D01*
X566421Y995698D02*
X1035000D01*
X566421Y1019697D02*
X1007715D01*
X566421Y1007698D02*
X1035000D01*
X566421Y1013698D02*
X1009108D01*
X869761Y971698D02*
X1100000D01*
X699609Y965698D02*
X1100000D01*
X894844Y989698D02*
X1035000D01*
X869093Y977698D02*
X1100000D01*
X894904Y983698D02*
X1035000D01*
X566421Y1025697D02*
X979095D01*
X674982Y1067697D02*
X1035000D01*
X657220Y1085697D02*
X1035000D01*
X672334Y1073697D02*
X1035000D01*
X665346Y1079697D02*
X1035000D01*
X841499Y1091697D02*
X1035000D01*
X690097Y1055697D02*
X1035000D01*
X683738Y1061697D02*
X1035000D01*
X841504Y1109697D02*
X1035000D01*
X844751Y1097697D02*
X1035000D01*
X844751Y1103697D02*
X1035000D01*
X954468Y825667D02*
Y849633D01*
Y863767D02*
Y887733D01*
X928861Y881698D02*
X962717D01*
X934592Y887698D02*
X954489D01*
X978468Y823705D02*
Y851595D01*
X979433Y857698D02*
X1079507D01*
X960468Y869028D02*
Y882472D01*
X966468Y870191D02*
Y881309D01*
X972468Y868533D02*
Y882967D01*
X978468Y861805D02*
Y889695D01*
X937063Y893698D02*
X952515D01*
X937523Y899698D02*
X953390D01*
X978468Y899905D02*
Y1026364D01*
X1032467Y604033D02*
Y1130000D01*
X1050467Y616713D02*
Y980000D01*
X1038467Y604638D02*
Y980000D01*
X1020468Y629775D02*
Y1014404D01*
X1056467Y617350D02*
Y980000D01*
X1026468Y629774D02*
Y1130000D01*
X973793Y845698D02*
X1085147D01*
X978509Y851698D02*
X1080431D01*
X977515Y863698D02*
X1081425D01*
X969618Y869698D02*
X1089322D01*
X1080467Y823692D02*
Y851607D01*
X1100000Y830125D02*
Y845175D01*
X1086467Y830431D02*
Y844869D01*
X1096618Y869698D02*
X1100000D01*
X1092467Y870191D02*
Y881309D01*
X969223Y881698D02*
X1089717D01*
X979425Y893698D02*
X1079515D01*
X977451Y887698D02*
X1081489D01*
X978550Y899698D02*
X1080390D01*
X1080467Y861793D02*
Y889707D01*
X1086467Y868531D02*
Y882969D01*
X1100000Y868225D02*
Y883275D01*
X1080467Y899892D02*
Y980000D01*
X1096223Y881698D02*
X1100000D01*
X1098467Y869030D02*
Y882470D01*
X954468Y901867D02*
Y1040028D01*
X936125Y905698D02*
X958002D01*
X960468Y907128D02*
Y1036519D01*
X963826Y1049697D02*
X998609D01*
X966468Y908291D02*
Y1039804D01*
X964422Y1037698D02*
X982567D01*
X985167D02*
X998013D01*
X967533Y1043698D02*
X994902D01*
X930468Y913505D02*
Y1130000D01*
X936468Y904785D02*
Y1130000D01*
X924468Y916988D02*
Y1130000D01*
X960468Y1050519D02*
Y1130000D01*
X954468Y1047010D02*
Y1130000D01*
X972468Y906634D02*
Y1130000D01*
X990468Y1033150D02*
Y1130000D01*
X978468Y1035274D02*
Y1130000D01*
X966468Y1047234D02*
Y1130000D01*
X996468Y1047934D02*
Y1130000D01*
X984468Y1037793D02*
Y1130000D01*
X973938Y905698D02*
X1085002D01*
X932348Y911698D02*
X1100000D01*
X1019962Y1013698D02*
X1035000D01*
X988639Y1025697D02*
X1035000D01*
X1086467Y906631D02*
Y980000D01*
X1100000Y906325D02*
Y980000D01*
X1098467Y907130D02*
Y980000D01*
X1021355Y1019697D02*
X1035000D01*
Y980000D02*
X1100000D01*
X1092467Y908290D02*
Y980000D01*
X990812Y1031697D02*
X1035000D01*
X1002467Y1050496D02*
Y1130000D01*
X1005787Y1037698D02*
X1035000D01*
X1005191Y1049697D02*
X1035000D01*
X1008467Y1021610D02*
Y1041097D01*
X1035000Y980000D02*
Y1130000D01*
X1020468Y1021835D02*
Y1130000D01*
X1008467Y1045942D02*
Y1130000D01*
X1008898Y1043698D02*
X1035000D01*
X1014467Y1025119D02*
Y1130000D01*
X132469Y1185000D02*
Y1269612D01*
X138469Y1185000D02*
Y1269720D01*
X126469Y1185000D02*
Y1273363D01*
X144469Y1185000D02*
Y1273865D01*
X276469Y1185000D02*
Y1278160D01*
X288469Y1185000D02*
Y1198898D01*
X210469Y1185000D02*
Y1345510D01*
X216469Y1185000D02*
Y1346609D01*
X77000Y1205697D02*
X280009D01*
X282469Y1185000D02*
Y1202059D01*
X77000Y1217697D02*
X281871D01*
X77000Y1211697D02*
X279189D01*
X77000Y1199697D02*
X285907D01*
X294469Y1185000D02*
Y1199373D01*
X282469Y1218341D02*
Y1270509D01*
X294469Y1221027D02*
Y1271491D01*
X312469Y1185000D02*
Y1199253D01*
X318469Y1185000D02*
Y1198970D01*
X300469Y1185000D02*
Y1204311D01*
X306469Y1185000D02*
Y1203752D01*
X336469Y1185000D02*
Y1199807D01*
X342469Y1185000D02*
Y1198751D01*
X324469Y1185000D02*
Y1202429D01*
X330469Y1185000D02*
Y1206601D01*
X295275Y1199697D02*
X311307D01*
X301173Y1205697D02*
X305410D01*
X299312Y1217697D02*
X307271D01*
X301993Y1211697D02*
X304589D01*
X320676Y1199697D02*
X336707D01*
X326573Y1205697D02*
X330810D01*
X327393Y1211697D02*
X329989D01*
X324712Y1217697D02*
X332671D01*
X162469Y1185000D02*
Y1460000D01*
X168469Y1185000D02*
Y1460000D01*
X150469Y1185000D02*
Y1460000D01*
X156469Y1185000D02*
Y1460000D01*
X186469Y1185000D02*
Y1460000D01*
X192469Y1185000D02*
Y1368482D01*
X174469Y1185000D02*
Y1460000D01*
X180469Y1185000D02*
Y1460000D01*
X84469Y1185000D02*
Y1460000D01*
X90469Y1185000D02*
Y1460000D01*
X77000Y1185000D02*
Y1460000D01*
X78469Y1185000D02*
Y1460000D01*
X114469Y1185000D02*
Y1460000D01*
X120469Y1185000D02*
Y1460000D01*
X96469Y1185000D02*
Y1460000D01*
X108469Y1185000D02*
Y1460000D01*
X102469Y1185000D02*
Y1460000D01*
X204469Y1185000D02*
Y1347843D01*
X222469Y1185000D02*
Y1353609D01*
X198469Y1185000D02*
Y1365200D01*
X228469Y1185000D02*
Y1460000D01*
X234469Y1185000D02*
Y1389701D01*
X240469Y1185000D02*
Y1390634D01*
X246469Y1185000D02*
Y1440301D01*
X258469Y1185000D02*
Y1460000D01*
X252469Y1185000D02*
Y1460000D01*
X264469Y1185000D02*
Y1406727D01*
X270469Y1185000D02*
Y1403602D01*
X300469Y1216089D02*
Y1460000D01*
X306469Y1216648D02*
Y1460000D01*
X336469Y1220593D02*
Y1460000D01*
X348469Y1219264D02*
Y1460000D01*
X312469Y1221147D02*
Y1460000D01*
X330469Y1213799D02*
Y1460000D01*
X324469Y1217971D02*
Y1460000D01*
X366469Y1185000D02*
Y1198705D01*
X372469Y1185000D02*
Y1200199D01*
X348469Y1185000D02*
Y1201136D01*
X360469Y1185000D02*
Y1200594D01*
X77000Y1187697D02*
X1045000D01*
X77000Y1185000D02*
X1045000D01*
X384469D02*
Y1199173D01*
X390469Y1185000D02*
Y1197700D01*
X346075Y1199697D02*
X362107D01*
X351973Y1205697D02*
X356209D01*
X352793Y1211697D02*
X355389D01*
X377373Y1205697D02*
X379691D01*
X77000Y1193697D02*
X1045000D01*
X385941Y1197700D02*
X398441D01*
X371475Y1199697D02*
X383944D01*
X379691Y1203950D02*
X385941Y1197700D01*
X396469Y1185000D02*
Y1197700D01*
X402469Y1185000D02*
Y1201728D01*
X398441Y1197700D02*
X404691Y1203950D01*
X510468Y1185000D02*
Y1198718D01*
X516469Y1185000D02*
Y1200019D01*
X444469Y1185000D02*
Y1204701D01*
X504468Y1185000D02*
Y1200820D01*
X450469Y1185000D02*
Y1203402D01*
X404691Y1205697D02*
X443441D01*
X404691Y1203950D02*
Y1216450D01*
Y1211697D02*
X441962D01*
X400438Y1199697D02*
X506437D01*
X515806D02*
X531837D01*
X454159Y1205697D02*
X500540D01*
X521703D02*
X525939D01*
X455638Y1211697D02*
X499719D01*
X354469Y1185000D02*
Y1460000D01*
X378469Y1185000D02*
Y1269268D01*
X379691Y1203950D02*
Y1216450D01*
X408469Y1185000D02*
Y1460000D01*
X414469Y1185000D02*
Y1460000D01*
X420469Y1185000D02*
Y1460000D01*
X350112Y1217697D02*
X358071D01*
X375512D02*
X380938D01*
X360469Y1219806D02*
Y1460000D01*
X372469Y1220201D02*
Y1270836D01*
X403444Y1217697D02*
X502401D01*
X379691Y1216450D02*
X385941Y1222700D01*
X398441D02*
X404691Y1216450D01*
X402469Y1218673D02*
Y1460000D01*
X438469Y1185000D02*
Y1365843D01*
X456469Y1185000D02*
Y1345641D01*
X426469Y1185000D02*
Y1460000D01*
X432469Y1185000D02*
Y1460000D01*
X462469Y1185000D02*
Y1348703D01*
X480469Y1185000D02*
Y1389467D01*
X468469Y1185000D02*
Y1460000D01*
X498469Y1185000D02*
Y1460000D01*
X474469Y1185000D02*
Y1391533D01*
X450469Y1216998D02*
Y1346185D01*
X444469Y1215699D02*
Y1351289D01*
X486469Y1185000D02*
Y1395737D01*
X519841Y1217697D02*
X527801D01*
X492469Y1185000D02*
Y1441696D01*
X504468Y1219580D02*
Y1460000D01*
X516469Y1220381D02*
Y1404358D01*
X77000Y1277697D02*
X124187D01*
X77000Y1271697D02*
X128198D01*
X77000Y1289697D02*
X128025D01*
X77000Y1283697D02*
X124150D01*
X142341Y1271697D02*
X280599D01*
X146353Y1277697D02*
X276587D01*
X146390Y1283697D02*
X276550D01*
X77000Y1361697D02*
X200988D01*
X77000Y1355697D02*
X200040D01*
X77000Y1373697D02*
X191562D01*
X77000Y1367697D02*
X193041D01*
X77000Y1349697D02*
X202559D01*
X142515Y1289697D02*
X280425D01*
X77000Y1403697D02*
X269140D01*
X77000Y1391697D02*
X231315D01*
X77000Y1397697D02*
X229621D01*
X288469Y1221503D02*
Y1269294D01*
X298790Y1283697D02*
X367150D01*
X276469Y1283372D02*
Y1407292D01*
X384469Y1221228D02*
Y1271080D01*
X385941Y1222700D02*
X398441D01*
X294741Y1271697D02*
X371199D01*
X298753Y1277697D02*
X367187D01*
X203759Y1367697D02*
X207335D01*
X204469Y1366089D02*
Y1368712D01*
X222900Y1355697D02*
X443040D01*
X294915Y1289697D02*
X371025D01*
X205238Y1373697D02*
X434562D01*
X215605Y1367697D02*
X436041D01*
X138469Y1291812D02*
Y1460000D01*
X144469Y1287667D02*
Y1460000D01*
X126469Y1288169D02*
Y1460000D01*
X132469Y1291920D02*
Y1460000D01*
X216469Y1367323D02*
Y1460000D01*
X222469Y1360323D02*
Y1460000D01*
X204469Y1375688D02*
Y1460000D01*
X210469Y1368422D02*
Y1460000D01*
X77000Y1445697D02*
X238256D01*
X234469Y1403099D02*
Y1460000D01*
X192469Y1375918D02*
Y1460000D01*
X198469Y1379200D02*
Y1460000D01*
X77000Y1415697D02*
X265502D01*
X77000Y1409697D02*
X263358D01*
X77000Y1451697D02*
X239764D01*
X240469Y1402166D02*
Y1441917D01*
X318469Y1221430D02*
Y1460000D01*
X342469Y1221649D02*
Y1460000D01*
X282469Y1291023D02*
Y1460000D01*
X294469Y1290041D02*
Y1460000D01*
X390469Y1222700D02*
Y1460000D01*
X396469Y1222700D02*
Y1460000D01*
X366469Y1221695D02*
Y1460000D01*
X384469Y1290452D02*
Y1460000D01*
X372469Y1290696D02*
Y1460000D01*
X264469Y1414473D02*
Y1460000D01*
X270469Y1417598D02*
Y1460000D01*
X240469Y1452415D02*
Y1460000D01*
X246469Y1454031D02*
Y1460000D01*
X276469Y1413908D02*
Y1460000D01*
X288469Y1292238D02*
Y1460000D01*
X378469Y1292264D02*
Y1460000D01*
X438469Y1378557D02*
Y1460000D01*
X77000Y1253697D02*
X1045000D01*
X77000Y1247697D02*
X1045000D01*
X77000Y1265697D02*
X1045000D01*
X77000Y1259697D02*
X1045000D01*
X77000Y1229697D02*
X1045000D01*
X77000Y1223697D02*
X1045000D01*
X77000Y1241697D02*
X1045000D01*
X77000Y1235697D02*
X1045000D01*
X77000Y1331697D02*
X1045000D01*
X77000Y1325697D02*
X1045000D01*
X77000Y1385697D02*
X912019D01*
X77000Y1379697D02*
X912212D01*
X77000Y1301697D02*
X1045000D01*
X77000Y1295697D02*
X1045000D01*
X77000Y1319697D02*
X1045000D01*
X77000Y1307697D02*
X1045000D01*
X77000Y1313697D02*
X1045000D01*
X389353Y1277697D02*
X519587D01*
X389390Y1283697D02*
X519550D01*
X220381Y1349697D02*
X445559D01*
X385341Y1271697D02*
X523599D01*
X385515Y1289697D02*
X523425D01*
X77000Y1343697D02*
X911672D01*
X77000Y1337697D02*
X1045000D01*
X221952Y1361697D02*
X443988D01*
X444469Y1362643D02*
Y1365909D01*
X446759Y1367697D02*
X450335D01*
X463381Y1349697D02*
X687759D01*
X465900Y1355697D02*
X685240D01*
X448238Y1373697D02*
X676762D01*
X464952Y1361697D02*
X686188D01*
X458605Y1367697D02*
X678241D01*
X456469Y1368291D02*
Y1460000D01*
X462469Y1365229D02*
Y1460000D01*
X444469Y1378492D02*
Y1460000D01*
X450469Y1367747D02*
Y1460000D01*
X241685Y1391697D02*
X474315D01*
X243379Y1397697D02*
X472621D01*
X271460Y1403697D02*
X512140D01*
X277241Y1409697D02*
X506358D01*
X77000Y1427697D02*
X1045000D01*
X275098Y1415697D02*
X508502D01*
X250436Y1451697D02*
X482764D01*
X251944Y1445697D02*
X481256D01*
X77000Y1433697D02*
X1045000D01*
X77000Y1421697D02*
X1045000D01*
X77000Y1460000D02*
X1045000D01*
X77000Y1439697D02*
X1045000D01*
X77000Y1457697D02*
X1045000D01*
X486469Y1397063D02*
Y1440359D01*
X474469Y1401267D02*
Y1460000D01*
X480469Y1403333D02*
Y1460000D01*
X484685Y1391697D02*
X716515D01*
X486379Y1397697D02*
X714821D01*
X510468Y1221681D02*
Y1404198D01*
X514460Y1403697D02*
X754340D01*
X486469Y1453973D02*
Y1460000D01*
X492469Y1452635D02*
Y1460000D01*
X510468Y1417002D02*
Y1460000D01*
X518098Y1415697D02*
X750702D01*
X520242Y1409697D02*
X748559D01*
X493436Y1451697D02*
X569364D01*
X516469Y1416842D02*
Y1460000D01*
X494944Y1445697D02*
X567856D01*
X534468Y1185000D02*
Y1198885D01*
X540468Y1185000D02*
Y1199399D01*
X528469Y1185000D02*
Y1201990D01*
X546469Y1185000D02*
Y1204429D01*
X558468Y1185000D02*
Y1199231D01*
X564468Y1185000D02*
Y1198986D01*
X552468Y1185000D02*
Y1203651D01*
X576468Y1185000D02*
Y1206397D01*
X541205Y1199697D02*
X557237D01*
X570468Y1185000D02*
Y1202506D01*
X547103Y1205697D02*
X551339D01*
X572503D02*
X576740D01*
X566605Y1199697D02*
X582637D01*
X588468Y1185000D02*
Y1198757D01*
X582468Y1185000D02*
Y1199774D01*
X594468Y1185000D02*
Y1201190D01*
X592005Y1199697D02*
X605974D01*
X612468Y1185000D02*
Y1198700D01*
X618468Y1185000D02*
Y1198700D01*
X606468Y1185000D02*
Y1199203D01*
X720468Y1185000D02*
Y1204615D01*
X726468Y1185000D02*
Y1198825D01*
X732468Y1185000D02*
Y1197727D01*
X738468Y1185000D02*
Y1199722D01*
X750468Y1185000D02*
Y1200771D01*
X601221Y1204450D02*
X606971Y1198700D01*
X618471D01*
X597903Y1205697D02*
X601221D01*
X618471Y1198700D02*
X624221Y1204450D01*
X619468Y1199697D02*
X724873D01*
X756468Y1185000D02*
Y1198715D01*
X624221Y1205697D02*
X719990D01*
X738429Y1199697D02*
X752367D01*
X743312Y1205697D02*
X746469D01*
X522468Y1185000D02*
Y1208331D01*
X600468Y1185000D02*
Y1460000D01*
X624468Y1185000D02*
Y1269983D01*
X630468Y1185000D02*
Y1275084D01*
X636468Y1185000D02*
Y1460000D01*
X642468Y1185000D02*
Y1460000D01*
X522523Y1211697D02*
X525119D01*
X547923D02*
X550519D01*
X522468Y1212068D02*
Y1272704D01*
X573323Y1211697D02*
X575919D01*
X598723D02*
X601221D01*
Y1204450D02*
Y1215950D01*
X624221Y1204450D02*
Y1215950D01*
Y1211697D02*
X719241D01*
X660468Y1185000D02*
Y1460000D01*
X666468Y1185000D02*
Y1460000D01*
X648468Y1185000D02*
Y1460000D01*
X654468Y1185000D02*
Y1460000D01*
X690468Y1185000D02*
Y1347282D01*
X696468Y1185000D02*
Y1345468D01*
X672468Y1185000D02*
Y1460000D01*
X684468Y1185000D02*
Y1365254D01*
X678468Y1185000D02*
Y1367439D01*
X702468Y1185000D02*
Y1347035D01*
X708468Y1185000D02*
Y1460000D01*
X714468Y1185000D02*
Y1460000D01*
X744468Y1185000D02*
Y1460000D01*
X762468Y1185000D02*
Y1200056D01*
X780468Y1185000D02*
Y1198872D01*
X768468Y1185000D02*
Y1208819D01*
X774468Y1185000D02*
Y1201922D01*
X786468Y1185000D02*
Y1199424D01*
X798468Y1185000D02*
Y1203551D01*
X792468Y1185000D02*
Y1204551D01*
X767633Y1205697D02*
X771869D01*
X768453Y1211697D02*
X771049D01*
X768468Y1211581D02*
Y1270142D01*
X761735Y1199697D02*
X777767D01*
X787135D02*
X803167D01*
X793033Y1205697D02*
X797269D01*
X793853Y1211697D02*
X796449D01*
X804468Y1185000D02*
Y1199209D01*
X810468Y1185000D02*
Y1199002D01*
X816468Y1185000D02*
Y1202584D01*
X822468Y1185000D02*
Y1203733D01*
X828468Y1185000D02*
Y1198700D01*
X834468Y1185000D02*
Y1198700D01*
X821751Y1204450D02*
X827501Y1198700D01*
X840468Y1185000D02*
Y1200167D01*
X827501Y1198700D02*
X839001D01*
X812535Y1199697D02*
X826504D01*
X818433Y1205697D02*
X821751D01*
X819253Y1211697D02*
X821751D01*
Y1204450D02*
Y1215950D01*
X839001Y1198700D02*
X844751Y1204450D01*
X839998Y1199697D02*
X1045000D01*
X844751Y1204450D02*
Y1215950D01*
Y1205697D02*
X1045000D01*
X844751Y1211697D02*
X1045000D01*
X912468Y1185000D02*
Y1341842D01*
X918468Y1185000D02*
Y1338500D01*
X900468Y1185000D02*
Y1460000D01*
X906468Y1185000D02*
Y1460000D01*
X924468Y1185000D02*
Y1341948D01*
X942468Y1185000D02*
Y1358062D01*
X930468Y1185000D02*
Y1460000D01*
X936468Y1185000D02*
Y1460000D01*
X858468Y1185000D02*
Y1460000D01*
X864468Y1185000D02*
Y1460000D01*
X846468Y1185000D02*
Y1460000D01*
X852468Y1185000D02*
Y1460000D01*
X888468Y1185000D02*
Y1460000D01*
X894468Y1185000D02*
Y1460000D01*
X870468Y1185000D02*
Y1460000D01*
X882468Y1185000D02*
Y1460000D01*
X876468Y1185000D02*
Y1460000D01*
X1014467Y1185000D02*
Y1460000D01*
X1020468Y1185000D02*
Y1460000D01*
X1002467Y1185000D02*
Y1460000D01*
X1008467Y1185000D02*
Y1460000D01*
X1044467Y1185000D02*
Y1460000D01*
X1045000Y1185000D02*
Y1460000D01*
X1026468Y1185000D02*
Y1460000D01*
X1038467Y1185000D02*
Y1460000D01*
X1032467Y1185000D02*
Y1460000D01*
X948468Y1185000D02*
Y1358221D01*
X966468Y1185000D02*
Y1343640D01*
X954468Y1185000D02*
Y1460000D01*
X960468Y1185000D02*
Y1460000D01*
X972468Y1185000D02*
Y1338540D01*
X978468Y1185000D02*
Y1340872D01*
X984468Y1185000D02*
Y1460000D01*
X996468Y1185000D02*
Y1460000D01*
X990468Y1185000D02*
Y1460000D01*
X528469Y1218410D02*
Y1269479D01*
X545242Y1217697D02*
X553201D01*
X540468Y1221001D02*
Y1274746D01*
X576468Y1214003D02*
Y1440393D01*
X570642Y1217697D02*
X578601D01*
X596042D02*
X602968D01*
X601221Y1215950D02*
X606971Y1221700D01*
X618471D02*
X624221Y1215950D01*
X534468Y1221515D02*
Y1269911D01*
X612468Y1221700D02*
Y1272506D01*
X541753Y1277697D02*
X609387D01*
X541790Y1283697D02*
X609350D01*
X606971Y1221700D02*
X618471D01*
X618468D02*
Y1269442D01*
X537741Y1271697D02*
X613399D01*
X537915Y1289697D02*
X613225D01*
X622474Y1217697D02*
X721649D01*
X720468Y1215785D02*
Y1389509D01*
X726468Y1221575D02*
Y1391275D01*
X732468Y1222673D02*
Y1440510D01*
X741653Y1217697D02*
X748331D01*
X762468Y1220344D02*
Y1275862D01*
X631553Y1277697D02*
X761787D01*
X750468Y1219629D02*
Y1405734D01*
X756468Y1221685D02*
Y1403667D01*
X688959Y1367697D02*
X692535D01*
X690468Y1366650D02*
Y1370848D01*
X631590Y1283697D02*
X761750D01*
X726468Y1401525D02*
Y1441308D01*
X762468Y1285670D02*
Y1409931D01*
X558468Y1221169D02*
Y1460000D01*
X564468Y1221414D02*
Y1460000D01*
X546469Y1215971D02*
Y1460000D01*
X552468Y1216749D02*
Y1460000D01*
X570468Y1217894D02*
Y1441590D01*
X582468Y1220626D02*
Y1460000D01*
X588468Y1221643D02*
Y1460000D01*
X594468Y1219210D02*
Y1460000D01*
X534468Y1291620D02*
Y1460000D01*
X540468Y1286786D02*
Y1460000D01*
X522468Y1288827D02*
Y1460000D01*
X528469Y1292053D02*
Y1460000D01*
X580036Y1451697D02*
X724964D01*
X581544Y1445697D02*
X723456D01*
X570468Y1452742D02*
Y1460000D01*
X576468Y1453939D02*
Y1460000D01*
X618468Y1292090D02*
Y1460000D01*
X624468Y1291548D02*
Y1460000D01*
X606468Y1221197D02*
Y1460000D01*
X612468Y1289026D02*
Y1460000D01*
X702468Y1366897D02*
Y1460000D01*
X738468Y1220678D02*
Y1460000D01*
X630468Y1286448D02*
Y1460000D01*
X696468Y1368464D02*
Y1460000D01*
X690468Y1373552D02*
Y1460000D01*
X720468Y1403291D02*
Y1460000D01*
X726468Y1453024D02*
Y1460000D01*
X678468Y1376961D02*
Y1460000D01*
X684468Y1379146D02*
Y1460000D01*
X732468Y1453822D02*
Y1460000D01*
X750468Y1415466D02*
Y1460000D01*
X762468Y1411269D02*
Y1460000D01*
X756468Y1417533D02*
Y1460000D01*
X765771Y1217697D02*
X773731D01*
X774468Y1218478D02*
Y1269378D01*
X627541Y1271697D02*
X765799D01*
X780468Y1221528D02*
Y1272133D01*
X791171Y1217697D02*
X799131D01*
X816572D02*
X823498D01*
X779941Y1271697D02*
X1045000D01*
X627715Y1289697D02*
X765625D01*
X705581Y1349697D02*
X912834D01*
X700805Y1367697D02*
X939092D01*
X707152Y1361697D02*
X938870D01*
X783953Y1277697D02*
X1045000D01*
X783990Y1283697D02*
X1045000D01*
X690438Y1373697D02*
X1045000D01*
X780115Y1289697D02*
X1045000D01*
X708100Y1355697D02*
X1045000D01*
X821751Y1215950D02*
X827501Y1221700D01*
X839001D01*
X844751Y1215950D01*
X924468Y1349052D02*
Y1379348D01*
X843004Y1217697D02*
X1045000D01*
X925200Y1343697D02*
X966452D01*
X979980D02*
X1045000D01*
X924038Y1349697D02*
X967614D01*
X912468Y1349158D02*
Y1379242D01*
X918468Y1352500D02*
Y1375900D01*
X951730Y1361697D02*
X1045000D01*
X978818Y1349697D02*
X1045000D01*
X951508Y1367697D02*
X1045000D01*
X978468Y1350128D02*
Y1378272D01*
X972468Y1352460D02*
Y1375940D01*
X792468Y1215849D02*
Y1460000D01*
X798468Y1216849D02*
Y1460000D01*
X780468Y1289398D02*
Y1460000D01*
X786468Y1220976D02*
Y1460000D01*
X816468Y1217816D02*
Y1460000D01*
X822468Y1216667D02*
Y1460000D01*
X804468Y1221191D02*
Y1460000D01*
X810468Y1221398D02*
Y1460000D01*
X726885Y1391697D02*
X1045000D01*
X728579Y1397697D02*
X1045000D01*
X768468Y1291390D02*
Y1460000D01*
X774468Y1292154D02*
Y1460000D01*
X756660Y1403697D02*
X1045000D01*
X762441Y1409697D02*
X1045000D01*
X735636Y1451697D02*
X1045000D01*
X760298Y1415697D02*
X1045000D01*
X737144Y1445697D02*
X1045000D01*
X840468Y1220233D02*
Y1460000D01*
X828468Y1221700D02*
Y1460000D01*
X834468Y1221700D02*
Y1460000D01*
X924660Y1379697D02*
X966992D01*
X966468Y1347360D02*
Y1381040D01*
X942468Y1370864D02*
Y1460000D01*
X948468Y1370705D02*
Y1460000D01*
X924468Y1386452D02*
Y1460000D01*
X966468Y1384760D02*
Y1460000D01*
X912468Y1386558D02*
Y1460000D01*
X918468Y1389900D02*
Y1460000D01*
X924853Y1385697D02*
X966799D01*
X979440Y1379697D02*
X1045000D01*
X972468Y1389860D02*
Y1460000D01*
X979633Y1385697D02*
X1045000D01*
X978468Y1387528D02*
Y1460000D01*
X782451Y1106649D02*
X787600Y1101500D01*
X757051Y1101149D02*
X760700Y1097500D01*
D49*
X782451Y1106649D02*
X782451Y1106649D01*
Y1100700D02*
Y1106649D01*
X612721Y1210200D02*
X612721Y1210200D01*
X561921Y1210200D02*
X561921Y1210200D01*
X290591Y1210200D02*
X290591Y1210200D01*
X497800Y467200D02*
X573864D01*
X434900Y404300D02*
X497800Y467200D01*
X564700Y459200D02*
X578464D01*
X567364Y439564D02*
X571000Y443200D01*
X567364Y297121D02*
X593634Y270851D01*
X567364Y297121D02*
Y439564D01*
X571000Y443200D02*
X573990D01*
X573991Y443199D02*
X578599D01*
X573990Y443200D02*
X573991Y443199D01*
X434900Y310234D02*
Y404300D01*
X419266Y294600D02*
X434900Y310234D01*
X442400Y273500D02*
X452450Y283550D01*
X416100Y273500D02*
X442400D01*
X407800Y265200D02*
X416100Y273500D01*
X374766Y265200D02*
X407800D01*
X452450Y283550D02*
X539634D01*
X461151Y270851D02*
X593634D01*
X443100Y252800D02*
X461151Y270851D01*
X349934Y268700D02*
X365834Y252800D01*
X443100D01*
X397166Y656200D02*
X427870D01*
X445803Y638267D01*
X497435D01*
X561921Y702754D02*
Y1100700D01*
X497435Y638267D02*
X561921Y702754D01*
X353366Y427400D02*
Y441400D01*
X280966Y485000D02*
X282816Y483150D01*
X395116D01*
X353366Y441400D02*
X395116Y483150D01*
X397166Y485200D01*
X280966Y656000D02*
X282736Y654230D01*
X395196D01*
X397166Y656200D01*
X281016Y598700D02*
X282636Y597080D01*
X395396D01*
X397216Y598900D01*
X280966Y542200D02*
X282836Y540330D01*
X395096D01*
X397166Y542400D01*
X467370Y620800D02*
X556970Y531200D01*
X578464D01*
X501800Y564520D02*
X551120Y515200D01*
X578464D01*
X281016Y589200D02*
X352520D01*
X377200Y564520D01*
X501800D01*
X280966Y532700D02*
X352290D01*
X385790Y499200D01*
X578464D01*
X280966Y646500D02*
X352150D01*
X377850Y620800D01*
X467370D01*
X539634Y283550D02*
X546550D01*
X557000Y294000D01*
Y451500D02*
X564700Y459200D01*
X501200Y393400D02*
X556900D01*
X557000Y393500D01*
Y294000D02*
Y393500D01*
Y451500D01*
X280966Y475500D02*
X310500Y445966D01*
Y416500D02*
Y445966D01*
Y416500D02*
X329500Y397500D01*
X384000D01*
X469700Y483200D01*
X578464D01*
D59*
X287670Y1280766D02*
D03*
D60*
X536521Y1100700D02*
D03*
X561921D02*
D03*
X587321D02*
D03*
X315991Y1100700D02*
D03*
X731651Y1100700D02*
D03*
X757051D02*
D03*
X782451D02*
D03*
X807851Y1100700D02*
D03*
X15840Y103580D02*
D03*
Y128980D02*
D03*
Y154380D02*
D03*
Y179780D02*
D03*
X501200Y393400D02*
D03*
X475800Y418800D02*
D03*
X287670Y1280766D02*
D03*
X290591Y1210200D02*
D03*
X561921Y1210200D02*
D03*
X782451Y1210200D02*
D03*
X731651Y1210200D02*
D03*
D61*
X392191Y1100700D02*
D03*
X833251D02*
D03*
X15840Y205180D02*
D03*
X392191Y1210200D02*
D03*
X612721D02*
D03*
D62*
X26970Y481900D02*
D03*
X26970Y558100D02*
D03*
X26970Y704300D02*
D03*
D63*
X26970Y634300D02*
D03*
X1092970Y704300D02*
D03*
D64*
X1067079Y257190D02*
D03*
D65*
X1067079Y358790D02*
D03*
D66*
X567600Y45300D02*
D03*
D68*
X573864Y467200D02*
D03*
X578464Y459200D02*
D03*
X704030Y603300D02*
D03*
X608030Y603300D02*
D03*
X578599Y443199D02*
D03*
X419266Y294600D02*
D03*
X421966Y260500D02*
D03*
X812470Y24200D02*
D03*
X824970D02*
D03*
X693100Y1372200D02*
D03*
X685400Y1439100D02*
D03*
X750000Y1383100D02*
D03*
X647800Y1389500D02*
D03*
X450900Y1372200D02*
D03*
X405600Y1389500D02*
D03*
X507800Y1383100D02*
D03*
X443200Y1439100D02*
D03*
X207900Y1372200D02*
D03*
X162600Y1389500D02*
D03*
X264800Y1383100D02*
D03*
X200200Y1439100D02*
D03*
X908000Y1285970D02*
D03*
X908000Y1400560D02*
D03*
X983900Y1422970D02*
D03*
X955182Y1346730D02*
D03*
X385234Y690700D02*
D03*
X320000Y196034D02*
D03*
X264234Y239800D02*
D03*
X264034Y267200D02*
D03*
X291600Y305366D02*
D03*
X376766Y242200D02*
D03*
X347400Y349034D02*
D03*
X278300Y1043066D02*
D03*
X385234Y748900D02*
D03*
Y809400D02*
D03*
X394800Y937066D02*
D03*
X141734Y219600D02*
D03*
X280966Y656000D02*
D03*
X280966Y646500D02*
D03*
X397166Y656200D02*
D03*
X397216Y598900D02*
D03*
X397166Y542400D02*
D03*
X397166Y485200D02*
D03*
X353366Y427400D02*
D03*
X280966Y475500D02*
D03*
X280966Y485000D02*
D03*
X280966Y532700D02*
D03*
X280966Y542200D02*
D03*
X281016Y589200D02*
D03*
X281016Y598700D02*
D03*
X1065800Y643500D02*
D03*
X908600Y709850D02*
D03*
X972201Y998069D02*
D03*
X908600Y944300D02*
D03*
Y793500D02*
D03*
X220216Y621500D02*
D03*
X220266Y564200D02*
D03*
X220216Y507700D02*
D03*
X220216Y450500D02*
D03*
X292616Y392900D02*
D03*
X336416Y450700D02*
D03*
X189200Y662266D02*
D03*
X305400Y662466D02*
D03*
Y491466D02*
D03*
X305400Y548666D02*
D03*
X305450Y605166D02*
D03*
X189200Y491266D02*
D03*
X189200Y548466D02*
D03*
X189250Y604966D02*
D03*
X261600Y433666D02*
D03*
X225066Y304300D02*
D03*
X402766Y195500D02*
D03*
X337416Y507900D02*
D03*
X337466Y564400D02*
D03*
X337416Y621700D02*
D03*
X241300Y1100466D02*
D03*
X606734Y759900D02*
D03*
X590699Y684634D02*
D03*
X564999Y647767D02*
D03*
X521000Y739766D02*
D03*
X965366Y515400D02*
D03*
Y570300D02*
D03*
X497435Y638267D02*
D03*
X696300Y323251D02*
D03*
X585996Y326500D02*
D03*
X673500Y351166D02*
D03*
X578464Y531200D02*
D03*
Y515200D02*
D03*
Y499200D02*
D03*
X578464Y483200D02*
D03*
X539634Y283550D02*
D03*
X593634Y270851D02*
D03*
X766869Y112920D02*
D03*
X374766Y265200D02*
D03*
X349934Y268700D02*
D03*
D69*
X1096970Y81200D02*
D03*
X1081970D02*
D03*
X1002470Y95700D02*
D03*
X1018470D02*
D03*
X1018970Y113200D02*
D03*
Y130200D02*
D03*
X1002470Y113200D02*
D03*
X1001970Y130200D02*
D03*
M02*
