G04 Layer_Color=65535*
%FSLAX44Y44*%
%MOMM*%
G71*
G01*
G75*
%ADD48C,0.3000*%
%ADD49C,0.2000*%
%ADD52C,0.2540*%
%ADD53C,0.2500*%
%ADD55C,0.4000*%
%ADD56C,0.7000*%
%ADD70C,0.1000*%
%ADD71C,0.6000*%
%ADD72C,0.1270*%
%ADD73C,0.1100*%
%ADD74R,12.1666X6.5532*%
G36*
X343100Y450700D02*
X332350Y444450D01*
Y456950D01*
X343100Y450700D01*
D02*
G37*
G36*
X226900Y507700D02*
X216150Y501450D01*
Y513950D01*
X226900Y507700D01*
D02*
G37*
G36*
X299300Y392900D02*
X288550Y386650D01*
Y399150D01*
X299300Y392900D01*
D02*
G37*
G36*
X226900Y450500D02*
X216150Y444250D01*
Y456750D01*
X226900Y450500D01*
D02*
G37*
G36*
X343100Y507900D02*
X332350Y501650D01*
Y514150D01*
X343100Y507900D01*
D02*
G37*
G36*
X226900Y621500D02*
X216150Y615250D01*
Y627750D01*
X226900Y621500D01*
D02*
G37*
G36*
X343100Y621700D02*
X332350Y615450D01*
Y627950D01*
X343100Y621700D01*
D02*
G37*
G36*
X226950Y564200D02*
X216200Y557950D01*
Y570450D01*
X226950Y564200D01*
D02*
G37*
G36*
X343150Y564400D02*
X332400Y558150D01*
Y570650D01*
X343150Y564400D01*
D02*
G37*
D48*
X16948Y932372D02*
Y952365D01*
X26945D01*
X30277Y949033D01*
Y942369D01*
X26945Y939036D01*
X16948D01*
X50271Y932372D02*
X36942D01*
X50271Y945701D01*
Y949033D01*
X46938Y952365D01*
X40274D01*
X36942Y949033D01*
X84853Y337289D02*
Y350618D01*
X64860D01*
Y337289D01*
X74857Y350618D02*
Y343953D01*
X84853Y330624D02*
Y317295D01*
Y323960D01*
X64860D01*
X84853Y310631D02*
X64860D01*
X74857D01*
Y297302D01*
X84853D01*
X64860D01*
Y290637D02*
Y283973D01*
Y287305D01*
X84853D01*
X81521Y290637D01*
X1056330Y935519D02*
Y955513D01*
X1066326D01*
X1069659Y952180D01*
Y945516D01*
X1066326Y942184D01*
X1056330D01*
X1076323Y935519D02*
X1082988D01*
X1079655D01*
Y955513D01*
X1076323Y952180D01*
X1004795Y421206D02*
Y441200D01*
X1014791D01*
X1018124Y437867D01*
Y431203D01*
X1014791Y427870D01*
X1004795D01*
X1024788Y437867D02*
X1028121Y441200D01*
X1034785D01*
X1038117Y437867D01*
Y434535D01*
X1034785Y431203D01*
X1031453D01*
X1034785D01*
X1038117Y427870D01*
Y424538D01*
X1034785Y421206D01*
X1028121D01*
X1024788Y424538D01*
X174790Y412698D02*
Y432691D01*
X184787D01*
X188119Y429359D01*
Y422695D01*
X184787Y419362D01*
X174790D01*
X204780Y412698D02*
Y432691D01*
X194783Y422695D01*
X208113D01*
X65916Y161572D02*
X69248Y164904D01*
Y171569D01*
X65916Y174901D01*
X62584D01*
X59252Y171569D01*
Y164904D01*
X55919Y161572D01*
X52587D01*
X49255Y164904D01*
Y171569D01*
X52587Y174901D01*
X69248Y154907D02*
X49255D01*
X55919Y148243D01*
X49255Y141578D01*
X69248D01*
X49255Y134914D02*
Y128249D01*
Y131582D01*
X69248D01*
X65916Y134914D01*
D49*
X709420Y277530D02*
G03*
X709420Y277530I-1000J0D01*
G01*
X605970Y250530D02*
G03*
X605970Y250530I-1000J0D01*
G01*
X1066470Y590430D02*
G03*
X1066470Y590430I-1000J0D01*
G01*
X856530Y710180D02*
G03*
X856530Y710180I-1000J0D01*
G01*
X973531Y1051139D02*
G03*
X973531Y1051139I-1000J0D01*
G01*
X856530Y944630D02*
G03*
X856530Y944630I-1000J0D01*
G01*
Y793830D02*
G03*
X856530Y793830I-1000J0D01*
G01*
X598550Y715900D02*
G03*
X586550Y715900I-6000J0D01*
G01*
X984800Y139370D02*
G03*
X984800Y139370I-1000J0D01*
G01*
X607800Y715900D02*
Y803900D01*
X576800Y715900D02*
Y803900D01*
Y715900D02*
X607800D01*
X576800Y803900D02*
X607800D01*
X987074Y142570D02*
Y172542D01*
X973866Y172542D02*
X987074Y172542D01*
X973866Y142570D02*
Y172542D01*
Y142570D02*
X987074Y142570D01*
X1085366Y93858D02*
Y123830D01*
Y93858D02*
X1098574Y93858D01*
Y123830D01*
X1085366Y123830D02*
X1098574Y123830D01*
X709626Y96394D02*
Y126366D01*
Y96394D02*
X722834Y96394D01*
Y126366D01*
X709626Y126366D02*
X722834Y126366D01*
X694126Y96394D02*
Y126366D01*
Y96394D02*
X707334Y96394D01*
Y126366D01*
X694126Y126366D02*
X707334Y126366D01*
X789074Y18104D02*
Y48076D01*
X775866Y48076D02*
X789074Y48076D01*
X775866Y18104D02*
Y48076D01*
Y18104D02*
X789074Y18104D01*
X804574D02*
Y48076D01*
X791366Y48076D02*
X804574Y48076D01*
X791366Y18104D02*
Y48076D01*
Y18104D02*
X804574Y18104D01*
X902040Y573696D02*
X932012D01*
X932012Y586904D01*
X902040D02*
X932012D01*
X902040Y573696D02*
X902040Y586904D01*
X141004Y1059196D02*
X170976D01*
X170976Y1072404D01*
X141004D02*
X170976D01*
X141004Y1059196D02*
X141004Y1072404D01*
X207458Y1024104D02*
X237430D01*
X207458Y1010896D02*
X207458Y1024104D01*
X207458Y1010896D02*
X237430D01*
X237430Y1024104D01*
X310096Y929024D02*
Y958996D01*
Y929024D02*
X323304Y929024D01*
Y958996D01*
X310096Y958996D02*
X323304Y958996D01*
X286204Y802796D02*
X316176D01*
X316176Y816004D01*
X286204D02*
X316176D01*
X286204Y802796D02*
X286204Y816004D01*
X286204Y742296D02*
X316176D01*
X316176Y755504D01*
X286204D02*
X316176D01*
X286204Y742296D02*
X286204Y755504D01*
X286204Y683596D02*
X316176D01*
X316176Y696804D01*
X286204D02*
X316176D01*
X286204Y683596D02*
X286204Y696804D01*
X630634Y569604D02*
Y599576D01*
X617426Y599576D02*
X630634Y599576D01*
X617426Y569604D02*
Y599576D01*
Y569604D02*
X630634Y569604D01*
X581426Y346358D02*
Y376330D01*
Y346358D02*
X594634Y346358D01*
Y376330D01*
X581426Y376330D02*
X594634Y376330D01*
X676926Y345324D02*
Y375296D01*
Y345324D02*
X690134Y345324D01*
Y375296D01*
X676926Y375296D02*
X690134Y375296D01*
X638634Y345070D02*
Y375042D01*
X625426Y375042D02*
X638634Y375042D01*
X625426Y345070D02*
Y375042D01*
Y345070D02*
X638634Y345070D01*
X580154Y343204D02*
X610126D01*
X580154Y329996D02*
X580154Y343204D01*
X580154Y329996D02*
X610126D01*
X610126Y343204D01*
X710634Y569604D02*
Y599576D01*
X697426Y599576D02*
X710634Y599576D01*
X697426Y569604D02*
Y599576D01*
Y569604D02*
X710634Y569604D01*
X614634Y569604D02*
Y599576D01*
X601426Y599576D02*
X614634Y599576D01*
X601426Y569604D02*
Y599576D01*
Y569604D02*
X614634Y569604D01*
X190624Y318404D02*
X220596D01*
X190624Y305196D02*
X190624Y318404D01*
X190624Y305196D02*
X220596D01*
X220596Y318404D01*
X266096Y155624D02*
Y185596D01*
Y155624D02*
X279304Y155624D01*
Y185596D01*
X266096Y185596D02*
X279304Y185596D01*
X364358Y329204D02*
X394330D01*
X364358Y315996D02*
X364358Y329204D01*
X364358Y315996D02*
X394330D01*
X394330Y329204D01*
X186804Y257276D02*
X216776D01*
X216776Y270484D01*
X186804D02*
X216776D01*
X186804Y257276D02*
X186804Y270484D01*
X186804Y241926D02*
X216776D01*
X216776Y255134D01*
X186804D02*
X216776D01*
X186804Y241926D02*
X186804Y255134D01*
X387604Y272296D02*
X417576D01*
X417576Y285504D01*
X387604D02*
X417576D01*
X387604Y272296D02*
X387604Y285504D01*
X190624Y302504D02*
X220596D01*
X190624Y289296D02*
X190624Y302504D01*
X190624Y289296D02*
X220596D01*
X220596Y302504D01*
X387824Y225504D02*
X417796D01*
X387824Y212296D02*
X387824Y225504D01*
X387824Y212296D02*
X417796D01*
X417796Y225504D01*
X356570Y166396D02*
X386542D01*
X386542Y179604D01*
X356570D02*
X386542D01*
X356570Y166396D02*
X356570Y179604D01*
X350504Y161770D02*
Y191742D01*
X337296Y191742D02*
X350504Y191742D01*
X337296Y161770D02*
Y191742D01*
Y161770D02*
X350504Y161770D01*
X335104Y161770D02*
Y191742D01*
X321896Y191742D02*
X335104Y191742D01*
X321896Y161770D02*
Y191742D01*
Y161770D02*
X335104Y161770D01*
X694634Y128796D02*
X724606D01*
X724606Y142004D01*
X694634D02*
X724606D01*
X694634Y128796D02*
X694634Y142004D01*
X1062574Y44604D02*
Y74576D01*
X1049366Y74576D02*
X1062574Y74576D01*
X1049366Y44604D02*
Y74576D01*
Y44604D02*
X1062574Y44604D01*
X933874Y37096D02*
X963846D01*
X963846Y50304D01*
X933874D02*
X963846D01*
X933874Y37096D02*
X933874Y50304D01*
X966874Y37096D02*
X996846D01*
X996846Y50304D01*
X966874D02*
X996846D01*
X966874Y37096D02*
X966874Y50304D01*
X1033866Y44604D02*
Y74576D01*
Y44604D02*
X1047074Y44604D01*
Y74576D01*
X1033866Y74576D02*
X1047074Y74576D01*
X949340Y1385096D02*
X979312D01*
X979312Y1398304D01*
X949340D02*
X979312D01*
X949340Y1385096D02*
X949340Y1398304D01*
X982158Y1398304D02*
X1012130D01*
X982158Y1385096D02*
X982158Y1398304D01*
X982158Y1385096D02*
X1012130D01*
X1012130Y1398304D01*
X949340Y1343304D02*
X979312D01*
X949340Y1330096D02*
X949340Y1343304D01*
X949340Y1330096D02*
X979312D01*
X979312Y1343304D01*
X912340D02*
X942312D01*
X912340Y1330096D02*
X912340Y1343304D01*
X912340Y1330096D02*
X942312D01*
X942312Y1343304D01*
X879870Y1330096D02*
X909842D01*
X909842Y1343304D01*
X879870D02*
X909842D01*
X879870Y1330096D02*
X879870Y1343304D01*
X912340Y1398304D02*
X942312D01*
X912340Y1385096D02*
X912340Y1398304D01*
X912340Y1385096D02*
X942312D01*
X942312Y1398304D01*
X895604Y1407460D02*
Y1437432D01*
X882396Y1437432D02*
X895604Y1437432D01*
X882396Y1407460D02*
Y1437432D01*
Y1407460D02*
X895604Y1407460D01*
X866328Y587404D02*
X896300D01*
X866328Y574196D02*
X866328Y587404D01*
X866328Y574196D02*
X896300D01*
X896300Y587404D01*
X884184Y514304D02*
X914156D01*
X884184Y501096D02*
X884184Y514304D01*
X884184Y501096D02*
X914156D01*
X914156Y514304D01*
X263238Y1092170D02*
Y1122142D01*
X250030Y1122142D02*
X263238Y1122142D01*
X250030Y1092170D02*
Y1122142D01*
Y1092170D02*
X263238Y1092170D01*
X254170Y1068996D02*
X284142D01*
X284142Y1082204D01*
X254170D02*
X284142D01*
X254170Y1068996D02*
X254170Y1082204D01*
X414904Y928770D02*
Y958742D01*
X401696Y958742D02*
X414904Y958742D01*
X401696Y928770D02*
Y958742D01*
Y928770D02*
X414904Y928770D01*
X416604Y810670D02*
Y840642D01*
X403396Y840642D02*
X416604Y840642D01*
X403396Y810670D02*
Y840642D01*
Y810670D02*
X416604Y810670D01*
Y750170D02*
Y780142D01*
X403396Y780142D02*
X416604Y780142D01*
X403396Y750170D02*
Y780142D01*
Y750170D02*
X416604Y750170D01*
Y691970D02*
Y721942D01*
X403396Y721942D02*
X416604Y721942D01*
X403396Y691970D02*
Y721942D01*
Y691970D02*
X416604Y691970D01*
X610634Y346104D02*
Y376076D01*
X597426Y376076D02*
X610634Y376076D01*
X597426Y346104D02*
Y376076D01*
Y346104D02*
X610634Y346104D01*
X198104Y341970D02*
Y371942D01*
X184896Y371942D02*
X198104Y371942D01*
X184896Y341970D02*
Y371942D01*
Y341970D02*
X198104Y341970D01*
X184896Y374158D02*
Y404130D01*
Y374158D02*
X198104Y374158D01*
Y404130D01*
X184896Y404130D02*
X198104Y404130D01*
X190624Y334204D02*
X220596D01*
X190624Y320996D02*
X190624Y334204D01*
X190624Y320996D02*
X220596D01*
X220596Y334204D01*
X364358Y313704D02*
X394330D01*
X364358Y300496D02*
X364358Y313704D01*
X364358Y300496D02*
X394330D01*
X394330Y313704D01*
X286525Y332224D02*
Y362196D01*
Y332224D02*
X299733Y332224D01*
Y362196D01*
X286525Y362196D02*
X299733Y362196D01*
X271110Y332224D02*
Y362196D01*
Y332224D02*
X284318Y332224D01*
Y362196D01*
X271110Y362196D02*
X284318Y362196D01*
X255696Y332224D02*
Y362196D01*
Y332224D02*
X268904Y332224D01*
Y362196D01*
X255696Y362196D02*
X268904Y362196D01*
X178996Y206224D02*
Y236196D01*
Y206224D02*
X192204Y206224D01*
Y236196D01*
X178996Y236196D02*
X192204Y236196D01*
X163496Y206224D02*
Y236196D01*
Y206224D02*
X176704Y206224D01*
Y236196D01*
X163496Y236196D02*
X176704Y236196D01*
X363596Y332224D02*
Y362196D01*
Y332224D02*
X376804Y332224D01*
Y362196D01*
X363596Y362196D02*
X376804Y362196D01*
X348182Y332224D02*
Y362196D01*
Y332224D02*
X361390Y332224D01*
Y362196D01*
X348182Y362196D02*
X361390Y362196D01*
X332767Y332224D02*
Y362196D01*
Y332224D02*
X345975Y332224D01*
Y362196D01*
X332767Y362196D02*
X345975Y362196D01*
X317353Y332224D02*
Y362196D01*
Y332224D02*
X330561Y332224D01*
Y362196D01*
X317353Y362196D02*
X330561Y362196D01*
X301939Y332224D02*
Y362196D01*
Y332224D02*
X315147Y332224D01*
Y362196D01*
X301939Y362196D02*
X315147Y362196D01*
X201444Y285984D02*
X231416D01*
X201444Y272776D02*
X201444Y285984D01*
X201444Y272776D02*
X231416D01*
X231416Y285984D01*
X201444Y239684D02*
X231416D01*
X201444Y226476D02*
X201444Y239684D01*
X201444Y226476D02*
X231416D01*
X231416Y239684D01*
X405158Y316704D02*
X435130D01*
X405158Y303496D02*
X405158Y316704D01*
X405158Y303496D02*
X435130D01*
X435130Y316704D01*
X405158Y301204D02*
X435130D01*
X405158Y287996D02*
X405158Y301204D01*
X405158Y287996D02*
X435130D01*
X435130Y301204D01*
X200404Y358696D02*
X230376D01*
X230376Y371904D01*
X200404D02*
X230376D01*
X200404Y358696D02*
X200404Y371904D01*
X200404Y374196D02*
X230376D01*
X230376Y387404D01*
X200404D02*
X230376D01*
X200404Y374196D02*
X200404Y387404D01*
X219224Y241926D02*
X249196D01*
X249196Y255134D01*
X219224D02*
X249196D01*
X219224Y241926D02*
X219224Y255134D01*
X219224Y257276D02*
X249196D01*
X249196Y270484D01*
X219224D02*
X249196D01*
X219224Y257276D02*
X219224Y270484D01*
X254196Y203404D02*
Y233376D01*
Y203404D02*
X267404Y203404D01*
Y233376D01*
X254196Y233376D02*
X267404Y233376D01*
X252004Y203404D02*
Y233376D01*
X238796Y233376D02*
X252004Y233376D01*
X238796Y203404D02*
Y233376D01*
Y203404D02*
X252004Y203404D01*
X958556Y270144D02*
X1023580D01*
X1024596Y269128D01*
Y245506D02*
Y269128D01*
X1023326Y244236D02*
X1024596Y245506D01*
X959064Y244236D02*
X1023326D01*
X957032Y246268D02*
X959064Y244236D01*
X957032Y246268D02*
Y268620D01*
X958556Y270144D01*
X1010316Y510386D02*
Y575410D01*
X1011332Y576426D01*
X1034954D01*
X1036224Y575156D01*
Y510894D02*
Y575156D01*
X1034192Y508862D02*
X1036224Y510894D01*
X1011840Y508862D02*
X1034192D01*
X1010316Y510386D02*
X1011840Y508862D01*
X941356Y527754D02*
X1006380D01*
X1007396Y526738D01*
Y503116D02*
Y526738D01*
X1006126Y501846D02*
X1007396Y503116D01*
X941864Y501846D02*
X1006126D01*
X939832Y503878D02*
X941864Y501846D01*
X939832Y503878D02*
Y526230D01*
X941356Y527754D01*
Y583254D02*
X1006380D01*
X1007396Y582238D01*
Y558616D02*
Y582238D01*
X1006126Y557346D02*
X1007396Y558616D01*
X941864Y557346D02*
X1006126D01*
X939832Y559378D02*
X941864Y557346D01*
X939832Y559378D02*
Y581730D01*
X941356Y583254D01*
X663904Y1267812D02*
X728928D01*
X662888Y1268828D02*
X663904Y1267812D01*
X662888Y1268828D02*
Y1292450D01*
X664158Y1293720D01*
X728420D01*
X730452Y1291688D01*
Y1269336D02*
Y1291688D01*
X728928Y1267812D02*
X730452Y1269336D01*
X421704Y1267812D02*
X486728D01*
X420688Y1268828D02*
X421704Y1267812D01*
X420688Y1268828D02*
Y1292450D01*
X421958Y1293720D01*
X486220D01*
X488252Y1291688D01*
Y1269336D02*
Y1291688D01*
X486728Y1267812D02*
X488252Y1269336D01*
X178704Y1267812D02*
X243728D01*
X177688Y1268828D02*
X178704Y1267812D01*
X177688Y1268828D02*
Y1292450D01*
X178958Y1293720D01*
X243220D01*
X245252Y1291688D01*
Y1269336D02*
Y1291688D01*
X243728Y1267812D02*
X245252Y1269336D01*
X753160Y1416950D02*
X754430Y1418220D01*
Y1430920D01*
X753160Y1432190D02*
X754430Y1430920D01*
X725220Y1432190D02*
X753160D01*
X731316Y1416950D02*
X753160D01*
X725220Y1423046D02*
X731316Y1416950D01*
X725220Y1423046D02*
Y1432190D01*
X510960Y1416950D02*
X512230Y1418220D01*
Y1430920D01*
X510960Y1432190D02*
X512230Y1430920D01*
X483020Y1432190D02*
X510960D01*
X489116Y1416950D02*
X510960D01*
X483020Y1423046D02*
X489116Y1416950D01*
X483020Y1423046D02*
Y1432190D01*
X267960Y1416950D02*
X269230Y1418220D01*
Y1430920D01*
X267960Y1432190D02*
X269230Y1430920D01*
X240020Y1432190D02*
X267960D01*
X246116Y1416950D02*
X267960D01*
X240020Y1423046D02*
X246116Y1416950D01*
X240020Y1423046D02*
Y1432190D01*
X706604Y1412570D02*
Y1442542D01*
X693396Y1442542D02*
X706604Y1442542D01*
X693396Y1412570D02*
Y1442542D01*
Y1412570D02*
X706604Y1412570D01*
X464404D02*
Y1442542D01*
X451196Y1442542D02*
X464404Y1442542D01*
X451196Y1412570D02*
Y1442542D01*
Y1412570D02*
X464404Y1412570D01*
X647558Y1380770D02*
X677530D01*
X647558Y1367562D02*
X647558Y1380770D01*
X647558Y1367562D02*
X677530D01*
X677530Y1380770D01*
X405358D02*
X435330D01*
X405358Y1367562D02*
X405358Y1380770D01*
X405358Y1367562D02*
X435330D01*
X435330Y1380770D01*
X646958Y1440504D02*
X676930D01*
X646958Y1427296D02*
X646958Y1440504D01*
X646958Y1427296D02*
X676930D01*
X676930Y1440504D01*
X404758D02*
X434730D01*
X404758Y1427296D02*
X404758Y1440504D01*
X404758Y1427296D02*
X434730D01*
X434730Y1440504D01*
X221404Y1412570D02*
Y1442542D01*
X208196Y1442542D02*
X221404Y1442542D01*
X208196Y1412570D02*
Y1442542D01*
Y1412570D02*
X221404Y1412570D01*
X162358Y1380770D02*
X192330D01*
X162358Y1367562D02*
X162358Y1380770D01*
X162358Y1367562D02*
X192330D01*
X192330Y1380770D01*
X161758Y1440504D02*
X191730D01*
X161758Y1427296D02*
X161758Y1440504D01*
X161758Y1427296D02*
X191730D01*
X191730Y1440504D01*
X677904Y1382870D02*
Y1412842D01*
X664696Y1412842D02*
X677904Y1412842D01*
X664696Y1382870D02*
Y1412842D01*
Y1382870D02*
X677904Y1382870D01*
X435704D02*
Y1412842D01*
X422496Y1412842D02*
X435704Y1412842D01*
X422496Y1382870D02*
Y1412842D01*
Y1382870D02*
X435704Y1382870D01*
X647558Y1365104D02*
X677530D01*
X647558Y1351896D02*
X647558Y1365104D01*
X647558Y1351896D02*
X677530D01*
X677530Y1365104D01*
X405358D02*
X435330D01*
X405358Y1351896D02*
X405358Y1365104D01*
X405358Y1351896D02*
X435330D01*
X435330Y1365104D01*
X646196Y1395123D02*
Y1425096D01*
Y1395123D02*
X659404Y1395123D01*
Y1425095D01*
X646196Y1425096D02*
X659404Y1425095D01*
X403996Y1395123D02*
Y1425096D01*
Y1395123D02*
X417204Y1395123D01*
Y1425095D01*
X403996Y1425096D02*
X417204Y1425095D01*
X595196Y1350932D02*
Y1380904D01*
Y1350932D02*
X608404Y1350932D01*
Y1380904D01*
X595196Y1380904D02*
X608404Y1380904D01*
X352996Y1350932D02*
Y1380904D01*
Y1350932D02*
X366204Y1350932D01*
Y1380904D01*
X352996Y1380904D02*
X366204Y1380904D01*
X611137Y1367696D02*
X641109D01*
X641109Y1380904D01*
X611137D02*
X641109D01*
X611137Y1367696D02*
X611137Y1380904D01*
X368937Y1367696D02*
X398909D01*
X398909Y1380904D01*
X368937D02*
X398909D01*
X368937Y1367696D02*
X368937Y1380904D01*
X454742Y1203596D02*
X484714D01*
X484714Y1216804D01*
X454742D02*
X484714D01*
X454742Y1203596D02*
X454742Y1216804D01*
X192704Y1382870D02*
Y1412842D01*
X179496Y1412842D02*
X192704Y1412842D01*
X179496Y1382870D02*
Y1412842D01*
Y1382870D02*
X192704Y1382870D01*
X413328Y1203596D02*
X443300D01*
X443300Y1216804D01*
X413328D02*
X443300D01*
X413328Y1203596D02*
X413328Y1216804D01*
X162358Y1365104D02*
X192330D01*
X162358Y1351896D02*
X162358Y1365104D01*
X162358Y1351896D02*
X192330D01*
X192330Y1365104D01*
X160996Y1395123D02*
Y1425096D01*
Y1395123D02*
X174204Y1395123D01*
Y1425095D01*
X160996Y1425096D02*
X174204Y1425095D01*
X109996Y1350932D02*
Y1380904D01*
Y1350932D02*
X123204Y1350932D01*
Y1380904D01*
X109996Y1380904D02*
X123204Y1380904D01*
X125937Y1367696D02*
X155909D01*
X155909Y1380904D01*
X125937D02*
X155909D01*
X125937Y1367696D02*
X125937Y1380904D01*
X604530Y415700D02*
X731530D01*
X604530Y542700D02*
X731530D01*
Y415700D02*
Y542700D01*
X604530Y415700D02*
Y542700D01*
X181300Y1123800D02*
X236300D01*
X181300Y1083800D02*
Y1123800D01*
Y1083800D02*
X236300Y1083800D01*
Y1123800D01*
X218300Y1066400D02*
X273300D01*
X218300Y1026400D02*
Y1066400D01*
Y1026400D02*
X273300Y1026400D01*
Y1066400D01*
X334800Y960400D02*
X389800D01*
X334800Y920400D02*
Y960400D01*
Y920400D02*
X389800Y920400D01*
Y960400D01*
X334800Y842300D02*
X389800D01*
X334800Y802300D02*
Y842300D01*
Y802300D02*
X389800Y802300D01*
Y842300D01*
X334800Y781800D02*
X389800D01*
X334800Y741800D02*
Y781800D01*
Y741800D02*
X389800Y741800D01*
Y781800D01*
X334800Y723600D02*
X389800D01*
X334800Y683600D02*
Y723600D01*
Y683600D02*
X389800Y683600D01*
Y723600D01*
X816403Y120270D02*
X826400D01*
Y126934D01*
Y130267D02*
Y133599D01*
Y131933D01*
X816403D01*
X818069Y130267D01*
X652100Y482096D02*
Y472099D01*
X654099Y470100D01*
X658098D01*
X660097Y472099D01*
Y482096D01*
X672094Y470100D02*
X664096D01*
X672094Y478097D01*
Y480097D01*
X670094Y482096D01*
X666096D01*
X664096Y480097D01*
X684090Y482096D02*
X676092D01*
Y476098D01*
X680091Y478097D01*
X682090D01*
X684090Y476098D01*
Y472099D01*
X682090Y470100D01*
X678092D01*
X676092Y472099D01*
D52*
X724052Y1417458D02*
G03*
X724052Y1417458I-2896J0D01*
G01*
X481852D02*
G03*
X481852Y1417458I-2896J0D01*
G01*
X238852D02*
G03*
X238852Y1417458I-2896J0D01*
G01*
X281886Y295210D02*
G03*
X281886Y295210I-4016J0D01*
G01*
X191300Y1116300D02*
G03*
X191300Y1116300I-2500J0D01*
G01*
X228300Y1058900D02*
G03*
X228300Y1058900I-2500J0D01*
G01*
X344800Y952900D02*
G03*
X344800Y952900I-2500J0D01*
G01*
X344800Y834800D02*
G03*
X344800Y834800I-2500J0D01*
G01*
Y774300D02*
G03*
X344800Y774300I-2500J0D01*
G01*
Y716100D02*
G03*
X344800Y716100I-2500J0D01*
G01*
X353310Y142134D02*
Y180488D01*
Y142134D02*
X371344D01*
Y180488D01*
X353310D02*
X371344D01*
X311512Y140610D02*
X349866Y140610D01*
Y158644D01*
X311512Y158644D02*
X349866Y158644D01*
X311512Y140610D02*
Y158644D01*
X-34030Y239800D02*
Y399800D01*
Y239800D02*
X179970D01*
Y399800D01*
X-34030D02*
X179970D01*
X885080Y51188D02*
X885080Y12834D01*
X903114D01*
X903114Y51188D01*
X885080D02*
X903114D01*
X864080D02*
X864080Y12834D01*
X882114D01*
X882114Y51188D01*
X864080D02*
X882114D01*
X1056762Y135082D02*
X1083178Y135082D01*
Y86568D02*
Y135082D01*
X1081654Y85044D02*
X1083178Y86568D01*
X1058286Y85044D02*
X1081654Y85044D01*
X1056762Y86568D02*
X1058286Y85044D01*
X1056762Y135082D02*
X1056762Y86568D01*
X958504Y348476D02*
X1013876D01*
X958758Y376162D02*
X1013876D01*
Y348476D02*
Y376162D01*
X1018956Y352032D02*
Y373622D01*
X958504Y348476D02*
Y375968D01*
Y213476D02*
X1013876D01*
X958758Y241162D02*
X1013876D01*
Y213476D02*
Y241162D01*
X1018956Y217032D02*
Y238622D01*
X958504Y213476D02*
Y240968D01*
X994004Y142476D02*
X1049376D01*
X994258Y170162D02*
X1049376D01*
Y142476D02*
Y170162D01*
X1054456Y146032D02*
Y167622D01*
X994004Y142476D02*
Y169968D01*
X974050Y340970D02*
X1017230D01*
X1013420Y324778D02*
Y330493D01*
X974050Y314300D02*
X1017230D01*
X977860Y324778D02*
Y330493D01*
X974050Y320968D02*
X977860Y324778D01*
X974050Y314300D02*
Y320968D01*
Y334303D02*
X977860Y330493D01*
X974050Y334303D02*
Y340970D01*
X1013420Y324778D02*
X1017230Y320968D01*
Y314300D02*
Y320968D01*
X1013420Y330493D02*
X1017230Y334303D01*
Y340970D01*
X974050Y304670D02*
X1017230D01*
X1013420Y288477D02*
Y294193D01*
X974050Y278000D02*
X1017230D01*
X977860Y288477D02*
Y294193D01*
X974050Y284667D02*
X977860Y288477D01*
X974050Y278000D02*
Y284667D01*
Y298002D02*
X977860Y294193D01*
X974050Y298002D02*
Y304670D01*
X1013420Y288477D02*
X1017230Y284667D01*
Y278000D02*
Y284667D01*
X1013420Y294193D02*
X1017230Y298002D01*
Y304670D01*
X604377Y1427289D02*
X642477D01*
X643747Y1426019D01*
Y1384109D02*
Y1426019D01*
X604377Y1384109D02*
X643747D01*
X604377D02*
Y1427289D01*
X362177D02*
X400277D01*
X401547Y1426019D01*
Y1384109D02*
Y1426019D01*
X362177Y1384109D02*
X401547D01*
X362177D02*
Y1427289D01*
X119177D02*
X157277D01*
X158547Y1426019D01*
Y1384109D02*
Y1426019D01*
X119177Y1384109D02*
X158547D01*
X119177D02*
Y1427289D01*
X949610Y1401110D02*
Y1439210D01*
X950880Y1440480D01*
X992790D01*
Y1401110D02*
Y1440480D01*
X949610Y1401110D02*
X992790D01*
X942290Y1287790D02*
Y1325890D01*
X941020Y1286520D02*
X942290Y1287790D01*
X899110Y1286520D02*
X941020D01*
X899110D02*
Y1325890D01*
X942290D01*
X942290Y1402380D02*
Y1440480D01*
X941020Y1401110D02*
X942290Y1402380D01*
X899110Y1401110D02*
X941020D01*
X899110D02*
Y1440480D01*
X942290D01*
X710020Y11500D02*
X744310D01*
X745580Y12770D01*
Y80080D01*
X744310Y81350D02*
X745580Y80080D01*
X710020Y81350D02*
X744310D01*
X710020Y11500D02*
Y81350D01*
X679790Y1409706D02*
X706460D01*
Y1376686D02*
Y1409706D01*
X705190Y1375416D02*
X706460Y1376686D01*
X681060Y1375416D02*
X705190D01*
X679790Y1376686D02*
X681060Y1375416D01*
X679790Y1376686D02*
Y1409706D01*
X437590D02*
X464260D01*
Y1376686D02*
Y1409706D01*
X462990Y1375416D02*
X464260Y1376686D01*
X438860Y1375416D02*
X462990D01*
X437590Y1376686D02*
X438860Y1375416D01*
X437590Y1376686D02*
Y1409706D01*
X914080Y518750D02*
Y569550D01*
X883600Y518750D02*
X914080D01*
X883600Y569550D02*
X883600Y518750D01*
X889950Y569550D02*
X897570Y561930D01*
X883600Y569550D02*
X889950D01*
X897570Y561930D02*
X905190Y569550D01*
X914080Y569550D01*
X194590Y1409706D02*
X221260D01*
Y1376686D02*
Y1409706D01*
X219990Y1375416D02*
X221260Y1376686D01*
X195860Y1375416D02*
X219990D01*
X194590Y1376686D02*
X195860Y1375416D01*
X194590Y1376686D02*
Y1409706D01*
X350260Y221550D02*
Y279970D01*
X289300Y221550D02*
X350260D01*
X348990Y281240D02*
X350260Y279970D01*
X289300Y221550D02*
X289300Y267270D01*
X303270Y281240D01*
X348990D01*
X641408Y350150D02*
Y377074D01*
Y350150D02*
X674428D01*
Y371740D01*
X669094Y377074D02*
X674428Y371740D01*
X641408Y377074D02*
X669094D01*
X386300Y228610D02*
X419320D01*
Y269250D01*
X386300D02*
X419320D01*
X386300Y228610D02*
Y269250D01*
X906080Y51188D02*
X924114D01*
X924114Y12834D02*
X924114Y51188D01*
X906080Y12834D02*
X924114D01*
X906080Y51188D02*
X906080Y12834D01*
X1072592Y503048D02*
X1099008Y503048D01*
X1072592Y503048D02*
Y551562D01*
X1074116Y553086D01*
X1097484Y553086D01*
X1099008Y551562D01*
X1099008Y503048D01*
X1042592Y503048D02*
X1069008Y503048D01*
X1042592Y503048D02*
Y551562D01*
X1044116Y553086D01*
X1067484Y553086D01*
X1069008Y551562D01*
X1069008Y503048D01*
X1025456Y87046D02*
Y137846D01*
X994976Y87046D02*
X1025456D01*
X994976D02*
Y137846D01*
X1001326D02*
X1008946Y130226D01*
X994976Y137846D02*
X1001326D01*
X1008946Y130226D02*
X1016566Y137846D01*
X1025456D01*
X282778Y140892D02*
X304622D01*
X282778D02*
X282778Y188136D01*
X304622D01*
X304622Y140892D01*
X113592Y208678D02*
Y230522D01*
X160836Y230522D01*
Y208678D02*
Y230522D01*
X113592Y208678D02*
X160836Y208678D01*
X430808Y184578D02*
Y206422D01*
X383564Y184578D02*
X430808Y184578D01*
X383564Y184578D02*
Y206422D01*
X430808Y206422D01*
X673048Y1296178D02*
Y1318022D01*
X720292Y1318022D01*
Y1296178D02*
Y1318022D01*
X673048Y1296178D02*
X720292Y1296178D01*
X673048Y1320578D02*
Y1342422D01*
X720292Y1342422D01*
Y1320578D02*
Y1342422D01*
X673048Y1320578D02*
X720292Y1320578D01*
X430848Y1296178D02*
Y1318022D01*
X478092Y1318022D01*
Y1296178D02*
Y1318022D01*
X430848Y1296178D02*
X478092Y1296178D01*
X430848Y1320578D02*
Y1342422D01*
X478092Y1342422D01*
Y1320578D02*
Y1342422D01*
X430848Y1320578D02*
X478092Y1320578D01*
X187848Y1296178D02*
Y1318022D01*
X235092Y1318022D01*
Y1296178D02*
Y1318022D01*
X187848Y1296178D02*
X235092Y1296178D01*
X187848Y1320578D02*
Y1342422D01*
X235092Y1342422D01*
Y1320578D02*
Y1342422D01*
X187848Y1320578D02*
X235092Y1320578D01*
X137808Y1054878D02*
Y1076722D01*
X90564Y1054878D02*
X137808Y1054878D01*
X90564Y1054878D02*
Y1076722D01*
X137808Y1076722D01*
X90564Y1002008D02*
X112408D01*
X112408Y954764D02*
X112408Y1002008D01*
X90564Y954764D02*
X112408D01*
X90564Y1002008D02*
X90564Y954764D01*
X90564Y1004792D02*
X112408D01*
X90564D02*
X90564Y1052036D01*
X112408D01*
X112408Y1004792D01*
X120592Y1079978D02*
Y1101822D01*
X167836Y1101822D01*
Y1079978D02*
Y1101822D01*
X120592Y1079978D02*
X167836Y1079978D01*
X132878Y1044422D02*
X154722D01*
X154722Y997178D02*
X154722Y1044422D01*
X132878Y997178D02*
X154722D01*
X132878Y1044422D02*
X132878Y997178D01*
X132878Y984422D02*
X154722D01*
X154722Y937178D02*
X154722Y984422D01*
X132878Y937178D02*
X154722D01*
X132878Y984422D02*
X132878Y937178D01*
X157578Y967206D02*
X179422D01*
X157578D02*
X157578Y1014450D01*
X179422D01*
X179422Y967206D01*
X157592Y1022578D02*
Y1044422D01*
X204836Y1044422D01*
Y1022578D02*
Y1044422D01*
X157592Y1022578D02*
X204836Y1022578D01*
X260478Y944292D02*
X282322D01*
X260478D02*
X260478Y991536D01*
X282322D01*
X282322Y944292D01*
X185378Y991508D02*
X207222D01*
X207222Y944264D02*
X207222Y991508D01*
X185378Y944264D02*
X207222D01*
X185378Y991508D02*
X185378Y944264D01*
X210192Y971978D02*
Y993822D01*
X257436Y993822D01*
Y971978D02*
Y993822D01*
X210192Y971978D02*
X257436Y971978D01*
X285478Y961508D02*
X307322D01*
X307322Y914264D02*
X307322Y961508D01*
X285478Y914264D02*
X307322D01*
X285478Y961508D02*
X285478Y914264D01*
X283008Y798478D02*
Y820322D01*
X235764Y798478D02*
X283008Y798478D01*
X235764Y798478D02*
Y820322D01*
X283008Y820322D01*
X223008Y798478D02*
Y820322D01*
X175764Y798478D02*
X223008Y798478D01*
X175764Y798478D02*
Y820322D01*
X223008Y820322D01*
X205792Y823578D02*
Y845422D01*
X253036Y845422D01*
Y823578D02*
Y845422D01*
X205792Y823578D02*
X253036Y823578D01*
X265792Y823578D02*
Y845422D01*
X313036Y845422D01*
Y823578D02*
Y845422D01*
X265792Y823578D02*
X313036Y823578D01*
X283008Y737978D02*
Y759822D01*
X235764Y737978D02*
X283008Y737978D01*
X235764Y737978D02*
Y759822D01*
X283008Y759822D01*
X223008Y737978D02*
Y759822D01*
X175764Y737978D02*
X223008Y737978D01*
X175764Y737978D02*
Y759822D01*
X223008Y759822D01*
X205792Y763078D02*
Y784922D01*
X253036Y784922D01*
Y763078D02*
Y784922D01*
X205792Y763078D02*
X253036Y763078D01*
X265792Y763078D02*
Y784922D01*
X313036Y784922D01*
Y763078D02*
Y784922D01*
X265792Y763078D02*
X313036Y763078D01*
X283008Y679278D02*
Y701122D01*
X235764Y679278D02*
X283008Y679278D01*
X235764Y679278D02*
Y701122D01*
X283008Y701122D01*
X223008Y679278D02*
Y701122D01*
X175764Y679278D02*
X223008Y679278D01*
X175764Y679278D02*
Y701122D01*
X223008Y701122D01*
X205792Y704378D02*
Y726222D01*
X253036Y726222D01*
Y704378D02*
Y726222D01*
X205792Y704378D02*
X253036Y704378D01*
X265792Y704378D02*
Y726222D01*
X313036Y726222D01*
Y704378D02*
Y726222D01*
X265792Y704378D02*
X313036Y704378D01*
X475416Y454736D02*
X470337D01*
X472877D01*
Y442040D01*
X470337Y439501D01*
X467798D01*
X465259Y442040D01*
X480494Y439501D02*
X485572D01*
X483033D01*
Y454736D01*
X480494Y452197D01*
X331036Y271867D02*
X318340D01*
X315801Y269328D01*
Y264249D01*
X318340Y261710D01*
X331036D01*
X315801Y246475D02*
Y256632D01*
X325957Y246475D01*
X328496D01*
X331036Y249014D01*
Y254093D01*
X328496Y256632D01*
X331036Y231240D02*
X328496Y236318D01*
X323418Y241397D01*
X318340D01*
X315801Y238858D01*
Y233779D01*
X318340Y231240D01*
X320879D01*
X323418Y233779D01*
Y241397D01*
X585030Y741799D02*
X597726D01*
X600265Y744339D01*
Y749417D01*
X597726Y751956D01*
X585030D01*
X600265Y767191D02*
Y757035D01*
X590108Y767191D01*
X587569D01*
X585030Y764652D01*
Y759574D01*
X587569Y757035D01*
Y772270D02*
X585030Y774809D01*
Y779887D01*
X587569Y782426D01*
X590108D01*
X592647Y779887D01*
X595187Y782426D01*
X597726D01*
X600265Y779887D01*
Y774809D01*
X597726Y772270D01*
X595187D01*
X592647Y774809D01*
X590108Y772270D01*
X587569D01*
X592647Y774809D02*
Y779887D01*
X624943Y62104D02*
X627482Y59565D01*
X632561D01*
X635100Y62104D01*
Y72261D01*
X632561Y74800D01*
X627482D01*
X624943Y72261D01*
X619865Y59565D02*
X609708D01*
Y62104D01*
X619865Y72261D01*
Y74800D01*
D53*
X617550Y713300D02*
G03*
X617550Y713300I-1250J0D01*
G01*
X592780Y547450D02*
G03*
X592780Y547450I-1250J0D01*
G01*
D55*
X518440Y352760D02*
G03*
X518440Y352760I-2000J0D01*
G01*
X-53030Y443800D02*
X153970Y443800D01*
X-53030Y481900D02*
X153970Y481900D01*
X-53030Y520000D02*
X153970Y520000D01*
X-53030Y558100D02*
X153970Y558100D01*
X-53030Y596200D02*
X153970Y596200D01*
X-53030Y634300D02*
X153970Y634300D01*
X-53030Y417800D02*
X-53030Y660300D01*
X-53030Y417800D02*
X165970Y417800D01*
X165970Y660300D02*
X165970Y417800D01*
X-53030Y660300D02*
X165970Y660300D01*
X1067079Y257190D02*
X1167079Y257190D01*
X1067079Y307990D02*
X1167079Y307990D01*
X1067079Y358790D02*
X1167079Y358790D01*
X1067079Y409590D02*
X1167079Y409590D01*
X1047079Y221790D02*
X1167079Y221790D01*
X1067079Y460390D02*
X1167079Y460390D01*
X1047079Y221790D02*
X1047079Y495790D01*
X1167079Y221790D02*
X1167079Y495790D01*
X1047079Y495790D02*
X1167079Y495790D01*
X467600Y30300D02*
X667600D01*
X467600D02*
Y105300D01*
X667600Y30300D02*
Y105300D01*
X467600D02*
X667600D01*
X580100Y90300D02*
X590100D01*
X585100Y85300D02*
Y95300D01*
X953970Y678300D02*
X1172970Y678300D01*
X953970Y920800D02*
X953970Y678300D01*
X953970Y920800D02*
X1172970Y920800D01*
X1172970Y678300D02*
X1172970Y920800D01*
X965970Y704300D02*
X1172970Y704300D01*
X965970Y742400D02*
X1172970Y742400D01*
X965970Y780500D02*
X1172970Y780500D01*
X965970Y818600D02*
X1172970Y818600D01*
X965970Y856700D02*
X1172970Y856700D01*
X965970Y894800D02*
X1172970Y894800D01*
X-53030Y920800D02*
X165970Y920800D01*
X165970Y678300D01*
X-53030Y678300D02*
X165970Y678300D01*
X-53030Y678300D02*
X-53030Y920800D01*
Y894800D02*
X153970Y894800D01*
X-53030Y856700D02*
X153970Y856700D01*
X-53030Y818600D02*
X153970Y818600D01*
X-53030Y780500D02*
X153970Y780500D01*
X-53030Y742400D02*
X153970Y742400D01*
X-53030Y704300D02*
X153970Y704300D01*
D56*
X833704Y188520D02*
X953704D01*
X833704Y68520D02*
Y188520D01*
Y68520D02*
X833744Y68480D01*
X953806D01*
X953704Y68582D02*
X953806Y68480D01*
X953704Y68582D02*
Y188520D01*
D70*
X248400Y661500D02*
G03*
X248400Y661500I-500J0D01*
G01*
X618200Y685000D02*
G03*
X618200Y685000I-500J0D01*
G01*
X585600Y657500D02*
G03*
X585600Y657500I-500J0D01*
G01*
X531000Y632767D02*
G03*
X531000Y632767I-500J0D01*
G01*
X688004Y279200D02*
G03*
X676004Y279200I-6000J0D01*
G01*
X584554Y252201D02*
G03*
X572554Y252201I-6000J0D01*
G01*
X364600Y661700D02*
G03*
X364600Y661700I-500J0D01*
G01*
X364650Y604400D02*
G03*
X364650Y604400I-500J0D01*
G01*
X248450Y604200D02*
G03*
X248450Y604200I-500J0D01*
G01*
X248400Y547700D02*
G03*
X248400Y547700I-500J0D01*
G01*
X364600Y547900D02*
G03*
X364600Y547900I-500J0D01*
G01*
X364600Y490700D02*
G03*
X364600Y490700I-500J0D01*
G01*
X248400Y490500D02*
G03*
X248400Y490500I-500J0D01*
G01*
X1045054Y592100D02*
G03*
X1033054Y592100I-6000J0D01*
G01*
X857200Y730596D02*
G03*
X857200Y742596I0J6000D01*
G01*
X992947Y1049469D02*
G03*
X1004947Y1049469I6000J0D01*
G01*
X857200Y965046D02*
G03*
X857200Y977046I0J6000D01*
G01*
Y814246D02*
G03*
X857200Y826246I0J6000D01*
G01*
X320800Y432900D02*
G03*
X320800Y432900I-500J0D01*
G01*
X618200Y657500D02*
G03*
X618200Y657500I-500J0D01*
G01*
X756270Y105270D02*
G03*
X756270Y105270I-500J0D01*
G01*
X619071Y1088000D02*
X625421Y1094350D01*
X625421Y1107050D01*
X619071Y1113400D02*
X625421Y1107050D01*
X504771Y1113400D02*
X619071Y1113400D01*
X498421Y1107050D02*
X504771Y1113400D01*
X498421Y1094350D02*
Y1107050D01*
Y1094350D02*
X504771Y1088000D01*
X619071Y1088000D01*
X398541Y1088000D02*
X404891Y1094350D01*
X404891Y1107050D02*
X404891Y1094350D01*
X398541Y1113400D02*
X404891Y1107050D01*
X284241Y1113400D02*
X398541Y1113400D01*
X277891Y1107050D02*
X284241Y1113400D01*
X277891Y1094350D02*
Y1107050D01*
Y1094350D02*
X284241Y1088000D01*
X398541Y1088000D01*
X839601Y1088000D02*
X845951Y1094350D01*
Y1107050D01*
X839601Y1113400D02*
X845951Y1107050D01*
X725301Y1113400D02*
X839601Y1113400D01*
X718951Y1107050D02*
X725301Y1113400D01*
X718951Y1094350D02*
X718951Y1107050D01*
X718951Y1094350D02*
X725301Y1088000D01*
X839601Y1088000D01*
X691400Y1412070D02*
Y1435070D01*
X679400D02*
X691400D01*
X679400Y1412070D02*
X691400D01*
X679400D02*
Y1435070D01*
X724200Y1377100D02*
X747200D01*
Y1389100D01*
X724200Y1377100D02*
Y1389100D01*
X747200D01*
X724200Y1402400D02*
X747200D01*
X724200Y1390400D02*
Y1402400D01*
X747200Y1390400D02*
Y1402400D01*
X724200Y1390400D02*
X747200D01*
X482000Y1389100D02*
X505000D01*
X482000Y1377100D02*
Y1389100D01*
X505000Y1377100D02*
Y1389100D01*
X482000Y1377100D02*
X505000D01*
X482000Y1390400D02*
X505000D01*
Y1402400D01*
X482000Y1390400D02*
Y1402400D01*
X505000D01*
X437200Y1412070D02*
Y1435070D01*
Y1412070D02*
X449200D01*
X437200Y1435070D02*
X449200D01*
Y1412070D02*
Y1435070D01*
X206200Y1412070D02*
Y1435070D01*
X194200D02*
X206200D01*
X194200Y1412070D02*
X206200D01*
X194200D02*
Y1435070D01*
X239000Y1390400D02*
X262000D01*
Y1402400D01*
X239000Y1390400D02*
Y1402400D01*
X262000D01*
X239000Y1389100D02*
X262000D01*
X239000Y1377100D02*
Y1389100D01*
X262000Y1377100D02*
Y1389100D01*
X239000Y1377100D02*
X262000D01*
X175200Y659700D02*
X203200D01*
Y618200D02*
Y659700D01*
X175200Y618200D02*
X203200D01*
X175200D02*
Y659700D01*
X230600Y630900D02*
Y653900D01*
Y630900D02*
X242600D01*
X230600Y653900D02*
X242600D01*
Y630900D02*
Y653900D01*
X206400Y642900D02*
X229400D01*
X206400Y630900D02*
Y642900D01*
X229400Y630900D02*
Y642900D01*
X206400Y630900D02*
X229400D01*
X204300Y644000D02*
Y667000D01*
Y644000D02*
X216300D01*
X204300Y667000D02*
X216300D01*
Y644000D02*
Y667000D01*
X229400Y644000D02*
Y667000D01*
X217400D02*
X229400D01*
X217400Y644000D02*
X229400D01*
X217400D02*
Y667000D01*
X236900Y613250D02*
Y629750D01*
X206400Y613250D02*
X236900D01*
X206400D02*
Y629750D01*
X236900D01*
X227400Y615250D02*
Y627750D01*
X540100Y675800D02*
Y698800D01*
Y675800D02*
X552100D01*
X540100Y698800D02*
X552100D01*
Y675800D02*
Y698800D01*
X528100Y699900D02*
X551100D01*
Y711900D01*
X528100Y699900D02*
Y711900D01*
X551100Y711900D01*
X602900Y712600D02*
X602900Y689600D01*
X614900D01*
X602900Y712600D02*
X614900D01*
X614900Y689600D02*
X614900Y712600D01*
X634800Y767299D02*
Y790299D01*
Y767299D02*
X646800D01*
X634800Y790299D02*
X646800D01*
Y767299D02*
Y790299D01*
X634800Y742800D02*
Y765800D01*
Y742800D02*
X646800D01*
X634800Y765800D02*
X646800D01*
Y742800D02*
Y765800D01*
X572700Y687600D02*
X595700D01*
Y699600D01*
X572700Y687600D02*
Y699600D01*
X595700D01*
X572700Y712800D02*
X595700D01*
X572700Y700800D02*
X572700Y712800D01*
X595700D02*
X595700Y700800D01*
X572700Y700800D02*
X595700Y700800D01*
X583000Y654000D02*
Y677000D01*
X571000D02*
X583000D01*
X571000Y654000D02*
X583000D01*
X571000D02*
Y677000D01*
X634800Y716799D02*
Y739799D01*
Y716799D02*
X646800D01*
X634800Y739799D02*
X646800D01*
Y716799D02*
Y739799D01*
X528100Y713100D02*
X551100D01*
Y725100D01*
X528100Y713100D02*
Y725100D01*
X551100D01*
X527000Y689900D02*
Y712900D01*
X515000D02*
X527000D01*
X515000Y689900D02*
X527000D01*
X515000D02*
Y712900D01*
X553300Y780500D02*
X553300Y803500D01*
X541300D02*
X553300D01*
X541300Y780500D02*
X553300Y780500D01*
X541300Y780500D02*
X541300Y803500D01*
X515000Y675800D02*
X538000D01*
Y687800D01*
X515000Y675800D02*
Y687800D01*
X538000D01*
X528101Y662600D02*
X551101D01*
Y674600D01*
X528101Y662600D02*
Y674600D01*
X551101D01*
X529700Y766800D02*
X552700D01*
Y778800D01*
X529700Y766800D02*
Y778800D01*
X552700D01*
X515000Y714100D02*
X515000Y737100D01*
X515000Y714100D02*
X527000D01*
X515000Y737100D02*
X527000D01*
Y714100D02*
Y737100D01*
X528100Y726300D02*
X551100D01*
Y738300D01*
X528100Y726300D02*
Y738300D01*
X551100D01*
X529500Y780200D02*
Y803200D01*
Y780200D02*
X541500D01*
X529500Y803200D02*
X541500D01*
X541500Y780200D02*
X541500Y803200D01*
X523600Y752400D02*
X546600D01*
X523600Y740400D02*
Y752400D01*
X546600Y740400D02*
Y752400D01*
X523600Y740400D02*
X546600D01*
X523600Y765600D02*
X546600D01*
X523600Y753600D02*
X523600Y765600D01*
X546600Y753600D02*
Y765600D01*
X523600Y753600D02*
X546600Y753600D01*
X548067Y629767D02*
Y652767D01*
X536067Y652767D02*
X548067Y652767D01*
X536067Y629767D02*
X548067D01*
X536067D02*
X536067Y652767D01*
X561433Y629767D02*
Y652767D01*
X549433Y652767D02*
X561433Y652767D01*
X549433Y629767D02*
X561433D01*
X549433D02*
X549433Y652767D01*
X666764Y279055D02*
Y329855D01*
X697244D01*
Y279055D02*
Y329855D01*
X666764Y279055D02*
X697244D01*
X700500Y265000D02*
X723500D01*
Y277000D01*
X700500Y265000D02*
Y277000D01*
X723500D01*
X717917Y317250D02*
X740917D01*
Y329250D01*
X717917Y317250D02*
Y329250D01*
X740917D01*
X621317Y316050D02*
X644317D01*
X621317Y304051D02*
Y316050D01*
X644317Y304051D02*
Y316050D01*
X621317Y304051D02*
X644317Y304051D01*
X621317Y329250D02*
X644317D01*
X621317Y317250D02*
Y329250D01*
X644317Y317250D02*
Y329250D01*
X621317Y317250D02*
X644317D01*
X563314Y252055D02*
Y302854D01*
X593794D01*
Y252055D02*
Y302854D01*
X563314Y252055D02*
X593794D01*
X587567Y226100D02*
Y249100D01*
Y226100D02*
X599567D01*
X587567Y249100D02*
X599567D01*
Y226100D02*
Y249100D01*
X574167Y226100D02*
Y249100D01*
Y226100D02*
X586167D01*
X574167Y249100D02*
X586167D01*
Y226100D02*
Y249100D01*
X560767Y226100D02*
Y249100D01*
Y226100D02*
X572767D01*
X560767Y249100D02*
X572767D01*
Y226100D02*
Y249100D01*
X599300Y305300D02*
Y328300D01*
Y305300D02*
X611300D01*
X599300Y328300D02*
X611300D01*
X611300Y305300D01*
X760900Y115300D02*
Y138300D01*
Y115300D02*
X772900D01*
X760900Y138300D02*
X772900D01*
Y115300D02*
Y138300D01*
X925600Y691851D02*
Y714851D01*
X913600D02*
X925600D01*
X913600Y691851D02*
X925600D01*
X913600D02*
Y714851D01*
X760900Y139400D02*
Y162400D01*
Y139400D02*
X772900D01*
X760900Y162400D02*
X772900D01*
Y139400D02*
Y162400D01*
X927800Y710300D02*
X950800D01*
X927800Y698300D02*
Y710300D01*
X950800Y698300D02*
Y710300D01*
X927800Y698300D02*
X950800D01*
X343600Y615450D02*
Y627950D01*
X322600Y629950D02*
X353100D01*
X322600Y613450D02*
Y629950D01*
Y613450D02*
X353100D01*
Y629950D01*
X333600Y644200D02*
Y667200D01*
Y644200D02*
X345600D01*
X333600Y667200D02*
X345600D01*
Y644200D02*
Y667200D01*
X291400Y618400D02*
Y659900D01*
Y618400D02*
X319400D01*
Y659900D01*
X291400D02*
X319400D01*
X322600Y631100D02*
X345600D01*
Y643100D01*
X322600Y631100D02*
Y643100D01*
X345600D01*
X332500Y644200D02*
Y667200D01*
X320500D02*
X332500D01*
X320500Y644200D02*
X332500D01*
X320500D02*
Y667200D01*
X358800Y631100D02*
Y654100D01*
X346800D02*
X358800D01*
X346800Y631100D02*
X358800D01*
X346800D02*
Y654100D01*
X358850Y573800D02*
Y596800D01*
X346850D02*
X358850D01*
X346850Y573800D02*
X358850D01*
X346850D02*
Y596800D01*
X332550Y586900D02*
Y609900D01*
X320550D02*
X332550D01*
X320550Y586900D02*
X332550D01*
X320550D02*
Y609900D01*
X322650Y573800D02*
X345650D01*
Y585800D01*
X322650Y573800D02*
Y585800D01*
X345650D01*
X291450Y561100D02*
Y602600D01*
Y561100D02*
X319450D01*
Y602600D01*
X291450D02*
X319450D01*
X333650Y586900D02*
Y609900D01*
Y586900D02*
X345650D01*
X333650Y609900D02*
X345650D01*
Y586900D02*
Y609900D01*
X343650Y558150D02*
Y570650D01*
X322650Y572650D02*
X353150D01*
X322650Y556150D02*
Y572650D01*
Y556150D02*
X353150D01*
Y572650D01*
X236950Y555950D02*
Y572450D01*
X206450Y555950D02*
X236950D01*
X206450D02*
Y572450D01*
X236950D01*
X227450Y557950D02*
Y570450D01*
X175250Y602400D02*
X203250D01*
Y560900D02*
Y602400D01*
X175250Y560900D02*
X203250D01*
X175250D02*
Y602400D01*
X206450Y585600D02*
X229450D01*
X206450Y573600D02*
Y585600D01*
X229450Y573600D02*
Y585600D01*
X206450Y573600D02*
X229450D01*
X230650D02*
Y596600D01*
Y573600D02*
X242650D01*
X230650Y596600D02*
X242650D01*
Y573600D02*
Y596600D01*
X229450Y586700D02*
Y609700D01*
X217450D02*
X229450D01*
X217450Y586700D02*
X229450D01*
X217450D02*
Y609700D01*
X204350Y586700D02*
Y609700D01*
Y586700D02*
X216350D01*
X204350Y609700D02*
X216350D01*
Y586700D02*
Y609700D01*
X204300Y530200D02*
Y553200D01*
Y530200D02*
X216300D01*
X204300Y553200D02*
X216300D01*
Y530200D02*
Y553200D01*
X229400Y530200D02*
Y553200D01*
X217400D02*
X229400D01*
X217400Y530200D02*
X229400D01*
X217400D02*
Y553200D01*
X230600Y517100D02*
Y540100D01*
Y517100D02*
X242600D01*
X230600Y540100D02*
X242600D01*
Y517100D02*
Y540100D01*
X206400Y529100D02*
X229400D01*
X206400Y517100D02*
Y529100D01*
X229400Y517100D02*
Y529100D01*
X206400Y517100D02*
X229400D01*
X175200Y545900D02*
X203200D01*
Y504400D02*
Y545900D01*
X175200Y504400D02*
X203200D01*
X175200D02*
Y545900D01*
X236900Y499450D02*
Y515950D01*
X206400Y499450D02*
X236900D01*
X206400D02*
Y515950D01*
X236900D01*
X227400Y501450D02*
Y513950D01*
X343600Y501650D02*
Y514150D01*
X322600Y516150D02*
X353100D01*
X322600Y499650D02*
Y516150D01*
Y499650D02*
X353100D01*
Y516150D01*
X333600Y530400D02*
Y553400D01*
Y530400D02*
X345600D01*
X333600Y553400D02*
X345600D01*
Y530400D02*
Y553400D01*
X291400Y504600D02*
Y546100D01*
Y504600D02*
X319400D01*
Y546100D01*
X291400D02*
X319400D01*
X322600Y517300D02*
X345600D01*
Y529300D01*
X322600Y517300D02*
Y529300D01*
X345600D01*
X332500Y530400D02*
Y553400D01*
X320500D02*
X332500D01*
X320500Y530400D02*
X332500D01*
X320500D02*
Y553400D01*
X358800Y517300D02*
Y540300D01*
X346800D02*
X358800D01*
X346800Y517300D02*
X358800D01*
X346800D02*
Y540300D01*
X358800Y460100D02*
Y483100D01*
X346800D02*
X358800D01*
X346800Y460100D02*
X358800D01*
X346800D02*
Y483100D01*
X332500Y473200D02*
Y496200D01*
X320500D02*
X332500D01*
X320500Y473200D02*
X332500D01*
X320500D02*
Y496200D01*
X322600Y460100D02*
X345600D01*
Y472100D01*
X322600Y460100D02*
Y472100D01*
X345600D01*
X291400Y447400D02*
Y488900D01*
Y447400D02*
X319400D01*
Y488900D01*
X291400D02*
X319400D01*
X333600Y473200D02*
Y496200D01*
Y473200D02*
X345600D01*
X333600Y496200D02*
X345600D01*
Y473200D02*
Y496200D01*
X343600Y444450D02*
Y456950D01*
X322600Y458950D02*
X353100D01*
X322600Y442450D02*
Y458950D01*
Y442450D02*
X353100D01*
Y458950D01*
X236900Y442250D02*
Y458750D01*
X206400Y442250D02*
X236900D01*
X206400D02*
Y458750D01*
X236900D01*
X227400Y444250D02*
Y456750D01*
X175200Y488700D02*
X203200D01*
Y447200D02*
Y488700D01*
X175200Y447200D02*
X203200D01*
X175200D02*
Y488700D01*
X206400Y471900D02*
X229400D01*
X206400Y459900D02*
Y471900D01*
X229400Y459900D02*
Y471900D01*
X206400Y459900D02*
X229400D01*
X230600D02*
Y482900D01*
Y459900D02*
X242600D01*
X230600Y482900D02*
X242600D01*
Y459900D02*
Y482900D01*
X229400Y473000D02*
Y496000D01*
X217400D02*
X229400D01*
X217400Y473000D02*
X229400D01*
X217400D02*
Y496000D01*
X204300Y473000D02*
Y496000D01*
Y473000D02*
X216300D01*
X204300Y496000D02*
X216300D01*
Y473000D02*
Y496000D01*
X289800Y415400D02*
Y438400D01*
Y415400D02*
X301800D01*
X289800Y438400D02*
X301800D01*
Y415400D02*
Y438400D01*
X278800Y402300D02*
X301800D01*
Y414300D01*
X278800Y402300D02*
Y414300D01*
X301800D01*
X288700Y415400D02*
Y438400D01*
X276700D02*
X288700D01*
X276700Y415400D02*
X288700D01*
X276700D02*
Y438400D01*
X1023814Y642754D02*
X1023814Y591954D01*
X1023814Y642754D02*
X1054294D01*
X1054294Y591954D01*
X1023814Y591954D02*
X1054294Y591954D01*
X1031100Y670033D02*
X1054100Y670033D01*
X1031100Y658033D02*
Y670033D01*
X1054100Y658033D02*
Y670033D01*
X1031100Y658033D02*
X1054100Y658033D01*
X1006801D02*
X1029801Y658033D01*
Y670033D01*
X1006801Y658033D02*
Y670033D01*
X1029801Y670033D01*
X1031100Y656800D02*
X1054100D01*
X1031100Y644800D02*
Y656800D01*
X1054100Y644800D02*
Y656800D01*
X1031100Y644800D02*
X1054100D01*
X1006801Y644800D02*
X1029801D01*
Y656800D01*
X1006801Y644800D02*
Y656800D01*
X1029801Y656800D01*
X857054Y751836D02*
X907854Y751836D01*
Y721356D02*
Y751836D01*
X857054Y721356D02*
X907854Y721356D01*
X857054Y721356D02*
X857054Y751836D01*
X923133Y768849D02*
X923133Y745849D01*
X935133D01*
X923133Y768849D02*
X935133D01*
X935133Y745849D02*
X935133Y768849D01*
X935133Y721550D02*
X935133Y744550D01*
X923133D02*
X935133D01*
X923133Y721550D02*
X935133D01*
X923133Y744550D02*
X923133Y721550D01*
X909900Y745849D02*
Y768849D01*
Y745849D02*
X921900D01*
X909900Y768849D02*
X921900D01*
X921900Y745849D01*
Y721550D02*
Y744550D01*
X909900D02*
X921900D01*
X909900Y721550D02*
X921900D01*
X909900D02*
Y744550D01*
X1014187Y1049615D02*
X1014187Y998815D01*
X983707D02*
X1014187D01*
X983707Y1049615D02*
X983707Y998815D01*
X983707Y1049615D02*
X1014187Y1049615D01*
X1008200Y983536D02*
X1031200Y983536D01*
X1008200Y971536D02*
Y983536D01*
X1031200Y971536D02*
Y983536D01*
X1008200Y971536D02*
X1031200Y971536D01*
X983901Y971536D02*
X1006901D01*
Y983536D01*
X983901Y971536D02*
Y983536D01*
X1006901Y983536D01*
X1008200Y996769D02*
X1031200D01*
X1008200D02*
X1008200Y984769D01*
X1031200Y984769D02*
Y996769D01*
X1008200Y984769D02*
X1031200Y984769D01*
X983901Y984769D02*
X1006901Y984769D01*
Y996769D01*
X983901Y984769D02*
Y996769D01*
X1006901D01*
X857054Y986286D02*
X907854Y986286D01*
Y955806D02*
Y986286D01*
X857054Y955806D02*
X907854Y955806D01*
X857054Y955806D02*
X857054Y986286D01*
X923133Y1003299D02*
X923133Y980299D01*
X935133D01*
X923133Y1003299D02*
X935133Y1003299D01*
X935133Y980299D02*
X935133Y1003299D01*
X935133Y956000D02*
Y979000D01*
X923133Y979000D02*
X935133Y979000D01*
X923133Y956000D02*
X935133D01*
X923133Y979000D02*
X923133Y956000D01*
X909900Y980299D02*
Y1003299D01*
Y980299D02*
X921900Y980299D01*
X909900Y1003299D02*
X921900Y1003299D01*
X921900Y980299D01*
Y956000D02*
Y979000D01*
X909900Y979000D02*
X921900Y979000D01*
X909900Y956000D02*
X921900D01*
X909900D02*
Y979000D01*
X921900Y805200D02*
Y828200D01*
X909900Y828200D02*
X921900Y828200D01*
X909900Y805200D02*
X921900D01*
X909900D02*
Y828200D01*
X909900Y829499D02*
Y852499D01*
Y829499D02*
X921900Y829499D01*
X909900Y852499D02*
X921900Y852499D01*
X921900Y829499D01*
X935133Y805200D02*
Y828200D01*
X923133Y828200D02*
X935133Y828200D01*
X923133Y805200D02*
X935133D01*
X923133Y828200D02*
X923133Y805200D01*
X857054Y835486D02*
X907854Y835486D01*
Y805006D02*
Y835486D01*
X857054Y805006D02*
X907854Y805006D01*
X857054Y805006D02*
X857054Y835486D01*
X923133Y852499D02*
X923133Y829499D01*
X935133D01*
X923133Y852499D02*
X935133Y852499D01*
X935133Y829499D02*
X935133Y852499D01*
X315000Y402300D02*
Y425300D01*
X303000D02*
X315000D01*
X303000Y402300D02*
X315000D01*
X303000D02*
Y425300D01*
X247600Y389600D02*
Y431100D01*
Y389600D02*
X275600D01*
Y431100D01*
X247600D02*
X275600D01*
X299800Y386650D02*
Y399150D01*
X278800Y401150D02*
X309300D01*
X278800Y384650D02*
Y401150D01*
Y384650D02*
X309300D01*
Y401150D01*
X736217Y313651D02*
X736217Y281651D01*
X721217D02*
X736217D01*
X721217Y313651D02*
X736217Y313651D01*
X721217Y281651D02*
Y313651D01*
X4440Y109930D02*
X28540D01*
Y97230D02*
Y109930D01*
X4440Y97230D02*
X28540D01*
X4440Y135330D02*
X28540D01*
Y122630D02*
Y135330D01*
X4440Y122630D02*
X28540D01*
X4440Y160730D02*
X28540D01*
Y148030D02*
Y160730D01*
X4440Y148030D02*
X28540D01*
X4440Y186130D02*
X28540D01*
Y173430D02*
Y186130D01*
X4440Y173430D02*
X28540D01*
X4440Y198830D02*
X28540D01*
Y211530D01*
X4440D02*
X28540D01*
X4440Y83080D02*
X103440D01*
X4440Y225680D02*
X103440D01*
Y83080D02*
Y225680D01*
X4440Y83080D02*
Y225680D01*
X507550Y355300D02*
X513900Y361650D01*
Y374350D01*
X507550Y380700D02*
X513900Y374350D01*
X469450Y380700D02*
X507550D01*
X469450Y355300D02*
X507550D01*
X463100Y361650D02*
X469450Y355300D01*
X463100Y374350D02*
X469450Y380700D01*
X463100Y361650D02*
Y374350D01*
Y412450D02*
Y425150D01*
X469450Y431500D01*
X463100Y412450D02*
X469450Y406100D01*
X507550D01*
X469450Y431500D02*
X507550D01*
X513900Y425150D01*
Y412450D02*
Y425150D01*
X507550Y406100D02*
X513900Y412450D01*
X463100Y387050D02*
Y399750D01*
X469450Y406100D01*
X463100Y387050D02*
X469450Y380700D01*
X507550Y406100D02*
X513900Y399750D01*
Y387050D02*
Y399750D01*
X507550Y380700D02*
X513900Y387050D01*
X284241Y1197500D02*
X398541Y1197500D01*
X277891Y1203850D02*
X284241Y1197500D01*
X277891Y1203850D02*
X277891Y1216550D01*
X284241Y1222900D01*
X398541Y1222900D01*
X404891Y1216550D01*
X404891Y1203850D01*
X398541Y1197500D02*
X404891Y1203850D01*
X504771Y1197500D02*
X619071Y1197500D01*
X498421Y1203850D02*
X504771Y1197500D01*
X498421Y1203850D02*
X498421Y1216550D01*
X504771Y1222900D01*
X619071Y1222900D01*
X625421Y1216550D01*
X625421Y1203850D01*
X619071Y1197500D02*
X625421Y1203850D01*
X725301Y1197500D02*
X839601Y1197500D01*
X718951Y1203850D02*
X725301Y1197500D01*
X718951Y1203850D02*
X718951Y1216550D01*
X725301Y1222900D01*
X839601Y1222900D01*
X845951Y1216550D01*
X845951Y1203850D01*
X839601Y1197500D02*
X845951Y1203850D01*
X734566Y1386065D02*
X733233Y1387398D01*
X730567D01*
X729234Y1386065D01*
Y1380733D01*
X730567Y1379401D01*
X733233D01*
X734566Y1380733D01*
X737232Y1386065D02*
X738565Y1387398D01*
X741230D01*
X742563Y1386065D01*
Y1384732D01*
X741230Y1383399D01*
X742563Y1382066D01*
Y1380733D01*
X741230Y1379401D01*
X738565D01*
X737232Y1380733D01*
Y1382066D01*
X738565Y1383399D01*
X737232Y1384732D01*
Y1386065D01*
X738565Y1383399D02*
X741230D01*
X740068Y1394270D02*
X741401Y1392937D01*
X744066D01*
X745399Y1394270D01*
Y1399601D01*
X744066Y1400934D01*
X741401D01*
X740068Y1399601D01*
X737402Y1400934D02*
X734736D01*
X736069D01*
Y1392937D01*
X737402Y1394270D01*
X730738D02*
X729405Y1392937D01*
X726739D01*
X725406Y1394270D01*
Y1395603D01*
X726739Y1396936D01*
X728072D01*
X726739D01*
X725406Y1398268D01*
Y1399601D01*
X726739Y1400934D01*
X729405D01*
X730738Y1399601D01*
X702565Y1432634D02*
X703897Y1433967D01*
Y1436633D01*
X702565Y1437966D01*
X697233D01*
X695900Y1436633D01*
Y1433967D01*
X697233Y1432634D01*
X695900Y1429969D02*
Y1427303D01*
Y1428636D01*
X703897D01*
X702565Y1429969D01*
X703897Y1423304D02*
Y1417972D01*
X702565D01*
X697233Y1423304D01*
X695900D01*
X682635Y1418502D02*
X681303Y1417169D01*
Y1414503D01*
X682635Y1413170D01*
X687967D01*
X689300Y1414503D01*
Y1417169D01*
X687967Y1418502D01*
X689300Y1426499D02*
Y1421167D01*
X683968Y1426499D01*
X682635D01*
X681303Y1425166D01*
Y1422500D01*
X682635Y1421167D01*
X681303Y1434496D02*
Y1429165D01*
X685301D01*
X683968Y1431831D01*
Y1433164D01*
X685301Y1434496D01*
X687967D01*
X689300Y1433164D01*
Y1430498D01*
X687967Y1429165D01*
X658032Y1379297D02*
X656699Y1380630D01*
X654034D01*
X652701Y1379297D01*
Y1373966D01*
X654034Y1372633D01*
X656699D01*
X658032Y1373966D01*
X666030Y1372633D02*
X660698D01*
X666030Y1377964D01*
Y1379297D01*
X664697Y1380630D01*
X662031D01*
X660698Y1379297D01*
X668696Y1380630D02*
X674027D01*
Y1379297D01*
X668696Y1373966D01*
Y1372633D01*
X656432Y1436031D02*
X655099Y1437364D01*
X652433D01*
X651100Y1436031D01*
Y1430700D01*
X652433Y1429367D01*
X655099D01*
X656432Y1430700D01*
X664429Y1429367D02*
X659098D01*
X664429Y1434698D01*
Y1436031D01*
X663097Y1437364D01*
X660431D01*
X659098Y1436031D01*
X667095Y1430700D02*
X668428Y1429367D01*
X671094D01*
X672427Y1430700D01*
Y1436031D01*
X671094Y1437364D01*
X668428D01*
X667095Y1436031D01*
Y1434698D01*
X668428Y1433365D01*
X672427D01*
X627132Y1404633D02*
Y1409964D01*
X625799Y1411297D01*
X623133D01*
X621800Y1409964D01*
Y1404633D01*
X623133Y1403300D01*
X625799D01*
X624466Y1405966D02*
X627132Y1403300D01*
X625799D02*
X627132Y1404633D01*
X629797Y1403300D02*
X632463D01*
X631130D01*
Y1411297D01*
X629797Y1409964D01*
X706355Y1310634D02*
Y1302636D01*
X702357D01*
X701024Y1303969D01*
Y1306635D01*
X702357Y1307968D01*
X706355D01*
X703690D02*
X701024Y1310634D01*
X698358D02*
X695692D01*
X697025D01*
Y1302636D01*
X698358Y1303969D01*
X686362Y1302636D02*
X689028Y1303969D01*
X691693Y1306635D01*
Y1309301D01*
X690361Y1310634D01*
X687695D01*
X686362Y1309301D01*
Y1307968D01*
X687695Y1306635D01*
X691693D01*
X706356Y1335034D02*
Y1327036D01*
X702357D01*
X701024Y1328369D01*
Y1331035D01*
X702357Y1332368D01*
X706356D01*
X703690D02*
X701024Y1335034D01*
X698358D02*
X695692D01*
X697025D01*
Y1327036D01*
X698358Y1328369D01*
X691693Y1327036D02*
X686362D01*
Y1328369D01*
X691693Y1333701D01*
Y1335034D01*
X667767Y1407699D02*
X675764D01*
Y1403701D01*
X674431Y1402368D01*
X671765D01*
X670432Y1403701D01*
Y1407699D01*
Y1405034D02*
X667767Y1402368D01*
Y1394370D02*
Y1399702D01*
X673098Y1394370D01*
X674431D01*
X675764Y1395703D01*
Y1398369D01*
X674431Y1399702D01*
X667767Y1386373D02*
Y1391705D01*
X673098Y1386373D01*
X674431D01*
X675764Y1387706D01*
Y1390372D01*
X674431Y1391705D01*
X657333Y1399266D02*
X649336D01*
Y1403265D01*
X650668Y1404598D01*
X653334D01*
X654667Y1403265D01*
Y1399266D01*
Y1401932D02*
X657333Y1404598D01*
Y1412595D02*
Y1407263D01*
X652001Y1412595D01*
X650668D01*
X649336Y1411262D01*
Y1408596D01*
X650668Y1407263D01*
X649336Y1420592D02*
X650668Y1417927D01*
X653334Y1415261D01*
X656000D01*
X657333Y1416594D01*
Y1419260D01*
X656000Y1420592D01*
X654667D01*
X653334Y1419260D01*
Y1415261D01*
X606333Y1356075D02*
X598335D01*
Y1360073D01*
X599668Y1361406D01*
X602334D01*
X603667Y1360073D01*
Y1356075D01*
Y1358740D02*
X606333Y1361406D01*
Y1369404D02*
Y1364072D01*
X601001Y1369404D01*
X599668D01*
X598335Y1368071D01*
Y1365405D01*
X599668Y1364072D01*
Y1372069D02*
X598335Y1373402D01*
Y1376068D01*
X599668Y1377401D01*
X601001D01*
X602334Y1376068D01*
X603667Y1377401D01*
X605000D01*
X606333Y1376068D01*
Y1373402D01*
X605000Y1372069D01*
X603667D01*
X602334Y1373402D01*
X601001Y1372069D01*
X599668D01*
X602334Y1373402D02*
Y1376068D01*
X635966Y1378833D02*
Y1370835D01*
X631968D01*
X630635Y1372168D01*
Y1374834D01*
X631968Y1376167D01*
X635966D01*
X633301D02*
X630635Y1378833D01*
X627969Y1372168D02*
X626636Y1370835D01*
X623970D01*
X622637Y1372168D01*
Y1373501D01*
X623970Y1374834D01*
X625303D01*
X623970D01*
X622637Y1376167D01*
Y1377500D01*
X623970Y1378833D01*
X626636D01*
X627969Y1377500D01*
X619972Y1372168D02*
X618639Y1370835D01*
X615973D01*
X614640Y1372168D01*
Y1377500D01*
X615973Y1378833D01*
X618639D01*
X619972Y1377500D01*
Y1372168D01*
X735834Y1427898D02*
Y1421234D01*
X737167Y1419901D01*
X739833D01*
X741166Y1421234D01*
Y1427898D01*
X749163Y1419901D02*
X743831D01*
X749163Y1425232D01*
Y1426565D01*
X747830Y1427898D01*
X745164D01*
X743831Y1426565D01*
X686134Y1398064D02*
Y1391400D01*
X687467Y1390067D01*
X690132D01*
X691465Y1391400D01*
Y1398064D01*
X699463D02*
X696797Y1396731D01*
X694131Y1394065D01*
Y1391400D01*
X695464Y1390067D01*
X698130D01*
X699463Y1391400D01*
Y1392732D01*
X698130Y1394065D01*
X694131D01*
X916633Y1420726D02*
X921965D01*
X923298Y1422058D01*
Y1424724D01*
X921965Y1426057D01*
X916633D01*
X915301Y1424724D01*
Y1422058D01*
X917966Y1423391D02*
X915301Y1420726D01*
Y1422058D02*
X916633Y1420726D01*
X921965Y1418060D02*
X923298Y1416727D01*
Y1414061D01*
X921965Y1412728D01*
X920632D01*
X919299Y1414061D01*
X917966Y1412728D01*
X916633D01*
X915301Y1414061D01*
Y1416727D01*
X916633Y1418060D01*
X917966D01*
X919299Y1416727D01*
X920632Y1418060D01*
X921965D01*
X919299Y1416727D02*
Y1414061D01*
X918483Y1388167D02*
Y1396165D01*
X922481D01*
X923814Y1394832D01*
Y1392166D01*
X922481Y1390833D01*
X918483D01*
X921148D02*
X923814Y1388167D01*
X926480D02*
X929146D01*
X927813D01*
Y1396165D01*
X926480Y1394832D01*
X937143Y1388167D02*
Y1396165D01*
X933145Y1392166D01*
X938476D01*
X885467Y1432289D02*
X893465D01*
Y1428291D01*
X892132Y1426958D01*
X889466D01*
X888133Y1428291D01*
Y1432289D01*
Y1429624D02*
X885467Y1426958D01*
Y1424292D02*
Y1421626D01*
Y1422959D01*
X893465D01*
X892132Y1424292D01*
X893465Y1412296D02*
Y1417628D01*
X889466D01*
X890799Y1414962D01*
Y1413629D01*
X889466Y1412296D01*
X886800D01*
X885467Y1413629D01*
Y1416295D01*
X886800Y1417628D01*
X651434Y1354500D02*
Y1362497D01*
X655433D01*
X656766Y1361165D01*
Y1358499D01*
X655433Y1357166D01*
X651434D01*
X654100D02*
X656766Y1354500D01*
X664763D02*
X659431D01*
X664763Y1359832D01*
Y1361165D01*
X663430Y1362497D01*
X660764D01*
X659431Y1361165D01*
X671428Y1354500D02*
Y1362497D01*
X667429Y1358499D01*
X672760D01*
X492366Y1386065D02*
X491033Y1387398D01*
X488367D01*
X487034Y1386065D01*
Y1380733D01*
X488367Y1379401D01*
X491033D01*
X492366Y1380733D01*
X495032Y1379401D02*
X497697D01*
X496365D01*
Y1387398D01*
X495032Y1386065D01*
X507028Y1387398D02*
X501696D01*
Y1383399D01*
X504362Y1384732D01*
X505695D01*
X507028Y1383399D01*
Y1380733D01*
X505695Y1379401D01*
X503029D01*
X501696Y1380733D01*
X497868Y1394270D02*
X499201Y1392937D01*
X501866D01*
X503199Y1394270D01*
Y1399601D01*
X501866Y1400934D01*
X499201D01*
X497868Y1399601D01*
X495202Y1400934D02*
X492536D01*
X493869D01*
Y1392937D01*
X495202Y1394270D01*
X483206Y1392937D02*
X485872Y1394270D01*
X488537Y1396936D01*
Y1399601D01*
X487205Y1400934D01*
X484539D01*
X483206Y1399601D01*
Y1398268D01*
X484539Y1396936D01*
X488537D01*
X460364Y1432634D02*
X461697Y1433967D01*
Y1436633D01*
X460364Y1437966D01*
X455033D01*
X453700Y1436633D01*
Y1433967D01*
X455033Y1432634D01*
X453700Y1424637D02*
Y1429969D01*
X459032Y1424637D01*
X460364D01*
X461697Y1425970D01*
Y1428636D01*
X460364Y1429969D01*
X453700Y1417972D02*
X461697D01*
X457699Y1421971D01*
Y1416640D01*
X440435Y1418502D02*
X439103Y1417169D01*
Y1414503D01*
X440435Y1413170D01*
X445767D01*
X447100Y1414503D01*
Y1417169D01*
X445767Y1418502D01*
X447100Y1426499D02*
Y1421167D01*
X441768Y1426499D01*
X440435D01*
X439103Y1425166D01*
Y1422500D01*
X440435Y1421167D01*
X439103Y1434496D02*
X440435Y1431831D01*
X443101Y1429165D01*
X445767D01*
X447100Y1430498D01*
Y1433164D01*
X445767Y1434496D01*
X444434D01*
X443101Y1433164D01*
Y1429165D01*
X415832Y1379297D02*
X414499Y1380630D01*
X411833D01*
X410501Y1379297D01*
Y1373966D01*
X411833Y1372633D01*
X414499D01*
X415832Y1373966D01*
X423830Y1372633D02*
X418498D01*
X423830Y1377964D01*
Y1379297D01*
X422497Y1380630D01*
X419831D01*
X418498Y1379297D01*
X426495D02*
X427828Y1380630D01*
X430494D01*
X431827Y1379297D01*
Y1377964D01*
X430494Y1376631D01*
X431827Y1375299D01*
Y1373966D01*
X430494Y1372633D01*
X427828D01*
X426495Y1373966D01*
Y1375299D01*
X427828Y1376631D01*
X426495Y1377964D01*
Y1379297D01*
X427828Y1376631D02*
X430494D01*
X414232Y1436031D02*
X412899Y1437364D01*
X410233D01*
X408900Y1436031D01*
Y1430700D01*
X410233Y1429367D01*
X412899D01*
X414232Y1430700D01*
X416898Y1436031D02*
X418231Y1437364D01*
X420897D01*
X422229Y1436031D01*
Y1434698D01*
X420897Y1433365D01*
X419564D01*
X420897D01*
X422229Y1432032D01*
Y1430700D01*
X420897Y1429367D01*
X418231D01*
X416898Y1430700D01*
X424895Y1436031D02*
X426228Y1437364D01*
X428894D01*
X430227Y1436031D01*
Y1430700D01*
X428894Y1429367D01*
X426228D01*
X424895Y1430700D01*
Y1436031D01*
X425567Y1407699D02*
X433564D01*
Y1403701D01*
X432231Y1402368D01*
X429565D01*
X428232Y1403701D01*
Y1407699D01*
Y1405034D02*
X425567Y1402368D01*
Y1394370D02*
Y1399702D01*
X430898Y1394370D01*
X432231D01*
X433564Y1395703D01*
Y1398369D01*
X432231Y1399702D01*
Y1391705D02*
X433564Y1390372D01*
Y1387706D01*
X432231Y1386373D01*
X430898D01*
X429565Y1387706D01*
Y1389039D01*
Y1387706D01*
X428232Y1386373D01*
X426899D01*
X425567Y1387706D01*
Y1390372D01*
X426899Y1391705D01*
X409234Y1354500D02*
Y1362497D01*
X413233D01*
X414566Y1361165D01*
Y1358499D01*
X413233Y1357166D01*
X409234D01*
X411900D02*
X414566Y1354500D01*
X422563D02*
X417231D01*
X422563Y1359832D01*
Y1361165D01*
X421230Y1362497D01*
X418564D01*
X417231Y1361165D01*
X430560Y1362497D02*
X425229D01*
Y1358499D01*
X427895Y1359832D01*
X429228D01*
X430560Y1358499D01*
Y1355833D01*
X429228Y1354500D01*
X426562D01*
X425229Y1355833D01*
X415133Y1399266D02*
X407136D01*
Y1403265D01*
X408469Y1404598D01*
X411134D01*
X412467Y1403265D01*
Y1399266D01*
Y1401932D02*
X415133Y1404598D01*
Y1412595D02*
Y1407263D01*
X409801Y1412595D01*
X408469D01*
X407136Y1411262D01*
Y1408596D01*
X408469Y1407263D01*
X407136Y1415261D02*
Y1420592D01*
X408469D01*
X413800Y1415261D01*
X415133D01*
X393767Y1378833D02*
Y1370835D01*
X389768D01*
X388435Y1372168D01*
Y1374834D01*
X389768Y1376167D01*
X393767D01*
X391101D02*
X388435Y1378833D01*
X385769Y1372168D02*
X384436Y1370835D01*
X381770D01*
X380437Y1372168D01*
Y1373501D01*
X381770Y1374834D01*
X383103D01*
X381770D01*
X380437Y1376167D01*
Y1377500D01*
X381770Y1378833D01*
X384436D01*
X385769Y1377500D01*
X377772Y1378833D02*
X375106D01*
X376439D01*
Y1370835D01*
X377772Y1372168D01*
X364133Y1356075D02*
X356135D01*
Y1360073D01*
X357468Y1361406D01*
X360134D01*
X361467Y1360073D01*
Y1356075D01*
Y1358740D02*
X364133Y1361406D01*
Y1369404D02*
Y1364072D01*
X358801Y1369404D01*
X357468D01*
X356135Y1368071D01*
Y1365405D01*
X357468Y1364072D01*
X362800Y1372069D02*
X364133Y1373402D01*
Y1376068D01*
X362800Y1377401D01*
X357468D01*
X356135Y1376068D01*
Y1373402D01*
X357468Y1372069D01*
X358801D01*
X360134Y1373402D01*
Y1377401D01*
X493634Y1427898D02*
Y1421234D01*
X494967Y1419901D01*
X497633D01*
X498966Y1421234D01*
Y1427898D01*
X506963D02*
X501632D01*
Y1423899D01*
X504297Y1425232D01*
X505630D01*
X506963Y1423899D01*
Y1421234D01*
X505630Y1419901D01*
X502964D01*
X501632Y1421234D01*
X464156Y1335034D02*
Y1327036D01*
X460157D01*
X458824Y1328369D01*
Y1331035D01*
X460157Y1332368D01*
X464156D01*
X461490D02*
X458824Y1335034D01*
X450826D02*
X456158D01*
X450826Y1329702D01*
Y1328369D01*
X452159Y1327036D01*
X454825D01*
X456158Y1328369D01*
X448161Y1335034D02*
X445495D01*
X446828D01*
Y1327036D01*
X448161Y1328369D01*
X464155Y1310634D02*
Y1302636D01*
X460157D01*
X458824Y1303969D01*
Y1306635D01*
X460157Y1307968D01*
X464155D01*
X461490D02*
X458824Y1310634D01*
X450826D02*
X456158D01*
X450826Y1305302D01*
Y1303969D01*
X452159Y1302636D01*
X454825D01*
X456158Y1303969D01*
X448161D02*
X446828Y1302636D01*
X444162D01*
X442829Y1303969D01*
Y1309301D01*
X444162Y1310634D01*
X446828D01*
X448161Y1309301D01*
Y1303969D01*
X384932Y1404633D02*
Y1409964D01*
X383599Y1411297D01*
X380933D01*
X379600Y1409964D01*
Y1404633D01*
X380933Y1403300D01*
X383599D01*
X382266Y1405966D02*
X384932Y1403300D01*
X383599D02*
X384932Y1404633D01*
X392929Y1403300D02*
X387597D01*
X392929Y1408632D01*
Y1409964D01*
X391596Y1411297D01*
X388930D01*
X387597Y1409964D01*
X443933Y1398064D02*
Y1391400D01*
X445266Y1390067D01*
X447932D01*
X449265Y1391400D01*
Y1398064D01*
X451931D02*
X457263D01*
Y1396731D01*
X451931Y1391400D01*
Y1390067D01*
X171232Y1436031D02*
X169899Y1437364D01*
X167233D01*
X165900Y1436031D01*
Y1430700D01*
X167233Y1429367D01*
X169899D01*
X171232Y1430700D01*
X177897Y1429367D02*
Y1437364D01*
X173898Y1433365D01*
X179230D01*
X181895Y1436031D02*
X183228Y1437364D01*
X185894D01*
X187227Y1436031D01*
Y1430700D01*
X185894Y1429367D01*
X183228D01*
X181895Y1430700D01*
Y1436031D01*
X197435Y1418502D02*
X196103Y1417169D01*
Y1414503D01*
X197435Y1413170D01*
X202767D01*
X204100Y1414503D01*
Y1417169D01*
X202767Y1418502D01*
X197435Y1421167D02*
X196103Y1422500D01*
Y1425166D01*
X197435Y1426499D01*
X198768D01*
X200101Y1425166D01*
Y1423833D01*
Y1425166D01*
X201434Y1426499D01*
X202767D01*
X204100Y1425166D01*
Y1422500D01*
X202767Y1421167D01*
X197435Y1429165D02*
X196103Y1430498D01*
Y1433164D01*
X197435Y1434496D01*
X198768D01*
X200101Y1433164D01*
X201434Y1434496D01*
X202767D01*
X204100Y1433164D01*
Y1430498D01*
X202767Y1429165D01*
X201434D01*
X200101Y1430498D01*
X198768Y1429165D01*
X197435D01*
X200101Y1430498D02*
Y1433164D01*
X217365Y1432634D02*
X218697Y1433967D01*
Y1436633D01*
X217365Y1437966D01*
X212033D01*
X210700Y1436633D01*
Y1433967D01*
X212033Y1432634D01*
X217365Y1429969D02*
X218697Y1428636D01*
Y1425970D01*
X217365Y1424637D01*
X216032D01*
X214699Y1425970D01*
Y1427303D01*
Y1425970D01*
X213366Y1424637D01*
X212033D01*
X210700Y1425970D01*
Y1428636D01*
X212033Y1429969D01*
X217365Y1421971D02*
X218697Y1420638D01*
Y1417972D01*
X217365Y1416640D01*
X216032D01*
X214699Y1417972D01*
Y1419305D01*
Y1417972D01*
X213366Y1416640D01*
X212033D01*
X210700Y1417972D01*
Y1420638D01*
X212033Y1421971D01*
X150766Y1378833D02*
Y1370835D01*
X146768D01*
X145435Y1372168D01*
Y1374834D01*
X146768Y1376167D01*
X150766D01*
X148101D02*
X145435Y1378833D01*
X138770D02*
Y1370835D01*
X142769Y1374834D01*
X137437D01*
X134772Y1372168D02*
X133439Y1370835D01*
X130773D01*
X129440Y1372168D01*
Y1377500D01*
X130773Y1378833D01*
X133439D01*
X134772Y1377500D01*
Y1372168D01*
X121133Y1356075D02*
X113135D01*
Y1360073D01*
X114468Y1361406D01*
X117134D01*
X118467Y1360073D01*
Y1356075D01*
Y1358740D02*
X121133Y1361406D01*
X114468Y1364072D02*
X113135Y1365405D01*
Y1368071D01*
X114468Y1369404D01*
X115801D01*
X117134Y1368071D01*
Y1366738D01*
Y1368071D01*
X118467Y1369404D01*
X119800D01*
X121133Y1368071D01*
Y1365405D01*
X119800Y1364072D01*
Y1372069D02*
X121133Y1373402D01*
Y1376068D01*
X119800Y1377401D01*
X114468D01*
X113135Y1376068D01*
Y1373402D01*
X114468Y1372069D01*
X115801D01*
X117134Y1373402D01*
Y1377401D01*
X254868Y1394270D02*
X256201Y1392937D01*
X258867D01*
X260199Y1394270D01*
Y1399601D01*
X258867Y1400934D01*
X256201D01*
X254868Y1399601D01*
X252202Y1394270D02*
X250869Y1392937D01*
X248203D01*
X246870Y1394270D01*
Y1395603D01*
X248203Y1396936D01*
X249536D01*
X248203D01*
X246870Y1398268D01*
Y1399601D01*
X248203Y1400934D01*
X250869D01*
X252202Y1399601D01*
X238873Y1400934D02*
X244205D01*
X238873Y1395603D01*
Y1394270D01*
X240206Y1392937D01*
X242872D01*
X244205Y1394270D01*
X250634Y1427898D02*
Y1421234D01*
X251967Y1419901D01*
X254633D01*
X255966Y1421234D01*
Y1427898D01*
X258631Y1421234D02*
X259964Y1419901D01*
X262630D01*
X263963Y1421234D01*
Y1426565D01*
X262630Y1427898D01*
X259964D01*
X258631Y1426565D01*
Y1425232D01*
X259964Y1423899D01*
X263963D01*
X221155Y1335034D02*
Y1327036D01*
X217157D01*
X215824Y1328369D01*
Y1331035D01*
X217157Y1332368D01*
X221155D01*
X218490D02*
X215824Y1335034D01*
X213158Y1328369D02*
X211825Y1327036D01*
X209159D01*
X207826Y1328369D01*
Y1329702D01*
X209159Y1331035D01*
X210492D01*
X209159D01*
X207826Y1332368D01*
Y1333701D01*
X209159Y1335034D01*
X211825D01*
X213158Y1333701D01*
X205161Y1328369D02*
X203828Y1327036D01*
X201162D01*
X199829Y1328369D01*
Y1329702D01*
X201162Y1331035D01*
X202495D01*
X201162D01*
X199829Y1332368D01*
Y1333701D01*
X201162Y1335034D01*
X203828D01*
X205161Y1333701D01*
X221155Y1310634D02*
Y1302636D01*
X217157D01*
X215824Y1303969D01*
Y1306635D01*
X217157Y1307968D01*
X221155D01*
X218490D02*
X215824Y1310634D01*
X213158Y1303969D02*
X211825Y1302636D01*
X209159D01*
X207826Y1303969D01*
Y1305302D01*
X209159Y1306635D01*
X210492D01*
X209159D01*
X207826Y1307968D01*
Y1309301D01*
X209159Y1310634D01*
X211825D01*
X213158Y1309301D01*
X199829Y1310634D02*
X205161D01*
X199829Y1305302D01*
Y1303969D01*
X201162Y1302636D01*
X203828D01*
X205161Y1303969D01*
X182567Y1407699D02*
X190564D01*
Y1403701D01*
X189231Y1402368D01*
X186565D01*
X185232Y1403701D01*
Y1407699D01*
Y1405034D02*
X182567Y1402368D01*
X189231Y1399702D02*
X190564Y1398369D01*
Y1395703D01*
X189231Y1394370D01*
X187898D01*
X186565Y1395703D01*
Y1397036D01*
Y1395703D01*
X185232Y1394370D01*
X183899D01*
X182567Y1395703D01*
Y1398369D01*
X183899Y1399702D01*
X190564Y1386373D02*
Y1391705D01*
X186565D01*
X187898Y1389039D01*
Y1387706D01*
X186565Y1386373D01*
X183899D01*
X182567Y1387706D01*
Y1390372D01*
X183899Y1391705D01*
X172832Y1379297D02*
X171499Y1380630D01*
X168834D01*
X167501Y1379297D01*
Y1373966D01*
X168834Y1372633D01*
X171499D01*
X172832Y1373966D01*
X175498Y1379297D02*
X176831Y1380630D01*
X179497D01*
X180830Y1379297D01*
Y1377964D01*
X179497Y1376631D01*
X178164D01*
X179497D01*
X180830Y1375299D01*
Y1373966D01*
X179497Y1372633D01*
X176831D01*
X175498Y1373966D01*
X183495D02*
X184828Y1372633D01*
X187494D01*
X188827Y1373966D01*
Y1379297D01*
X187494Y1380630D01*
X184828D01*
X183495Y1379297D01*
Y1377964D01*
X184828Y1376631D01*
X188827D01*
X141932Y1404633D02*
Y1409964D01*
X140599Y1411297D01*
X137933D01*
X136600Y1409964D01*
Y1404633D01*
X137933Y1403300D01*
X140599D01*
X139266Y1405966D02*
X141932Y1403300D01*
X140599D02*
X141932Y1404633D01*
X144597Y1409964D02*
X145930Y1411297D01*
X148596D01*
X149929Y1409964D01*
Y1408632D01*
X148596Y1407299D01*
X147263D01*
X148596D01*
X149929Y1405966D01*
Y1404633D01*
X148596Y1403300D01*
X145930D01*
X144597Y1404633D01*
X249366Y1386065D02*
X248033Y1387398D01*
X245367D01*
X244034Y1386065D01*
Y1380733D01*
X245367Y1379401D01*
X248033D01*
X249366Y1380733D01*
X252032Y1386065D02*
X253365Y1387398D01*
X256030D01*
X257363Y1386065D01*
Y1384732D01*
X256030Y1383399D01*
X254697D01*
X256030D01*
X257363Y1382066D01*
Y1380733D01*
X256030Y1379401D01*
X253365D01*
X252032Y1380733D01*
X260029Y1379401D02*
X262695D01*
X261362D01*
Y1387398D01*
X260029Y1386065D01*
X200933Y1398064D02*
Y1391400D01*
X202266Y1390067D01*
X204932D01*
X206265Y1391400D01*
Y1398064D01*
X208931Y1390067D02*
X211597D01*
X210264D01*
Y1398064D01*
X208931Y1396731D01*
X215595D02*
X216928Y1398064D01*
X219594D01*
X220927Y1396731D01*
Y1391400D01*
X219594Y1390067D01*
X216928D01*
X215595Y1391400D01*
Y1396731D01*
X172133Y1399266D02*
X164136D01*
Y1403265D01*
X165469Y1404598D01*
X168134D01*
X169467Y1403265D01*
Y1399266D01*
Y1401932D02*
X172133Y1404598D01*
X165469Y1407263D02*
X164136Y1408596D01*
Y1411262D01*
X165469Y1412595D01*
X166801D01*
X168134Y1411262D01*
Y1409929D01*
Y1411262D01*
X169467Y1412595D01*
X170800D01*
X172133Y1411262D01*
Y1408596D01*
X170800Y1407263D01*
X165469Y1415261D02*
X164136Y1416594D01*
Y1419260D01*
X165469Y1420592D01*
X166801D01*
X168134Y1419260D01*
X169467Y1420592D01*
X170800D01*
X172133Y1419260D01*
Y1416594D01*
X170800Y1415261D01*
X169467D01*
X168134Y1416594D01*
X166801Y1415261D01*
X165469D01*
X168134Y1416594D02*
Y1419260D01*
X166234Y1354500D02*
Y1362497D01*
X170233D01*
X171566Y1361165D01*
Y1358499D01*
X170233Y1357166D01*
X166234D01*
X168900D02*
X171566Y1354500D01*
X174231Y1361165D02*
X175564Y1362497D01*
X178230D01*
X179563Y1361165D01*
Y1359832D01*
X178230Y1358499D01*
X176897D01*
X178230D01*
X179563Y1357166D01*
Y1355833D01*
X178230Y1354500D01*
X175564D01*
X174231Y1355833D01*
X182229Y1362497D02*
X187561D01*
Y1361165D01*
X182229Y1355833D01*
Y1354500D01*
X480271Y1214033D02*
Y1206036D01*
X476273D01*
X474940Y1207368D01*
Y1210034D01*
X476273Y1211367D01*
X480271D01*
X477606D02*
X474940Y1214033D01*
X472274Y1207368D02*
X470941Y1206036D01*
X468275D01*
X466942Y1207368D01*
Y1208701D01*
X468275Y1210034D01*
X469608D01*
X468275D01*
X466942Y1211367D01*
Y1212700D01*
X468275Y1214033D01*
X470941D01*
X472274Y1212700D01*
X460278Y1214033D02*
Y1206036D01*
X464277Y1210034D01*
X458945D01*
X438257Y1214233D02*
Y1206235D01*
X434259D01*
X432926Y1207568D01*
Y1210234D01*
X434259Y1211567D01*
X438257D01*
X435592D02*
X432926Y1214233D01*
X430260Y1207568D02*
X428927Y1206235D01*
X426261D01*
X424929Y1207568D01*
Y1208901D01*
X426261Y1210234D01*
X427594D01*
X426261D01*
X424929Y1211567D01*
Y1212900D01*
X426261Y1214233D01*
X428927D01*
X430260Y1212900D01*
X416931Y1206235D02*
X419597Y1207568D01*
X422263Y1210234D01*
Y1212900D01*
X420930Y1214233D01*
X418264D01*
X416931Y1212900D01*
Y1211567D01*
X418264Y1210234D01*
X422263D01*
X201498Y314431D02*
X200165Y315764D01*
X197500D01*
X196167Y314431D01*
Y309099D01*
X197500Y307766D01*
X200165D01*
X201498Y309099D01*
X204164Y315764D02*
X209496D01*
Y314431D01*
X204164Y309099D01*
Y307766D01*
X212161D02*
X214827D01*
X213494D01*
Y315764D01*
X212161Y314431D01*
X206802Y261449D02*
X208135Y260116D01*
X210800D01*
X212133Y261449D01*
Y266781D01*
X210800Y268113D01*
X208135D01*
X206802Y266781D01*
X204136Y260116D02*
X198804D01*
Y261449D01*
X204136Y266781D01*
Y268113D01*
X196139Y260116D02*
X190807D01*
Y261449D01*
X196139Y266781D01*
Y268113D01*
X207002Y245699D02*
X208335Y244366D01*
X211000D01*
X212333Y245699D01*
Y251030D01*
X211000Y252363D01*
X208335D01*
X207002Y251030D01*
X204336Y244366D02*
X199004D01*
Y245699D01*
X204336Y251030D01*
Y252363D01*
X196339Y245699D02*
X195006Y244366D01*
X192340D01*
X191007Y245699D01*
Y247032D01*
X192340Y248365D01*
X191007Y249697D01*
Y251030D01*
X192340Y252363D01*
X195006D01*
X196339Y251030D01*
Y249697D01*
X195006Y248365D01*
X196339Y247032D01*
Y245699D01*
X195006Y248365D02*
X192340D01*
X142868Y216568D02*
X144201Y215235D01*
X146867D01*
X148199Y216568D01*
Y221900D01*
X146867Y223233D01*
X144201D01*
X142868Y221900D01*
X140202Y216568D02*
X138869Y215235D01*
X136203D01*
X134870Y216568D01*
Y217901D01*
X136203Y219234D01*
X134870Y220567D01*
Y221900D01*
X136203Y223233D01*
X138869D01*
X140202Y221900D01*
Y220567D01*
X138869Y219234D01*
X140202Y217901D01*
Y216568D01*
X138869Y219234D02*
X136203D01*
X132205Y216568D02*
X130872Y215235D01*
X128206D01*
X126873Y216568D01*
Y221900D01*
X128206Y223233D01*
X130872D01*
X132205Y221900D01*
Y216568D01*
X202198Y299132D02*
X200865Y300465D01*
X198200D01*
X196867Y299132D01*
Y293800D01*
X198200Y292467D01*
X200865D01*
X202198Y293800D01*
X204864Y299132D02*
X206197Y300465D01*
X208863D01*
X210196Y299132D01*
Y297799D01*
X208863Y296466D01*
X210196Y295133D01*
Y293800D01*
X208863Y292467D01*
X206197D01*
X204864Y293800D01*
Y295133D01*
X206197Y296466D01*
X204864Y297799D01*
Y299132D01*
X206197Y296466D02*
X208863D01*
X212861Y292467D02*
X215527D01*
X214194D01*
Y300465D01*
X212861Y299132D01*
X187166Y369799D02*
X195163D01*
Y365801D01*
X193831Y364468D01*
X191165D01*
X189832Y365801D01*
Y369799D01*
Y367134D02*
X187166Y364468D01*
Y361802D02*
Y359136D01*
Y360469D01*
X195163D01*
X193831Y361802D01*
X187166Y355137D02*
Y352472D01*
Y353805D01*
X195163D01*
X193831Y355137D01*
Y348473D02*
X195163Y347140D01*
Y344474D01*
X193831Y343141D01*
X188499D01*
X187166Y344474D01*
Y347140D01*
X188499Y348473D01*
X193831D01*
X195234Y377301D02*
X187237D01*
Y381299D01*
X188570Y382632D01*
X191235D01*
X192568Y381299D01*
Y377301D01*
Y379966D02*
X195234Y382632D01*
Y385298D02*
Y387964D01*
Y386631D01*
X187237D01*
X188570Y385298D01*
X195234Y391963D02*
Y394628D01*
Y393296D01*
X187237D01*
X188570Y391963D01*
X195234Y398627D02*
Y401293D01*
Y399960D01*
X187237D01*
X188570Y398627D01*
X192767Y324166D02*
Y332164D01*
X196765D01*
X198098Y330831D01*
Y328165D01*
X196765Y326832D01*
X192767D01*
X195432D02*
X198098Y324166D01*
X200764D02*
X203430D01*
X202097D01*
Y332164D01*
X200764Y330831D01*
X207428Y324166D02*
X210094D01*
X208762D01*
Y332164D01*
X207428Y330831D01*
X219425Y324166D02*
X214093D01*
X219425Y329498D01*
Y330831D01*
X218092Y332164D01*
X215426D01*
X214093Y330831D01*
X189834Y209167D02*
X181836D01*
Y213165D01*
X183169Y214498D01*
X185835D01*
X187168Y213165D01*
Y209167D01*
Y211832D02*
X189834Y214498D01*
Y217164D02*
Y219830D01*
Y218497D01*
X181836D01*
X183169Y217164D01*
X189834Y223829D02*
Y226494D01*
Y225161D01*
X181836D01*
X183169Y223829D01*
X181836Y230493D02*
Y235825D01*
X183169D01*
X188501Y230493D01*
X189834D01*
X174133Y207567D02*
X166136D01*
Y211565D01*
X167469Y212898D01*
X170135D01*
X171468Y211565D01*
Y207567D01*
Y210232D02*
X174133Y212898D01*
Y215564D02*
Y218230D01*
Y216897D01*
X166136D01*
X167469Y215564D01*
X174133Y222229D02*
Y224894D01*
Y223561D01*
X166136D01*
X167469Y222229D01*
Y228893D02*
X166136Y230226D01*
Y232892D01*
X167469Y234225D01*
X168802D01*
X170135Y232892D01*
X171468Y234225D01*
X172800D01*
X174133Y232892D01*
Y230226D01*
X172800Y228893D01*
X171468D01*
X170135Y230226D01*
X168802Y228893D01*
X167469D01*
X170135Y230226D02*
Y232892D01*
X229853Y282879D02*
Y274882D01*
X225854D01*
X224521Y276215D01*
Y278881D01*
X225854Y280214D01*
X229853D01*
X227187D02*
X224521Y282879D01*
X221856D02*
X219190D01*
X220523D01*
Y274882D01*
X221856Y276215D01*
X209859Y282879D02*
X215191D01*
X209859Y277548D01*
Y276215D01*
X211192Y274882D01*
X213858D01*
X215191Y276215D01*
X203195Y282879D02*
Y274882D01*
X207194Y278881D01*
X201862D01*
X230453Y237179D02*
Y229182D01*
X226454D01*
X225121Y230515D01*
Y233181D01*
X226454Y234514D01*
X230453D01*
X227787D02*
X225121Y237179D01*
X222455D02*
X219790D01*
X221122D01*
Y229182D01*
X222455Y230515D01*
X210459Y237179D02*
X215791D01*
X210459Y231848D01*
Y230515D01*
X211792Y229182D01*
X214458D01*
X215791Y230515D01*
X202462Y229182D02*
X207794D01*
Y233181D01*
X205128Y231848D01*
X203795D01*
X202462Y233181D01*
Y235847D01*
X203795Y237179D01*
X206461D01*
X207794Y235847D01*
X201567Y361201D02*
Y369198D01*
X205566D01*
X206899Y367865D01*
Y365199D01*
X205566Y363867D01*
X201567D01*
X204233D02*
X206899Y361201D01*
X209565D02*
X212231D01*
X210898D01*
Y369198D01*
X209565Y367865D01*
X221561Y361201D02*
X216229D01*
X221561Y366532D01*
Y367865D01*
X220228Y369198D01*
X217562D01*
X216229Y367865D01*
X224227D02*
X225560Y369198D01*
X228225D01*
X229558Y367865D01*
Y366532D01*
X228225Y365199D01*
X229558Y363867D01*
Y362534D01*
X228225Y361201D01*
X225560D01*
X224227Y362534D01*
Y363867D01*
X225560Y365199D01*
X224227Y366532D01*
Y367865D01*
X225560Y365199D02*
X228225D01*
X201667Y377001D02*
Y384998D01*
X205666D01*
X206999Y383665D01*
Y380999D01*
X205666Y379666D01*
X201667D01*
X204333D02*
X206999Y377001D01*
X209665D02*
X212330D01*
X210998D01*
Y384998D01*
X209665Y383665D01*
X221661Y377001D02*
X216329D01*
X221661Y382332D01*
Y383665D01*
X220328Y384998D01*
X217662D01*
X216329Y383665D01*
X224327Y378334D02*
X225660Y377001D01*
X228325D01*
X229658Y378334D01*
Y383665D01*
X228325Y384998D01*
X225660D01*
X224327Y383665D01*
Y382332D01*
X225660Y380999D01*
X229658D01*
X220787Y244631D02*
Y252628D01*
X224786D01*
X226119Y251295D01*
Y248629D01*
X224786Y247297D01*
X220787D01*
X223453D02*
X226119Y244631D01*
X228784D02*
X231450D01*
X230117D01*
Y252628D01*
X228784Y251295D01*
X235449D02*
X236782Y252628D01*
X239448D01*
X240781Y251295D01*
Y249962D01*
X239448Y248629D01*
X238115D01*
X239448D01*
X240781Y247297D01*
Y245964D01*
X239448Y244631D01*
X236782D01*
X235449Y245964D01*
X243446Y251295D02*
X244779Y252628D01*
X247445D01*
X248778Y251295D01*
Y245964D01*
X247445Y244631D01*
X244779D01*
X243446Y245964D01*
Y251295D01*
X246753Y268113D02*
Y260115D01*
X242755D01*
X241422Y261448D01*
Y264114D01*
X242755Y265447D01*
X246753D01*
X244088D02*
X241422Y268113D01*
X238756D02*
X236090D01*
X237423D01*
Y260115D01*
X238756Y261448D01*
X232091D02*
X230758Y260115D01*
X228093D01*
X226760Y261448D01*
Y262781D01*
X228093Y264114D01*
X229426D01*
X228093D01*
X226760Y265447D01*
Y266780D01*
X228093Y268113D01*
X230758D01*
X232091Y266780D01*
X224094Y268113D02*
X221428D01*
X222761D01*
Y260115D01*
X224094Y261448D01*
X384669Y319738D02*
X386002Y318405D01*
X388668D01*
X390001Y319738D01*
Y325070D01*
X388668Y326402D01*
X386002D01*
X384669Y325070D01*
X382003Y318405D02*
X376672D01*
Y319738D01*
X382003Y325070D01*
Y326402D01*
X368674Y318405D02*
X371340Y319738D01*
X374006Y322404D01*
Y325070D01*
X372673Y326402D01*
X370007D01*
X368674Y325070D01*
Y323737D01*
X370007Y322404D01*
X374006D01*
X396665Y281561D02*
X395332Y282894D01*
X392666D01*
X391334Y281561D01*
Y276230D01*
X392666Y274897D01*
X395332D01*
X396665Y276230D01*
X399331Y282894D02*
X404663D01*
Y281561D01*
X399331Y276230D01*
Y274897D01*
X407328Y276230D02*
X408661Y274897D01*
X411327D01*
X412660Y276230D01*
Y281561D01*
X411327Y282894D01*
X408661D01*
X407328Y281561D01*
Y280228D01*
X408661Y278895D01*
X412660D01*
X409135Y216039D02*
X410468Y214706D01*
X413134D01*
X414467Y216039D01*
Y221371D01*
X413134Y222703D01*
X410468D01*
X409135Y221371D01*
X406469Y216039D02*
X405136Y214706D01*
X402470D01*
X401138Y216039D01*
Y217372D01*
X402470Y218705D01*
X401138Y220038D01*
Y221371D01*
X402470Y222703D01*
X405136D01*
X406469Y221371D01*
Y220038D01*
X405136Y218705D01*
X406469Y217372D01*
Y216039D01*
X405136Y218705D02*
X402470D01*
X393140Y222703D02*
X398472D01*
X393140Y217372D01*
Y216039D01*
X394473Y214706D01*
X397139D01*
X398472Y216039D01*
X385299Y175361D02*
X383966Y176694D01*
X381301D01*
X379968Y175361D01*
Y170030D01*
X381301Y168697D01*
X383966D01*
X385299Y170030D01*
X387965Y175361D02*
X389298Y176694D01*
X391964D01*
X393297Y175361D01*
Y174028D01*
X391964Y172695D01*
X393297Y171362D01*
Y170030D01*
X391964Y168697D01*
X389298D01*
X387965Y170030D01*
Y171362D01*
X389298Y172695D01*
X387965Y174028D01*
Y175361D01*
X389298Y172695D02*
X391964D01*
X395962Y175361D02*
X397295Y176694D01*
X399961D01*
X401294Y175361D01*
Y174028D01*
X399961Y172695D01*
X398628D01*
X399961D01*
X401294Y171362D01*
Y170030D01*
X399961Y168697D01*
X397295D01*
X395962Y170030D01*
X370632Y198165D02*
X369299Y199498D01*
X366633D01*
X365300Y198165D01*
Y192833D01*
X366633Y191500D01*
X369299D01*
X370632Y192833D01*
X373297Y198165D02*
X374630Y199498D01*
X377296D01*
X378629Y198165D01*
Y196832D01*
X377296Y195499D01*
X378629Y194166D01*
Y192833D01*
X377296Y191500D01*
X374630D01*
X373297Y192833D01*
Y194166D01*
X374630Y195499D01*
X373297Y196832D01*
Y198165D01*
X374630Y195499D02*
X377296D01*
X385294Y191500D02*
Y199498D01*
X381295Y195499D01*
X386627D01*
X341139Y171031D02*
X339807Y169698D01*
Y167032D01*
X341139Y165700D01*
X346471D01*
X347804Y167032D01*
Y169698D01*
X346471Y171031D01*
X341139Y173697D02*
X339807Y175030D01*
Y177696D01*
X341139Y179028D01*
X342472D01*
X343805Y177696D01*
X345138Y179028D01*
X346471D01*
X347804Y177696D01*
Y175030D01*
X346471Y173697D01*
X345138D01*
X343805Y175030D01*
X342472Y173697D01*
X341139D01*
X343805Y175030D02*
Y177696D01*
X339807Y187026D02*
Y181694D01*
X343805D01*
X342472Y184360D01*
Y185693D01*
X343805Y187026D01*
X346471D01*
X347804Y185693D01*
Y183027D01*
X346471Y181694D01*
X325936Y169798D02*
X324603Y168465D01*
Y165799D01*
X325936Y164466D01*
X331267D01*
X332600Y165799D01*
Y168465D01*
X331267Y169798D01*
X325936Y172463D02*
X324603Y173796D01*
Y176462D01*
X325936Y177795D01*
X327268D01*
X328601Y176462D01*
X329934Y177795D01*
X331267D01*
X332600Y176462D01*
Y173796D01*
X331267Y172463D01*
X329934D01*
X328601Y173796D01*
X327268Y172463D01*
X325936D01*
X328601Y173796D02*
Y176462D01*
X324603Y185793D02*
X325936Y183127D01*
X328601Y180461D01*
X331267D01*
X332600Y181794D01*
Y184460D01*
X331267Y185793D01*
X329934D01*
X328601Y184460D01*
Y180461D01*
X392001Y310902D02*
Y302904D01*
X388002D01*
X386669Y304237D01*
Y306903D01*
X388002Y308236D01*
X392001D01*
X389335D02*
X386669Y310902D01*
X384003D02*
X381337D01*
X382670D01*
Y302904D01*
X384003Y304237D01*
X377339Y310902D02*
X374673D01*
X376006D01*
Y302904D01*
X377339Y304237D01*
X370674D02*
X369341Y302904D01*
X366675D01*
X365343Y304237D01*
Y305570D01*
X366675Y306903D01*
X368008D01*
X366675D01*
X365343Y308236D01*
Y309569D01*
X366675Y310902D01*
X369341D01*
X370674Y309569D01*
X288726Y360467D02*
X296724D01*
Y356468D01*
X295391Y355135D01*
X292725D01*
X291392Y356468D01*
Y360467D01*
Y357801D02*
X288726Y355135D01*
Y352469D02*
Y349803D01*
Y351136D01*
X296724D01*
X295391Y352469D01*
X288726Y345805D02*
Y343139D01*
Y344472D01*
X296724D01*
X295391Y345805D01*
X288726Y335141D02*
X296724D01*
X292725Y339140D01*
Y333809D01*
X273512Y360367D02*
X281509D01*
Y356368D01*
X280177Y355035D01*
X277511D01*
X276178Y356368D01*
Y360367D01*
Y357701D02*
X273512Y355035D01*
Y352369D02*
Y349703D01*
Y351036D01*
X281509D01*
X280177Y352369D01*
X273512Y345705D02*
Y343039D01*
Y344372D01*
X281509D01*
X280177Y345705D01*
X281509Y333708D02*
Y339040D01*
X277511D01*
X278844Y336374D01*
Y335041D01*
X277511Y333708D01*
X274845D01*
X273512Y335041D01*
Y337707D01*
X274845Y339040D01*
X258298Y360367D02*
X266295D01*
Y356368D01*
X264963Y355035D01*
X262297D01*
X260964Y356368D01*
Y360367D01*
Y357701D02*
X258298Y355035D01*
Y352369D02*
Y349703D01*
Y351036D01*
X266295D01*
X264963Y352369D01*
X258298Y345705D02*
Y343039D01*
Y344372D01*
X266295D01*
X264963Y345705D01*
X266295Y333708D02*
X264963Y336374D01*
X262297Y339040D01*
X259631D01*
X258298Y337707D01*
Y335041D01*
X259631Y333708D01*
X260964D01*
X262297Y335041D01*
Y339040D01*
X365797Y360067D02*
X373794D01*
Y356068D01*
X372462Y354735D01*
X369796D01*
X368463Y356068D01*
Y360067D01*
Y357401D02*
X365797Y354735D01*
Y352069D02*
Y349403D01*
Y350736D01*
X373794D01*
X372462Y352069D01*
X365797Y345405D02*
Y342739D01*
Y344072D01*
X373794D01*
X372462Y345405D01*
X367130Y338740D02*
X365797Y337407D01*
Y334741D01*
X367130Y333409D01*
X372462D01*
X373794Y334741D01*
Y337407D01*
X372462Y338740D01*
X371129D01*
X369796Y337407D01*
Y333409D01*
X350986Y361400D02*
X358983D01*
Y357401D01*
X357650Y356068D01*
X354985D01*
X353652Y357401D01*
Y361400D01*
Y358734D02*
X350986Y356068D01*
Y353403D02*
Y350737D01*
Y352070D01*
X358983D01*
X357650Y353403D01*
X350986Y341407D02*
Y346738D01*
X356317Y341407D01*
X357650D01*
X358983Y342739D01*
Y345405D01*
X357650Y346738D01*
Y338741D02*
X358983Y337408D01*
Y334742D01*
X357650Y333409D01*
X352319D01*
X350986Y334742D01*
Y337408D01*
X352319Y338741D01*
X357650D01*
X335369Y359467D02*
X343366D01*
Y355468D01*
X342033Y354135D01*
X339367D01*
X338034Y355468D01*
Y359467D01*
Y356801D02*
X335369Y354135D01*
Y351469D02*
Y348803D01*
Y350136D01*
X343366D01*
X342033Y351469D01*
X335369Y339473D02*
Y344805D01*
X340700Y339473D01*
X342033D01*
X343366Y340806D01*
Y343472D01*
X342033Y344805D01*
X335369Y336807D02*
Y334141D01*
Y335474D01*
X343366D01*
X342033Y336807D01*
X319957Y360866D02*
X327955D01*
Y356867D01*
X326622Y355534D01*
X323956D01*
X322623Y356867D01*
Y360866D01*
Y358200D02*
X319957Y355534D01*
Y352869D02*
Y350203D01*
Y351536D01*
X327955D01*
X326622Y352869D01*
X319957Y340872D02*
Y346204D01*
X325289Y340872D01*
X326622D01*
X327955Y342205D01*
Y344871D01*
X326622Y346204D01*
X319957Y332875D02*
Y338207D01*
X325289Y332875D01*
X326622D01*
X327955Y334208D01*
Y336874D01*
X326622Y338207D01*
X304643Y360666D02*
X312640D01*
Y356667D01*
X311307Y355334D01*
X308642D01*
X307309Y356667D01*
Y360666D01*
Y358000D02*
X304643Y355334D01*
Y352669D02*
Y350003D01*
Y351336D01*
X312640D01*
X311307Y352669D01*
X304643Y340672D02*
Y346004D01*
X309974Y340672D01*
X311307D01*
X312640Y342005D01*
Y344671D01*
X311307Y346004D01*
Y338007D02*
X312640Y336674D01*
Y334008D01*
X311307Y332675D01*
X309974D01*
X308642Y334008D01*
Y335341D01*
Y334008D01*
X307309Y332675D01*
X305976D01*
X304643Y334008D01*
Y336674D01*
X305976Y338007D01*
X256701Y232313D02*
X264698D01*
Y228314D01*
X263365Y226981D01*
X260699D01*
X259366Y228314D01*
Y232313D01*
Y229647D02*
X256701Y226981D01*
Y224315D02*
Y221649D01*
Y222982D01*
X264698D01*
X263365Y224315D01*
Y217651D02*
X264698Y216318D01*
Y213652D01*
X263365Y212319D01*
X262032D01*
X260699Y213652D01*
Y214985D01*
Y213652D01*
X259366Y212319D01*
X258034D01*
X256701Y213652D01*
Y216318D01*
X258034Y217651D01*
X256701Y204322D02*
Y209653D01*
X262032Y204322D01*
X263365D01*
X264698Y205655D01*
Y208321D01*
X263365Y209653D01*
X249600Y205100D02*
X241603D01*
Y209099D01*
X242936Y210432D01*
X245601D01*
X246934Y209099D01*
Y205100D01*
Y207766D02*
X249600Y210432D01*
Y213097D02*
Y215763D01*
Y214430D01*
X241603D01*
X242936Y213097D01*
Y219762D02*
X241603Y221095D01*
Y223761D01*
X242936Y225094D01*
X244268D01*
X245601Y223761D01*
Y222428D01*
Y223761D01*
X246934Y225094D01*
X248267D01*
X249600Y223761D01*
Y221095D01*
X248267Y219762D01*
X242936Y227759D02*
X241603Y229092D01*
Y231758D01*
X242936Y233091D01*
X244268D01*
X245601Y231758D01*
Y230425D01*
Y231758D01*
X246934Y233091D01*
X248267D01*
X249600Y231758D01*
Y229092D01*
X248267Y227759D01*
X398035Y234401D02*
X406033Y239732D01*
X398035D02*
X406033Y234401D01*
X398035Y242398D02*
Y247730D01*
Y245064D01*
X406033D01*
X398035Y250395D02*
X406033D01*
Y255727D01*
Y263724D02*
Y258393D01*
X400701Y263724D01*
X399368D01*
X398035Y262391D01*
Y259726D01*
X399368Y258393D01*
X358335Y157532D02*
Y152200D01*
X362334D01*
Y154866D01*
Y152200D01*
X366333D01*
X358335Y160198D02*
X366333D01*
Y164197D01*
X365000Y165530D01*
X363667D01*
X362334Y164197D01*
Y160198D01*
Y164197D01*
X361001Y165530D01*
X359668D01*
X358335Y164197D01*
Y160198D01*
X366333Y168195D02*
Y170861D01*
Y169528D01*
X358335D01*
X359668Y168195D01*
X337168Y145235D02*
X342500D01*
Y149234D01*
X339834D01*
X342500D01*
Y153233D01*
X334502Y145235D02*
Y153233D01*
X330503D01*
X329170Y151900D01*
Y150567D01*
X330503Y149234D01*
X334502D01*
X330503D01*
X329170Y147901D01*
Y146568D01*
X330503Y145235D01*
X334502D01*
X321173Y153233D02*
X326505D01*
X321173Y147901D01*
Y146568D01*
X322506Y145235D01*
X325172D01*
X326505Y146568D01*
X212931Y659368D02*
X214264Y660701D01*
Y663367D01*
X212931Y664699D01*
X207600D01*
X206267Y663367D01*
Y660701D01*
X207600Y659368D01*
X206267Y652703D02*
X214264D01*
X210265Y656702D01*
Y651370D01*
X206267Y648705D02*
Y646039D01*
Y647372D01*
X214264D01*
X212931Y648705D01*
X220769Y650532D02*
X219436Y649199D01*
Y646534D01*
X220769Y645201D01*
X226101D01*
X227433Y646534D01*
Y649199D01*
X226101Y650532D01*
X227433Y657197D02*
X219436D01*
X223435Y653198D01*
Y658530D01*
X227433Y666527D02*
Y661195D01*
X222102Y666527D01*
X220769D01*
X219436Y665194D01*
Y662528D01*
X220769Y661195D01*
X239232Y647468D02*
X240564Y648801D01*
Y651467D01*
X239232Y652800D01*
X233900D01*
X232567Y651467D01*
Y648801D01*
X233900Y647468D01*
X232567Y640803D02*
X240564D01*
X236566Y644802D01*
Y639470D01*
X240564Y636805D02*
Y631473D01*
X239232D01*
X233900Y636805D01*
X232567D01*
X228300Y640633D02*
Y632636D01*
X224301D01*
X222968Y633969D01*
Y636634D01*
X224301Y637967D01*
X228300D01*
X225634D02*
X222968Y640633D01*
X220302Y639300D02*
X218969Y640633D01*
X216303D01*
X214970Y639300D01*
Y633969D01*
X216303Y632636D01*
X218969D01*
X220302Y633969D01*
Y635302D01*
X218969Y636634D01*
X214970D01*
X206973Y640633D02*
X212305D01*
X206973Y635302D01*
Y633969D01*
X208306Y632636D01*
X210972D01*
X212305Y633969D01*
X183901Y649767D02*
X191898D01*
Y645769D01*
X190565Y644436D01*
X187899D01*
X186566Y645769D01*
Y649767D01*
Y647101D02*
X183901Y644436D01*
X185233Y641770D02*
X183901Y640437D01*
Y637771D01*
X185233Y636438D01*
X190565D01*
X191898Y637771D01*
Y640437D01*
X190565Y641770D01*
X189232D01*
X187899Y640437D01*
Y636438D01*
X191898Y628441D02*
Y633772D01*
X187899D01*
X189232Y631107D01*
Y629774D01*
X187899Y628441D01*
X185233D01*
X183901Y629774D01*
Y632439D01*
X185233Y633772D01*
X264798Y656467D02*
X258133D01*
X256800Y655134D01*
Y652468D01*
X258133Y651135D01*
X264798D01*
X256800Y648469D02*
Y645804D01*
Y647136D01*
X264798D01*
X263465Y648469D01*
X264798Y636473D02*
X263465Y639139D01*
X260799Y641805D01*
X258133D01*
X256800Y640472D01*
Y637806D01*
X258133Y636473D01*
X259466D01*
X260799Y637806D01*
Y641805D01*
X214448Y628000D02*
Y624001D01*
X213448D01*
X209450Y628000D01*
X208450D01*
Y624001D01*
X214448Y622002D02*
X208450D01*
Y619003D01*
X209450Y618003D01*
X213448D01*
X214448Y619003D01*
Y622002D01*
X208450Y616004D02*
Y614005D01*
Y615004D01*
X214448D01*
X213448Y616004D01*
X543067Y704001D02*
X544067Y703001D01*
X546066D01*
X547066Y704001D01*
Y708000D01*
X546066Y708999D01*
X544067D01*
X543067Y708000D01*
X541068D02*
X540068Y708999D01*
X538069D01*
X537069Y708000D01*
Y704001D01*
X538069Y703001D01*
X540068D01*
X541068Y704001D01*
Y705001D01*
X540068Y706000D01*
X537069D01*
X535070Y708999D02*
X533070D01*
X534070D01*
Y703001D01*
X535070Y704001D01*
X519001Y721032D02*
X518001Y720032D01*
Y718033D01*
X519001Y717033D01*
X523000D01*
X523999Y718033D01*
Y720032D01*
X523000Y721032D01*
Y723031D02*
X523999Y724031D01*
Y726030D01*
X523000Y727030D01*
X519001D01*
X518001Y726030D01*
Y724031D01*
X519001Y723031D01*
X520001D01*
X521000Y724031D01*
Y727030D01*
X523999Y733028D02*
Y729029D01*
X520001Y733028D01*
X519001D01*
X518001Y732028D01*
Y730029D01*
X519001Y729029D01*
X543368Y730101D02*
X544368Y729101D01*
X546367D01*
X547367Y730101D01*
Y734100D01*
X546367Y735099D01*
X544368D01*
X543368Y734100D01*
X541369D02*
X540369Y735099D01*
X538370D01*
X537370Y734100D01*
Y730101D01*
X538370Y729101D01*
X540369D01*
X541369Y730101D01*
Y731101D01*
X540369Y732100D01*
X537370D01*
X535371Y730101D02*
X534371Y729101D01*
X532372D01*
X531372Y730101D01*
Y731101D01*
X532372Y732100D01*
X533371D01*
X532372D01*
X531372Y733100D01*
Y734100D01*
X532372Y735099D01*
X534371D01*
X535371Y734100D01*
X573534Y704064D02*
Y710062D01*
X576533D01*
X577533Y709062D01*
Y707063D01*
X576533Y706063D01*
X573534D01*
X575533D02*
X577533Y704064D01*
X579532D02*
X581531D01*
X580532D01*
Y710062D01*
X579532Y709062D01*
X584530D02*
X585530Y710062D01*
X587529D01*
X588529Y709062D01*
Y708063D01*
X587529Y707063D01*
X586530D01*
X587529D01*
X588529Y706063D01*
Y705064D01*
X587529Y704064D01*
X585530D01*
X584530Y705064D01*
X590528Y710062D02*
X594527D01*
Y709062D01*
X590528Y705064D01*
Y704064D01*
X594800Y696600D02*
Y690602D01*
X591801D01*
X590801Y691602D01*
Y693601D01*
X591801Y694601D01*
X594800D01*
X592801D02*
X590801Y696600D01*
X588802D02*
X586803D01*
X587802D01*
Y690602D01*
X588802Y691602D01*
X583804D02*
X582804Y690602D01*
X580805D01*
X579805Y691602D01*
Y692601D01*
X580805Y693601D01*
X581804D01*
X580805D01*
X579805Y694601D01*
Y695600D01*
X580805Y696600D01*
X582804D01*
X583804Y695600D01*
X577805Y691602D02*
X576806Y690602D01*
X574807D01*
X573807Y691602D01*
Y692601D01*
X574807Y693601D01*
X573807Y694601D01*
Y695600D01*
X574807Y696600D01*
X576806D01*
X577805Y695600D01*
Y694601D01*
X576806Y693601D01*
X577805Y692601D01*
Y691602D01*
X576806Y693601D02*
X574807D01*
X573901Y676064D02*
X579899D01*
Y673065D01*
X578899Y672066D01*
X576900D01*
X575900Y673065D01*
Y676064D01*
Y674065D02*
X573901Y672066D01*
Y670066D02*
Y668067D01*
Y669067D01*
X579899D01*
X578899Y670066D01*
Y665068D02*
X579899Y664068D01*
Y662069D01*
X578899Y661069D01*
X577899D01*
X576900Y662069D01*
Y663069D01*
Y662069D01*
X575900Y661069D01*
X574900D01*
X573901Y662069D01*
Y664068D01*
X574900Y665068D01*
Y659070D02*
X573901Y658070D01*
Y656071D01*
X574900Y655071D01*
X578899D01*
X579899Y656071D01*
Y658070D01*
X578899Y659070D01*
X577899D01*
X576900Y658070D01*
Y655071D01*
X644000Y717899D02*
X638002D01*
Y720898D01*
X639002Y721898D01*
X641001D01*
X642001Y720898D01*
Y717899D01*
Y719899D02*
X644000Y721898D01*
Y723897D02*
Y725897D01*
Y724897D01*
X638002D01*
X639002Y723897D01*
X644000Y731895D02*
X638002D01*
X641001Y728896D01*
Y732894D01*
X639002Y734894D02*
X638002Y735893D01*
Y737893D01*
X639002Y738892D01*
X643000D01*
X644000Y737893D01*
Y735893D01*
X643000Y734894D01*
X639002D01*
X643799Y769534D02*
X637801D01*
Y772533D01*
X638801Y773533D01*
X640800D01*
X641800Y772533D01*
Y769534D01*
Y771533D02*
X643799Y773533D01*
Y775532D02*
Y777531D01*
Y776532D01*
X637801D01*
X638801Y775532D01*
X643799Y783529D02*
X637801D01*
X640800Y780530D01*
Y784529D01*
X643799Y786528D02*
Y788528D01*
Y787528D01*
X637801D01*
X638801Y786528D01*
X644000Y743500D02*
X638002D01*
Y746499D01*
X639002Y747499D01*
X641001D01*
X642001Y746499D01*
Y743500D01*
Y745499D02*
X644000Y747499D01*
Y749498D02*
Y751497D01*
Y750498D01*
X638002D01*
X639002Y749498D01*
X644000Y757495D02*
X638002D01*
X641001Y754496D01*
Y758495D01*
X644000Y764493D02*
Y760495D01*
X640001Y764493D01*
X639002D01*
X638002Y763493D01*
Y761494D01*
X639002Y760495D01*
X611999Y690535D02*
X606001D01*
Y693534D01*
X607001Y694533D01*
X609000D01*
X610000Y693534D01*
Y690535D01*
Y692534D02*
X611999Y694533D01*
Y696533D02*
Y698532D01*
Y697532D01*
X606001D01*
X607001Y696533D01*
X611999Y704530D02*
X606001D01*
X609000Y701531D01*
Y705530D01*
X607001Y707529D02*
X606001Y708529D01*
Y710528D01*
X607001Y711528D01*
X608001D01*
X609000Y710528D01*
Y709529D01*
Y710528D01*
X610000Y711528D01*
X611000D01*
X611999Y710528D01*
Y708529D01*
X611000Y707529D01*
X549199Y676934D02*
X543201D01*
Y679933D01*
X544201Y680933D01*
X546200D01*
X547200Y679933D01*
Y676934D01*
Y678933D02*
X549199Y680933D01*
Y682932D02*
Y684932D01*
Y683932D01*
X543201D01*
X544201Y682932D01*
X549199Y690930D02*
X543201D01*
X546200Y687931D01*
Y691929D01*
X549199Y696928D02*
X543201D01*
X546200Y693929D01*
Y697927D01*
X538699Y781133D02*
X532701D01*
Y784132D01*
X533701Y785132D01*
X535700D01*
X536700Y784132D01*
Y781133D01*
Y783133D02*
X538699Y785132D01*
Y787131D02*
Y789131D01*
Y788131D01*
X532701D01*
X533701Y787131D01*
X538699Y795129D02*
X532701D01*
X535700Y792130D01*
Y796128D01*
X532701Y802126D02*
Y798128D01*
X535700D01*
X534701Y800127D01*
Y801127D01*
X535700Y802126D01*
X537700D01*
X538699Y801127D01*
Y799128D01*
X537700Y798128D01*
X544201Y802567D02*
X550199D01*
Y799567D01*
X549199Y798568D01*
X547200D01*
X546200Y799567D01*
Y802567D01*
Y800567D02*
X544201Y798568D01*
Y796568D02*
Y794569D01*
Y795569D01*
X550199D01*
X549199Y796568D01*
X544201Y788571D02*
X550199D01*
X547200Y791570D01*
Y787571D01*
X550199Y781573D02*
X549199Y783573D01*
X547200Y785572D01*
X545200D01*
X544201Y784572D01*
Y782573D01*
X545200Y781573D01*
X546200D01*
X547200Y782573D01*
Y785572D01*
X518101Y711766D02*
X524099D01*
Y708767D01*
X523099Y707768D01*
X521100D01*
X520100Y708767D01*
Y711766D01*
Y709767D02*
X518101Y707768D01*
Y705768D02*
Y703769D01*
Y704769D01*
X524099D01*
X523099Y705768D01*
X518101Y697771D02*
X524099D01*
X521100Y700770D01*
Y696771D01*
X524099Y694772D02*
Y690773D01*
X523099D01*
X519100Y694772D01*
X518101D01*
X549966Y722199D02*
Y716201D01*
X546967D01*
X545967Y717201D01*
Y719200D01*
X546967Y720200D01*
X549966D01*
X547967D02*
X545967Y722199D01*
X543968D02*
X541969D01*
X542968D01*
Y716201D01*
X543968Y717201D01*
X535971Y722199D02*
Y716201D01*
X538970Y719200D01*
X534971D01*
X532972Y717201D02*
X531972Y716201D01*
X529973D01*
X528973Y717201D01*
Y718201D01*
X529973Y719200D01*
X528973Y720200D01*
Y721200D01*
X529973Y722199D01*
X531972D01*
X532972Y721200D01*
Y720200D01*
X531972Y719200D01*
X532972Y718201D01*
Y717201D01*
X531972Y719200D02*
X529973D01*
X551667Y775599D02*
Y769601D01*
X548668D01*
X547668Y770601D01*
Y772600D01*
X548668Y773600D01*
X551667D01*
X549668D02*
X547668Y775599D01*
X545669D02*
X543670D01*
X544669D01*
Y769601D01*
X545669Y770601D01*
X537672Y775599D02*
Y769601D01*
X540671Y772600D01*
X536672D01*
X534673Y774600D02*
X533673Y775599D01*
X531674D01*
X530674Y774600D01*
Y770601D01*
X531674Y769601D01*
X533673D01*
X534673Y770601D01*
Y771601D01*
X533673Y772600D01*
X530674D01*
X549968Y671799D02*
Y665801D01*
X546969D01*
X545969Y666801D01*
Y668800D01*
X546969Y669800D01*
X549968D01*
X547969D02*
X545969Y671799D01*
X543970D02*
X541970D01*
X542970D01*
Y665801D01*
X543970Y666801D01*
X534973Y665801D02*
X538971D01*
Y668800D01*
X536972Y667801D01*
X535973D01*
X534973Y668800D01*
Y670800D01*
X535973Y671799D01*
X537972D01*
X538971Y670800D01*
X532974Y666801D02*
X531974Y665801D01*
X529975D01*
X528975Y666801D01*
Y670800D01*
X529975Y671799D01*
X531974D01*
X532974Y670800D01*
Y666801D01*
X535867Y684799D02*
Y678801D01*
X532868D01*
X531869Y679801D01*
Y681800D01*
X532868Y682800D01*
X535867D01*
X533868D02*
X531869Y684799D01*
X529869D02*
X527870D01*
X528870D01*
Y678801D01*
X529869Y679801D01*
X520872Y678801D02*
X524871D01*
Y681800D01*
X522872Y680801D01*
X521872D01*
X520872Y681800D01*
Y683800D01*
X521872Y684799D01*
X523871D01*
X524871Y683800D01*
X518873Y684799D02*
X516873D01*
X517873D01*
Y678801D01*
X518873Y679801D01*
X625835Y700299D02*
Y696300D01*
X627834Y694301D01*
X629833Y696300D01*
Y700299D01*
X631833D02*
Y694301D01*
X634832D01*
X635831Y695300D01*
Y699299D01*
X634832Y700299D01*
X631833D01*
X637831Y694301D02*
X639830D01*
X638830D01*
Y700299D01*
X637831Y699299D01*
X598842Y668414D02*
Y672413D01*
X597842Y673412D01*
X595843D01*
X594843Y672413D01*
Y668414D01*
X595843Y667414D01*
X597842D01*
X596842Y669414D02*
X598842Y667414D01*
X597842D02*
X598842Y668414D01*
X603840Y667414D02*
Y673412D01*
X600841Y670414D01*
X604840D01*
X631483Y668414D02*
Y672413D01*
X630484Y673413D01*
X628484D01*
X627485Y672413D01*
Y668414D01*
X628484Y667415D01*
X630484D01*
X629484Y669414D02*
X631483Y667415D01*
X630484D02*
X631483Y668414D01*
X637481Y673413D02*
X633483D01*
Y670414D01*
X635482Y671413D01*
X636482D01*
X637481Y670414D01*
Y668414D01*
X636482Y667415D01*
X634482D01*
X633483Y668414D01*
X531299Y748498D02*
X530299Y749498D01*
X528300D01*
X527300Y748498D01*
Y744500D01*
X528300Y743500D01*
X530299D01*
X531299Y744500D01*
X533298Y748498D02*
X534298Y749498D01*
X536297D01*
X537297Y748498D01*
Y747499D01*
X536297Y746499D01*
X537297Y745499D01*
Y744500D01*
X536297Y743500D01*
X534298D01*
X533298Y744500D01*
Y745499D01*
X534298Y746499D01*
X533298Y747499D01*
Y748498D01*
X534298Y746499D02*
X536297D01*
X539296Y749498D02*
X543295D01*
Y748498D01*
X539296Y744500D01*
Y743500D01*
X531034Y761599D02*
X530035Y762599D01*
X528035D01*
X527035Y761599D01*
Y757600D01*
X528035Y756601D01*
X530035D01*
X531034Y757600D01*
X533034Y761599D02*
X534033Y762599D01*
X536033D01*
X537032Y761599D01*
Y760599D01*
X536033Y759600D01*
X537032Y758600D01*
Y757600D01*
X536033Y756601D01*
X534033D01*
X533034Y757600D01*
Y758600D01*
X534033Y759600D01*
X533034Y760599D01*
Y761599D01*
X534033Y759600D02*
X536033D01*
X539032Y761599D02*
X540031Y762599D01*
X542031D01*
X543030Y761599D01*
Y760599D01*
X542031Y759600D01*
X543030Y758600D01*
Y757600D01*
X542031Y756601D01*
X540031D01*
X539032Y757600D01*
Y758600D01*
X540031Y759600D01*
X539032Y760599D01*
Y761599D01*
X540031Y759600D02*
X542031D01*
X540202Y637166D02*
X539202Y636167D01*
Y634167D01*
X540202Y633168D01*
X544200D01*
X545200Y634167D01*
Y636167D01*
X544200Y637166D01*
X540202Y639166D02*
X539202Y640165D01*
Y642165D01*
X540202Y643165D01*
X541201D01*
X542201Y642165D01*
X543201Y643165D01*
X544200D01*
X545200Y642165D01*
Y640165D01*
X544200Y639166D01*
X543201D01*
X542201Y640165D01*
X541201Y639166D01*
X540202D01*
X542201Y640165D02*
Y642165D01*
X544200Y645164D02*
X545200Y646163D01*
Y648163D01*
X544200Y649163D01*
X540202D01*
X539202Y648163D01*
Y646163D01*
X540202Y645164D01*
X541201D01*
X542201Y646163D01*
Y649163D01*
X553367Y637667D02*
X552368Y636667D01*
Y634668D01*
X553367Y633668D01*
X557366D01*
X558366Y634668D01*
Y636667D01*
X557366Y637667D01*
Y639666D02*
X558366Y640666D01*
Y642665D01*
X557366Y643664D01*
X553367D01*
X552368Y642665D01*
Y640666D01*
X553367Y639666D01*
X554367D01*
X555367Y640666D01*
Y643664D01*
X553367Y645664D02*
X552368Y646664D01*
Y648663D01*
X553367Y649663D01*
X557366D01*
X558366Y648663D01*
Y646664D01*
X557366Y645664D01*
X553367D01*
X514802Y639700D02*
X519800D01*
X520800Y640700D01*
Y642699D01*
X519800Y643699D01*
X514802D01*
X520800Y649697D02*
Y645698D01*
X516801Y649697D01*
X515802D01*
X514802Y648697D01*
Y646698D01*
X515802Y645698D01*
X519800Y651696D02*
X520800Y652696D01*
Y654695D01*
X519800Y655695D01*
X515802D01*
X514802Y654695D01*
Y652696D01*
X515802Y651696D01*
X516801D01*
X517801Y652696D01*
Y655695D01*
X708599Y273166D02*
X707600Y274165D01*
X705600D01*
X704601Y273166D01*
Y269167D01*
X705600Y268167D01*
X707600D01*
X708599Y269167D01*
X710599D02*
X711598Y268167D01*
X713598D01*
X714597Y269167D01*
Y273166D01*
X713598Y274165D01*
X711598D01*
X710599Y273166D01*
Y272166D01*
X711598Y271166D01*
X714597D01*
X719596Y268167D02*
Y274165D01*
X716597Y271166D01*
X720595D01*
X725716Y325616D02*
X724717Y326616D01*
X722717D01*
X721718Y325616D01*
Y321617D01*
X722717Y320618D01*
X724717D01*
X725716Y321617D01*
X727716D02*
X728715Y320618D01*
X730715D01*
X731714Y321617D01*
Y325616D01*
X730715Y326616D01*
X728715D01*
X727716Y325616D01*
Y324616D01*
X728715Y323617D01*
X731714D01*
X737712Y326616D02*
X733714D01*
Y323617D01*
X735713Y324616D01*
X736713D01*
X737712Y323617D01*
Y321617D01*
X736713Y320618D01*
X734713D01*
X733714Y321617D01*
X642916Y312884D02*
Y306886D01*
X639917D01*
X638918Y307885D01*
Y309885D01*
X639917Y310884D01*
X642916D01*
X640917D02*
X638918Y312884D01*
X636918D02*
X634919D01*
X635919D01*
Y306886D01*
X636918Y307885D01*
X627921Y306886D02*
X631920D01*
Y309885D01*
X629921Y308885D01*
X628921D01*
X627921Y309885D01*
Y311884D01*
X628921Y312884D01*
X630920D01*
X631920Y311884D01*
X621923Y312884D02*
X625922D01*
X621923Y308885D01*
Y307885D01*
X622923Y306886D01*
X624922D01*
X625922Y307885D01*
X642816Y326184D02*
Y320186D01*
X639817D01*
X638818Y321185D01*
Y323185D01*
X639817Y324184D01*
X642816D01*
X640817D02*
X638818Y326184D01*
X636818D02*
X634819D01*
X635819D01*
Y320186D01*
X636818Y321185D01*
X627821Y320186D02*
X631820D01*
Y323185D01*
X629821Y322185D01*
X628821D01*
X627821Y323185D01*
Y325184D01*
X628821Y326184D01*
X630820D01*
X631820Y325184D01*
X625822Y321185D02*
X624822Y320186D01*
X622823D01*
X621823Y321185D01*
Y322185D01*
X622823Y323185D01*
X623823D01*
X622823D01*
X621823Y324184D01*
Y325184D01*
X622823Y326184D01*
X624822D01*
X625822Y325184D01*
X678019Y297300D02*
X684684D01*
X686017Y298633D01*
Y301299D01*
X684684Y302632D01*
X678019D01*
X679352Y305297D02*
X678019Y306630D01*
Y309296D01*
X679352Y310629D01*
X680685D01*
X682018Y309296D01*
Y307963D01*
Y309296D01*
X683351Y310629D01*
X684684D01*
X686017Y309296D01*
Y306630D01*
X684684Y305297D01*
X679352Y313295D02*
X678019Y314628D01*
Y317293D01*
X679352Y318626D01*
X684684D01*
X686017Y317293D01*
Y314628D01*
X684684Y313295D01*
X679352D01*
X725552Y286851D02*
X731550Y290850D01*
X725552D02*
X731550Y286851D01*
X725552Y292849D02*
Y296848D01*
Y294848D01*
X731550D01*
X725552Y298847D02*
X731550D01*
Y302846D01*
X726551Y304845D02*
X725552Y305845D01*
Y307844D01*
X726551Y308844D01*
X727551D01*
X728551Y307844D01*
Y306845D01*
Y307844D01*
X729550Y308844D01*
X730550D01*
X731550Y307844D01*
Y305845D01*
X730550Y304845D01*
X590634Y247999D02*
X596632D01*
Y245000D01*
X595633Y244001D01*
X593633D01*
X592634Y245000D01*
Y247999D01*
Y246000D02*
X590634Y244001D01*
Y242001D02*
Y240002D01*
Y241002D01*
X596632D01*
X595633Y242001D01*
Y237003D02*
X596632Y236003D01*
Y234004D01*
X595633Y233004D01*
X594633D01*
X593633Y234004D01*
Y235004D01*
Y234004D01*
X592634Y233004D01*
X591634D01*
X590634Y234004D01*
Y236003D01*
X591634Y237003D01*
X590634Y228006D02*
X596632D01*
X593633Y231005D01*
Y227006D01*
X577334Y247899D02*
X583332D01*
Y244900D01*
X582332Y243901D01*
X580333D01*
X579333Y244900D01*
Y247899D01*
Y245900D02*
X577334Y243901D01*
Y241901D02*
Y239902D01*
Y240902D01*
X583332D01*
X582332Y241901D01*
Y236903D02*
X583332Y235903D01*
Y233904D01*
X582332Y232904D01*
X581333D01*
X580333Y233904D01*
Y234904D01*
Y233904D01*
X579333Y232904D01*
X578334D01*
X577334Y233904D01*
Y235903D01*
X578334Y236903D01*
X583332Y226906D02*
Y230905D01*
X580333D01*
X581333Y228906D01*
Y227906D01*
X580333Y226906D01*
X578334D01*
X577334Y227906D01*
Y229905D01*
X578334Y230905D01*
X563834Y248099D02*
X569832D01*
Y245100D01*
X568832Y244101D01*
X566833D01*
X565833Y245100D01*
Y248099D01*
Y246100D02*
X563834Y244101D01*
Y242101D02*
Y240102D01*
Y241102D01*
X569832D01*
X568832Y242101D01*
Y237103D02*
X569832Y236103D01*
Y234104D01*
X568832Y233104D01*
X567833D01*
X566833Y234104D01*
Y235104D01*
Y234104D01*
X565833Y233104D01*
X564834D01*
X563834Y234104D01*
Y236103D01*
X564834Y237103D01*
X569832Y227106D02*
X568832Y229105D01*
X566833Y231105D01*
X564834D01*
X563834Y230105D01*
Y228106D01*
X564834Y227106D01*
X565833D01*
X566833Y228106D01*
Y231105D01*
X575070Y267400D02*
X581734D01*
X583067Y268733D01*
Y271399D01*
X581734Y272732D01*
X575070D01*
X583067Y280729D02*
Y275397D01*
X577736Y280729D01*
X576403D01*
X575070Y279396D01*
Y276730D01*
X576403Y275397D01*
X575070Y283395D02*
Y288726D01*
X576403D01*
X581734Y283395D01*
X583067D01*
X603502Y312799D02*
X602502Y311799D01*
Y309800D01*
X603502Y308800D01*
X607500D01*
X608500Y309800D01*
Y311799D01*
X607500Y312799D01*
Y314798D02*
X608500Y315798D01*
Y317797D01*
X607500Y318797D01*
X603502D01*
X602502Y317797D01*
Y315798D01*
X603502Y314798D01*
X604501D01*
X605501Y315798D01*
Y318797D01*
X602502Y320796D02*
Y324795D01*
X603502D01*
X607500Y320796D01*
X608500D01*
X944267Y707400D02*
Y701401D01*
X941268D01*
X940268Y702401D01*
Y704400D01*
X941268Y705400D01*
X944267D01*
X942268D02*
X940268Y707400D01*
X934270Y701401D02*
X938269D01*
Y704400D01*
X936270Y703401D01*
X935270D01*
X934270Y704400D01*
Y706400D01*
X935270Y707400D01*
X937269D01*
X938269Y706400D01*
X763700Y155567D02*
X769699D01*
Y152568D01*
X768699Y151568D01*
X766700D01*
X765700Y152568D01*
Y155567D01*
Y153568D02*
X763700Y151568D01*
X769699Y145570D02*
X768699Y147570D01*
X766700Y149569D01*
X764700D01*
X763700Y148569D01*
Y146570D01*
X764700Y145570D01*
X765700D01*
X766700Y146570D01*
Y149569D01*
X922899Y698984D02*
X916901D01*
Y701983D01*
X917901Y702982D01*
X919900D01*
X920900Y701983D01*
Y698984D01*
Y700983D02*
X922899Y702982D01*
X917901Y704982D02*
X916901Y705981D01*
Y707981D01*
X917901Y708980D01*
X918901D01*
X919900Y707981D01*
X920900Y708980D01*
X921900D01*
X922899Y707981D01*
Y705981D01*
X921900Y704982D01*
X920900D01*
X919900Y705981D01*
X918901Y704982D01*
X917901D01*
X919900Y705981D02*
Y707981D01*
X763867Y134199D02*
X769865D01*
Y131200D01*
X768866Y130201D01*
X766866D01*
X765867Y131200D01*
Y134199D01*
Y132200D02*
X763867Y130201D01*
Y128201D02*
Y126202D01*
Y127202D01*
X769865D01*
X768866Y128201D01*
Y123203D02*
X769865Y122203D01*
Y120204D01*
X768866Y119204D01*
X764867D01*
X763867Y120204D01*
Y122203D01*
X764867Y123203D01*
X768866D01*
X713665Y133434D02*
X714664Y132435D01*
X716664D01*
X717663Y133434D01*
Y137433D01*
X716664Y138433D01*
X714664D01*
X713665Y137433D01*
X711665D02*
X710666Y138433D01*
X708666D01*
X707667Y137433D01*
Y133434D01*
X708666Y132435D01*
X710666D01*
X711665Y133434D01*
Y134434D01*
X710666Y135434D01*
X707667D01*
X701669Y132435D02*
X703668Y133434D01*
X705667Y135434D01*
Y137433D01*
X704668Y138433D01*
X702668D01*
X701669Y137433D01*
Y136433D01*
X702668Y135434D01*
X705667D01*
X330648Y628200D02*
Y624201D01*
X329648D01*
X325650Y628200D01*
X324650D01*
Y624201D01*
X330648Y622202D02*
X324650D01*
Y619203D01*
X325650Y618203D01*
X329648D01*
X330648Y619203D01*
Y622202D01*
X324650Y612205D02*
Y616204D01*
X328649Y612205D01*
X329648D01*
X330648Y613205D01*
Y615204D01*
X329648Y616204D01*
X336969Y650732D02*
X335636Y649399D01*
Y646733D01*
X336969Y645401D01*
X342300D01*
X343633Y646733D01*
Y649399D01*
X342300Y650732D01*
X343633Y657397D02*
X335636D01*
X339635Y653398D01*
Y658730D01*
X343633Y665394D02*
X335636D01*
X339635Y661395D01*
Y666727D01*
X380998Y656667D02*
X374333D01*
X373000Y655334D01*
Y652668D01*
X374333Y651335D01*
X380998D01*
X373000Y648669D02*
Y646004D01*
Y647337D01*
X380998D01*
X379665Y648669D01*
X380998Y642005D02*
Y636673D01*
X379665D01*
X374333Y642005D01*
X373000D01*
X300100Y649967D02*
X308098D01*
Y645969D01*
X306765Y644636D01*
X304099D01*
X302766Y645969D01*
Y649967D01*
Y647301D02*
X300100Y644636D01*
X301434Y641970D02*
X300100Y640637D01*
Y637971D01*
X301434Y636638D01*
X306765D01*
X308098Y637971D01*
Y640637D01*
X306765Y641970D01*
X305432D01*
X304099Y640637D01*
Y636638D01*
X308098Y628641D02*
X306765Y631307D01*
X304099Y633972D01*
X301434D01*
X300100Y632640D01*
Y629974D01*
X301434Y628641D01*
X302766D01*
X304099Y629974D01*
Y633972D01*
X344500Y640833D02*
Y632836D01*
X340501D01*
X339168Y634169D01*
Y636834D01*
X340501Y638167D01*
X344500D01*
X341834D02*
X339168Y640833D01*
X336502Y639500D02*
X335169Y640833D01*
X332503D01*
X331171Y639500D01*
Y634169D01*
X332503Y632836D01*
X335169D01*
X336502Y634169D01*
Y635502D01*
X335169Y636834D01*
X331171D01*
X328505Y634169D02*
X327172Y632836D01*
X324506D01*
X323173Y634169D01*
Y635502D01*
X324506Y636834D01*
X325839D01*
X324506D01*
X323173Y638167D01*
Y639500D01*
X324506Y640833D01*
X327172D01*
X328505Y639500D01*
X329131Y659568D02*
X330464Y660901D01*
Y663567D01*
X329131Y664900D01*
X323800D01*
X322467Y663567D01*
Y660901D01*
X323800Y659568D01*
X322467Y652903D02*
X330464D01*
X326465Y656902D01*
Y651571D01*
X329131Y648905D02*
X330464Y647572D01*
Y644906D01*
X329131Y643573D01*
X327798D01*
X326465Y644906D01*
Y646239D01*
Y644906D01*
X325132Y643573D01*
X323800D01*
X322467Y644906D01*
Y647572D01*
X323800Y648905D01*
X355432Y647668D02*
X356764Y649001D01*
Y651667D01*
X355432Y652999D01*
X350100D01*
X348767Y651667D01*
Y649001D01*
X350100Y647668D01*
X356764Y639670D02*
Y645002D01*
X352766D01*
X354099Y642336D01*
Y641003D01*
X352766Y639670D01*
X350100D01*
X348767Y641003D01*
Y643669D01*
X350100Y645002D01*
X348767Y637005D02*
Y634339D01*
Y635672D01*
X356764D01*
X355432Y637005D01*
X355481Y590368D02*
X356814Y591701D01*
Y594367D01*
X355481Y595700D01*
X350150D01*
X348817Y594367D01*
Y591701D01*
X350150Y590368D01*
X356814Y582370D02*
Y587702D01*
X352816D01*
X354149Y585036D01*
Y583703D01*
X352816Y582370D01*
X350150D01*
X348817Y583703D01*
Y586369D01*
X350150Y587702D01*
Y579705D02*
X348817Y578372D01*
Y575706D01*
X350150Y574373D01*
X355481D01*
X356814Y575706D01*
Y578372D01*
X355481Y579705D01*
X354149D01*
X352816Y578372D01*
Y574373D01*
X329181Y602268D02*
X330514Y603601D01*
Y606267D01*
X329181Y607599D01*
X323850D01*
X322517Y606267D01*
Y603601D01*
X323850Y602268D01*
X330514Y594271D02*
Y599602D01*
X326515D01*
X327848Y596936D01*
Y595603D01*
X326515Y594271D01*
X323850D01*
X322517Y595603D01*
Y598269D01*
X323850Y599602D01*
X329181Y591605D02*
X330514Y590272D01*
Y587606D01*
X329181Y586273D01*
X327848D01*
X326515Y587606D01*
Y588939D01*
Y587606D01*
X325182Y586273D01*
X323850D01*
X322517Y587606D01*
Y590272D01*
X323850Y591605D01*
X344549Y583533D02*
Y575536D01*
X340551D01*
X339218Y576869D01*
Y579534D01*
X340551Y580867D01*
X344549D01*
X341884D02*
X339218Y583533D01*
X336552Y582200D02*
X335219Y583533D01*
X332553D01*
X331220Y582200D01*
Y576869D01*
X332553Y575536D01*
X335219D01*
X336552Y576869D01*
Y578201D01*
X335219Y579534D01*
X331220D01*
X328555Y576869D02*
X327222Y575536D01*
X324556D01*
X323223Y576869D01*
Y578201D01*
X324556Y579534D01*
X323223Y580867D01*
Y582200D01*
X324556Y583533D01*
X327222D01*
X328555Y582200D01*
Y580867D01*
X327222Y579534D01*
X328555Y578201D01*
Y576869D01*
X327222Y579534D02*
X324556D01*
X300151Y592667D02*
X308148D01*
Y588669D01*
X306815Y587336D01*
X304149D01*
X302816Y588669D01*
Y592667D01*
Y590001D02*
X300151Y587336D01*
Y584670D02*
Y582004D01*
Y583337D01*
X308148D01*
X306815Y584670D01*
Y578005D02*
X308148Y576672D01*
Y574007D01*
X306815Y572674D01*
X301483D01*
X300151Y574007D01*
Y576672D01*
X301483Y578005D01*
X306815D01*
X300151Y570008D02*
Y567342D01*
Y568675D01*
X308148D01*
X306815Y570008D01*
X381048Y599367D02*
X374383D01*
X373050Y598034D01*
Y595368D01*
X374383Y594035D01*
X381048D01*
X373050Y591369D02*
Y588704D01*
Y590037D01*
X381048D01*
X379715Y591369D01*
X374383Y584705D02*
X373050Y583372D01*
Y580706D01*
X374383Y579373D01*
X379715D01*
X381048Y580706D01*
Y583372D01*
X379715Y584705D01*
X378382D01*
X377049Y583372D01*
Y579373D01*
X337019Y593432D02*
X335686Y592099D01*
Y589434D01*
X337019Y588101D01*
X342351D01*
X343683Y589434D01*
Y592099D01*
X342351Y593432D01*
X335686Y601430D02*
Y596098D01*
X339685D01*
X338352Y598764D01*
Y600097D01*
X339685Y601430D01*
X342351D01*
X343683Y600097D01*
Y597431D01*
X342351Y596098D01*
X343683Y608094D02*
X335686D01*
X339685Y604095D01*
Y609427D01*
X330698Y570900D02*
Y566901D01*
X329698D01*
X325700Y570900D01*
X324700D01*
Y566901D01*
X330698Y564902D02*
X324700D01*
Y561903D01*
X325700Y560903D01*
X329698D01*
X330698Y561903D01*
Y564902D01*
X324700Y555905D02*
X330698D01*
X327699Y558904D01*
Y554905D01*
X214498Y570700D02*
Y566701D01*
X213498D01*
X209500Y570700D01*
X208500D01*
Y566701D01*
X214498Y564702D02*
X208500D01*
Y561703D01*
X209500Y560703D01*
X213498D01*
X214498Y561703D01*
Y564702D01*
X213498Y558704D02*
X214498Y557704D01*
Y555705D01*
X213498Y554705D01*
X212499D01*
X211499Y555705D01*
Y556704D01*
Y555705D01*
X210499Y554705D01*
X209500D01*
X208500Y555705D01*
Y557704D01*
X209500Y558704D01*
X264848Y599167D02*
X258183D01*
X256850Y597834D01*
Y595168D01*
X258183Y593835D01*
X264848D01*
X256850Y591169D02*
Y588503D01*
Y589836D01*
X264848D01*
X263515Y591169D01*
Y584505D02*
X264848Y583172D01*
Y580506D01*
X263515Y579173D01*
X262182D01*
X260849Y580506D01*
X259516Y579173D01*
X258183D01*
X256850Y580506D01*
Y583172D01*
X258183Y584505D01*
X259516D01*
X260849Y583172D01*
X262182Y584505D01*
X263515D01*
X260849Y583172D02*
Y580506D01*
X183951Y592467D02*
X191948D01*
Y588469D01*
X190615Y587136D01*
X187949D01*
X186616Y588469D01*
Y592467D01*
Y589801D02*
X183951Y587136D01*
X185283Y584470D02*
X183951Y583137D01*
Y580471D01*
X185283Y579138D01*
X190615D01*
X191948Y580471D01*
Y583137D01*
X190615Y584470D01*
X189282D01*
X187949Y583137D01*
Y579138D01*
X191948Y576472D02*
Y571141D01*
X190615D01*
X185283Y576472D01*
X183951D01*
X228349Y583333D02*
Y575336D01*
X224351D01*
X223018Y576669D01*
Y579334D01*
X224351Y580667D01*
X228349D01*
X225684D02*
X223018Y583333D01*
X220352Y582000D02*
X219019Y583333D01*
X216353D01*
X215020Y582000D01*
Y576669D01*
X216353Y575336D01*
X219019D01*
X220352Y576669D01*
Y578002D01*
X219019Y579334D01*
X215020D01*
X208356Y583333D02*
Y575336D01*
X212355Y579334D01*
X207023D01*
X239282Y590168D02*
X240614Y591501D01*
Y594167D01*
X239282Y595499D01*
X233950D01*
X232617Y594167D01*
Y591501D01*
X233950Y590168D01*
X240614Y582170D02*
Y587502D01*
X236616D01*
X237949Y584836D01*
Y583503D01*
X236616Y582170D01*
X233950D01*
X232617Y583503D01*
Y586169D01*
X233950Y587502D01*
X232617Y574173D02*
Y579505D01*
X237949Y574173D01*
X239282D01*
X240614Y575506D01*
Y578172D01*
X239282Y579505D01*
X220819Y593232D02*
X219486Y591899D01*
Y589234D01*
X220819Y587901D01*
X226150D01*
X227483Y589234D01*
Y591899D01*
X226150Y593232D01*
X227483Y599897D02*
X219486D01*
X223485Y595898D01*
Y601230D01*
X219486Y609227D02*
X220819Y606561D01*
X223485Y603895D01*
X226150D01*
X227483Y605228D01*
Y607894D01*
X226150Y609227D01*
X224818D01*
X223485Y607894D01*
Y603895D01*
X212981Y602068D02*
X214314Y603401D01*
Y606067D01*
X212981Y607399D01*
X207650D01*
X206317Y606067D01*
Y603401D01*
X207650Y602068D01*
X206317Y595403D02*
X214314D01*
X210315Y599402D01*
Y594071D01*
X214314Y586073D02*
Y591405D01*
X210315D01*
X211648Y588739D01*
Y587406D01*
X210315Y586073D01*
X207650D01*
X206317Y587406D01*
Y590072D01*
X207650Y591405D01*
X212931Y545568D02*
X214264Y546901D01*
Y549567D01*
X212931Y550900D01*
X207600D01*
X206267Y549567D01*
Y546901D01*
X207600Y545568D01*
X214264Y537570D02*
Y542902D01*
X210265D01*
X211598Y540236D01*
Y538903D01*
X210265Y537570D01*
X207600D01*
X206267Y538903D01*
Y541569D01*
X207600Y542902D01*
X214264Y529573D02*
Y534905D01*
X210265D01*
X211598Y532239D01*
Y530906D01*
X210265Y529573D01*
X207600D01*
X206267Y530906D01*
Y533572D01*
X207600Y534905D01*
X220769Y536732D02*
X219436Y535399D01*
Y532733D01*
X220769Y531401D01*
X226101D01*
X227433Y532733D01*
Y535399D01*
X226101Y536732D01*
X219436Y544730D02*
Y539398D01*
X223435D01*
X222102Y542064D01*
Y543397D01*
X223435Y544730D01*
X226101D01*
X227433Y543397D01*
Y540731D01*
X226101Y539398D01*
X219436Y552727D02*
X220769Y550061D01*
X223435Y547395D01*
X226101D01*
X227433Y548728D01*
Y551394D01*
X226101Y552727D01*
X224768D01*
X223435Y551394D01*
Y547395D01*
X239231Y533668D02*
X240564Y535001D01*
Y537667D01*
X239231Y538999D01*
X233900D01*
X232567Y537667D01*
Y535001D01*
X233900Y533668D01*
X240564Y525671D02*
X239231Y528336D01*
X236566Y531002D01*
X233900D01*
X232567Y529669D01*
Y527003D01*
X233900Y525671D01*
X235233D01*
X236566Y527003D01*
Y531002D01*
X239231Y523005D02*
X240564Y521672D01*
Y519006D01*
X239231Y517673D01*
X233900D01*
X232567Y519006D01*
Y521672D01*
X233900Y523005D01*
X239231D01*
X228300Y526833D02*
Y518836D01*
X224301D01*
X222968Y520169D01*
Y522834D01*
X224301Y524167D01*
X228300D01*
X225634D02*
X222968Y526833D01*
X220302Y525500D02*
X218969Y526833D01*
X216303D01*
X214970Y525500D01*
Y520169D01*
X216303Y518836D01*
X218969D01*
X220302Y520169D01*
Y521502D01*
X218969Y522834D01*
X214970D01*
X212305Y525500D02*
X210972Y526833D01*
X208306D01*
X206973Y525500D01*
Y520169D01*
X208306Y518836D01*
X210972D01*
X212305Y520169D01*
Y521502D01*
X210972Y522834D01*
X206973D01*
X183901Y535967D02*
X191898D01*
Y531968D01*
X190565Y530636D01*
X187899D01*
X186566Y531968D01*
Y535967D01*
Y533301D02*
X183901Y530636D01*
Y527970D02*
Y525304D01*
Y526637D01*
X191898D01*
X190565Y527970D01*
Y521305D02*
X191898Y519972D01*
Y517307D01*
X190565Y515974D01*
X185233D01*
X183901Y517307D01*
Y519972D01*
X185233Y521305D01*
X190565D01*
X183901Y507976D02*
Y513308D01*
X189232Y507976D01*
X190565D01*
X191898Y509309D01*
Y511975D01*
X190565Y513308D01*
X264798Y542667D02*
X258133D01*
X256800Y541334D01*
Y538668D01*
X258133Y537335D01*
X264798D01*
X256800Y529338D02*
Y534669D01*
X262132Y529338D01*
X263465D01*
X264798Y530671D01*
Y533336D01*
X263465Y534669D01*
Y526672D02*
X264798Y525339D01*
Y522673D01*
X263465Y521340D01*
X258133D01*
X256800Y522673D01*
Y525339D01*
X258133Y526672D01*
X263465D01*
X214448Y514200D02*
Y510201D01*
X213448D01*
X209450Y514200D01*
X208450D01*
Y510201D01*
X214448Y508202D02*
X208450D01*
Y505203D01*
X209450Y504203D01*
X213448D01*
X214448Y505203D01*
Y508202D01*
Y498205D02*
Y502204D01*
X211449D01*
X212449Y500205D01*
Y499205D01*
X211449Y498205D01*
X209450D01*
X208450Y499205D01*
Y501204D01*
X209450Y502204D01*
X330648Y514400D02*
Y510401D01*
X329648D01*
X325650Y514400D01*
X324650D01*
Y510401D01*
X330648Y508402D02*
X324650D01*
Y505403D01*
X325650Y504403D01*
X329648D01*
X330648Y505403D01*
Y508402D01*
Y498405D02*
X329648Y500405D01*
X327649Y502404D01*
X325650D01*
X324650Y501404D01*
Y499405D01*
X325650Y498405D01*
X326649D01*
X327649Y499405D01*
Y502404D01*
X336969Y536932D02*
X335636Y535599D01*
Y532934D01*
X336969Y531601D01*
X342300D01*
X343633Y532934D01*
Y535599D01*
X342300Y536932D01*
X335636Y544930D02*
Y539598D01*
X339635D01*
X338302Y542264D01*
Y543597D01*
X339635Y544930D01*
X342300D01*
X343633Y543597D01*
Y540931D01*
X342300Y539598D01*
X336969Y547595D02*
X335636Y548928D01*
Y551594D01*
X336969Y552927D01*
X338302D01*
X339635Y551594D01*
X340968Y552927D01*
X342300D01*
X343633Y551594D01*
Y548928D01*
X342300Y547595D01*
X340968D01*
X339635Y548928D01*
X338302Y547595D01*
X336969D01*
X339635Y548928D02*
Y551594D01*
X380998Y542867D02*
X374333D01*
X373000Y541534D01*
Y538868D01*
X374333Y537535D01*
X380998D01*
X373000Y529538D02*
Y534869D01*
X378332Y529538D01*
X379665D01*
X380998Y530871D01*
Y533536D01*
X379665Y534869D01*
X373000Y526872D02*
Y524206D01*
Y525539D01*
X380998D01*
X379665Y526872D01*
X300100Y536167D02*
X308098D01*
Y532169D01*
X306765Y530836D01*
X304099D01*
X302766Y532169D01*
Y536167D01*
Y533502D02*
X300100Y530836D01*
Y528170D02*
Y525504D01*
Y526837D01*
X308098D01*
X306765Y528170D01*
Y521505D02*
X308098Y520172D01*
Y517507D01*
X306765Y516174D01*
X301433D01*
X300100Y517507D01*
Y520172D01*
X301433Y521505D01*
X306765D01*
Y513508D02*
X308098Y512175D01*
Y509509D01*
X306765Y508176D01*
X305432D01*
X304099Y509509D01*
Y510842D01*
Y509509D01*
X302766Y508176D01*
X301433D01*
X300100Y509509D01*
Y512175D01*
X301433Y513508D01*
X344500Y527033D02*
Y519036D01*
X340501D01*
X339168Y520369D01*
Y523034D01*
X340501Y524367D01*
X344500D01*
X341834D02*
X339168Y527033D01*
X336502D02*
X333836D01*
X335169D01*
Y519036D01*
X336502Y520369D01*
X329837D02*
X328505Y519036D01*
X325839D01*
X324506Y520369D01*
Y525700D01*
X325839Y527033D01*
X328505D01*
X329837Y525700D01*
Y520369D01*
X321840D02*
X320507Y519036D01*
X317841D01*
X316509Y520369D01*
Y525700D01*
X317841Y527033D01*
X320507D01*
X321840Y525700D01*
Y520369D01*
X329131Y545768D02*
X330464Y547101D01*
Y549767D01*
X329131Y551100D01*
X323800D01*
X322467Y549767D01*
Y547101D01*
X323800Y545768D01*
X330464Y537771D02*
Y543102D01*
X326465D01*
X327798Y540436D01*
Y539103D01*
X326465Y537771D01*
X323800D01*
X322467Y539103D01*
Y541769D01*
X323800Y543102D01*
X330464Y535105D02*
Y529773D01*
X329131D01*
X323800Y535105D01*
X322467D01*
X355432Y533868D02*
X356764Y535201D01*
Y537867D01*
X355432Y539200D01*
X350100D01*
X348767Y537867D01*
Y535201D01*
X350100Y533868D01*
X356764Y525871D02*
X355432Y528536D01*
X352766Y531202D01*
X350100D01*
X348767Y529869D01*
Y527203D01*
X350100Y525871D01*
X351433D01*
X352766Y527203D01*
Y531202D01*
X348767Y523205D02*
Y520539D01*
Y521872D01*
X356764D01*
X355432Y523205D01*
X355432Y476668D02*
X356764Y478001D01*
Y480667D01*
X355432Y482000D01*
X350100D01*
X348767Y480667D01*
Y478001D01*
X350100Y476668D01*
X356764Y468671D02*
X355432Y471336D01*
X352766Y474002D01*
X350100D01*
X348767Y472669D01*
Y470003D01*
X350100Y468671D01*
X351433D01*
X352766Y470003D01*
Y474002D01*
X350100Y466005D02*
X348767Y464672D01*
Y462006D01*
X350100Y460673D01*
X355432D01*
X356764Y462006D01*
Y464672D01*
X355432Y466005D01*
X354099D01*
X352766Y464672D01*
Y460673D01*
X329131Y488568D02*
X330464Y489901D01*
Y492567D01*
X329131Y493899D01*
X323800D01*
X322467Y492567D01*
Y489901D01*
X323800Y488568D01*
X330464Y480570D02*
X329131Y483236D01*
X326465Y485902D01*
X323800D01*
X322467Y484569D01*
Y481903D01*
X323800Y480570D01*
X325132D01*
X326465Y481903D01*
Y485902D01*
X322467Y473906D02*
X330464D01*
X326465Y477905D01*
Y472573D01*
X344500Y469833D02*
Y461836D01*
X340501D01*
X339168Y463169D01*
Y465834D01*
X340501Y467167D01*
X344500D01*
X341834D02*
X339168Y469833D01*
X336502D02*
X333836D01*
X335169D01*
Y461836D01*
X336502Y463169D01*
X329837D02*
X328505Y461836D01*
X325839D01*
X324506Y463169D01*
Y468500D01*
X325839Y469833D01*
X328505D01*
X329837Y468500D01*
Y463169D01*
X316509Y461836D02*
X321840D01*
Y465834D01*
X319174Y464501D01*
X317841D01*
X316509Y465834D01*
Y468500D01*
X317841Y469833D01*
X320507D01*
X321840Y468500D01*
X300100Y478967D02*
X308098D01*
Y474968D01*
X306765Y473636D01*
X304099D01*
X302766Y474968D01*
Y478967D01*
Y476301D02*
X300100Y473636D01*
Y470970D02*
Y468304D01*
Y469637D01*
X308098D01*
X306765Y470970D01*
Y464305D02*
X308098Y462972D01*
Y460307D01*
X306765Y458974D01*
X301434D01*
X300100Y460307D01*
Y462972D01*
X301434Y464305D01*
X306765D01*
Y456308D02*
X308098Y454975D01*
Y452309D01*
X306765Y450976D01*
X305432D01*
X304099Y452309D01*
X302766Y450976D01*
X301434D01*
X300100Y452309D01*
Y454975D01*
X301434Y456308D01*
X302766D01*
X304099Y454975D01*
X305432Y456308D01*
X306765D01*
X304099Y454975D02*
Y452309D01*
X380998Y485667D02*
X374333D01*
X373000Y484334D01*
Y481668D01*
X374333Y480335D01*
X380998D01*
X373000Y472338D02*
Y477669D01*
X378332Y472338D01*
X379665D01*
X380998Y473671D01*
Y476337D01*
X379665Y477669D01*
Y469672D02*
X380998Y468339D01*
Y465673D01*
X379665Y464340D01*
X378332D01*
X376999Y465673D01*
Y467006D01*
Y465673D01*
X375666Y464340D01*
X374333D01*
X373000Y465673D01*
Y468339D01*
X374333Y469672D01*
X336969Y479732D02*
X335636Y478399D01*
Y475733D01*
X336969Y474401D01*
X342300D01*
X343633Y475733D01*
Y478399D01*
X342300Y479732D01*
X335636Y487730D02*
X336969Y485064D01*
X339635Y482398D01*
X342300D01*
X343633Y483731D01*
Y486397D01*
X342300Y487730D01*
X340968D01*
X339635Y486397D01*
Y482398D01*
X335636Y495727D02*
Y490395D01*
X339635D01*
X338302Y493061D01*
Y494394D01*
X339635Y495727D01*
X342300D01*
X343633Y494394D01*
Y491728D01*
X342300Y490395D01*
X330648Y457200D02*
Y453201D01*
X329648D01*
X325650Y457200D01*
X324650D01*
Y453201D01*
X330648Y451202D02*
X324650D01*
Y448203D01*
X325650Y447203D01*
X329648D01*
X330648Y448203D01*
Y451202D01*
X329648Y445204D02*
X330648Y444204D01*
Y442205D01*
X329648Y441205D01*
X328649D01*
X327649Y442205D01*
X326649Y441205D01*
X325650D01*
X324650Y442205D01*
Y444204D01*
X325650Y445204D01*
X326649D01*
X327649Y444204D01*
X328649Y445204D01*
X329648D01*
X327649Y444204D02*
Y442205D01*
X214448Y457000D02*
Y453001D01*
X213448D01*
X209450Y457000D01*
X208450D01*
Y453001D01*
X214448Y451002D02*
X208450D01*
Y448003D01*
X209450Y447003D01*
X213448D01*
X214448Y448003D01*
Y451002D01*
Y445004D02*
Y441005D01*
X213448D01*
X209450Y445004D01*
X208450D01*
X264798Y485467D02*
X258133D01*
X256800Y484134D01*
Y481468D01*
X258133Y480135D01*
X264798D01*
X256800Y472138D02*
Y477469D01*
X262132Y472138D01*
X263465D01*
X264798Y473471D01*
Y476136D01*
X263465Y477469D01*
X256800Y464140D02*
Y469472D01*
X262132Y464140D01*
X263465D01*
X264798Y465473D01*
Y468139D01*
X263465Y469472D01*
X183901Y478767D02*
X191898D01*
Y474768D01*
X190565Y473436D01*
X187899D01*
X186566Y474768D01*
Y478767D01*
Y476101D02*
X183901Y473436D01*
Y470770D02*
Y468104D01*
Y469437D01*
X191898D01*
X190565Y470770D01*
Y464105D02*
X191898Y462772D01*
Y460107D01*
X190565Y458774D01*
X185233D01*
X183901Y460107D01*
Y462772D01*
X185233Y464105D01*
X190565D01*
X191898Y456108D02*
Y450776D01*
X190565D01*
X185233Y456108D01*
X183901D01*
X228300Y469633D02*
Y461636D01*
X224301D01*
X222968Y462968D01*
Y465634D01*
X224301Y466967D01*
X228300D01*
X225634D02*
X222968Y469633D01*
X220302D02*
X217636D01*
X218969D01*
Y461636D01*
X220302Y462968D01*
X213638D02*
X212305Y461636D01*
X209639D01*
X208306Y462968D01*
Y468300D01*
X209639Y469633D01*
X212305D01*
X213638Y468300D01*
Y462968D01*
X201641Y469633D02*
Y461636D01*
X205640Y465634D01*
X200308D01*
X239232Y476468D02*
X240564Y477801D01*
Y480467D01*
X239232Y481800D01*
X233900D01*
X232567Y480467D01*
Y477801D01*
X233900Y476468D01*
X240564Y468470D02*
X239232Y471136D01*
X236566Y473802D01*
X233900D01*
X232567Y472469D01*
Y469803D01*
X233900Y468470D01*
X235233D01*
X236566Y469803D01*
Y473802D01*
X239232Y465805D02*
X240564Y464472D01*
Y461806D01*
X239232Y460473D01*
X237899D01*
X236566Y461806D01*
X235233Y460473D01*
X233900D01*
X232567Y461806D01*
Y464472D01*
X233900Y465805D01*
X235233D01*
X236566Y464472D01*
X237899Y465805D01*
X239232D01*
X236566Y464472D02*
Y461806D01*
X220769Y479532D02*
X219436Y478199D01*
Y475533D01*
X220769Y474201D01*
X226101D01*
X227433Y475533D01*
Y478199D01*
X226101Y479532D01*
X219436Y487530D02*
X220769Y484864D01*
X223435Y482198D01*
X226101D01*
X227433Y483531D01*
Y486197D01*
X226101Y487530D01*
X224768D01*
X223435Y486197D01*
Y482198D01*
X220769Y490195D02*
X219436Y491528D01*
Y494194D01*
X220769Y495527D01*
X222102D01*
X223435Y494194D01*
Y492861D01*
Y494194D01*
X224768Y495527D01*
X226101D01*
X227433Y494194D01*
Y491528D01*
X226101Y490195D01*
X212931Y488368D02*
X214264Y489701D01*
Y492367D01*
X212931Y493699D01*
X207600D01*
X206267Y492367D01*
Y489701D01*
X207600Y488368D01*
X214264Y480370D02*
X212931Y483036D01*
X210265Y485702D01*
X207600D01*
X206267Y484369D01*
Y481703D01*
X207600Y480370D01*
X208932D01*
X210265Y481703D01*
Y485702D01*
X206267Y472373D02*
Y477705D01*
X211598Y472373D01*
X212931D01*
X214264Y473706D01*
Y476372D01*
X212931Y477705D01*
X286848Y399400D02*
Y395401D01*
X285848D01*
X281850Y399400D01*
X280850D01*
Y395401D01*
X286848Y393402D02*
X280850D01*
Y390403D01*
X281850Y389403D01*
X285848D01*
X286848Y390403D01*
Y393402D01*
X281850Y387404D02*
X280850Y386404D01*
Y384405D01*
X281850Y383405D01*
X285848D01*
X286848Y384405D01*
Y386404D01*
X285848Y387404D01*
X284849D01*
X283849Y386404D01*
Y383405D01*
X293169Y421932D02*
X291836Y420599D01*
Y417933D01*
X293169Y416600D01*
X298500D01*
X299833Y417933D01*
Y420599D01*
X298500Y421932D01*
X291836Y429930D02*
X293169Y427264D01*
X295835Y424598D01*
X298500D01*
X299833Y425931D01*
Y428597D01*
X298500Y429930D01*
X297168D01*
X295835Y428597D01*
Y424598D01*
X291836Y432595D02*
Y437927D01*
X293169D01*
X298500Y432595D01*
X299833D01*
X337198Y427867D02*
X330533D01*
X329201Y426534D01*
Y423868D01*
X330533Y422535D01*
X337198D01*
X329201Y414538D02*
Y419869D01*
X334532Y414538D01*
X335865D01*
X337198Y415871D01*
Y418536D01*
X335865Y419869D01*
X329201Y407873D02*
X337198D01*
X333199Y411872D01*
Y406540D01*
X256301Y421167D02*
X264298D01*
Y417169D01*
X262965Y415836D01*
X260299D01*
X258966Y417169D01*
Y421167D01*
Y418501D02*
X256301Y415836D01*
Y413170D02*
Y410504D01*
Y411837D01*
X264298D01*
X262965Y413170D01*
Y406505D02*
X264298Y405172D01*
Y402506D01*
X262965Y401174D01*
X257633D01*
X256301Y402506D01*
Y405172D01*
X257633Y406505D01*
X262965D01*
X257633Y398508D02*
X256301Y397175D01*
Y394509D01*
X257633Y393176D01*
X262965D01*
X264298Y394509D01*
Y397175D01*
X262965Y398508D01*
X261632D01*
X260299Y397175D01*
Y393176D01*
X300700Y412033D02*
Y404036D01*
X296701D01*
X295368Y405368D01*
Y408034D01*
X296701Y409367D01*
X300700D01*
X298034D02*
X295368Y412033D01*
X292702D02*
X290036D01*
X291369D01*
Y404036D01*
X292702Y405368D01*
X286038D02*
X284705Y404036D01*
X282039D01*
X280706Y405368D01*
Y410700D01*
X282039Y412033D01*
X284705D01*
X286038Y410700D01*
Y405368D01*
X272708Y404036D02*
X275374Y405368D01*
X278040Y408034D01*
Y410700D01*
X276707Y412033D01*
X274041D01*
X272708Y410700D01*
Y409367D01*
X274041Y408034D01*
X278040D01*
X285331Y430768D02*
X286664Y432101D01*
Y434767D01*
X285331Y436100D01*
X280000D01*
X278667Y434767D01*
Y432101D01*
X280000Y430768D01*
X286664Y422770D02*
X285331Y425436D01*
X282665Y428102D01*
X280000D01*
X278667Y426769D01*
Y424103D01*
X280000Y422770D01*
X281332D01*
X282665Y424103D01*
Y428102D01*
X286664Y414773D02*
X285331Y417439D01*
X282665Y420105D01*
X280000D01*
X278667Y418772D01*
Y416106D01*
X280000Y414773D01*
X281332D01*
X282665Y416106D01*
Y420105D01*
X311632Y418868D02*
X312964Y420201D01*
Y422867D01*
X311632Y424199D01*
X306300D01*
X304967Y422867D01*
Y420201D01*
X306300Y418868D01*
X312964Y416202D02*
Y410870D01*
X311632D01*
X306300Y416202D01*
X304967D01*
X311632Y408205D02*
X312964Y406872D01*
Y404206D01*
X311632Y402873D01*
X306300D01*
X304967Y404206D01*
Y406872D01*
X306300Y408205D01*
X311632D01*
X1036299Y647733D02*
Y653731D01*
X1039298D01*
X1040298Y652731D01*
Y650732D01*
X1039298Y649733D01*
X1036299D01*
X1038299D02*
X1040298Y647733D01*
X1042298Y653731D02*
X1046296D01*
Y652731D01*
X1042298Y648733D01*
Y647733D01*
X1048296D02*
X1050295D01*
X1049295D01*
Y653731D01*
X1048296Y652731D01*
X1026001Y653867D02*
Y647869D01*
X1023002D01*
X1022003Y648868D01*
Y650868D01*
X1023002Y651867D01*
X1026001D01*
X1024002D02*
X1022003Y653867D01*
X1020003Y647869D02*
X1016005D01*
Y648868D01*
X1020003Y652867D01*
Y653867D01*
X1010006D02*
X1014005D01*
X1010006Y649868D01*
Y648868D01*
X1011006Y647869D01*
X1013006D01*
X1014005Y648868D01*
X1035099Y661066D02*
Y667064D01*
X1038099D01*
X1039098Y666064D01*
Y664065D01*
X1038099Y663065D01*
X1035099D01*
X1037099D02*
X1039098Y661066D01*
X1041097Y667064D02*
X1045096D01*
Y666064D01*
X1041097Y662066D01*
Y661066D01*
X1051094Y667064D02*
X1047096D01*
Y664065D01*
X1049095Y665065D01*
X1050095D01*
X1051094Y664065D01*
Y662066D01*
X1050095Y661066D01*
X1048095D01*
X1047096Y662066D01*
X1026301Y667200D02*
Y661202D01*
X1023302D01*
X1022303Y662202D01*
Y664201D01*
X1023302Y665201D01*
X1026301D01*
X1024302D02*
X1022303Y667200D01*
X1020303Y661202D02*
X1016305D01*
Y662202D01*
X1020303Y666200D01*
Y667200D01*
X1010307Y661202D02*
X1012306Y662202D01*
X1014305Y664201D01*
Y666200D01*
X1013306Y667200D01*
X1011306D01*
X1010307Y666200D01*
Y665201D01*
X1011306Y664201D01*
X1014305D01*
X1034970Y610600D02*
X1041634D01*
X1042967Y611932D01*
Y614598D01*
X1041634Y615931D01*
X1034970D01*
X1042967Y618597D02*
Y621263D01*
Y619930D01*
X1034970D01*
X1036303Y618597D01*
X1042967Y625261D02*
Y627927D01*
Y626594D01*
X1034970D01*
X1036303Y625261D01*
X875699Y740680D02*
Y734016D01*
X877032Y732683D01*
X879698D01*
X881031Y734016D01*
Y740680D01*
X883697Y732683D02*
X886363D01*
X885030D01*
Y740680D01*
X883697Y739347D01*
X895693Y732683D02*
X890361D01*
X895693Y738014D01*
Y739347D01*
X894360Y740680D01*
X891694D01*
X890361Y739347D01*
X932300Y749349D02*
X926302D01*
Y752348D01*
X927302Y753347D01*
X929301D01*
X930301Y752348D01*
Y749349D01*
Y751348D02*
X932300Y753347D01*
X926302Y755347D02*
Y759345D01*
X927302D01*
X931300Y755347D01*
X932300D01*
X927302Y761345D02*
X926302Y762344D01*
Y764344D01*
X927302Y765343D01*
X928301D01*
X929301Y764344D01*
X930301Y765343D01*
X931300D01*
X932300Y764344D01*
Y762344D01*
X931300Y761345D01*
X930301D01*
X929301Y762344D01*
X928301Y761345D01*
X927302D01*
X929301Y762344D02*
Y764344D01*
X926166Y740551D02*
X932164D01*
Y737551D01*
X931164Y736552D01*
X929165D01*
X928165Y737551D01*
Y740551D01*
Y738551D02*
X926166Y736552D01*
X932164Y734553D02*
Y730554D01*
X931164D01*
X927166Y734553D01*
X926166D01*
X932164Y728554D02*
Y724556D01*
X931164D01*
X927166Y728554D01*
X926166D01*
X918967Y749649D02*
X912969D01*
Y752648D01*
X913968Y753647D01*
X915968D01*
X916967Y752648D01*
Y749649D01*
Y751648D02*
X918967Y753647D01*
X912969Y755647D02*
Y759645D01*
X913968D01*
X917967Y755647D01*
X918967D01*
Y764644D02*
X912969D01*
X915968Y761645D01*
Y765643D01*
X912833Y739351D02*
X918831D01*
Y736352D01*
X917832Y735352D01*
X915832D01*
X914833Y736352D01*
Y739351D01*
Y737351D02*
X912833Y735352D01*
X918831Y733353D02*
Y729354D01*
X917832D01*
X913833Y733353D01*
X912833D01*
X917832Y727355D02*
X918831Y726355D01*
Y724355D01*
X917832Y723356D01*
X916832D01*
X915832Y724355D01*
Y725355D01*
Y724355D01*
X914833Y723356D01*
X913833D01*
X912833Y724355D01*
Y726355D01*
X913833Y727355D01*
X1003031Y1030970D02*
X996367D01*
X995034Y1029637D01*
Y1026971D01*
X996367Y1025638D01*
X1003031D01*
X995034Y1022972D02*
Y1020306D01*
Y1021639D01*
X1003031D01*
X1001698Y1022972D01*
X1003031Y1010976D02*
Y1016308D01*
X999032D01*
X1000365Y1013642D01*
Y1012309D01*
X999032Y1010976D01*
X996367D01*
X995034Y1012309D01*
Y1014975D01*
X996367Y1016308D01*
X1011700Y974369D02*
Y980367D01*
X1014698D01*
X1015698Y979368D01*
Y977368D01*
X1014698Y976369D01*
X1011700D01*
X1013699D02*
X1015698Y974369D01*
X1017698Y975369D02*
X1018697Y974369D01*
X1020697D01*
X1021696Y975369D01*
Y979368D01*
X1020697Y980367D01*
X1018697D01*
X1017698Y979368D01*
Y978368D01*
X1018697Y977368D01*
X1021696D01*
X1023696Y979368D02*
X1024695Y980367D01*
X1026695D01*
X1027694Y979368D01*
Y975369D01*
X1026695Y974369D01*
X1024695D01*
X1023696Y975369D01*
Y979368D01*
X1002901Y980503D02*
Y974505D01*
X999902D01*
X998903Y975505D01*
Y977504D01*
X999902Y978504D01*
X1002901D01*
X1000902D02*
X998903Y980503D01*
X996903Y975505D02*
X995904Y974505D01*
X993904D01*
X992905Y975505D01*
Y976505D01*
X993904Y977504D01*
X992905Y978504D01*
Y979504D01*
X993904Y980503D01*
X995904D01*
X996903Y979504D01*
Y978504D01*
X995904Y977504D01*
X996903Y976505D01*
Y975505D01*
X995904Y977504D02*
X993904D01*
X990905Y979504D02*
X989906Y980503D01*
X987906D01*
X986907Y979504D01*
Y975505D01*
X987906Y974505D01*
X989906D01*
X990905Y975505D01*
Y976505D01*
X989906Y977504D01*
X986907D01*
X1012000Y987702D02*
Y993701D01*
X1014999D01*
X1015998Y992701D01*
Y990702D01*
X1014999Y989702D01*
X1012000D01*
X1013999D02*
X1015998Y987702D01*
X1017998Y992701D02*
X1018997Y993701D01*
X1020997D01*
X1021996Y992701D01*
Y991701D01*
X1020997Y990702D01*
X1021996Y989702D01*
Y988702D01*
X1020997Y987702D01*
X1018997D01*
X1017998Y988702D01*
Y989702D01*
X1018997Y990702D01*
X1017998Y991701D01*
Y992701D01*
X1018997Y990702D02*
X1020997D01*
X1023996Y992701D02*
X1024995Y993701D01*
X1026995D01*
X1027994Y992701D01*
Y991701D01*
X1026995Y990702D01*
X1027994Y989702D01*
Y988702D01*
X1026995Y987702D01*
X1024995D01*
X1023996Y988702D01*
Y989702D01*
X1024995Y990702D01*
X1023996Y991701D01*
Y992701D01*
X1024995Y990702D02*
X1026995D01*
X1001702Y993836D02*
Y987838D01*
X998702D01*
X997703Y988838D01*
Y990837D01*
X998702Y991837D01*
X1001702D01*
X999702D02*
X997703Y993836D01*
X995703Y988838D02*
X994704Y987838D01*
X992704D01*
X991705Y988838D01*
Y989837D01*
X992704Y990837D01*
X991705Y991837D01*
Y992836D01*
X992704Y993836D01*
X994704D01*
X995703Y992836D01*
Y991837D01*
X994704Y990837D01*
X995703Y989837D01*
Y988838D01*
X994704Y990837D02*
X992704D01*
X989705Y987838D02*
X985707D01*
Y988838D01*
X989705Y992836D01*
Y993836D01*
X875699Y975130D02*
Y968466D01*
X877032Y967133D01*
X879698D01*
X881031Y968466D01*
Y975130D01*
X883697Y967133D02*
X886363D01*
X885030D01*
Y975130D01*
X883697Y973797D01*
X894360Y967133D02*
Y975130D01*
X890361Y971132D01*
X895693D01*
X932300Y983799D02*
X926302D01*
Y986798D01*
X927302Y987797D01*
X929301D01*
X930301Y986798D01*
Y983799D01*
Y985798D02*
X932300Y987797D01*
X927302Y989797D02*
X926302Y990796D01*
Y992796D01*
X927302Y993795D01*
X928301D01*
X929301Y992796D01*
X930301Y993795D01*
X931300D01*
X932300Y992796D01*
Y990796D01*
X931300Y989797D01*
X930301D01*
X929301Y990796D01*
X928301Y989797D01*
X927302D01*
X929301Y990796D02*
Y992796D01*
X926302Y999793D02*
X927302Y997794D01*
X929301Y995795D01*
X931300D01*
X932300Y996794D01*
Y998794D01*
X931300Y999793D01*
X930301D01*
X929301Y998794D01*
Y995795D01*
X926166Y975001D02*
X932164D01*
Y972001D01*
X931164Y971002D01*
X929165D01*
X928165Y972001D01*
Y975001D01*
Y973001D02*
X926166Y971002D01*
X931164Y969003D02*
X932164Y968003D01*
Y966003D01*
X931164Y965004D01*
X930165D01*
X929165Y966003D01*
X928165Y965004D01*
X927166D01*
X926166Y966003D01*
Y968003D01*
X927166Y969003D01*
X928165D01*
X929165Y968003D01*
X930165Y969003D01*
X931164D01*
X929165Y968003D02*
Y966003D01*
X932164Y959006D02*
Y963004D01*
X929165D01*
X930165Y961005D01*
Y960005D01*
X929165Y959006D01*
X927166D01*
X926166Y960005D01*
Y962005D01*
X927166Y963004D01*
X918967Y984099D02*
X912969D01*
Y987098D01*
X913968Y988097D01*
X915968D01*
X916967Y987098D01*
Y984099D01*
Y986098D02*
X918967Y988097D01*
X913968Y990097D02*
X912969Y991096D01*
Y993096D01*
X913968Y994095D01*
X914968D01*
X915968Y993096D01*
X916967Y994095D01*
X917967D01*
X918967Y993096D01*
Y991096D01*
X917967Y990097D01*
X916967D01*
X915968Y991096D01*
X914968Y990097D01*
X913968D01*
X915968Y991096D02*
Y993096D01*
X918967Y1000094D02*
Y996095D01*
X914968Y1000094D01*
X913968D01*
X912969Y999094D01*
Y997094D01*
X913968Y996095D01*
X912833Y973801D02*
X918831D01*
Y970801D01*
X917831Y969802D01*
X915832D01*
X914833Y970801D01*
Y973801D01*
Y971801D02*
X912833Y969802D01*
X917831Y967803D02*
X918831Y966803D01*
Y964803D01*
X917831Y963804D01*
X916832D01*
X915832Y964803D01*
X914833Y963804D01*
X913833D01*
X912833Y964803D01*
Y966803D01*
X913833Y967803D01*
X914833D01*
X915832Y966803D01*
X916832Y967803D01*
X917831D01*
X915832Y966803D02*
Y964803D01*
X912833Y961805D02*
Y959805D01*
Y960805D01*
X918831D01*
X917831Y961805D01*
X912833Y823001D02*
X918831D01*
Y820002D01*
X917831Y819002D01*
X915832D01*
X914833Y820002D01*
Y823001D01*
Y821001D02*
X912833Y819002D01*
X918831Y817002D02*
Y813004D01*
X917831D01*
X913833Y817002D01*
X912833D01*
X913833Y811004D02*
X912833Y810005D01*
Y808005D01*
X913833Y807006D01*
X917831D01*
X918831Y808005D01*
Y810005D01*
X917831Y811004D01*
X916832D01*
X915832Y810005D01*
Y807006D01*
X918967Y833299D02*
X912969D01*
Y836298D01*
X913968Y837297D01*
X915968D01*
X916967Y836298D01*
Y833299D01*
Y835298D02*
X918967Y837297D01*
X913968Y839297D02*
X912969Y840296D01*
Y842296D01*
X913968Y843295D01*
X914968D01*
X915968Y842296D01*
X916967Y843295D01*
X917967D01*
X918967Y842296D01*
Y840296D01*
X917967Y839297D01*
X916967D01*
X915968Y840296D01*
X914968Y839297D01*
X913968D01*
X915968Y840296D02*
Y842296D01*
X913968Y845295D02*
X912969Y846294D01*
Y848294D01*
X913968Y849294D01*
X917967D01*
X918967Y848294D01*
Y846294D01*
X917967Y845295D01*
X913968D01*
X926166Y824201D02*
X932164D01*
Y821201D01*
X931164Y820202D01*
X929165D01*
X928165Y821201D01*
Y824201D01*
Y822201D02*
X926166Y820202D01*
X931164Y818203D02*
X932164Y817203D01*
Y815203D01*
X931164Y814204D01*
X930165D01*
X929165Y815203D01*
X928165Y814204D01*
X927166D01*
X926166Y815203D01*
Y817203D01*
X927166Y818203D01*
X928165D01*
X929165Y817203D01*
X930165Y818203D01*
X931164D01*
X929165Y817203D02*
Y815203D01*
X931164Y812204D02*
X932164Y811205D01*
Y809205D01*
X931164Y808206D01*
X930165D01*
X929165Y809205D01*
Y810205D01*
Y809205D01*
X928165Y808206D01*
X927166D01*
X926166Y809205D01*
Y811205D01*
X927166Y812204D01*
X932300Y832999D02*
X926302D01*
Y835998D01*
X927302Y836997D01*
X929301D01*
X930301Y835998D01*
Y832999D01*
Y834998D02*
X932300Y836997D01*
X927302Y838997D02*
X926302Y839996D01*
Y841996D01*
X927302Y842995D01*
X928301D01*
X929301Y841996D01*
X930301Y842995D01*
X931300D01*
X932300Y841996D01*
Y839996D01*
X931300Y838997D01*
X930301D01*
X929301Y839996D01*
X928301Y838997D01*
X927302D01*
X929301Y839996D02*
Y841996D01*
X932300Y847994D02*
X926302D01*
X929301Y844995D01*
Y848993D01*
X875699Y824330D02*
Y817666D01*
X877032Y816333D01*
X879698D01*
X881031Y817666D01*
Y824330D01*
X883697Y816333D02*
X886363D01*
X885030D01*
Y824330D01*
X883697Y822997D01*
X890361D02*
X891694Y824330D01*
X894360D01*
X895693Y822997D01*
Y821664D01*
X894360Y820331D01*
X893027D01*
X894360D01*
X895693Y818999D01*
Y817666D01*
X894360Y816333D01*
X891694D01*
X890361Y817666D01*
X625996Y588435D02*
X626995Y589434D01*
Y591434D01*
X625996Y592433D01*
X621997D01*
X620997Y591434D01*
Y589434D01*
X621997Y588435D01*
X625996Y586435D02*
X626995Y585436D01*
Y583436D01*
X625996Y582437D01*
X624996D01*
X623996Y583436D01*
Y584436D01*
Y583436D01*
X622997Y582437D01*
X621997D01*
X620997Y583436D01*
Y585436D01*
X621997Y586435D01*
X620997Y577438D02*
X626995D01*
X623996Y580437D01*
Y576438D01*
X590795Y338565D02*
X589796Y339565D01*
X587796D01*
X586797Y338565D01*
Y334567D01*
X587796Y333567D01*
X589796D01*
X590795Y334567D01*
X595794Y333567D02*
Y339565D01*
X592795Y336566D01*
X596794D01*
X598793Y338565D02*
X599793Y339565D01*
X601792D01*
X602791Y338565D01*
Y337566D01*
X601792Y336566D01*
X602791Y335566D01*
Y334567D01*
X601792Y333567D01*
X599793D01*
X598793Y334567D01*
Y335566D01*
X599793Y336566D01*
X598793Y337566D01*
Y338565D01*
X599793Y336566D02*
X601792D01*
X705995Y589435D02*
X706995Y590434D01*
Y592434D01*
X705995Y593433D01*
X701997D01*
X700997Y592434D01*
Y590434D01*
X701997Y589435D01*
X700997Y584436D02*
X706995D01*
X703996Y587435D01*
Y583437D01*
X701997Y581437D02*
X700997Y580438D01*
Y578438D01*
X701997Y577439D01*
X705995D01*
X706995Y578438D01*
Y580438D01*
X705995Y581437D01*
X704996D01*
X703996Y580438D01*
Y577439D01*
X274732Y174268D02*
X275731Y175268D01*
Y177267D01*
X274732Y178267D01*
X270733D01*
X269733Y177267D01*
Y175268D01*
X270733Y174268D01*
X275731Y172269D02*
Y168270D01*
X274732D01*
X270733Y172269D01*
X269733D01*
Y162272D02*
Y166271D01*
X273732Y162272D01*
X274732D01*
X275731Y163271D01*
Y165271D01*
X274732Y166271D01*
X291669Y160698D02*
X290669Y159698D01*
Y157699D01*
X291669Y156699D01*
X295667D01*
X296667Y157699D01*
Y159698D01*
X295667Y160698D01*
X290669Y162698D02*
Y166696D01*
X291669D01*
X295667Y162698D01*
X296667D01*
Y171695D02*
X290669D01*
X293668Y168696D01*
Y172694D01*
X906327Y510667D02*
Y504669D01*
X903328D01*
X902328Y505669D01*
Y507668D01*
X903328Y508668D01*
X906327D01*
X904327D02*
X902328Y510667D01*
X900329D02*
X898329D01*
X899329D01*
Y504669D01*
X900329Y505669D01*
X895330Y509668D02*
X894331Y510667D01*
X892331D01*
X891332Y509668D01*
Y505669D01*
X892331Y504669D01*
X894331D01*
X895330Y505669D01*
Y506669D01*
X894331Y507668D01*
X891332D01*
X430967Y313299D02*
Y307301D01*
X427968D01*
X426969Y308301D01*
Y310300D01*
X427968Y311300D01*
X430967D01*
X428968D02*
X426969Y313299D01*
X424969D02*
X422970D01*
X423970D01*
Y307301D01*
X424969Y308301D01*
X415972Y313299D02*
X419971D01*
X415972Y309301D01*
Y308301D01*
X416972Y307301D01*
X418971D01*
X419971Y308301D01*
X409974Y307301D02*
X411973Y308301D01*
X413973Y310300D01*
Y312300D01*
X412973Y313299D01*
X410974D01*
X409974Y312300D01*
Y311300D01*
X410974Y310300D01*
X413973D01*
X429467Y297799D02*
Y291801D01*
X426468D01*
X425468Y292801D01*
Y294800D01*
X426468Y295800D01*
X429467D01*
X427468D02*
X425468Y297799D01*
X423469D02*
X421470D01*
X422469D01*
Y291801D01*
X423469Y292801D01*
X414472Y297799D02*
X418471D01*
X414472Y293801D01*
Y292801D01*
X415472Y291801D01*
X417471D01*
X418471Y292801D01*
X412473Y291801D02*
X408474D01*
Y292801D01*
X412473Y296800D01*
Y297799D01*
D71*
X617530Y532700D02*
G03*
X617530Y532700I-3000J0D01*
G01*
D72*
X251400Y662000D02*
X269400D01*
X251400Y631000D02*
X269400D01*
Y662000D01*
X251400Y631000D02*
Y662000D01*
X617200Y706500D02*
X617200Y688500D01*
X648200D02*
X648200Y706500D01*
X617200D02*
X648200D01*
X617200Y688500D02*
X648200D01*
X584600Y661000D02*
X584600Y679000D01*
X615600Y679000D02*
X615600Y661000D01*
X584600Y679000D02*
X615600D01*
X584600Y661000D02*
X615600D01*
X509001Y632267D02*
X527001D01*
X509001Y663267D02*
X527001D01*
X509001Y632267D02*
Y663267D01*
X527001Y632267D02*
Y663267D01*
X367600Y631200D02*
Y662200D01*
X385600Y631200D02*
Y662200D01*
X367600Y631200D02*
X385600D01*
X367600Y662200D02*
X385600D01*
X367650Y573900D02*
Y604900D01*
X385650Y573900D02*
Y604900D01*
X367650Y573900D02*
X385650D01*
X367650Y604900D02*
X385650D01*
X251450Y604700D02*
X269450D01*
X251450Y573700D02*
X269450D01*
Y604700D01*
X251450Y573700D02*
Y604700D01*
X251400Y548200D02*
X269400D01*
X251400Y517200D02*
X269400D01*
Y548200D01*
X251400Y517200D02*
Y548200D01*
X367600Y517400D02*
Y548400D01*
X385600Y517400D02*
Y548400D01*
X367600Y517400D02*
X385600D01*
X367600Y548400D02*
X385600D01*
X367600Y460200D02*
Y491200D01*
X385600Y460200D02*
Y491200D01*
X367600Y460200D02*
X385600D01*
X367600Y491200D02*
X385600D01*
X251400Y491000D02*
X269400D01*
X251400Y460000D02*
X269400D01*
Y491000D01*
X251400Y460000D02*
Y491000D01*
X323800Y402400D02*
Y433400D01*
X341800Y402400D02*
Y433400D01*
X323800Y402400D02*
X341800D01*
X323800Y433400D02*
X341800D01*
X617200Y679000D02*
X617200Y661000D01*
X648200Y661000D02*
X648200Y679000D01*
X617200D02*
X648200D01*
X617200Y661000D02*
X648200D01*
X734270Y104770D02*
X752270D01*
X734270Y135770D02*
X752270D01*
X734270Y104770D02*
Y135770D01*
X752270Y104770D02*
Y135770D01*
D73*
X795472Y30699D02*
X794472Y29699D01*
Y27700D01*
X795472Y26700D01*
X799470D01*
X800470Y27700D01*
Y29699D01*
X799470Y30699D01*
X800470Y32698D02*
Y34697D01*
Y33698D01*
X794472D01*
X795472Y32698D01*
X800470Y41695D02*
Y37696D01*
X796471Y41695D01*
X795472D01*
X794472Y40695D01*
Y38696D01*
X795472Y37696D01*
X725970Y50698D02*
Y45700D01*
X726970Y44700D01*
X728969D01*
X729969Y45700D01*
Y50698D01*
X734967Y44700D02*
Y50698D01*
X731968Y47699D01*
X735967D01*
X739402Y115300D02*
X744400D01*
X745400Y116300D01*
Y118299D01*
X744400Y119299D01*
X739402D01*
X740402Y121298D02*
X739402Y122298D01*
Y124297D01*
X740402Y125297D01*
X741401D01*
X742401Y124297D01*
Y123297D01*
Y124297D01*
X743401Y125297D01*
X744400D01*
X745400Y124297D01*
Y122298D01*
X744400Y121298D01*
X1006470Y112198D02*
Y107200D01*
X1007470Y106200D01*
X1009469D01*
X1010469Y107200D01*
Y112198D01*
X1012468Y106200D02*
X1014467D01*
X1013468D01*
Y112198D01*
X1012468Y111198D01*
X979970Y261188D02*
X983969D01*
X981969D01*
Y255190D01*
X985968Y261188D02*
Y257189D01*
X987967Y255190D01*
X989967Y257189D01*
Y261188D01*
X995965Y260188D02*
X994965Y261188D01*
X992966D01*
X991966Y260188D01*
Y259189D01*
X992966Y258189D01*
X994965D01*
X995965Y257189D01*
Y256190D01*
X994965Y255190D01*
X992966D01*
X991966Y256190D01*
X997964Y255190D02*
X999964D01*
X998964D01*
Y261188D01*
X997964Y260188D01*
X992500Y1388700D02*
Y1394698D01*
X995499D01*
X996499Y1393698D01*
Y1391699D01*
X995499Y1390699D01*
X992500D01*
X994499D02*
X996499Y1388700D01*
X998498Y1389700D02*
X999498Y1388700D01*
X1001497D01*
X1002497Y1389700D01*
Y1393698D01*
X1001497Y1394698D01*
X999498D01*
X998498Y1393698D01*
Y1392699D01*
X999498Y1391699D01*
X1002497D01*
X1042970Y55700D02*
X1036972D01*
Y58699D01*
X1037972Y59699D01*
X1039971D01*
X1040971Y58699D01*
Y55700D01*
Y57699D02*
X1042970Y59699D01*
Y64697D02*
X1036972D01*
X1039971Y61698D01*
Y65697D01*
X976970Y40700D02*
Y46698D01*
X979969D01*
X980969Y45698D01*
Y43699D01*
X979969Y42699D01*
X976970D01*
X978969D02*
X980969Y40700D01*
X982968Y45698D02*
X983968Y46698D01*
X985967D01*
X986967Y45698D01*
Y44699D01*
X985967Y43699D01*
X984967D01*
X985967D01*
X986967Y42699D01*
Y41700D01*
X985967Y40700D01*
X983968D01*
X982968Y41700D01*
X943470Y40700D02*
Y46698D01*
X946469D01*
X947469Y45698D01*
Y43699D01*
X946469Y42699D01*
X943470D01*
X945469D02*
X947469Y40700D01*
X953467D02*
X949468D01*
X953467Y44699D01*
Y45698D01*
X952467Y46698D01*
X950468D01*
X949468Y45698D01*
X1058970Y55200D02*
X1052972D01*
Y58199D01*
X1053972Y59199D01*
X1055971D01*
X1056971Y58199D01*
Y55200D01*
Y57199D02*
X1058970Y59199D01*
Y61198D02*
Y63197D01*
Y62198D01*
X1052972D01*
X1053972Y61198D01*
X993969Y293698D02*
X989970D01*
Y290699D01*
X991969D01*
X989970D01*
Y287700D01*
X999967D02*
X995968D01*
X999967Y291699D01*
Y292698D01*
X998967Y293698D01*
X996968D01*
X995968Y292698D01*
X993969Y329998D02*
X989970D01*
Y326999D01*
X991969D01*
X989970D01*
Y324000D01*
X995968D02*
X997967D01*
X996968D01*
Y329998D01*
X995968Y328998D01*
X983970Y232698D02*
Y226700D01*
X986969D01*
X987969Y227700D01*
Y231698D01*
X986969Y232698D01*
X983970D01*
X993967Y226700D02*
X989968D01*
X993967Y230699D01*
Y231698D01*
X992967Y232698D01*
X990968D01*
X989968Y231698D01*
X983470Y365698D02*
Y359700D01*
X986469D01*
X987469Y360700D01*
Y364698D01*
X986469Y365698D01*
X983470D01*
X989468Y359700D02*
X991467D01*
X990468D01*
Y365698D01*
X989468Y364698D01*
X160101Y1064302D02*
X161101Y1063302D01*
X163100D01*
X164100Y1064302D01*
Y1068300D01*
X163100Y1069300D01*
X161101D01*
X160101Y1068300D01*
X158102Y1069300D02*
X156103D01*
X157102D01*
Y1063302D01*
X158102Y1064302D01*
X153104D02*
X152104Y1063302D01*
X150105D01*
X149105Y1064302D01*
Y1065301D01*
X150105Y1066301D01*
X149105Y1067301D01*
Y1068300D01*
X150105Y1069300D01*
X152104D01*
X153104Y1068300D01*
Y1067301D01*
X152104Y1066301D01*
X153104Y1065301D01*
Y1064302D01*
X152104Y1066301D02*
X150105D01*
X913135Y582298D02*
X912135Y583298D01*
X910136D01*
X909136Y582298D01*
Y578300D01*
X910136Y577300D01*
X912135D01*
X913135Y578300D01*
X915134Y577300D02*
X917133D01*
X916134D01*
Y583298D01*
X915134Y582298D01*
X923131Y577300D02*
Y583298D01*
X920132Y580299D01*
X924131D01*
X779972Y31233D02*
X778972Y30233D01*
Y28234D01*
X779972Y27234D01*
X783970D01*
X784970Y28234D01*
Y30233D01*
X783970Y31233D01*
X784970Y33232D02*
Y35231D01*
Y34232D01*
X778972D01*
X779972Y33232D01*
X784970Y38230D02*
Y40230D01*
Y39230D01*
X778972D01*
X779972Y38230D01*
X702228Y115737D02*
X703228Y116737D01*
Y118736D01*
X702228Y119736D01*
X698230D01*
X697230Y118736D01*
Y116737D01*
X698230Y115737D01*
X697230Y113738D02*
Y111739D01*
Y112738D01*
X703228D01*
X702228Y113738D01*
Y108740D02*
X703228Y107740D01*
Y105740D01*
X702228Y104741D01*
X698230D01*
X697230Y105740D01*
Y107740D01*
X698230Y108740D01*
X702228D01*
X718228Y111237D02*
X719228Y112237D01*
Y114236D01*
X718228Y115236D01*
X714230D01*
X713230Y114236D01*
Y112237D01*
X714230Y111237D01*
Y109238D02*
X713230Y108238D01*
Y106239D01*
X714230Y105239D01*
X718228D01*
X719228Y106239D01*
Y108238D01*
X718228Y109238D01*
X717229D01*
X716229Y108238D01*
Y105239D01*
X1068469Y113698D02*
X1067469Y114698D01*
X1065470D01*
X1064470Y113698D01*
Y109700D01*
X1065470Y108700D01*
X1067469D01*
X1068469Y109700D01*
X1074467Y114698D02*
X1072467Y113698D01*
X1070468Y111699D01*
Y109700D01*
X1071468Y108700D01*
X1073467D01*
X1074467Y109700D01*
Y110699D01*
X1073467Y111699D01*
X1070468D01*
X1089972Y108699D02*
X1088972Y107699D01*
Y105700D01*
X1089972Y104700D01*
X1093970D01*
X1094970Y105700D01*
Y107699D01*
X1093970Y108699D01*
X1088972Y114697D02*
Y110698D01*
X1091971D01*
X1090971Y112697D01*
Y113697D01*
X1091971Y114697D01*
X1093970D01*
X1094970Y113697D01*
Y111698D01*
X1093970Y110698D01*
X912972Y31199D02*
X911972Y30199D01*
Y28200D01*
X912972Y27200D01*
X916970D01*
X917970Y28200D01*
Y30199D01*
X916970Y31199D01*
X917970Y36197D02*
X911972D01*
X914971Y33198D01*
Y37197D01*
X870972Y31199D02*
X869972Y30199D01*
Y28200D01*
X870972Y27200D01*
X874970D01*
X875970Y28200D01*
Y30199D01*
X874970Y31199D01*
X870972Y33198D02*
X869972Y34198D01*
Y36197D01*
X870972Y37197D01*
X871971D01*
X872971Y36197D01*
Y35197D01*
Y36197D01*
X873971Y37197D01*
X874970D01*
X875970Y36197D01*
Y34198D01*
X874970Y33198D01*
X891972Y29699D02*
X890972Y28699D01*
Y26700D01*
X891972Y25700D01*
X895970D01*
X896970Y26700D01*
Y28699D01*
X895970Y29699D01*
X896970Y35697D02*
Y31698D01*
X892971Y35697D01*
X891972D01*
X890972Y34697D01*
Y32698D01*
X891972Y31698D01*
X978472Y159699D02*
X977472Y158699D01*
Y156700D01*
X978472Y155700D01*
X982470D01*
X983470Y156700D01*
Y158699D01*
X982470Y159699D01*
X983470Y161698D02*
Y163697D01*
Y162698D01*
X977472D01*
X978472Y161698D01*
X668030Y359202D02*
X664031Y365200D01*
Y359202D02*
X668030Y365200D01*
X662032Y359202D02*
X658033D01*
X660033D01*
Y365200D01*
X656034Y359202D02*
Y365200D01*
X652035D01*
X650036D02*
X648036D01*
X649036D01*
Y359202D01*
X650036Y360202D01*
X185802Y1092400D02*
X190800D01*
X191800Y1093400D01*
Y1095399D01*
X190800Y1096399D01*
X185802D01*
X186802Y1098398D02*
X190800Y1102397D01*
Y1098398D02*
X186802Y1102397D01*
X188801Y1098398D02*
Y1102397D01*
X190800Y1100397D02*
X186802D01*
X191800Y1104396D02*
Y1106395D01*
Y1105396D01*
X185802D01*
X186802Y1104396D01*
X892170Y554798D02*
Y549800D01*
X893170Y548800D01*
X895169D01*
X896169Y549800D01*
Y554798D01*
X898168Y553798D02*
X899168Y554798D01*
X901167D01*
X902167Y553798D01*
Y552799D01*
X901167Y551799D01*
X902167Y550799D01*
Y549800D01*
X901167Y548800D01*
X899168D01*
X898168Y549800D01*
Y550799D01*
X899168Y551799D01*
X898168Y552799D01*
Y553798D01*
X899168Y551799D02*
X901167D01*
X685014Y1286264D02*
X689013D01*
X687013D01*
Y1280266D01*
X691012Y1286264D02*
Y1282265D01*
X693011Y1280266D01*
X695011Y1282265D01*
Y1286264D01*
X701009Y1285264D02*
X700009Y1286264D01*
X698010D01*
X697010Y1285264D01*
Y1284265D01*
X698010Y1283265D01*
X700009D01*
X701009Y1282265D01*
Y1281266D01*
X700009Y1280266D01*
X698010D01*
X697010Y1281266D01*
X707007Y1286264D02*
X703008D01*
Y1283265D01*
X705007Y1284265D01*
X706007D01*
X707007Y1283265D01*
Y1281266D01*
X706007Y1280266D01*
X704008D01*
X703008Y1281266D01*
X963270Y573298D02*
X967269D01*
X965269D01*
Y567300D01*
X969268Y573298D02*
Y569299D01*
X971267Y567300D01*
X973267Y569299D01*
Y573298D01*
X979265Y572298D02*
X978265Y573298D01*
X976266D01*
X975266Y572298D01*
Y571299D01*
X976266Y570299D01*
X978265D01*
X979265Y569299D01*
Y568300D01*
X978265Y567300D01*
X976266D01*
X975266Y568300D01*
X984263Y567300D02*
Y573298D01*
X981264Y570299D01*
X985263D01*
X961270Y517798D02*
X965269D01*
X963269D01*
Y511800D01*
X967268Y517798D02*
Y513799D01*
X969268Y511800D01*
X971267Y513799D01*
Y517798D01*
X977265Y516798D02*
X976265Y517798D01*
X974266D01*
X973266Y516798D01*
Y515799D01*
X974266Y514799D01*
X976265D01*
X977265Y513799D01*
Y512800D01*
X976265Y511800D01*
X974266D01*
X973266Y512800D01*
X979264Y516798D02*
X980264Y517798D01*
X982263D01*
X983263Y516798D01*
Y515799D01*
X982263Y514799D01*
X981264D01*
X982263D01*
X983263Y513799D01*
Y512800D01*
X982263Y511800D01*
X980264D01*
X979264Y512800D01*
X1020772Y534800D02*
Y538799D01*
Y536799D01*
X1026770D01*
X1020772Y540798D02*
X1024771D01*
X1026770Y542797D01*
X1024771Y544797D01*
X1020772D01*
X1021772Y550795D02*
X1020772Y549795D01*
Y547796D01*
X1021772Y546796D01*
X1022771D01*
X1023771Y547796D01*
Y549795D01*
X1024771Y550795D01*
X1025770D01*
X1026770Y549795D01*
Y547796D01*
X1025770Y546796D01*
X1026770Y556793D02*
Y552794D01*
X1022771Y556793D01*
X1021772D01*
X1020772Y555793D01*
Y553794D01*
X1021772Y552794D01*
X969900Y1420501D02*
X973898D01*
X974898Y1421501D01*
Y1423500D01*
X973898Y1424500D01*
X969900D01*
X968900Y1423500D01*
Y1421501D01*
X970899Y1422501D02*
X968900Y1420501D01*
Y1421501D02*
X969900Y1420501D01*
X974898Y1414503D02*
X973898Y1416503D01*
X971899Y1418502D01*
X969900D01*
X968900Y1417502D01*
Y1415503D01*
X969900Y1414503D01*
X970899D01*
X971899Y1415503D01*
Y1418502D01*
X153200Y1094400D02*
Y1088402D01*
X150201D01*
X149201Y1089402D01*
Y1091401D01*
X150201Y1092401D01*
X153200D01*
X151201D02*
X149201Y1094400D01*
X144203D02*
Y1088402D01*
X147202Y1091401D01*
X143203D01*
X137205Y1088402D02*
X139205Y1089402D01*
X141204Y1091401D01*
Y1093400D01*
X140204Y1094400D01*
X138205D01*
X137205Y1093400D01*
Y1092401D01*
X138205Y1091401D01*
X141204D01*
X104580Y1018128D02*
X98582D01*
Y1021127D01*
X99582Y1022127D01*
X101581D01*
X102581Y1021127D01*
Y1018128D01*
Y1020127D02*
X104580Y1022127D01*
Y1027125D02*
X98582D01*
X101581Y1024126D01*
Y1028125D01*
X98582Y1034123D02*
Y1030124D01*
X101581D01*
X100581Y1032123D01*
Y1033123D01*
X101581Y1034123D01*
X103580D01*
X104580Y1033123D01*
Y1031124D01*
X103580Y1030124D01*
X104580Y968058D02*
X98582D01*
Y971057D01*
X99582Y972057D01*
X101581D01*
X102581Y971057D01*
Y968058D01*
Y970057D02*
X104580Y972057D01*
Y977055D02*
X98582D01*
X101581Y974056D01*
Y978055D01*
X104580Y983053D02*
X98582D01*
X101581Y980054D01*
Y984053D01*
X103982Y1062706D02*
Y1068704D01*
X106981D01*
X107981Y1067704D01*
Y1065705D01*
X106981Y1064705D01*
X103982D01*
X105981D02*
X107981Y1062706D01*
X112979D02*
Y1068704D01*
X109980Y1065705D01*
X113979D01*
X115978Y1067704D02*
X116978Y1068704D01*
X118977D01*
X119977Y1067704D01*
Y1066705D01*
X118977Y1065705D01*
X117978D01*
X118977D01*
X119977Y1064705D01*
Y1063706D01*
X118977Y1062706D01*
X116978D01*
X115978Y1063706D01*
X253476Y1114930D02*
X259474D01*
Y1111931D01*
X258474Y1110931D01*
X256475D01*
X255475Y1111931D01*
Y1114930D01*
Y1112931D02*
X253476Y1110931D01*
Y1105933D02*
X259474D01*
X256475Y1108932D01*
Y1104933D01*
X253476Y1102934D02*
Y1100935D01*
Y1101934D01*
X259474D01*
X258474Y1102934D01*
X873204Y578300D02*
Y584298D01*
X876203D01*
X877203Y583298D01*
Y581299D01*
X876203Y580299D01*
X873204D01*
X875203D02*
X877203Y578300D01*
X879202D02*
X881201D01*
X880202D01*
Y584298D01*
X879202Y583298D01*
X884200D02*
X885200Y584298D01*
X887199D01*
X888199Y583298D01*
Y582299D01*
X887199Y581299D01*
X888199Y580299D01*
Y579300D01*
X887199Y578300D01*
X885200D01*
X884200Y579300D01*
Y580299D01*
X885200Y581299D01*
X884200Y582299D01*
Y583298D01*
X885200Y581299D02*
X887199D01*
X1058298Y529431D02*
Y533430D01*
X1055299D01*
Y531431D01*
Y533430D01*
X1052300D01*
Y524433D02*
X1058298D01*
X1055299Y527432D01*
Y523433D01*
X1089798Y529431D02*
Y533430D01*
X1086799D01*
Y531431D01*
Y533430D01*
X1083800D01*
X1088798Y527432D02*
X1089798Y526432D01*
Y524433D01*
X1088798Y523433D01*
X1087799D01*
X1086799Y524433D01*
Y525433D01*
Y524433D01*
X1085799Y523433D01*
X1084800D01*
X1083800Y524433D01*
Y526432D01*
X1084800Y527432D01*
X633028Y364667D02*
X634028Y365667D01*
Y367666D01*
X633028Y368666D01*
X629030D01*
X628030Y367666D01*
Y365667D01*
X629030Y364667D01*
X633028Y362668D02*
X634028Y361668D01*
Y359669D01*
X633028Y358669D01*
X632029D01*
X631029Y359669D01*
Y360669D01*
Y359669D01*
X630029Y358669D01*
X629030D01*
X628030Y359669D01*
Y361668D01*
X629030Y362668D01*
X634028Y356670D02*
Y352671D01*
X633028D01*
X629030Y356670D01*
X628030D01*
X685028Y365201D02*
X686028Y366201D01*
Y368200D01*
X685028Y369200D01*
X681030D01*
X680030Y368200D01*
Y366201D01*
X681030Y365201D01*
X685028Y363202D02*
X686028Y362202D01*
Y360203D01*
X685028Y359203D01*
X684029D01*
X683029Y360203D01*
Y361203D01*
Y360203D01*
X682029Y359203D01*
X681030D01*
X680030Y360203D01*
Y362202D01*
X681030Y363202D01*
X686028Y353205D02*
X685028Y355205D01*
X683029Y357204D01*
X681030D01*
X680030Y356204D01*
Y354205D01*
X681030Y353205D01*
X682029D01*
X683029Y354205D01*
Y357204D01*
X590028Y365201D02*
X591028Y366201D01*
Y368200D01*
X590028Y369200D01*
X586030D01*
X585030Y368200D01*
Y366201D01*
X586030Y365201D01*
X590028Y363202D02*
X591028Y362202D01*
Y360203D01*
X590028Y359203D01*
X589029D01*
X588029Y360203D01*
Y361203D01*
Y360203D01*
X587029Y359203D01*
X586030D01*
X585030Y360203D01*
Y362202D01*
X586030Y363202D01*
X591028Y353205D02*
Y357204D01*
X588029D01*
X589029Y355205D01*
Y354205D01*
X588029Y353205D01*
X586030D01*
X585030Y354205D01*
Y356204D01*
X586030Y357204D01*
X1011470Y159198D02*
Y153200D01*
X1014469D01*
X1015469Y154200D01*
Y158198D01*
X1014469Y159198D01*
X1011470D01*
X1017468Y158198D02*
X1018468Y159198D01*
X1020467D01*
X1021467Y158198D01*
Y157199D01*
X1020467Y156199D01*
X1019467D01*
X1020467D01*
X1021467Y155199D01*
Y154200D01*
X1020467Y153200D01*
X1018468D01*
X1017468Y154200D01*
X888000Y1333700D02*
Y1339698D01*
X890999D01*
X891999Y1338698D01*
Y1336699D01*
X890999Y1335699D01*
X888000D01*
X889999D02*
X891999Y1333700D01*
X893998D02*
X895997D01*
X894998D01*
Y1339698D01*
X893998Y1338698D01*
X898996D02*
X899996Y1339698D01*
X901995D01*
X902995Y1338698D01*
Y1337699D01*
X901995Y1336699D01*
X900996D01*
X901995D01*
X902995Y1335699D01*
Y1334700D01*
X901995Y1333700D01*
X899996D01*
X898996Y1334700D01*
X968970Y1394200D02*
Y1388202D01*
X965971D01*
X964971Y1389202D01*
Y1391201D01*
X965971Y1392201D01*
X968970D01*
X966971D02*
X964971Y1394200D01*
X962972Y1388202D02*
X958973D01*
Y1389202D01*
X962972Y1393200D01*
Y1394200D01*
X970182Y1340200D02*
Y1334202D01*
X967183D01*
X966183Y1335202D01*
Y1337201D01*
X967183Y1338201D01*
X970182D01*
X968183D02*
X966183Y1340200D01*
X964184D02*
X962185D01*
X963184D01*
Y1334202D01*
X964184Y1335202D01*
X959186Y1340200D02*
X957186D01*
X958186D01*
Y1334202D01*
X959186Y1335202D01*
X923500Y1304999D02*
X919502D01*
X918502Y1303999D01*
Y1302000D01*
X919502Y1301000D01*
X923500D01*
X924500Y1302000D01*
Y1303999D01*
X922501Y1302999D02*
X924500Y1304999D01*
Y1303999D02*
X923500Y1304999D01*
X918502Y1306998D02*
Y1310997D01*
X919502D01*
X923500Y1306998D01*
X924500D01*
X918470Y1333700D02*
Y1339698D01*
X921469D01*
X922469Y1338698D01*
Y1336699D01*
X921469Y1335699D01*
X918470D01*
X920469D02*
X922469Y1333700D01*
X924468D02*
X926467D01*
X925468D01*
Y1339698D01*
X924468Y1338698D01*
X933465Y1333700D02*
X929466D01*
X933465Y1337699D01*
Y1338698D01*
X932465Y1339698D01*
X930466D01*
X929466Y1338698D01*
X606032Y579699D02*
X605032Y578699D01*
Y576700D01*
X606032Y575700D01*
X610030D01*
X611030Y576700D01*
Y578699D01*
X610030Y579699D01*
X605032Y585697D02*
Y581698D01*
X608031D01*
X607031Y583697D01*
Y584697D01*
X608031Y585697D01*
X610030D01*
X611030Y584697D01*
Y582698D01*
X610030Y581698D01*
X606032Y587696D02*
X605032Y588696D01*
Y590695D01*
X606032Y591695D01*
X610030D01*
X611030Y590695D01*
Y588696D01*
X610030Y587696D01*
X606032D01*
X601530Y367700D02*
X607528D01*
Y364701D01*
X606528Y363701D01*
X604529D01*
X603529Y364701D01*
Y367700D01*
Y365701D02*
X601530Y363701D01*
X602530Y361702D02*
X601530Y360702D01*
Y358703D01*
X602530Y357703D01*
X606528D01*
X607528Y358703D01*
Y360702D01*
X606528Y361702D01*
X605529D01*
X604529Y360702D01*
Y357703D01*
X601530Y355704D02*
Y353704D01*
Y354704D01*
X607528D01*
X606528Y355704D01*
X442814Y1286264D02*
X446813D01*
X444813D01*
Y1280266D01*
X448812Y1286264D02*
Y1282265D01*
X450811Y1280266D01*
X452811Y1282265D01*
Y1286264D01*
X458809Y1285264D02*
X457809Y1286264D01*
X455810D01*
X454810Y1285264D01*
Y1284265D01*
X455810Y1283265D01*
X457809D01*
X458809Y1282265D01*
Y1281266D01*
X457809Y1280266D01*
X455810D01*
X454810Y1281266D01*
X464807Y1286264D02*
X462808Y1285264D01*
X460808Y1283265D01*
Y1281266D01*
X461808Y1280266D01*
X463807D01*
X464807Y1281266D01*
Y1282265D01*
X463807Y1283265D01*
X460808D01*
X199814Y1286264D02*
X203813D01*
X201813D01*
Y1280266D01*
X205812Y1286264D02*
Y1282265D01*
X207811Y1280266D01*
X209811Y1282265D01*
Y1286264D01*
X215809Y1285264D02*
X214809Y1286264D01*
X212810D01*
X211810Y1285264D01*
Y1284265D01*
X212810Y1283265D01*
X214809D01*
X215809Y1282265D01*
Y1281266D01*
X214809Y1280266D01*
X212810D01*
X211810Y1281266D01*
X217808Y1286264D02*
X221807D01*
Y1285264D01*
X217808Y1281266D01*
Y1280266D01*
X222802Y1035000D02*
X227800D01*
X228800Y1036000D01*
Y1037999D01*
X227800Y1038999D01*
X222802D01*
X223802Y1040998D02*
X227800Y1044997D01*
Y1040998D02*
X223802Y1044997D01*
X225801Y1040998D02*
Y1044997D01*
X227800Y1042997D02*
X223802D01*
X228800Y1050995D02*
Y1046996D01*
X224801Y1050995D01*
X223802D01*
X222802Y1049995D01*
Y1047996D01*
X223802Y1046996D01*
X276930Y1078758D02*
Y1072760D01*
X273931D01*
X272931Y1073760D01*
Y1075759D01*
X273931Y1076759D01*
X276930D01*
X274931D02*
X272931Y1078758D01*
X267933D02*
Y1072760D01*
X270932Y1075759D01*
X266933D01*
X260935Y1078758D02*
X264934D01*
X260935Y1074759D01*
Y1073760D01*
X261935Y1072760D01*
X263934D01*
X264934Y1073760D01*
X171594Y980542D02*
X165596D01*
Y983541D01*
X166596Y984541D01*
X168595D01*
X169595Y983541D01*
Y980542D01*
Y982541D02*
X171594Y984541D01*
Y989539D02*
X165596D01*
X168595Y986540D01*
Y990539D01*
X170594Y992538D02*
X171594Y993538D01*
Y995537D01*
X170594Y996537D01*
X166596D01*
X165596Y995537D01*
Y993538D01*
X166596Y992538D01*
X167595D01*
X168595Y993538D01*
Y996537D01*
X218333Y1018998D02*
X217333Y1019998D01*
X215334D01*
X214334Y1018998D01*
Y1015000D01*
X215334Y1014000D01*
X217333D01*
X218333Y1015000D01*
X220332Y1014000D02*
X222331D01*
X221332D01*
Y1019998D01*
X220332Y1018998D01*
X225330Y1015000D02*
X226330Y1014000D01*
X228329D01*
X229329Y1015000D01*
Y1018998D01*
X228329Y1019998D01*
X226330D01*
X225330Y1018998D01*
Y1017999D01*
X226330Y1016999D01*
X229329D01*
X190200Y1037000D02*
Y1031002D01*
X187201D01*
X186201Y1032002D01*
Y1034001D01*
X187201Y1035001D01*
X190200D01*
X188201D02*
X186201Y1037000D01*
X180203Y1031002D02*
X184202D01*
Y1034001D01*
X182203Y1033001D01*
X181203D01*
X180203Y1034001D01*
Y1036000D01*
X181203Y1037000D01*
X183202D01*
X184202Y1036000D01*
X178204Y1032002D02*
X177204Y1031002D01*
X175205D01*
X174205Y1032002D01*
Y1036000D01*
X175205Y1037000D01*
X177204D01*
X178204Y1036000D01*
Y1032002D01*
X146894Y950472D02*
X140896D01*
Y953471D01*
X141896Y954471D01*
X143895D01*
X144895Y953471D01*
Y950472D01*
Y952471D02*
X146894Y954471D01*
Y959469D02*
X140896D01*
X143895Y956470D01*
Y960469D01*
X141896Y962468D02*
X140896Y963468D01*
Y965467D01*
X141896Y966467D01*
X142895D01*
X143895Y965467D01*
X144895Y966467D01*
X145894D01*
X146894Y965467D01*
Y963468D01*
X145894Y962468D01*
X144895D01*
X143895Y963468D01*
X142895Y962468D01*
X141896D01*
X143895Y963468D02*
Y965467D01*
X146894Y1010596D02*
X140896D01*
Y1013595D01*
X141896Y1014595D01*
X143895D01*
X144895Y1013595D01*
Y1010596D01*
Y1012595D02*
X146894Y1014595D01*
Y1019593D02*
X140896D01*
X143895Y1016594D01*
Y1020593D01*
X140896Y1022592D02*
Y1026591D01*
X141896D01*
X145894Y1022592D01*
X146894D01*
X268306Y978118D02*
X274304D01*
Y975119D01*
X273304Y974119D01*
X271305D01*
X270305Y975119D01*
Y978118D01*
Y976119D02*
X268306Y974119D01*
X274304Y968121D02*
Y972120D01*
X271305D01*
X272305Y970121D01*
Y969121D01*
X271305Y968121D01*
X269306D01*
X268306Y969121D01*
Y971120D01*
X269306Y972120D01*
X273304Y966122D02*
X274304Y965122D01*
Y963123D01*
X273304Y962123D01*
X272305D01*
X271305Y963123D01*
Y964122D01*
Y963123D01*
X270305Y962123D01*
X269306D01*
X268306Y963123D01*
Y965122D01*
X269306Y966122D01*
X199394Y957558D02*
X193396D01*
Y960557D01*
X194396Y961557D01*
X196395D01*
X197395Y960557D01*
Y957558D01*
Y959557D02*
X199394Y961557D01*
X193396Y967555D02*
Y963556D01*
X196395D01*
X195395Y965555D01*
Y966555D01*
X196395Y967555D01*
X198394D01*
X199394Y966555D01*
Y964556D01*
X198394Y963556D01*
X199394Y972553D02*
X193396D01*
X196395Y969554D01*
Y973553D01*
X299900Y928900D02*
X293902D01*
Y931899D01*
X294902Y932899D01*
X296901D01*
X297901Y931899D01*
Y928900D01*
Y930899D02*
X299900Y932899D01*
X293902Y938897D02*
Y934898D01*
X296901D01*
X295901Y936898D01*
Y937897D01*
X296901Y938897D01*
X298900D01*
X299900Y937897D01*
Y935898D01*
X298900Y934898D01*
X293902Y944895D02*
X294902Y942896D01*
X296901Y940896D01*
X298900D01*
X299900Y941896D01*
Y943895D01*
X298900Y944895D01*
X297901D01*
X296901Y943895D01*
Y940896D01*
X315202Y939899D02*
X314202Y938899D01*
Y936900D01*
X315202Y935900D01*
X319200D01*
X320200Y936900D01*
Y938899D01*
X319200Y939899D01*
X320200Y945897D02*
Y941898D01*
X316201Y945897D01*
X315202D01*
X314202Y944897D01*
Y942898D01*
X315202Y941898D01*
Y947896D02*
X314202Y948896D01*
Y950895D01*
X315202Y951895D01*
X319200D01*
X320200Y950895D01*
Y948896D01*
X319200Y947896D01*
X315202D01*
X223528Y979806D02*
Y985804D01*
X226527D01*
X227527Y984804D01*
Y982805D01*
X226527Y981805D01*
X223528D01*
X225527D02*
X227527Y979806D01*
X233525Y985804D02*
X229526D01*
Y982805D01*
X231525Y983805D01*
X232525D01*
X233525Y982805D01*
Y980806D01*
X232525Y979806D01*
X230526D01*
X229526Y980806D01*
X239523Y985804D02*
X235524D01*
Y982805D01*
X237523Y983805D01*
X238523D01*
X239523Y982805D01*
Y980806D01*
X238523Y979806D01*
X236524D01*
X235524Y980806D01*
X405142Y951530D02*
X411140D01*
Y948531D01*
X410140Y947531D01*
X408141D01*
X407141Y948531D01*
Y951530D01*
Y949531D02*
X405142Y947531D01*
X411140Y941533D02*
Y945532D01*
X408141D01*
X409141Y943533D01*
Y942533D01*
X408141Y941533D01*
X406142D01*
X405142Y942533D01*
Y944532D01*
X406142Y945532D01*
X405142Y939534D02*
Y937534D01*
Y938534D01*
X411140D01*
X410140Y939534D01*
X339302Y929000D02*
X344300D01*
X345300Y930000D01*
Y931999D01*
X344300Y932999D01*
X339302D01*
X340302Y934998D02*
X344300Y938997D01*
Y934998D02*
X340302Y938997D01*
X342301Y934998D02*
Y938997D01*
X344300Y936997D02*
X340302D01*
Y940996D02*
X339302Y941996D01*
Y943995D01*
X340302Y944995D01*
X341301D01*
X342301Y943995D01*
Y942996D01*
Y943995D01*
X343301Y944995D01*
X344300D01*
X345300Y943995D01*
Y941996D01*
X344300Y940996D01*
X219128Y831406D02*
Y837404D01*
X222127D01*
X223127Y836404D01*
Y834405D01*
X222127Y833405D01*
X219128D01*
X221127D02*
X223127Y831406D01*
X229125Y837404D02*
X225126D01*
Y834405D01*
X227125Y835405D01*
X228125D01*
X229125Y834405D01*
Y832406D01*
X228125Y831406D01*
X226126D01*
X225126Y832406D01*
X231124D02*
X232124Y831406D01*
X234123D01*
X235123Y832406D01*
Y836404D01*
X234123Y837404D01*
X232124D01*
X231124Y836404D01*
Y835405D01*
X232124Y834405D01*
X235123D01*
X305301Y807902D02*
X306301Y806902D01*
X308300D01*
X309300Y807902D01*
Y811900D01*
X308300Y812900D01*
X306301D01*
X305301Y811900D01*
X299303Y812900D02*
X303302D01*
X299303Y808901D01*
Y807902D01*
X300303Y806902D01*
X302302D01*
X303302Y807902D01*
X297304Y812900D02*
X295305D01*
X296304D01*
Y806902D01*
X297304Y807902D01*
X298400Y838000D02*
Y832002D01*
X295401D01*
X294401Y833002D01*
Y835001D01*
X295401Y836001D01*
X298400D01*
X296401D02*
X294401Y838000D01*
X288403Y832002D02*
X290403Y833002D01*
X292402Y835001D01*
Y837000D01*
X291402Y838000D01*
X289403D01*
X288403Y837000D01*
Y836001D01*
X289403Y835001D01*
X292402D01*
X286404Y833002D02*
X285404Y832002D01*
X283405D01*
X282405Y833002D01*
Y837000D01*
X283405Y838000D01*
X285404D01*
X286404Y837000D01*
Y833002D01*
X189058Y806306D02*
Y812304D01*
X192057D01*
X193057Y811304D01*
Y809305D01*
X192057Y808305D01*
X189058D01*
X191057D02*
X193057Y806306D01*
X199055Y812304D02*
X195056D01*
Y809305D01*
X197055Y810305D01*
X198055D01*
X199055Y809305D01*
Y807306D01*
X198055Y806306D01*
X196056D01*
X195056Y807306D01*
X201054Y811304D02*
X202054Y812304D01*
X204053D01*
X205053Y811304D01*
Y810305D01*
X204053Y809305D01*
X205053Y808305D01*
Y807306D01*
X204053Y806306D01*
X202054D01*
X201054Y807306D01*
Y808305D01*
X202054Y809305D01*
X201054Y810305D01*
Y811304D01*
X202054Y809305D02*
X204053D01*
X249182Y806306D02*
Y812304D01*
X252181D01*
X253181Y811304D01*
Y809305D01*
X252181Y808305D01*
X249182D01*
X251181D02*
X253181Y806306D01*
X259179Y812304D02*
X255180D01*
Y809305D01*
X257179Y810305D01*
X258179D01*
X259179Y809305D01*
Y807306D01*
X258179Y806306D01*
X256180D01*
X255180Y807306D01*
X261178Y812304D02*
X265177D01*
Y811304D01*
X261178Y807306D01*
Y806306D01*
X219128Y770906D02*
Y776904D01*
X222127D01*
X223127Y775904D01*
Y773905D01*
X222127Y772905D01*
X219128D01*
X221127D02*
X223127Y770906D01*
X229125Y776904D02*
X227125Y775904D01*
X225126Y773905D01*
Y771906D01*
X226126Y770906D01*
X228125D01*
X229125Y771906D01*
Y772905D01*
X228125Y773905D01*
X225126D01*
X235123Y776904D02*
X231124D01*
Y773905D01*
X233123Y774905D01*
X234123D01*
X235123Y773905D01*
Y771906D01*
X234123Y770906D01*
X232124D01*
X231124Y771906D01*
X305301Y747402D02*
X306301Y746402D01*
X308300D01*
X309300Y747402D01*
Y751400D01*
X308300Y752400D01*
X306301D01*
X305301Y751400D01*
X299303Y752400D02*
X303302D01*
X299303Y748401D01*
Y747402D01*
X300303Y746402D01*
X302302D01*
X303302Y747402D01*
X293305Y752400D02*
X297304D01*
X293305Y748401D01*
Y747402D01*
X294305Y746402D01*
X296304D01*
X297304Y747402D01*
X298400Y777500D02*
Y771502D01*
X295401D01*
X294401Y772502D01*
Y774501D01*
X295401Y775501D01*
X298400D01*
X296401D02*
X294401Y777500D01*
X288403Y771502D02*
X290403Y772502D01*
X292402Y774501D01*
Y776500D01*
X291402Y777500D01*
X289403D01*
X288403Y776500D01*
Y775501D01*
X289403Y774501D01*
X292402D01*
X282405Y771502D02*
X284405Y772502D01*
X286404Y774501D01*
Y776500D01*
X285404Y777500D01*
X283405D01*
X282405Y776500D01*
Y775501D01*
X283405Y774501D01*
X286404D01*
X189058Y745806D02*
Y751804D01*
X192057D01*
X193057Y750804D01*
Y748805D01*
X192057Y747805D01*
X189058D01*
X191057D02*
X193057Y745806D01*
X199055Y751804D02*
X197055Y750804D01*
X195056Y748805D01*
Y746806D01*
X196056Y745806D01*
X198055D01*
X199055Y746806D01*
Y747805D01*
X198055Y748805D01*
X195056D01*
X204053Y745806D02*
Y751804D01*
X201054Y748805D01*
X205053D01*
X249182Y745806D02*
Y751804D01*
X252181D01*
X253181Y750804D01*
Y748805D01*
X252181Y747805D01*
X249182D01*
X251181D02*
X253181Y745806D01*
X259179Y751804D02*
X257179Y750804D01*
X255180Y748805D01*
Y746806D01*
X256180Y745806D01*
X258179D01*
X259179Y746806D01*
Y747805D01*
X258179Y748805D01*
X255180D01*
X261178Y750804D02*
X262178Y751804D01*
X264177D01*
X265177Y750804D01*
Y749805D01*
X264177Y748805D01*
X263178D01*
X264177D01*
X265177Y747805D01*
Y746806D01*
X264177Y745806D01*
X262178D01*
X261178Y746806D01*
X339302Y692200D02*
X344300D01*
X345300Y693200D01*
Y695199D01*
X344300Y696199D01*
X339302D01*
X340302Y698198D02*
X344300Y702197D01*
Y698198D02*
X340302Y702197D01*
X342301Y698198D02*
Y702197D01*
X344300Y700197D02*
X340302D01*
X339302Y708195D02*
X340302Y706195D01*
X342301Y704196D01*
X344300D01*
X345300Y705196D01*
Y707195D01*
X344300Y708195D01*
X343301D01*
X342301Y707195D01*
Y704196D01*
X406842Y714730D02*
X412840D01*
Y711731D01*
X411840Y710731D01*
X409841D01*
X408841Y711731D01*
Y714730D01*
Y712731D02*
X406842Y710731D01*
X412840Y704733D02*
X411840Y706732D01*
X409841Y708732D01*
X407842D01*
X406842Y707732D01*
Y705733D01*
X407842Y704733D01*
X408841D01*
X409841Y705733D01*
Y708732D01*
X406842Y698735D02*
Y702734D01*
X410841Y698735D01*
X411840D01*
X412840Y699735D01*
Y701734D01*
X411840Y702734D01*
X219128Y712206D02*
Y718204D01*
X222127D01*
X223127Y717204D01*
Y715205D01*
X222127Y714205D01*
X219128D01*
X221127D02*
X223127Y712206D01*
X229125Y718204D02*
X227125Y717204D01*
X225126Y715205D01*
Y713206D01*
X226126Y712206D01*
X228125D01*
X229125Y713206D01*
Y714205D01*
X228125Y715205D01*
X225126D01*
X231124Y713206D02*
X232124Y712206D01*
X234123D01*
X235123Y713206D01*
Y717204D01*
X234123Y718204D01*
X232124D01*
X231124Y717204D01*
Y716205D01*
X232124Y715205D01*
X235123D01*
X305301Y688702D02*
X306301Y687702D01*
X308300D01*
X309300Y688702D01*
Y692700D01*
X308300Y693700D01*
X306301D01*
X305301Y692700D01*
X299303Y693700D02*
X303302D01*
X299303Y689701D01*
Y688702D01*
X300303Y687702D01*
X302302D01*
X303302Y688702D01*
X297304D02*
X296304Y687702D01*
X294305D01*
X293305Y688702D01*
Y689701D01*
X294305Y690701D01*
X295305D01*
X294305D01*
X293305Y691701D01*
Y692700D01*
X294305Y693700D01*
X296304D01*
X297304Y692700D01*
X298400Y718800D02*
Y712802D01*
X295401D01*
X294401Y713802D01*
Y715801D01*
X295401Y716801D01*
X298400D01*
X296401D02*
X294401Y718800D01*
X292402Y712802D02*
X288403D01*
Y713802D01*
X292402Y717800D01*
Y718800D01*
X286404Y713802D02*
X285404Y712802D01*
X283405D01*
X282405Y713802D01*
Y717800D01*
X283405Y718800D01*
X285404D01*
X286404Y717800D01*
Y713802D01*
X189058Y687106D02*
Y693104D01*
X192057D01*
X193057Y692104D01*
Y690105D01*
X192057Y689105D01*
X189058D01*
X191057D02*
X193057Y687106D01*
X199055Y693104D02*
X197055Y692104D01*
X195056Y690105D01*
Y688106D01*
X196056Y687106D01*
X198055D01*
X199055Y688106D01*
Y689105D01*
X198055Y690105D01*
X195056D01*
X201054Y692104D02*
X202054Y693104D01*
X204053D01*
X205053Y692104D01*
Y691105D01*
X204053Y690105D01*
X205053Y689105D01*
Y688106D01*
X204053Y687106D01*
X202054D01*
X201054Y688106D01*
Y689105D01*
X202054Y690105D01*
X201054Y691105D01*
Y692104D01*
X202054Y690105D02*
X204053D01*
X249182Y687106D02*
Y693104D01*
X252181D01*
X253181Y692104D01*
Y690105D01*
X252181Y689105D01*
X249182D01*
X251181D02*
X253181Y687106D01*
X259179Y693104D02*
X257179Y692104D01*
X255180Y690105D01*
Y688106D01*
X256180Y687106D01*
X258179D01*
X259179Y688106D01*
Y689105D01*
X258179Y690105D01*
X255180D01*
X261178Y693104D02*
X265177D01*
Y692104D01*
X261178Y688106D01*
Y687106D01*
X406842Y772930D02*
X412840D01*
Y769931D01*
X411840Y768931D01*
X409841D01*
X408841Y769931D01*
Y772930D01*
Y770931D02*
X406842Y768931D01*
X412840Y762933D02*
X411840Y764932D01*
X409841Y766932D01*
X407842D01*
X406842Y765932D01*
Y763933D01*
X407842Y762933D01*
X408841D01*
X409841Y763933D01*
Y766932D01*
X406842Y760934D02*
Y758934D01*
Y759934D01*
X412840D01*
X411840Y760934D01*
X339302Y750400D02*
X344300D01*
X345300Y751400D01*
Y753399D01*
X344300Y754399D01*
X339302D01*
X340302Y756398D02*
X344300Y760397D01*
Y756398D02*
X340302Y760397D01*
X342301Y756398D02*
Y760397D01*
X344300Y758397D02*
X340302D01*
X339302Y766395D02*
Y762396D01*
X342301D01*
X341301Y764395D01*
Y765395D01*
X342301Y766395D01*
X344300D01*
X345300Y765395D01*
Y763396D01*
X344300Y762396D01*
X406842Y833430D02*
X412840D01*
Y830431D01*
X411840Y829431D01*
X409841D01*
X408841Y830431D01*
Y833430D01*
Y831431D02*
X406842Y829431D01*
X412840Y823433D02*
Y827432D01*
X409841D01*
X410841Y825433D01*
Y824433D01*
X409841Y823433D01*
X407842D01*
X406842Y824433D01*
Y826432D01*
X407842Y827432D01*
X406842Y817435D02*
Y821434D01*
X410841Y817435D01*
X411840D01*
X412840Y818435D01*
Y820434D01*
X411840Y821434D01*
X339302Y810900D02*
X344300D01*
X345300Y811900D01*
Y813899D01*
X344300Y814899D01*
X339302D01*
X340302Y816898D02*
X344300Y820897D01*
Y816898D02*
X340302Y820897D01*
X342301Y816898D02*
Y820897D01*
X344300Y818897D02*
X340302D01*
X345300Y825895D02*
X339302D01*
X342301Y822896D01*
Y826895D01*
D74*
X893735Y127662D02*
D03*
M02*
