G04 Layer_Physical_Order=6*
G04 Layer_Color=16711680*
%FSLAX44Y44*%
%MOMM*%
G71*
G01*
G75*
%ADD24R,0.8000X0.9000*%
%ADD47C,0.5000*%
%ADD48C,0.3000*%
%ADD49C,0.2000*%
%ADD58C,5.5000*%
%ADD59C,1.5240*%
%ADD60C,1.6000*%
%ADD61P,1.7318X8X202.5*%
%ADD62C,2.0000*%
%ADD63P,2.1648X8X292.5*%
%ADD64P,2.7060X8X292.5*%
%ADD65C,2.5000*%
%ADD66P,1.7318X8X112.5*%
%ADD67C,3.2500*%
%ADD68C,0.7000*%
D24*
X973216Y1336700D02*
D03*
X955182Y1336700D02*
D03*
X973216Y1391700D02*
D03*
X955182Y1391700D02*
D03*
X918436Y1336700D02*
D03*
X936470Y1336700D02*
D03*
X918436Y1391700D02*
D03*
X936470Y1391700D02*
D03*
D47*
X228300Y1017500D02*
X319900Y925900D01*
X203734Y1017500D02*
X228300D01*
X319900Y809400D02*
Y925900D01*
X224136Y1191900D02*
X430536D01*
X468100Y1229500D02*
X569204D01*
X448818Y1210218D02*
X448818Y1210218D01*
X468100Y1229500D01*
X149670Y1017500D02*
X203734D01*
Y1036766D01*
X174700Y1065800D02*
X203734Y1036766D01*
X26970Y894800D02*
X149670Y1017500D01*
X319900Y690200D02*
Y748900D01*
Y809400D01*
X135270Y1280766D02*
X224136Y1191900D01*
X569204Y1229500D02*
X620470Y1280766D01*
X15840Y103580D02*
X26840D01*
X15840Y128980D02*
X26840D01*
X15840Y154380D02*
X26840D01*
X15840Y179780D02*
X26840D01*
X15840Y205180D02*
X26840D01*
X475800Y407800D02*
Y418800D01*
Y429800D01*
Y418800D02*
X486800D01*
X26970Y481900D02*
X39970D01*
X26970D02*
Y494900D01*
Y468900D02*
Y481900D01*
X26970Y558100D02*
Y571100D01*
Y545100D02*
Y558100D01*
X39970D01*
X26970Y621300D02*
Y634300D01*
Y647300D01*
Y634300D02*
X39970D01*
X26970Y691300D02*
Y704300D01*
Y717300D01*
Y704300D02*
X39970D01*
X392191Y1089700D02*
Y1100700D01*
X381191D02*
X392191D01*
Y1111700D01*
Y1100700D02*
X403191D01*
X556600Y45300D02*
X567600D01*
Y34300D02*
Y45300D01*
Y56300D01*
Y45300D02*
X578600D01*
X1051579Y257190D02*
X1067079D01*
Y241690D02*
Y257190D01*
Y272690D01*
Y257190D02*
X1082579D01*
X1051579Y358790D02*
X1067079D01*
Y374290D01*
Y343290D02*
Y358790D01*
X1082579D01*
X720651Y1100700D02*
X731651D01*
Y1089700D02*
Y1100700D01*
X742651D01*
X731651D02*
Y1111700D01*
X1079970Y704300D02*
X1092970D01*
Y717300D01*
Y691300D02*
Y704300D01*
X430536Y1191900D02*
X448836Y1210200D01*
X378270Y1280766D02*
X448818Y1210218D01*
X26970Y818600D02*
Y894800D01*
X381191Y1210200D02*
X392191D01*
Y1221200D01*
Y1210200D02*
X403191D01*
X731651Y1199200D02*
Y1210200D01*
X720651D02*
X731651D01*
Y1221200D01*
Y1210200D02*
X742651D01*
D48*
X60100Y82400D02*
G03*
X61418Y79218I4500J0D01*
G01*
X80518Y60118D02*
G03*
X83700Y58800I3182J3182D01*
G01*
X80518Y60118D02*
G03*
X83700Y58800I3182J3182D01*
G01*
X85518Y78618D02*
G03*
X88700Y77300I3182J3182D01*
G01*
X60100Y82400D02*
G03*
X61418Y79218I4500J0D01*
G01*
X20000Y91793D02*
G03*
X28340Y103580I-4160J11788D01*
G01*
X71300Y94700D02*
G03*
X72618Y91518I4500J0D01*
G01*
X71300Y94700D02*
G03*
X72618Y91518I4500J0D01*
G01*
X85518Y78618D02*
G03*
X88700Y77300I3182J3182D01*
G01*
X102623Y108080D02*
G03*
X102623Y99080I-10583J-4500D01*
G01*
X28340Y103580D02*
G03*
X20000Y115367I-12500J0D01*
G01*
Y117193D02*
G03*
X28340Y128980I-4160J11788D01*
G01*
D02*
G03*
X20000Y140767I-12500J0D01*
G01*
Y142593D02*
G03*
X28340Y154380I-4160J11788D01*
G01*
X102623Y133480D02*
G03*
X102623Y124480I-10583J-4500D01*
G01*
Y158880D02*
G03*
X102623Y149880I-10583J-4500D01*
G01*
X289080D02*
G03*
X292262Y151198I0J4500D01*
G01*
X289080Y149880D02*
G03*
X292262Y151198I0J4500D01*
G01*
X28340Y154380D02*
G03*
X20000Y166168I-12500J0D01*
G01*
Y167993D02*
G03*
X28340Y179780I-4160J11788D01*
G01*
X72618Y170682D02*
G03*
X71300Y167500I3182J-3182D01*
G01*
X61418Y180922D02*
G03*
X60100Y177740I3182J-3182D01*
G01*
X61418Y180922D02*
G03*
X60100Y177740I3182J-3182D01*
G01*
X28340Y179780D02*
G03*
X20000Y191567I-12500J0D01*
G01*
X72618Y170682D02*
G03*
X71300Y167500I3182J-3182D01*
G01*
X85200Y170536D02*
G03*
X103540Y179780I6840J9244D01*
G01*
D02*
G03*
X80595Y178659I-11500J0D01*
G01*
X87739Y194515D02*
G03*
X103540Y205180I4301J10665D01*
G01*
D02*
G03*
X81375Y200879I-11500J0D01*
G01*
X150590Y288200D02*
G03*
X150590Y288200I-11120J0D01*
G01*
X149639Y318100D02*
G03*
X149639Y309100I-10169J-4500D01*
G01*
X150590Y339000D02*
G03*
X150590Y339000I-11120J0D01*
G01*
Y364400D02*
G03*
X150590Y364400I-11120J0D01*
G01*
X175800Y273351D02*
G03*
X175990Y275400I-10930J2049D01*
G01*
D02*
G03*
X175800Y277449I-11120J0D01*
G01*
X203620Y279380D02*
G03*
X201120Y284742I-7000J0D01*
G01*
X192120D02*
G03*
X203620Y279380I4500J-5362D01*
G01*
X278962Y221500D02*
G03*
X278962Y212500I-5362J-4500D01*
G01*
X284800D02*
G03*
X287982Y213818I0J4500D01*
G01*
X284800Y212500D02*
G03*
X287982Y213818I0J4500D01*
G01*
X294800Y231500D02*
G03*
X291618Y230182I0J-4500D01*
G01*
X294800Y231500D02*
G03*
X291618Y230182I0J-4500D01*
G01*
X295266Y243700D02*
G03*
X295266Y243700I-7000J0D01*
G01*
X167519Y286200D02*
G03*
X162222Y286200I-2648J-10800D01*
G01*
X174082Y316782D02*
G03*
X172259Y317890I-3182J-3182D01*
G01*
X174082Y316782D02*
G03*
X172259Y317890I-3182J-3182D01*
G01*
X157470Y309100D02*
G03*
X175990Y300800I7400J-8300D01*
G01*
X172259Y317890D02*
G03*
X175990Y326200I-7389J8310D01*
G01*
D02*
G03*
X157252Y318100I-11120J0D01*
G01*
X201120Y287880D02*
G03*
X199802Y291062I-4500J0D01*
G01*
X201120Y287880D02*
G03*
X199802Y291062I-4500J0D01*
G01*
X175990Y351600D02*
G03*
X175990Y351600I-11120J0D01*
G01*
X187834Y398034D02*
G03*
X187834Y398034I-7000J0D01*
G01*
X209166Y348066D02*
G03*
X209166Y348066I-7000J0D01*
G01*
X292421Y349034D02*
G03*
X292421Y349034I-7000J0D01*
G01*
X315134Y149500D02*
G03*
X315134Y149500I-7000J0D01*
G01*
X304500Y174300D02*
G03*
X301318Y172982I0J-4500D01*
G01*
X304500Y174300D02*
G03*
X301318Y172982I0J-4500D01*
G01*
X380600Y195500D02*
G03*
X380600Y195500I-7000J0D01*
G01*
X485600Y58800D02*
G03*
X488782Y60118I0J4500D01*
G01*
X485600Y58800D02*
G03*
X488782Y60118I0J4500D01*
G01*
X489400Y77300D02*
G03*
X492582Y78618I0J4500D01*
G01*
X489400Y77300D02*
G03*
X492582Y78618I0J4500D01*
G01*
X408200Y165300D02*
G03*
X411382Y166618I0J4500D01*
G01*
X408200Y165300D02*
G03*
X411382Y166618I0J4500D01*
G01*
X498480Y99080D02*
G03*
X501350Y100114I0J4500D01*
G01*
X498480Y99080D02*
G03*
X501350Y100114I0J4500D01*
G01*
X510380Y124480D02*
G03*
X513562Y125798I0J4500D01*
G01*
X510380Y124480D02*
G03*
X513562Y125798I0J4500D01*
G01*
X294600Y220436D02*
G03*
X308600Y220366I7000J-70D01*
G01*
D02*
G03*
X308267Y222500I-7000J0D01*
G01*
X310138D02*
G03*
X322500Y227000I5362J4500D01*
G01*
D02*
G03*
X310138Y231500I-7000J0D01*
G01*
X338600Y220366D02*
G03*
X338600Y220366I-7000J0D01*
G01*
X295266Y263700D02*
G03*
X295266Y263700I-7000J0D01*
G01*
X356934Y268700D02*
G03*
X356934Y268700I-7000J0D01*
G01*
X368960Y269111D02*
G03*
X381766Y265200I5806J-3911D01*
G01*
D02*
G03*
X379572Y270289I-7000J0D01*
G01*
Y270290D02*
G03*
X380766Y274200I-5806J3911D01*
G01*
D02*
G03*
X368960Y269111I-7000J0D01*
G01*
X426266Y294600D02*
G03*
X422856Y288590I-7000J0D01*
G01*
D02*
G03*
X436034Y285300I6178J-3290D01*
G01*
D02*
G03*
X425444Y291310I-7000J0D01*
G01*
D02*
G03*
X426266Y294600I-6178J3290D01*
G01*
Y310100D02*
G03*
X426266Y310100I-7000J0D01*
G01*
X348224Y413150D02*
G03*
X360366Y408400I5142J-4750D01*
G01*
D02*
G03*
X358508Y413150I-7000J0D01*
G01*
X348224Y422650D02*
G03*
X348224Y413150I5142J-4750D01*
G01*
X375500Y413400D02*
G03*
X378682Y414718I0J4500D01*
G01*
X375500Y413400D02*
G03*
X378682Y414718I0J4500D01*
G01*
X487300Y368000D02*
G03*
X487300Y368000I-11500J0D01*
G01*
X465135Y397701D02*
G03*
X487300Y393400I10665J-4301D01*
G01*
X455000Y409700D02*
G03*
X456318Y406518I4500J0D01*
G01*
X455000Y409700D02*
G03*
X456318Y406518I4500J0D01*
G01*
X464000Y414676D02*
G03*
X488300Y418800I11800J4124D01*
G01*
X521182Y276418D02*
G03*
X522500Y279600I-3182J3182D01*
G01*
X521182Y276418D02*
G03*
X522500Y279600I-3182J3182D01*
G01*
X514818Y347782D02*
G03*
X513500Y344600I3182J-3182D01*
G01*
X514818Y347782D02*
G03*
X513500Y344600I3182J-3182D01*
G01*
X558300Y238967D02*
G03*
X558300Y238967I-7000J0D01*
G01*
X546634Y283550D02*
G03*
X542580Y289900I-7000J0D01*
G01*
X536688D02*
G03*
X546634Y283550I2946J-6350D01*
G01*
X542580Y289900D02*
G03*
X546634Y296250I-2946J6350D01*
G01*
D02*
G03*
X536688Y289900I-7000J0D01*
G01*
X487300Y393400D02*
G03*
X471499Y404065I-11500J0D01*
G01*
X521282Y381718D02*
G03*
X522600Y384900I-3182J3182D01*
G01*
X521282Y381718D02*
G03*
X522600Y384900I-3182J3182D01*
G01*
X512700Y393400D02*
G03*
X512700Y393400I-11500J0D01*
G01*
Y418800D02*
G03*
X512700Y418800I-11500J0D01*
G01*
X20000Y432239D02*
G03*
X40470Y443800I6970J11561D01*
G01*
D02*
G03*
X20000Y455362I-13500J0D01*
G01*
Y469185D02*
G03*
X41470Y481900I6970J12715D01*
G01*
D02*
G03*
X20000Y494615I-14500J0D01*
G01*
Y508438D02*
G03*
X40470Y520000I6970J11562D01*
G01*
D02*
G03*
X20000Y531562I-13500J0D01*
G01*
X167470Y443800D02*
G03*
X167470Y443800I-13500J0D01*
G01*
Y481900D02*
G03*
X167470Y481900I-13500J0D01*
G01*
X167470Y520000D02*
G03*
X167470Y520000I-13500J0D01*
G01*
X20000Y545385D02*
G03*
X41470Y558100I6970J12715D01*
G01*
D02*
G03*
X20000Y570815I-14500J0D01*
G01*
Y584638D02*
G03*
X40470Y596200I6970J11561D01*
G01*
D02*
G03*
X20000Y607761I-13500J0D01*
G01*
X115634Y646665D02*
G03*
X119170Y645200I3535J3535D01*
G01*
X115634Y646665D02*
G03*
X119170Y645200I3535J3535D01*
G01*
X167470Y558100D02*
G03*
X167470Y558100I-13500J0D01*
G01*
X167470Y596200D02*
G03*
X167470Y596200I-13500J0D01*
G01*
X146005Y645200D02*
G03*
X167470Y634300I7965J-10900D01*
G01*
D02*
G03*
X161935Y645200I-13500J0D01*
G01*
X275824Y480250D02*
G03*
X275824Y470750I5142J-4750D01*
G01*
D02*
G03*
X287966Y466000I5142J-4750D01*
G01*
X328800Y436966D02*
G03*
X328800Y436966I-7000J0D01*
G01*
X358508Y422650D02*
G03*
X360366Y427400I-5142J4750D01*
G01*
D02*
G03*
X348224Y422650I-7000J0D01*
G01*
X286108Y470750D02*
G03*
X287966Y475500I-5142J4750D01*
G01*
D02*
G03*
X286108Y480250I-7000J0D01*
G01*
X287966Y466000D02*
G03*
X286108Y470750I-7000J0D01*
G01*
Y480250D02*
G03*
X287966Y485000I-5142J4750D01*
G01*
X265966D02*
G03*
X265966Y485000I-7000J0D01*
G01*
X265966Y542200D02*
G03*
X265966Y542200I-7000J0D01*
G01*
X275824Y527950D02*
G03*
X287966Y523200I5142J-4750D01*
G01*
X275824Y537450D02*
G03*
X275824Y527950I5142J-4750D01*
G01*
X287966Y485000D02*
G03*
X275824Y480250I-7000J0D01*
G01*
X287966Y523200D02*
G03*
X286108Y527950I-7000J0D01*
G01*
D02*
G03*
X287966Y532700I-5142J4750D01*
G01*
D02*
G03*
X286108Y537450I-7000J0D01*
G01*
D02*
G03*
X287966Y542200I-5142J4750D01*
G01*
D02*
G03*
X275824Y537450I-7000J0D01*
G01*
X392024Y480450D02*
G03*
X392024Y470950I5142J-4750D01*
G01*
X372600Y494766D02*
G03*
X372600Y494766I-7000J0D01*
G01*
X392024Y537650D02*
G03*
X392024Y528150I5142J-4750D01*
G01*
X266016Y598700D02*
G03*
X266016Y598700I-7000J0D01*
G01*
X275874Y593950D02*
G03*
X275874Y584450I5142J-4750D01*
G01*
X286158Y584450D02*
G03*
X288016Y589200I-5142J4750D01*
G01*
D02*
G03*
X286158Y593950I-7000J0D01*
G01*
X232800Y645200D02*
G03*
X236336Y646665I0J5000D01*
G01*
X232800Y645200D02*
G03*
X236336Y646665I0J5000D01*
G01*
X275824Y641750D02*
G03*
X287966Y637000I5142J-4750D01*
G01*
D02*
G03*
X286108Y641750I-7000J0D01*
G01*
X275824Y651250D02*
G03*
X275824Y641750I5142J-4750D01*
G01*
X286108Y641750D02*
G03*
X287966Y646500I-5142J4750D01*
G01*
D02*
G03*
X286108Y651250I-7000J0D01*
G01*
X275874Y584450D02*
G03*
X288016Y579700I5142J-4750D01*
G01*
D02*
G03*
X286158Y584450I-7000J0D01*
G01*
Y593950D02*
G03*
X288016Y598700I-5142J4750D01*
G01*
X372600Y551966D02*
G03*
X372600Y551966I-7000J0D01*
G01*
X392074Y594150D02*
G03*
X392074Y584650I5142J-4750D01*
G01*
X288016Y598700D02*
G03*
X275874Y593950I-7000J0D01*
G01*
X372650Y608466D02*
G03*
X372650Y608466I-7000J0D01*
G01*
X392024Y651450D02*
G03*
X392024Y641950I5142J-4750D01*
G01*
X20000Y691585D02*
G03*
X41470Y704300I6970J12715D01*
G01*
D02*
G03*
X20000Y717015I-14500J0D01*
G01*
Y730838D02*
G03*
X32301Y729997I6970J11561D01*
G01*
X265966Y656000D02*
G03*
X265966Y656000I-7000J0D01*
G01*
X286108Y651250D02*
G03*
X287966Y656000I-5142J4750D01*
G01*
D02*
G03*
X275824Y651250I-7000J0D01*
G01*
X267266Y1085166D02*
G03*
X267266Y1085166I-7000J0D01*
G01*
X261900Y1099400D02*
G03*
X263218Y1096218I4500J0D01*
G01*
X261900Y1099400D02*
G03*
X263218Y1096218I4500J0D01*
G01*
X270900Y1110938D02*
G03*
X273400Y1116300I-4500J5362D01*
G01*
D02*
G03*
X261900Y1110938I-7000J0D01*
G01*
X285300Y1066966D02*
G03*
X278909Y1059993I-7000J0D01*
G01*
X291184Y1047718D02*
G03*
X294366Y1046400I3182J3182D01*
G01*
X291184Y1047718D02*
G03*
X294366Y1046400I3182J3182D01*
G01*
X302091Y1100700D02*
G03*
X294893Y1090035I-11500J0D01*
G01*
X302818Y1056618D02*
G03*
X305057Y1055400I3182J3182D01*
G01*
X302818Y1056618D02*
G03*
X305057Y1055400I3182J3182D01*
G01*
X358927Y667880D02*
G03*
X372600Y665766I6673J-2114D01*
G01*
D02*
G03*
X372273Y667880I-7000J0D01*
G01*
X301257Y1096399D02*
G03*
X302091Y1100700I-10665J4301D01*
G01*
X352057Y1096399D02*
G03*
X352891Y1100700I-10665J4301D01*
G01*
X327491D02*
G03*
X327491Y1100700I-11500J0D01*
G01*
X352891D02*
G03*
X345693Y1090035I-11500J0D01*
G01*
X378291Y1100700D02*
G03*
X378291Y1100700I-11500J0D01*
G01*
X392024Y470950D02*
G03*
X404166Y466200I5142J-4750D01*
G01*
D02*
G03*
X402308Y470950I-7000J0D01*
G01*
D02*
G03*
X404166Y475700I-5142J4750D01*
G01*
D02*
G03*
X402308Y480450I-7000J0D01*
G01*
X404166Y485200D02*
G03*
X392024Y480450I-7000J0D01*
G01*
X402308Y480450D02*
G03*
X404166Y485200I-5142J4750D01*
G01*
X402308Y528150D02*
G03*
X404166Y532900I-5142J4750D01*
G01*
D02*
G03*
X402308Y537650I-7000J0D01*
G01*
X392024Y528150D02*
G03*
X404166Y523400I5142J-4750D01*
G01*
D02*
G03*
X402308Y528150I-7000J0D01*
G01*
Y537650D02*
G03*
X404166Y542400I-5142J4750D01*
G01*
D02*
G03*
X392024Y537650I-7000J0D01*
G01*
X392074Y584650D02*
G03*
X404216Y579900I5142J-4750D01*
G01*
D02*
G03*
X402358Y584650I-7000J0D01*
G01*
X456318Y436582D02*
G03*
X455000Y433400I3182J-3182D01*
G01*
X456318Y436582D02*
G03*
X455000Y433400I3182J-3182D01*
G01*
X404166Y637200D02*
G03*
X402308Y641950I-7000J0D01*
G01*
D02*
G03*
X404166Y646700I-5142J4750D01*
G01*
X404216Y598900D02*
G03*
X392074Y594150I-7000J0D01*
G01*
X392024Y641950D02*
G03*
X404166Y637200I5142J-4750D01*
G01*
Y656200D02*
G03*
X392024Y651450I-7000J0D01*
G01*
X404216Y589400D02*
G03*
X402358Y594150I-7000J0D01*
G01*
Y584650D02*
G03*
X404216Y589400I-5142J4750D01*
G01*
X402358Y594150D02*
G03*
X404216Y598900I-5142J4750D01*
G01*
X404166Y646700D02*
G03*
X402308Y651450I-7000J0D01*
G01*
D02*
G03*
X404166Y656200I-5142J4750D01*
G01*
X416378Y685649D02*
G03*
X417000Y688534I-6378J2885D01*
G01*
X395409Y713507D02*
G03*
X401800Y706534I-609J-6973D01*
G01*
X417000Y688534D02*
G03*
X405318Y683330I-7000J0D01*
G01*
X425813Y667880D02*
G03*
X429349Y669344I0J5000D01*
G01*
X425813Y667880D02*
G03*
X429349Y669344I0J5000D01*
G01*
X488300Y418800D02*
G03*
X464000Y422924I-12500J0D01*
G01*
X514918Y470618D02*
G03*
X513600Y467436I3182J-3182D01*
G01*
X514918Y470618D02*
G03*
X513600Y467436I3182J-3182D01*
G01*
X547318Y477882D02*
G03*
X546000Y474700I3182J-3182D01*
G01*
X492293Y643017D02*
G03*
X503697Y635140I5142J-4750D01*
G01*
X509700Y556600D02*
G03*
X506518Y555282I0J-4500D01*
G01*
X509700Y556600D02*
G03*
X506518Y555282I0J-4500D01*
G01*
X492293Y652517D02*
G03*
X492293Y643017I5142J-4750D01*
G01*
X504435Y657267D02*
G03*
X492293Y652517I-7000J0D01*
G01*
X504435Y647767D02*
G03*
X502576Y652517I-7000J0D01*
G01*
D02*
G03*
X504435Y657267I-5142J4750D01*
G01*
X533029Y698265D02*
G03*
X540100Y691194I71J-7000D01*
G01*
X395409Y771707D02*
G03*
X401800Y764734I-609J-6973D01*
G01*
X417000Y746734D02*
G03*
X417000Y746734I-7000J0D01*
G01*
Y807234D02*
G03*
X417000Y807234I-7000J0D01*
G01*
X400162Y829734D02*
G03*
X400162Y820734I-5362J-4500D01*
G01*
X415300Y925300D02*
G03*
X415300Y925300I-7000J0D01*
G01*
X413662Y966966D02*
G03*
X413662Y957966I-5362J-4500D01*
G01*
X445255Y820734D02*
G03*
X443284Y819582I1211J-4334D01*
G01*
X445255Y820734D02*
G03*
X443284Y819582I1211J-4334D01*
G01*
X494823Y811900D02*
G03*
X492584Y810682I943J-4400D01*
G01*
X494823Y811900D02*
G03*
X492584Y810682I943J-4400D01*
G01*
X525805Y765800D02*
G03*
X532733Y772800I-71J7000D01*
G01*
X559734Y759900D02*
G03*
X559734Y759900I-7000J0D01*
G01*
X532733Y772800D02*
G03*
X524575Y779703I-7000J0D01*
G01*
X530070Y785199D02*
G03*
X531534Y788734I-3535J3535D01*
G01*
D02*
G03*
X531034Y790913I-5000J0D01*
G01*
X521438Y803000D02*
G03*
X522034Y792839I5096J-4799D01*
G01*
X522621Y1100700D02*
G03*
X522621Y1100700I-11500J0D01*
G01*
X548021Y1100700D02*
G03*
X548021Y1100700I-11500J0D01*
G01*
X579100Y90300D02*
G03*
X579100Y90300I-11500J0D01*
G01*
X612466Y263512D02*
G03*
X623966Y258151I4500J-5362D01*
G01*
X600634Y270851D02*
G03*
X600634Y270851I-7000J0D01*
G01*
X553682Y373918D02*
G03*
X555000Y377100I-3182J3182D01*
G01*
X553682Y373918D02*
G03*
X555000Y377100I-3182J3182D01*
G01*
X564600Y321200D02*
G03*
X565918Y318018I4500J0D01*
G01*
X564600Y321200D02*
G03*
X565918Y318018I4500J0D01*
G01*
X573600Y414301D02*
G03*
X585600Y419200I5000J4899D01*
G01*
X565918Y433618D02*
G03*
X564600Y430436I3182J-3182D01*
G01*
X579209Y426173D02*
G03*
X573600Y424099I-609J-6973D01*
G01*
X622300Y323300D02*
G03*
X622300Y323300I-7000J0D01*
G01*
X623030Y389770D02*
G03*
X616639Y382796I-7000J0D01*
G01*
X602887Y420379D02*
G03*
X615030Y415630I5143J-4749D01*
G01*
X618078Y419314D02*
G03*
X624639Y408657I5952J-3684D01*
G01*
X623966Y258151D02*
G03*
X621466Y263512I-7000J0D01*
G01*
X635782Y248018D02*
G03*
X637100Y251200I-3182J3182D01*
G01*
X635782Y248018D02*
G03*
X637100Y251200I-3182J3182D01*
G01*
X621466Y273334D02*
G03*
X620148Y276516I-4500J0D01*
G01*
X621466Y273334D02*
G03*
X620148Y276516I-4500J0D01*
G01*
X652266Y251030D02*
G03*
X653300Y253900I-3466J2870D01*
G01*
X652266Y251030D02*
G03*
X653300Y253900I-3466J2870D01*
G01*
X673416Y310550D02*
G03*
X670916Y315912I-7000J0D01*
G01*
X661916D02*
G03*
X673416Y310550I4500J-5362D01*
G01*
X637100Y373200D02*
G03*
X635782Y376382I-4500J0D01*
G01*
X637100Y373200D02*
G03*
X635782Y376382I-4500J0D01*
G01*
X631030Y415630D02*
G03*
X625811Y422400I-7000J0D01*
G01*
X638427Y431400D02*
G03*
X640282Y432518I-1327J4300D01*
G01*
X638427Y431400D02*
G03*
X640282Y432518I-1327J4300D01*
G01*
X653300Y390860D02*
G03*
X651982Y394042I-4500J0D01*
G01*
X647000Y422400D02*
G03*
X650182Y423718I0J4500D01*
G01*
X647000Y422400D02*
G03*
X650182Y423718I0J4500D01*
G01*
X663234Y387202D02*
G03*
X661916Y384020I3182J-3182D01*
G01*
X663234Y387202D02*
G03*
X661916Y384020I3182J-3182D01*
G01*
X671421Y382661D02*
G03*
X679030Y389634I609J6973D01*
G01*
X653300Y390860D02*
G03*
X651982Y394042I-4500J0D01*
G01*
X679030Y389634D02*
G03*
X665057Y389025I-7000J0D01*
G01*
X565918Y433618D02*
G03*
X564600Y430436I3182J-3182D01*
G01*
X571727Y441866D02*
G03*
X566891Y434590I2137J-6666D01*
G01*
X571727Y444534D02*
G03*
X571727Y441866I6872J-1335D01*
G01*
X571600Y457824D02*
G03*
X571727Y444534I2263J-6624D01*
G01*
X571601Y460576D02*
G03*
X571601Y457824I6863J-1376D01*
G01*
X547318Y477882D02*
G03*
X546000Y474700I3182J-3182D01*
G01*
X567000Y495700D02*
G03*
X563818Y494382I0J-4500D01*
G01*
X567000Y495700D02*
G03*
X563818Y494382I0J-4500D01*
G01*
X573600Y428205D02*
G03*
X580864Y435200I264J6995D01*
G01*
X580736Y436533D02*
G03*
X585599Y443199I-2137J6666D01*
G01*
X580728Y452576D02*
G03*
X585464Y459200I-2263J6624D01*
G01*
X585599Y443199D02*
G03*
X580736Y449865I-7000J0D01*
G01*
X605070Y434173D02*
G03*
X602887Y420379I-609J-6973D01*
G01*
X603400Y448500D02*
G03*
X600218Y447182I0J-4500D01*
G01*
X603400Y448500D02*
G03*
X600218Y447182I0J-4500D01*
G01*
X580864Y467200D02*
G03*
X571601Y460576I-7000J0D01*
G01*
X585464Y459200D02*
G03*
X580727Y465824I-7000J0D01*
G01*
X572402Y486700D02*
G03*
X585464Y483200I6062J-3500D01*
G01*
D02*
G03*
X584526Y486700I-7000J0D01*
G01*
X557300Y535700D02*
G03*
X554118Y534382I0J-4500D01*
G01*
X557300Y535700D02*
G03*
X554118Y534382I0J-4500D01*
G01*
X567802Y526700D02*
G03*
X566891Y522590I6062J-3500D01*
G01*
X573254Y565584D02*
G03*
X576436Y564266I3182J3182D01*
G01*
X573254Y565584D02*
G03*
X576436Y564266I3182J3182D01*
G01*
X585464Y515200D02*
G03*
X580727Y521824I-7000J0D01*
G01*
X585464Y499200D02*
G03*
X572402Y495700I-7000J0D01*
G01*
X571502Y514474D02*
G03*
X585464Y515200I6962J726D01*
G01*
Y531200D02*
G03*
X573102Y535700I-7000J0D01*
G01*
X580727Y524576D02*
G03*
X585464Y531200I-2263J6624D01*
G01*
X584526Y495700D02*
G03*
X585464Y499200I-6062J3500D01*
G01*
X637138Y486700D02*
G03*
X649500Y491200I5362J4500D01*
G01*
X603097Y547600D02*
G03*
X615030Y542634I4933J-4966D01*
G01*
D02*
G03*
X612963Y547600I-7000J0D01*
G01*
X649500Y491200D02*
G03*
X637138Y495700I-7000J0D01*
G01*
X649746Y555282D02*
G03*
X646564Y556600I-3182J-3182D01*
G01*
X649057Y543243D02*
G03*
X663030Y542634I6973J-609D01*
G01*
X649746Y555282D02*
G03*
X646564Y556600I-3182J-3182D01*
G01*
X663030Y542634D02*
G03*
X655421Y549607I-7000J0D01*
G01*
X658668Y564266D02*
G03*
X671030Y568766I5362J4500D01*
G01*
D02*
G03*
X658668Y573266I-7000J0D01*
G01*
X741282Y327318D02*
G03*
X742600Y330500I-3182J3182D01*
G01*
X741282Y327318D02*
G03*
X742600Y330500I-3182J3182D01*
G01*
X713406Y382771D02*
G03*
X726654Y382771I6624J2263D01*
G01*
D02*
G03*
X733600Y385394I1376J6863D01*
G01*
X721406Y391897D02*
G03*
X718654Y391897I-1376J-6863D01*
G01*
D02*
G03*
X713406Y382771I-6624J-2263D01*
G01*
X733600Y393874D02*
G03*
X721406Y391897I-5570J-4240D01*
G01*
X738464Y427200D02*
G03*
X732073Y420227I-7000J0D01*
G01*
X742600Y420564D02*
G03*
X741282Y423746I-4500J0D01*
G01*
X760778Y332114D02*
G03*
X762096Y335296I-3182J3182D01*
G01*
X760778Y332114D02*
G03*
X762096Y335296I-3182J3182D01*
G01*
X742600Y420564D02*
G03*
X741282Y423746I-4500J0D01*
G01*
X764596Y419200D02*
G03*
X753096Y413838I-7000J0D01*
G01*
X762096D02*
G03*
X764596Y419200I-4500J5362D01*
G01*
X818720Y45386D02*
G03*
X818720Y39082I-6250J-3152D01*
G01*
D02*
G03*
X831970Y42234I6250J3152D01*
G01*
D02*
G03*
X818720Y45386I-7000J0D01*
G01*
X1065434Y109906D02*
G03*
X1063970Y106370I3535J-3535D01*
G01*
X1065434Y109906D02*
G03*
X1063970Y106370I3535J-3535D01*
G01*
Y55599D02*
G03*
X1075970Y50700I5000J-4899D01*
G01*
D02*
G03*
X1073970Y55599I-7000J0D01*
G01*
X1091471Y121800D02*
G03*
X1098400Y128800I-71J7000D01*
G01*
D02*
G03*
X1084400Y128871I-7000J0D01*
G01*
X1023336Y362700D02*
G03*
X1023336Y362700I-7000J0D01*
G01*
X1083079Y307990D02*
G03*
X1083079Y307990I-16000J0D01*
G01*
X1084079Y358790D02*
G03*
X1084079Y358790I-17000J0D01*
G01*
X1083079Y409590D02*
G03*
X1083079Y409590I-16000J0D01*
G01*
X724553Y498089D02*
G03*
X738464Y499200I6911J1111D01*
G01*
D02*
G03*
X732575Y506111I-7000J0D01*
G01*
X711030Y542634D02*
G03*
X711030Y542634I-7000J0D01*
G01*
X785633Y559169D02*
G03*
X786951Y562351I-3182J3182D01*
G01*
X785633Y559169D02*
G03*
X786951Y562351I-3182J3182D01*
G01*
X775182Y567418D02*
G03*
X776500Y570600I-3182J3182D01*
G01*
X775182Y567418D02*
G03*
X776500Y570600I-3182J3182D01*
G01*
X764282Y573318D02*
G03*
X765600Y576500I-3182J3182D01*
G01*
X764282Y573318D02*
G03*
X765600Y576500I-3182J3182D01*
G01*
X914804Y563200D02*
G03*
X914804Y563200I-7000J0D01*
G01*
X828000Y578212D02*
G03*
X839500Y572850I4500J-5362D01*
G01*
D02*
G03*
X837000Y578212I-7000J0D01*
G01*
X852362Y583100D02*
G03*
X852362Y574100I-5362J-4500D01*
G01*
X1083079Y460390D02*
G03*
X1083079Y460390I-16000J0D01*
G01*
X1034684Y574100D02*
G03*
X1037866Y575418I0J4500D01*
G01*
X1034684Y574100D02*
G03*
X1037866Y575418I0J4500D01*
G01*
X1053525Y591077D02*
G03*
X1061134Y598050I609J6973D01*
G01*
D02*
G03*
X1057080Y604400I-7000J0D01*
G01*
X1043101Y598050D02*
G03*
X1043101Y598050I-7000J0D01*
G01*
X1051188Y604400D02*
G03*
X1047161Y597441I2946J-6350D01*
G01*
X1049235Y605750D02*
G03*
X1051188Y604400I4899J5000D01*
G01*
X1057080D02*
G03*
X1061134Y610750I-2946J6350D01*
G01*
X1041314Y607215D02*
G03*
X1044850Y605750I3535J3535D01*
G01*
X1041314Y607215D02*
G03*
X1044850Y605750I3535J3535D01*
G01*
X1061134Y610750D02*
G03*
X1049235Y615750I-7000J0D01*
G01*
X571999Y634767D02*
G03*
X571999Y634767I-7000J0D01*
G01*
X574434Y671999D02*
G03*
X574434Y671999I-7000J0D01*
G01*
X576534Y727628D02*
G03*
X584866Y734500I1332J6872D01*
G01*
D02*
G03*
X571115Y736351I-7000J0D01*
G01*
X637734Y746600D02*
G03*
X636269Y750136I-5000J0D01*
G01*
X599734Y772529D02*
G03*
X606663Y765600I7000J71D01*
G01*
X613734Y772671D02*
G03*
X606805Y779600I-7000J-71D01*
G01*
X627554Y744709D02*
G03*
X639734Y740000I5180J-4709D01*
G01*
D02*
G03*
X637734Y744899I-7000J0D01*
G01*
Y746600D02*
G03*
X636269Y750136I-5000J0D01*
G01*
X584669Y801736D02*
G03*
X582536Y803000I-3535J-3535D01*
G01*
X584669Y801736D02*
G03*
X582536Y803000I-3535J-3535D01*
G01*
X653916Y810682D02*
G03*
X651677Y811900I-3182J-3182D01*
G01*
X653916Y810682D02*
G03*
X651677Y811900I-3182J-3182D01*
G01*
X688038Y957966D02*
G03*
X700400Y962466I5362J4500D01*
G01*
D02*
G03*
X688038Y966966I-7000J0D01*
G01*
X695316Y819582D02*
G03*
X693345Y820734I-3182J-3182D01*
G01*
X695316Y819582D02*
G03*
X693345Y820734I-3182J-3182D01*
G01*
X744727Y707143D02*
G03*
X756600Y701535I6973J-609D01*
G01*
Y711533D02*
G03*
X751090Y713507I-4900J-4999D01*
G01*
X736827Y765343D02*
G03*
X750800Y764734I6973J-609D01*
G01*
D02*
G03*
X743191Y771707I-7000J0D01*
G01*
X837000Y686088D02*
G03*
X839500Y691450I-4500J5362D01*
G01*
D02*
G03*
X828000Y686088I-7000J0D01*
G01*
X815900Y735900D02*
G03*
X813400Y741262I-7000J0D01*
G01*
X804400D02*
G03*
X815900Y735900I4500J-5362D01*
G01*
X730238Y820734D02*
G03*
X742600Y825234I5362J4500D01*
G01*
D02*
G03*
X730238Y829734I-7000J0D01*
G01*
X805718Y824682D02*
G03*
X804400Y821500I3182J-3182D01*
G01*
X805718Y824682D02*
G03*
X804400Y821500I3182J-3182D01*
G01*
X849591Y855827D02*
G03*
X857200Y862800I609J6973D01*
G01*
D02*
G03*
X843227Y862191I-7000J0D01*
G01*
X842700Y885200D02*
G03*
X840200Y890562I-7000J0D01*
G01*
X831200D02*
G03*
X842700Y885200I4500J-5362D01*
G01*
X846150Y921162D02*
G03*
X857650Y915800I4500J-5362D01*
G01*
D02*
G03*
X855150Y921162I-7000J0D01*
G01*
X586391Y1089238D02*
G03*
X580783Y1079800I931J-6938D01*
G01*
X658100Y1082300D02*
G03*
X645738Y1086800I-7000J0D01*
G01*
X666900Y1075300D02*
G03*
X658096Y1082064I-7000J0D01*
G01*
X679638Y1046400D02*
G03*
X692000Y1050900I5362J4500D01*
G01*
D02*
G03*
X683702Y1057779I-7000J0D01*
G01*
Y1057779D02*
G03*
X684000Y1059800I-6702J2021D01*
G01*
D02*
G03*
X674774Y1066437I-7000J0D01*
G01*
X675000Y1068200D02*
G03*
X666898Y1075113I-7000J0D01*
G01*
X706700Y1069100D02*
G03*
X708018Y1065918I4500J0D01*
G01*
X706700Y1069100D02*
G03*
X708018Y1065918I4500J0D01*
G01*
X592683Y1086800D02*
G03*
X588252Y1089238I-5362J-4500D01*
G01*
D02*
G03*
X598821Y1100700I-931J11462D01*
G01*
X573421D02*
G03*
X573421Y1100700I-11500J0D01*
G01*
X598821D02*
G03*
X586391Y1089238I-11500J0D01*
G01*
X744151Y1100700D02*
G03*
X744151Y1100700I-12500J0D01*
G01*
X708018Y1113082D02*
G03*
X706700Y1109900I3182J-3182D01*
G01*
X708018Y1113082D02*
G03*
X706700Y1109900I3182J-3182D01*
G01*
X765600Y1019200D02*
G03*
X764282Y1022382I-4500J0D01*
G01*
X765600Y1019200D02*
G03*
X764282Y1022382I-4500J0D01*
G01*
X768551Y1100700D02*
G03*
X761353Y1090035I-11500J0D01*
G01*
X832518Y979982D02*
G03*
X831200Y976800I3182J-3182D01*
G01*
X832518Y979982D02*
G03*
X831200Y976800I3182J-3182D01*
G01*
X776500Y1085751D02*
G03*
X775182Y1088933I-4500J0D01*
G01*
X847468Y980832D02*
G03*
X846150Y977650I3182J-3182D01*
G01*
X847468Y980832D02*
G03*
X846150Y977650I3182J-3182D01*
G01*
X776500Y1085751D02*
G03*
X775182Y1088933I-4500J0D01*
G01*
X786951Y1090117D02*
G03*
X793951Y1100700I-4500J10583D01*
G01*
D02*
G03*
X777951Y1090117I-11500J0D01*
G01*
X797186Y1105001D02*
G03*
X819351Y1100700I10665J-4301D01*
G01*
X767717Y1096399D02*
G03*
X768551Y1100700I-10665J4301D01*
G01*
X724000Y1127200D02*
G03*
X720818Y1125882I0J-4500D01*
G01*
X724000Y1127200D02*
G03*
X720818Y1125882I0J-4500D01*
G01*
X819351Y1100700D02*
G03*
X803550Y1111365I-11500J0D01*
G01*
X789033Y1125882D02*
G03*
X785851Y1127200I-3182J-3182D01*
G01*
X789033Y1125882D02*
G03*
X785851Y1127200I-3182J-3182D01*
G01*
X870800Y726363D02*
G03*
X875779Y714516I5050J-4847D01*
G01*
X882850Y721587D02*
G03*
X880800Y726466I-7000J-71D01*
G01*
X872264Y734335D02*
G03*
X870800Y730800I3535J-3535D01*
G01*
X872264Y734335D02*
G03*
X870800Y730800I3535J-3535D01*
G01*
X870150Y739549D02*
G03*
X870150Y739549I-7000J0D01*
G01*
X883550Y757083D02*
G03*
X883500Y747337I5000J-4899D01*
G01*
X892036Y739965D02*
G03*
X893500Y743500I-3535J3535D01*
G01*
X892036Y739965D02*
G03*
X893500Y743500I-3535J3535D01*
G01*
Y747234D02*
G03*
X895550Y752184I-4950J4950D01*
G01*
D02*
G03*
X893550Y757083I-7000J0D01*
G01*
X870850Y810065D02*
G03*
X875779Y798166I5000J-4899D01*
G01*
X882850Y805237D02*
G03*
X880850Y810065I-7000J-71D01*
G01*
X872314Y818686D02*
G03*
X870850Y815150I3535J-3535D01*
G01*
X872314Y818686D02*
G03*
X870850Y815150I3535J-3535D01*
G01*
X870150Y823199D02*
G03*
X870150Y823199I-7000J0D01*
G01*
X881550Y835763D02*
G03*
X883550Y830935I7000J71D01*
G01*
X870850Y848534D02*
G03*
X872315Y844998I5000J0D01*
G01*
X870850Y848534D02*
G03*
X872315Y844998I5000J0D01*
G01*
X893550Y792466D02*
G03*
X892086Y796002I-5000J0D01*
G01*
X893550Y792466D02*
G03*
X892086Y796002I-5000J0D01*
G01*
X892085Y824314D02*
G03*
X893550Y827850I-3535J3535D01*
G01*
X892085Y824314D02*
G03*
X893550Y827850I-3535J3535D01*
G01*
Y830935D02*
G03*
X895550Y835834I-5000J4899D01*
G01*
D02*
G03*
X888621Y842834I-7000J0D01*
G01*
X970380Y619915D02*
G03*
X973916Y618450I3535J3535D01*
G01*
X970380Y619915D02*
G03*
X973916Y618450I3535J3535D01*
G01*
X1018567D02*
G03*
X1028365Y618450I4899J5000D01*
G01*
X1035686Y626986D02*
G03*
X1032150Y628450I-3535J-3535D01*
G01*
X1035686Y626986D02*
G03*
X1032150Y628450I-3535J-3535D01*
G01*
X1028365D02*
G03*
X1018567Y628450I-4899J-5000D01*
G01*
X979470Y704300D02*
G03*
X979470Y704300I-13500J0D01*
G01*
X979470Y742400D02*
G03*
X979470Y742400I-13500J0D01*
G01*
X979470Y780500D02*
G03*
X979470Y780500I-13500J0D01*
G01*
X979470Y818600D02*
G03*
X979470Y818600I-13500J0D01*
G01*
X979470Y856700D02*
G03*
X979470Y856700I-13500J0D01*
G01*
X1100000Y753925D02*
G03*
X1100000Y730875I-7030J-11525D01*
G01*
Y792025D02*
G03*
X1100000Y768975I-7030J-11525D01*
G01*
Y868225D02*
G03*
X1100000Y845175I-7030J-11525D01*
G01*
Y830125D02*
G03*
X1100000Y807075I-7030J-11525D01*
G01*
X870850Y960865D02*
G03*
X870850Y951067I5000J-4899D01*
G01*
X857512Y978148D02*
G03*
X870150Y973999I5638J-4149D01*
G01*
D02*
G03*
X859001Y979637I-7000J0D01*
G01*
X872314Y968785D02*
G03*
X870850Y965250I3535J-3535D01*
G01*
X872314Y968785D02*
G03*
X870850Y965250I3535J-3535D01*
G01*
X948579Y898212D02*
G03*
X948579Y898212I-31000J0D01*
G01*
X880850Y951067D02*
G03*
X882850Y955966I-5000J4899D01*
G01*
D02*
G03*
X880850Y960865I-7000J0D01*
G01*
X892085Y974414D02*
G03*
X893550Y977950I-3535J3535D01*
G01*
X892085Y974414D02*
G03*
X893550Y977950I-3535J3535D01*
G01*
X859634Y991134D02*
G03*
X856452Y989816I0J-4500D01*
G01*
X859634Y991134D02*
G03*
X856452Y989816I0J-4500D01*
G01*
X870488Y982134D02*
G03*
X882200Y983688I5362J4500D01*
G01*
Y989580D02*
G03*
X870488Y991134I-6350J-2946D01*
G01*
X882200Y983688D02*
G03*
X883550Y981735I6350J2946D01*
G01*
X893550D02*
G03*
X895550Y986563I-5000J4899D01*
G01*
X888479Y993634D02*
G03*
X882200Y989580I71J-7000D01*
G01*
X902419Y1048019D02*
G03*
X899237Y1046701I0J-4500D01*
G01*
X902419Y1048019D02*
G03*
X899237Y1046701I0J-4500D01*
G01*
X979470Y894800D02*
G03*
X979470Y894800I-13500J0D01*
G01*
X1100000Y906325D02*
G03*
X1100000Y883275I-7030J-11525D01*
G01*
X1009636Y1013119D02*
G03*
X1021535Y1018119I4899J5000D01*
G01*
X932735Y1035819D02*
G03*
X929200Y1034355I0J-5000D01*
G01*
X932735Y1035819D02*
G03*
X929200Y1034355I0J-5000D01*
G01*
X978968Y1025819D02*
G03*
X988766Y1025819I4899J5000D01*
G01*
X988766Y1035819D02*
G03*
X978968Y1035819I-4899J-5000D01*
G01*
X955173Y1039019D02*
G03*
X967535Y1043519I5362J4500D01*
G01*
D02*
G03*
X955173Y1048019I-7000J0D01*
G01*
X996686Y1034355D02*
G03*
X993151Y1035819I-3535J-3535D01*
G01*
X1002315Y1014584D02*
G03*
X1005851Y1013119I3535J3535D01*
G01*
X1002315Y1014584D02*
G03*
X1005851Y1013119I3535J3535D01*
G01*
X1021535Y1018119D02*
G03*
X1009636Y1023119I-7000J0D01*
G01*
X996686Y1034355D02*
G03*
X993151Y1035819I-3535J-3535D01*
G01*
X1008900Y1043519D02*
G03*
X1008900Y1043519I-7000J0D01*
G01*
X219893Y1187657D02*
G03*
X224136Y1185900I4243J4243D01*
G01*
X219893Y1187657D02*
G03*
X224136Y1185900I4243J4243D01*
G01*
X302091Y1210200D02*
G03*
X302091Y1210200I-11500J0D01*
G01*
X327491Y1210200D02*
G03*
X327491Y1210200I-11500J0D01*
G01*
X352891Y1210200D02*
G03*
X352891Y1210200I-11500J0D01*
G01*
X146770Y1280766D02*
G03*
X137964Y1269586I-11500J0D01*
G01*
X299170Y1280766D02*
G03*
X299170Y1280766I-11500J0D01*
G01*
X378291Y1210200D02*
G03*
X378291Y1210200I-11500J0D01*
G01*
X430536Y1185900D02*
G03*
X434778Y1187657I0J6000D01*
G01*
X430536Y1185900D02*
G03*
X434778Y1187657I0J6000D01*
G01*
X450541Y1203420D02*
G03*
X455592Y1208507I-1741J6780D01*
G01*
X522621Y1210200D02*
G03*
X522621Y1210200I-11500J0D01*
G01*
X389770Y1280766D02*
G03*
X380964Y1269586I-11500J0D01*
G01*
X468100Y1235500D02*
G03*
X463857Y1233743I0J-6000D01*
G01*
X468100Y1235500D02*
G03*
X463857Y1233743I0J-6000D01*
G01*
X146450Y1278071D02*
G03*
X146770Y1280766I-11180J2695D01*
G01*
X222970Y1356966D02*
G03*
X222970Y1356966I-11500J0D01*
G01*
X194865Y1382135D02*
G03*
X193400Y1378600I3535J-3535D01*
G01*
X194865Y1382135D02*
G03*
X193400Y1378600I3535J-3535D01*
G01*
Y1377099D02*
G03*
X205400Y1372200I5000J-4899D01*
G01*
X204500Y1389700D02*
G03*
X200964Y1388235I0J-5000D01*
G01*
X205400Y1372200D02*
G03*
X203674Y1376803I-7000J0D01*
G01*
X389450Y1278071D02*
G03*
X389770Y1280766I-11180J2695D01*
G01*
X204500Y1389700D02*
G03*
X200964Y1388235I0J-5000D01*
G01*
X243500Y1396400D02*
G03*
X234473Y1389700I-7000J0D01*
G01*
X238527D02*
G03*
X243500Y1396400I-2027J6700D01*
G01*
X244400Y1379700D02*
G03*
X247936Y1381165I0J5000D01*
G01*
X244400Y1379700D02*
G03*
X247936Y1381165I0J5000D01*
G01*
X270371Y1403600D02*
G03*
X277300Y1410600I-71J7000D01*
G01*
D02*
G03*
X263300Y1410671I-7000J0D01*
G01*
X249999Y1452166D02*
G03*
X249999Y1442166I-4899J-5000D01*
G01*
X437864Y1382135D02*
G03*
X436400Y1378600I3535J-3535D01*
G01*
X437864Y1382135D02*
G03*
X436400Y1378600I3535J-3535D01*
G01*
X465970Y1356966D02*
G03*
X465970Y1356966I-11500J0D01*
G01*
X436400Y1377099D02*
G03*
X448400Y1372200I5000J-4899D01*
G01*
D02*
G03*
X446674Y1376803I-7000J0D01*
G01*
X447500Y1389700D02*
G03*
X443964Y1388235I0J-5000D01*
G01*
X447500Y1389700D02*
G03*
X443964Y1388235I0J-5000D01*
G01*
X486500Y1396400D02*
G03*
X477473Y1389700I-7000J0D01*
G01*
X481527D02*
G03*
X486500Y1396400I-2027J6700D01*
G01*
X487400Y1379700D02*
G03*
X490936Y1381165I0J5000D01*
G01*
X487400Y1379700D02*
G03*
X490936Y1381165I0J5000D01*
G01*
X513371Y1403600D02*
G03*
X520300Y1410600I-71J7000D01*
G01*
D02*
G03*
X506300Y1410671I-7000J0D01*
G01*
X492999Y1452166D02*
G03*
X483201Y1452166I-4899J-5000D01*
G01*
Y1442166D02*
G03*
X492999Y1442166I4899J5000D01*
G01*
X598821Y1210200D02*
G03*
X598821Y1210200I-11500J0D01*
G01*
X548021Y1210200D02*
G03*
X548021Y1210200I-11500J0D01*
G01*
X573421D02*
G03*
X573421Y1210200I-11500J0D01*
G01*
X569204Y1223500D02*
G03*
X573447Y1225257I0J6000D01*
G01*
X569204Y1223500D02*
G03*
X573447Y1225257I0J6000D01*
G01*
X542170Y1280766D02*
G03*
X542170Y1280766I-11500J0D01*
G01*
X617775Y1269586D02*
G03*
X631970Y1280766I2695J11180D01*
G01*
X744151Y1210200D02*
G03*
X744151Y1210200I-12500J0D01*
G01*
X793951Y1210200D02*
G03*
X793951Y1210200I-11500J0D01*
G01*
X768551Y1210200D02*
G03*
X768551Y1210200I-11500J0D01*
G01*
X819351Y1210200D02*
G03*
X819351Y1210200I-11500J0D01*
G01*
X784370Y1280766D02*
G03*
X784370Y1280766I-11500J0D01*
G01*
X631970Y1280766D02*
G03*
X609290Y1278071I-11500J0D01*
G01*
X680064Y1382135D02*
G03*
X678600Y1378600I3535J-3535D01*
G01*
X680064Y1382135D02*
G03*
X678600Y1378600I3535J-3535D01*
G01*
X569801Y1442166D02*
G03*
X579599Y1442166I4899J5000D01*
G01*
X678600Y1377099D02*
G03*
X690600Y1372200I5000J-4899D01*
G01*
X708170Y1356966D02*
G03*
X708170Y1356966I-11500J0D01*
G01*
X689700Y1389700D02*
G03*
X686164Y1388235I0J-5000D01*
G01*
X690600Y1372200D02*
G03*
X688874Y1376803I-7000J0D01*
G01*
X689700Y1389700D02*
G03*
X686164Y1388235I0J-5000D01*
G01*
X729600Y1379700D02*
G03*
X733136Y1381165I0J5000D01*
G01*
X729600Y1379700D02*
G03*
X733136Y1381165I0J5000D01*
G01*
X723727Y1389700D02*
G03*
X728700Y1396400I-2027J6700D01*
G01*
D02*
G03*
X719673Y1389700I-7000J0D01*
G01*
X755571Y1403600D02*
G03*
X762500Y1410600I-71J7000D01*
G01*
D02*
G03*
X748500Y1410671I-7000J0D01*
G01*
X579599Y1452166D02*
G03*
X569801Y1452166I-4899J-5000D01*
G01*
X725401Y1442166D02*
G03*
X737300Y1447166I4899J5000D01*
G01*
D02*
G03*
X725401Y1452166I-7000J0D01*
G01*
X925436Y1345500D02*
G03*
X911482Y1344700I-7000J0D01*
G01*
X940300Y1369362D02*
G03*
X940300Y1359564I5000J-4899D01*
G01*
X950300D02*
G03*
X952300Y1364463I-5000J4899D01*
G01*
D02*
G03*
X950300Y1369362I-7000J0D01*
G01*
X980216Y1345500D02*
G03*
X966262Y1344700I-7000J0D01*
G01*
X911482Y1383700D02*
G03*
X925436Y1382900I6954J-800D01*
G01*
X966262Y1383700D02*
G03*
X980216Y1382900I6954J-800D01*
G01*
X875850Y805166D02*
X888550Y792466D01*
X875850Y815150D02*
X875850Y805166D01*
X875850Y815150D02*
X888550Y827850D01*
Y835834D01*
X875850Y848534D02*
X888550Y835834D01*
X1068970Y106370D02*
X1091400Y128800D01*
X1068970Y50700D02*
Y106370D01*
Y50200D02*
Y50700D01*
X875850Y848534D02*
Y955966D01*
X729600Y1384700D02*
X755500Y1410600D01*
X683600Y1378600D02*
X689700Y1384700D01*
X729600D01*
X945300Y1337226D02*
X945826Y1336700D01*
X936470D02*
X945826D01*
X955182D01*
X936470Y1391700D02*
X945300D01*
X955182D01*
X945300Y1364463D02*
Y1391700D01*
Y1337226D02*
Y1364463D01*
X973216Y1336700D02*
Y1345500D01*
Y1382900D02*
Y1391700D01*
X918436Y1382900D02*
Y1391700D01*
X245100Y1447166D02*
X488100D01*
X574700D01*
X730300D01*
X683600Y1371000D02*
Y1372200D01*
Y1378600D01*
X448818Y1210218D02*
X448818D01*
Y1210218D02*
Y1210218D01*
X441400Y1372200D02*
Y1378600D01*
X447500Y1384700D02*
X487400D01*
X441400Y1378600D02*
X447500Y1384700D01*
X487400D02*
X513300Y1410600D01*
X198400Y1372200D02*
Y1378600D01*
X204500Y1384700D02*
X244400D01*
X198400Y1378600D02*
X204500Y1384700D01*
X244400D02*
X270300Y1410600D01*
X918436Y1336700D02*
Y1345500D01*
X1044850Y610750D02*
X1054134Y610750D01*
X1032150Y623450D02*
X1044850Y610750D01*
X1023466Y623450D02*
X1032150D01*
X875800Y730800D02*
X888500Y743500D01*
X875850Y965250D02*
X888550Y977950D01*
X875850Y965250D02*
X875850Y955966D01*
X1005851Y1018119D02*
X1014535D01*
X993151Y1030819D02*
X1005851Y1018119D01*
X983867Y1030819D02*
X993151Y1030819D01*
X533100Y691265D02*
X576335Y734500D01*
X577866D01*
X632734Y740000D02*
Y746600D01*
X581133Y798201D02*
X606734Y772600D01*
X526534Y798201D02*
X581133D01*
X932735Y1030819D02*
X983867D01*
X888550Y986634D02*
X932735Y1030819D01*
X888550Y977950D02*
Y986634D01*
Y986634D01*
X888550Y752184D02*
Y792466D01*
X875850Y721516D02*
X973916Y623450D01*
X1023466D01*
X606734Y772600D02*
X632734Y746600D01*
X26970Y742400D02*
X119170Y650200D01*
X232800D01*
X26970Y780500D02*
X152270Y655200D01*
X223500D01*
X232800Y650200D02*
X255480Y672880D01*
X425813D01*
X525733Y772800D01*
X223500Y655200D02*
X246630Y678330D01*
X416130D01*
X526534Y788734D01*
X66469Y20000D02*
Y74167D01*
X60469Y20000D02*
Y80614D01*
X20000Y59699D02*
X81001D01*
X61418Y79218D02*
X80518Y60118D01*
X20000Y77699D02*
X62937D01*
X20000Y65699D02*
X74937D01*
X20000Y71699D02*
X68937D01*
X78469Y20000D02*
Y62167D01*
X72469Y20000D02*
Y68167D01*
X84469Y20000D02*
Y58800D01*
Y68895D02*
Y79667D01*
X75665Y77699D02*
X86847D01*
X20000Y20000D02*
Y91793D01*
X24469Y20000D02*
Y94537D01*
X69100Y84264D02*
X85564Y67800D01*
X20000Y83699D02*
X60100D01*
X69100Y89699D02*
X74437D01*
X20000D02*
X60100D01*
X78469Y74895D02*
Y85667D01*
X72469Y80895D02*
Y91674D01*
X69665Y83699D02*
X80437D01*
X72618Y91518D02*
X85518Y78618D01*
X69100Y95699D02*
X71300D01*
X84469Y92395D02*
Y94923D01*
X96469Y20000D02*
Y58800D01*
X90469Y20000D02*
Y58800D01*
X108469Y20000D02*
Y58800D01*
X102469Y20000D02*
Y58800D01*
X96469Y67800D02*
Y77300D01*
X90469Y67800D02*
Y77300D01*
X108469Y67800D02*
Y77300D01*
X102469Y67800D02*
Y77300D01*
X120469Y20000D02*
Y58800D01*
X114469Y20000D02*
Y58800D01*
X138469Y20000D02*
Y58800D01*
X126469Y20000D02*
Y58800D01*
X120469Y67800D02*
Y77300D01*
X114469Y67800D02*
Y77300D01*
X144469Y20000D02*
Y58800D01*
X132469Y20000D02*
Y58800D01*
X80300Y96564D02*
X90564Y86300D01*
X96469D02*
Y92967D01*
X108469Y86300D02*
Y99080D01*
X90469Y86395D02*
Y92188D01*
X102469Y86300D02*
Y98735D01*
X114469Y86300D02*
Y99080D01*
X126469Y67800D02*
Y77300D01*
X120469Y86300D02*
Y99080D01*
X138469Y67800D02*
Y77300D01*
X132469Y67800D02*
Y77300D01*
Y86300D02*
Y99080D01*
X126469Y86300D02*
Y99080D01*
X144469Y86300D02*
Y99080D01*
X138469Y86300D02*
Y99080D01*
X24469Y112623D02*
Y119937D01*
X25543Y95699D02*
X60100D01*
X23178Y113699D02*
X60100D01*
X24214Y119699D02*
X60100D01*
X28198Y101699D02*
X60100D01*
X27642Y107699D02*
X60100D01*
X69100Y101699D02*
X71300D01*
X69100Y107699D02*
X71300D01*
X69100Y125699D02*
X71300D01*
X27902D02*
X60100D01*
X69100Y113699D02*
X71300D01*
X69100Y119699D02*
X71300D01*
X24469Y138023D02*
Y145337D01*
X24797Y137699D02*
X60100D01*
X22334Y143699D02*
X60100D01*
X27431Y149699D02*
X60100D01*
X25973Y161699D02*
X60100D01*
X69100Y131699D02*
X71300D01*
X28041D02*
X60100D01*
X69100Y137699D02*
X71300D01*
X69100Y143699D02*
X71300D01*
X69100Y149699D02*
X71300D01*
X28270Y155699D02*
X60100D01*
X69100D02*
X71300D01*
X69100Y161699D02*
X71300D01*
X81165Y95699D02*
X83665D01*
X84469Y112237D02*
Y120323D01*
X80300Y113699D02*
X86576D01*
X90469Y114972D02*
Y117588D01*
X80300Y119699D02*
X85249D01*
X80300Y137699D02*
X84542D01*
X90469Y140372D02*
Y142988D01*
X126469Y108080D02*
Y124480D01*
X120469Y108080D02*
Y124480D01*
X138469Y108080D02*
Y124480D01*
X132469Y108080D02*
Y124480D01*
X96469Y114193D02*
Y118367D01*
X102469Y108426D02*
Y124135D01*
X114469Y108080D02*
Y124480D01*
X108469Y108080D02*
Y124480D01*
X84469Y137637D02*
Y145723D01*
X80300Y96564D02*
Y165636D01*
X96469Y139593D02*
Y143767D01*
X102469Y133826D02*
Y149535D01*
X80300Y143699D02*
X87777D01*
X80300Y161699D02*
X83170D01*
X100910D02*
X290035D01*
X114469Y133480D02*
Y149880D01*
X108469Y133480D02*
Y149880D01*
X126469Y133480D02*
Y149880D01*
X120469Y133480D02*
Y149880D01*
X138469Y133480D02*
Y149880D01*
X132469Y133480D02*
Y149880D01*
X144469Y133480D02*
Y149880D01*
X102623Y158880D02*
X287216D01*
X102623Y149880D02*
X289080D01*
X156469Y20000D02*
Y58800D01*
X150469Y20000D02*
Y58800D01*
X168469Y20000D02*
Y58800D01*
X162469Y20000D02*
Y58800D01*
X150469Y67800D02*
Y77300D01*
X144469Y67800D02*
Y77300D01*
X162469Y67800D02*
Y77300D01*
X156469Y67800D02*
Y77300D01*
X180469Y20000D02*
Y58800D01*
X174469Y20000D02*
Y58800D01*
X192469Y20000D02*
Y58800D01*
X186469Y20000D02*
Y58800D01*
X198469Y20000D02*
Y58800D01*
X174469Y67800D02*
Y77300D01*
X210469Y20000D02*
Y58800D01*
X204469Y20000D02*
Y58800D01*
X168469Y67800D02*
Y77300D01*
X156469Y86300D02*
Y99080D01*
X186469Y67800D02*
Y77300D01*
X180469Y67800D02*
Y77300D01*
X162469Y86300D02*
Y99080D01*
X150469Y86300D02*
Y99080D01*
X180469Y86300D02*
Y99080D01*
X168469Y86300D02*
Y99080D01*
X198469Y67800D02*
Y77300D01*
X192469Y67800D02*
Y77300D01*
X210469Y67800D02*
Y77300D01*
X204469Y67800D02*
Y77300D01*
X198469Y86300D02*
Y99080D01*
X192469Y86300D02*
Y99080D01*
X210469Y86300D02*
Y99080D01*
X204469Y86300D02*
Y99080D01*
X222469Y20000D02*
Y58800D01*
X216469Y20000D02*
Y58800D01*
X240469Y20000D02*
Y58800D01*
X228469Y20000D02*
Y58800D01*
X222469Y67800D02*
Y77300D01*
X216469Y67800D02*
Y77300D01*
X246469Y20000D02*
Y58800D01*
X234469Y20000D02*
Y58800D01*
X282469Y20000D02*
Y58800D01*
X276469Y20000D02*
Y58800D01*
X294469Y20000D02*
Y58800D01*
X288469Y20000D02*
Y58800D01*
X258469Y20000D02*
Y58800D01*
X252469Y20000D02*
Y58800D01*
X270469Y20000D02*
Y58800D01*
X264469Y20000D02*
Y58800D01*
X252469Y67800D02*
Y77300D01*
X246469Y67800D02*
Y77300D01*
X264469Y67800D02*
Y77300D01*
X258469Y67800D02*
Y77300D01*
X228469Y67800D02*
Y77300D01*
X216469Y86300D02*
Y99080D01*
X240469Y67800D02*
Y77300D01*
X234469Y67800D02*
Y77300D01*
X276469Y67800D02*
Y77300D01*
X270469Y67800D02*
Y77300D01*
X294469Y67800D02*
Y77300D01*
X282469Y67800D02*
Y77300D01*
X276469Y86300D02*
Y99080D01*
X270469Y86300D02*
Y99080D01*
X288469Y67800D02*
Y77300D01*
X294469Y86300D02*
Y99080D01*
X150469Y108080D02*
Y124480D01*
X144469Y108080D02*
Y124480D01*
X174469Y86300D02*
Y99080D01*
X156469Y108080D02*
Y124480D01*
X168469Y108080D02*
Y124480D01*
X162469Y108080D02*
Y124480D01*
X180469Y108080D02*
Y124480D01*
X174469Y108080D02*
Y124480D01*
X186469Y86300D02*
Y99080D01*
Y108080D02*
Y124480D01*
X222469Y86300D02*
Y99080D01*
X192469Y108080D02*
Y124480D01*
X210469Y108080D02*
Y124480D01*
X198469Y108080D02*
Y124480D01*
X228469Y108080D02*
Y124480D01*
X216469Y108080D02*
Y124480D01*
X180469Y133480D02*
Y149880D01*
X174469Y133480D02*
Y149880D01*
X192469Y133480D02*
Y149880D01*
X186469Y133480D02*
Y149880D01*
X156469Y133480D02*
Y149880D01*
X150469Y133480D02*
Y149880D01*
X168469Y133480D02*
Y149880D01*
X162469Y133480D02*
Y149880D01*
X204469Y133480D02*
Y149880D01*
X198469Y133480D02*
Y149880D01*
X222469Y108080D02*
Y124480D01*
X204469Y108080D02*
Y124480D01*
X216469Y133480D02*
Y149880D01*
X210469Y133480D02*
Y149880D01*
X228469Y133480D02*
Y149880D01*
X222469Y133480D02*
Y149880D01*
X234469Y86300D02*
Y99080D01*
X228469Y86300D02*
Y99080D01*
X246469Y86300D02*
Y99080D01*
X240469Y86300D02*
Y99080D01*
Y108080D02*
Y124480D01*
X234469Y108080D02*
Y124480D01*
X252469Y108080D02*
Y124480D01*
X246469Y108080D02*
Y124480D01*
X258469Y86300D02*
Y99080D01*
X252469Y86300D02*
Y99080D01*
X282469Y86300D02*
Y99080D01*
X264469Y86300D02*
Y99080D01*
Y108080D02*
Y124480D01*
X258469Y108080D02*
Y124480D01*
X288469Y86300D02*
Y99080D01*
X270469Y108080D02*
Y124480D01*
X264469Y133480D02*
Y149880D01*
X258469Y133480D02*
Y149880D01*
X276469Y108080D02*
Y124480D01*
X270469Y133480D02*
Y149880D01*
X240469Y133480D02*
Y149880D01*
X234469Y133480D02*
Y149880D01*
X252469Y133480D02*
Y149880D01*
X246469Y133480D02*
Y149880D01*
X282469Y108080D02*
Y124480D01*
Y133480D02*
Y149880D01*
X294469Y108080D02*
Y124480D01*
X288469Y108080D02*
Y124480D01*
Y133480D02*
Y149880D01*
X276469Y133480D02*
Y149880D01*
X294469Y133480D02*
Y153405D01*
X24469Y163423D02*
Y170737D01*
X20000Y167699D02*
X60100D01*
X26761Y173699D02*
X60100D01*
X28340Y179699D02*
X60549D01*
X26850Y185699D02*
X66195D01*
X69100Y84264D02*
Y175876D01*
X60100Y82400D02*
Y177740D01*
X71300Y94700D02*
Y167500D01*
X69100Y167699D02*
X71304D01*
X72469Y170526D02*
Y179245D01*
X20000Y192680D02*
X22090D01*
X24469Y188823D02*
Y195060D01*
X20000Y191699D02*
X72195D01*
X22090Y192680D02*
X28340Y198930D01*
Y211430D01*
X22090Y217680D02*
X28340Y211430D01*
X36470Y20000D02*
Y222608D01*
X30470Y20000D02*
Y222608D01*
X48469Y20000D02*
Y222608D01*
X42470Y20000D02*
Y222608D01*
X60469Y179526D02*
Y222608D01*
X54469Y20000D02*
Y222608D01*
X72469Y191973D02*
Y222608D01*
X66469Y185973D02*
Y222608D01*
X69100Y173699D02*
X75635D01*
X80300Y165636D02*
X85200Y170536D01*
X72618Y170682D02*
X80595Y178659D01*
X72923Y179699D02*
X80540D01*
X78469Y176533D02*
Y185245D01*
X78923Y185699D02*
X82180D01*
X69100Y175876D02*
X87739Y194515D01*
X90469Y165772D02*
Y168388D01*
X84469Y163037D02*
Y169805D01*
X96469Y164993D02*
Y169167D01*
X102469Y159226D02*
Y174935D01*
X84469Y188437D02*
Y191245D01*
X90469Y191172D02*
Y193788D01*
X27109Y197699D02*
X78195D01*
X61418Y180922D02*
X81375Y200879D01*
X96469Y190393D02*
Y194567D01*
X28340Y203699D02*
X80636D01*
X78469Y197973D02*
Y222608D01*
X28340Y209699D02*
X81465D01*
X114469Y158880D02*
Y222608D01*
X108469Y158880D02*
Y222608D01*
X120469Y158880D02*
Y222608D01*
X138469Y158880D02*
Y232185D01*
X102469Y184625D02*
Y200334D01*
Y210026D02*
Y222608D01*
X126469Y158880D02*
Y222608D01*
X132469Y158880D02*
Y226185D01*
X84469Y213837D02*
Y222608D01*
X24469Y215301D02*
Y222608D01*
X24071Y215699D02*
X87393D01*
X96469Y215793D02*
Y222608D01*
X20000Y217680D02*
X22090D01*
X20000D02*
Y222608D01*
X128892D01*
X90469Y216572D02*
Y222608D01*
X124600Y287699D02*
X128362D01*
X124600Y311699D02*
X128514D01*
X128101Y281699D02*
X130449D01*
X124600Y293699D02*
X129805D01*
X124600Y335699D02*
X128852D01*
X124600Y341699D02*
X128683D01*
X124600Y317699D02*
X129133D01*
X124600Y359699D02*
X129393D01*
X90469Y417900D02*
Y671830D01*
X84469Y417900D02*
Y677830D01*
X102469Y417900D02*
Y659829D01*
X96469Y417900D02*
Y665829D01*
X72469Y417900D02*
Y689829D01*
X66469Y417900D02*
Y695829D01*
X20000Y417900D02*
X112700Y417900D01*
X78469D02*
Y683829D01*
X124600Y285200D02*
Y406000D01*
X126469Y283331D02*
Y645200D01*
X124600Y365699D02*
X128427D01*
X124600Y371699D02*
X131081D01*
X114469Y416131D02*
Y647830D01*
X108469Y417900D02*
Y653829D01*
X112700Y417900D02*
X124600Y406000D01*
X120469Y410131D02*
Y645200D01*
X128892Y222608D02*
X175800Y269516D01*
X124600Y285200D02*
X134690Y275110D01*
X96687Y215699D02*
X266722D01*
X20000Y221699D02*
X268412D01*
X124600Y305699D02*
X131646D01*
X124600Y323699D02*
X134816D01*
X124600Y299699D02*
X153805D01*
X138469Y275110D02*
Y277125D01*
X144469Y275110D02*
Y278267D01*
X133983Y227699D02*
X289135D01*
X134690Y275110D02*
X148410Y275110D01*
X132469Y277331D02*
Y279561D01*
Y296839D02*
Y304961D01*
X134101Y275699D02*
X148999D01*
X138469Y299275D02*
Y302525D01*
X124600Y329699D02*
X133376D01*
X124600Y347699D02*
X132543D01*
X124600Y353699D02*
X136447D01*
X124600Y395699D02*
X174235D01*
X124600Y401699D02*
X174870D01*
X132469Y322239D02*
Y330361D01*
Y347639D02*
Y355761D01*
X144125Y323699D02*
X154035D01*
X138469Y324675D02*
Y327925D01*
Y350075D02*
Y353325D01*
X132469Y373039D02*
Y645200D01*
X142493Y353699D02*
X153950D01*
X138469Y375475D02*
Y645200D01*
X144469Y374333D02*
Y434209D01*
Y158880D02*
Y238185D01*
X150469Y158880D02*
Y244185D01*
X156469Y158880D02*
Y250185D01*
X162469Y158880D02*
Y256185D01*
X168469Y158880D02*
Y262185D01*
X148492Y281699D02*
X154999D01*
X174469Y158880D02*
Y268185D01*
X175001Y281699D02*
X190015D01*
X175800Y269516D02*
Y273351D01*
X198469Y158880D02*
Y272629D01*
X192469Y158880D02*
Y273743D01*
X175800Y277449D02*
Y280900D01*
X175986Y275699D02*
X190666D01*
X186469Y158880D02*
Y291667D01*
X180469Y158880D02*
Y297667D01*
X204469Y158880D02*
Y341456D01*
X210469Y158880D02*
Y645200D01*
X148410Y275110D02*
X159500Y286200D01*
X150469Y277169D02*
Y286563D01*
X170500Y286200D02*
X175800Y280900D01*
X240469Y158880D02*
Y650798D01*
X246469Y158880D02*
Y656798D01*
X258469Y158880D02*
Y478018D01*
X252469Y158880D02*
Y482394D01*
X222469Y158880D02*
Y645200D01*
X216469Y158880D02*
Y645200D01*
X228469Y158880D02*
Y645200D01*
X234469Y158880D02*
Y645487D01*
X276469Y158880D02*
Y210615D01*
X270469Y158880D02*
Y210739D01*
X282469Y158880D02*
Y212500D01*
X278962Y221500D02*
X282936D01*
X278788Y221699D02*
X283135D01*
X278962Y212500D02*
X284800D01*
X282936Y221500D02*
X291618Y230182D01*
X288469Y160133D02*
Y214305D01*
X294469Y166133D02*
Y220305D01*
X287982Y213818D02*
X294600Y220436D01*
X288469Y227033D02*
Y236703D01*
X264469Y158880D02*
Y480674D01*
X270469Y223261D02*
Y667880D01*
X145983Y239699D02*
X282522D01*
X276469Y223385D02*
Y460635D01*
X151983Y245699D02*
X281558D01*
X169983Y263699D02*
X281266D01*
X163983Y257699D02*
X284662D01*
X175800Y269699D02*
X284659D01*
X282469Y221500D02*
Y239776D01*
X294469Y231488D02*
Y240456D01*
Y246944D02*
Y260456D01*
X282469Y247624D02*
Y259776D01*
Y267624D02*
Y342687D01*
X288469Y250697D02*
Y256703D01*
Y270697D02*
Y342732D01*
X294469Y266944D02*
Y667880D01*
X144469Y298133D02*
Y303667D01*
X150469Y289837D02*
Y309100D01*
X156469Y283169D02*
Y293515D01*
X149136Y293699D02*
X156313D01*
X147295Y305699D02*
X154888D01*
X144469Y323533D02*
Y329067D01*
X149639Y309100D02*
X157470D01*
X149639Y318100D02*
X157252D01*
X159500Y286200D02*
X162222D01*
X167519D02*
X170500D01*
X168469D02*
Y290278D01*
X162469Y286258D02*
Y289942D01*
X174469Y316395D02*
Y320586D01*
X145565Y329699D02*
X154315D01*
X150469Y318100D02*
Y337363D01*
X150089Y335699D02*
X159089D01*
X150258Y341699D02*
X159809D01*
X144469Y348933D02*
Y354467D01*
X150469Y366037D02*
Y430762D01*
X146397Y347699D02*
X154457D01*
X149548Y359699D02*
X157250D01*
X156469Y333485D02*
Y344315D01*
X150469Y340637D02*
Y362763D01*
X162469Y337058D02*
Y340742D01*
X168469Y336721D02*
Y341078D01*
X156469Y358885D02*
Y430533D01*
X162469Y362458D02*
Y433311D01*
X174469Y357214D02*
Y395120D01*
X168469Y362122D02*
Y645200D01*
X174469Y282231D02*
Y295186D01*
X150579Y287699D02*
X190437D01*
X174082Y316782D02*
X199802Y291062D01*
X173428Y293699D02*
X184437D01*
X169932Y341699D02*
X199258D01*
X201120Y284742D02*
Y287880D01*
X175897Y302239D02*
X192120Y286016D01*
X175936Y299699D02*
X178437D01*
X174469Y331814D02*
Y345986D01*
X198469Y292395D02*
Y342122D01*
X175284Y347699D02*
X195176D01*
X180469Y310395D02*
Y391044D01*
X175791Y353699D02*
X198010D01*
X186469Y304395D02*
Y393881D01*
X180469Y405024D02*
Y645200D01*
X174469Y400948D02*
Y645200D01*
X186469Y402187D02*
Y645200D01*
X192469Y298395D02*
Y645200D01*
X209156Y347699D02*
X278550D01*
X204469Y354676D02*
Y645200D01*
X198469Y354010D02*
Y645200D01*
X206322Y353699D02*
X280202D01*
X282469Y355381D02*
Y459163D01*
X288469Y355336D02*
Y667880D01*
X306469Y20000D02*
Y58800D01*
X300469Y20000D02*
Y58800D01*
X318469Y20000D02*
Y58800D01*
X312469Y20000D02*
Y58800D01*
X306469Y67800D02*
Y77300D01*
X300469Y67800D02*
Y77300D01*
X318469Y67800D02*
Y77300D01*
X312469Y67800D02*
Y77300D01*
X330469Y20000D02*
Y58800D01*
X324469Y20000D02*
Y58800D01*
X348469Y20000D02*
Y58800D01*
X336469Y20000D02*
Y58800D01*
Y67800D02*
Y77300D01*
X324469Y67800D02*
Y77300D01*
X342469Y20000D02*
Y58800D01*
X348469Y67800D02*
Y77300D01*
X306469Y86300D02*
Y99080D01*
X300469Y86300D02*
Y99080D01*
X318469Y86300D02*
Y99080D01*
X312469Y86300D02*
Y99080D01*
X306469Y108080D02*
Y124480D01*
X300469Y108080D02*
Y124480D01*
X324469Y86300D02*
Y99080D01*
X312469Y108080D02*
Y124480D01*
X330469Y67800D02*
Y77300D01*
Y86300D02*
Y99080D01*
X342469Y67800D02*
Y77300D01*
X336469Y86300D02*
Y99080D01*
X348469Y86300D02*
Y99080D01*
X342469Y86300D02*
Y99080D01*
X354469Y86300D02*
Y99080D01*
Y108080D02*
Y124480D01*
X20000Y29699D02*
X1100000D01*
X20000Y35700D02*
X558451D01*
X20000Y20000D02*
X1100000D01*
X20000Y23700D02*
X1100000D01*
X20000Y47699D02*
X555100D01*
X81665Y71699D02*
X487635D01*
X20000Y41700D02*
X555100D01*
X20000Y53699D02*
X557249D01*
X360469Y20000D02*
Y58800D01*
X354469Y20000D02*
Y58800D01*
X378469Y20000D02*
Y58800D01*
X366469Y20000D02*
Y58800D01*
X372469Y20000D02*
Y58800D01*
X378469Y67800D02*
Y77300D01*
X83700Y58800D02*
X485600D01*
X85564Y67800D02*
X483736D01*
X360469D02*
Y77300D01*
X354469Y67800D02*
Y77300D01*
X88700D02*
X489400D01*
X90564Y86300D02*
X487536D01*
X87165Y89699D02*
X490935D01*
X360469Y86300D02*
Y99080D01*
X100415Y95699D02*
X496935D01*
X102623Y99080D02*
X498480D01*
X366469Y67800D02*
Y77300D01*
Y86300D02*
Y99080D01*
X384469Y67800D02*
Y77300D01*
X372469Y67800D02*
Y77300D01*
X378469Y86300D02*
Y99080D01*
X372469Y86300D02*
Y99080D01*
X384469Y86300D02*
Y99080D01*
X378469Y108080D02*
Y124480D01*
X306469Y133480D02*
Y142701D01*
X300469Y133480D02*
Y159405D01*
X312469Y133480D02*
Y144004D01*
X96303Y143699D02*
X304216D01*
X102544Y149699D02*
X301137D01*
X296763Y155699D02*
X304883D01*
X306469Y156299D02*
Y165300D01*
X324469Y108080D02*
Y124480D01*
X318469Y108080D02*
Y124480D01*
X336469Y108080D02*
Y124480D01*
X330469Y108080D02*
Y124480D01*
X342469Y108080D02*
Y124480D01*
X336469Y133480D02*
Y165300D01*
X348469Y108080D02*
Y124480D01*
X342469Y133480D02*
Y165300D01*
X82363Y167699D02*
X296035D01*
X300469Y172133D02*
Y213458D01*
X292262Y151198D02*
X306364Y165300D01*
X287216Y158880D02*
X301318Y172982D01*
X101801Y173699D02*
X302254D01*
X289863Y215699D02*
X296383D01*
X318469Y133480D02*
Y165300D01*
X312469Y154996D02*
Y165300D01*
X330469Y133480D02*
Y165300D01*
X324469Y133480D02*
Y165300D01*
X306469Y174300D02*
Y215337D01*
X306817Y215699D02*
X326383D01*
X330469Y174300D02*
Y213458D01*
X336469Y174300D02*
Y215337D01*
X102623Y108080D02*
X496616D01*
X97503Y113699D02*
X502235D01*
X98831Y119699D02*
X508235D01*
X102623Y124480D02*
X510380D01*
X102623Y133480D02*
X508516D01*
X306364Y165300D02*
X408200D01*
X99538Y137699D02*
X512735D01*
X302763Y161699D02*
X536735D01*
X366469Y108080D02*
Y124480D01*
X360469Y108080D02*
Y124480D01*
X372469Y108080D02*
Y124480D01*
X378469Y133480D02*
Y165300D01*
X312052Y143699D02*
X518735D01*
X372469Y133480D02*
Y165300D01*
X315131Y149699D02*
X524735D01*
X311385Y155699D02*
X530735D01*
X304500Y174300D02*
X406336D01*
X84923Y191699D02*
X367722D01*
X103540Y179699D02*
X411735D01*
X101900Y185699D02*
X417735D01*
X100774Y197699D02*
X366954D01*
X103444Y203699D02*
X435735D01*
X102615Y209699D02*
X441735D01*
X336817Y215699D02*
X447735D01*
X354469Y133480D02*
Y165300D01*
X348469Y133480D02*
Y165300D01*
X366469Y133480D02*
Y165300D01*
X360469Y133480D02*
Y165300D01*
X372469Y174300D02*
Y188592D01*
X378469Y174300D02*
Y190471D01*
X379478Y191699D02*
X423735D01*
X380246Y197699D02*
X429735D01*
X390469Y20000D02*
Y58800D01*
X384469Y20000D02*
Y58800D01*
X402469Y20000D02*
Y58800D01*
X396469Y20000D02*
Y58800D01*
X402469Y67800D02*
Y77300D01*
X396469Y67800D02*
Y77300D01*
X408469Y20000D02*
Y58800D01*
Y67800D02*
Y77300D01*
X420469Y20000D02*
Y58800D01*
X414469Y20000D02*
Y58800D01*
X432469Y20000D02*
Y58800D01*
X426469Y20000D02*
Y58800D01*
X438469Y20000D02*
Y58800D01*
X414469Y67800D02*
Y77300D01*
X450469Y20000D02*
Y58800D01*
X444469Y20000D02*
Y58800D01*
X390469Y67800D02*
Y77300D01*
X396469Y86300D02*
Y99080D01*
X426469Y67800D02*
Y77300D01*
X420469Y67800D02*
Y77300D01*
X414469Y86300D02*
Y99080D01*
X408469Y86300D02*
Y99080D01*
X426469Y86300D02*
Y99080D01*
X420469Y86300D02*
Y99080D01*
X438469Y67800D02*
Y77300D01*
X432469Y67800D02*
Y77300D01*
X450469Y67800D02*
Y77300D01*
X444469Y67800D02*
Y77300D01*
X438469Y86300D02*
Y99080D01*
X432469Y86300D02*
Y99080D01*
X450469Y86300D02*
Y99080D01*
X444469Y86300D02*
Y99080D01*
X462469Y20000D02*
Y58800D01*
X456469Y20000D02*
Y58800D01*
X474469Y20000D02*
Y58800D01*
X468469Y20000D02*
Y58800D01*
X480469Y20000D02*
Y58800D01*
Y67800D02*
Y77300D01*
X486469Y20000D02*
Y58885D01*
X492469Y20000D02*
Y63805D01*
X498469Y20000D02*
Y69805D01*
X504468Y20000D02*
Y75805D01*
X488299Y59699D02*
X1063970D01*
X486469Y70532D02*
Y77300D01*
X494363Y65699D02*
X1063970D01*
X500363Y71699D02*
X1063970D01*
X462469Y67800D02*
Y77300D01*
X456469Y67800D02*
Y77300D01*
X474469Y67800D02*
Y77300D01*
X468469Y67800D02*
Y77300D01*
X462469Y86300D02*
Y99080D01*
X491253Y77699D02*
X493635D01*
X510468Y20000D02*
Y81805D01*
X516469Y20000D02*
Y87804D01*
X522468Y20000D02*
Y93805D01*
X540468Y20000D02*
Y111805D01*
X528469Y20000D02*
Y99804D01*
X534468Y20000D02*
Y105805D01*
X506363Y77699D02*
X1063970D01*
X512363Y83699D02*
X558183D01*
X390469Y86300D02*
Y99080D01*
X396469Y108080D02*
Y124480D01*
X402469Y86300D02*
Y99080D01*
X420469Y108080D02*
Y124480D01*
X402469Y108080D02*
Y124480D01*
X384469Y108080D02*
Y124480D01*
X414469Y108080D02*
Y124480D01*
X408469Y108080D02*
Y124480D01*
X432469Y108080D02*
Y124480D01*
X426469Y108080D02*
Y124480D01*
X456469Y86300D02*
Y99080D01*
X438469Y108080D02*
Y124480D01*
X450469Y108080D02*
Y124480D01*
X444469Y108080D02*
Y124480D01*
X462469Y108080D02*
Y124480D01*
X456469Y108080D02*
Y124480D01*
X390469Y108080D02*
Y124480D01*
X384469Y133480D02*
Y165300D01*
X396469Y133480D02*
Y165300D01*
X390469Y133480D02*
Y165300D01*
X402469Y133480D02*
Y165300D01*
X408469Y133480D02*
Y165308D01*
X438469Y133480D02*
Y193705D01*
X444469Y133480D02*
Y199705D01*
X450469Y133480D02*
Y205705D01*
X456469Y133480D02*
Y211705D01*
X414469Y133480D02*
Y169705D01*
X420469Y133480D02*
Y175705D01*
X426469Y133480D02*
Y181705D01*
X432469Y133480D02*
Y187705D01*
X474469Y86300D02*
Y99080D01*
X468469Y86300D02*
Y99080D01*
X480469Y86300D02*
Y99080D01*
X487536Y86300D02*
X501350Y100114D01*
X474469Y108080D02*
Y124480D01*
X468469Y108080D02*
Y124480D01*
X492469Y91233D02*
Y99080D01*
X486469Y86300D02*
Y99080D01*
X518363Y89699D02*
X556116D01*
X524363Y95699D02*
X557446D01*
X530363Y101699D02*
X566081D01*
X504468Y115933D02*
Y124480D01*
X536363Y107699D02*
X1064150D01*
X542363Y113699D02*
X1069228D01*
X412463Y167699D02*
X542735D01*
X418463Y173699D02*
X548735D01*
X424463Y179699D02*
X554735D01*
X430463Y185699D02*
X560735D01*
X436463Y191699D02*
X566735D01*
X442463Y197699D02*
X572735D01*
X448463Y203699D02*
X578735D01*
X454463Y209699D02*
X584735D01*
X486469Y108080D02*
Y124480D01*
X480469Y108080D02*
Y124480D01*
X498469Y109932D02*
Y124480D01*
X492469Y108080D02*
Y124480D01*
X510468Y121932D02*
Y124481D01*
X462469Y133480D02*
Y217705D01*
X460463Y215699D02*
X590735D01*
X308472Y221699D02*
X310928D01*
X294800Y231500D02*
X310138D01*
X139983Y233699D02*
X313470D01*
X295266Y263699D02*
X345036D01*
X318469Y174300D02*
Y220661D01*
X312469Y174300D02*
Y220690D01*
X348469Y174300D02*
Y261855D01*
X354469Y174300D02*
Y263368D01*
X320072Y221699D02*
X324728D01*
X372469Y202408D02*
Y258588D01*
X354832Y263699D02*
X367929D01*
X306469Y231500D02*
Y667880D01*
X300469Y231500D02*
Y667880D01*
X324469Y174300D02*
Y430495D01*
X330469Y227274D02*
Y667880D01*
X312469Y233310D02*
Y667880D01*
X291873Y269699D02*
X343006D01*
X318469Y233339D02*
Y430809D01*
X342469Y174300D02*
Y667880D01*
X336469Y225395D02*
Y667880D01*
X366469Y174300D02*
Y413400D01*
X360469Y174300D02*
Y413400D01*
X354469Y274032D02*
Y401487D01*
X348469Y275545D02*
Y403398D01*
X356862Y269699D02*
X368405D01*
X338472Y221699D02*
X453735D01*
X322465Y227699D02*
X459735D01*
X317530Y233699D02*
X465735D01*
X294010Y239699D02*
X471735D01*
X294974Y245699D02*
X477735D01*
X157983Y251699D02*
X483735D01*
X291870Y257699D02*
X489735D01*
X468469Y133480D02*
Y223705D01*
X378469Y200529D02*
Y259259D01*
X466463Y221699D02*
X596735D01*
X411382Y166618D02*
X521182Y276418D01*
X381603Y263699D02*
X495735D01*
X380129Y269699D02*
X501735D01*
X384469Y174300D02*
Y420505D01*
X390469Y174300D02*
Y426505D01*
X396469Y174300D02*
Y432505D01*
X402469Y174300D02*
Y438505D01*
X408469Y176433D02*
Y444505D01*
X406336Y174300D02*
X513500Y281464D01*
X414469Y182433D02*
Y289502D01*
X426469Y194433D02*
Y278787D01*
X420469Y188433D02*
Y287704D01*
X432469Y200433D02*
Y279200D01*
X438469Y206433D02*
Y474505D01*
X444469Y212433D02*
Y480505D01*
X450469Y218433D02*
Y486505D01*
X462469Y230433D02*
Y400367D01*
X456469Y224433D02*
Y406367D01*
X202574Y275699D02*
X349813D01*
X197165Y293699D02*
X412324D01*
X203225Y281699D02*
X423031D01*
X201120Y287699D02*
X418093D01*
X179165Y311699D02*
X412451D01*
X186798Y401699D02*
X351343D01*
X191165Y299699D02*
X414470D01*
X185165Y305699D02*
X413823D01*
X350055Y275699D02*
X366928D01*
X420439Y287699D02*
X422458D01*
X414469Y299698D02*
Y305002D01*
X122901Y407699D02*
X346401D01*
X372469Y281079D02*
Y413400D01*
X116901Y413699D02*
X347767D01*
X358728Y413400D02*
X375500D01*
X378469Y279385D02*
Y414518D01*
X414469Y315198D02*
Y450505D01*
X426469Y291813D02*
Y462505D01*
X432469Y291399D02*
Y468505D01*
X420469Y316996D02*
Y456505D01*
X377112Y413699D02*
X455000D01*
Y409700D02*
Y433400D01*
X175426Y329699D02*
X513500D01*
X170652Y335699D02*
X513500D01*
X172757Y317699D02*
X513500D01*
X175705Y323699D02*
X513500D01*
X172490Y359699D02*
X467841D01*
X150514Y365699D02*
X464533D01*
X205075Y341699D02*
X513500D01*
X290641Y353699D02*
X520735D01*
X380604Y275699D02*
X507735D01*
X435037Y281699D02*
X513500D01*
X435610Y287699D02*
X513500D01*
X426208Y293699D02*
X513500D01*
X424062Y299699D02*
X513500D01*
X424709Y305699D02*
X513500D01*
X426081Y311699D02*
X513500D01*
X292293Y347699D02*
X514737D01*
X147860Y371699D02*
X464911D01*
X124600Y389699D02*
X464912D01*
X124600Y377699D02*
X469621D01*
X124600Y383699D02*
X469624D01*
X355389Y401699D02*
X461137D01*
X360331Y407699D02*
X455470D01*
X187433Y395699D02*
X464532D01*
X378682Y414718D02*
X511564Y547600D01*
X456318Y406518D02*
X465135Y397701D01*
X464000Y411564D02*
X471499Y404065D01*
X467865Y407699D02*
X470054D01*
X464000Y411564D02*
Y414676D01*
X474469Y133480D02*
Y229705D01*
X480469Y133480D02*
Y235705D01*
X486469Y133480D02*
Y241705D01*
X492469Y133480D02*
Y247705D01*
X498469Y133480D02*
Y253705D01*
X504468Y133480D02*
Y259705D01*
X510468Y135433D02*
Y265704D01*
X516469Y141433D02*
Y271705D01*
X522468Y147432D02*
Y279069D01*
X540468Y165432D02*
Y276600D01*
X534468Y159432D02*
Y278826D01*
X522500Y281699D02*
X532883D01*
X522500Y287699D02*
X533996D01*
X534468Y288275D02*
Y291526D01*
X474469Y242433D02*
Y356577D01*
X468469Y236433D02*
Y359140D01*
X480469Y248433D02*
Y357490D01*
X486469Y254433D02*
Y363707D01*
X498469Y266432D02*
Y356500D01*
X492469Y260432D02*
Y359481D01*
X504468Y272432D02*
Y356500D01*
X510468Y278433D02*
Y360019D01*
X522500Y279600D02*
Y342736D01*
X513500Y281464D02*
Y344600D01*
X522500Y293699D02*
X533116D01*
X528469Y153433D02*
Y348704D01*
X522500Y299699D02*
X533542D01*
X534468Y300975D02*
Y354705D01*
X478463Y233699D02*
X546691D01*
X484463Y239699D02*
X544338D01*
X472463Y227699D02*
X602735D01*
X496616Y108080D02*
X644300Y255764D01*
X490463Y245699D02*
X549381D01*
X502463Y257699D02*
X609981D01*
X496463Y251699D02*
X614250D01*
X508463Y263699D02*
X612466D01*
X514463Y269699D02*
X586729D01*
X513562Y125798D02*
X635782Y248018D01*
X508516Y133480D02*
X628100Y253064D01*
X520463Y275699D02*
X588585D01*
X545272Y287699D02*
X596237D01*
X522500Y305699D02*
X578237D01*
X492582Y78618D02*
X741282Y327318D01*
X488782Y60118D02*
X760778Y332114D01*
X483736Y67800D02*
X753096Y337160D01*
X522500Y323699D02*
X564600D01*
X514818Y347782D02*
X546000Y378964D01*
X522500Y311699D02*
X572237D01*
X522500Y317699D02*
X566237D01*
X540468Y303201D02*
Y360704D01*
X545726Y299699D02*
X584237D01*
X522500Y335699D02*
X564600D01*
X522500Y342736D02*
X553682Y373918D01*
X522500Y329699D02*
X564600D01*
X522500Y341699D02*
X564600D01*
X527463Y347699D02*
X564600D01*
X486689Y371699D02*
X489700D01*
X468469Y376860D02*
Y384540D01*
X483759Y359699D02*
X492251D01*
X487067Y365699D02*
X489700D01*
X474469Y379423D02*
Y381977D01*
X480469Y378510D02*
Y382890D01*
X481979Y377699D02*
X493649D01*
X481975Y383699D02*
X495024D01*
X489700Y362250D02*
X495450Y356500D01*
X489700Y362250D02*
Y373750D01*
X495450Y356500D02*
X506950D01*
X489700Y373750D02*
X495450Y379500D01*
X498469D02*
Y382229D01*
X492469Y376519D02*
Y385916D01*
X495450Y379500D02*
X506336D01*
X504468D02*
Y382374D01*
X486469Y372293D02*
Y389107D01*
X480469Y403910D02*
Y407205D01*
X483761Y401699D02*
X493239D01*
X481546Y407699D02*
X498198D01*
X487068Y395699D02*
X489932D01*
X486469Y397693D02*
Y412286D01*
X486688Y389699D02*
X490312D01*
X510468Y400208D02*
Y411992D01*
X492469Y400884D02*
Y411316D01*
X487212Y413699D02*
X490893D01*
X498469Y404571D02*
Y407629D01*
X504468Y404426D02*
Y407774D01*
X506950Y356500D02*
X512700Y362250D01*
Y373136D01*
X510149Y359699D02*
X526735D01*
X516469Y349432D02*
Y376905D01*
X512700Y373136D02*
X521282Y381718D01*
X507375Y383699D02*
X510535D01*
X512700Y365699D02*
X532735D01*
X512700Y371699D02*
X538735D01*
X533463Y353699D02*
X564600D01*
X522468Y355433D02*
Y383820D01*
X539463Y359699D02*
X564600D01*
X545463Y365699D02*
X564600D01*
X517263Y377699D02*
X544735D01*
X522437Y383699D02*
X546000D01*
X510468Y383633D02*
Y386592D01*
X506336Y379500D02*
X513600Y386764D01*
Y467436D01*
X509161Y401699D02*
X513600D01*
X504202Y407699D02*
X513600D01*
X511507Y413699D02*
X513600D01*
X522600Y384900D02*
Y465572D01*
X528469Y361432D02*
Y471441D01*
X534468Y367432D02*
Y477440D01*
X540468Y373432D02*
Y483440D01*
X522600Y407699D02*
X546000D01*
X522600Y413699D02*
X546000D01*
X522600Y389699D02*
X546000D01*
X522600Y401699D02*
X546000D01*
X522600Y395699D02*
X546000D01*
X24469Y417900D02*
Y430534D01*
X20000Y417900D02*
Y432239D01*
Y467699D02*
X24042D01*
X20000Y455362D02*
Y469185D01*
X24469Y457066D02*
Y467617D01*
X30470Y417900D02*
Y430762D01*
X36470Y417900D02*
Y434208D01*
X40470Y443699D02*
X140470D01*
X39113Y449699D02*
X141827D01*
X30470Y456839D02*
Y467829D01*
X36470Y453392D02*
Y470945D01*
X41302Y479699D02*
X140651D01*
X24469Y496183D02*
Y506734D01*
X20000Y494615D02*
Y508438D01*
X24469Y533266D02*
Y543817D01*
X20000Y531562D02*
Y545385D01*
X30470Y495971D02*
Y506961D01*
X40963Y485699D02*
X141015D01*
X36470Y492855D02*
Y510408D01*
X30470Y533038D02*
Y544029D01*
X36470Y529592D02*
Y547145D01*
X39766Y515699D02*
X141174D01*
X40363Y521698D02*
X140577D01*
X32954Y431699D02*
X147986D01*
X39013Y437699D02*
X141927D01*
X20000Y419699D02*
X346601D01*
X20000Y425699D02*
X346576D01*
X33348Y455699D02*
X147593D01*
X38927Y473699D02*
X143247D01*
X20000Y461699D02*
X275443D01*
X29897Y467699D02*
X274175D01*
X144469Y453391D02*
Y472309D01*
X159954Y431699D02*
X317190D01*
X166013Y437699D02*
X314838D01*
X156469Y457066D02*
Y468633D01*
X150469Y456838D02*
Y468862D01*
X162469Y454289D02*
Y471411D01*
X164693Y473699D02*
X274202D01*
X37658Y491699D02*
X144684D01*
X144469Y491491D02*
Y510409D01*
X20000Y497699D02*
X359244D01*
X38060Y527699D02*
X142880D01*
X144469Y529591D02*
Y548509D01*
X35695Y509698D02*
X145245D01*
X150469Y494938D02*
Y506962D01*
X162469Y492389D02*
Y509511D01*
X166925Y485699D02*
X252001D01*
X163256Y491699D02*
X256934D01*
X156469Y495167D02*
Y506734D01*
X150469Y533038D02*
Y545062D01*
X165060Y527699D02*
X275603D01*
X162469Y530489D02*
Y547611D01*
X20000Y570815D02*
Y584638D01*
X24469Y572383D02*
Y582934D01*
X20000Y619800D02*
X34220D01*
X36470Y569055D02*
Y586608D01*
X41464Y557698D02*
X140476D01*
X30470Y572171D02*
Y583162D01*
Y609239D02*
Y619800D01*
X40236Y593698D02*
X140704D01*
X40009Y599698D02*
X140931D01*
X24469Y609466D02*
Y619800D01*
X20000Y607761D02*
Y619800D01*
X34220D02*
X41470Y627050D01*
X20000Y648800D02*
X34220D01*
X20000Y653698D02*
X108601D01*
X36470Y605792D02*
Y622050D01*
X41470Y627050D02*
Y641550D01*
Y629698D02*
X141278D01*
X41470Y635698D02*
X140543D01*
X35322Y647698D02*
X114601D01*
X34220Y648800D02*
X41470Y641550D01*
X34483Y545699D02*
X148636D01*
X39980Y551698D02*
X142084D01*
X20000Y533699D02*
X274037D01*
X20000Y539698D02*
X252428D01*
X40346Y563698D02*
X141685D01*
X35672Y569698D02*
X147062D01*
X20000Y575698D02*
X275273D01*
X20000Y581698D02*
X274307D01*
X156469Y533267D02*
Y544833D01*
X159304Y545699D02*
X252903D01*
X165856Y551698D02*
X358605D01*
X150469Y571138D02*
Y583162D01*
X144469Y567691D02*
Y586609D01*
X156469Y571367D02*
Y582933D01*
X162469Y568589D02*
Y585711D01*
X37457Y587698D02*
X143483D01*
X36563Y605698D02*
X144377D01*
X20000Y611698D02*
X359441D01*
X38118Y623698D02*
X145612D01*
X41322Y641698D02*
X142678D01*
X119170Y645200D02*
X146005D01*
X162469Y606689D02*
Y623811D01*
X144469Y605791D02*
Y624709D01*
X164457Y587698D02*
X274179D01*
X163563Y605698D02*
X258863D01*
X156469Y609467D02*
Y621033D01*
X150469Y609238D02*
Y621262D01*
X165262Y641698D02*
X275777D01*
X161935Y645200D02*
X232800D01*
X263537Y479699D02*
X275365D01*
X167470Y443699D02*
X319884D01*
X167289Y479699D02*
X254395D01*
X265931Y485699D02*
X274001D01*
X282998Y491699D02*
X359308D01*
X260998D02*
X278934D01*
X326410Y431699D02*
X347841D01*
X258469Y491982D02*
Y535218D01*
X252469Y487606D02*
Y539594D01*
X264469Y489326D02*
Y537874D01*
X167363Y521698D02*
X274129D01*
X282469Y491837D02*
Y516363D01*
X276469Y490364D02*
Y517836D01*
X358728Y422400D02*
X373636D01*
X328761Y437699D02*
X388935D01*
X323716Y443699D02*
X394935D01*
X286489Y461699D02*
X391805D01*
X287757Y467699D02*
X390328D01*
X287931Y485699D02*
X390184D01*
X287730Y473699D02*
X390458D01*
X286567Y479699D02*
X391420D01*
X360156Y425699D02*
X376935D01*
X366469Y422400D02*
Y487820D01*
X358891Y431699D02*
X382935D01*
X390469Y439233D02*
Y464164D01*
Y468237D02*
Y473663D01*
Y477737D02*
Y483164D01*
X396469Y445233D02*
Y459235D01*
X360469Y422400D02*
Y490005D01*
Y499527D02*
Y547205D01*
X366469Y501712D02*
Y545020D01*
X287803Y521698D02*
X390376D01*
X287894Y533699D02*
X390212D01*
X286329Y527699D02*
X391641D01*
X287504Y539698D02*
X390708D01*
X372469Y422400D02*
Y493417D01*
X390469Y487237D02*
Y521363D01*
X371892Y491699D02*
X394564D01*
X396469Y492165D02*
Y516435D01*
X390469Y525437D02*
Y530863D01*
X372469Y496115D02*
Y550617D01*
X390469Y534937D02*
Y540364D01*
X258469Y549182D02*
Y591721D01*
X252469Y544806D02*
Y596223D01*
X264469Y546526D02*
Y594311D01*
X167236Y593698D02*
X254119D01*
X167009Y599698D02*
X252087D01*
X263913Y593698D02*
X275653D01*
X259169Y605698D02*
X280863D01*
X265504Y539698D02*
X274428D01*
X265029Y545699D02*
X274903D01*
X282469Y549037D02*
Y572852D01*
X276469Y547564D02*
Y574378D01*
X265944Y599698D02*
X274088D01*
X258469Y605679D02*
Y649018D01*
X252469Y601177D02*
Y653394D01*
X167397Y635698D02*
X274088D01*
X264469Y603089D02*
Y651674D01*
X237369Y647698D02*
X274069D01*
X243369Y653698D02*
X252355D01*
X282469Y605548D02*
Y630163D01*
X276469Y604022D02*
Y631636D01*
X265577Y653698D02*
X274355D01*
X167464Y557698D02*
X361582D01*
X287029Y545699D02*
X362483D01*
X286759Y575698D02*
X391617D01*
X287725Y581698D02*
X390451D01*
X286379Y593698D02*
X391691D01*
X390469Y544437D02*
Y578036D01*
X368717Y545699D02*
X390992D01*
X396469Y549365D02*
Y572940D01*
X390469Y581764D02*
Y587536D01*
X287853Y587698D02*
X390426D01*
X390469Y591264D02*
Y597036D01*
X281169Y605698D02*
X359220D01*
X287945Y599698D02*
X390262D01*
X287844Y635698D02*
X390329D01*
X287863Y647698D02*
X390238D01*
X286155Y641698D02*
X391803D01*
X287577Y653698D02*
X390628D01*
X366469Y558912D02*
Y601514D01*
X360469Y556727D02*
Y603759D01*
X372469Y553315D02*
Y606884D01*
X390469Y600764D02*
Y635164D01*
Y639236D02*
Y644663D01*
Y648736D02*
Y654164D01*
X372080Y605698D02*
X395548D01*
X396469Y605860D02*
Y630235D01*
X20000Y671698D02*
X90601D01*
X20000Y648800D02*
Y691585D01*
Y659698D02*
X102601D01*
X20000Y665698D02*
X96601D01*
X20000Y689698D02*
X72601D01*
X20000Y677698D02*
X84601D01*
X20000Y683698D02*
X78601D01*
X24469Y648800D02*
Y690017D01*
X30470Y648800D02*
Y690229D01*
X36470Y646551D02*
Y693345D01*
X60469Y417900D02*
Y701829D01*
X41235Y701698D02*
X60601D01*
X150469Y664072D02*
Y669400D01*
X38643Y695698D02*
X66601D01*
X20000Y717015D02*
Y730838D01*
X24469Y718583D02*
Y729134D01*
X20000Y719698D02*
X42601D01*
X20000Y725698D02*
X36601D01*
X48469Y417900D02*
Y713829D01*
X42470Y417900D02*
Y719829D01*
X54469Y417900D02*
Y707829D01*
X32301Y729997D02*
X115634Y646665D01*
X36470Y715255D02*
Y725829D01*
X30470Y718371D02*
Y729361D01*
X41066Y707698D02*
X54601D01*
X38012Y713698D02*
X48601D01*
X249369Y659698D02*
X253023D01*
X252469Y658606D02*
Y662798D01*
X236336Y646665D02*
X257551Y667880D01*
X154341Y660200D02*
X221429D01*
X148843Y665698D02*
X226927D01*
X255369D02*
X358600D01*
X257551Y667880D02*
X358927D01*
X264909Y659698D02*
X275023D01*
X286909D02*
X362110D01*
X264469Y660326D02*
Y667880D01*
X258469Y662982D02*
Y667880D01*
X282469Y662837D02*
Y667880D01*
X276469Y661364D02*
Y667880D01*
X174469Y660200D02*
Y669400D01*
X168469Y660200D02*
Y669400D01*
X186469Y660200D02*
Y669400D01*
X180469Y660200D02*
Y669400D01*
X156469Y660200D02*
Y669400D01*
X145141D02*
X154341Y660200D01*
X145141Y669400D02*
X230629Y669400D01*
X162469Y660200D02*
Y669400D01*
X198469Y660200D02*
Y669400D01*
X192469Y660200D02*
Y669400D01*
X210469Y660200D02*
Y669400D01*
X204469Y660200D02*
Y669400D01*
X222469Y661240D02*
Y669400D01*
X216469Y660200D02*
Y669400D01*
X221429Y660200D02*
X230629Y669400D01*
X228469Y667240D02*
Y669400D01*
X226670Y1079697D02*
X255896D01*
X240203Y1061697D02*
X273691D01*
X234203Y1067697D02*
X271338D01*
X226670Y1085697D02*
X253286D01*
X226670Y1091697D02*
X257748D01*
X226670Y1097697D02*
X262235D01*
X226670Y1103697D02*
X261900D01*
X258469Y1043431D02*
Y1078401D01*
X264469Y1037431D02*
Y1079568D01*
X267246Y1085697D02*
X273739D01*
X270469Y1031431D02*
Y1088967D01*
X262784Y1091697D02*
X267739D01*
X264469Y1090764D02*
Y1094967D01*
X234469Y1067431D02*
Y1130000D01*
X228469Y1073431D02*
Y1130000D01*
X246469Y1055431D02*
Y1130000D01*
X240469Y1061431D02*
Y1130000D01*
X226670Y1115697D02*
X259426D01*
X226670Y1130000D02*
X226670Y1075230D01*
X226670Y1109697D02*
X261900D01*
X226670Y1121697D02*
X261943D01*
X258469Y1091931D02*
Y1130000D01*
X252469Y1049431D02*
Y1130000D01*
X270900Y1101264D02*
Y1110938D01*
X261900Y1099400D02*
Y1110938D01*
X270469Y1121996D02*
Y1130000D01*
X264469Y1123028D02*
Y1130000D01*
X252202Y1049697D02*
X289205D01*
X276469Y1025431D02*
Y1060210D01*
X278909Y1059993D02*
X291184Y1047718D01*
X226670Y1075230D02*
X319000Y982900D01*
X246203Y1055697D02*
X283205D01*
X228203Y1073697D02*
X276380D01*
X280221D02*
X285739D01*
X288469Y1013431D02*
Y1050433D01*
X282469Y1019431D02*
Y1056433D01*
X285262Y1067697D02*
X291739D01*
X288469Y1063161D02*
Y1070967D01*
X289932Y1061697D02*
X297739D01*
X285273Y1066357D02*
X296230Y1055400D01*
X264636Y1079697D02*
X279739D01*
X276469Y1073722D02*
Y1082967D01*
X263218Y1096218D02*
X302818Y1056618D01*
X270900Y1101264D02*
X307864Y1064300D01*
X270900Y1103697D02*
X279489D01*
X276469Y1095695D02*
Y1130000D01*
X274467Y1097697D02*
X279490D01*
X270900Y1109697D02*
X283429D01*
X282469Y1072589D02*
Y1076967D01*
X288469Y1083695D02*
Y1089398D01*
X292467Y1079697D02*
X305230D01*
X286467Y1085697D02*
X299230D01*
X282469Y1089695D02*
Y1092559D01*
Y1108841D02*
Y1130000D01*
X280467Y1091697D02*
X283436D01*
X288469Y1112002D02*
Y1130000D01*
X318469Y443123D02*
Y667880D01*
Y983431D02*
Y1046400D01*
X319000Y982900D02*
X335500D01*
X324469D02*
Y1046400D01*
X300469Y1001431D02*
Y1046400D01*
X294469Y1007431D02*
Y1046400D01*
X312469Y989431D02*
Y1046400D01*
X306469Y995431D02*
Y1046400D01*
X348469Y432402D02*
Y667880D01*
X324469Y443437D02*
Y667880D01*
X354469Y434313D02*
Y667880D01*
X360469Y957931D02*
Y1046400D01*
X342469Y975931D02*
Y1046400D01*
X336469Y981931D02*
Y1046400D01*
X354469Y963931D02*
Y1046400D01*
X348469Y969931D02*
Y1046400D01*
X296230Y1055400D02*
X305057D01*
X300469D02*
Y1058967D01*
X294469Y1057161D02*
Y1064967D01*
X300469Y1071695D02*
Y1084458D01*
X295933Y1055697D02*
X304151D01*
X294893Y1090035D02*
X319909Y1065018D01*
X318469Y1064300D02*
Y1066458D01*
X312469Y1064300D02*
Y1072458D01*
X330469Y982900D02*
Y1046400D01*
X307864Y1064300D02*
X320846D01*
X304467Y1067697D02*
X317230D01*
X306469Y1065695D02*
Y1078458D01*
X348469Y1072700D02*
Y1087259D01*
X342469Y1072700D02*
Y1089251D01*
X366469Y615418D02*
Y658820D01*
X360469Y613173D02*
Y661005D01*
X369090Y659698D02*
X391103D01*
X365130Y683330D02*
X368800Y687000D01*
Y707698D02*
X387897D01*
X368800Y701698D02*
X389739D01*
X368800Y713698D02*
X395600D01*
X372469Y610048D02*
Y664417D01*
X378469Y427233D02*
Y667880D01*
X390469Y658236D02*
Y667880D01*
X384469Y433233D02*
Y667880D01*
X390469Y683330D02*
Y701035D01*
X396469Y663165D02*
Y667880D01*
Y683330D02*
Y699736D01*
X368800Y767698D02*
X388459D01*
X368800Y687000D02*
Y949600D01*
Y761698D02*
X388493D01*
X368800Y821698D02*
X388759D01*
X366469Y951931D02*
Y1046400D01*
X345693Y1090035D02*
X363027Y1072700D01*
X368800Y827698D02*
X388248D01*
X335500Y982900D02*
X368800Y949600D01*
X378469Y683330D02*
Y1046400D01*
X372469Y683330D02*
Y1046400D01*
X390469Y712033D02*
Y759235D01*
X384469Y683330D02*
Y1046400D01*
X390469Y770233D02*
Y819735D01*
Y830733D02*
Y1046400D01*
X396469Y714567D02*
Y757936D01*
Y832032D02*
Y1046400D01*
Y772767D02*
Y818436D01*
X298467Y1073697D02*
X311230D01*
X294469Y1077695D02*
Y1089874D01*
X311958Y1085697D02*
X350030D01*
X301257Y1096399D02*
X324955Y1072700D01*
X301692Y1097697D02*
X304890D01*
X305958Y1091697D02*
X308836D01*
X306469Y1091186D02*
Y1094252D01*
X318469Y1079186D02*
Y1089470D01*
X324469Y1073186D02*
Y1092930D01*
X336469Y1072700D02*
Y1090307D01*
X330469Y1072700D02*
Y1097101D01*
X312469Y1085186D02*
Y1089753D01*
X327092Y1097697D02*
X330290D01*
X323147Y1091697D02*
X334236D01*
X301694Y1103697D02*
X304889D01*
X300469Y1106589D02*
Y1130000D01*
X306469Y1107148D02*
Y1130000D01*
X297754Y1109697D02*
X308829D01*
X294469Y1111527D02*
Y1130000D01*
X318469Y1111930D02*
Y1130000D01*
X312469Y1111647D02*
Y1130000D01*
X327094Y1103697D02*
X330289D01*
X324469Y1108471D02*
Y1130000D01*
X330469Y1104299D02*
Y1130000D01*
X323154Y1109697D02*
X334229D01*
X336469Y1111093D02*
Y1130000D01*
X348469Y1109764D02*
Y1130000D01*
X342469Y1112149D02*
Y1130000D01*
X317958Y1079697D02*
X356030D01*
X354469Y1072700D02*
Y1081258D01*
X324955Y1072700D02*
X363027D01*
X323958Y1073697D02*
X362030D01*
X356758Y1091697D02*
X359636D01*
X352492Y1097697D02*
X355690D01*
X360469Y1087986D02*
Y1091094D01*
X352057Y1096399D02*
X368655Y1079800D01*
X360469Y1072700D02*
Y1075258D01*
X372469Y1079800D02*
Y1090699D01*
X396469Y1079800D02*
Y1088200D01*
X384469Y1079800D02*
Y1089672D01*
X366469Y1081986D02*
Y1089204D01*
X373947Y1091697D02*
X382444D01*
X390469Y1079800D02*
Y1088200D01*
X379691Y1094450D02*
X385941Y1088200D01*
X352494Y1103697D02*
X355689D01*
X354469Y1093986D02*
Y1130000D01*
X373954Y1109697D02*
X382439D01*
X348554D02*
X359629D01*
X360469Y1110306D02*
Y1130000D01*
X372469Y1110701D02*
Y1130000D01*
X366469Y1112196D02*
Y1130000D01*
X379691Y1094450D02*
Y1106950D01*
X378469Y1079800D02*
Y1130000D01*
X379691Y1106950D02*
X385941Y1113200D01*
X384469Y1111728D02*
Y1130000D01*
X390469Y1113200D02*
Y1130000D01*
X396469Y1113200D02*
Y1130000D01*
X166113Y449699D02*
X400935D01*
X160347Y455699D02*
X406935D01*
X399768Y491699D02*
X442935D01*
X402469Y451233D02*
Y461630D01*
X402527Y461699D02*
X412935D01*
X404004Y467699D02*
X418935D01*
X403874Y473699D02*
X424935D01*
X402469Y489770D02*
Y518830D01*
X402912Y479699D02*
X430935D01*
X404148Y485699D02*
X436935D01*
X414469Y463233D02*
Y667880D01*
X408469Y457233D02*
Y667880D01*
X420469Y469233D02*
Y667880D01*
X426469Y475233D02*
Y667923D01*
X402469Y546970D02*
Y575273D01*
X432469Y481233D02*
Y672464D01*
X438469Y487233D02*
Y678464D01*
X444469Y493233D02*
Y684464D01*
X383663Y419699D02*
X455000D01*
X389663Y425699D02*
X455000D01*
X395663Y431699D02*
X455000D01*
X401663Y437699D02*
X457435D01*
X407663Y443699D02*
X463435D01*
X371956Y497699D02*
X448935D01*
X413663Y449699D02*
X469435D01*
X419663Y455699D02*
X475435D01*
X425663Y461699D02*
X481435D01*
X431663Y467699D02*
X487435D01*
X437663Y473699D02*
X493435D01*
X443663Y479699D02*
X499435D01*
X449663Y485699D02*
X505435D01*
X455662Y491699D02*
X511435D01*
X20000Y503699D02*
X454935D01*
X162695Y509698D02*
X460935D01*
X166766Y515699D02*
X466935D01*
X373636Y422400D02*
X506518Y555282D01*
X372595Y551698D02*
X502934D01*
X160878Y569698D02*
X569139D01*
X369617Y557698D02*
X735935D01*
X166254Y563698D02*
X659201D01*
X403956Y521698D02*
X472934D01*
X450469Y499233D02*
Y690464D01*
X402691Y527699D02*
X478935D01*
X404120Y533699D02*
X484935D01*
X403624Y539698D02*
X490934D01*
X403340Y545699D02*
X496935D01*
X402815Y575698D02*
X563139D01*
X403981Y581698D02*
X557139D01*
X365498Y683698D02*
X404939D01*
X372273Y667880D02*
X425813D01*
X365130Y683330D02*
X405318D01*
X402469Y603527D02*
Y632630D01*
Y660770D02*
Y667880D01*
X368800Y719698D02*
X401600D01*
X368800Y689698D02*
X403097D01*
X402469Y683330D02*
Y707839D01*
X368800Y725698D02*
X407600D01*
X368800Y743698D02*
X403693D01*
X368800Y731698D02*
X413600D01*
X368800Y737698D02*
X419600D01*
X414469Y693922D02*
Y719839D01*
X416903Y689698D02*
X420427D01*
X420469Y689740D02*
Y725839D01*
X408469Y695365D02*
Y713839D01*
Y726567D02*
Y739904D01*
X414469Y732567D02*
Y741346D01*
X416307Y743698D02*
X425600D01*
X371859Y611698D02*
X527140D01*
X20000Y617698D02*
X521139D01*
X402741Y593698D02*
X545140D01*
X398884Y605698D02*
X533139D01*
X166661Y629698D02*
X509140D01*
X402529Y641698D02*
X491333D01*
X162328Y623698D02*
X515140D01*
X372600Y665698D02*
X564385D01*
X404003Y635698D02*
X490923D01*
X404094Y647698D02*
X490435D01*
X404006Y587698D02*
X551139D01*
X404170Y599698D02*
X539140D01*
X403704Y653698D02*
X491413D01*
X403229Y659698D02*
X490870D01*
X368800Y695698D02*
X426427D01*
X426469Y695740D02*
Y731839D01*
X399861Y701698D02*
X432427D01*
X402328Y707698D02*
X438427D01*
X408328Y713698D02*
X444427D01*
X414328Y719698D02*
X450427D01*
X420328Y725698D02*
X456427D01*
X426328Y731698D02*
X462427D01*
X431702Y671698D02*
X560440D01*
X449702Y689698D02*
X526278D01*
X437702Y677698D02*
X563369D01*
X443702Y683698D02*
X756600D01*
X432469Y701740D02*
Y737839D01*
X438469Y707740D02*
Y743839D01*
X455702Y695698D02*
X527683D01*
X432328Y737698D02*
X468427D01*
X438328Y743698D02*
X474427D01*
X464000Y422924D02*
Y431536D01*
X468469Y428924D02*
Y436005D01*
X480469Y430395D02*
Y448005D01*
X464163Y431699D02*
X513600D01*
X474469Y431229D02*
Y442005D01*
X470163Y437699D02*
X513600D01*
X476163Y443699D02*
X513600D01*
X486224Y425699D02*
X491999D01*
X486469Y425314D02*
Y454005D01*
X510401Y425699D02*
X513600D01*
X492469Y426284D02*
Y460005D01*
X482163Y449699D02*
X513600D01*
X498469Y429971D02*
Y466005D01*
X488163Y455699D02*
X513600D01*
X494163Y461699D02*
X513600D01*
X456469Y436733D02*
Y492505D01*
X462469Y442733D02*
Y498505D01*
X468469Y448733D02*
Y504505D01*
X474469Y454733D02*
Y510505D01*
X480469Y460733D02*
Y516505D01*
X456469Y505233D02*
Y696464D01*
X486469Y466732D02*
Y522505D01*
X492469Y472733D02*
Y528505D01*
X504468Y429826D02*
Y472005D01*
X510468Y425608D02*
Y478005D01*
X498469Y478732D02*
Y534505D01*
X504468Y484733D02*
Y540505D01*
X500163Y467699D02*
X513608D01*
X510468Y490732D02*
Y546505D01*
X522600Y455699D02*
X546000D01*
X522600Y461699D02*
X546000D01*
X522600Y443699D02*
X546000D01*
X522600Y449699D02*
X546000D01*
X506163Y473699D02*
X517999D01*
X516469Y472168D02*
Y484005D01*
X512163Y479699D02*
X523999D01*
X518162Y485699D02*
X529999D01*
X522600Y431699D02*
X546000D01*
X522600Y437699D02*
X546000D01*
X522600Y419699D02*
X546000D01*
X522600Y425699D02*
X546000D01*
X524727Y467699D02*
X546000D01*
X530727Y473699D02*
X546000D01*
X536727Y479699D02*
X549135D01*
X522468Y478168D02*
Y490005D01*
X456318Y436582D02*
X554118Y534382D01*
X514918Y470618D02*
X566891Y522590D01*
X464000Y431536D02*
X559164Y526700D01*
X461662Y497699D02*
X517435D01*
X516469Y496732D02*
Y547600D01*
X467663Y503699D02*
X523435D01*
X522468Y502733D02*
Y547600D01*
X528469Y484168D02*
Y496004D01*
X534468Y490168D02*
Y502005D01*
X542727Y485699D02*
X555135D01*
X522600Y465572D02*
X571502Y514474D01*
X524162Y491699D02*
X535999D01*
X540468Y496168D02*
Y508004D01*
X530163Y497699D02*
X541999D01*
X536162Y503699D02*
X547999D01*
X498469Y547233D02*
Y631344D01*
X492469Y541232D02*
Y633334D01*
X473662Y509698D02*
X529435D01*
X479663Y515699D02*
X535434D01*
X504468Y553232D02*
Y634369D01*
X522468Y556600D02*
Y616369D01*
X510468Y556600D02*
Y628369D01*
X534468Y514732D02*
Y547600D01*
X528469Y508732D02*
Y547600D01*
Y556600D02*
Y610369D01*
X516469Y556600D02*
Y622369D01*
X540468Y556600D02*
Y598369D01*
X534468Y556600D02*
Y604369D01*
X462469Y511233D02*
Y702464D01*
X468469Y517233D02*
Y708464D01*
X474469Y523233D02*
Y714464D01*
X480469Y529232D02*
Y720464D01*
X486469Y535233D02*
Y726464D01*
X461702Y701698D02*
X536462D01*
X504468Y647097D02*
Y744464D01*
X534468Y617097D02*
Y684400D01*
X528469Y623097D02*
Y686016D01*
X492469Y662201D02*
Y732464D01*
X498469Y664191D02*
Y738464D01*
X485662Y521698D02*
X541435D01*
X491662Y527699D02*
X547435D01*
X497663Y533699D02*
X553434D01*
X503662Y539698D02*
X601675D01*
X509662Y545699D02*
X601736D01*
X503697Y635140D02*
X573254Y565584D01*
X511564Y547600D02*
X603097D01*
X509700Y556600D02*
X646564D01*
X542163Y509698D02*
X553999D01*
X540468Y520732D02*
Y547600D01*
X545867Y605698D02*
X756600D01*
X539867Y611698D02*
X756600D01*
X521867Y629698D02*
X560171D01*
X515868Y635698D02*
X558061D01*
X533867Y617698D02*
X756600D01*
X527868Y623698D02*
X756600D01*
X467702Y707698D02*
X542462D01*
X473702Y713698D02*
X548462D01*
X503456Y653698D02*
X756600D01*
X479702Y719698D02*
X554462D01*
X485702Y725698D02*
X560462D01*
X491702Y731698D02*
X566462D01*
X497702Y737698D02*
X571639D01*
X503702Y743698D02*
X626791D01*
X509868Y641698D02*
X564018D01*
X540468Y611097D02*
Y691562D01*
X504408Y647158D02*
X578300Y573266D01*
X504434Y647698D02*
X756600D01*
X540100Y691194D02*
X576534Y727628D01*
X533029Y698265D02*
X571115Y736351D01*
X503999Y659698D02*
X756600D01*
X539922Y689698D02*
X756600D01*
X544604Y695698D02*
X756600D01*
X368800Y773698D02*
X397400D01*
X368800Y749698D02*
X403658D01*
X402469Y720567D02*
Y766039D01*
X368800Y779698D02*
X403400D01*
X368800Y785698D02*
X409400D01*
X368800Y791698D02*
X415400D01*
X368800Y797698D02*
X421400D01*
X420469Y738567D02*
Y784039D01*
X416342Y749698D02*
X431600D01*
X426469Y744567D02*
Y790039D01*
X408469Y753565D02*
Y772039D01*
Y784767D02*
Y800404D01*
X414469Y752122D02*
Y778039D01*
Y790767D02*
Y801846D01*
X368800Y809698D02*
X403448D01*
X402469Y778767D02*
Y820734D01*
X368800Y803698D02*
X403959D01*
X402469Y829734D02*
Y921428D01*
X408469Y814064D02*
Y820734D01*
Y829734D02*
Y918302D01*
X420469Y796767D02*
Y820734D01*
X414469Y812622D02*
Y820734D01*
X416041Y803698D02*
X427400D01*
X426469Y802767D02*
Y820734D01*
X414469Y829734D02*
Y921991D01*
X420469Y829734D02*
Y957966D01*
X432469Y829734D02*
Y957966D01*
X426469Y829734D02*
Y957966D01*
X368800Y755698D02*
X437600D01*
X401107Y761698D02*
X443600D01*
X401773Y707143D02*
X497630Y803000D01*
X395409Y713507D02*
X492584Y810682D01*
X404128Y767698D02*
X449600D01*
X401773Y765343D02*
X448330Y811900D01*
X410128Y773698D02*
X455600D01*
X416128Y779698D02*
X461600D01*
X432469Y750567D02*
Y796039D01*
X438469Y756567D02*
Y802039D01*
X429349Y669344D02*
X525805Y765800D01*
X416378Y685649D02*
X522034Y791305D01*
X422128Y785698D02*
X467600D01*
X416552Y809698D02*
X433400D01*
X428128Y791698D02*
X473600D01*
X434128Y797698D02*
X479600D01*
X368800Y815698D02*
X439400D01*
X368800Y833698D02*
X756600D01*
X368800Y839698D02*
X756600D01*
X368800Y845698D02*
X756600D01*
X368800Y881698D02*
X756600D01*
X368800Y887698D02*
X756600D01*
X368800Y851698D02*
X756600D01*
X368800Y857698D02*
X756600D01*
X438469Y814767D02*
Y820734D01*
X432469Y808767D02*
Y820734D01*
X395409Y771707D02*
X443284Y819582D01*
X400162Y820734D02*
X445255D01*
X400162Y829734D02*
X730238D01*
X368800Y863698D02*
X756600D01*
X368800Y869698D02*
X756600D01*
X368800Y875698D02*
X756600D01*
X368800Y923698D02*
X401486D01*
X402469Y929173D02*
Y958594D01*
X368800Y929698D02*
X402854D01*
X358702Y959698D02*
X401871D01*
X385941Y1088200D02*
X398441D01*
X352702Y965698D02*
X402091D01*
X408469Y932298D02*
Y955468D01*
X402469Y966339D02*
Y1046400D01*
X414469Y928609D02*
Y957966D01*
Y966966D02*
Y1046400D01*
X420469Y966966D02*
Y1046400D01*
X408469Y969464D02*
Y1046400D01*
X432469Y966966D02*
Y1046400D01*
X426469Y966966D02*
Y1046400D01*
X402469Y1079800D02*
Y1092227D01*
X401939Y1091697D02*
X503966D01*
X398441Y1088200D02*
X404691Y1094450D01*
X385941Y1113200D02*
X398441D01*
X402469Y1109173D02*
Y1130000D01*
X401944Y1109697D02*
X503959D01*
X398441Y1113200D02*
X404691Y1106950D01*
X420469Y1079800D02*
Y1130000D01*
X414469Y1079800D02*
Y1130000D01*
X432469Y1079800D02*
Y1130000D01*
X426469Y1079800D02*
Y1130000D01*
X404691Y1094450D02*
Y1106950D01*
X408469Y1079800D02*
Y1130000D01*
X404691Y1097697D02*
X500020D01*
X404691Y1103697D02*
X500019D01*
X368800Y911698D02*
X756600D01*
X368800Y917698D02*
X756600D01*
X368800Y893698D02*
X756600D01*
X368800Y905698D02*
X756600D01*
X340702Y977698D02*
X756600D01*
X318202Y983698D02*
X756600D01*
X364702Y953698D02*
X756600D01*
X346702Y971698D02*
X756600D01*
X413746Y929698D02*
X756600D01*
X368800Y935698D02*
X756600D01*
X368800Y899698D02*
X756600D01*
X415114Y923698D02*
X756600D01*
X413662Y957966D02*
X688038D01*
X413662Y966966D02*
X688038D01*
X368800Y941698D02*
X756600D01*
X368800Y947698D02*
X756600D01*
X264202Y1037698D02*
X736239D01*
X258202Y1043698D02*
X730239D01*
X276203Y1025697D02*
X748239D01*
X270203Y1031697D02*
X742238D01*
X273374Y1115697D02*
X710633D01*
X270858Y1121697D02*
X716633D01*
X226670Y1127697D02*
X1035000D01*
X226670Y1130000D02*
X1035000D01*
X300202Y1001697D02*
X756600D01*
X294202Y1007698D02*
X756600D01*
X312202Y989698D02*
X756600D01*
X306202Y995698D02*
X756600D01*
X368655Y1079800D02*
X580783D01*
X362758Y1085697D02*
X581201D01*
X288202Y1013698D02*
X756600D01*
X282202Y1019697D02*
X754239D01*
X294366Y1046400D02*
X679638D01*
X444469Y713740D02*
Y749839D01*
X450469Y719740D02*
Y755839D01*
X444328Y749698D02*
X480427D01*
X450328Y755698D02*
X486427D01*
X440128Y803698D02*
X485600D01*
X444469Y762567D02*
Y808039D01*
X456328Y761698D02*
X492427D01*
X446128Y809698D02*
X491600D01*
X456469Y725740D02*
Y761839D01*
X462469Y731740D02*
Y767839D01*
X468469Y737740D02*
Y773839D01*
X474469Y743740D02*
Y779839D01*
X480469Y749740D02*
Y785839D01*
X486469Y755740D02*
Y791839D01*
X462328Y767698D02*
X498427D01*
X492469Y761740D02*
Y797839D01*
X456469Y774567D02*
Y811900D01*
X450469Y768567D02*
Y811900D01*
X448330D02*
X494823D01*
X462469Y780567D02*
Y811900D01*
X444469Y829734D02*
Y957966D01*
X456469Y829734D02*
Y957966D01*
X474469Y792567D02*
Y811900D01*
X468469Y786566D02*
Y811900D01*
X486469Y804566D02*
Y811900D01*
X480469Y798567D02*
Y811900D01*
X492469Y829734D02*
Y957966D01*
X480469Y829734D02*
Y957966D01*
X510468Y641097D02*
Y750464D01*
X516469Y635097D02*
Y756464D01*
X509702Y749698D02*
X622565D01*
X522468Y629097D02*
Y762464D01*
X468328Y773698D02*
X504427D01*
X474328Y779698D02*
X510427D01*
X515702Y755698D02*
X547136D01*
X521702Y761698D02*
X545969D01*
X528469Y696514D02*
Y766357D01*
X530526Y767698D02*
X601737D01*
X528469Y779243D02*
Y783597D01*
X532675Y773698D02*
X598565D01*
X526924Y779698D02*
X592565D01*
X504468Y773740D02*
Y803000D01*
X498469Y767740D02*
Y803000D01*
X480328Y785698D02*
X516427D01*
X510468Y779740D02*
Y803000D01*
X492328Y797698D02*
X519552D01*
X516469Y785740D02*
Y803000D01*
X486328Y791698D02*
X522034D01*
X497630Y803000D02*
X521438D01*
X524575Y779703D02*
X530070Y785199D01*
X540468Y705705D02*
Y793201D01*
X534468Y699705D02*
Y793201D01*
X530507Y785698D02*
X586565D01*
X531034Y791698D02*
X580565D01*
X531433Y793201D02*
X579062D01*
X438469Y829734D02*
Y957966D01*
Y966966D02*
Y1046400D01*
X462469Y829734D02*
Y957966D01*
X450469Y829734D02*
Y957966D01*
Y966966D02*
Y1046400D01*
X444469Y966966D02*
Y1046400D01*
X462469Y966966D02*
Y1046400D01*
X456469Y966966D02*
Y1046400D01*
X474469Y829734D02*
Y957966D01*
X468469Y829734D02*
Y957966D01*
X498469Y829734D02*
Y957966D01*
X486469Y829734D02*
Y957966D01*
X474469Y966966D02*
Y1046400D01*
X468469Y966966D02*
Y1046400D01*
X504468Y966966D02*
Y1046400D01*
X486469Y966966D02*
Y1046400D01*
X468469Y1079800D02*
Y1130000D01*
X462469Y1079800D02*
Y1130000D01*
X480469Y966966D02*
Y1046400D01*
X474469Y1079800D02*
Y1130000D01*
X444469Y1079800D02*
Y1130000D01*
X438469Y1079800D02*
Y1130000D01*
X456469Y1079800D02*
Y1130000D01*
X450469Y1079800D02*
Y1130000D01*
X492469Y1079800D02*
Y1130000D01*
X486469Y1079800D02*
Y1130000D01*
X498469Y966966D02*
Y1046400D01*
X492469Y966966D02*
Y1046400D01*
X498469Y1079800D02*
Y1130000D01*
X480469Y1079800D02*
Y1130000D01*
X504468Y1079800D02*
Y1091320D01*
Y1110080D02*
Y1130000D01*
X510468Y829734D02*
Y957966D01*
X504468Y829734D02*
Y957966D01*
X522468Y829734D02*
Y957966D01*
X516469Y829734D02*
Y957966D01*
X510468Y966966D02*
Y1046400D01*
Y1079800D02*
Y1089219D01*
X522468Y966966D02*
Y1046400D01*
X516469Y966966D02*
Y1046400D01*
X528469Y829734D02*
Y957966D01*
Y966966D02*
Y1046400D01*
X540468Y829734D02*
Y957966D01*
X534468Y829734D02*
Y957966D01*
Y966966D02*
Y1046400D01*
Y1079800D02*
Y1089385D01*
X540468Y966966D02*
Y1046400D01*
Y1079800D02*
Y1089899D01*
X516469Y1079800D02*
Y1090519D01*
X518277Y1091697D02*
X529366D01*
X522222Y1097697D02*
X525420D01*
X516469Y1110881D02*
Y1130000D01*
X510468Y1112181D02*
Y1130000D01*
X522224Y1103697D02*
X525419D01*
X518284Y1109697D02*
X529359D01*
X528469Y1079800D02*
Y1092490D01*
X522468Y1079800D02*
Y1098832D01*
X543677Y1091697D02*
X554766D01*
X528469Y1108910D02*
Y1130000D01*
X522468Y1102569D02*
Y1130000D01*
X543684Y1109697D02*
X554759D01*
X534468Y1112016D02*
Y1130000D01*
X540468Y1111501D02*
Y1130000D01*
X558468Y20000D02*
Y35682D01*
X555100Y39050D02*
Y51550D01*
X561350Y32800D02*
X573850D01*
X555100Y39050D02*
X561350Y32800D01*
X555100Y51550D02*
X561350Y57800D01*
X564468D02*
Y79235D01*
X561350Y57800D02*
X573850D01*
X570468Y20000D02*
Y32800D01*
X564468Y20000D02*
Y32800D01*
X576468Y20000D02*
Y35418D01*
X573850Y32800D02*
X580100Y39050D01*
X570468Y57800D02*
Y79163D01*
X546469Y20000D02*
Y117804D01*
Y171432D02*
Y233902D01*
X552468Y20000D02*
Y123805D01*
X546469Y244032D02*
Y282037D01*
Y285064D02*
Y294737D01*
X552468Y177432D02*
Y232065D01*
Y245869D02*
Y372705D01*
X558468Y54918D02*
Y83310D01*
Y97290D02*
Y129804D01*
X576468Y55182D02*
Y82979D01*
Y97621D02*
Y147804D01*
X564468Y101365D02*
Y135804D01*
X570468Y101437D02*
Y141804D01*
X576468Y201432D02*
Y307468D01*
X570468Y195432D02*
Y313468D01*
X580100Y39050D02*
Y51550D01*
X573850Y57800D02*
X580100Y51550D01*
X582468Y20000D02*
Y153804D01*
X588468Y20000D02*
Y159804D01*
X555910Y233699D02*
X608735D01*
X588468Y213432D02*
Y266127D01*
X558262Y239699D02*
X614735D01*
X553219Y245699D02*
X620735D01*
X594468Y20000D02*
Y165804D01*
X600468Y20000D02*
Y171804D01*
X606468Y20000D02*
Y177804D01*
X612468Y20000D02*
Y183804D01*
X594468Y219432D02*
Y263900D01*
X600468Y225432D02*
Y269336D01*
X612468Y237432D02*
Y252787D01*
X588468Y275574D02*
Y295468D01*
X582468Y207432D02*
Y301468D01*
X565918Y318018D02*
X612466Y271470D01*
X546385Y281699D02*
X602237D01*
X594468Y277801D02*
Y289468D01*
X598683Y275699D02*
X608237D01*
X573600Y323064D02*
X620148Y276516D01*
X606468Y231432D02*
Y277468D01*
X600468Y272365D02*
Y283468D01*
X600539Y269699D02*
X612466D01*
Y263512D02*
Y271470D01*
X612468Y284196D02*
Y316898D01*
X618468Y278196D02*
Y317058D01*
X614965Y281699D02*
X628100D01*
X608965Y287699D02*
X628100D01*
X546469Y297764D02*
Y366704D01*
X546152Y293699D02*
X590237D01*
X551463Y371699D02*
X564600D01*
X555000Y377699D02*
X564600D01*
X555000Y383699D02*
X564600D01*
X555000Y407699D02*
X564600D01*
X576468Y320196D02*
Y412532D01*
X582468Y314196D02*
Y413366D01*
X555000Y401699D02*
X564600D01*
X555000Y413699D02*
X564600D01*
X555000Y389699D02*
X564600D01*
X555000Y395699D02*
X564600D01*
X555000Y419699D02*
X564600D01*
Y321200D02*
Y430436D01*
X573600Y323064D02*
Y414301D01*
X555000Y425699D02*
X564600D01*
X555000Y431699D02*
X564781D01*
X573600Y425699D02*
X575998D01*
X588468Y308196D02*
Y422705D01*
X600468Y296196D02*
Y421450D01*
X594468Y302196D02*
Y428705D01*
X573600Y424099D02*
Y428205D01*
X576468Y425868D02*
Y428703D01*
X591462Y425699D02*
X597623D01*
X579925Y431699D02*
X584734D01*
X573600Y323699D02*
X608311D01*
X573600Y329699D02*
X612462D01*
X573600Y335699D02*
X628100D01*
X573600Y341699D02*
X628100D01*
X573600Y365699D02*
X628100D01*
X573600Y371699D02*
X627737D01*
X573600Y347699D02*
X628100D01*
X573600Y353699D02*
X628100D01*
X590965Y305699D02*
X628100D01*
X584965Y311699D02*
X628100D01*
X602965Y293699D02*
X628100D01*
X596965Y299699D02*
X628100D01*
X578965Y317699D02*
X611101D01*
X618138Y329699D02*
X628100D01*
X573600Y359699D02*
X628100D01*
X573600Y389699D02*
X609030D01*
X573600Y395699D02*
X612309D01*
X573600Y377699D02*
X621737D01*
X573600Y383699D02*
X612545D01*
X582928Y413699D02*
X601302D01*
X585582Y419699D02*
X602334D01*
X573600Y401699D02*
X631598D01*
X573600Y407699D02*
X625597D01*
X612468Y329702D02*
Y383744D01*
X606468Y290196D02*
Y408807D01*
X616639Y382796D02*
X628100Y371336D01*
X612468Y395796D02*
Y410217D01*
X614758Y413699D02*
X617302D01*
X615003Y416240D02*
X618078Y419314D01*
X618468Y20000D02*
Y189804D01*
Y243432D02*
Y251314D01*
X624468Y20000D02*
Y195804D01*
X630468Y20000D02*
Y201804D01*
X619682Y251699D02*
X626735D01*
X623951Y257699D02*
X628100D01*
X621466Y263699D02*
X628100D01*
X636468Y20000D02*
Y207804D01*
X642468Y20000D02*
Y213804D01*
X637100Y251699D02*
X640235D01*
X637100Y257699D02*
X644300D01*
X637100Y263699D02*
X644300D01*
X637100Y269699D02*
X644300D01*
X621466Y263512D02*
Y273334D01*
X624468Y249432D02*
Y374967D01*
X621466Y269699D02*
X628100D01*
Y253064D02*
Y371336D01*
X620794Y275699D02*
X628100D01*
X637100Y287699D02*
X644300D01*
X637100Y251200D02*
Y373200D01*
X642468Y253932D02*
Y390828D01*
X637100Y281699D02*
X644300D01*
Y255764D02*
Y388996D01*
X637100Y305699D02*
X644300D01*
X637100Y311699D02*
X644300D01*
X637100Y293699D02*
X644300D01*
X637100Y299699D02*
X644300D01*
X648468Y20000D02*
Y219804D01*
X654468Y20000D02*
Y225804D01*
X653300Y257699D02*
X658935D01*
X637100Y275699D02*
X644300D01*
X653300Y263699D02*
X664935D01*
X653300Y269699D02*
X670935D01*
X684468Y20000D02*
Y255804D01*
X690468Y20000D02*
Y261804D01*
X696468Y20000D02*
Y267804D01*
X702468Y20000D02*
Y273804D01*
X660468Y20000D02*
Y231804D01*
X666468Y20000D02*
Y237804D01*
X672468Y20000D02*
Y243804D01*
X678468Y20000D02*
Y249804D01*
X653300Y253900D02*
Y390860D01*
X654468Y253232D02*
Y428004D01*
X653300Y275699D02*
X676935D01*
X653300Y281699D02*
X682935D01*
X653300Y287699D02*
X688935D01*
X653300Y305699D02*
X661370D01*
X653300Y293699D02*
X694935D01*
X653300Y299699D02*
X700935D01*
X666468Y265232D02*
Y303551D01*
X660468Y259232D02*
Y306859D01*
X672468Y271232D02*
Y307033D01*
X678468Y277232D02*
Y386886D01*
X671462Y305699D02*
X706935D01*
X708468Y307232D02*
Y383608D01*
X619499Y317699D02*
X628100D01*
X618468Y329542D02*
Y380967D01*
X622289Y323699D02*
X628100D01*
X637100Y329699D02*
X644300D01*
X637100Y335699D02*
X644300D01*
X634465Y377699D02*
X644300D01*
X637100Y341699D02*
X644300D01*
X637100Y347699D02*
X644300D01*
X637100Y317699D02*
X644300D01*
X637100Y323699D02*
X644300D01*
X637100Y365699D02*
X644300D01*
X637100Y371699D02*
X644300D01*
X637100Y353699D02*
X644300D01*
X637100Y359699D02*
X644300D01*
X623003Y389160D02*
X635782Y376382D01*
X624468Y387695D02*
Y408644D01*
X628465Y383699D02*
X644300D01*
X624639Y408657D02*
X644300Y388996D01*
X618468Y396331D02*
Y411380D01*
X623030Y389699D02*
X643597D01*
X619751Y395699D02*
X637598D01*
X636468Y375499D02*
Y396828D01*
X630468Y381695D02*
Y402828D01*
X642468Y403556D02*
Y422400D01*
X636468Y409556D02*
Y422400D01*
X630468Y418378D02*
Y422400D01*
X638427Y431400D02*
X645136D01*
X653300Y311699D02*
X659511D01*
X653300Y317699D02*
X661916D01*
X653300Y323699D02*
X661916D01*
X653300Y329699D02*
X661916D01*
X653300Y347699D02*
X661916D01*
X653300Y353699D02*
X661916D01*
X653300Y335699D02*
X661916D01*
X653300Y341699D02*
X661916D01*
X653300Y359699D02*
X661916D01*
X653300Y365699D02*
X661916D01*
X670916Y315912D02*
Y382156D01*
X672468Y314068D02*
Y382648D01*
X653300Y371699D02*
X661916D01*
X653300Y377699D02*
X661916D01*
X675741Y383699D02*
X708319D01*
X653300D02*
X661916D01*
X631003Y415021D02*
X651982Y394042D01*
X648468Y397556D02*
Y422646D01*
X650325Y395699D02*
X668534D01*
X625811Y422400D02*
X647000D01*
X639159Y431699D02*
X645435D01*
X661916Y315912D02*
Y384020D01*
X653300Y389699D02*
X665030D01*
X663234Y387202D02*
X665057Y389025D01*
X679030Y389699D02*
X705030D01*
X555000Y377100D02*
Y472836D01*
X546000Y378964D02*
Y474700D01*
X555000Y437699D02*
X567325D01*
X555000Y443699D02*
X571617D01*
X555000Y449699D02*
X567027D01*
X555000Y467699D02*
X566882D01*
X555000Y455699D02*
X568501D01*
X555000Y461699D02*
X569536D01*
X570468Y441321D02*
Y445079D01*
Y457321D02*
Y461079D01*
X555863Y473699D02*
X571262D01*
X546469Y476699D02*
Y489440D01*
X558468Y183432D02*
Y476305D01*
X555000Y472836D02*
X568864Y486700D01*
X552468Y483032D02*
Y495440D01*
X558468Y489032D02*
Y501440D01*
X548727Y491699D02*
X561135D01*
X547318Y477882D02*
X563818Y494382D01*
X564468Y189432D02*
Y482304D01*
X570468Y473321D02*
Y486700D01*
X567863Y485699D02*
X571925D01*
X568864Y486700D02*
X572402D01*
X564468Y494920D02*
Y507440D01*
X570468Y495700D02*
Y513440D01*
X582468Y429433D02*
Y437366D01*
X579209Y426173D02*
X600218Y447182D01*
X582468Y449032D02*
Y453459D01*
X581198Y449699D02*
X627935D01*
X582928Y437699D02*
X590734D01*
X585581Y443699D02*
X596734D01*
X585573Y419809D02*
X605264Y439500D01*
X584525Y455699D02*
X633935D01*
X585003Y461699D02*
X639935D01*
X576468Y473698D02*
Y476490D01*
X580846Y467699D02*
X645935D01*
X561863Y479699D02*
X572403D01*
X567000Y495700D02*
X572402D01*
X576466Y473699D02*
X651935D01*
X582468Y464941D02*
Y477458D01*
X588468Y435433D02*
Y486700D01*
X600468Y447414D02*
Y486700D01*
X594468Y441433D02*
Y486700D01*
X584526D02*
X637138D01*
X584525Y479699D02*
X657935D01*
X585003Y485699D02*
X638172D01*
X546469Y502168D02*
Y514005D01*
X552468Y508168D02*
Y520005D01*
X554727Y497699D02*
X571627D01*
X548162Y515699D02*
X559999D01*
X546469Y526732D02*
Y547600D01*
X554162Y521698D02*
X565999D01*
X560727Y503699D02*
X573101D01*
X558468Y514168D02*
Y526004D01*
X576468Y505910D02*
Y508490D01*
X566727Y509698D02*
X574136D01*
X564468Y520168D02*
Y526700D01*
X559164D02*
X567802D01*
X557300Y535700D02*
X573102D01*
X552468Y532732D02*
Y547600D01*
X546469Y556600D02*
Y592369D01*
X558468Y535700D02*
Y547600D01*
X552468Y556600D02*
Y586369D01*
X546469Y605097D02*
Y697562D01*
X552468Y599097D02*
Y703562D01*
X558468Y556600D02*
Y580369D01*
Y593097D02*
Y632246D01*
X564468Y535700D02*
Y547600D01*
Y556600D02*
Y574369D01*
X570468Y535700D02*
Y547600D01*
Y556600D02*
Y568369D01*
X564468Y587097D02*
Y627787D01*
X570468Y581097D02*
Y630399D01*
X582468Y520942D02*
Y525458D01*
X576468Y537910D02*
Y547600D01*
X581066Y521698D02*
X699934D01*
X584526Y495700D02*
X637138D01*
X585301Y497699D02*
X639898D01*
X583827Y503699D02*
X681935D01*
X582468Y504941D02*
Y509459D01*
X582792Y509698D02*
X687935D01*
X585446Y515699D02*
X693935D01*
X584525Y527699D02*
X705935D01*
X582468Y536941D02*
Y547600D01*
X576468Y556600D02*
Y564266D01*
X576436D02*
X658668D01*
X582468Y556600D02*
Y564266D01*
X576468Y575097D02*
Y727562D01*
X582468Y573266D02*
Y729226D01*
X578300Y573266D02*
X658668D01*
X575867Y575698D02*
X663060D01*
X588468Y495700D02*
Y547600D01*
Y556600D02*
Y564266D01*
X600468Y495700D02*
Y547600D01*
X594468Y495700D02*
Y547600D01*
Y556600D02*
Y564266D01*
X588468Y573266D02*
Y783795D01*
X600468Y556600D02*
Y564266D01*
X594468Y573266D02*
Y777795D01*
X600468Y573266D02*
Y769479D01*
X603462Y437699D02*
X608595D01*
X606468Y435572D02*
Y439500D01*
X605070Y434173D02*
X609778Y438882D01*
X605264Y439500D02*
X610550D01*
X631010Y440200D02*
X635236D01*
X603400Y448500D02*
X626736D01*
X634663Y443699D02*
X638735D01*
X636468Y441432D02*
Y445504D01*
X642468Y431400D02*
Y434704D01*
X648468Y434732D02*
Y440704D01*
X660468Y314242D02*
Y434004D01*
X645463Y437699D02*
X651435D01*
X640663Y449699D02*
X644735D01*
X642468Y447432D02*
Y451504D01*
X651463Y443699D02*
X657435D01*
X654468Y440732D02*
Y446704D01*
X612468Y448500D02*
Y486700D01*
X606468Y448500D02*
Y486700D01*
X624468Y448500D02*
Y486700D01*
X618468Y448500D02*
Y486700D01*
X636468Y458232D02*
Y486700D01*
X630468Y452232D02*
Y486700D01*
X642468Y464232D02*
Y484200D01*
X646663Y455699D02*
X650735D01*
X648468Y453432D02*
Y457504D01*
X660468Y446732D02*
Y452704D01*
X654468Y459432D02*
Y463504D01*
X648468Y470232D02*
Y487542D01*
X654468Y476232D02*
Y535810D01*
X652663Y461699D02*
X656735D01*
X660468Y482232D02*
Y537221D01*
X666468Y393885D02*
Y440004D01*
X657463Y449699D02*
X663435D01*
X663463Y455699D02*
X669435D01*
X666468Y452732D02*
Y458704D01*
X658663Y467699D02*
X662735D01*
X660468Y465432D02*
Y469504D01*
X669463Y461699D02*
X675435D01*
X664663Y473699D02*
X668735D01*
X678468Y392382D02*
Y452004D01*
X684468Y283232D02*
Y458004D01*
X690468Y289232D02*
Y464004D01*
X696468Y295232D02*
Y470004D01*
X672468Y396620D02*
Y446004D01*
Y458732D02*
Y464704D01*
X675463Y467699D02*
X681435D01*
X678468Y464732D02*
Y470704D01*
X666468Y471432D02*
Y475504D01*
X672468Y477432D02*
Y481504D01*
X681463Y473699D02*
X687435D01*
X670663Y479699D02*
X674735D01*
X646828Y485699D02*
X663935D01*
X666468Y488232D02*
Y562204D01*
X676663Y485699D02*
X680735D01*
X678468Y483432D02*
Y487504D01*
X684468Y470732D02*
Y476704D01*
X690468Y476732D02*
Y482704D01*
X702468Y301232D02*
Y476004D01*
X708468Y395660D02*
Y482004D01*
X687463Y479699D02*
X693435D01*
X684468Y489432D02*
Y493504D01*
X693463Y485699D02*
X699435D01*
X696468Y482732D02*
Y488704D01*
X702468Y488732D02*
Y494704D01*
X606468Y495700D02*
Y535810D01*
X612468Y495700D02*
Y537221D01*
X618468Y495700D02*
Y547600D01*
X612963D02*
X644700D01*
X614385Y539698D02*
X649675D01*
X614324Y545699D02*
X646602D01*
X636468Y495700D02*
Y547600D01*
X624468Y495700D02*
Y547600D01*
X648468Y494858D02*
Y543832D01*
X642468Y498200D02*
Y547600D01*
X630468Y495700D02*
Y547600D01*
X644700D02*
X649057Y543243D01*
X612468Y556600D02*
Y564266D01*
X606468Y556600D02*
Y564266D01*
X624468Y556600D02*
Y564266D01*
X618468Y556600D02*
Y564266D01*
X612468Y573266D02*
Y759795D01*
X606468Y573266D02*
Y765605D01*
X624468Y573266D02*
Y747795D01*
X618468Y573266D02*
Y753795D01*
X636468Y556600D02*
Y564266D01*
X630468Y556600D02*
Y564266D01*
X648468Y556177D02*
Y564266D01*
X642468Y556600D02*
Y564266D01*
X630468Y573266D02*
Y733377D01*
X636468Y573266D02*
Y734079D01*
X648468Y573266D02*
Y803000D01*
X642468Y573266D02*
Y803000D01*
X649482Y491699D02*
X669935D01*
X645102Y497699D02*
X675935D01*
X682663Y491699D02*
X686735D01*
X690468Y495432D02*
Y499504D01*
X688662Y497699D02*
X692735D01*
X662385Y539698D02*
X697675D01*
X662324Y545699D02*
X697736D01*
X694662Y503699D02*
X698735D01*
X696468Y501432D02*
Y505504D01*
X699463Y491699D02*
X705435D01*
X702468Y507432D02*
Y511504D01*
X700663Y509698D02*
X704735D01*
X702468Y524232D02*
Y535810D01*
X708468Y513432D02*
Y517504D01*
Y530232D02*
Y537221D01*
X654468Y550560D02*
Y564266D01*
X649746Y555282D02*
X655421Y549607D01*
X660468Y574792D02*
Y791402D01*
X654468Y573266D02*
Y797402D01*
X678468Y500232D02*
Y773402D01*
X672468Y494232D02*
Y779402D01*
X690468Y512232D02*
Y761402D01*
X684468Y506232D02*
Y767402D01*
X660468Y548047D02*
Y562740D01*
X666468Y575328D02*
Y785402D01*
X708468Y548047D02*
Y743402D01*
X696468Y518232D02*
Y755402D01*
X702468Y549458D02*
Y749402D01*
X580100Y41700D02*
X805490D01*
X580100Y47699D02*
X808096D01*
X576749Y35700D02*
X809960D01*
X674363Y245699D02*
X1053070D01*
X680363Y251699D02*
X1050079D01*
X686363Y257699D02*
X1050079D01*
X692363Y263699D02*
X1050079D01*
X698363Y269699D02*
X1054088D01*
X714468Y20000D02*
Y285804D01*
X720468Y20000D02*
Y291804D01*
X726468Y20000D02*
Y297804D01*
X738468Y20000D02*
Y309804D01*
X708468Y20000D02*
Y279804D01*
X732468Y20000D02*
Y303804D01*
X728363Y299699D02*
X1053394D01*
X734363Y305699D02*
X1051244D01*
X673321Y311699D02*
X712935D01*
X714468Y313232D02*
Y380784D01*
X670916Y317699D02*
X718935D01*
X652266Y251030D02*
X733600Y332364D01*
X670916Y323699D02*
X724935D01*
X720468Y319232D02*
Y378048D01*
X670916Y329699D02*
X730935D01*
X726468Y325232D02*
Y382286D01*
X744468Y20000D02*
Y315804D01*
X750468Y20000D02*
Y321804D01*
X740363Y311699D02*
X1051515D01*
X756468Y20000D02*
Y327804D01*
X746363Y317699D02*
X1054361D01*
X742528Y329699D02*
X745635D01*
X577017Y83699D02*
X1063970D01*
X577754Y95699D02*
X1063970D01*
X569119Y101699D02*
X1063970D01*
X548363Y119699D02*
X1075228D01*
X554363Y125699D02*
X1081228D01*
X560363Y131699D02*
X1085029D01*
X566363Y137699D02*
X1100000D01*
X572363Y143699D02*
X1100000D01*
X577951Y53699D02*
X1062645D01*
X579084Y89699D02*
X1063970D01*
X578363Y149699D02*
X1100000D01*
X584363Y155699D02*
X1100000D01*
X602363Y173699D02*
X1100000D01*
X608363Y179699D02*
X1100000D01*
X590363Y161699D02*
X1100000D01*
X596363Y167699D02*
X1100000D01*
X626363Y197699D02*
X1100000D01*
X632363Y203699D02*
X1100000D01*
X614363Y185699D02*
X1100000D01*
X620363Y191699D02*
X1100000D01*
X650363Y221699D02*
X1100000D01*
X656363Y227699D02*
X1100000D01*
X638363Y209699D02*
X1100000D01*
X644363Y215699D02*
X1100000D01*
X704363Y275699D02*
X1100000D01*
X710363Y281699D02*
X1100000D01*
X662363Y233699D02*
X1100000D01*
X668363Y239699D02*
X1100000D01*
X722363Y293699D02*
X1059884D01*
X752363Y323699D02*
X1064041D01*
X716363Y287699D02*
X1100000D01*
X758363Y329699D02*
X1100000D01*
X670916Y347699D02*
X733600D01*
X670916Y353699D02*
X733600D01*
X670916Y335699D02*
X733600D01*
X670916Y341699D02*
X733600D01*
X670916Y371699D02*
X733600D01*
X670916Y377699D02*
X733600D01*
X670916Y359699D02*
X733600D01*
X670916Y365699D02*
X733600D01*
X732468Y331232D02*
Y384221D01*
X733600Y332364D02*
Y385394D01*
X675526Y395699D02*
X708534D01*
X731526D02*
X733600D01*
X715526D02*
X724534D01*
X644325Y401699D02*
X733600D01*
X638326Y407699D02*
X733600D01*
X652163Y425699D02*
X724627D01*
X658163Y431699D02*
X726101D01*
X632326Y413699D02*
X733600D01*
X629726Y419699D02*
X732601D01*
X732468Y395047D02*
Y419832D01*
X726468Y396458D02*
Y422297D01*
X733600Y393874D02*
Y418700D01*
X742600Y330500D02*
Y420564D01*
X732073Y420227D02*
X733600Y418700D01*
X738437Y426590D02*
X741282Y423746D01*
X742600Y335699D02*
X751635D01*
X742600Y341699D02*
X753096D01*
X742600Y347699D02*
X753096D01*
X742600Y353699D02*
X753096D01*
X742600Y383699D02*
X753096D01*
X742600Y389699D02*
X753096D01*
X742600Y359699D02*
X753096D01*
X742600Y365699D02*
X753096D01*
X762096Y359699D02*
X1010012D01*
X762096Y365699D02*
X1010011D01*
X742600Y371699D02*
X753096D01*
X742600Y377699D02*
X753096D01*
X762096Y389699D02*
X1100000D01*
X742600Y395699D02*
X753096D01*
X742600Y401699D02*
X753096D01*
X742600Y413699D02*
X753096D01*
X739329Y425699D02*
X754995D01*
X670163Y443699D02*
X1100000D01*
X676163Y449699D02*
X1055175D01*
X736827Y431699D02*
X1100000D01*
X664163Y437699D02*
X1100000D01*
X742600Y407699D02*
X753096D01*
Y337160D02*
Y413838D01*
X762096Y395699D02*
X1059139D01*
X762096Y335296D02*
Y413838D01*
X742600Y419699D02*
X750614D01*
X762096Y413699D02*
X1051615D01*
X760197Y425699D02*
X1100000D01*
X810468Y20000D02*
Y35526D01*
X816468Y20000D02*
Y36488D01*
X822468Y20000D02*
Y35696D01*
X814980Y35700D02*
X822460D01*
X816844Y47699D02*
X820596D01*
X828468Y20000D02*
Y36171D01*
X1062467Y20000D02*
Y48109D01*
X1068467Y20000D02*
Y43718D01*
X1074467Y20000D02*
Y46367D01*
X829344Y47699D02*
X1062646D01*
X1063970Y55599D02*
Y106370D01*
X1073970Y55599D02*
Y104299D01*
X1074467Y55033D02*
Y104796D01*
X1014467Y20000D02*
Y355954D01*
X1020468Y20000D02*
Y357049D01*
X1056467Y20000D02*
Y242301D01*
X1050467Y20000D02*
Y248301D01*
X1050079Y248690D02*
Y265690D01*
X762468Y20000D02*
Y414174D01*
X1050079Y248690D02*
X1058579Y240190D01*
X1062467Y53292D02*
Y240190D01*
X1068467Y112938D02*
Y240190D01*
X1058579D02*
X1075579D01*
X1074467Y118938D02*
Y240190D01*
X827480Y35700D02*
X1100000D01*
X831950Y41700D02*
X1100000D01*
X1073970Y71699D02*
X1100000D01*
X1073970Y95699D02*
X1100000D01*
X1073970Y59699D02*
X1100000D01*
X1073970Y65699D02*
X1100000D01*
X1075294Y47699D02*
X1100000D01*
X1080467Y20000D02*
Y110796D01*
X1075295Y53699D02*
X1100000D01*
X1073970Y77699D02*
X1100000D01*
X1073970Y101699D02*
X1100000D01*
X1077370Y107699D02*
X1100000D01*
X1073970Y83699D02*
X1100000D01*
X1073970Y89699D02*
X1100000D01*
X1065434Y109906D02*
X1084400Y128871D01*
X1080467Y124938D02*
Y245079D01*
X1083370Y113699D02*
X1100000D01*
X1073970Y104299D02*
X1091471Y121800D01*
X1075579Y240190D02*
X1084079Y248690D01*
X1081088Y245699D02*
X1100000D01*
X1084079Y248690D02*
Y265690D01*
X1086467Y20000D02*
Y116796D01*
X1092467Y20000D02*
Y121882D01*
X1089370Y119699D02*
X1100000D01*
X1097676Y125699D02*
X1100000D01*
X1097771Y131699D02*
X1100000D01*
X1084079Y251699D02*
X1100000D01*
X1056467Y272079D02*
Y296015D01*
X1050467Y266079D02*
Y355176D01*
X1050079Y265690D02*
X1058579Y274190D01*
X1056467Y319965D02*
Y345509D01*
X762096Y353699D02*
X1050859D01*
X1022660Y359699D02*
X1050103D01*
X762096Y347699D02*
X1054195D01*
X1068467Y274190D02*
Y292050D01*
X1062467Y274190D02*
Y292669D01*
X1058579Y274190D02*
X1075579D01*
X1080467Y269301D02*
Y299230D01*
X1068467Y323930D02*
Y341847D01*
X1062467Y323311D02*
Y342427D01*
X1074467Y274190D02*
Y293798D01*
Y322182D02*
Y343480D01*
X1022661Y365699D02*
X1051546D01*
X762096Y371699D02*
X1056017D01*
X1056467Y372072D02*
Y397615D01*
X762096Y401699D02*
X1053160D01*
X762096Y407699D02*
X1051191D01*
X764578Y419699D02*
X1054677D01*
X1056467Y421565D02*
Y448415D01*
X1062467Y375153D02*
Y394269D01*
X1074467Y374100D02*
Y395398D01*
X1068467Y375733D02*
Y393650D01*
X1062467Y424911D02*
Y445069D01*
X1068467Y425530D02*
Y444450D01*
X1074467Y423782D02*
Y446198D01*
X1075579Y274190D02*
X1084079Y265690D01*
X1074274Y293699D02*
X1100000D01*
X1079796Y317699D02*
X1100000D01*
X762096Y341699D02*
X1100000D01*
X1079962Y347699D02*
X1100000D01*
X1070117Y323699D02*
X1100000D01*
X762096Y335699D02*
X1100000D01*
X1080070Y269699D02*
X1100000D01*
X1080763Y299699D02*
X1100000D01*
X1084079Y257699D02*
X1100000D01*
X1084079Y263699D02*
X1100000D01*
X1082914Y305699D02*
X1100000D01*
X1080467Y316750D02*
Y348314D01*
X1082643Y311699D02*
X1100000D01*
X1083298Y353699D02*
X1100000D01*
X1078141Y371699D02*
X1100000D01*
X762096Y377699D02*
X1100000D01*
X762096Y383699D02*
X1100000D01*
X1075018Y395699D02*
X1100000D01*
X1078982Y449699D02*
X1100000D01*
X1084054Y359699D02*
X1100000D01*
X1080467Y369266D02*
Y400830D01*
X1082612Y365699D02*
X1100000D01*
X1080997Y401699D02*
X1100000D01*
X1082542Y413699D02*
X1100000D01*
X1080467Y418350D02*
Y451630D01*
X1082967Y407699D02*
X1100000D01*
X1079481Y419699D02*
X1100000D01*
X1082375Y455699D02*
X1100000D01*
X705462Y497699D02*
X711435D01*
X708468Y494732D02*
Y500704D01*
X714468Y396196D02*
Y488004D01*
X650182Y423718D02*
X724553Y498089D01*
X714468Y500732D02*
Y506704D01*
X706663Y515699D02*
X710734D01*
X711462Y503699D02*
X717435D01*
X717462Y509698D02*
X723435D01*
X720468Y392020D02*
Y494004D01*
X726468Y432103D02*
Y494297D01*
X732468Y434128D02*
Y492272D01*
X738468Y426560D02*
Y512004D01*
X720468Y506732D02*
Y512704D01*
X723463Y515699D02*
X729435D01*
X712663Y521698D02*
X716734D01*
X714468Y519432D02*
Y523504D01*
X718662Y527699D02*
X722735D01*
X720468Y525432D02*
Y529504D01*
X585003Y533699D02*
X711935D01*
X724662D02*
X728735D01*
X726468Y531432D02*
Y535504D01*
Y512732D02*
Y518704D01*
X732468Y518732D02*
Y524704D01*
X744468Y328532D02*
Y518004D01*
X729463Y521698D02*
X735434D01*
X735462Y527699D02*
X741434D01*
X738468Y524732D02*
Y530704D01*
X741462Y533699D02*
X747434D01*
X744468Y530732D02*
Y536704D01*
X682163Y455699D02*
X1051782D01*
X688163Y461699D02*
X1051132D01*
X694163Y467699D02*
X1052846D01*
X700163Y473699D02*
X1058197D01*
X718163Y491699D02*
X1100000D01*
X736162Y509698D02*
X1100000D01*
X706162Y479699D02*
X1100000D01*
X712162Y485699D02*
X1100000D01*
X750468Y334532D02*
Y524004D01*
X756468Y426109D02*
Y530004D01*
X738301Y497699D02*
X1100000D01*
X736827Y503699D02*
X1100000D01*
X754162Y527699D02*
X1100000D01*
X760162Y533699D02*
X1100000D01*
X742162Y515699D02*
X1100000D01*
X748163Y521698D02*
X1100000D01*
X762468Y424226D02*
Y536004D01*
X768468Y20000D02*
Y542004D01*
X645136Y431400D02*
X777951Y564215D01*
X640282Y432518D02*
X775182Y567418D01*
X631782Y440818D02*
X764282Y573318D01*
X626736Y448500D02*
X756600Y578364D01*
X732575Y506111D02*
X785633Y559169D01*
X635236Y440200D02*
X767500Y572464D01*
X774468Y20000D02*
Y548004D01*
X780468Y20000D02*
Y554004D01*
X786468Y20000D02*
Y560322D01*
X792468Y20000D02*
Y1095051D01*
X804468Y20000D02*
Y730482D01*
X798468Y20000D02*
Y1094052D01*
X810468Y48942D02*
Y729078D01*
X816468Y47980D02*
Y822704D01*
X710385Y539698D02*
X717934D01*
X732468Y537432D02*
Y541504D01*
X730662Y539698D02*
X734734D01*
X738468Y543432D02*
Y547504D01*
X710324Y545699D02*
X723934D01*
X653329Y551698D02*
X729934D01*
X736662Y545699D02*
X740734D01*
X668859Y563698D02*
X741935D01*
X750468Y536732D02*
Y542704D01*
X744468Y549432D02*
Y553504D01*
X747462Y539698D02*
X753435D01*
X756468Y542732D02*
Y548704D01*
X742662Y551698D02*
X746734D01*
X750468Y555432D02*
Y559504D01*
X748662Y557698D02*
X752735D01*
X754662Y563698D02*
X758734D01*
X720468Y542232D02*
Y731402D01*
X714468Y536232D02*
Y737402D01*
X670968Y569698D02*
X747934D01*
X665000Y575698D02*
X753934D01*
X557867Y593698D02*
X756600D01*
X551867Y599698D02*
X756600D01*
X569867Y581698D02*
X756600D01*
X563867Y587698D02*
X756600D01*
X732468Y554232D02*
Y719402D01*
X726468Y548232D02*
Y725402D01*
X756468Y561432D02*
Y565504D01*
X738468Y560232D02*
Y713402D01*
X750468Y572232D02*
Y699643D01*
X744468Y566232D02*
Y707402D01*
X756468Y578232D02*
Y701409D01*
X756600Y578364D02*
Y701535D01*
X753462Y545699D02*
X759435D01*
X762468Y548732D02*
Y554704D01*
X766162Y539698D02*
X1100000D01*
X759462Y551698D02*
X765434D01*
X768468Y554732D02*
Y560704D01*
X760662Y569698D02*
X764734D01*
X765462Y557698D02*
X771434D01*
X771462Y563698D02*
X777434D01*
X784162Y557698D02*
X903476D01*
X772162Y545699D02*
X1100000D01*
X778162Y551698D02*
X1100000D01*
X774468Y560732D02*
Y566704D01*
X786951Y563698D02*
X900822D01*
X786951Y569698D02*
X826250D01*
X762468Y567432D02*
Y571504D01*
X776500Y570600D02*
Y1085751D01*
X765600Y576500D02*
Y1019200D01*
X767500Y572464D02*
Y1083887D01*
X786951Y562351D02*
Y1090117D01*
X777951Y564215D02*
Y1090117D01*
X786951Y575698D02*
X826106D01*
X786951Y581698D02*
X828000D01*
X786951Y605698D02*
X828000D01*
X786951Y611698D02*
X828000D01*
X786951Y587698D02*
X828000D01*
X786951Y599698D02*
X828000D01*
X786951Y593698D02*
X828000D01*
X834468Y20000D02*
Y566132D01*
X846468Y20000D02*
Y571620D01*
X870468Y20000D02*
Y574100D01*
X852468Y20000D02*
Y574100D01*
X828468Y48297D02*
Y567128D01*
X858468Y20000D02*
Y574100D01*
X838750Y569698D02*
X905202D01*
X864468Y20000D02*
Y574100D01*
X882468Y20000D02*
Y574100D01*
X876468Y20000D02*
Y574100D01*
X894468Y20000D02*
Y574100D01*
X888468Y20000D02*
Y574100D01*
X906468Y20000D02*
Y556329D01*
X900468Y20000D02*
Y574100D01*
X912468Y20000D02*
Y557980D01*
X822468Y48772D02*
Y828704D01*
X918468Y20000D02*
Y574100D01*
X840468Y20000D02*
Y576084D01*
X912468Y568420D02*
Y574100D01*
X906468Y570071D02*
Y574100D01*
X954468Y20000D02*
Y574100D01*
X948468Y20000D02*
Y574100D01*
X966468Y20000D02*
Y574100D01*
X960468Y20000D02*
Y574100D01*
X930468Y20000D02*
Y574100D01*
X924468Y20000D02*
Y574100D01*
X942468Y20000D02*
Y574100D01*
X936468Y20000D02*
Y574100D01*
X978468Y20000D02*
Y574100D01*
X972468Y20000D02*
Y574100D01*
X1008467Y20000D02*
Y574100D01*
X984468Y20000D02*
Y574100D01*
X910406Y569698D02*
X1100000D01*
X852362Y574100D02*
X1034684D01*
X912132Y557698D02*
X1100000D01*
X914786Y563698D02*
X1100000D01*
X1020468Y368351D02*
Y574100D01*
X1014467Y369446D02*
Y574100D01*
X1032467Y20000D02*
Y574100D01*
X1026468Y20000D02*
Y574100D01*
X1083025Y461699D02*
X1100000D01*
X1081312Y467699D02*
X1100000D01*
X1075960Y473699D02*
X1100000D01*
X996468Y20000D02*
Y574100D01*
X990468Y20000D02*
Y574100D01*
X1002467Y20000D02*
Y574100D01*
X1044467Y20000D02*
Y582020D01*
X1038467Y20000D02*
Y576020D01*
X1050467Y362404D02*
Y588019D01*
X1092467Y135718D02*
Y689800D01*
X1086467Y133767D02*
Y689800D01*
X1100000Y20000D02*
Y689800D01*
X1098467Y20000D02*
Y689800D01*
X1056467Y472365D02*
Y591450D01*
X1062467Y475711D02*
Y980000D01*
X1080467Y469150D02*
Y695053D01*
X1068467Y476330D02*
Y980000D01*
X1074467Y474582D02*
Y980000D01*
X837000Y581698D02*
X840723D01*
X924468Y583100D02*
Y665827D01*
X936468Y583100D02*
Y653827D01*
X930468Y583100D02*
Y659827D01*
X948468Y583100D02*
Y641827D01*
X942468Y583100D02*
Y647827D01*
X960468Y583100D02*
Y629827D01*
X954468Y583100D02*
Y635827D01*
X996468Y583100D02*
Y618450D01*
X990468Y583100D02*
Y618450D01*
X1008467Y583100D02*
Y618450D01*
X1002467Y583100D02*
Y618450D01*
X972468Y583100D02*
Y618664D01*
X966468Y583100D02*
Y623827D01*
X984468Y583100D02*
Y618450D01*
X978468Y583100D02*
Y618450D01*
X837000Y578212D02*
Y686088D01*
X828000Y578212D02*
Y686088D01*
X840468Y581116D02*
Y846704D01*
X852468Y583100D02*
Y856178D01*
X858468Y583100D02*
Y734346D01*
X846468Y585580D02*
Y852704D01*
X870468Y583100D02*
Y717040D01*
X864468Y583100D02*
Y732674D01*
X906468Y583100D02*
Y683827D01*
X900468Y583100D02*
Y689827D01*
X918468Y583100D02*
Y671827D01*
X912468Y583100D02*
Y677827D01*
X882468Y583100D02*
Y707827D01*
X876468Y583100D02*
Y713827D01*
X894468Y583100D02*
Y695827D01*
X888468Y583100D02*
Y701827D01*
X852362Y583100D02*
X1032820D01*
X1032467D02*
Y592067D01*
X1038146Y575698D02*
X1100000D01*
X1037866Y575418D02*
X1053525Y591077D01*
X837000Y593698D02*
X1030618D01*
X837000Y599698D02*
X1029298D01*
X837000Y587698D02*
X1037418D01*
X1032820Y583100D02*
X1047161Y597441D01*
X1038467Y588747D02*
Y591462D01*
X1044146Y581698D02*
X1100000D01*
X1050146Y587698D02*
X1100000D01*
X1042904Y599698D02*
X1047331D01*
X1059617Y593698D02*
X1100000D01*
X1060937Y599698D02*
X1100000D01*
X1020468Y583100D02*
Y617125D01*
X1014467Y583100D02*
Y618450D01*
X1026468Y583100D02*
Y617126D01*
X1038467Y604638D02*
Y610061D01*
X1032467Y604033D02*
Y616062D01*
X837000Y605698D02*
X1049288D01*
X1030079Y618450D02*
X1041314Y607215D01*
X1044467Y594747D02*
Y605765D01*
X1058980Y605698D02*
X1100000D01*
X1044850Y605750D02*
X1049235D01*
X558468Y637288D02*
Y709563D01*
X546469Y711705D02*
Y756779D01*
X552468Y717705D02*
Y752905D01*
X558468Y723705D02*
Y755885D01*
X558333Y755698D02*
X616565D01*
X559499Y761698D02*
X610565D01*
X564468Y641747D02*
Y665658D01*
Y678340D02*
Y715563D01*
X570468Y639136D02*
Y665691D01*
Y678307D02*
Y721562D01*
X584093Y737698D02*
X626123D01*
X570468Y735705D02*
Y793201D01*
X564468Y729705D02*
Y793201D01*
X582468Y739774D02*
Y789795D01*
X576468Y741359D02*
Y793201D01*
X552468Y766895D02*
Y793201D01*
X546469Y763021D02*
Y793201D01*
X579062D02*
X599734Y772529D01*
X558468Y763915D02*
Y793201D01*
X606663Y765600D02*
X627554Y744709D01*
X630468Y755937D02*
Y803000D01*
X613734Y772671D02*
X636269Y750136D01*
X636468Y749925D02*
Y803000D01*
X624468Y761937D02*
Y803000D01*
X618468Y767937D02*
Y803000D01*
X570483Y665698D02*
X756600D01*
X571499Y677698D02*
X756600D01*
X569826Y629698D02*
X756600D01*
X565979Y641698D02*
X756600D01*
X562604Y713698D02*
X738172D01*
X568604Y719698D02*
X732172D01*
X550604Y701698D02*
X746639D01*
X556604Y707698D02*
X744172D01*
X574604Y725698D02*
X726172D01*
X584281Y731698D02*
X720172D01*
X571937Y635698D02*
X756600D01*
X574427Y671698D02*
X756600D01*
X639345Y737698D02*
X714172D01*
X638677Y743698D02*
X708172D01*
X636659Y749698D02*
X702172D01*
X648870Y803000D02*
X744727Y707143D01*
X653916Y810682D02*
X751090Y713507D01*
X618707Y767698D02*
X684172D01*
X613647Y773698D02*
X678172D01*
X630707Y755698D02*
X696172D01*
X624707Y761698D02*
X690172D01*
X696900Y767698D02*
X734472D01*
X702468Y762130D02*
Y799702D01*
X702900Y761698D02*
X737493D01*
X690270Y811900D02*
X736827Y765343D01*
X696468Y768130D02*
Y805702D01*
X690468Y774130D02*
Y811702D01*
X690900Y773698D02*
X728472D01*
X695316Y819582D02*
X743191Y771707D01*
X588468Y797937D02*
Y803000D01*
X588707Y797698D02*
X654172D01*
X584669Y801736D02*
X606805Y779600D01*
X582468Y829734D02*
Y957966D01*
X582536Y803000D02*
X648870D01*
X588468Y829734D02*
Y957966D01*
X606468Y779937D02*
Y803000D01*
X600468Y785937D02*
Y803000D01*
X594707Y791698D02*
X660172D01*
X612468Y776615D02*
Y803000D01*
X594468Y791937D02*
Y803000D01*
X654468Y829734D02*
Y957966D01*
X576468Y829734D02*
Y957966D01*
X570468Y829734D02*
Y957966D01*
X600468Y829734D02*
Y957966D01*
X594468Y829734D02*
Y957966D01*
X552468Y829734D02*
Y957966D01*
X546469Y829734D02*
Y957966D01*
X564468Y829734D02*
Y957966D01*
X558468Y829734D02*
Y957966D01*
X636468Y829734D02*
Y957966D01*
X630468Y829734D02*
Y957966D01*
X648468Y829734D02*
Y957966D01*
X642468Y829734D02*
Y957966D01*
X612468Y829734D02*
Y957966D01*
X606468Y829734D02*
Y957966D01*
X624468Y829734D02*
Y957966D01*
X618468Y829734D02*
Y957966D01*
X600707Y785698D02*
X666172D01*
X666468Y798130D02*
Y811900D01*
X606707Y779698D02*
X672172D01*
X666900Y797698D02*
X704472D01*
X651677Y811900D02*
X690270D01*
X660468Y804130D02*
Y811900D01*
X660900Y803698D02*
X698472D01*
X654900Y809698D02*
X692472D01*
X684468Y780130D02*
Y811900D01*
X678468Y786130D02*
Y811900D01*
X684900Y779698D02*
X722472D01*
X678900Y785698D02*
X716472D01*
X672900Y791698D02*
X710472D01*
X672468Y792130D02*
Y811900D01*
X705200Y809698D02*
X756600D01*
X699200Y815698D02*
X756600D01*
X666468Y829734D02*
Y957966D01*
X660468Y829734D02*
Y957966D01*
X678468Y829734D02*
Y957966D01*
X672468Y829734D02*
Y957966D01*
X690468Y829734D02*
Y956110D01*
X684468Y829734D02*
Y957966D01*
X696468Y818430D02*
Y820734D01*
X708468Y806430D02*
Y820734D01*
X702468Y812430D02*
Y820734D01*
X696468Y829734D02*
Y956174D01*
X693345Y820734D02*
X730238D01*
X699609Y965698D02*
X756600D01*
X699829Y959698D02*
X756600D01*
X744468Y720130D02*
Y757766D01*
X738468Y726130D02*
Y760199D01*
X738900Y725698D02*
X756600D01*
X732900Y731698D02*
X756600D01*
X714900Y749698D02*
X756600D01*
X708900Y755698D02*
X756600D01*
X726900Y737698D02*
X756600D01*
X720900Y743698D02*
X756600D01*
X750900Y713698D02*
X756600D01*
X750468Y714130D02*
Y762604D01*
X744900Y719698D02*
X756600D01*
X750107Y761698D02*
X756600D01*
X786951Y731698D02*
X803301D01*
X786951Y737698D02*
X802135D01*
X720468Y744130D02*
Y781702D01*
X714468Y750130D02*
Y787702D01*
X732468Y732130D02*
Y769702D01*
X726468Y738130D02*
Y775702D01*
X708468Y756130D02*
Y793702D01*
X726468Y788430D02*
Y820734D01*
X729200Y785698D02*
X756600D01*
X723200Y791698D02*
X756600D01*
X786951Y767698D02*
X804400D01*
X750142D02*
X756600D01*
X738468Y776430D02*
Y818848D01*
X732468Y782430D02*
Y818974D01*
X741200Y773698D02*
X756600D01*
X735200Y779698D02*
X756600D01*
X786951Y629698D02*
X828000D01*
X786951Y635698D02*
X828000D01*
X786951Y617698D02*
X828000D01*
X786951Y623698D02*
X828000D01*
X786951Y653698D02*
X828000D01*
X786951Y659698D02*
X828000D01*
X786951Y641698D02*
X828000D01*
X786951Y647698D02*
X828000D01*
X786951Y677698D02*
X828000D01*
X786951Y683698D02*
X828000D01*
X786951Y665698D02*
X828000D01*
X786951Y671698D02*
X828000D01*
X786951Y689698D02*
X825723D01*
X786951Y695698D02*
X826936D01*
X786951Y755698D02*
X804400D01*
X786951Y761698D02*
X804400D01*
X786951Y743698D02*
X804400D01*
X786951Y749698D02*
X804400D01*
X786951Y785698D02*
X804400D01*
X786951Y791698D02*
X804400D01*
X786951Y773698D02*
X804400D01*
X786951Y779698D02*
X804400D01*
X828468Y697172D02*
Y834704D01*
X834468Y698168D02*
Y840704D01*
X813400Y741262D02*
Y819636D01*
X804400Y741262D02*
Y821500D01*
X815665Y737698D02*
X856399D01*
X813400Y743698D02*
X857512D01*
X720468Y794430D02*
Y820734D01*
X714468Y800430D02*
Y820734D01*
X717200Y797698D02*
X756600D01*
X711200Y803698D02*
X756600D01*
X741641Y821698D02*
X756600D01*
X742152Y827698D02*
X756600D01*
X786951Y809698D02*
X804400D01*
X786951Y815698D02*
X804400D01*
X786951Y797698D02*
X804400D01*
X786951Y803698D02*
X804400D01*
X786951Y821698D02*
X804404D01*
X786951Y827698D02*
X808734D01*
X786951Y935698D02*
X831200D01*
X786951Y941698D02*
X831200D01*
X786951Y923698D02*
X831200D01*
X786951Y929698D02*
X831200D01*
X786951Y965698D02*
X831200D01*
X786951Y971698D02*
X831200D01*
X786951Y947698D02*
X831200D01*
X786951Y959698D02*
X831200D01*
X786951Y833698D02*
X814734D01*
X786951Y839698D02*
X820734D01*
X786951Y845698D02*
X826734D01*
X786951Y881698D02*
X829639D01*
X786951Y887698D02*
X829161D01*
X786951Y893698D02*
X831200D01*
X786951Y899698D02*
X831200D01*
X786951Y917698D02*
X831200D01*
X786951Y851698D02*
X832734D01*
X805718Y824682D02*
X843227Y862191D01*
X815462Y821698D02*
X856313D01*
X813400Y819636D02*
X849591Y855827D01*
X786951Y857698D02*
X838734D01*
X786951Y905698D02*
X831200D01*
X786951Y863698D02*
X843258D01*
X786951Y869698D02*
X849008D01*
X834468Y853432D02*
Y878309D01*
X840468Y859432D02*
Y880075D01*
X852468Y869423D02*
Y909040D01*
X846468Y868722D02*
Y910187D01*
X786951Y911698D02*
X831200D01*
X840200Y917698D02*
X843912D01*
X840200Y911698D02*
X844978D01*
X840200Y923698D02*
X846150D01*
X840200Y941698D02*
X846150D01*
X786951Y953698D02*
X831200D01*
X840200Y929698D02*
X846150D01*
X840200Y935698D02*
X846150D01*
X840200Y890562D02*
Y974936D01*
X840468Y890325D02*
Y975204D01*
X840200Y965698D02*
X846150D01*
X840200Y971698D02*
X846150D01*
X840200Y947698D02*
X846150D01*
X840200Y959698D02*
X846150D01*
X840200Y953698D02*
X846150D01*
X576468Y966966D02*
Y1046400D01*
X570468Y966966D02*
Y1046400D01*
X588468Y966966D02*
Y1046400D01*
X582468Y966966D02*
Y1046400D01*
X552468Y966966D02*
Y1046400D01*
X546469Y966966D02*
Y1046400D01*
X564468Y966966D02*
Y1046400D01*
X558468Y966966D02*
Y1046400D01*
X648468Y966966D02*
Y1046400D01*
X618468Y966966D02*
Y1046400D01*
X660468Y966966D02*
Y1046400D01*
X654468Y966966D02*
Y1046400D01*
X600468Y966966D02*
Y1046400D01*
X594468Y966966D02*
Y1046400D01*
X612468Y966966D02*
Y1046400D01*
X606468Y966966D02*
Y1046400D01*
X570468Y1079800D02*
Y1093006D01*
X576468Y1079800D02*
Y1096897D01*
X624468Y966966D02*
Y1046400D01*
X552468Y1079800D02*
Y1094151D01*
X546469Y1079800D02*
Y1094929D01*
X564468Y1079800D02*
Y1089486D01*
X558468Y1079800D02*
Y1089731D01*
X636468Y966966D02*
Y1046400D01*
X630468Y966966D02*
Y1046400D01*
X666468Y966966D02*
Y1046400D01*
X642468Y966966D02*
Y1046400D01*
X660468Y1082277D02*
Y1130000D01*
X666468Y1077720D02*
Y1130000D01*
X678468Y966966D02*
Y1046400D01*
X672468Y966966D02*
Y1046400D01*
X683738Y1061697D02*
X712239D01*
X674982Y1067697D02*
X706924D01*
X684468Y966966D02*
Y1043920D01*
X690468Y968822D02*
Y1046530D01*
X714468Y829734D02*
Y1059468D01*
X708468Y829734D02*
Y1065468D01*
X691896Y1049697D02*
X724239D01*
X690097Y1055697D02*
X718239D01*
X708018Y1065918D02*
X756600Y1017336D01*
X718967Y1067697D02*
X767500D01*
X684468Y1057880D02*
Y1130000D01*
X678468Y1066644D02*
Y1130000D01*
X696468Y968758D02*
Y1130000D01*
X690468Y1055270D02*
Y1130000D01*
X672468Y1073588D02*
Y1130000D01*
X672334Y1073697D02*
X706700D01*
X665346Y1079697D02*
X706700D01*
X702468Y829734D02*
Y1130000D01*
X715700Y1070964D02*
X764282Y1022382D01*
X715700Y1070964D02*
Y1108036D01*
X706700Y1069100D02*
Y1109900D01*
X715700Y1073697D02*
X767500D01*
X715700Y1079697D02*
X767500D01*
X569077Y1091697D02*
X580166D01*
X547622Y1097697D02*
X550820D01*
X582468Y1087345D02*
Y1090274D01*
X573024Y1103697D02*
X576219D01*
X547624D02*
X550819D01*
X573022Y1097697D02*
X576220D01*
X569084Y1109697D02*
X580159D01*
X594468Y1086800D02*
Y1091691D01*
X606468Y1086800D02*
Y1089703D01*
X601221Y1094950D02*
X606971Y1089200D01*
X598422Y1097697D02*
X601221D01*
X598424Y1103697D02*
X601221D01*
X594477Y1091697D02*
X604474D01*
X601221Y1094950D02*
Y1106450D01*
X546469Y1106471D02*
Y1130000D01*
X576468Y1104503D02*
Y1130000D01*
X558468Y1111669D02*
Y1130000D01*
X552468Y1107249D02*
Y1130000D01*
X570468Y1108394D02*
Y1130000D01*
X564468Y1111915D02*
Y1130000D01*
X600468Y1086800D02*
Y1130000D01*
X594468Y1109710D02*
Y1130000D01*
X594484Y1109697D02*
X604468D01*
X601221Y1106450D02*
X606971Y1112200D01*
X588468Y1112143D02*
Y1130000D01*
X582468Y1111126D02*
Y1130000D01*
X612468Y1112200D02*
Y1130000D01*
X606468Y1111697D02*
Y1130000D01*
X618468Y1086800D02*
Y1089200D01*
X612468Y1086800D02*
Y1089200D01*
X592683Y1086800D02*
X645738D01*
X606971Y1089200D02*
X618471D01*
X624221Y1094950D01*
Y1106450D01*
X620969Y1091697D02*
X706700D01*
X624221Y1103697D02*
X706700D01*
X657220Y1085697D02*
X706700D01*
X715700Y1097697D02*
X719517D01*
X715700Y1085697D02*
X765690D01*
X715700Y1091697D02*
X722979D01*
X624221Y1097697D02*
X706700D01*
X715700Y1103697D02*
X719516D01*
X717361Y1109697D02*
X722974D01*
X630468Y1086800D02*
Y1130000D01*
X624468Y1086800D02*
Y1130000D01*
X642468Y1086800D02*
Y1130000D01*
X636468Y1086800D02*
Y1130000D01*
X606971Y1112200D02*
X618471D01*
X618468D02*
Y1130000D01*
X620974Y1109697D02*
X706700D01*
X618471Y1112200D02*
X624221Y1106450D01*
X654468Y1088436D02*
Y1130000D01*
X648468Y1088786D02*
Y1130000D01*
X715700Y1108036D02*
X725864Y1118200D01*
X708018Y1113082D02*
X720818Y1125882D01*
X708468Y1113532D02*
Y1130000D01*
X714468Y1119532D02*
Y1130000D01*
X726468Y829734D02*
Y1047468D01*
X720468Y829734D02*
Y1053468D01*
X744468Y771702D02*
Y1029468D01*
X732468Y831494D02*
Y1041468D01*
X738468Y831619D02*
Y1035468D01*
X742967Y1043698D02*
X767500D01*
X736966Y1049697D02*
X767500D01*
X730966Y1055697D02*
X767500D01*
X756468Y711659D02*
Y1017468D01*
X750468Y766864D02*
Y1023468D01*
X756600Y711533D02*
Y1017336D01*
X760966Y1025697D02*
X767500D01*
X754967Y1031697D02*
X767500D01*
X748967Y1037698D02*
X767500D01*
X732468Y1054196D02*
Y1088227D01*
X726468Y1060196D02*
Y1089325D01*
X738468Y1048196D02*
Y1090222D01*
X744468Y1042196D02*
Y1118200D01*
X720468Y1066196D02*
Y1095115D01*
X724967Y1061697D02*
X767500D01*
X740323Y1091697D02*
X749896D01*
X756468Y1030196D02*
Y1089215D01*
X750468Y1036196D02*
Y1091271D01*
X762468Y1024196D02*
Y1088919D01*
X761353Y1090035D02*
X767500Y1083887D01*
X774468Y1089647D02*
Y1092422D01*
X772418Y1091697D02*
X775296D01*
X767717Y1096399D02*
X775182Y1088933D01*
X786951Y977698D02*
X831290D01*
X786951Y983698D02*
X836234D01*
X786951Y989698D02*
X842234D01*
X786951Y995698D02*
X848234D01*
X786951Y1001697D02*
X854234D01*
X831200Y890562D02*
Y976800D01*
X846150Y921162D02*
Y977650D01*
X855150Y921162D02*
Y975786D01*
X857512Y978148D01*
X842962Y977698D02*
X846150D01*
X847468Y980832D02*
X856452Y989816D01*
X804468Y822279D02*
Y1089709D01*
X810468Y829432D02*
Y1089502D01*
X816468Y835432D02*
Y1093084D01*
X815007Y1091697D02*
X825004D01*
X828468Y847432D02*
Y1089200D01*
X822468Y841432D02*
Y1094233D01*
X834468Y981932D02*
Y1089200D01*
X840468Y987932D02*
Y1090667D01*
X827501Y1089200D02*
X839001D01*
X821751Y1094950D02*
X827501Y1089200D01*
X839001D02*
X844751Y1094950D01*
X846468Y993932D02*
Y1130000D01*
X852468Y999932D02*
Y1130000D01*
X743785Y1097697D02*
X745950D01*
X743786Y1103697D02*
X745949D01*
X720468Y1106285D02*
Y1112804D01*
X726468Y1112075D02*
Y1118200D01*
X740329Y1109697D02*
X749889D01*
X738468Y1111178D02*
Y1118200D01*
X768468Y1095647D02*
Y1099319D01*
Y1102081D02*
Y1118200D01*
X768152Y1097697D02*
X771350D01*
X768154Y1103697D02*
X771349D01*
X774468Y1108978D02*
Y1118200D01*
X764214Y1109697D02*
X775289D01*
X780468Y1112028D02*
Y1118200D01*
X720468Y1125532D02*
Y1130000D01*
X732468Y1113173D02*
Y1118200D01*
Y1127200D02*
Y1130000D01*
X726468Y1127200D02*
Y1130000D01*
X744468Y1127200D02*
Y1130000D01*
X738468Y1127200D02*
Y1130000D01*
X756468Y1112185D02*
Y1118200D01*
X750468Y1110129D02*
Y1118200D01*
X762468Y1110844D02*
Y1118200D01*
X774468Y1127200D02*
Y1130000D01*
X756468Y1127200D02*
Y1130000D01*
X750468Y1127200D02*
Y1130000D01*
X768468Y1127200D02*
Y1130000D01*
X762468Y1127200D02*
Y1130000D01*
X793552Y1097697D02*
X796750D01*
X793554Y1103697D02*
X796749D01*
X789607Y1091697D02*
X800696D01*
X723361Y1115697D02*
X786490D01*
X786468Y1111476D02*
Y1115719D01*
X789613Y1109697D02*
X792490D01*
X792468Y1106349D02*
Y1109719D01*
X818952Y1097697D02*
X821751D01*
Y1094950D02*
Y1106450D01*
X818954Y1103697D02*
X821751D01*
X844751Y1094950D02*
Y1106450D01*
X815014Y1109697D02*
X824999D01*
X821751Y1106450D02*
X827501Y1112200D01*
X839001D02*
X844751Y1106450D01*
X827501Y1112200D02*
X839001D01*
X725864Y1118200D02*
X783987D01*
X797186Y1105001D01*
X789033Y1125882D02*
X803550Y1111365D01*
X724000Y1127200D02*
X785851D01*
X780468D02*
Y1130000D01*
X786468Y1127158D02*
Y1130000D01*
X816468Y1108316D02*
Y1130000D01*
X804468Y1111691D02*
Y1130000D01*
X840468Y1110733D02*
Y1130000D01*
X822468Y1107167D02*
Y1130000D01*
X798468Y1116447D02*
Y1130000D01*
X792468Y1122447D02*
Y1130000D01*
X834468Y1112200D02*
Y1130000D01*
X810468Y1111898D02*
Y1130000D01*
X828468Y1112200D02*
Y1130000D01*
X786951Y713698D02*
X876597D01*
X786951Y701698D02*
X888597D01*
X786951Y707698D02*
X882597D01*
X786951Y719698D02*
X869090D01*
X786951Y725698D02*
X870237D01*
X814499Y731698D02*
X870881D01*
X869901Y737698D02*
X875627D01*
X882468Y723798D02*
Y730397D01*
X870800Y726363D02*
Y730800D01*
X888468Y715969D02*
Y736397D01*
X880800Y726466D02*
Y728729D01*
X892036Y739965D01*
X864468Y746424D02*
Y816324D01*
X858468Y744753D02*
Y817996D01*
X868788Y743698D02*
X881627D01*
X813400Y749698D02*
X882006D01*
X813400Y755698D02*
X882496D01*
X813400Y761698D02*
X883550D01*
X813400Y767698D02*
X883550D01*
X876468Y738539D02*
Y797477D01*
X870468Y725992D02*
Y800690D01*
X872264Y734335D02*
X883500Y745571D01*
X893500Y743500D02*
Y747234D01*
X882468Y744539D02*
Y748719D01*
Y755649D02*
Y791477D01*
X883550Y757083D02*
Y790395D01*
X837000Y623698D02*
X966597D01*
X837000Y629698D02*
X960597D01*
X837000Y611698D02*
X1036831D01*
X837000Y617698D02*
X1019476D01*
X837000Y647698D02*
X942597D01*
X837000Y653698D02*
X936597D01*
X837000Y635698D02*
X954597D01*
X837000Y641698D02*
X948597D01*
X837000Y671698D02*
X918597D01*
X837000Y677698D02*
X912597D01*
X837000Y659698D02*
X930597D01*
X837000Y665698D02*
X924597D01*
X839277Y689698D02*
X900597D01*
X838064Y695698D02*
X894597D01*
X837000Y683698D02*
X906597D01*
X890739Y713698D02*
X956279D01*
X875779Y714516D02*
X970380Y619915D01*
X882850Y721587D02*
X975987Y628450D01*
X884739Y719698D02*
X1100000D01*
X881463Y725698D02*
X1100000D01*
X883769Y731698D02*
X957741D01*
X889769Y737698D02*
X953315D01*
X894468Y709969D02*
Y748445D01*
X893500Y743698D02*
X952533D01*
X893550Y757083D02*
Y792466D01*
X894468Y755923D02*
Y832095D01*
X894604Y755698D02*
X963644D01*
X893550Y761698D02*
X1100000D01*
X813400Y797698D02*
X876247D01*
X813400Y803698D02*
X869006D01*
X813400Y773698D02*
X883550D01*
X813400Y791698D02*
X882247D01*
X813400Y809698D02*
X870515D01*
X821462Y827698D02*
X857787D01*
X813400Y815698D02*
X870880D01*
X868513Y827698D02*
X881327D01*
X870850Y815150D02*
X870850Y810065D01*
X882468Y807448D02*
Y814697D01*
X880850Y813079D02*
X880850Y810065D01*
X869987Y821698D02*
X875327D01*
X839462Y845698D02*
X871732D01*
X827462Y833698D02*
X881884D01*
X833462Y839698D02*
X877615D01*
X851392Y869698D02*
X870850D01*
X786951Y875698D02*
X870850D01*
X845462Y851698D02*
X870850D01*
X854993Y857698D02*
X870850D01*
X882468Y828839D02*
Y832369D01*
X876468Y822839D02*
Y840845D01*
X872314Y818686D02*
X883550Y829921D01*
X857142Y863698D02*
X870850D01*
X872315Y844998D02*
X881550Y835763D01*
X813400Y779698D02*
X883550D01*
X813400Y785698D02*
X883550D01*
X875779Y798166D02*
X883550Y790395D01*
X882850Y805237D02*
X892086Y796002D01*
X883469Y815698D02*
X952786D01*
X888468Y799619D02*
Y820697D01*
X884389Y803698D02*
X1100000D01*
X881185Y809698D02*
X955821D01*
X893550Y779698D02*
X952494D01*
X893550Y785698D02*
X953511D01*
X893550Y767698D02*
X961685D01*
X893550Y773698D02*
X954309D01*
X893550Y791698D02*
X958430D01*
X890389Y797698D02*
X1100000D01*
X880850Y813079D02*
X892085Y824314D01*
X880850Y850605D02*
X888621Y842834D01*
X885757Y845698D02*
X958147D01*
X880850Y851698D02*
X953431D01*
X880850Y869698D02*
X905415D01*
X880850Y875698D02*
X896269D01*
X880850Y857698D02*
X952507D01*
X880850Y863698D02*
X954425D01*
X889469Y821698D02*
X952830D01*
X893548Y827698D02*
X955996D01*
X893550Y827850D02*
Y830935D01*
X894468Y839573D02*
Y877551D01*
X894387Y839698D02*
X1100000D01*
X972468Y631969D02*
Y692467D01*
X973916Y618450D02*
X1018567D01*
X908739Y695698D02*
X955565D01*
X954468Y649969D02*
Y697233D01*
X966468Y637970D02*
Y690809D01*
X960468Y643969D02*
Y691972D01*
X1027456Y617698D02*
X1030831D01*
X975987Y628450D02*
X1018567D01*
X974739Y629698D02*
X1020310D01*
X1028365Y628450D02*
X1032150D01*
X918468Y685969D02*
Y867225D01*
X912468Y691969D02*
Y867636D01*
X924468Y679969D02*
Y867987D01*
X930468Y673969D02*
Y870018D01*
X906468Y697969D02*
Y869272D01*
X900468Y703969D02*
Y872362D01*
X902739Y701698D02*
X952723D01*
X896739Y707698D02*
X952905D01*
X978468Y628450D02*
Y699195D01*
X936468Y667969D02*
Y873631D01*
X978468Y709405D02*
Y737295D01*
X960468Y716628D02*
Y730072D01*
X954468Y711367D02*
Y735333D01*
X966468Y717791D02*
Y728909D01*
X972468Y716133D02*
Y730566D01*
X950739Y653698D02*
X1100000D01*
X944739Y659698D02*
X1100000D01*
X962739Y641698D02*
X1100000D01*
X956739Y647698D02*
X1100000D01*
X926739Y677698D02*
X1100000D01*
X920739Y683698D02*
X1100000D01*
X938739Y665698D02*
X1100000D01*
X932739Y671698D02*
X1100000D01*
X1046921Y615750D02*
X1049235D01*
X1035686Y626986D02*
X1046921Y615750D01*
X1061069Y611698D02*
X1100000D01*
X1044973Y617698D02*
X1053285D01*
X1026622Y629698D02*
X1100000D01*
X968739Y635698D02*
X1100000D01*
X1054983Y617698D02*
X1100000D01*
X1038973Y623698D02*
X1100000D01*
X976375Y695698D02*
X1079822D01*
X1078470Y697050D02*
Y711550D01*
X914739Y689698D02*
X1100000D01*
X1078470Y697050D02*
X1085720Y689800D01*
X979217Y701698D02*
X1078470D01*
X979035Y707698D02*
X1078470D01*
X975661Y713698D02*
X1080618D01*
X1078470Y711550D02*
X1085720Y718800D01*
Y689800D02*
X1100000D01*
X1086467Y718800D02*
Y730569D01*
X1080467Y713547D02*
Y737308D01*
X1085720Y718800D02*
X1100000D01*
X1092467D02*
Y728909D01*
X1100000Y718800D02*
Y730875D01*
X895094Y749698D02*
X954613D01*
X954468Y749467D02*
Y773433D01*
X960468Y754728D02*
Y768172D01*
X966468Y755891D02*
Y767009D01*
X960468Y792828D02*
Y806272D01*
X966468Y793991D02*
Y805109D01*
X979408Y743698D02*
X1079533D01*
X978468Y747505D02*
Y775395D01*
X978625Y737698D02*
X1080315D01*
X1080467Y747493D02*
Y775407D01*
X972468Y754233D02*
Y768667D01*
Y792334D02*
Y806767D01*
X979446Y779698D02*
X1079494D01*
X978429Y785698D02*
X1080511D01*
X954468Y787567D02*
Y811533D01*
Y825667D02*
Y849633D01*
X972468Y830433D02*
Y844866D01*
X960468Y830928D02*
Y844372D01*
X929742Y869698D02*
X962322D01*
X966468Y832091D02*
Y843209D01*
X978468Y785605D02*
Y813495D01*
X979154Y815698D02*
X1079786D01*
X1080467Y785592D02*
Y813508D01*
X979110Y821698D02*
X1079830D01*
X978468Y823705D02*
Y851595D01*
X979433Y857698D02*
X1079507D01*
X1080467Y823692D02*
Y851607D01*
X978509Y851698D02*
X1080431D01*
X974199Y731698D02*
X1084741D01*
X977327Y749698D02*
X1081613D01*
X968296Y755698D02*
X1090643D01*
X977631Y773698D02*
X1081309D01*
X973510Y791698D02*
X1085430D01*
X970255Y767698D02*
X1088685D01*
X1098467Y718800D02*
Y730070D01*
X1086467Y754231D02*
Y768669D01*
X1098467Y754730D02*
Y768170D01*
X1100000Y753925D02*
Y768975D01*
X1092467Y755891D02*
Y767009D01*
Y793991D02*
Y805109D01*
X1095297Y755698D02*
X1100000D01*
X1097255Y767698D02*
X1100000D01*
X976119Y809698D02*
X1082821D01*
X975944Y827698D02*
X1082996D01*
X895216Y833698D02*
X1100000D01*
X973793Y845698D02*
X1085147D01*
X977515Y863698D02*
X1081425D01*
X969618Y869698D02*
X1089322D01*
X938889Y875698D02*
X1100000D01*
X1098467Y792830D02*
Y806270D01*
X1086467Y792331D02*
Y806769D01*
X1100000Y792025D02*
Y807075D01*
X1092467Y832091D02*
Y843209D01*
X1086467Y830431D02*
Y844869D01*
X1098467Y830930D02*
Y844370D01*
X1096618Y869698D02*
X1100000D01*
Y830125D02*
Y845175D01*
X840200Y893698D02*
X870850D01*
X840200Y899698D02*
X870850D01*
X841761Y881698D02*
X870850D01*
X842239Y887698D02*
X870850D01*
X855150Y929698D02*
X870850D01*
X855150Y947698D02*
X870850D01*
X840200Y905698D02*
X870850D01*
X855150Y923698D02*
X870850D01*
Y848534D02*
Y951067D01*
X870468Y809642D02*
Y951490D01*
X856322Y911698D02*
X870850D01*
X880850Y850605D02*
Y951067D01*
X855150Y941698D02*
X870850D01*
X855150Y953698D02*
X869228D01*
X857388Y917698D02*
X870850D01*
X855150Y935698D02*
X870850D01*
X864468Y830074D02*
Y967124D01*
X858468Y828403D02*
Y968796D01*
X855150Y959698D02*
X869928D01*
X855150Y965698D02*
X870870D01*
X869093Y977698D02*
X881227D01*
X870850Y960865D02*
Y965250D01*
X870468Y960442D02*
Y982134D01*
X880850Y960865D02*
Y963179D01*
X869761Y971698D02*
X875227D01*
X876468Y972939D02*
Y979661D01*
X882468Y978939D02*
Y983169D01*
X880850Y893698D02*
X886909D01*
X880850Y899698D02*
X886614D01*
X880850Y881698D02*
X891344D01*
X880850Y887698D02*
X888416D01*
X880850Y905698D02*
X887496D01*
X880850Y911698D02*
X889666D01*
X880850Y917698D02*
X893468D01*
X880850Y923698D02*
X899930D01*
X888468Y842987D02*
Y887556D01*
X882468Y848987D02*
Y953684D01*
X880850Y929698D02*
X1100000D01*
X880850Y947698D02*
X1100000D01*
X882472Y953698D02*
X1100000D01*
X880850Y935698D02*
X1100000D01*
X880850Y941698D02*
X1100000D01*
X882468Y958247D02*
Y964797D01*
X881772Y959698D02*
X1100000D01*
X880850Y963179D02*
X892085Y974414D01*
X872314Y968785D02*
X883550Y980021D01*
X883369Y965698D02*
X1100000D01*
X840200Y974936D02*
X904283Y1039019D01*
X888468Y908868D02*
Y970797D01*
X894468Y918873D02*
Y982895D01*
X889369Y971698D02*
X1100000D01*
X900468Y924062D02*
Y991481D01*
X893544Y977698D02*
X1100000D01*
X893550Y977950D02*
Y981735D01*
X861498Y982134D02*
X870488D01*
X859001Y979637D02*
X861498Y982134D01*
X858468Y990980D02*
Y993204D01*
X786951Y1007698D02*
X860234D01*
X859634Y991134D02*
X870488D01*
X860962Y995698D02*
X890543D01*
X864468Y991134D02*
Y999204D01*
X870468Y991134D02*
Y1005204D01*
X876468Y993607D02*
Y1011204D01*
X864468Y1011932D02*
Y1130000D01*
X858468Y1005932D02*
Y1130000D01*
X786951Y1013698D02*
X866234D01*
X786951Y1019697D02*
X872234D01*
X786951Y1025697D02*
X878233D01*
X786951Y1031697D02*
X884233D01*
X786951Y1037698D02*
X890234D01*
X786951Y1043698D02*
X896234D01*
X882468Y990099D02*
Y1017204D01*
X870468Y1017932D02*
Y1130000D01*
X888468Y993633D02*
Y1023204D01*
X894468Y999623D02*
Y1029204D01*
X882468Y1029932D02*
Y1130000D01*
X876468Y1023932D02*
Y1130000D01*
X894468Y1041932D02*
Y1130000D01*
X888468Y1035932D02*
Y1130000D01*
X866962Y1001697D02*
X896543D01*
X832518Y979982D02*
X899237Y1046701D01*
X894904Y983698D02*
X1035000D01*
X888479Y993634D02*
X929200Y1034355D01*
X872962Y1007698D02*
X902542D01*
X878961Y1013698D02*
X908542D01*
X884961Y1019697D02*
X914542D01*
X890962Y1025697D02*
X920542D01*
X895550Y986563D02*
X934806Y1025819D01*
X900468Y1005623D02*
Y1035204D01*
X898685Y989698D02*
X1035000D01*
X904685Y995698D02*
X1035000D01*
X896962Y1031697D02*
X926542D01*
X904283Y1039019D02*
X955173D01*
X902961Y1037698D02*
X956648D01*
X902419Y1048019D02*
X955173D01*
X786951Y1049697D02*
X957244D01*
X786951Y1055697D02*
X1035000D01*
X786951Y1061697D02*
X1035000D01*
X786951Y1067697D02*
X1035000D01*
X786951Y1085697D02*
X1035000D01*
X793218Y1121697D02*
X1035000D01*
X786951Y1073697D02*
X1035000D01*
X786951Y1079697D02*
X1035000D01*
X900468Y1047574D02*
Y1130000D01*
X906468Y1048019D02*
Y1130000D01*
X841504Y1109697D02*
X1035000D01*
X799218Y1115697D02*
X1035000D01*
X841499Y1091697D02*
X1035000D01*
X844751Y1103697D02*
X1035000D01*
X844751Y1097697D02*
X1035000D01*
X942468Y661969D02*
Y879731D01*
X948248Y893698D02*
X952515D01*
X943814Y881698D02*
X962717D01*
X946741Y887698D02*
X954489D01*
X906468Y927152D02*
Y997481D01*
X912468Y928788D02*
Y1003481D01*
X947661Y905698D02*
X958002D01*
X918468Y929199D02*
Y1009481D01*
X954468Y863767D02*
Y887733D01*
X948468Y655969D02*
Y895590D01*
X972468Y868533D02*
Y882967D01*
X978468Y861805D02*
Y889695D01*
X960468Y869028D02*
Y882472D01*
X948543Y899698D02*
X953390D01*
X966468Y870191D02*
Y881309D01*
X948468Y900834D02*
Y1025819D01*
X942468Y916693D02*
Y1025819D01*
X960468Y907128D02*
Y1025819D01*
X954468Y901867D02*
Y1025819D01*
X924468Y928437D02*
Y1015481D01*
X906468Y1011623D02*
Y1039019D01*
X930468Y926405D02*
Y1021481D01*
X936468Y922793D02*
Y1025819D01*
X996468Y628450D02*
Y1020432D01*
X990468Y628450D02*
Y1025819D01*
X1008467Y628450D02*
Y1013119D01*
X1002467Y628450D02*
Y1014438D01*
X972468Y906634D02*
Y1025819D01*
X966468Y908291D02*
Y1025819D01*
X984468Y628450D02*
Y1023845D01*
X978468Y899905D02*
Y1025819D01*
X979425Y893698D02*
X1079515D01*
X978550Y899698D02*
X1080390D01*
X969223Y881698D02*
X1089717D01*
X977451Y887698D02*
X1081489D01*
X973938Y905698D02*
X1085002D01*
X945492Y911698D02*
X1100000D01*
X941689Y917698D02*
X1100000D01*
X935227Y923698D02*
X1100000D01*
X1080467Y861793D02*
Y889707D01*
X1056467Y617350D02*
Y980000D01*
X1086467Y868531D02*
Y882969D01*
X1100000Y868225D02*
Y883275D01*
X1092467Y870191D02*
Y881309D01*
X1098467Y869030D02*
Y882470D01*
X1096223Y881698D02*
X1100000D01*
X1014467Y628450D02*
Y1011120D01*
X1020468Y629775D02*
Y1014404D01*
X1032467Y628440D02*
Y1130000D01*
X1026468Y629774D02*
Y1130000D01*
X916685Y1007698D02*
X1035000D01*
Y980000D02*
X1100000D01*
X910685Y1001697D02*
X1035000D01*
X1044467Y618204D02*
Y980000D01*
X1038467Y624204D02*
Y980000D01*
X1080467Y899892D02*
Y980000D01*
X1050467Y616713D02*
Y980000D01*
X1086467Y906631D02*
Y980000D01*
X1035000D02*
Y1130000D01*
X1100000Y906325D02*
Y980000D01*
X1092467Y908290D02*
Y980000D01*
X1098467Y907130D02*
Y980000D01*
X918468Y1023623D02*
Y1039019D01*
X912468Y1017623D02*
Y1039019D01*
X934685Y1025697D02*
X979095D01*
X924468Y1029623D02*
Y1039019D01*
X930468Y1035275D02*
Y1039019D01*
X932735Y1035819D02*
X978968D01*
X942468D02*
Y1039019D01*
X936468Y1035819D02*
Y1039019D01*
X934806Y1025819D02*
X978968D01*
X954468Y1035819D02*
Y1039019D01*
X948468Y1035819D02*
Y1039019D01*
X964422Y1037698D02*
X982567D01*
X942468Y1048019D02*
Y1130000D01*
X936468Y1048019D02*
Y1130000D01*
X954468Y1048019D02*
Y1130000D01*
X948468Y1048019D02*
Y1130000D01*
X918468Y1048019D02*
Y1130000D01*
X912468Y1048019D02*
Y1130000D01*
X930468Y1048019D02*
Y1130000D01*
X924468Y1048019D02*
Y1130000D01*
X966468Y1035819D02*
Y1039804D01*
X978468Y1035819D02*
Y1130000D01*
X972468Y1035819D02*
Y1130000D01*
X966468Y1047234D02*
Y1130000D01*
X960468Y1050519D02*
Y1130000D01*
X984468Y1037793D02*
Y1130000D01*
X928685Y1019697D02*
X997202D01*
X991080Y1025819D02*
X1002315Y1014584D01*
X922685Y1013698D02*
X1003517D01*
X996686Y1034355D02*
X1007922Y1023119D01*
X988639Y1025697D02*
X991202D01*
X988766Y1025819D02*
X991080D01*
X988766Y1035819D02*
X993151D01*
X1005851Y1013119D02*
X1009636D01*
X1019962Y1013698D02*
X1035000D01*
X1021355Y1019697D02*
X1035000D01*
X1005344Y1025697D02*
X1035000D01*
X999344Y1031697D02*
X1035000D01*
X996468Y1034561D02*
Y1039105D01*
X990468Y1035819D02*
Y1130000D01*
X967533Y1043698D02*
X994902D01*
X996468Y1047934D02*
Y1130000D01*
X985167Y1037698D02*
X998013D01*
X963826Y1049697D02*
X998609D01*
X1002467Y1028574D02*
Y1036542D01*
X1008467Y1023119D02*
Y1041097D01*
X1020468Y1021835D02*
Y1130000D01*
X1014467Y1025119D02*
Y1130000D01*
X1008467Y1045942D02*
Y1130000D01*
X1002467Y1050496D02*
Y1130000D01*
X1005787Y1037698D02*
X1035000D01*
X1005191Y1049697D02*
X1035000D01*
X1008898Y1043698D02*
X1035000D01*
X448818Y1210218D02*
X448836Y1210200D01*
X875800Y730800D02*
X875800Y721516D01*
X888500Y743500D02*
Y752184D01*
X168469Y1185000D02*
Y1239081D01*
X180469Y1185000D02*
Y1227081D01*
X174469Y1185000D02*
Y1233081D01*
X150469Y1185000D02*
Y1257081D01*
X162469Y1185000D02*
Y1245081D01*
X156469Y1185000D02*
Y1251081D01*
X77000Y1187697D02*
X219853D01*
X216469Y1185000D02*
Y1191081D01*
X210469Y1185000D02*
Y1197081D01*
X192469Y1185000D02*
Y1215081D01*
X186469Y1185000D02*
Y1221081D01*
X204469Y1185000D02*
Y1203081D01*
X198469Y1185000D02*
Y1209081D01*
X77000Y1235697D02*
X171854D01*
X77000Y1223697D02*
X183853D01*
X77000Y1229697D02*
X177853D01*
X77000Y1253697D02*
X153854D01*
X77000Y1259697D02*
X147853D01*
X77000Y1241697D02*
X165854D01*
X77000Y1247697D02*
X159853D01*
X77000Y1205697D02*
X201853D01*
X77000Y1193697D02*
X213853D01*
X77000Y1199697D02*
X207853D01*
X77000Y1211697D02*
X195853D01*
X77000Y1217697D02*
X189853D01*
X212824Y1211697D02*
X279189D01*
X206824Y1217697D02*
X281871D01*
X282469Y1197900D02*
Y1202059D01*
X306469Y1197900D02*
Y1203752D01*
X300469Y1197900D02*
Y1204311D01*
X348469Y1197900D02*
Y1201136D01*
X372469Y1197900D02*
Y1200199D01*
X360469Y1197900D02*
Y1200594D01*
X324469Y1197900D02*
Y1202429D01*
X330469Y1197900D02*
Y1206601D01*
X218824Y1205697D02*
X280009D01*
X295275Y1199697D02*
X311307D01*
X224824D02*
X285907D01*
X301173Y1205697D02*
X305410D01*
X299312Y1217697D02*
X307271D01*
X327393Y1211697D02*
X329989D01*
X301993D02*
X304589D01*
X320676Y1199697D02*
X336707D01*
X346075D02*
X362107D01*
X351973Y1205697D02*
X356209D01*
X326573D02*
X330810D01*
X324712Y1217697D02*
X332671D01*
X352793Y1211697D02*
X355389D01*
X350112Y1217697D02*
X358071D01*
X90469Y1185000D02*
Y1460000D01*
X102469Y1185000D02*
Y1460000D01*
X96469Y1185000D02*
Y1460000D01*
X77000Y1185000D02*
Y1460000D01*
X84469Y1185000D02*
Y1460000D01*
X78469Y1185000D02*
Y1460000D01*
X132469Y1185000D02*
Y1269612D01*
X144469Y1185000D02*
Y1263081D01*
X138469Y1185000D02*
Y1269081D01*
X114469Y1185000D02*
Y1460000D01*
X108469Y1185000D02*
Y1460000D01*
X126469Y1185000D02*
Y1273363D01*
X120469Y1185000D02*
Y1460000D01*
X77000Y1265697D02*
X141854D01*
X156469Y1268052D02*
Y1460000D01*
X168469Y1256052D02*
Y1460000D01*
X162469Y1262052D02*
Y1460000D01*
X180469Y1244052D02*
Y1460000D01*
X174469Y1250052D02*
Y1460000D01*
X137964Y1269586D02*
X219893Y1187657D01*
X146450Y1278071D02*
X226621Y1197900D01*
X210469Y1214052D02*
Y1345510D01*
X192469Y1232052D02*
Y1368482D01*
X186469Y1238052D02*
Y1460000D01*
X204469Y1220052D02*
Y1347843D01*
X198469Y1226052D02*
Y1365200D01*
X216469Y1208052D02*
Y1346609D01*
X228469Y1197900D02*
Y1379700D01*
X222469Y1202052D02*
Y1353609D01*
X240469Y1197900D02*
Y1379700D01*
X234469Y1197900D02*
Y1379700D01*
X252469Y1197900D02*
Y1385698D01*
X246469Y1197900D02*
Y1380148D01*
X258469Y1197900D02*
Y1391698D01*
X276469Y1197900D02*
Y1278160D01*
X264469Y1197900D02*
Y1397698D01*
X270469Y1197900D02*
Y1403602D01*
X300469Y1216089D02*
Y1442166D01*
X354469Y1197900D02*
Y1442166D01*
X330469Y1213799D02*
Y1442166D01*
X282469Y1218341D02*
Y1270509D01*
X294469Y1221027D02*
Y1271491D01*
X288469Y1221503D02*
Y1269294D01*
X306469Y1216648D02*
Y1442166D01*
X312469Y1221147D02*
Y1442166D01*
X318469Y1221430D02*
Y1442166D01*
X360469Y1219806D02*
Y1442166D01*
X372469Y1220201D02*
Y1270836D01*
X366469Y1221695D02*
Y1442166D01*
X324469Y1217971D02*
Y1442166D01*
X336469Y1220593D02*
Y1442166D01*
X348469Y1219264D02*
Y1442166D01*
X342469Y1221649D02*
Y1442166D01*
X226621Y1197900D02*
X385741D01*
X402469D02*
Y1201728D01*
X371475Y1199697D02*
X383944D01*
X398641Y1197900D02*
X404691Y1203950D01*
X379691D02*
X385741Y1197900D01*
X77000Y1185000D02*
X1045000D01*
X224136Y1185900D02*
X430536D01*
X398641Y1197900D02*
X428050D01*
X400438Y1199697D02*
X429847D01*
X428050Y1197900D02*
X440350Y1210200D01*
X377373Y1205697D02*
X379691D01*
Y1203950D02*
Y1216450D01*
X385941Y1222700D01*
X375512Y1217697D02*
X380938D01*
X385941Y1222700D02*
X398441D01*
X404691Y1205697D02*
X435848D01*
X404691Y1211697D02*
X438853D01*
X398441Y1222700D02*
X404691Y1216450D01*
X403444Y1217697D02*
X432853D01*
X432469Y1202318D02*
Y1218082D01*
X404691Y1203950D02*
Y1216450D01*
X438469Y1185000D02*
Y1191348D01*
X450469Y1185000D02*
Y1203348D01*
X444469Y1185000D02*
Y1197348D01*
X456469Y1185000D02*
Y1209383D01*
X468469Y1185000D02*
Y1221383D01*
X462469Y1185000D02*
Y1215383D01*
X504468Y1185000D02*
Y1200820D01*
X516469Y1185000D02*
Y1200019D01*
X510468Y1185000D02*
Y1198718D01*
X480469Y1185000D02*
Y1223500D01*
X474469Y1185000D02*
Y1223500D01*
X498469Y1185000D02*
Y1223500D01*
X486469Y1185000D02*
Y1223500D01*
X434778Y1187657D02*
X450541Y1203420D01*
X454159Y1205697D02*
X500540D01*
X438469Y1208318D02*
Y1212082D01*
X458782Y1211697D02*
X499719D01*
X464782Y1217697D02*
X502401D01*
X504468Y1219580D02*
Y1223500D01*
X434818Y1187697D02*
X1045000D01*
X440818Y1193697D02*
X1045000D01*
X446818Y1199697D02*
X506437D01*
X470585Y1223500D02*
X569204D01*
X515806Y1199697D02*
X531837D01*
X516469Y1220381D02*
Y1223500D01*
X396469Y1222700D02*
Y1254082D01*
X408469Y1197900D02*
Y1242082D01*
X402469Y1218673D02*
Y1248082D01*
X378469Y1197900D02*
Y1269268D01*
X384469Y1221228D02*
Y1266082D01*
X390469Y1222700D02*
Y1260082D01*
X194824Y1229697D02*
X420853D01*
X420469Y1197900D02*
Y1230082D01*
X200824Y1223697D02*
X426853D01*
X380964Y1269586D02*
X440350Y1210200D01*
X188824Y1235697D02*
X414854D01*
X414469Y1197900D02*
Y1236082D01*
X389450Y1278071D02*
X448818Y1218703D01*
X164824Y1259697D02*
X390854D01*
X176824Y1247697D02*
X402854D01*
X170824Y1253697D02*
X396853D01*
X158824Y1265697D02*
X384854D01*
X402469Y1265052D02*
Y1442166D01*
X396469Y1271052D02*
Y1442166D01*
X182824Y1241697D02*
X408853D01*
X419824Y1247697D02*
X578916D01*
X413824Y1253697D02*
X584916D01*
X407824Y1259697D02*
X590916D01*
X401824Y1265697D02*
X596916D01*
X414469Y1253052D02*
Y1442166D01*
X408469Y1259052D02*
Y1442166D01*
X426469Y1197900D02*
Y1224082D01*
X443824Y1223697D02*
X453812D01*
X456469Y1226354D02*
Y1345641D01*
X438469Y1229052D02*
Y1365843D01*
X432469Y1235052D02*
Y1442166D01*
X450469Y1220354D02*
Y1346185D01*
X444469Y1223052D02*
Y1351289D01*
X437824Y1229697D02*
X459812D01*
X492469Y1185000D02*
Y1223500D01*
X455592Y1208507D02*
X470585Y1223500D01*
X448818Y1218703D02*
X463857Y1233743D01*
X462469Y1232354D02*
Y1348703D01*
X468469Y1235500D02*
Y1379700D01*
X480469Y1235500D02*
Y1379700D01*
X474469Y1235500D02*
Y1379700D01*
X426469Y1241052D02*
Y1442166D01*
X420469Y1247052D02*
Y1442166D01*
X492469Y1235500D02*
Y1382697D01*
X486469Y1235500D02*
Y1379700D01*
X425824Y1241697D02*
X572916D01*
X468100Y1235500D02*
X566719D01*
X431824Y1235697D02*
X566916D01*
X504468Y1235500D02*
Y1394698D01*
X498469Y1235500D02*
Y1388698D01*
X516469Y1235500D02*
Y1404358D01*
X510468Y1235500D02*
Y1400697D01*
X77000Y1271697D02*
X128198D01*
X77000Y1277697D02*
X124187D01*
X77000Y1355697D02*
X200040D01*
X77000Y1283697D02*
X124150D01*
X77000Y1289697D02*
X128025D01*
X146390Y1283697D02*
X276550D01*
X152824Y1271697D02*
X280599D01*
X146824Y1277697D02*
X276587D01*
X77000Y1349697D02*
X202559D01*
X77000Y1361697D02*
X200988D01*
X142515Y1289697D02*
X280425D01*
X77000Y1379697D02*
X193522D01*
X77000Y1367697D02*
X193041D01*
X77000Y1373697D02*
X191562D01*
X77000Y1385697D02*
X198426D01*
X194865Y1382135D02*
X200964Y1388235D01*
X77000Y1391697D02*
X231315D01*
X77000Y1409697D02*
X262326D01*
X77000Y1415697D02*
X265502D01*
X77000Y1397697D02*
X229621D01*
X77000Y1403697D02*
X256326D01*
X204469Y1366089D02*
Y1368712D01*
X203759Y1367697D02*
X207335D01*
X203674Y1376803D02*
X206571Y1379700D01*
X216469Y1367323D02*
Y1379700D01*
X210469Y1368422D02*
Y1379700D01*
X294741Y1271697D02*
X371199D01*
X298753Y1277697D02*
X367187D01*
X276469Y1283372D02*
Y1407292D01*
X222469Y1360323D02*
Y1379700D01*
X298790Y1283697D02*
X367150D01*
X294915Y1289697D02*
X371025D01*
X204500Y1389700D02*
X234473D01*
X206571Y1379700D02*
X244400D01*
X238527Y1389700D02*
X242329D01*
X241685Y1391697D02*
X244326D01*
X243379Y1397697D02*
X250326D01*
X247936Y1381165D02*
X270371Y1403600D01*
X242329Y1389700D02*
X263300Y1410671D01*
X144469Y1287667D02*
Y1460000D01*
X150469Y1274052D02*
Y1460000D01*
X192469Y1375918D02*
Y1460000D01*
X126469Y1288169D02*
Y1460000D01*
X138469Y1291812D02*
Y1460000D01*
X132469Y1291920D02*
Y1460000D01*
X222469Y1389700D02*
Y1460000D01*
X228469Y1389700D02*
Y1460000D01*
X246469Y1393840D02*
Y1440301D01*
X198469Y1385740D02*
Y1460000D01*
X204469Y1389700D02*
Y1460000D01*
X216469Y1389700D02*
Y1460000D01*
X210469Y1389700D02*
Y1460000D01*
X77000Y1451697D02*
X239764D01*
X240469Y1402166D02*
Y1441917D01*
X77000Y1445697D02*
X238256D01*
X234469Y1403099D02*
Y1460000D01*
X240469Y1452415D02*
Y1460000D01*
X246469Y1454031D02*
Y1460000D01*
X252469Y1399840D02*
Y1442166D01*
X258469Y1405840D02*
Y1442166D01*
X264469Y1414473D02*
Y1442166D01*
X258469Y1452166D02*
Y1460000D01*
X252469Y1452166D02*
Y1460000D01*
X270469Y1452166D02*
Y1460000D01*
X264469Y1452166D02*
Y1460000D01*
X276469Y1413908D02*
Y1442166D01*
X282469Y1291023D02*
Y1442166D01*
X288469Y1292238D02*
Y1442166D01*
X270469Y1417598D02*
Y1442166D01*
X288469Y1452166D02*
Y1460000D01*
X294469Y1290041D02*
Y1442166D01*
Y1452166D02*
Y1460000D01*
X378469Y1292264D02*
Y1442166D01*
X390469Y1277052D02*
Y1442166D01*
X384469Y1290452D02*
Y1442166D01*
X306469Y1452166D02*
Y1460000D01*
X300469Y1452166D02*
Y1460000D01*
X372469Y1290696D02*
Y1442166D01*
X312469Y1452166D02*
Y1460000D01*
X330469Y1452166D02*
Y1460000D01*
X342469Y1452166D02*
Y1460000D01*
X336469Y1452166D02*
Y1460000D01*
X282469Y1452166D02*
Y1460000D01*
X276469Y1452166D02*
Y1460000D01*
X324469Y1452166D02*
Y1460000D01*
X318469Y1452166D02*
Y1460000D01*
X372469Y1452166D02*
Y1460000D01*
X384469Y1452166D02*
Y1460000D01*
X378469Y1452166D02*
Y1460000D01*
X354469Y1452166D02*
Y1460000D01*
X348469Y1452166D02*
Y1460000D01*
X366469Y1452166D02*
Y1460000D01*
X360469Y1452166D02*
Y1460000D01*
X389390Y1283697D02*
X519550D01*
X395824Y1271697D02*
X523599D01*
X389824Y1277697D02*
X519587D01*
X77000Y1343697D02*
X910936D01*
X385515Y1289697D02*
X523425D01*
X77000Y1337697D02*
X910936D01*
X77000Y1307697D02*
X1045000D01*
X77000Y1295697D02*
X1045000D01*
X77000Y1301697D02*
X1045000D01*
X77000Y1325697D02*
X1045000D01*
X77000Y1331697D02*
X910936D01*
X77000Y1313697D02*
X1045000D01*
X77000Y1319697D02*
X1045000D01*
X205238Y1373697D02*
X434562D01*
X222900Y1355697D02*
X443040D01*
X215605Y1367697D02*
X436041D01*
X206568Y1379697D02*
X436522D01*
X252468Y1385697D02*
X441426D01*
X220381Y1349697D02*
X445559D01*
X221952Y1361697D02*
X443988D01*
X258468Y1391697D02*
X474315D01*
X264468Y1397697D02*
X472621D01*
X437864Y1382135D02*
X443964Y1388235D01*
X444469Y1362643D02*
Y1365909D01*
X446759Y1367697D02*
X450335D01*
X450469Y1367747D02*
Y1379700D01*
X446674Y1376803D02*
X449571Y1379700D01*
X462469Y1365229D02*
Y1379700D01*
X456469Y1368291D02*
Y1379700D01*
X463381Y1349697D02*
X687759D01*
X465900Y1355697D02*
X685240D01*
X464952Y1361697D02*
X686188D01*
X448238Y1373697D02*
X676762D01*
X449568Y1379697D02*
X678722D01*
X458605Y1367697D02*
X678241D01*
X449571Y1379700D02*
X487400D01*
X447500Y1389700D02*
X477473D01*
X481527D02*
X485329D01*
X486469Y1390840D02*
Y1395737D01*
X495468Y1385697D02*
X683626D01*
X484685Y1391697D02*
X487326D01*
X486379Y1397697D02*
X493326D01*
X501468Y1391697D02*
X716515D01*
X507468Y1397697D02*
X714821D01*
X249999Y1442166D02*
X483201D01*
X456469Y1389700D02*
Y1442166D01*
X450469Y1389700D02*
Y1442166D01*
X390469Y1452166D02*
Y1460000D01*
X438469Y1382740D02*
Y1442166D01*
X444469Y1388676D02*
Y1442166D01*
X271460Y1403697D02*
X499326D01*
X277241Y1409697D02*
X505326D01*
X275098Y1415697D02*
X508502D01*
X77000Y1433697D02*
X1045000D01*
X77000Y1439697D02*
X1045000D01*
X77000Y1421697D02*
X1045000D01*
X77000Y1427697D02*
X1045000D01*
X420469Y1452166D02*
Y1460000D01*
X432469Y1452166D02*
Y1460000D01*
X426469Y1452166D02*
Y1460000D01*
X402469Y1452166D02*
Y1460000D01*
X396469Y1452166D02*
Y1460000D01*
X414469Y1452166D02*
Y1460000D01*
X408469Y1452166D02*
Y1460000D01*
X77000Y1457697D02*
X1045000D01*
X444469Y1452166D02*
Y1460000D01*
X249999Y1452166D02*
X483201D01*
X438469D02*
Y1460000D01*
X77000D02*
X1045000D01*
X456469Y1452166D02*
Y1460000D01*
X450469Y1452166D02*
Y1460000D01*
X468469Y1389700D02*
Y1442166D01*
X492469Y1396840D02*
Y1441696D01*
X486469Y1397063D02*
Y1440359D01*
X462469Y1389700D02*
Y1442166D01*
X474469Y1401267D02*
Y1442166D01*
X498469Y1402840D02*
Y1442166D01*
X480469Y1403333D02*
Y1442166D01*
X490936Y1381165D02*
X513371Y1403600D01*
X514460Y1403697D02*
X741526D01*
X485329Y1389700D02*
X506300Y1410671D01*
X504468Y1408840D02*
Y1442166D01*
X516469Y1416842D02*
Y1442166D01*
X492469Y1452635D02*
Y1460000D01*
X486469Y1453973D02*
Y1460000D01*
X468469Y1452166D02*
Y1460000D01*
X462469Y1452166D02*
Y1460000D01*
X480469Y1452166D02*
Y1460000D01*
X474469Y1452166D02*
Y1460000D01*
X510468Y1417002D02*
Y1442166D01*
X492999D02*
X569801D01*
X498469Y1452166D02*
Y1460000D01*
X492999Y1452166D02*
X569801D01*
X510468D02*
Y1460000D01*
X504468Y1452166D02*
Y1460000D01*
X528469Y1185000D02*
Y1201990D01*
X540468Y1185000D02*
Y1199399D01*
X534468Y1185000D02*
Y1198885D01*
X522468Y1185000D02*
Y1208331D01*
X552468Y1185000D02*
Y1203651D01*
X546469Y1185000D02*
Y1204429D01*
X558468Y1185000D02*
Y1199231D01*
X588468Y1185000D02*
Y1198757D01*
X564468Y1185000D02*
Y1198986D01*
X570468Y1185000D02*
Y1202506D01*
X582468Y1185000D02*
Y1199774D01*
X576468Y1185000D02*
Y1206397D01*
X521703Y1205697D02*
X525939D01*
X547103D02*
X551339D01*
X522523Y1211697D02*
X525119D01*
X519841Y1217697D02*
X527801D01*
X547923Y1211697D02*
X550519D01*
X528469Y1218410D02*
Y1223500D01*
X541205Y1199697D02*
X557237D01*
X566605D02*
X582637D01*
X572503Y1205697D02*
X576740D01*
X545242Y1217697D02*
X553201D01*
X573323Y1211697D02*
X575919D01*
X570642Y1217697D02*
X578601D01*
X606971Y1198700D02*
X618471D01*
X618468Y1185000D02*
Y1198700D01*
X612468Y1185000D02*
Y1198700D01*
X594468Y1185000D02*
Y1201190D01*
X606468Y1185000D02*
Y1199203D01*
X601221Y1204450D02*
X606971Y1198700D01*
X619468Y1199697D02*
X724873D01*
X732468Y1185000D02*
Y1197727D01*
X726468Y1185000D02*
Y1198825D01*
X720468Y1185000D02*
Y1204615D01*
X618471Y1198700D02*
X624221Y1204450D01*
X738468Y1185000D02*
Y1199722D01*
X592005Y1199697D02*
X605974D01*
X597903Y1205697D02*
X601221D01*
X598723Y1211697D02*
X601221D01*
Y1204450D02*
Y1215950D01*
X596042Y1217697D02*
X602968D01*
X601221Y1215950D02*
X606971Y1221700D01*
X618471D01*
X624221Y1205697D02*
X719990D01*
X624221Y1211697D02*
X719241D01*
X618471Y1221700D02*
X624221Y1215950D01*
X622474Y1217697D02*
X721649D01*
X624221Y1204450D02*
Y1215950D01*
X552468Y1216749D02*
Y1223500D01*
X558468Y1221169D02*
Y1223500D01*
X564468Y1221414D02*
Y1223500D01*
X522468Y1212068D02*
Y1223500D01*
X546469Y1215971D02*
Y1223500D01*
X540468Y1221001D02*
Y1223500D01*
X570468Y1217894D02*
Y1223635D01*
X576468Y1214003D02*
Y1228279D01*
X573447Y1225257D02*
X617775Y1269586D01*
X582468Y1220626D02*
Y1234279D01*
X588468Y1221643D02*
Y1240279D01*
X522468Y1235500D02*
Y1272704D01*
X534468Y1235500D02*
Y1269911D01*
X528469Y1235500D02*
Y1269479D01*
X540468Y1235500D02*
Y1274746D01*
X552468Y1235500D02*
Y1442166D01*
X546469Y1235500D02*
Y1442166D01*
X566719Y1235500D02*
X609290Y1278071D01*
X570468Y1239250D02*
Y1441590D01*
X576468Y1245250D02*
Y1440393D01*
X564468Y1235500D02*
Y1442166D01*
X558468Y1235500D02*
Y1442166D01*
X582468Y1251250D02*
Y1442166D01*
X588468Y1257250D02*
Y1442166D01*
X600468Y1185000D02*
Y1252279D01*
X630468Y1185000D02*
Y1275084D01*
X624468Y1185000D02*
Y1269983D01*
X642468Y1185000D02*
Y1442166D01*
X636468Y1185000D02*
Y1442166D01*
X654468Y1185000D02*
Y1442166D01*
X648468Y1185000D02*
Y1442166D01*
X678468Y1185000D02*
Y1367439D01*
X714468Y1185000D02*
Y1379700D01*
X702468Y1185000D02*
Y1347035D01*
X666468Y1185000D02*
Y1442166D01*
X660468Y1185000D02*
Y1442166D01*
X708468Y1185000D02*
Y1379700D01*
X672468Y1185000D02*
Y1442166D01*
X594468Y1219210D02*
Y1246279D01*
X606468Y1221197D02*
Y1258279D01*
X612468Y1221700D02*
Y1264279D01*
X594468Y1263250D02*
Y1442166D01*
X600468Y1269250D02*
Y1442166D01*
X618468Y1221700D02*
Y1269442D01*
X684468Y1185000D02*
Y1365254D01*
X696468Y1185000D02*
Y1345468D01*
X690468Y1185000D02*
Y1347282D01*
X720468Y1215785D02*
Y1379700D01*
X726468Y1221575D02*
Y1379700D01*
X738468Y1220678D02*
Y1386497D01*
X732468Y1222673D02*
Y1380604D01*
X738429Y1199697D02*
X752367D01*
X762468Y1185000D02*
Y1200056D01*
X756468Y1185000D02*
Y1198715D01*
X768468Y1185000D02*
Y1208819D01*
X750468Y1185000D02*
Y1200771D01*
X761735Y1199697D02*
X777767D01*
X786468Y1185000D02*
Y1199424D01*
X780468Y1185000D02*
Y1198872D01*
X792468Y1185000D02*
Y1204551D01*
X774468Y1185000D02*
Y1201922D01*
X767633Y1205697D02*
X771869D01*
X743312D02*
X746469D01*
X765771Y1217697D02*
X773731D01*
X741653D02*
X748331D01*
X768453Y1211697D02*
X771049D01*
X791171Y1217697D02*
X799131D01*
X570729Y1223697D02*
X1045000D01*
X787135Y1199697D02*
X803167D01*
X577886Y1229697D02*
X1045000D01*
X583886Y1235697D02*
X1045000D01*
X589886Y1241697D02*
X1045000D01*
X595886Y1247697D02*
X1045000D01*
X601886Y1253697D02*
X1045000D01*
X804468Y1185000D02*
Y1199209D01*
X816468Y1185000D02*
Y1202584D01*
X810468Y1185000D02*
Y1199002D01*
X822468Y1185000D02*
Y1203733D01*
X798468Y1185000D02*
Y1203551D01*
X827501Y1198700D02*
X839001D01*
X834468Y1185000D02*
Y1198700D01*
X828468Y1185000D02*
Y1198700D01*
X821751Y1204450D02*
X827501Y1198700D01*
X812535Y1199697D02*
X826504D01*
X840468Y1185000D02*
Y1200167D01*
X839001Y1198700D02*
X844751Y1204450D01*
X793033Y1205697D02*
X797269D01*
X818433D02*
X821751D01*
X819253Y1211697D02*
X821751D01*
X793853D02*
X796449D01*
X816572Y1217697D02*
X823498D01*
X821751Y1204450D02*
Y1215950D01*
X827501Y1221700D01*
X839998Y1199697D02*
X1045000D01*
X844751Y1205697D02*
X1045000D01*
X844751Y1211697D02*
X1045000D01*
X839001Y1221700D02*
X844751Y1215950D01*
X827501Y1221700D02*
X839001D01*
X844751Y1204450D02*
Y1215950D01*
X843004Y1217697D02*
X1045000D01*
X744468Y1185000D02*
Y1392497D01*
X768468Y1211581D02*
Y1270142D01*
X792468Y1215849D02*
Y1460000D01*
X798468Y1216849D02*
Y1460000D01*
X822468Y1216667D02*
Y1460000D01*
X816468Y1217816D02*
Y1460000D01*
X870468Y1185000D02*
Y1460000D01*
X882468Y1185000D02*
Y1460000D01*
X876468Y1185000D02*
Y1460000D01*
X852468Y1185000D02*
Y1460000D01*
X846468Y1185000D02*
Y1460000D01*
X864468Y1185000D02*
Y1460000D01*
X858468Y1185000D02*
Y1460000D01*
X762468Y1220344D02*
Y1275862D01*
X774468Y1218478D02*
Y1269378D01*
X780468Y1221528D02*
Y1272133D01*
X750468Y1219629D02*
Y1398497D01*
X756468Y1221685D02*
Y1403667D01*
X786468Y1220976D02*
Y1460000D01*
X607886Y1259697D02*
X1045000D01*
X840468Y1220233D02*
Y1460000D01*
X613886Y1265697D02*
X1045000D01*
X804468Y1221191D02*
Y1460000D01*
X810468Y1221398D02*
Y1460000D01*
X834468Y1221700D02*
Y1460000D01*
X828468Y1221700D02*
Y1460000D01*
X972468Y1185000D02*
Y1328700D01*
X984468Y1185000D02*
Y1460000D01*
X978468Y1185000D02*
Y1328700D01*
X996468Y1185000D02*
Y1460000D01*
X990468Y1185000D02*
Y1460000D01*
X1008467Y1185000D02*
Y1460000D01*
X1002467Y1185000D02*
Y1460000D01*
X1038467Y1185000D02*
Y1460000D01*
X1045000Y1185000D02*
Y1460000D01*
X1044467Y1185000D02*
Y1460000D01*
X1020468Y1185000D02*
Y1460000D01*
X1014467Y1185000D02*
Y1460000D01*
X1032467Y1185000D02*
Y1460000D01*
X1026468Y1185000D02*
Y1460000D01*
X912468Y1185000D02*
Y1328700D01*
X924468Y1185000D02*
Y1328700D01*
X918468Y1185000D02*
Y1328700D01*
X894468Y1185000D02*
Y1460000D01*
X888468Y1185000D02*
Y1460000D01*
X906468Y1185000D02*
Y1460000D01*
X900468Y1185000D02*
Y1460000D01*
X954468Y1185000D02*
Y1328700D01*
X966468Y1185000D02*
Y1328700D01*
X960468Y1185000D02*
Y1328700D01*
X936468Y1185000D02*
Y1328700D01*
X930468Y1185000D02*
Y1328700D01*
X948468Y1185000D02*
Y1328700D01*
X942468Y1185000D02*
Y1328700D01*
X537741Y1271697D02*
X602916D01*
X541753Y1277697D02*
X608916D01*
X541790Y1283697D02*
X609350D01*
X522468Y1288827D02*
Y1442166D01*
X606468Y1275250D02*
Y1442166D01*
X612468Y1289026D02*
Y1442166D01*
X627541Y1271697D02*
X765799D01*
X631553Y1277697D02*
X761787D01*
X631590Y1283697D02*
X761750D01*
X537915Y1289697D02*
X613225D01*
X630468Y1286448D02*
Y1442166D01*
X627715Y1289697D02*
X765625D01*
X678468Y1376961D02*
Y1442166D01*
X534468Y1291620D02*
Y1442166D01*
X528469Y1292053D02*
Y1442166D01*
X624468Y1291548D02*
Y1442166D01*
X680064Y1382135D02*
X686164Y1388235D01*
X520242Y1409697D02*
X747526D01*
X518098Y1415697D02*
X750702D01*
X684468Y1386539D02*
Y1442166D01*
X690468Y1366650D02*
Y1370848D01*
X688959Y1367697D02*
X692535D01*
X690468Y1373552D02*
Y1378397D01*
X688874Y1376803D02*
X691771Y1379700D01*
X729600D01*
X702468Y1366897D02*
Y1379700D01*
X696468Y1368464D02*
Y1379700D01*
X762468Y1285670D02*
Y1409931D01*
X733136Y1381165D02*
X755571Y1403600D01*
X689700Y1389700D02*
X719673D01*
X723727D02*
X727529D01*
X714468D02*
Y1442166D01*
X690468Y1389700D02*
Y1442166D01*
X726468Y1401525D02*
Y1441308D01*
X720468Y1403291D02*
Y1442166D01*
X726885Y1391697D02*
X729526D01*
X728579Y1397697D02*
X735526D01*
X727529Y1389700D02*
X748500Y1410671D01*
X732468Y1394639D02*
Y1440510D01*
X516469Y1452166D02*
Y1460000D01*
X540468Y1286786D02*
Y1442166D01*
X522468Y1452166D02*
Y1460000D01*
X528469Y1452166D02*
Y1460000D01*
X546469Y1452166D02*
Y1460000D01*
X534468Y1452166D02*
Y1460000D01*
X618468Y1292090D02*
Y1442166D01*
X579599D02*
X725401D01*
X558468Y1452166D02*
Y1460000D01*
X552468Y1452166D02*
Y1460000D01*
X642468Y1452166D02*
Y1460000D01*
X564468Y1452166D02*
Y1460000D01*
X588468Y1452166D02*
Y1460000D01*
X600468Y1452166D02*
Y1460000D01*
X594468Y1452166D02*
Y1460000D01*
X540468Y1452166D02*
Y1460000D01*
X570468Y1452742D02*
Y1460000D01*
X582468Y1452166D02*
Y1460000D01*
X576468Y1453939D02*
Y1460000D01*
X579599Y1452166D02*
X725401D01*
X636468D02*
Y1460000D01*
X630468Y1452166D02*
Y1460000D01*
X612468Y1452166D02*
Y1460000D01*
X606468Y1452166D02*
Y1460000D01*
X624468Y1452166D02*
Y1460000D01*
X618468Y1452166D02*
Y1460000D01*
X696468Y1389700D02*
Y1442166D01*
X708468Y1389700D02*
Y1442166D01*
X702468Y1389700D02*
Y1442166D01*
X684468Y1452166D02*
Y1460000D01*
X738468Y1400639D02*
Y1460000D01*
X768468Y1291390D02*
Y1460000D01*
X780468Y1289398D02*
Y1460000D01*
X774468Y1292154D02*
Y1460000D01*
X744468Y1406639D02*
Y1460000D01*
X750468Y1415466D02*
Y1460000D01*
X762468Y1411269D02*
Y1460000D01*
X756468Y1417533D02*
Y1460000D01*
X672468Y1452166D02*
Y1460000D01*
X690468Y1452166D02*
Y1460000D01*
X678468Y1452166D02*
Y1460000D01*
X654468Y1452166D02*
Y1460000D01*
X648468Y1452166D02*
Y1460000D01*
X666468Y1452166D02*
Y1460000D01*
X660468Y1452166D02*
Y1460000D01*
X720468Y1452166D02*
Y1460000D01*
X726468Y1453024D02*
Y1460000D01*
X732468Y1453822D02*
Y1460000D01*
X702468Y1452166D02*
Y1460000D01*
X696468Y1452166D02*
Y1460000D01*
X714468Y1452166D02*
Y1460000D01*
X708468Y1452166D02*
Y1460000D01*
X910936Y1328700D02*
X925936D01*
Y1337697D02*
X928970D01*
X925936Y1343697D02*
X928970D01*
X910936Y1328700D02*
Y1344700D01*
X928970Y1328700D02*
Y1344700D01*
X925936Y1328700D02*
Y1344700D01*
X779941Y1271697D02*
X1045000D01*
X783953Y1277697D02*
X1045000D01*
X783990Y1283697D02*
X1045000D01*
X780115Y1289697D02*
X1045000D01*
X925936Y1331697D02*
X928970D01*
Y1328700D02*
X943970D01*
Y1331697D02*
X947682D01*
X705581Y1349697D02*
X912834D01*
X707152Y1361697D02*
X938870D01*
X912468Y1349158D02*
Y1379242D01*
X691768Y1379697D02*
X912212D01*
X924468Y1349052D02*
Y1379348D01*
X918468Y1352500D02*
Y1375900D01*
X708100Y1355697D02*
X940300D01*
X928970Y1344700D02*
X940300D01*
X924038Y1349697D02*
X940300D01*
X700805Y1367697D02*
X939092D01*
X690438Y1373697D02*
X940300D01*
Y1344700D02*
Y1359564D01*
X943970Y1328700D02*
Y1331700D01*
X947682Y1328700D02*
X962682D01*
X947682D02*
Y1331700D01*
X962682Y1343697D02*
X965716D01*
X950300Y1344700D02*
X962682D01*
X965716Y1328700D02*
Y1344700D01*
X962682Y1328700D02*
Y1344700D01*
Y1331697D02*
X965716D01*
Y1328700D02*
X980716D01*
Y1331697D02*
X1045000D01*
X980716Y1337697D02*
X1045000D01*
X962682D02*
X965716D01*
X980716Y1328700D02*
Y1344700D01*
Y1343697D02*
X1045000D01*
X950300Y1344700D02*
Y1359564D01*
Y1349697D02*
X967614D01*
X950300Y1379697D02*
X966992D01*
X978468Y1350128D02*
Y1378272D01*
X972468Y1352460D02*
Y1375940D01*
X950300Y1355697D02*
X1045000D01*
X978818Y1349697D02*
X1045000D01*
X951508Y1367697D02*
X1045000D01*
X950300Y1373697D02*
X1045000D01*
X951730Y1361697D02*
X1045000D01*
X979440Y1379697D02*
X1045000D01*
X737668Y1385697D02*
X910936D01*
X925936D02*
X928970D01*
X743668Y1391697D02*
X910936D01*
X925936Y1383700D02*
Y1399700D01*
X910936Y1383700D02*
Y1399700D01*
X924660Y1379697D02*
X940300D01*
X936468Y1344700D02*
Y1383700D01*
X930468Y1344700D02*
Y1383700D01*
X928970D02*
X940300D01*
X925936Y1391697D02*
X928970D01*
X940300Y1369362D02*
Y1383700D01*
X928970D02*
Y1399700D01*
X749668Y1397697D02*
X910936D01*
X925936D02*
X928970D01*
X910936Y1399700D02*
X925936D01*
X918468D02*
Y1460000D01*
X912468Y1399700D02*
Y1460000D01*
X930468Y1399700D02*
Y1460000D01*
X924468Y1399700D02*
Y1460000D01*
X756660Y1403697D02*
X1045000D01*
X928970Y1399700D02*
X943970D01*
X762441Y1409697D02*
X1045000D01*
X737144Y1445697D02*
X1045000D01*
X735636Y1451697D02*
X1045000D01*
X936468Y1399700D02*
Y1460000D01*
X760298Y1415697D02*
X1045000D01*
X950300Y1369362D02*
Y1383700D01*
X960468Y1344700D02*
Y1383700D01*
X954468Y1344700D02*
Y1383700D01*
X950300D02*
X962682D01*
X945300Y1396700D02*
X947682D01*
X962682Y1383700D02*
Y1399700D01*
Y1391697D02*
X965716D01*
X966468Y1347360D02*
Y1381040D01*
X980716Y1385697D02*
X1045000D01*
X965716Y1383700D02*
Y1399700D01*
X962682Y1385697D02*
X965716D01*
X980716Y1383700D02*
Y1399700D01*
Y1391697D02*
X1045000D01*
X943970Y1397697D02*
X947682D01*
Y1396700D02*
Y1399700D01*
X943970Y1396700D02*
Y1399700D01*
X948468D02*
Y1460000D01*
X942468Y1399700D02*
Y1460000D01*
X960468Y1399700D02*
Y1460000D01*
X954468Y1399700D02*
Y1460000D01*
X947682Y1399700D02*
X962682D01*
X980716Y1397697D02*
X1045000D01*
X962682D02*
X965716D01*
X966468Y1399700D02*
Y1460000D01*
X965716Y1399700D02*
X980716D01*
X978468D02*
Y1460000D01*
X972468Y1399700D02*
Y1460000D01*
D49*
X832500Y572850D02*
Y691450D01*
X785851Y1122700D02*
X807851Y1100700D01*
X757596Y335296D02*
Y419200D01*
X485600Y63300D02*
X757596Y335296D01*
X83700Y63300D02*
X485600D01*
X738100Y330500D02*
Y420564D01*
X489400Y81800D02*
X738100Y330500D01*
X88700Y81800D02*
X489400D01*
X648800Y253900D02*
Y390860D01*
X498480Y103580D02*
X648800Y253900D01*
X92040Y103580D02*
X498480D01*
X632600Y251200D02*
Y373200D01*
X510380Y128980D02*
X632600Y251200D01*
X92040Y128980D02*
X510380D01*
X196620Y279380D02*
Y287880D01*
X170900Y313600D02*
X196620Y287880D01*
X139470Y313600D02*
X170900D01*
X731464Y427200D02*
X738100Y420564D01*
X64600Y82400D02*
X83700Y63300D01*
X64600Y82400D02*
Y177740D01*
X92040Y205180D01*
X75800Y94700D02*
X88700Y81800D01*
X75800Y94700D02*
Y167500D01*
X88080Y179780D01*
X92040D01*
X567000Y491200D02*
X642500D01*
X550500Y474700D02*
X567000Y491200D01*
X550500Y377100D02*
Y474700D01*
X518000Y344600D02*
X550500Y377100D01*
X518000Y279600D02*
Y344600D01*
X408200Y169800D02*
X518000Y279600D01*
X304500Y169800D02*
X408200D01*
X289080Y154380D02*
X304500Y169800D01*
X92040Y154380D02*
X289080D01*
X624030Y415630D02*
X648800Y390860D01*
X616030Y389770D02*
X632600Y373200D01*
X647000Y426900D02*
X782451Y562351D01*
X619300Y426900D02*
X647000D01*
X608030Y415630D02*
X619300Y426900D01*
X637100Y435700D02*
X772000Y570600D01*
X612960Y435700D02*
X637100D01*
X604460Y427200D02*
X612960Y435700D01*
X628600Y444000D02*
X761100Y576500D01*
X603400Y444000D02*
X628600D01*
X578600Y419200D02*
X603400Y444000D01*
X1034684Y578600D02*
X1054134Y598050D01*
X847000Y578600D02*
X1034684D01*
X808900Y821500D02*
X850200Y862800D01*
X808900Y735900D02*
Y821500D01*
X902419Y1043519D02*
X960535D01*
X835700Y976800D02*
X902419Y1043519D01*
X835700Y885200D02*
Y976800D01*
X859634Y986634D02*
X875850D01*
X850650Y977650D02*
X859634Y986634D01*
X850650Y915800D02*
Y977650D01*
X782451Y562351D02*
Y1100700D01*
X772000Y570600D02*
Y1085751D01*
X757051Y1100700D02*
X772000Y1085751D01*
X569100Y430436D02*
X573864Y435200D01*
X569100Y321200D02*
Y430436D01*
Y321200D02*
X616966Y273334D01*
Y258151D02*
Y273334D01*
X711200Y1069100D02*
X761100Y1019200D01*
Y576500D02*
Y1019200D01*
X724000Y1122700D02*
X785851D01*
X711200Y1109900D02*
X724000Y1122700D01*
X711200Y1069100D02*
Y1109900D01*
X666416Y384020D02*
X672030Y389634D01*
X666416Y310550D02*
Y384020D01*
X518100Y467436D02*
X573864Y523200D01*
X518100Y384900D02*
Y467436D01*
X501200Y368000D02*
X518100Y384900D01*
X557300Y531200D02*
X578464D01*
X459500Y433400D02*
X557300Y531200D01*
X459500Y409700D02*
Y433400D01*
Y409700D02*
X475800Y393400D01*
X646564Y552100D02*
X656030Y542634D01*
X509700Y552100D02*
X646564D01*
X375500Y417900D02*
X509700Y552100D01*
X353366Y417900D02*
X375500D01*
X497435Y647767D02*
X576436Y568766D01*
X664030D01*
X650734Y807500D02*
X751700Y706534D01*
X495766Y807500D02*
X650734D01*
X394800Y706534D02*
X495766Y807500D01*
X692134Y816400D02*
X743800Y764734D01*
X446466Y816400D02*
X692134D01*
X394800Y764734D02*
X446466Y816400D01*
X394800Y825234D02*
X735600D01*
X408300Y962466D02*
X693400D01*
X306000Y1059800D02*
X677000D01*
X266400Y1099400D02*
X306000Y1059800D01*
X266400Y1099400D02*
Y1116300D01*
X341391Y1100700D02*
X366791Y1075300D01*
X290591Y1100700D02*
X323091Y1068200D01*
X278300Y1066966D02*
X294366Y1050900D01*
X685000D01*
X323091Y1068200D02*
X668000D01*
X366791Y1075300D02*
X659900D01*
X587321Y1082300D02*
X651100D01*
X273600Y217000D02*
X284800D01*
X294800Y227000D01*
X315500D01*
X526534Y788734D02*
Y798201D01*
D58*
X917579Y898212D02*
D03*
X217579D02*
D03*
D59*
X287670Y1280766D02*
D03*
X164870Y275400D02*
D03*
Y300800D02*
D03*
Y351600D02*
D03*
Y326200D02*
D03*
X139470Y339000D02*
D03*
Y364400D02*
D03*
Y313600D02*
D03*
Y288200D02*
D03*
D60*
X511121Y1100700D02*
D03*
X536521Y1100700D02*
D03*
X561921D02*
D03*
X587321D02*
D03*
X290591Y1100700D02*
D03*
X315991Y1100700D02*
D03*
X341391D02*
D03*
X366791D02*
D03*
X731651Y1100700D02*
D03*
X757051D02*
D03*
X782451D02*
D03*
X807851Y1100700D02*
D03*
X772870Y1280766D02*
D03*
X620470Y1280766D02*
D03*
X696670Y1356966D02*
D03*
X530670Y1280766D02*
D03*
X378270Y1280766D02*
D03*
X454470Y1356966D02*
D03*
X92040Y205180D02*
D03*
Y179780D02*
D03*
Y154380D02*
D03*
Y128980D02*
D03*
Y103580D02*
D03*
X15840D02*
D03*
Y128980D02*
D03*
Y154380D02*
D03*
Y179780D02*
D03*
X475800Y368000D02*
D03*
X501200Y393400D02*
D03*
X475800D02*
D03*
X501200Y418800D02*
D03*
X475800D02*
D03*
X42170Y256600D02*
D03*
X26970Y282100D02*
D03*
X42170Y357500D02*
D03*
X26970Y383000D02*
D03*
X287670Y1280766D02*
D03*
X135270Y1280766D02*
D03*
X211470Y1356966D02*
D03*
X567600Y90300D02*
D03*
X366791Y1210200D02*
D03*
X341391Y1210200D02*
D03*
X315991Y1210200D02*
D03*
X290591D02*
D03*
X587321Y1210200D02*
D03*
X561921Y1210200D02*
D03*
X536521Y1210200D02*
D03*
X511121D02*
D03*
X807851Y1210200D02*
D03*
X782451Y1210200D02*
D03*
X757051Y1210200D02*
D03*
X731651D02*
D03*
D61*
X612721Y1100700D02*
D03*
X392191Y1100700D02*
D03*
X833251D02*
D03*
X15840Y205180D02*
D03*
X392191Y1210200D02*
D03*
X612721D02*
D03*
X833251Y1210200D02*
D03*
D62*
X153970Y634300D02*
D03*
X153970Y596200D02*
D03*
X153970Y558100D02*
D03*
X153970Y520000D02*
D03*
X153970Y481900D02*
D03*
Y443800D02*
D03*
X26970Y443800D02*
D03*
X26970Y481900D02*
D03*
X26970Y520000D02*
D03*
X26970Y558100D02*
D03*
X26970Y596200D02*
D03*
X1092970Y742400D02*
D03*
X1092970Y780500D02*
D03*
X1092970Y818600D02*
D03*
X1092970Y856700D02*
D03*
X1092970Y894800D02*
D03*
X965970Y894800D02*
D03*
Y856700D02*
D03*
X965970Y818600D02*
D03*
X965970Y780500D02*
D03*
X965970Y742400D02*
D03*
X965970Y704300D02*
D03*
X26970Y856700D02*
D03*
X26970Y818600D02*
D03*
X26970Y780500D02*
D03*
X26970Y742400D02*
D03*
X26970Y704300D02*
D03*
X153970Y704300D02*
D03*
Y742400D02*
D03*
X153970Y780500D02*
D03*
X153970Y818600D02*
D03*
X153970Y856700D02*
D03*
X153970Y894800D02*
D03*
D63*
X26970Y634300D02*
D03*
X1092970Y704300D02*
D03*
X26970Y894800D02*
D03*
D64*
X1067079Y257190D02*
D03*
D65*
Y307990D02*
D03*
X1067079Y358790D02*
D03*
X1067079Y409590D02*
D03*
Y460390D02*
D03*
X106470Y242300D02*
D03*
Y397300D02*
D03*
D66*
X501200Y368000D02*
D03*
X567600Y45300D02*
D03*
D67*
X75970Y262800D02*
D03*
Y376800D02*
D03*
D68*
X642500Y491200D02*
D03*
X757596Y419200D02*
D03*
X731464Y427200D02*
D03*
Y499200D02*
D03*
X624030Y415630D02*
D03*
X616030Y389770D02*
D03*
X1054134Y598050D02*
D03*
X847000Y578600D02*
D03*
X808900Y735900D02*
D03*
X832500Y691450D02*
D03*
Y572850D02*
D03*
X850200Y862800D02*
D03*
X835700Y885200D02*
D03*
X960535Y1043519D02*
D03*
X875850Y986634D02*
D03*
X850650Y915800D02*
D03*
X573864Y467200D02*
D03*
Y451200D02*
D03*
X578464Y459200D02*
D03*
X608030Y415630D02*
D03*
X578600Y419200D02*
D03*
X604460Y427200D02*
D03*
X704030Y603300D02*
D03*
X608030Y603300D02*
D03*
X578599Y443199D02*
D03*
X573864Y435200D02*
D03*
X616966Y258151D02*
D03*
X551300Y238967D02*
D03*
X720030Y385034D02*
D03*
X573864Y523200D02*
D03*
X704030Y542634D02*
D03*
X608030D02*
D03*
X656030D02*
D03*
X664030Y568766D02*
D03*
X751700Y706534D02*
D03*
X743800Y764734D02*
D03*
X735600Y825234D02*
D03*
X693400Y962466D02*
D03*
X408300D02*
D03*
X685000Y1050900D02*
D03*
X677000Y1059800D02*
D03*
X668000Y1068200D02*
D03*
X659900Y1075300D02*
D03*
X587321Y1082300D02*
D03*
X651100D02*
D03*
X728030Y389634D02*
D03*
X712030Y389634D02*
D03*
X419266Y310100D02*
D03*
Y294600D02*
D03*
X180834Y398034D02*
D03*
X202166Y348066D02*
D03*
X196620Y279380D02*
D03*
X421966Y260500D02*
D03*
X812470Y24200D02*
D03*
X824970D02*
D03*
Y42234D02*
D03*
X812470D02*
D03*
X1068970Y50700D02*
D03*
X1096970Y81200D02*
D03*
X1081970D02*
D03*
X1002470Y95700D02*
D03*
X1018470D02*
D03*
X1018970Y113200D02*
D03*
Y130200D02*
D03*
X1002470Y113200D02*
D03*
X1001970Y130200D02*
D03*
X1091400Y128800D02*
D03*
X683600Y1372200D02*
D03*
X755500Y1410600D02*
D03*
X693100Y1372200D02*
D03*
X685400Y1439100D02*
D03*
X721700Y1396400D02*
D03*
X750000Y1383100D02*
D03*
X647800Y1389500D02*
D03*
X441400Y1372200D02*
D03*
X479500Y1396400D02*
D03*
X513300Y1410600D02*
D03*
X450900Y1372200D02*
D03*
X405600Y1389500D02*
D03*
X507800Y1383100D02*
D03*
X443200Y1439100D02*
D03*
X198400Y1372200D02*
D03*
X236500Y1396400D02*
D03*
X270300Y1410600D02*
D03*
X207900Y1372200D02*
D03*
X162600Y1389500D02*
D03*
X264800Y1383100D02*
D03*
X200200Y1439100D02*
D03*
X945300Y1364463D02*
D03*
X918436Y1345500D02*
D03*
X973216D02*
D03*
Y1382900D02*
D03*
X918436D02*
D03*
X448800Y1210200D02*
D03*
X245100Y1447166D02*
D03*
X488100D02*
D03*
X730300D02*
D03*
X574700D02*
D03*
X908000Y1285970D02*
D03*
X908000Y1400560D02*
D03*
X983900Y1422970D02*
D03*
X955182Y1346730D02*
D03*
X174700Y1065800D02*
D03*
X203734Y1017500D02*
D03*
X260266Y1085166D02*
D03*
X278300Y1066966D02*
D03*
X319900Y809400D02*
D03*
Y748900D02*
D03*
Y690200D02*
D03*
X385234Y690700D02*
D03*
X410000Y688534D02*
D03*
X394800Y706534D02*
D03*
X266400Y1116300D02*
D03*
X320000Y196034D02*
D03*
X264234Y239800D02*
D03*
X264034Y267200D02*
D03*
X291600Y305366D02*
D03*
X376766Y242200D02*
D03*
X301600Y220366D02*
D03*
X288266Y243700D02*
D03*
X288266Y263700D02*
D03*
X331600Y220366D02*
D03*
X285422Y349034D02*
D03*
X347400D02*
D03*
X278300Y1043066D02*
D03*
X394800Y764734D02*
D03*
X410000Y746734D02*
D03*
X385234Y748900D02*
D03*
X394800Y825234D02*
D03*
X410000Y807234D02*
D03*
X385234Y809400D02*
D03*
X394800Y937066D02*
D03*
X408300Y925300D02*
D03*
X319900Y925900D02*
D03*
X141734Y219600D02*
D03*
X273600Y217000D02*
D03*
X315500Y227000D02*
D03*
X280966Y656000D02*
D03*
X280966Y646500D02*
D03*
X280966Y637000D02*
D03*
X397166Y656200D02*
D03*
X397166Y646700D02*
D03*
X397166Y637200D02*
D03*
X397216Y598900D02*
D03*
X397216Y589400D02*
D03*
X397216Y579900D02*
D03*
X397166Y542400D02*
D03*
X397166Y532900D02*
D03*
X397166Y523400D02*
D03*
X397166Y485200D02*
D03*
X397166Y475700D02*
D03*
X397166Y466200D02*
D03*
X353366Y408400D02*
D03*
X353366Y417900D02*
D03*
X353366Y427400D02*
D03*
X280966Y466000D02*
D03*
X280966Y475500D02*
D03*
X280966Y485000D02*
D03*
X280966Y523200D02*
D03*
X280966Y532700D02*
D03*
X280966Y542200D02*
D03*
X281016Y579700D02*
D03*
X281016Y589200D02*
D03*
X281016Y598700D02*
D03*
X1054134Y610750D02*
D03*
X1023466Y623450D02*
D03*
X1065800Y643500D02*
D03*
X908600Y709850D02*
D03*
X888550Y752184D02*
D03*
X875850Y721516D02*
D03*
X972201Y998069D02*
D03*
X1014535Y1018119D02*
D03*
X983867Y1030819D02*
D03*
X908600Y944300D02*
D03*
X888550Y986634D02*
D03*
X875850Y955966D02*
D03*
Y805166D02*
D03*
X888550Y835834D02*
D03*
X908600Y793500D02*
D03*
X220216Y621500D02*
D03*
X220266Y564200D02*
D03*
X220216Y507700D02*
D03*
X220216Y450500D02*
D03*
X292616Y392900D02*
D03*
X336416Y450700D02*
D03*
X189200Y662266D02*
D03*
X305400Y662466D02*
D03*
Y491466D02*
D03*
X305400Y548666D02*
D03*
X305450Y605166D02*
D03*
X189200Y491266D02*
D03*
X189200Y548466D02*
D03*
X189250Y604966D02*
D03*
X261600Y433666D02*
D03*
X225066Y304300D02*
D03*
X402766Y195500D02*
D03*
X337416Y507900D02*
D03*
X337466Y564400D02*
D03*
X337416Y621700D02*
D03*
X241300Y1100466D02*
D03*
X321800Y436966D02*
D03*
X365600Y494766D02*
D03*
X365600Y551966D02*
D03*
X365650Y608466D02*
D03*
X365600Y665766D02*
D03*
X552734Y759900D02*
D03*
X606734D02*
D03*
X590699Y684634D02*
D03*
X567434Y671999D02*
D03*
X564999Y634767D02*
D03*
X577866Y734500D02*
D03*
X533100Y691265D02*
D03*
X564999Y647767D02*
D03*
X521000Y739766D02*
D03*
X632734Y740000D02*
D03*
X606734Y772600D02*
D03*
X526534Y798201D02*
D03*
X525733Y772800D02*
D03*
X258966Y542200D02*
D03*
X259016Y598700D02*
D03*
X258966Y656000D02*
D03*
Y485000D02*
D03*
X965366Y515400D02*
D03*
Y570300D02*
D03*
X308134Y149500D02*
D03*
X1036101Y598050D02*
D03*
X863150Y739549D02*
D03*
X863150Y823199D02*
D03*
Y973999D02*
D03*
X1001900Y1043519D02*
D03*
X497435Y657267D02*
D03*
X497435Y647767D02*
D03*
X497435Y638267D02*
D03*
X907804Y563200D02*
D03*
X1016336Y362700D02*
D03*
X373600Y195500D02*
D03*
X672030Y389634D02*
D03*
X666416Y310550D02*
D03*
X696300Y323251D02*
D03*
X585996Y326500D02*
D03*
X673500Y351166D02*
D03*
X429034Y285300D02*
D03*
X578464Y531200D02*
D03*
Y515200D02*
D03*
Y499200D02*
D03*
X578464Y483200D02*
D03*
X615300Y323300D02*
D03*
X539634Y296250D02*
D03*
Y283550D02*
D03*
X593634Y270851D02*
D03*
X766869Y112920D02*
D03*
X374766Y265200D02*
D03*
X373766Y274200D02*
D03*
X349934Y268700D02*
D03*
M02*
