G04 Layer_Color=32896*
%FSLAX44Y44*%
%MOMM*%
G71*
G01*
G75*
%ADD49C,0.2000*%
%ADD52C,0.2540*%
%ADD55C,0.4000*%
%ADD73C,0.1100*%
D49*
X949340Y1330096D02*
X979312D01*
X949340Y1343304D02*
X949340Y1330096D01*
X949340Y1343304D02*
X979312D01*
X979312Y1330096D01*
X949340Y1385096D02*
X979312D01*
X949340Y1398304D02*
X949340Y1385096D01*
X949340Y1398304D02*
X979312D01*
X979312Y1385096D01*
X912340Y1343304D02*
X942312D01*
X942312Y1330096D01*
X912340D02*
X942312D01*
X912340Y1343304D02*
X912340Y1330096D01*
X912340Y1398304D02*
X942312D01*
X942312Y1385096D01*
X912340D02*
X942312D01*
X912340Y1398304D02*
X912340Y1385096D01*
D52*
X804961Y1396842D02*
X807500Y1399381D01*
X812579D01*
X815118Y1396842D01*
Y1386685D01*
X812579Y1384146D01*
X807500D01*
X804961Y1386685D01*
X799883Y1399381D02*
X789726D01*
X794805D01*
Y1384146D01*
X784648D02*
X779569D01*
X782109D01*
Y1399381D01*
X784648Y1396842D01*
X562783Y1396710D02*
X565322Y1399249D01*
X570401D01*
X572940Y1396710D01*
Y1386553D01*
X570401Y1384014D01*
X565322D01*
X562783Y1386553D01*
X557705Y1399249D02*
X547548D01*
X552626D01*
Y1384014D01*
X532313D02*
X542470D01*
X532313Y1394171D01*
Y1396710D01*
X534852Y1399249D01*
X539931D01*
X542470Y1396710D01*
X319717Y1396700D02*
X322256Y1399239D01*
X327335D01*
X329874Y1396700D01*
Y1386543D01*
X327335Y1384004D01*
X322256D01*
X319717Y1386543D01*
X314639Y1399239D02*
X304482D01*
X309561D01*
Y1384004D01*
X299404Y1396700D02*
X296865Y1399239D01*
X291786D01*
X289247Y1396700D01*
Y1394161D01*
X291786Y1391622D01*
X294325D01*
X291786D01*
X289247Y1389082D01*
Y1386543D01*
X291786Y1384004D01*
X296865D01*
X299404Y1386543D01*
D55*
X815670Y1374466D02*
X815670Y1263266D01*
X577670Y1263266D02*
X815670Y1263266D01*
X577670Y1374466D02*
X815670Y1374466D01*
X577670Y1374466D02*
X577670Y1263266D01*
X573470Y1374466D02*
X573470Y1263266D01*
X335470D02*
X573470D01*
X335470Y1374466D02*
X573470Y1374466D01*
X335470Y1374466D02*
X335470Y1263266D01*
X330470Y1374466D02*
X330470Y1263266D01*
X92470D02*
X330470D01*
X92470Y1374466D02*
X330470Y1374466D01*
X92470Y1374466D02*
X92470Y1263266D01*
D73*
X938000Y1407998D02*
Y1402000D01*
X934001D01*
X928003Y1407998D02*
X932002D01*
Y1402000D01*
X928003D01*
X932002Y1404999D02*
X930003D01*
X926004Y1407998D02*
Y1402000D01*
X923005D01*
X922005Y1403000D01*
Y1406998D01*
X923005Y1407998D01*
X926004D01*
X917007Y1402000D02*
Y1407998D01*
X920006Y1404999D01*
X916007D01*
X974000Y1407998D02*
Y1402000D01*
X970001D01*
X964003Y1407998D02*
X968002D01*
Y1402000D01*
X964003D01*
X968002Y1404999D02*
X966003D01*
X962004Y1407998D02*
Y1402000D01*
X959005D01*
X958005Y1403000D01*
Y1406998D01*
X959005Y1407998D01*
X962004D01*
X952007Y1402000D02*
X956006D01*
X952007Y1405999D01*
Y1406998D01*
X953007Y1407998D01*
X955006D01*
X956006Y1406998D01*
X938000Y1352998D02*
Y1347000D01*
X934001D01*
X928003Y1352998D02*
X932002D01*
Y1347000D01*
X928003D01*
X932002Y1349999D02*
X930003D01*
X926004Y1352998D02*
Y1347000D01*
X923005D01*
X922005Y1348000D01*
Y1351998D01*
X923005Y1352998D01*
X926004D01*
X920006Y1351998D02*
X919006Y1352998D01*
X917007D01*
X916007Y1351998D01*
Y1350999D01*
X917007Y1349999D01*
X918007D01*
X917007D01*
X916007Y1348999D01*
Y1348000D01*
X917007Y1347000D01*
X919006D01*
X920006Y1348000D01*
X974000Y1352998D02*
Y1347000D01*
X970001D01*
X964003Y1352998D02*
X968002D01*
Y1347000D01*
X964003D01*
X968002Y1349999D02*
X966003D01*
X962004Y1352998D02*
Y1347000D01*
X959005D01*
X958005Y1348000D01*
Y1351998D01*
X959005Y1352998D01*
X962004D01*
X956006Y1347000D02*
X954007D01*
X955006D01*
Y1352998D01*
X956006Y1351998D01*
M02*
