G04 Layer_Physical_Order=1*
G04 Layer_Color=255*
%FSLAX25Y25*%
%MOIN*%
G70*
G01*
G75*
%ADD10R,0.02362X0.05905*%
%ADD11R,0.05905X0.02362*%
%ADD12R,0.06693X0.06299*%
%ADD13R,0.05905X0.12598*%
%ADD14R,0.05118X0.04331*%
G04:AMPARAMS|DCode=15|XSize=157.48mil|YSize=157.48mil|CornerRadius=39.37mil|HoleSize=0mil|Usage=FLASHONLY|Rotation=0.000|XOffset=0mil|YOffset=0mil|HoleType=Round|Shape=RoundedRectangle|*
%AMROUNDEDRECTD15*
21,1,0.15748,0.07874,0,0,0.0*
21,1,0.07874,0.15748,0,0,0.0*
1,1,0.07874,0.03937,-0.03937*
1,1,0.07874,-0.03937,-0.03937*
1,1,0.07874,-0.03937,0.03937*
1,1,0.07874,0.03937,0.03937*
%
%ADD15ROUNDEDRECTD15*%
G04:AMPARAMS|DCode=16|XSize=59.05mil|YSize=98.42mil|CornerRadius=14.76mil|HoleSize=0mil|Usage=FLASHONLY|Rotation=0.000|XOffset=0mil|YOffset=0mil|HoleType=Round|Shape=RoundedRectangle|*
%AMROUNDEDRECTD16*
21,1,0.05905,0.06890,0,0,0.0*
21,1,0.02953,0.09842,0,0,0.0*
1,1,0.02953,0.01476,-0.03445*
1,1,0.02953,-0.01476,-0.03445*
1,1,0.02953,-0.01476,0.03445*
1,1,0.02953,0.01476,0.03445*
%
%ADD16ROUNDEDRECTD16*%
%ADD17R,0.08268X0.07087*%
%ADD18R,0.03543X0.03150*%
G04:AMPARAMS|DCode=19|XSize=70.87mil|YSize=141.73mil|CornerRadius=3.54mil|HoleSize=0mil|Usage=FLASHONLY|Rotation=0.000|XOffset=0mil|YOffset=0mil|HoleType=Round|Shape=RoundedRectangle|*
%AMROUNDEDRECTD19*
21,1,0.07087,0.13465,0,0,0.0*
21,1,0.06378,0.14173,0,0,0.0*
1,1,0.00709,0.03189,-0.06732*
1,1,0.00709,-0.03189,-0.06732*
1,1,0.00709,-0.03189,0.06732*
1,1,0.00709,0.03189,0.06732*
%
%ADD19ROUNDEDRECTD19*%
%ADD20R,0.03937X0.05512*%
%ADD21O,0.05905X0.01575*%
%ADD22O,0.01575X0.05905*%
%ADD23R,0.06299X0.06693*%
G04:AMPARAMS|DCode=24|XSize=59.05mil|YSize=125.98mil|CornerRadius=14.76mil|HoleSize=0mil|Usage=FLASHONLY|Rotation=90.000|XOffset=0mil|YOffset=0mil|HoleType=Round|Shape=RoundedRectangle|*
%AMROUNDEDRECTD24*
21,1,0.05905,0.09646,0,0,90.0*
21,1,0.02953,0.12598,0,0,90.0*
1,1,0.02953,0.04823,0.01476*
1,1,0.02953,0.04823,-0.01476*
1,1,0.02953,-0.04823,-0.01476*
1,1,0.02953,-0.04823,0.01476*
%
%ADD24ROUNDEDRECTD24*%
%ADD25R,0.12598X0.05905*%
%ADD26R,0.06299X0.03937*%
%ADD27R,0.03937X0.06299*%
%ADD28R,0.03150X0.02756*%
%ADD29R,0.02756X0.03150*%
%ADD30C,0.01968*%
%ADD31C,0.03150*%
%ADD32C,0.01181*%
%ADD33C,0.02362*%
%ADD34C,0.00984*%
%ADD35C,0.03937*%
%ADD36C,0.02756*%
%ADD37C,0.01000*%
%ADD38C,0.07874*%
%ADD39C,0.01575*%
%ADD40C,0.06299*%
%ADD41P,0.06818X8X22.5*%
%ADD42R,0.06496X0.06496*%
%ADD43C,0.06496*%
%ADD44C,0.06000*%
%ADD45C,0.09842*%
%ADD46C,0.17716*%
%ADD47C,0.02756*%
G36*
X602645Y685662D02*
X602646Y685659D01*
X605945D01*
Y683691D01*
X602730D01*
X602795Y683534D01*
Y680147D01*
X605945D01*
Y678179D01*
X602795D01*
Y675321D01*
X503937D01*
Y676185D01*
X521683D01*
X522453Y676286D01*
X523172Y676584D01*
X523789Y677057D01*
X532730Y685998D01*
X602421D01*
X602645Y685662D01*
D02*
G37*
G36*
X457622Y781962D02*
Y781434D01*
X443794Y767606D01*
X443321Y766989D01*
X443023Y766271D01*
X442946Y765688D01*
X442447Y765720D01*
Y769071D01*
X440084D01*
Y765527D01*
Y761984D01*
X442446D01*
Y761984D01*
X442922Y761925D01*
Y749334D01*
X439730Y746141D01*
X439268Y746333D01*
Y752188D01*
X431394D01*
Y742739D01*
X431394D01*
X431300Y742278D01*
X430700D01*
X430606Y742739D01*
X430606Y742778D01*
Y746480D01*
X422732D01*
Y742778D01*
X422732Y742739D01*
X422639Y742278D01*
X415040D01*
X414604Y742432D01*
X414604Y742778D01*
Y748139D01*
X415057Y748253D01*
X415151Y748253D01*
X415481Y747878D01*
X415425Y747452D01*
X415540Y746578D01*
X415877Y745764D01*
X416413Y745065D01*
X417112Y744529D01*
X417816Y744238D01*
Y747452D01*
X419784D01*
Y744238D01*
X420488Y744529D01*
X421187Y745065D01*
X421723Y745764D01*
X422060Y746578D01*
X422175Y747452D01*
X422079Y748181D01*
X422143Y748253D01*
X422143D01*
Y750616D01*
X418600D01*
Y752584D01*
X422143D01*
Y754137D01*
X424906D01*
X425574Y754225D01*
X425833Y754332D01*
X425888Y754325D01*
X426563Y754414D01*
X427063Y754080D01*
Y752976D01*
X434937D01*
Y761984D01*
X438116D01*
Y765527D01*
Y769071D01*
X430635D01*
Y768109D01*
X426765D01*
Y769071D01*
X414954D01*
X414604Y769426D01*
Y770779D01*
X414044D01*
X413853Y771241D01*
X414434Y771822D01*
X440000D01*
X440771Y771923D01*
X441489Y772221D01*
X442106Y772694D01*
X448006Y778594D01*
X448479Y779211D01*
X448777Y779929D01*
X448878Y780700D01*
Y781590D01*
X449352Y781750D01*
X449547Y781496D01*
X450585Y780699D01*
X451793Y780199D01*
X453090Y780028D01*
X454388Y780199D01*
X455596Y780699D01*
X456634Y781496D01*
X457122Y782131D01*
X457622Y781962D01*
D02*
G37*
G36*
X602795Y661891D02*
Y652982D01*
X612268D01*
X612598Y652606D01*
X612570Y652391D01*
X612685Y651518D01*
X612724Y651422D01*
X612446Y651006D01*
X504286D01*
X504008Y651422D01*
X504048Y651518D01*
X504163Y652391D01*
X504048Y653265D01*
X503937Y653532D01*
Y662824D01*
X496772D01*
Y657903D01*
X494803D01*
Y662824D01*
X494464D01*
X494135Y663200D01*
X494163Y663415D01*
X494048Y664289D01*
X493952Y664519D01*
X494230Y664935D01*
X599751D01*
X602795Y661891D01*
D02*
G37*
G36*
X805479Y788766D02*
X805017Y788575D01*
X780496Y813096D01*
X779597Y813834D01*
X778571Y814382D01*
X777458Y814720D01*
X776300Y814834D01*
X551000D01*
X549842Y814720D01*
X548729Y814382D01*
X547703Y813834D01*
X547444Y813621D01*
X540432D01*
X540354Y813681D01*
Y813681D01*
X523819D01*
Y803839D01*
X530229D01*
Y802421D01*
X523819D01*
Y793451D01*
X523357Y793259D01*
X521218Y795399D01*
X520519Y795935D01*
X519705Y796272D01*
X518831Y796387D01*
X501577D01*
X501300Y796803D01*
X501351Y796926D01*
X501466Y797800D01*
X501351Y798674D01*
X501014Y799488D01*
X500477Y800187D01*
X500171Y800422D01*
X500341Y800922D01*
X505181D01*
X505952Y801023D01*
X506670Y801321D01*
X507287Y801794D01*
X514097Y808604D01*
X514778Y808886D01*
X515477Y809423D01*
X516014Y810122D01*
X516351Y810936D01*
X516466Y811810D01*
X516351Y812683D01*
X516014Y813497D01*
X515477Y814196D01*
X514778Y814733D01*
X513964Y815070D01*
X513091Y815185D01*
X512217Y815070D01*
X511403Y814733D01*
X510704Y814196D01*
X510167Y813497D01*
X509885Y812816D01*
X503947Y806878D01*
X462455D01*
X461774Y807160D01*
X460900Y807275D01*
X460026Y807160D01*
X459212Y806823D01*
X458513Y806287D01*
X457977Y805588D01*
X457640Y804774D01*
X457525Y803900D01*
X457640Y803026D01*
X457977Y802212D01*
X458513Y801513D01*
X459212Y800977D01*
X460026Y800640D01*
X460900Y800525D01*
X461774Y800640D01*
X462455Y800922D01*
X465414D01*
X465514Y800422D01*
X465411Y800379D01*
X464794Y799906D01*
X464794Y799906D01*
X458494Y793606D01*
X458021Y792989D01*
X457723Y792271D01*
X457622Y791500D01*
Y788117D01*
X457122Y787947D01*
X456634Y788583D01*
X455596Y789379D01*
X454388Y789880D01*
X453090Y790051D01*
X451793Y789880D01*
X450585Y789379D01*
X449547Y788583D01*
X449352Y788329D01*
X448878Y788489D01*
Y804566D01*
X453034Y808722D01*
X496536D01*
X497217Y808440D01*
X498091Y808325D01*
X498964Y808440D01*
X499778Y808777D01*
X500477Y809313D01*
X501014Y810012D01*
X501351Y810826D01*
X501466Y811700D01*
X501351Y812574D01*
X501014Y813388D01*
X500477Y814087D01*
X499778Y814623D01*
X498964Y814960D01*
X498091Y815075D01*
X497217Y814960D01*
X496536Y814678D01*
X451800D01*
X451029Y814577D01*
X450311Y814279D01*
X449694Y813806D01*
X443794Y807906D01*
X443321Y807289D01*
X443023Y806571D01*
X442922Y805800D01*
Y787651D01*
X442458Y787552D01*
X442422Y787556D01*
X441634Y788583D01*
X441466Y788712D01*
Y819840D01*
X441928Y820031D01*
X443167Y818792D01*
X443866Y818256D01*
X444680Y817918D01*
X445553Y817803D01*
X523819D01*
Y816437D01*
X540354D01*
X540432Y816377D01*
Y816377D01*
X556968D01*
Y826220D01*
X551982D01*
X551960Y826386D01*
X551623Y827200D01*
X551087Y827899D01*
X547072Y831914D01*
X546373Y832451D01*
X545559Y832788D01*
X544685Y832903D01*
X521654D01*
X520780Y832788D01*
X519966Y832451D01*
X519267Y831914D01*
X516811Y829458D01*
X463445D01*
X458074Y834829D01*
X458102Y835039D01*
X457931Y836336D01*
X457430Y837545D01*
X456634Y838583D01*
X455596Y839379D01*
X454388Y839880D01*
X453090Y840051D01*
X451793Y839880D01*
X450585Y839379D01*
X449547Y838583D01*
X448750Y837545D01*
X448250Y836336D01*
X448079Y835039D01*
X448250Y833742D01*
X448750Y832534D01*
X449547Y831496D01*
X450585Y830699D01*
X451793Y830199D01*
X453090Y830028D01*
X453301Y830056D01*
X458340Y825016D01*
X458149Y824554D01*
X446952D01*
X441566Y829940D01*
Y831367D01*
X441734Y831496D01*
X442530Y832534D01*
X443031Y833742D01*
X443202Y835039D01*
X443031Y836336D01*
X442530Y837545D01*
X441734Y838583D01*
X440696Y839379D01*
X439488Y839880D01*
X438191Y840051D01*
X436893Y839880D01*
X435685Y839379D01*
X434647Y838583D01*
X433850Y837545D01*
X433350Y836336D01*
X433179Y835039D01*
X433350Y833742D01*
X433850Y832534D01*
X434647Y831496D01*
X434715Y831443D01*
Y788712D01*
X434547Y788583D01*
X433750Y787545D01*
X433250Y786336D01*
X433079Y785039D01*
X433250Y783742D01*
X433750Y782534D01*
X434547Y781496D01*
X435585Y780699D01*
X436793Y780199D01*
X438091Y780028D01*
X439388Y780199D01*
X440596Y780699D01*
X441634Y781496D01*
X442422Y782522D01*
X442458Y782527D01*
X442922Y782428D01*
Y781934D01*
X438766Y777778D01*
X413200D01*
X412429Y777677D01*
X411711Y777379D01*
X411094Y776906D01*
X411094Y776906D01*
X406494Y772306D01*
X406021Y771689D01*
X405723Y770971D01*
X405698Y770779D01*
X402399D01*
Y759755D01*
X414604D01*
Y759755D01*
X415057Y759641D01*
Y753570D01*
X414604Y753456D01*
X414557Y753456D01*
X409486D01*
Y747944D01*
Y742432D01*
X410340D01*
X410439Y741932D01*
X410311Y741879D01*
X409694Y741406D01*
X409694Y741406D01*
X406294Y738006D01*
X405821Y737389D01*
X405775Y737279D01*
X402199D01*
Y726255D01*
X414404D01*
Y726255D01*
X414857Y726141D01*
Y720070D01*
X414404Y719956D01*
X414404Y719956D01*
Y719956D01*
X414404Y719956D01*
X409286D01*
Y714444D01*
X408301D01*
Y713460D01*
X402199D01*
Y708932D01*
X407859D01*
X408028Y708432D01*
X407994Y708406D01*
X407994Y708406D01*
X406294Y706706D01*
X405821Y706089D01*
X405817Y706079D01*
X402199D01*
Y695055D01*
X414404D01*
Y695055D01*
X414857Y694941D01*
Y688870D01*
X414404Y688756D01*
X414357Y688756D01*
X409286D01*
Y683244D01*
X408301D01*
Y682260D01*
X402199D01*
Y677732D01*
X408881D01*
X408980Y677232D01*
X408611Y677079D01*
X407994Y676606D01*
X407994Y676606D01*
X406294Y674906D01*
X405821Y674289D01*
X405817Y674279D01*
X402199D01*
Y663255D01*
X414404D01*
Y663255D01*
X414857Y663141D01*
Y657070D01*
X414404Y656956D01*
X414357Y656956D01*
X409286D01*
Y651444D01*
Y645932D01*
X414404D01*
Y651311D01*
X414904Y651522D01*
X415083Y651346D01*
X415025Y650900D01*
X415140Y650026D01*
X415477Y649212D01*
X416013Y648513D01*
X416712Y647977D01*
X417416Y647685D01*
Y650900D01*
X419384D01*
Y647685D01*
X420088Y647977D01*
X420787Y648513D01*
X421323Y649212D01*
X421660Y650026D01*
X421775Y650900D01*
X421699Y651476D01*
X421943Y651754D01*
X421943D01*
Y654116D01*
X418400D01*
Y656084D01*
X421943D01*
Y656872D01*
Y658619D01*
X423467D01*
X423912Y658277D01*
X424726Y657940D01*
X425600Y657825D01*
X426275Y657913D01*
X426775Y657580D01*
Y656476D01*
X434649D01*
Y665484D01*
X437916D01*
Y669028D01*
X438900D01*
Y670012D01*
X442246D01*
Y671528D01*
X442971Y671623D01*
X443689Y671921D01*
X444306Y672394D01*
X460006Y688094D01*
X460006Y688094D01*
X460479Y688711D01*
X460777Y689429D01*
X460878Y690200D01*
Y757166D01*
X470034Y766322D01*
X509700D01*
X510471Y766423D01*
X511189Y766721D01*
X511806Y767194D01*
X513257Y768645D01*
X513938Y768927D01*
X514637Y769464D01*
X515173Y770163D01*
X515511Y770977D01*
X515626Y771850D01*
X515511Y772724D01*
X515195Y773487D01*
X515331Y773857D01*
X515394Y773987D01*
X541161D01*
X542034Y774102D01*
X542848Y774439D01*
X543547Y774975D01*
X548552Y779980D01*
X553615D01*
X553806Y779518D01*
X542066Y767778D01*
X514505D01*
X514505Y767778D01*
X513734Y767677D01*
X513016Y767379D01*
X512399Y766906D01*
X503294Y757801D01*
X502821Y757184D01*
X502574Y756588D01*
X499199D01*
Y745565D01*
X511404D01*
Y745565D01*
X511857Y745450D01*
Y739379D01*
X511404Y739265D01*
X511357Y739265D01*
X506286D01*
Y733753D01*
Y728242D01*
X511404D01*
Y733621D01*
X511904Y733831D01*
X512083Y733656D01*
X512025Y733209D01*
X512140Y732336D01*
X512477Y731522D01*
X513013Y730823D01*
X513712Y730286D01*
X514416Y729995D01*
Y733209D01*
X516384D01*
Y729995D01*
X517088Y730286D01*
X517787Y730823D01*
X518323Y731522D01*
X518660Y732336D01*
X518775Y733209D01*
X518700Y733785D01*
X518943Y734063D01*
X518943D01*
Y736425D01*
X515400D01*
Y738394D01*
X518943D01*
Y739181D01*
Y740928D01*
X520467D01*
X520912Y740586D01*
X521726Y740249D01*
X522600Y740134D01*
X523363Y740235D01*
X523863Y739941D01*
Y738815D01*
X531737D01*
Y747794D01*
X534916D01*
Y751337D01*
Y754880D01*
X527435D01*
Y753918D01*
X523565D01*
Y754880D01*
X511754D01*
X511404Y755235D01*
Y756588D01*
X511158D01*
X510967Y757050D01*
X515738Y761822D01*
X543300D01*
X543994Y761913D01*
X544138Y761749D01*
X544249Y761461D01*
X541494Y758706D01*
X541021Y758089D01*
X540723Y757371D01*
X540622Y756600D01*
Y729086D01*
X537743Y726207D01*
X508883D01*
X508113Y726105D01*
X507394Y725808D01*
X506777Y725334D01*
X503294Y721851D01*
X502821Y721234D01*
X502523Y720516D01*
X502479Y720176D01*
X499213D01*
Y709152D01*
X511417D01*
Y709152D01*
X511870Y709038D01*
Y702967D01*
X511417Y702853D01*
X511370Y702853D01*
X506299D01*
Y697341D01*
Y691829D01*
X511417D01*
Y697208D01*
X511917Y697419D01*
X512097Y697243D01*
X512038Y696797D01*
X512153Y695923D01*
X512490Y695109D01*
X513027Y694410D01*
X513726Y693874D01*
X514429Y693582D01*
Y696797D01*
X516398D01*
Y693582D01*
X517101Y693874D01*
X517800Y694410D01*
X518336Y695109D01*
X518674Y695923D01*
X518789Y696797D01*
X518713Y697373D01*
X518957Y697651D01*
X518957D01*
Y700013D01*
X515413D01*
Y701981D01*
X518957D01*
Y702769D01*
Y704516D01*
X520480D01*
X520926Y704174D01*
X521740Y703837D01*
X522613Y703722D01*
X523376Y703822D01*
X523876Y703528D01*
Y702402D01*
X531750D01*
Y711381D01*
X534929D01*
Y714924D01*
Y718468D01*
X527449D01*
Y717506D01*
X523578D01*
Y718468D01*
X511767D01*
X511417Y718823D01*
Y720176D01*
X511887Y720250D01*
X538976D01*
X539747Y720352D01*
X540465Y720649D01*
X541082Y721122D01*
X545706Y725746D01*
X545706Y725746D01*
X546179Y726363D01*
X546477Y727081D01*
X546578Y727852D01*
X546578Y727852D01*
Y755366D01*
X546936Y755724D01*
X547398Y755533D01*
Y745511D01*
X559602D01*
Y745511D01*
X560055Y745397D01*
Y739326D01*
X559602Y739212D01*
X559555Y739212D01*
X554484D01*
Y733700D01*
Y728188D01*
X559602D01*
Y733567D01*
X560102Y733778D01*
X560282Y733602D01*
X560223Y733156D01*
X560338Y732282D01*
X560675Y731468D01*
X561212Y730769D01*
X561911Y730233D01*
X562614Y729941D01*
Y733156D01*
X564583D01*
Y729941D01*
X565286Y730233D01*
X565985Y730769D01*
X566522Y731468D01*
X566859Y732282D01*
X566974Y733156D01*
X566898Y733732D01*
X567142Y734010D01*
X567142D01*
Y736372D01*
X563598D01*
Y738340D01*
X567142D01*
Y739893D01*
X569816D01*
X570485Y739981D01*
X570743Y740088D01*
X570798Y740081D01*
X571563Y740181D01*
X572063Y739888D01*
Y738705D01*
X579937D01*
Y747740D01*
X583116D01*
Y751283D01*
Y754827D01*
X575635D01*
Y753865D01*
X571765D01*
Y754827D01*
X559954D01*
X559602Y755181D01*
Y756535D01*
X557254D01*
X557047Y757035D01*
X578706Y778694D01*
X579179Y779311D01*
X579477Y780029D01*
X579578Y780800D01*
Y781242D01*
X579907Y781354D01*
X580078Y781383D01*
X580617Y780969D01*
Y764505D01*
X580718Y763734D01*
X581016Y763016D01*
X581489Y762399D01*
X586422Y757466D01*
Y754827D01*
X585084D01*
Y751283D01*
Y747740D01*
X586422D01*
Y729434D01*
X583366Y726378D01*
X554700D01*
X553929Y726277D01*
X553211Y725979D01*
X552594Y725506D01*
X548894Y721806D01*
X548421Y721189D01*
X548123Y720471D01*
X548085Y720179D01*
X544799D01*
Y709155D01*
X557004D01*
Y709155D01*
X557457Y709041D01*
Y702970D01*
X557004Y702856D01*
X556957Y702856D01*
X551886D01*
Y697344D01*
X550902D01*
Y696360D01*
X544799D01*
Y691955D01*
X536493D01*
X536081Y692166D01*
X536081Y692455D01*
Y701615D01*
X528207D01*
Y692166D01*
X530175D01*
X530274Y691666D01*
X530007Y691556D01*
X529390Y691082D01*
X520449Y682141D01*
X503937D01*
Y684084D01*
X493766D01*
Y706119D01*
X494008Y706705D01*
X494123Y707579D01*
X494008Y708452D01*
X493671Y709266D01*
X493135Y709966D01*
X492436Y710502D01*
X491622Y710839D01*
X490748Y710954D01*
X489874Y710839D01*
X489060Y710502D01*
X488361Y709966D01*
X487825Y709266D01*
X487488Y708452D01*
X487373Y707579D01*
X487488Y706705D01*
X487809Y705929D01*
Y698124D01*
X487309Y697874D01*
X486661Y698142D01*
X485787Y698257D01*
X484914Y698142D01*
X484266Y697874D01*
X483766Y698124D01*
Y722363D01*
X484048Y723044D01*
X484163Y723917D01*
X484048Y724791D01*
X483710Y725605D01*
X483174Y726304D01*
X482475Y726840D01*
X481661Y727178D01*
X480787Y727293D01*
X479914Y727178D01*
X479100Y726840D01*
X478401Y726304D01*
X477864Y725605D01*
X477527Y724791D01*
X477412Y723917D01*
X477527Y723044D01*
X477809Y722363D01*
Y719778D01*
X477309Y719527D01*
X476661Y719796D01*
X475787Y719911D01*
X474914Y719796D01*
X474100Y719459D01*
X473401Y718922D01*
X472864Y718223D01*
X472527Y717409D01*
X472412Y716535D01*
X472527Y715662D01*
X472809Y714981D01*
Y684084D01*
X469464D01*
X469135Y684460D01*
X469163Y684675D01*
X469048Y685548D01*
X468711Y686363D01*
X468174Y687062D01*
X467475Y687598D01*
X466772Y687889D01*
Y684675D01*
X465787D01*
Y683691D01*
X462573D01*
X462638Y683534D01*
Y680147D01*
X465787D01*
Y679163D01*
X466772D01*
Y674242D01*
X492816D01*
X492911Y673521D01*
X493208Y672802D01*
X493681Y672185D01*
X494513Y671354D01*
X494322Y670892D01*
X473721D01*
X472950Y670790D01*
X472231Y670493D01*
X471615Y670019D01*
X468681Y667086D01*
X468208Y666469D01*
X467911Y665751D01*
X467809Y664980D01*
Y662824D01*
X462638D01*
Y652982D01*
X463206D01*
Y652716D01*
X463294Y652048D01*
X463552Y651426D01*
X463962Y650891D01*
X468254Y646600D01*
X468788Y646190D01*
X469411Y645932D01*
X470079Y645844D01*
X654246D01*
X669719Y630371D01*
Y581440D01*
X669807Y580772D01*
X670065Y580150D01*
X670475Y579615D01*
X687327Y562763D01*
X687861Y562353D01*
X688484Y562095D01*
X689152Y562007D01*
X689392D01*
X689721Y561631D01*
X689696Y561439D01*
X689791Y560719D01*
X690068Y560049D01*
X690210Y559864D01*
X690068Y559679D01*
X689791Y559008D01*
X689696Y558289D01*
X689791Y557570D01*
X690068Y556899D01*
X690210Y556714D01*
X690068Y556529D01*
X689791Y555859D01*
X689696Y555139D01*
X689791Y554420D01*
X690068Y553750D01*
X690210Y553565D01*
X690068Y553380D01*
X689791Y552709D01*
X689696Y551990D01*
X689791Y551270D01*
X690068Y550600D01*
X690210Y550415D01*
X690068Y550230D01*
X689791Y549560D01*
X689696Y548840D01*
X689791Y548121D01*
X689990Y547639D01*
X689830Y547516D01*
X685970Y543656D01*
X685560Y543121D01*
X685302Y542499D01*
X685214Y541831D01*
Y538157D01*
X684872Y537711D01*
X684535Y536897D01*
X684420Y536024D01*
X684535Y535150D01*
X684872Y534336D01*
X685409Y533637D01*
X686108Y533101D01*
X686922Y532763D01*
X687795Y532648D01*
X688669Y532763D01*
X689483Y533101D01*
X690182Y533637D01*
X690718Y534336D01*
X691056Y535150D01*
X691171Y536024D01*
X691056Y536897D01*
X690718Y537711D01*
X690376Y538157D01*
Y540048D01*
X690876Y540294D01*
X691086Y540134D01*
X691756Y539856D01*
X692124Y539808D01*
Y529259D01*
X692316Y528296D01*
X692861Y527479D01*
X706965Y513376D01*
X706918Y513262D01*
X706739Y511900D01*
X706918Y510538D01*
X707443Y509269D01*
X708280Y508180D01*
X709369Y507343D01*
X709836Y507150D01*
Y506650D01*
X709369Y506457D01*
X708280Y505620D01*
X707443Y504531D01*
X706918Y503262D01*
X706868Y502884D01*
X712000D01*
Y501900D01*
X712984D01*
Y496768D01*
X713362Y496818D01*
X714631Y497343D01*
X715721Y498179D01*
X716557Y499269D01*
X716750Y499736D01*
X717250D01*
X717443Y499269D01*
X718280Y498179D01*
X719369Y497343D01*
X720638Y496818D01*
X722000Y496638D01*
X723362Y496818D01*
X724631Y497343D01*
X725721Y498179D01*
X726557Y499269D01*
X726750Y499736D01*
X727250D01*
X727443Y499269D01*
X728279Y498179D01*
X729369Y497343D01*
X730638Y496818D01*
X732000Y496638D01*
X733362Y496818D01*
X734631Y497343D01*
X735720Y498179D01*
X736557Y499269D01*
X736750Y499736D01*
X737250D01*
X737443Y499269D01*
X738279Y498179D01*
X739369Y497343D01*
X740638Y496818D01*
X742000Y496638D01*
X743362Y496818D01*
X744631Y497343D01*
X745720Y498179D01*
X746557Y499269D01*
X746750Y499736D01*
X747250D01*
X747443Y499269D01*
X748279Y498179D01*
X749369Y497343D01*
X750638Y496818D01*
X752000Y496638D01*
X753362Y496818D01*
X754631Y497343D01*
X755721Y498179D01*
X756557Y499269D01*
X757082Y500538D01*
X757262Y501900D01*
X757082Y503262D01*
X756557Y504531D01*
X755721Y505620D01*
X754987Y506183D01*
X755157Y506683D01*
X757217D01*
Y517116D01*
X746783D01*
Y515057D01*
X746283Y514887D01*
X745720Y515621D01*
X744631Y516457D01*
X743362Y516982D01*
X742000Y517162D01*
X740638Y516982D01*
X739369Y516457D01*
X738279Y515621D01*
X737443Y514531D01*
X737250Y514064D01*
X736750D01*
X736557Y514531D01*
X735720Y515621D01*
X734631Y516457D01*
X734517Y516504D01*
Y537946D01*
X739476Y542905D01*
X739756Y543323D01*
X740256Y543172D01*
Y541352D01*
X742934D01*
X743675Y540611D01*
X743675Y540611D01*
X744292Y540137D01*
X745010Y539840D01*
X745781Y539738D01*
X745781Y539738D01*
X747756D01*
X748437Y539456D01*
X749311Y539341D01*
X750185Y539456D01*
X750999Y539793D01*
X751698Y540330D01*
X752234Y541029D01*
X752571Y541843D01*
X752686Y542717D01*
X752571Y543590D01*
X752234Y544404D01*
X751698Y545103D01*
X750999Y545640D01*
X750676Y545773D01*
X750776Y546273D01*
X761122D01*
Y551573D01*
X761622Y551907D01*
X761916Y551786D01*
Y554016D01*
X759686D01*
X759785Y553776D01*
X759507Y553360D01*
X753763D01*
X753572Y553822D01*
X754825Y555075D01*
X755235Y555609D01*
X755493Y556232D01*
X755581Y556900D01*
Y573000D01*
X755493Y573668D01*
X755235Y574291D01*
X754825Y574825D01*
X752721Y576929D01*
X752186Y577340D01*
X751564Y577597D01*
X750896Y577685D01*
X748425D01*
Y578228D01*
X746732D01*
Y579204D01*
X748451Y580923D01*
X749114D01*
Y580020D01*
X756934D01*
X759842Y577111D01*
Y571929D01*
Y566929D01*
Y561929D01*
Y561063D01*
X764764D01*
Y559094D01*
X759842D01*
Y556929D01*
X759842Y556929D01*
X759842D01*
X759870Y556429D01*
X759686Y555984D01*
X766115D01*
X765930Y556429D01*
X766235Y556929D01*
X769685D01*
X770098Y556718D01*
Y555217D01*
X782298D01*
Y554168D01*
X782280D01*
Y548917D01*
X777184D01*
Y543405D01*
X776200D01*
Y542421D01*
X770098D01*
Y537894D01*
X773052D01*
X773140Y537226D01*
X773477Y536412D01*
X774013Y535713D01*
X774712Y535177D01*
X775416Y534886D01*
Y538100D01*
X777384D01*
Y534886D01*
X778088Y535177D01*
X778787Y535713D01*
X779323Y536412D01*
X779660Y537226D01*
X779748Y537894D01*
X782280D01*
Y537632D01*
X792123D01*
Y553688D01*
X794379D01*
X794502Y553688D01*
X794879Y553390D01*
Y537632D01*
X804721D01*
Y542981D01*
X805044Y543023D01*
X805762Y543321D01*
X806379Y543794D01*
X811185Y548600D01*
X812126Y548314D01*
X813477Y548181D01*
X814828Y548314D01*
X816126Y548708D01*
X817323Y549348D01*
X818372Y550209D01*
X819233Y551258D01*
X819873Y552455D01*
X820267Y553754D01*
X820400Y555104D01*
X820267Y556455D01*
X819873Y557754D01*
X819233Y558950D01*
X818372Y560000D01*
X817323Y560860D01*
X816126Y561500D01*
X814828Y561894D01*
X813477Y562027D01*
X812126Y561894D01*
X810828Y561500D01*
X809631Y560860D01*
X808582Y560000D01*
X807721Y558950D01*
X807081Y557754D01*
X806687Y556455D01*
X806554Y555104D01*
X806687Y553754D01*
X806973Y552812D01*
X805183Y551022D01*
X804721Y551214D01*
Y554168D01*
X795002D01*
X794879Y554168D01*
X794502Y554466D01*
Y564712D01*
X782302D01*
Y566240D01*
X776088D01*
X775144Y567185D01*
X774950Y567333D01*
X774904Y567854D01*
X775220Y568209D01*
X782302D01*
Y571011D01*
X794502D01*
Y581535D01*
X794502Y581591D01*
X794879Y581890D01*
X794980Y581890D01*
X795124Y581890D01*
D01*
X795124Y581890D01*
X801998D01*
X806861Y577027D01*
X806687Y576455D01*
X806554Y575104D01*
X806687Y573753D01*
X807081Y572455D01*
X807721Y571258D01*
X808582Y570209D01*
X809631Y569348D01*
X810828Y568708D01*
X812126Y568314D01*
X813477Y568181D01*
X814828Y568314D01*
X816126Y568708D01*
X817323Y569348D01*
X818372Y570209D01*
X819233Y571258D01*
X819873Y572455D01*
X820267Y573753D01*
X820400Y575104D01*
X820267Y576455D01*
X819873Y577753D01*
X819233Y578950D01*
X818372Y579999D01*
X817323Y580861D01*
X816126Y581500D01*
X814828Y581894D01*
X813477Y582027D01*
X812126Y581894D01*
X810828Y581500D01*
X810817Y581495D01*
X804721Y587591D01*
Y598425D01*
X794879D01*
Y582390D01*
X794879Y582333D01*
X794502Y582035D01*
X794401Y582035D01*
X794257Y582035D01*
D01*
X794257Y582035D01*
X792123D01*
Y598425D01*
X782280D01*
Y596555D01*
X779753D01*
X779317Y597055D01*
X779375Y597500D01*
X779260Y598374D01*
X778923Y599188D01*
X778387Y599887D01*
X777688Y600423D01*
X776984Y600714D01*
Y597500D01*
X775016D01*
Y600714D01*
X774312Y600423D01*
X773613Y599887D01*
X773077Y599188D01*
X772740Y598374D01*
X772625Y597500D01*
X772683Y597055D01*
X772247Y596555D01*
X770098D01*
Y592028D01*
X776200D01*
Y591043D01*
X777184D01*
Y585532D01*
X782280D01*
Y581890D01*
X782298D01*
Y579232D01*
X770098D01*
Y578439D01*
X769685Y578228D01*
X765540D01*
X765284Y578846D01*
X764874Y579380D01*
X760925Y583329D01*
Y587106D01*
X760847D01*
Y587723D01*
X761346Y587858D01*
X761712Y587577D01*
X762526Y587240D01*
X763400Y587125D01*
X764274Y587240D01*
X765088Y587577D01*
X765787Y588113D01*
X766323Y588812D01*
X766660Y589626D01*
X766775Y590500D01*
X766660Y591374D01*
X766323Y592188D01*
X765787Y592887D01*
X765088Y593423D01*
X764274Y593760D01*
X763400Y593875D01*
X762526Y593760D01*
X761712Y593423D01*
X761346Y593142D01*
X760847Y593277D01*
Y594043D01*
X749035D01*
Y586957D01*
X749114D01*
Y586085D01*
X747382D01*
X746714Y585997D01*
X746092Y585740D01*
X745557Y585329D01*
X742326Y582098D01*
X741916Y581564D01*
X741658Y580941D01*
X741570Y580273D01*
Y578228D01*
X738583D01*
Y571929D01*
Y567097D01*
X731022D01*
X730597Y567273D01*
X729877Y567368D01*
X727206D01*
X727099Y567865D01*
X727634Y568275D01*
X731970Y572611D01*
X732380Y573146D01*
X732638Y573768D01*
X732726Y574436D01*
Y618379D01*
X732638Y619047D01*
X732380Y619669D01*
X731970Y620204D01*
X671186Y680988D01*
X670651Y681398D01*
X670029Y681656D01*
X669361Y681744D01*
X648590D01*
X648144Y682086D01*
X647330Y682423D01*
X646457Y682538D01*
X645583Y682423D01*
X644902Y682141D01*
X644095D01*
Y684084D01*
X643923D01*
Y686811D01*
X643923Y686811D01*
X643822Y687582D01*
X643524Y688300D01*
X643051Y688917D01*
X643051Y688917D01*
X640885Y691082D01*
X640269Y691556D01*
X640190Y691588D01*
X640289Y692088D01*
X642416D01*
Y696616D01*
X637298D01*
Y692455D01*
X637298Y692088D01*
X636853Y691955D01*
X629574D01*
X629368Y692369D01*
X629368Y692455D01*
Y701818D01*
X621494D01*
Y692455D01*
X621494Y692369D01*
X621365Y692109D01*
X621063D01*
X620706Y692556D01*
Y696109D01*
X612832D01*
Y692455D01*
X612832Y692369D01*
X612626Y691955D01*
X605147D01*
X604702Y692088D01*
X604702Y692455D01*
Y697397D01*
X605202Y697607D01*
X605374Y697440D01*
X605323Y697056D01*
X605438Y696182D01*
X605775Y695368D01*
X606312Y694669D01*
X607011Y694133D01*
X607714Y693841D01*
Y697056D01*
X609683D01*
Y693841D01*
X610386Y694133D01*
X611085Y694669D01*
X611622Y695368D01*
X611959Y696182D01*
X612074Y697056D01*
X612005Y697581D01*
X612243Y697854D01*
X612243D01*
Y700216D01*
X608700D01*
Y702184D01*
X612243D01*
Y702972D01*
Y704775D01*
X613765D01*
X614211Y704433D01*
X615025Y704096D01*
X615898Y703981D01*
X616663Y704081D01*
X617163Y703788D01*
Y702605D01*
X625037D01*
Y711640D01*
X628216D01*
Y715183D01*
Y718727D01*
X620735D01*
Y717765D01*
X616865D01*
Y718727D01*
X605054D01*
X604702Y719081D01*
Y720435D01*
X605125Y720622D01*
X629400D01*
X630171Y720723D01*
X630889Y721021D01*
X631506Y721494D01*
X636606Y726594D01*
X637079Y727211D01*
X637377Y727929D01*
X637398Y728088D01*
X642416D01*
Y733600D01*
Y739112D01*
X637478D01*
Y745411D01*
X649502D01*
Y745411D01*
X650000Y745405D01*
Y739117D01*
X649502Y739112D01*
Y739112D01*
X644384D01*
Y733600D01*
Y728088D01*
X649502D01*
Y733416D01*
X650002Y733605D01*
X650170Y733415D01*
X650123Y733056D01*
X650238Y732182D01*
X650575Y731368D01*
X651112Y730669D01*
X651811Y730133D01*
X652514Y729841D01*
Y733056D01*
X654483D01*
Y729841D01*
X655186Y730133D01*
X655885Y730669D01*
X656422Y731368D01*
X656759Y732182D01*
X656874Y733056D01*
X656811Y733531D01*
X657087Y733845D01*
X657087D01*
Y736207D01*
X653543D01*
Y738176D01*
X657087D01*
Y738963D01*
Y740775D01*
X658565D01*
X659011Y740433D01*
X659825Y740096D01*
X660698Y739981D01*
X661463Y740081D01*
X661963Y739788D01*
Y738576D01*
X669837D01*
Y747557D01*
X673016D01*
Y751100D01*
Y754643D01*
X665535D01*
Y753681D01*
X661665D01*
Y754643D01*
X649854D01*
X649502Y754998D01*
Y756058D01*
X650002Y756304D01*
X650111Y756221D01*
X650829Y755923D01*
X651600Y755822D01*
X675766D01*
X676483Y755105D01*
X676292Y754643D01*
X674984D01*
Y751100D01*
Y747557D01*
X677222D01*
Y728334D01*
X674566Y725678D01*
X647243D01*
X647242Y725678D01*
X646472Y725577D01*
X645753Y725279D01*
X645137Y724806D01*
X645137Y724806D01*
X641393Y721062D01*
X640919Y720445D01*
X640915Y720435D01*
X637298D01*
Y709411D01*
X649502D01*
Y709411D01*
X649957Y709301D01*
Y703222D01*
X649502Y703112D01*
X649457Y703112D01*
X644384D01*
Y697600D01*
Y692088D01*
X649502D01*
Y697397D01*
X650002Y697607D01*
X650174Y697440D01*
X650123Y697056D01*
X650238Y696182D01*
X650575Y695368D01*
X651112Y694669D01*
X651811Y694133D01*
X652514Y693841D01*
Y697056D01*
X654483D01*
Y693841D01*
X655186Y694133D01*
X655885Y694669D01*
X656422Y695368D01*
X656759Y696182D01*
X656874Y697056D01*
X656805Y697581D01*
X657043Y697854D01*
X657043D01*
Y700216D01*
X653500D01*
Y702184D01*
X657043D01*
Y703737D01*
X659661D01*
X660329Y703825D01*
X660707Y703982D01*
X661394Y704072D01*
X661894Y703748D01*
Y702612D01*
X669768D01*
Y711557D01*
X673016D01*
Y715100D01*
Y718643D01*
X665535D01*
Y717681D01*
X661665D01*
Y718643D01*
X649854D01*
X649502Y718998D01*
Y719722D01*
X675800D01*
X676571Y719823D01*
X677289Y720121D01*
X677906Y720594D01*
X682306Y724994D01*
X682779Y725611D01*
X683077Y726329D01*
X683178Y727100D01*
Y755600D01*
X683077Y756371D01*
X682779Y757089D01*
X682306Y757706D01*
X682306Y757706D01*
X680552Y759460D01*
X680743Y759922D01*
X681666D01*
X684849Y756740D01*
X684699Y756379D01*
X684699D01*
Y745355D01*
X696904D01*
X696904Y745355D01*
Y745355D01*
X696904Y745355D01*
X697357Y745241D01*
Y739170D01*
X696904Y739056D01*
X696857Y739056D01*
X691786D01*
Y733544D01*
Y728032D01*
X696904D01*
Y733284D01*
X697404Y733496D01*
X697569Y733336D01*
X697525Y733000D01*
X697640Y732126D01*
X697977Y731312D01*
X698513Y730613D01*
X699212Y730077D01*
X699916Y729785D01*
Y733000D01*
X701884D01*
Y729785D01*
X702588Y730077D01*
X703287Y730613D01*
X703823Y731312D01*
X704160Y732126D01*
X704275Y733000D01*
X704211Y733489D01*
X704443Y733753D01*
X704443D01*
Y736116D01*
X700900D01*
Y738084D01*
X704443D01*
Y739637D01*
X707018D01*
X707686Y739725D01*
X708200Y739938D01*
X708863Y740025D01*
X709363Y739731D01*
Y738476D01*
X717237D01*
Y747584D01*
X720416D01*
Y751127D01*
X722384D01*
Y747584D01*
X723822D01*
Y728934D01*
X720866Y725978D01*
X694643D01*
X694642Y725978D01*
X694257Y725927D01*
X693872Y725877D01*
X693153Y725579D01*
X692537Y725106D01*
X688693Y721262D01*
X688219Y720645D01*
X688215Y720635D01*
X684598D01*
Y709611D01*
X696802D01*
Y709611D01*
X697257Y709501D01*
Y703422D01*
X696802Y703312D01*
X696757Y703312D01*
X691684D01*
Y697800D01*
Y692288D01*
X696802D01*
Y697597D01*
X697302Y697807D01*
X697474Y697640D01*
X697423Y697256D01*
X697538Y696382D01*
X697875Y695568D01*
X698412Y694869D01*
X699111Y694333D01*
X699814Y694041D01*
Y697256D01*
X701783D01*
Y694041D01*
X702486Y694333D01*
X703185Y694869D01*
X703722Y695568D01*
X704059Y696382D01*
X704174Y697256D01*
X704105Y697781D01*
X704343Y698054D01*
X704343D01*
Y700416D01*
X700800D01*
Y702384D01*
X704343D01*
Y703172D01*
Y704975D01*
X705865D01*
X706311Y704633D01*
X707125Y704296D01*
X707998Y704181D01*
X708763Y704281D01*
X709263Y703988D01*
Y702776D01*
X717137D01*
Y711840D01*
X720314D01*
Y715383D01*
Y718927D01*
X712834D01*
Y717881D01*
X708965D01*
Y718843D01*
X697154D01*
X696802Y719198D01*
Y720022D01*
X722100D01*
X722871Y720123D01*
X723589Y720421D01*
X724206Y720894D01*
X728906Y725594D01*
X728906Y725594D01*
X729379Y726211D01*
X729677Y726929D01*
X729778Y727700D01*
Y754300D01*
X729677Y755071D01*
X729379Y755789D01*
X728906Y756406D01*
X728906Y756406D01*
X724906Y760406D01*
X724289Y760879D01*
X723571Y761177D01*
X722800Y761278D01*
X697534D01*
X690497Y768315D01*
X690688Y768777D01*
X705610D01*
X706278Y768865D01*
X706901Y769123D01*
X707435Y769533D01*
X712849Y774946D01*
X713259Y775481D01*
X713517Y776104D01*
X713598Y776718D01*
X714098Y776685D01*
Y774288D01*
X719216D01*
Y779800D01*
Y785312D01*
X714105D01*
X714098Y785312D01*
X713605Y785329D01*
Y791274D01*
X714075Y791620D01*
X714098Y791611D01*
Y791611D01*
X726302D01*
Y791611D01*
X726755Y791497D01*
Y785426D01*
X726302Y785312D01*
X726255Y785312D01*
X721184D01*
Y779800D01*
Y774288D01*
X726302D01*
Y779667D01*
X726802Y779878D01*
X726982Y779702D01*
X726923Y779256D01*
X727038Y778382D01*
X727375Y777568D01*
X727912Y776869D01*
X728611Y776333D01*
X729314Y776041D01*
Y779256D01*
X731283D01*
Y776041D01*
X731986Y776333D01*
X732685Y776869D01*
X733222Y777568D01*
X733559Y778382D01*
X733674Y779256D01*
X733598Y779832D01*
X733842Y780110D01*
X733842D01*
Y782472D01*
X730298D01*
Y784440D01*
X733842D01*
Y785993D01*
X736517D01*
X737185Y786081D01*
X737443Y786188D01*
X737498Y786181D01*
X738263Y786281D01*
X738763Y785988D01*
Y784976D01*
X746637D01*
Y793939D01*
X749814D01*
Y797482D01*
Y801025D01*
X742334D01*
Y797786D01*
X740875Y796327D01*
X740491Y795826D01*
X740255Y795808D01*
X739957Y795872D01*
X739734Y796410D01*
X739324Y796945D01*
X738465Y797804D01*
Y801043D01*
X726654D01*
X726302Y801398D01*
X726302Y802635D01*
X726665Y802966D01*
X773842D01*
X821466Y755342D01*
Y524858D01*
X817646Y521038D01*
X816991D01*
X816126Y521500D01*
X814828Y521894D01*
X813477Y522027D01*
X812126Y521894D01*
X810828Y521500D01*
X809963Y521038D01*
X796704D01*
X795546Y520924D01*
X794433Y520586D01*
X793407Y520038D01*
X792508Y519300D01*
X788554Y515346D01*
X787816Y514447D01*
X787505Y513864D01*
X786417D01*
X785518Y513746D01*
X784680Y513399D01*
X783960Y512847D01*
X783408Y512127D01*
X783061Y511289D01*
X782943Y510390D01*
Y507437D01*
X783061Y506538D01*
X783408Y505700D01*
X783960Y504980D01*
X784680Y504428D01*
X785518Y504081D01*
X786417Y503962D01*
X796063D01*
X796962Y504081D01*
X797800Y504428D01*
X798520Y504980D01*
X799072Y505700D01*
X799419Y506538D01*
X799538Y507437D01*
Y509170D01*
X809963D01*
X810828Y508708D01*
X812126Y508314D01*
X813477Y508181D01*
X814828Y508314D01*
X816126Y508708D01*
X816991Y509170D01*
X820104D01*
X821262Y509284D01*
X822375Y509622D01*
X823401Y510170D01*
X824300Y510908D01*
X830411Y517019D01*
X830873Y516828D01*
Y402297D01*
X680691D01*
X680646Y402322D01*
X680319Y402797D01*
X680340Y402905D01*
X680419Y403303D01*
X680419Y403304D01*
X680419Y403304D01*
X680419Y403676D01*
X680419Y409679D01*
X681956D01*
Y420309D01*
X680419D01*
Y422816D01*
X689711D01*
Y423750D01*
X690237D01*
X690777Y423336D01*
X691591Y422999D01*
X692464Y422884D01*
X693338Y422999D01*
X694152Y423336D01*
X694851Y423873D01*
X695387Y424572D01*
X695725Y425386D01*
X695840Y426259D01*
X695725Y427133D01*
X695387Y427947D01*
X694851Y428646D01*
X694152Y429182D01*
X693338Y429520D01*
X692464Y429635D01*
X691591Y429520D01*
X690777Y429182D01*
X690237Y428768D01*
X689711D01*
Y429903D01*
X681239D01*
X681229Y429918D01*
X681057Y430403D01*
X681490Y431051D01*
X682139Y431699D01*
X682901Y432209D01*
X683748Y432559D01*
X684001Y432610D01*
X692726D01*
Y437610D01*
Y439775D01*
X687805D01*
Y441744D01*
X692726D01*
Y442610D01*
Y447610D01*
Y453909D01*
X689986D01*
X689739Y454409D01*
X689787Y454472D01*
X690125Y455286D01*
X690240Y456159D01*
X690125Y457033D01*
X689787Y457847D01*
X689251Y458546D01*
X688552Y459082D01*
X687738Y459420D01*
X686864Y459535D01*
X685991Y459420D01*
X685177Y459082D01*
X684478Y458546D01*
X683941Y457847D01*
X683604Y457033D01*
X683489Y456159D01*
X683604Y455286D01*
X683941Y454472D01*
X683989Y454409D01*
X683743Y453909D01*
X682883D01*
Y449837D01*
X682421Y449646D01*
X681143Y450924D01*
Y451495D01*
X682208D01*
Y456613D01*
Y462216D01*
X682711D01*
Y469303D01*
X670900D01*
Y466625D01*
X670358Y466083D01*
X669885Y465466D01*
X669588Y464748D01*
X669486Y463977D01*
Y463406D01*
X668921D01*
Y456713D01*
Y451595D01*
X675121D01*
Y451495D01*
X675186D01*
Y449691D01*
X675287Y448920D01*
X675585Y448202D01*
X676058Y447585D01*
X679990Y443653D01*
X679990Y443653D01*
X680607Y443180D01*
X681325Y442883D01*
X682096Y442781D01*
X682096Y442781D01*
X682883D01*
Y441606D01*
X682507Y441351D01*
X682383Y441328D01*
X682236Y441448D01*
X681830Y441661D01*
X681597Y441730D01*
X681377Y441832D01*
X680932Y441942D01*
X680689Y441953D01*
X680451Y442001D01*
X680222Y442001D01*
X665785Y442001D01*
X665486Y442060D01*
X659108D01*
X658202Y441880D01*
X657434Y441366D01*
X656920Y440598D01*
X656906Y440526D01*
X656873Y440447D01*
X656873Y440447D01*
X656873Y440447D01*
X656802Y440090D01*
X656720Y439679D01*
X656720Y439678D01*
X656720Y439678D01*
X656720Y403675D01*
X656720Y403303D01*
X656720Y403303D01*
X656720Y403303D01*
X656806Y402874D01*
X656821Y402797D01*
X656494Y402322D01*
X656449Y402297D01*
X632103D01*
X631789Y402797D01*
X632044Y403416D01*
X632045Y403417D01*
X632045Y403418D01*
X632119Y403794D01*
X632196Y404184D01*
X632196Y404185D01*
X632196Y404186D01*
X632195Y404665D01*
X632194Y425250D01*
X632241Y425321D01*
X632422Y426227D01*
Y439692D01*
X632309Y440258D01*
X632302Y440553D01*
X632302Y440553D01*
X632302Y440553D01*
X632223Y440908D01*
X632132Y441317D01*
X632132Y441317D01*
X632132Y441317D01*
X631854Y441947D01*
X631854Y441947D01*
X631854Y441947D01*
X631622Y442276D01*
X631404Y442587D01*
X631404Y442587D01*
X631404Y442588D01*
X630906Y443062D01*
X630906Y443062D01*
X630906Y443062D01*
X630616Y443247D01*
X630245Y443482D01*
X630245Y443482D01*
X630245Y443482D01*
X629924Y443607D01*
X629785Y443631D01*
X629618Y444128D01*
X629623Y444168D01*
X640733Y455278D01*
X648100D01*
Y454316D01*
X656876D01*
X656996Y454266D01*
X657664Y454178D01*
X661631D01*
X662077Y453836D01*
X662891Y453499D01*
X663764Y453384D01*
X664638Y453499D01*
X665452Y453836D01*
X666151Y454373D01*
X666687Y455072D01*
X667025Y455886D01*
X667140Y456759D01*
X667025Y457633D01*
X666687Y458447D01*
X666151Y459146D01*
X665452Y459682D01*
X664638Y460020D01*
X663764Y460135D01*
X662891Y460020D01*
X662077Y459682D01*
X661631Y459340D01*
X659911D01*
Y461403D01*
X659145D01*
Y462077D01*
X659058Y462746D01*
X658800Y463368D01*
X658389Y463903D01*
X658029Y464263D01*
Y467503D01*
X650549D01*
Y463959D01*
X649564D01*
Y462975D01*
X646218D01*
Y460440D01*
X639664D01*
X638996Y460353D01*
X638374Y460095D01*
X637839Y459684D01*
X625039Y446884D01*
X624629Y446350D01*
X624371Y445727D01*
X624283Y445059D01*
Y443742D01*
X619682D01*
Y446796D01*
X609446D01*
Y443742D01*
X607667D01*
Y444248D01*
X595462D01*
Y442660D01*
X595357Y442503D01*
X595204Y441735D01*
X595204Y428615D01*
X557054Y428615D01*
X556721D01*
X555953Y428462D01*
X555338Y428208D01*
X555256Y428153D01*
X555161Y428113D01*
X554918Y427927D01*
X554687Y427773D01*
X554589Y427674D01*
X554441Y427561D01*
X554328Y427414D01*
X554216Y427302D01*
X554154Y427208D01*
X553708Y427143D01*
X553532Y427197D01*
X553253Y427561D01*
X552533Y428113D01*
X552298Y428211D01*
Y431473D01*
X553256D01*
X553434Y431491D01*
X553702D01*
X553896Y431529D01*
X554093D01*
X554355Y431581D01*
X554414Y431587D01*
X554471Y431604D01*
X554854Y431681D01*
X555036Y431756D01*
X555230Y431795D01*
X555947Y432092D01*
X556111Y432201D01*
X556294Y432277D01*
X556939Y432708D01*
X557078Y432848D01*
X557243Y432958D01*
X557791Y433506D01*
X557901Y433670D01*
X558041Y433810D01*
X558472Y434455D01*
X558547Y434638D01*
X558657Y434802D01*
X558954Y435518D01*
X558992Y435712D01*
X559068Y435895D01*
X559219Y436656D01*
Y436853D01*
X559258Y437047D01*
Y437435D01*
X559258Y437435D01*
X559258Y465289D01*
Y465701D01*
X559105Y466469D01*
X558790Y467230D01*
X558355Y467881D01*
X557772Y468463D01*
X557121Y468898D01*
X556415Y469191D01*
X556078Y469258D01*
X555745Y469341D01*
X555281Y469364D01*
X555232Y469357D01*
X555183Y469366D01*
X555181D01*
X555181Y469366D01*
X551444Y469366D01*
Y470244D01*
X543570D01*
Y469221D01*
X543534Y469214D01*
X543534Y469214D01*
X543534Y469214D01*
X543243Y469093D01*
X543243Y469093D01*
X543243Y469093D01*
X542892Y468859D01*
X542592Y468658D01*
X542592Y468658D01*
X542592Y468658D01*
X542371Y468437D01*
X542299Y468330D01*
X542202Y468245D01*
X542084Y468007D01*
X541936Y467786D01*
X541911Y467660D01*
X541853Y467544D01*
X541773Y467248D01*
Y467248D01*
X541773Y467248D01*
X541731Y467094D01*
X541713Y466829D01*
X541661Y466569D01*
X541661Y460575D01*
X540421D01*
Y464142D01*
X536484D01*
X532547D01*
Y460008D01*
X535336D01*
Y458016D01*
X538683D01*
Y457032D01*
X539667D01*
Y453489D01*
X540894D01*
X541161Y452989D01*
X541081Y452870D01*
X540733Y452522D01*
X540324Y452248D01*
X539869Y452060D01*
X539338Y451954D01*
X539091Y451942D01*
X512664Y451942D01*
X512306Y451942D01*
X512112Y451903D01*
X511914D01*
X511210Y451763D01*
X511028Y451688D01*
X510834Y451649D01*
X510171Y451375D01*
X510007Y451265D01*
X509824Y451189D01*
X509228Y450791D01*
X509088Y450651D01*
X508923Y450541D01*
X508416Y450034D01*
X508307Y449869D01*
X508167Y449730D01*
X507768Y449133D01*
X507692Y448951D01*
X507583Y448786D01*
X507308Y448123D01*
X507270Y447929D01*
X507194Y447747D01*
X507074Y447146D01*
Y446993D01*
X507038Y446844D01*
X507017Y446382D01*
X507024Y446337D01*
X507016Y446293D01*
Y436781D01*
X507054Y436587D01*
Y436389D01*
X507194Y435686D01*
X507270Y435503D01*
X507308Y435309D01*
X507583Y434647D01*
X507692Y434482D01*
X507768Y434300D01*
X508167Y433703D01*
X508307Y433563D01*
X508416Y433399D01*
X508924Y432892D01*
X509088Y432782D01*
X509228Y432642D01*
X509824Y432243D01*
X510007Y432168D01*
X510171Y432058D01*
X510834Y431784D01*
X511028Y431745D01*
X511210Y431669D01*
X511914Y431529D01*
X512112D01*
X512306Y431491D01*
X512664D01*
X545204Y431491D01*
X545382Y431473D01*
X546341D01*
Y428211D01*
X546106Y428113D01*
X545386Y427561D01*
X545107Y427197D01*
X544477D01*
X544198Y427561D01*
X543478Y428113D01*
X542640Y428460D01*
X541741Y428579D01*
X541249D01*
Y421659D01*
Y414740D01*
X541741D01*
X542640Y414858D01*
X543478Y415205D01*
X544198Y415758D01*
X544477Y416121D01*
X545107D01*
X545386Y415758D01*
X546106Y415205D01*
X546944Y414858D01*
X547843Y414740D01*
X550796D01*
X551695Y414858D01*
X552533Y415205D01*
X552874Y415467D01*
X553374Y415220D01*
X553374Y404758D01*
X553374Y404276D01*
X553448Y403901D01*
X553526Y403508D01*
X553820Y402797D01*
X553561Y402297D01*
X398294D01*
X398294Y563194D01*
X398794Y563496D01*
X399016Y563467D01*
Y568500D01*
X400000D01*
Y569484D01*
X405033D01*
X404986Y569836D01*
X404471Y571081D01*
X403650Y572150D01*
X402581Y572971D01*
X401956Y573229D01*
Y573771D01*
X402581Y574029D01*
X403650Y574850D01*
X404471Y575919D01*
X404986Y577164D01*
X405033Y577516D01*
X400000D01*
Y579484D01*
X405033D01*
X404986Y579836D01*
X404471Y581081D01*
X403650Y582150D01*
X402581Y582971D01*
X401956Y583229D01*
Y583771D01*
X402581Y584029D01*
X403650Y584850D01*
X404471Y585919D01*
X404986Y587164D01*
X405033Y587516D01*
X400000D01*
Y589484D01*
X405033D01*
X404986Y589836D01*
X404471Y591081D01*
X403650Y592150D01*
X402581Y592971D01*
X401956Y593229D01*
Y593771D01*
X402581Y594029D01*
X403650Y594850D01*
X404471Y595919D01*
X404986Y597164D01*
X405033Y597516D01*
X400000D01*
Y599484D01*
X405033D01*
X404986Y599836D01*
X404471Y601081D01*
X403650Y602150D01*
X402648Y602919D01*
X402627Y603275D01*
X402657Y603480D01*
X405118Y605941D01*
Y607516D01*
X400000D01*
Y608500D01*
X399016D01*
Y613618D01*
X398294D01*
X398294Y787632D01*
X425853Y787632D01*
X425853Y846687D01*
X805479Y846687D01*
X805479Y788766D01*
D02*
G37*
G36*
X680897Y439884D02*
X681303Y439671D01*
X681646Y439366D01*
X681777Y439178D01*
Y439178D01*
X682122Y438736D01*
X682956Y437991D01*
X683942Y437463D01*
X685024Y437182D01*
X685583Y437140D01*
X685583D01*
X690519Y437140D01*
Y434777D01*
X685105Y434777D01*
X684449Y434745D01*
X683162Y434489D01*
X681950Y433987D01*
X680859Y433258D01*
X679931Y432331D01*
X679203Y431240D01*
X678700Y430027D01*
X678444Y428741D01*
X678412Y428085D01*
Y428085D01*
X678412Y403675D01*
X678412Y403303D01*
X678128Y402615D01*
X677602Y402089D01*
X676914Y401805D01*
X676542Y401805D01*
X676542D01*
X660597Y401805D01*
X660225Y401805D01*
X659538Y402090D01*
X659012Y402616D01*
X658727Y403303D01*
X658727Y403675D01*
Y403675D01*
X658727Y439600D01*
Y439678D01*
X658787Y439823D01*
X658898Y439934D01*
X659042Y439993D01*
X659121D01*
X659121Y439993D01*
X680222Y439994D01*
X680451Y439994D01*
X680897Y439884D01*
D02*
G37*
G36*
X714098Y802635D02*
X714098Y802466D01*
Y797637D01*
X713461D01*
X712793Y797549D01*
X712171Y797291D01*
X711636Y796881D01*
X709199Y794443D01*
X708788Y793909D01*
X708530Y793286D01*
X708442Y792618D01*
Y777841D01*
X704541Y773939D01*
X703872D01*
X703468Y774169D01*
X703468Y774439D01*
Y783618D01*
X695594D01*
Y774439D01*
X695594Y774212D01*
X695200Y773985D01*
X694806Y774212D01*
X694806Y774439D01*
Y777910D01*
X686932D01*
Y774439D01*
X686932Y774169D01*
X686527Y773939D01*
X678802D01*
Y779197D01*
X679302Y779407D01*
X679474Y779240D01*
X679423Y778856D01*
X679538Y777982D01*
X679875Y777168D01*
X680412Y776469D01*
X681111Y775933D01*
X681814Y775641D01*
Y778856D01*
X683783D01*
Y775641D01*
X684486Y775933D01*
X685185Y776469D01*
X685722Y777168D01*
X686059Y777982D01*
X686174Y778856D01*
X686105Y779381D01*
X686343Y779654D01*
X686343D01*
Y782016D01*
X682800D01*
Y783984D01*
X686343D01*
Y785537D01*
X688961D01*
X689629Y785625D01*
X690007Y785782D01*
X690763Y785881D01*
X691263Y785588D01*
Y784406D01*
X699137D01*
Y789532D01*
X700007Y790402D01*
X700417Y790937D01*
X700675Y791560D01*
X700763Y792228D01*
Y793440D01*
X702316D01*
Y796983D01*
Y800527D01*
X694835D01*
Y793854D01*
X692580D01*
Y794603D01*
X692492Y795271D01*
X692234Y795894D01*
X691824Y796428D01*
X690965Y797287D01*
Y800527D01*
X679154D01*
X678802Y800881D01*
Y802235D01*
X666598D01*
Y798678D01*
X652145D01*
X651464Y798960D01*
X650590Y799075D01*
X649717Y798960D01*
X648903Y798623D01*
X648203Y798087D01*
X647667Y797388D01*
X647330Y796574D01*
X647215Y795700D01*
X647330Y794826D01*
X647667Y794012D01*
X648203Y793313D01*
X648903Y792777D01*
X649717Y792440D01*
X650590Y792325D01*
X651464Y792440D01*
X652145Y792722D01*
X666598D01*
Y791211D01*
X678802D01*
Y791211D01*
X679257Y791101D01*
Y785022D01*
X678802Y784912D01*
X678757Y784912D01*
X673684D01*
Y779400D01*
X672700D01*
Y778416D01*
X666598D01*
Y773939D01*
X665636D01*
X652804Y786772D01*
X652269Y787182D01*
X651647Y787440D01*
X650979Y787528D01*
X647877D01*
X647139Y788490D01*
X646101Y789287D01*
X644892Y789787D01*
X643595Y789958D01*
X642298Y789787D01*
X641089Y789287D01*
X640052Y788490D01*
X639255Y787452D01*
X638755Y786244D01*
X638584Y784947D01*
X638755Y783650D01*
X639255Y782441D01*
X640052Y781403D01*
X641089Y780607D01*
X642298Y780106D01*
X643595Y779935D01*
X644892Y780106D01*
X646101Y780607D01*
X647139Y781403D01*
X647877Y782366D01*
X649909D01*
X661384Y770891D01*
X661206Y770362D01*
X660982Y770330D01*
X655106Y776206D01*
X654489Y776679D01*
X653771Y776977D01*
X653000Y777078D01*
X634134D01*
X631573Y779639D01*
Y780969D01*
X632139Y781403D01*
X632935Y782441D01*
X633436Y783650D01*
X633606Y784947D01*
X633436Y786244D01*
X632935Y787452D01*
X632139Y788490D01*
X631101Y789287D01*
X629892Y789787D01*
X628595Y789958D01*
X627298Y789787D01*
X626089Y789287D01*
X625078Y788511D01*
X624906Y788539D01*
X624578Y788651D01*
Y794145D01*
X624860Y794826D01*
X624975Y795700D01*
X624860Y796574D01*
X624523Y797388D01*
X623987Y798087D01*
X623288Y798623D01*
X622474Y798960D01*
X621600Y799075D01*
X620726Y798960D01*
X619912Y798623D01*
X619213Y798087D01*
X618677Y797388D01*
X618340Y796574D01*
X618225Y795700D01*
X618340Y794826D01*
X618622Y794145D01*
Y787101D01*
X618122Y787002D01*
X617935Y787452D01*
X617139Y788490D01*
X616101Y789287D01*
X614892Y789787D01*
X613595Y789958D01*
X612298Y789787D01*
X611089Y789287D01*
X610078Y788511D01*
X609906Y788539D01*
X609578Y788651D01*
Y794145D01*
X609860Y794826D01*
X609975Y795700D01*
X609860Y796574D01*
X609523Y797388D01*
X608987Y798087D01*
X608288Y798623D01*
X607474Y798960D01*
X606600Y799075D01*
X605726Y798960D01*
X604912Y798623D01*
X604213Y798087D01*
X603677Y797388D01*
X603340Y796574D01*
X603225Y795700D01*
X603340Y794826D01*
X603622Y794145D01*
Y787101D01*
X603122Y787002D01*
X602935Y787452D01*
X602139Y788490D01*
X601101Y789287D01*
X599892Y789787D01*
X598595Y789958D01*
X597298Y789787D01*
X596089Y789287D01*
X595078Y788511D01*
X594907Y788539D01*
X594578Y788651D01*
Y794145D01*
X594860Y794826D01*
X594975Y795700D01*
X594860Y796574D01*
X594523Y797388D01*
X593987Y798087D01*
X593288Y798623D01*
X592474Y798960D01*
X591600Y799075D01*
X590726Y798960D01*
X589912Y798623D01*
X589213Y798087D01*
X588677Y797388D01*
X588340Y796574D01*
X588225Y795700D01*
X588340Y794826D01*
X588622Y794145D01*
Y787101D01*
X588122Y787002D01*
X587935Y787452D01*
X587139Y788490D01*
X586101Y789287D01*
X584892Y789787D01*
X583595Y789958D01*
X582298Y789787D01*
X581089Y789287D01*
X580078Y788511D01*
X579907Y788539D01*
X579578Y788651D01*
Y794145D01*
X579860Y794826D01*
X579975Y795700D01*
X579860Y796574D01*
X579523Y797388D01*
X578987Y798087D01*
X578288Y798623D01*
X577474Y798960D01*
X576600Y799075D01*
X575726Y798960D01*
X574912Y798623D01*
X574213Y798087D01*
X573677Y797388D01*
X573340Y796574D01*
X573225Y795700D01*
X573340Y794826D01*
X573622Y794145D01*
Y787101D01*
X573122Y787002D01*
X572935Y787452D01*
X572139Y788490D01*
X571101Y789287D01*
X569892Y789787D01*
X568595Y789958D01*
X567298Y789787D01*
X566089Y789287D01*
X565052Y788490D01*
X564255Y787452D01*
X563755Y786244D01*
X563584Y784947D01*
X563755Y783650D01*
X564255Y782441D01*
X564678Y781890D01*
X563139Y780351D01*
X562851Y780462D01*
X562687Y780606D01*
X562778Y781300D01*
Y794145D01*
X563060Y794826D01*
X563175Y795700D01*
X563060Y796574D01*
X562723Y797388D01*
X562187Y798087D01*
X561488Y798623D01*
X560674Y798960D01*
X559800Y799075D01*
X558926Y798960D01*
X558112Y798623D01*
X557468Y798129D01*
X556968Y798239D01*
Y802421D01*
X552671D01*
Y802966D01*
X713735D01*
X714098Y802635D01*
D02*
G37*
G36*
X448522Y745845D02*
Y716834D01*
X440966Y709278D01*
X438998D01*
Y718724D01*
X431124D01*
Y709278D01*
X430337D01*
Y713016D01*
X426400D01*
Y714000D01*
X425416D01*
Y718724D01*
X422463D01*
Y714078D01*
X421963Y714046D01*
X421879Y714681D01*
X421943Y714753D01*
X421943D01*
Y717116D01*
X418400D01*
Y719084D01*
X421943D01*
Y719872D01*
Y721655D01*
X423486D01*
X423931Y721313D01*
X424745Y720976D01*
X425619Y720861D01*
X426294Y720950D01*
X426794Y720616D01*
Y719512D01*
X434668D01*
Y728484D01*
X437916D01*
Y732027D01*
Y735571D01*
X430435D01*
Y734581D01*
X426565D01*
Y735543D01*
X414848D01*
X414505Y735941D01*
X414589Y736322D01*
X437100D01*
X437871Y736423D01*
X438589Y736721D01*
X439206Y737194D01*
X448006Y745994D01*
X448022Y746015D01*
X448522Y745845D01*
D02*
G37*
G36*
X709971Y567935D02*
X710066Y567215D01*
X710344Y566545D01*
X710586Y566229D01*
Y565359D01*
X710991Y565527D01*
X711176Y565669D01*
X711361Y565527D01*
X712032Y565250D01*
X712751Y565155D01*
X713471Y565250D01*
X714141Y565527D01*
X714326Y565669D01*
X714511Y565527D01*
X714917Y565359D01*
Y566229D01*
X715159Y566545D01*
X715436Y567215D01*
X715531Y567935D01*
Y570100D01*
X716270D01*
Y567935D01*
X716365Y567215D01*
X716643Y566545D01*
X716885Y566229D01*
Y565359D01*
X717291Y565527D01*
X717476Y565669D01*
X717661Y565527D01*
X718331Y565250D01*
X719050Y565155D01*
X719770Y565250D01*
X720440Y565527D01*
X720625Y565669D01*
X720810Y565527D01*
X721481Y565250D01*
X722200Y565155D01*
X722446Y565187D01*
X722799Y564834D01*
X722767Y564588D01*
X722861Y563869D01*
X723139Y563198D01*
X723281Y563013D01*
X723139Y562828D01*
X722861Y562158D01*
X722767Y561439D01*
X722861Y560719D01*
X723139Y560049D01*
X723281Y559864D01*
X723139Y559679D01*
X722861Y559008D01*
X722767Y558289D01*
X722861Y557570D01*
X723139Y556899D01*
X723281Y556714D01*
X723139Y556529D01*
X722861Y555859D01*
X722767Y555139D01*
X722861Y554420D01*
X723139Y553750D01*
X723281Y553565D01*
X723139Y553380D01*
X722861Y552709D01*
X722786Y552138D01*
X722200Y552215D01*
X721326Y552101D01*
X720512Y551763D01*
X719813Y551227D01*
X719277Y550528D01*
X718940Y549714D01*
X718825Y548840D01*
X718940Y547967D01*
X719277Y547153D01*
X719813Y546453D01*
X720438Y545974D01*
X720479Y545690D01*
X720438Y545407D01*
X719813Y544928D01*
X719277Y544229D01*
X718940Y543414D01*
X718825Y542541D01*
X718902Y541955D01*
X718331Y541879D01*
X717661Y541602D01*
X717476Y541460D01*
X717291Y541602D01*
X716620Y541879D01*
X715901Y541974D01*
X715181Y541879D01*
X714511Y541602D01*
X714326Y541460D01*
X714141Y541602D01*
X713735Y541770D01*
Y540900D01*
X713493Y540584D01*
X713216Y539914D01*
X713121Y539194D01*
Y537029D01*
X712382D01*
Y539194D01*
X712287Y539914D01*
X712009Y540584D01*
X711767Y540900D01*
Y541770D01*
X711361Y541602D01*
X711176Y541460D01*
X710991Y541602D01*
X710321Y541879D01*
X709602Y541974D01*
X708882Y541879D01*
X708212Y541602D01*
X708027Y541460D01*
X707842Y541602D01*
X707171Y541879D01*
X706452Y541974D01*
X705732Y541879D01*
X705062Y541602D01*
X704877Y541460D01*
X704692Y541602D01*
X704022Y541879D01*
X703302Y541974D01*
X702583Y541879D01*
X701912Y541602D01*
X701728Y541460D01*
X701543Y541602D01*
X700872Y541879D01*
X700153Y541974D01*
X699907Y541942D01*
X699554Y542295D01*
X699586Y542541D01*
X699491Y543260D01*
X699214Y543931D01*
X699072Y544116D01*
X699214Y544301D01*
X699491Y544971D01*
X699586Y545690D01*
X699491Y546410D01*
X699214Y547080D01*
X699072Y547265D01*
X699214Y547450D01*
X699491Y548121D01*
X699586Y548840D01*
X699563Y549011D01*
X699893Y549387D01*
X704429D01*
X705097Y549475D01*
X705720Y549733D01*
X706254Y550143D01*
X707950Y551839D01*
X708255Y551879D01*
X709070Y552216D01*
X709769Y552753D01*
X710305Y553452D01*
X710642Y554266D01*
X710757Y555139D01*
X710642Y556013D01*
X710305Y556827D01*
X709769Y557526D01*
X709070Y558063D01*
X708255Y558400D01*
X707382Y558515D01*
X706508Y558400D01*
X705694Y558063D01*
X704995Y557526D01*
X704459Y556827D01*
X704122Y556013D01*
X704067Y555600D01*
X703979Y555546D01*
X703441Y555803D01*
X703413Y556013D01*
X703076Y556827D01*
X702539Y557526D01*
X701840Y558063D01*
X701026Y558400D01*
X700153Y558515D01*
X699566Y558437D01*
X699491Y559008D01*
X699214Y559679D01*
X699072Y559864D01*
X699214Y560049D01*
X699491Y560719D01*
X699586Y561439D01*
X699491Y562158D01*
X699214Y562828D01*
X699072Y563013D01*
X699214Y563198D01*
X699491Y563869D01*
X699586Y564588D01*
X699554Y564834D01*
X699907Y565187D01*
X700153Y565155D01*
X700872Y565250D01*
X701543Y565527D01*
X701728Y565669D01*
X701912Y565527D01*
X702583Y565250D01*
X703302Y565155D01*
X704022Y565250D01*
X704692Y565527D01*
X704877Y565669D01*
X705062Y565527D01*
X705732Y565250D01*
X706452Y565155D01*
X707171Y565250D01*
X707842Y565527D01*
X708027Y565669D01*
X708212Y565527D01*
X708617Y565359D01*
Y566229D01*
X708859Y566545D01*
X709137Y567215D01*
X709232Y567935D01*
Y570100D01*
X709971D01*
Y567935D01*
D02*
G37*
G36*
X729483Y534943D02*
Y516504D01*
X729369Y516457D01*
X728279Y515621D01*
X727443Y514531D01*
X727250Y514064D01*
X726750D01*
X726557Y514531D01*
X725721Y515621D01*
X724631Y516457D01*
X723362Y516982D01*
X722000Y517162D01*
X720638Y516982D01*
X720524Y516935D01*
X707825Y529634D01*
X707009Y530180D01*
X706787Y530224D01*
X706563Y530644D01*
X706678Y531517D01*
X706601Y532104D01*
X707171Y532179D01*
X707842Y532456D01*
X708027Y532598D01*
X708212Y532456D01*
X708882Y532179D01*
X709453Y532104D01*
X709376Y531517D01*
X709491Y530644D01*
X709828Y529830D01*
X710364Y529131D01*
X711063Y528594D01*
X711767Y528303D01*
Y531517D01*
X713735D01*
Y528303D01*
X714439Y528594D01*
X715138Y529131D01*
X715617Y529755D01*
X715901Y529797D01*
X716185Y529755D01*
X716664Y529131D01*
X717363Y528594D01*
X718177Y528257D01*
X719050Y528142D01*
X719924Y528257D01*
X720738Y528594D01*
X721437Y529131D01*
X721974Y529830D01*
X722311Y530644D01*
X722426Y531517D01*
X722348Y532104D01*
X722919Y532179D01*
X723590Y532456D01*
X724165Y532898D01*
X724607Y533474D01*
X724687Y533666D01*
X725149Y533857D01*
X725362Y533769D01*
X726235Y533654D01*
X727109Y533769D01*
X727923Y534106D01*
X728622Y534642D01*
X728983Y535113D01*
X729483Y534943D01*
D02*
G37*
G36*
X544459Y467359D02*
X555181Y467359D01*
X555181Y467359D01*
X555181Y467359D01*
X555183D01*
X555647Y467337D01*
X556353Y467044D01*
X556936Y466462D01*
X557251Y465701D01*
Y465289D01*
X557251Y437435D01*
X557251D01*
Y437047D01*
X557099Y436286D01*
X556803Y435570D01*
X556372Y434925D01*
X555824Y434377D01*
X555179Y433946D01*
X554462Y433649D01*
X553702Y433498D01*
X553314D01*
X512664Y433498D01*
X512306D01*
X511602Y433638D01*
X510939Y433912D01*
X510343Y434311D01*
X509835Y434818D01*
X509437Y435415D01*
X509163Y436077D01*
X509023Y436781D01*
Y446293D01*
X509023Y446293D01*
X509023Y446293D01*
X509043Y446755D01*
X509163Y447355D01*
X509437Y448018D01*
X509835Y448615D01*
X510343Y449122D01*
X510939Y449520D01*
X511602Y449795D01*
X512306Y449935D01*
X512664Y449935D01*
X539141Y449935D01*
X539141Y449935D01*
Y449935D01*
X539584Y449957D01*
X539609Y449962D01*
X540455Y450130D01*
X541275Y450469D01*
X542013Y450963D01*
X542640Y451590D01*
X543134Y452328D01*
X543473Y453148D01*
X543646Y454019D01*
X543668Y454462D01*
X543668Y466569D01*
X543668Y466569D01*
X543710Y466722D01*
X543790Y467018D01*
X544011Y467239D01*
X544302Y467359D01*
X544459Y467359D01*
D02*
G37*
G36*
X630484Y747740D02*
X631522D01*
Y729934D01*
X630168Y728580D01*
X629668Y728787D01*
X629668Y728805D01*
X629668Y728805D01*
X629668Y728838D01*
Y737918D01*
X621794D01*
Y728469D01*
X629299Y728469D01*
X629332D01*
D01*
X629350Y728469D01*
X629376Y728407D01*
X629557Y727969D01*
X628166Y726578D01*
X603343D01*
X603342Y726578D01*
X602572Y726477D01*
X601853Y726179D01*
X601237Y725706D01*
X596593Y721062D01*
X596119Y720445D01*
X596115Y720435D01*
X592498D01*
Y709411D01*
X604702D01*
Y709411D01*
X605157Y709301D01*
Y703222D01*
X604702Y703112D01*
X604657Y703112D01*
X599584D01*
Y697600D01*
X598600D01*
Y696616D01*
X592498D01*
Y692455D01*
X592498Y692088D01*
X592053Y691955D01*
X582102D01*
X581668Y692113D01*
X581668Y692455D01*
Y701562D01*
X573794D01*
X573794Y692267D01*
X573400Y692044D01*
X573006Y692267D01*
Y692455D01*
Y695854D01*
X565132D01*
Y692455D01*
X565132Y692113D01*
X564698Y691955D01*
X557004D01*
Y697140D01*
X557504Y697351D01*
X557675Y697185D01*
X557625Y696800D01*
X557740Y695926D01*
X558077Y695112D01*
X558613Y694413D01*
X559312Y693877D01*
X560016Y693585D01*
Y696800D01*
X561984D01*
Y693585D01*
X562688Y693877D01*
X563387Y694413D01*
X563923Y695112D01*
X564260Y695926D01*
X564375Y696800D01*
X564306Y697327D01*
X564543Y697598D01*
X564543D01*
Y699960D01*
X561000D01*
Y701928D01*
X564543D01*
Y702716D01*
Y704519D01*
X566067D01*
X566512Y704177D01*
X567326Y703840D01*
X568200Y703725D01*
X568963Y703825D01*
X569463Y703531D01*
Y702350D01*
X577337D01*
Y711384D01*
X580516D01*
Y714927D01*
Y718471D01*
X573035D01*
Y717509D01*
X569165D01*
Y718471D01*
X557354D01*
X557004Y718826D01*
Y720179D01*
X557403Y720422D01*
X584600D01*
X585371Y720523D01*
X586089Y720821D01*
X586706Y721294D01*
X591506Y726094D01*
X591506Y726094D01*
X591979Y726711D01*
X592277Y727429D01*
X592358Y728046D01*
X592799Y728188D01*
X592873Y728188D01*
X597917D01*
Y733700D01*
Y739212D01*
X592878D01*
X592799Y739212D01*
X592378Y739403D01*
Y745320D01*
X592799Y745511D01*
X592878Y745511D01*
X605004D01*
Y745511D01*
X605457Y745397D01*
Y739326D01*
X605004Y739212D01*
X604957Y739212D01*
X599886D01*
Y733700D01*
Y728188D01*
X605004D01*
Y733496D01*
X605504Y733707D01*
X605675Y733540D01*
X605625Y733156D01*
X605740Y732282D01*
X606077Y731468D01*
X606613Y730769D01*
X607312Y730233D01*
X608016Y729941D01*
Y733156D01*
X609984D01*
Y729941D01*
X610688Y730233D01*
X611387Y730769D01*
X611923Y731468D01*
X612260Y732282D01*
X612375Y733156D01*
X612306Y733683D01*
X612543Y733954D01*
X612543D01*
Y736316D01*
X609000D01*
Y738284D01*
X612543D01*
Y739072D01*
Y740875D01*
X614067D01*
X614512Y740533D01*
X615326Y740196D01*
X616200Y740081D01*
X616963Y740181D01*
X617463Y739887D01*
Y738705D01*
X625337D01*
Y747740D01*
X628516D01*
Y751283D01*
X630484D01*
Y747740D01*
D02*
G37*
G36*
X724289Y614876D02*
Y583353D01*
X721922Y580986D01*
X721745Y581073D01*
X721480Y581251D01*
X721372Y582074D01*
X721035Y582888D01*
X720499Y583587D01*
X719800Y584123D01*
X719096Y584414D01*
Y581200D01*
X717128D01*
Y584414D01*
X716643Y584214D01*
X716143Y584496D01*
Y589665D01*
X712904D01*
X712643Y589925D01*
X712109Y590335D01*
X711486Y590593D01*
X710818Y590681D01*
X709727D01*
Y592234D01*
X701172D01*
X700672Y592234D01*
Y592234D01*
X700672D01*
Y592234D01*
X692801D01*
X692538Y592628D01*
X686086D01*
X686377Y591924D01*
X686590Y591646D01*
X686343Y591147D01*
X685457D01*
Y584453D01*
Y579335D01*
X688696D01*
X688843Y579188D01*
X689378Y578778D01*
X690000Y578520D01*
X690668Y578432D01*
X691617D01*
Y576880D01*
X695191D01*
Y575900D01*
X695382Y574940D01*
X695926Y574126D01*
X697421Y572631D01*
X697373Y572265D01*
Y567935D01*
X697405Y567689D01*
X697052Y567336D01*
X696806Y567368D01*
X692476D01*
X691756Y567273D01*
X691505Y567169D01*
X690221D01*
X674881Y582509D01*
Y631440D01*
X674793Y632108D01*
X674535Y632731D01*
X674125Y633265D01*
X657140Y650250D01*
X656605Y650661D01*
X655983Y650918D01*
X655315Y651006D01*
X644443D01*
X644166Y651422D01*
X644205Y651518D01*
X644320Y652391D01*
X644205Y653265D01*
X644095Y653532D01*
Y662824D01*
X636929D01*
Y657903D01*
X634961D01*
Y662824D01*
X608923D01*
Y662953D01*
X608822Y663724D01*
X608524Y664442D01*
X608051Y665059D01*
X604207Y668902D01*
X604398Y669364D01*
X635945D01*
X636716Y669466D01*
X637429Y669761D01*
X669403D01*
X724289Y614876D01*
D02*
G37*
G36*
X629200Y441735D02*
X629520Y441611D01*
X630018Y441136D01*
X630296Y440507D01*
X630311Y439819D01*
X630187Y439498D01*
X630187D01*
X630188Y404663D01*
X630189Y404181D01*
X629821Y403289D01*
X629139Y402606D01*
X628248Y402237D01*
X627765Y402238D01*
X557806Y402329D01*
X557324Y402330D01*
X556432Y402700D01*
X555750Y403383D01*
X555381Y404275D01*
X555381Y404758D01*
Y404758D01*
X555381Y424935D01*
Y425268D01*
X555636Y425883D01*
X556106Y426353D01*
X556721Y426608D01*
X557054D01*
X597212Y426608D01*
X597212Y441735D01*
X629200Y441735D01*
D02*
G37*
G36*
X454922Y715138D02*
Y691434D01*
X440966Y677478D01*
X414799D01*
X414404Y677732D01*
X414404Y677978D01*
Y683111D01*
X414904Y683322D01*
X415083Y683146D01*
X415025Y682700D01*
X415140Y681826D01*
X415477Y681012D01*
X416013Y680313D01*
X416712Y679777D01*
X417416Y679486D01*
Y682700D01*
X419384D01*
Y679486D01*
X420088Y679777D01*
X420787Y680313D01*
X421323Y681012D01*
X421660Y681826D01*
X421775Y682700D01*
X421699Y683276D01*
X421943Y683554D01*
X421943D01*
Y685916D01*
X418400D01*
Y687884D01*
X421943D01*
Y688672D01*
Y690419D01*
X423467D01*
X423912Y690077D01*
X424726Y689740D01*
X425600Y689625D01*
X426294Y689716D01*
X426794Y689391D01*
Y688312D01*
X434668D01*
Y693296D01*
X434677Y693317D01*
X434778Y694088D01*
X434677Y694859D01*
X434668Y694881D01*
Y697284D01*
X437916D01*
Y700828D01*
X438900D01*
Y701812D01*
X442246D01*
Y703328D01*
X442971Y703423D01*
X443689Y703721D01*
X444306Y704194D01*
X453606Y713494D01*
X453606Y713494D01*
X454079Y714111D01*
X454377Y714829D01*
X454422Y715171D01*
X454922Y715138D01*
D02*
G37*
%LPC*%
G36*
X425685Y752188D02*
X422732D01*
Y748448D01*
X425685D01*
Y752188D01*
D02*
G37*
G36*
X430606D02*
X427654D01*
Y748448D01*
X430606D01*
Y752188D01*
D02*
G37*
G36*
X405033Y567516D02*
X400984D01*
Y563467D01*
X401336Y563514D01*
X402581Y564029D01*
X403650Y564850D01*
X404471Y565919D01*
X404986Y567164D01*
X405033Y567516D01*
D02*
G37*
G36*
X665437Y696116D02*
X662484D01*
Y692376D01*
X665437D01*
Y696116D01*
D02*
G37*
G36*
X766115Y554016D02*
X763884D01*
Y551786D01*
X764588Y552077D01*
X765287Y552613D01*
X765823Y553312D01*
X766115Y554016D01*
D02*
G37*
G36*
X430000Y613662D02*
X428664Y613486D01*
X427419Y612971D01*
X426350Y612150D01*
X425529Y611081D01*
X425014Y609836D01*
X424838Y608500D01*
X425014Y607164D01*
X425529Y605919D01*
X426350Y604850D01*
X427419Y604029D01*
X428044Y603771D01*
Y603229D01*
X427419Y602971D01*
X426350Y602150D01*
X425529Y601081D01*
X425014Y599836D01*
X424838Y598500D01*
X425014Y597164D01*
X425529Y595919D01*
X426350Y594850D01*
X427419Y594029D01*
X428044Y593771D01*
Y593229D01*
X427419Y592971D01*
X426350Y592150D01*
X425529Y591081D01*
X425014Y589836D01*
X424838Y588500D01*
X425014Y587164D01*
X425529Y585919D01*
X426350Y584850D01*
X427419Y584029D01*
X428044Y583771D01*
Y583229D01*
X427419Y582971D01*
X426350Y582150D01*
X425529Y581081D01*
X425014Y579836D01*
X424838Y578500D01*
X425014Y577164D01*
X425529Y575919D01*
X426350Y574850D01*
X427419Y574029D01*
X428044Y573771D01*
Y573229D01*
X427419Y572971D01*
X426350Y572150D01*
X425529Y571081D01*
X425014Y569836D01*
X424838Y568500D01*
X425014Y567164D01*
X425529Y565919D01*
X426350Y564850D01*
X427419Y564029D01*
X428664Y563514D01*
X430000Y563338D01*
X431336Y563514D01*
X432581Y564029D01*
X433650Y564850D01*
X434471Y565919D01*
X434986Y567164D01*
X435162Y568500D01*
X434986Y569836D01*
X434471Y571081D01*
X433650Y572150D01*
X432581Y572971D01*
X431956Y573229D01*
Y573771D01*
X432581Y574029D01*
X433650Y574850D01*
X434471Y575919D01*
X434986Y577164D01*
X435162Y578500D01*
X434986Y579836D01*
X434471Y581081D01*
X433650Y582150D01*
X432581Y582971D01*
X431956Y583229D01*
Y583771D01*
X432581Y584029D01*
X433650Y584850D01*
X434471Y585919D01*
X434986Y587164D01*
X435162Y588500D01*
X434986Y589836D01*
X434471Y591081D01*
X433650Y592150D01*
X432581Y592971D01*
X431956Y593229D01*
Y593771D01*
X432581Y594029D01*
X433650Y594850D01*
X434471Y595919D01*
X434986Y597164D01*
X435162Y598500D01*
X434986Y599836D01*
X434471Y601081D01*
X433650Y602150D01*
X432581Y602971D01*
X431956Y603229D01*
Y603771D01*
X432581Y604029D01*
X433650Y604850D01*
X434471Y605919D01*
X434986Y607164D01*
X435162Y608500D01*
X434986Y609836D01*
X434471Y611081D01*
X433650Y612150D01*
X432581Y612971D01*
X431336Y613486D01*
X430000Y613662D01*
D02*
G37*
G36*
X775216Y590059D02*
X770098D01*
Y585532D01*
X775216D01*
Y590059D01*
D02*
G37*
G36*
X660516Y696116D02*
X657563D01*
Y692376D01*
X660516D01*
Y696116D01*
D02*
G37*
G36*
X689716Y696816D02*
X684598D01*
Y692288D01*
X689716D01*
Y696816D01*
D02*
G37*
G36*
X775216Y548917D02*
X770098D01*
Y544390D01*
X775216D01*
Y548917D01*
D02*
G37*
G36*
X820303Y494120D02*
X814461D01*
Y488278D01*
X814828Y488314D01*
X816126Y488708D01*
X817323Y489348D01*
X818372Y490209D01*
X819233Y491258D01*
X819873Y492455D01*
X820267Y493753D01*
X820303Y494120D01*
D02*
G37*
G36*
X812493D02*
X806651D01*
X806687Y493753D01*
X807081Y492455D01*
X807721Y491258D01*
X808582Y490209D01*
X809631Y489348D01*
X810828Y488708D01*
X812126Y488314D01*
X812493Y488278D01*
Y494120D01*
D02*
G37*
G36*
X796063Y497364D02*
X786417D01*
X785518Y497246D01*
X784680Y496899D01*
X783960Y496347D01*
X783408Y495627D01*
X783061Y494789D01*
X782943Y493890D01*
Y490937D01*
X783061Y490038D01*
X783408Y489200D01*
X783960Y488480D01*
X784680Y487928D01*
X785518Y487581D01*
X785874Y487534D01*
X786319Y487402D01*
Y477165D01*
X796949D01*
Y487402D01*
X797314Y487726D01*
X797800Y487928D01*
X798520Y488480D01*
X799072Y489200D01*
X799419Y490038D01*
X799538Y490937D01*
Y493890D01*
X799419Y494789D01*
X799072Y495627D01*
X798520Y496347D01*
X797800Y496899D01*
X796962Y497246D01*
X796063Y497364D01*
D02*
G37*
G36*
X637599Y631181D02*
X484449D01*
Y495240D01*
X484449Y495240D01*
X484449D01*
X484449Y487366D01*
X637599Y487366D01*
Y631181D01*
D02*
G37*
G36*
X812493Y501930D02*
X812126Y501894D01*
X810828Y501500D01*
X809631Y500861D01*
X808582Y500000D01*
X807721Y498950D01*
X807081Y497753D01*
X806687Y496455D01*
X806651Y496088D01*
X812493D01*
Y501930D01*
D02*
G37*
G36*
X813477Y542027D02*
X812126Y541894D01*
X810828Y541500D01*
X809631Y540861D01*
X808582Y539999D01*
X807721Y538950D01*
X807081Y537753D01*
X806687Y536455D01*
X806554Y535104D01*
X806687Y533753D01*
X807081Y532455D01*
X807721Y531258D01*
X808582Y530209D01*
X809631Y529348D01*
X810828Y528708D01*
X812126Y528314D01*
X813477Y528181D01*
X814828Y528314D01*
X816126Y528708D01*
X817323Y529348D01*
X818372Y530209D01*
X819233Y531258D01*
X819873Y532455D01*
X820267Y533753D01*
X820400Y535104D01*
X820267Y536455D01*
X819873Y537753D01*
X819233Y538950D01*
X818372Y539999D01*
X817323Y540861D01*
X816126Y541500D01*
X814828Y541894D01*
X813477Y542027D01*
D02*
G37*
G36*
X674098Y701824D02*
X666224D01*
Y692376D01*
X674098D01*
Y701824D01*
D02*
G37*
G36*
X814461Y501930D02*
Y496088D01*
X820303D01*
X820267Y496455D01*
X819873Y497753D01*
X819233Y498950D01*
X818372Y500000D01*
X817323Y500861D01*
X816126Y501500D01*
X814828Y501894D01*
X814461Y501930D01*
D02*
G37*
G36*
X711016Y500916D02*
X706868D01*
X706918Y500538D01*
X707443Y499269D01*
X708280Y498179D01*
X709369Y497343D01*
X710638Y496818D01*
X711016Y496768D01*
Y500916D01*
D02*
G37*
G36*
X527420Y695906D02*
X524467D01*
Y692166D01*
X527420D01*
Y695906D01*
D02*
G37*
G36*
X464803Y687889D02*
X464100Y687598D01*
X463401Y687062D01*
X462864Y686363D01*
X462573Y685659D01*
X464803D01*
Y687889D01*
D02*
G37*
G36*
X442246Y668043D02*
X439884D01*
Y665484D01*
X442246D01*
Y668043D01*
D02*
G37*
G36*
X464803Y678179D02*
X462638D01*
Y674242D01*
X464803D01*
Y678179D01*
D02*
G37*
G36*
X407317Y688756D02*
X402199D01*
Y684228D01*
X407317D01*
Y688756D01*
D02*
G37*
G36*
Y656956D02*
X402199D01*
Y652428D01*
X407317D01*
Y656956D01*
D02*
G37*
G36*
Y650460D02*
X402199D01*
Y645932D01*
X407317D01*
Y650460D01*
D02*
G37*
G36*
X425397Y649979D02*
X422444D01*
Y646239D01*
X425397D01*
Y649979D01*
D02*
G37*
G36*
X402559Y613618D02*
X400984D01*
Y609484D01*
X405118D01*
Y611059D01*
X402559Y613618D01*
D02*
G37*
G36*
X522498Y695906D02*
X519546D01*
Y692166D01*
X522498D01*
Y695906D01*
D02*
G37*
G36*
X430318Y649979D02*
X427365D01*
Y646239D01*
X430318D01*
Y649979D01*
D02*
G37*
G36*
X425397Y655688D02*
X422444D01*
Y651948D01*
X425397D01*
Y655688D01*
D02*
G37*
G36*
X430318D02*
X427365D01*
Y651948D01*
X430318D01*
Y655688D01*
D02*
G37*
G36*
X438979D02*
X431106D01*
Y646239D01*
X438979D01*
Y655688D01*
D02*
G37*
G36*
X504331Y696357D02*
X499213D01*
Y691829D01*
X504331D01*
Y696357D01*
D02*
G37*
G36*
X796949Y473622D02*
X786319D01*
Y473596D01*
X780544D01*
X780544Y473595D01*
X780247Y473595D01*
X780053Y473557D01*
X779855Y473557D01*
X779272Y473441D01*
X779089Y473365D01*
X778895Y473327D01*
X778346Y473099D01*
X778182Y472989D01*
X777999Y472914D01*
X777504Y472583D01*
X777365Y472443D01*
X777200Y472334D01*
X776990Y472123D01*
X776990Y472123D01*
X749526Y444659D01*
X749412Y444556D01*
X749118Y444359D01*
X748836Y444243D01*
X748489Y444174D01*
X748336Y444166D01*
X732044Y444166D01*
Y451095D01*
X732808D01*
Y456213D01*
Y462906D01*
X723949D01*
Y459559D01*
X721980D01*
Y462906D01*
X713321D01*
Y456213D01*
Y453937D01*
X708864D01*
X708647Y453909D01*
X704143D01*
Y447610D01*
Y442610D01*
Y437610D01*
Y432610D01*
X713649D01*
X713678Y432573D01*
X714377Y432036D01*
X715191Y431699D01*
X716064Y431584D01*
X716938Y431699D01*
X717752Y432036D01*
X718451Y432573D01*
X718987Y433272D01*
X719325Y434086D01*
X719440Y434959D01*
X719415Y435150D01*
X719675Y435369D01*
X719881Y435440D01*
X720125Y435277D01*
X720125Y435277D01*
X720125Y435277D01*
X720342Y435187D01*
X721110Y435034D01*
X721228Y435034D01*
X727646D01*
Y433422D01*
X737882D01*
Y435034D01*
X770097Y435034D01*
X770489Y435034D01*
X770683Y435073D01*
X770881D01*
X771650Y435226D01*
X771832Y435301D01*
X772026Y435340D01*
X772751Y435640D01*
X772915Y435750D01*
X773098Y435826D01*
X773750Y436261D01*
X773890Y436401D01*
X774054Y436511D01*
X774332Y436788D01*
X794106Y456563D01*
X794550Y457007D01*
X794660Y457171D01*
X794800Y457311D01*
X795497Y458355D01*
X795573Y458538D01*
X795683Y458702D01*
X796163Y459862D01*
X796202Y460056D01*
X796278Y460239D01*
X796523Y461470D01*
Y461668D01*
X796561Y461862D01*
X796561Y462490D01*
Y463386D01*
X796949D01*
Y473622D01*
D02*
G37*
G36*
X504415Y436716D02*
X502184D01*
Y434485D01*
X502888Y434777D01*
X503587Y435313D01*
X504123Y436012D01*
X504415Y436716D01*
D02*
G37*
G36*
X696880Y439975D02*
X694650D01*
X694941Y439272D01*
X695478Y438573D01*
X696177Y438036D01*
X696880Y437745D01*
Y439975D01*
D02*
G37*
G36*
X500216Y436716D02*
X497986D01*
X498277Y436012D01*
X498813Y435313D01*
X499512Y434777D01*
X500216Y434485D01*
Y436716D01*
D02*
G37*
G36*
Y430715D02*
X499512Y430423D01*
X498813Y429887D01*
X498277Y429188D01*
X497986Y428484D01*
X500216D01*
Y430715D01*
D02*
G37*
G36*
X502184D02*
Y428484D01*
X504415D01*
X504123Y429188D01*
X503587Y429887D01*
X502888Y430423D01*
X502184Y430715D01*
D02*
G37*
G36*
X701079Y439975D02*
X698848D01*
Y437745D01*
X699552Y438036D01*
X700251Y438573D01*
X700787Y439272D01*
X701079Y439975D01*
D02*
G37*
G36*
X698848Y444174D02*
Y441944D01*
X701079D01*
X700787Y442647D01*
X700251Y443346D01*
X699552Y443882D01*
X698848Y444174D01*
D02*
G37*
G36*
X500216Y446216D02*
X497986D01*
X498277Y445512D01*
X498813Y444813D01*
X499512Y444277D01*
X500216Y443986D01*
Y446216D01*
D02*
G37*
G36*
X696880Y444174D02*
X696177Y443882D01*
X695478Y443346D01*
X694941Y442647D01*
X694650Y441944D01*
X696880D01*
Y444174D01*
D02*
G37*
G36*
X500216Y440914D02*
X499512Y440623D01*
X498813Y440087D01*
X498277Y439388D01*
X497986Y438684D01*
X500216D01*
Y440914D01*
D02*
G37*
G36*
X502184D02*
Y438684D01*
X504415D01*
X504123Y439388D01*
X503587Y440087D01*
X502888Y440623D01*
X502184Y440914D01*
D02*
G37*
G36*
X737882Y430273D02*
X733749D01*
Y427320D01*
X737882D01*
Y430273D01*
D02*
G37*
G36*
X689633Y420309D02*
X685499D01*
Y415978D01*
X689633D01*
Y420309D01*
D02*
G37*
G36*
X695735D02*
X691601D01*
Y415978D01*
X695735D01*
Y420309D01*
D02*
G37*
G36*
X539280Y420675D02*
X535313D01*
Y418214D01*
X535432Y417315D01*
X535779Y416477D01*
X536331Y415758D01*
X537051Y415205D01*
X537889Y414858D01*
X538788Y414740D01*
X539280D01*
Y420675D01*
D02*
G37*
G36*
X689633Y414010D02*
X685499D01*
Y409679D01*
X689633D01*
Y414010D01*
D02*
G37*
G36*
X695735D02*
X691601D01*
Y409679D01*
X695735D01*
Y414010D01*
D02*
G37*
G36*
X731780Y425351D02*
X727646D01*
Y422399D01*
X731780D01*
Y425351D01*
D02*
G37*
G36*
X504415Y426516D02*
X502184D01*
Y424286D01*
X502888Y424577D01*
X503587Y425113D01*
X504123Y425812D01*
X504415Y426516D01*
D02*
G37*
G36*
X731780Y430273D02*
X727646D01*
Y427320D01*
X731780D01*
Y430273D01*
D02*
G37*
G36*
X500216Y426516D02*
X497986D01*
X498277Y425812D01*
X498813Y425113D01*
X499512Y424577D01*
X500216Y424286D01*
Y426516D01*
D02*
G37*
G36*
X737882Y425351D02*
X733749D01*
Y422399D01*
X737882D01*
Y425351D01*
D02*
G37*
G36*
X539280Y428579D02*
X538788D01*
X537889Y428460D01*
X537051Y428113D01*
X536331Y427561D01*
X535779Y426841D01*
X535432Y426004D01*
X535313Y425104D01*
Y422644D01*
X539280D01*
Y428579D01*
D02*
G37*
G36*
X502184Y460815D02*
Y458584D01*
X504415D01*
X504123Y459288D01*
X503587Y459987D01*
X502888Y460523D01*
X502184Y460815D01*
D02*
G37*
G36*
X689180Y464875D02*
X686950D01*
X687241Y464172D01*
X687778Y463473D01*
X688477Y462936D01*
X689180Y462645D01*
Y464875D01*
D02*
G37*
G36*
X500216Y460815D02*
X499512Y460523D01*
X498813Y459987D01*
X498277Y459288D01*
X497986Y458584D01*
X500216D01*
Y460815D01*
D02*
G37*
G36*
X600580Y461571D02*
X595462D01*
Y457044D01*
X600580D01*
Y461571D01*
D02*
G37*
G36*
X607667D02*
X602549D01*
Y457044D01*
X607667D01*
Y461571D01*
D02*
G37*
G36*
X693379Y464875D02*
X691149D01*
Y462645D01*
X691852Y462936D01*
X692551Y463473D01*
X693087Y464172D01*
X693379Y464875D01*
D02*
G37*
G36*
X689180Y469074D02*
X688477Y468782D01*
X687778Y468246D01*
X687241Y467547D01*
X686950Y466844D01*
X689180D01*
Y469074D01*
D02*
G37*
G36*
X691149D02*
Y466844D01*
X693379D01*
X693087Y467547D01*
X692551Y468246D01*
X691852Y468782D01*
X691149Y469074D01*
D02*
G37*
G36*
X540421Y470244D02*
X537468D01*
Y466110D01*
X540421D01*
Y470244D01*
D02*
G37*
G36*
X648580Y467503D02*
X646218D01*
Y464944D01*
X648580D01*
Y467503D01*
D02*
G37*
G36*
X535499Y470244D02*
X532547D01*
Y466110D01*
X535499D01*
Y470244D01*
D02*
G37*
G36*
X619682Y457820D02*
X615549D01*
Y454867D01*
X619682D01*
Y457820D01*
D02*
G37*
G36*
X613580Y452899D02*
X609446D01*
Y449946D01*
X613580D01*
Y452899D01*
D02*
G37*
G36*
X619682D02*
X615549D01*
Y449946D01*
X619682D01*
Y452899D01*
D02*
G37*
G36*
X502184Y450415D02*
Y448184D01*
X504415D01*
X504123Y448888D01*
X503587Y449587D01*
X502888Y450123D01*
X502184Y450415D01*
D02*
G37*
G36*
X504415Y446216D02*
X502184D01*
Y443986D01*
X502888Y444277D01*
X503587Y444813D01*
X504123Y445512D01*
X504415Y446216D01*
D02*
G37*
G36*
X500216Y450415D02*
X499512Y450123D01*
X498813Y449587D01*
X498277Y448888D01*
X497986Y448184D01*
X500216D01*
Y450415D01*
D02*
G37*
G36*
X600580Y455075D02*
X595462D01*
Y450548D01*
X600580D01*
Y455075D01*
D02*
G37*
G36*
X504415Y456616D02*
X502184D01*
Y454386D01*
X502888Y454677D01*
X503587Y455213D01*
X504123Y455912D01*
X504415Y456616D01*
D02*
G37*
G36*
X613580Y457820D02*
X609446D01*
Y454867D01*
X613580D01*
Y457820D01*
D02*
G37*
G36*
X500216Y456616D02*
X497986D01*
X498277Y455912D01*
X498813Y455213D01*
X499512Y454677D01*
X500216Y454386D01*
Y456616D01*
D02*
G37*
G36*
X607667Y455075D02*
X602549D01*
Y450548D01*
X607667D01*
Y455075D01*
D02*
G37*
G36*
X537698Y456048D02*
X535336D01*
Y453489D01*
X537698D01*
Y456048D01*
D02*
G37*
G36*
X575606Y737918D02*
X572653D01*
Y734178D01*
X575606D01*
Y737918D01*
D02*
G37*
G36*
X660585Y737788D02*
X657632D01*
Y734048D01*
X660585D01*
Y737788D01*
D02*
G37*
G36*
X665506D02*
X662554D01*
Y734048D01*
X665506D01*
Y737788D01*
D02*
G37*
G36*
X570685Y737918D02*
X567732D01*
Y734178D01*
X570685D01*
Y737918D01*
D02*
G37*
G36*
X522485Y738027D02*
X519532D01*
Y734287D01*
X522485D01*
Y738027D01*
D02*
G37*
G36*
X504317Y739265D02*
X499199D01*
Y734738D01*
X504317D01*
Y739265D01*
D02*
G37*
G36*
X407517Y746960D02*
X402399D01*
Y742432D01*
X407517D01*
Y746960D01*
D02*
G37*
G36*
X539247Y750353D02*
X536884D01*
Y747794D01*
X539247D01*
Y750353D01*
D02*
G37*
G36*
X527406Y738027D02*
X524453D01*
Y734287D01*
X527406D01*
Y738027D01*
D02*
G37*
G36*
X689817Y739056D02*
X684699D01*
Y734528D01*
X689817D01*
Y739056D01*
D02*
G37*
G36*
X552516Y739212D02*
X547398D01*
Y734684D01*
X552516D01*
Y739212D01*
D02*
G37*
G36*
X712906Y737688D02*
X709953D01*
Y733948D01*
X712906D01*
Y737688D01*
D02*
G37*
G36*
X570685Y732209D02*
X567732D01*
Y728469D01*
X570685D01*
Y732209D01*
D02*
G37*
G36*
X575606D02*
X572653D01*
Y728469D01*
X575606D01*
Y732209D01*
D02*
G37*
G36*
X584268Y737918D02*
X576394D01*
Y728469D01*
X584268D01*
Y737918D01*
D02*
G37*
G36*
X522485Y732319D02*
X519532D01*
Y728579D01*
X522485D01*
Y732319D01*
D02*
G37*
G36*
X755639Y763484D02*
X753574D01*
X751527Y763215D01*
X749533Y762681D01*
X747626Y761891D01*
X745838Y760858D01*
X744201Y759602D01*
X742741Y758142D01*
X741484Y756504D01*
X740452Y754716D01*
X739662Y752809D01*
X739128Y750815D01*
X738858Y748769D01*
Y746704D01*
X739128Y744657D01*
X739662Y742663D01*
X740452Y740756D01*
X741484Y738968D01*
X742741Y737331D01*
X744201Y735871D01*
X745838Y734614D01*
X747626Y733582D01*
X749533Y732792D01*
X751527Y732258D01*
X753574Y731988D01*
X755639D01*
X757685Y732258D01*
X759679Y732792D01*
X761586Y733582D01*
X763374Y734614D01*
X765012Y735871D01*
X766472Y737331D01*
X767728Y738968D01*
X768761Y740756D01*
X769551Y742663D01*
X770085Y744657D01*
X770354Y746704D01*
Y748769D01*
X770085Y750815D01*
X769551Y752809D01*
X768761Y754716D01*
X767728Y756504D01*
X766472Y758142D01*
X765012Y759602D01*
X763374Y760858D01*
X761586Y761891D01*
X759679Y762681D01*
X757685Y763215D01*
X755639Y763484D01*
D02*
G37*
G36*
X707985Y737688D02*
X705032D01*
Y733948D01*
X707985D01*
Y737688D01*
D02*
G37*
G36*
X527406Y732319D02*
X524453D01*
Y728579D01*
X527406D01*
Y732319D01*
D02*
G37*
G36*
X536068Y738027D02*
X528194D01*
Y728579D01*
X536068D01*
Y738027D01*
D02*
G37*
G36*
X480048Y763484D02*
X477984D01*
X475937Y763215D01*
X473943Y762681D01*
X472036Y761891D01*
X470248Y760858D01*
X468610Y759602D01*
X467150Y758142D01*
X465894Y756504D01*
X464861Y754716D01*
X464071Y752809D01*
X463537Y750815D01*
X463268Y748769D01*
Y746704D01*
X463537Y744657D01*
X464071Y742663D01*
X464861Y740756D01*
X465894Y738968D01*
X467150Y737331D01*
X468610Y735871D01*
X470248Y734614D01*
X472036Y733582D01*
X473943Y732792D01*
X475937Y732258D01*
X477984Y731988D01*
X480048D01*
X482095Y732258D01*
X484089Y732792D01*
X485996Y733582D01*
X487784Y734614D01*
X489421Y735871D01*
X490881Y737331D01*
X492138Y738968D01*
X493170Y740756D01*
X493960Y742663D01*
X494494Y744657D01*
X494764Y746704D01*
Y748769D01*
X494494Y750815D01*
X493960Y752809D01*
X493170Y754716D01*
X492138Y756504D01*
X490881Y758142D01*
X489421Y759602D01*
X487784Y760858D01*
X485996Y761891D01*
X484089Y762681D01*
X482095Y763215D01*
X480048Y763484D01*
D02*
G37*
G36*
X598595Y839958D02*
X597298Y839787D01*
X596089Y839287D01*
X595051Y838490D01*
X594255Y837452D01*
X593754Y836244D01*
X593584Y834947D01*
X593754Y833650D01*
X594255Y832441D01*
X595051Y831403D01*
X596089Y830607D01*
X597298Y830106D01*
X598595Y829935D01*
X599892Y830106D01*
X601101Y830607D01*
X602139Y831403D01*
X602935Y832441D01*
X603436Y833650D01*
X603607Y834947D01*
X603436Y836244D01*
X602935Y837452D01*
X602139Y838490D01*
X601101Y839287D01*
X599892Y839787D01*
X598595Y839958D01*
D02*
G37*
G36*
X613595D02*
X612298Y839787D01*
X611089Y839287D01*
X610051Y838490D01*
X609255Y837452D01*
X608754Y836244D01*
X608584Y834947D01*
X608754Y833650D01*
X609255Y832441D01*
X610051Y831403D01*
X611089Y830607D01*
X612298Y830106D01*
X613595Y829935D01*
X614892Y830106D01*
X616101Y830607D01*
X617139Y831403D01*
X617935Y832441D01*
X618436Y833650D01*
X618607Y834947D01*
X618436Y836244D01*
X617935Y837452D01*
X617139Y838490D01*
X616101Y839287D01*
X614892Y839787D01*
X613595Y839958D01*
D02*
G37*
G36*
X628595D02*
X627298Y839787D01*
X626089Y839287D01*
X625051Y838490D01*
X624255Y837452D01*
X623755Y836244D01*
X623584Y834947D01*
X623755Y833650D01*
X624255Y832441D01*
X625051Y831403D01*
X626089Y830607D01*
X627298Y830106D01*
X628595Y829935D01*
X629892Y830106D01*
X631101Y830607D01*
X632139Y831403D01*
X632935Y832441D01*
X633436Y833650D01*
X633606Y834947D01*
X633436Y836244D01*
X632935Y837452D01*
X632139Y838490D01*
X631101Y839287D01*
X629892Y839787D01*
X628595Y839958D01*
D02*
G37*
G36*
X754145Y801025D02*
X751783D01*
Y798466D01*
X754145D01*
Y801025D01*
D02*
G37*
G36*
X568695Y839958D02*
X567398Y839787D01*
X566189Y839287D01*
X565152Y838490D01*
X564355Y837452D01*
X563855Y836244D01*
X563684Y834947D01*
X563855Y833650D01*
X564355Y832441D01*
X565152Y831403D01*
X566189Y830607D01*
X567398Y830106D01*
X568695Y829935D01*
X569992Y830106D01*
X571201Y830607D01*
X572239Y831403D01*
X573035Y832441D01*
X573536Y833650D01*
X573706Y834947D01*
X573536Y836244D01*
X573035Y837452D01*
X572239Y838490D01*
X571201Y839287D01*
X569992Y839787D01*
X568695Y839958D01*
D02*
G37*
G36*
X583595D02*
X582298Y839787D01*
X581089Y839287D01*
X580052Y838490D01*
X579255Y837452D01*
X578755Y836244D01*
X578584Y834947D01*
X578755Y833650D01*
X579255Y832441D01*
X580052Y831403D01*
X581089Y830607D01*
X582298Y830106D01*
X583595Y829935D01*
X584892Y830106D01*
X586101Y830607D01*
X587139Y831403D01*
X587935Y832441D01*
X588436Y833650D01*
X588607Y834947D01*
X588436Y836244D01*
X587935Y837452D01*
X587139Y838490D01*
X586101Y839287D01*
X584892Y839787D01*
X583595Y839958D01*
D02*
G37*
G36*
X643595D02*
X642298Y839787D01*
X641089Y839287D01*
X640052Y838490D01*
X639255Y837452D01*
X638755Y836244D01*
X638584Y834947D01*
X638755Y833650D01*
X639255Y832441D01*
X640052Y831403D01*
X641089Y830607D01*
X642298Y830106D01*
X643595Y829935D01*
X644892Y830106D01*
X646101Y830607D01*
X647139Y831403D01*
X647935Y832441D01*
X648436Y833650D01*
X648606Y834947D01*
X648436Y836244D01*
X647935Y837452D01*
X647139Y838490D01*
X646101Y839287D01*
X644892Y839787D01*
X643595Y839958D01*
D02*
G37*
G36*
X513091Y840051D02*
X511793Y839880D01*
X510585Y839379D01*
X509547Y838583D01*
X508750Y837545D01*
X508250Y836336D01*
X508079Y835039D01*
X508250Y833742D01*
X508750Y832534D01*
X509547Y831496D01*
X510585Y830699D01*
X511793Y830199D01*
X513091Y830028D01*
X514388Y830199D01*
X515596Y830699D01*
X516634Y831496D01*
X517430Y832534D01*
X517931Y833742D01*
X518102Y835039D01*
X517931Y836336D01*
X517430Y837545D01*
X516634Y838583D01*
X515596Y839379D01*
X514388Y839880D01*
X513091Y840051D01*
D02*
G37*
G36*
X714185Y840367D02*
X713833Y840321D01*
X712588Y839805D01*
X711519Y838985D01*
X710699Y837916D01*
X710183Y836671D01*
X710137Y836319D01*
X714185D01*
Y840367D01*
D02*
G37*
G36*
X755169Y840497D02*
X753833Y840321D01*
X752588Y839805D01*
X751519Y838985D01*
X750699Y837916D01*
X750440Y837291D01*
X749899D01*
X749640Y837916D01*
X748820Y838985D01*
X747750Y839805D01*
X746505Y840321D01*
X745169Y840497D01*
X743833Y840321D01*
X742588Y839805D01*
X741519Y838985D01*
X740699Y837916D01*
X740440Y837291D01*
X739899D01*
X739640Y837916D01*
X738820Y838985D01*
X737750Y839805D01*
X736505Y840321D01*
X735169Y840497D01*
X733833Y840321D01*
X732588Y839805D01*
X731519Y838985D01*
X730699Y837916D01*
X730440Y837291D01*
X729899D01*
X729640Y837916D01*
X728820Y838985D01*
X727750Y839805D01*
X726505Y840321D01*
X725169Y840497D01*
X723833Y840321D01*
X722588Y839805D01*
X721519Y838985D01*
X720699Y837916D01*
X720440Y837291D01*
X719899D01*
X719640Y837916D01*
X718820Y838985D01*
X717750Y839805D01*
X716505Y840321D01*
X716153Y840367D01*
Y835335D01*
X715169D01*
Y834350D01*
X710137D01*
X710183Y833999D01*
X710699Y832753D01*
X711519Y831684D01*
X711756Y831503D01*
X711595Y831029D01*
X707362D01*
X706681Y831312D01*
X705807Y831427D01*
X704934Y831312D01*
X704119Y830974D01*
X703420Y830438D01*
X702884Y829739D01*
X702547Y828925D01*
X702432Y828051D01*
X702547Y827178D01*
X702884Y826363D01*
X703420Y825665D01*
X704119Y825128D01*
X704934Y824791D01*
X705807Y824676D01*
X706367Y824750D01*
X706718Y824292D01*
X706681Y824200D01*
X706566Y823327D01*
X706681Y822453D01*
X707018Y821639D01*
X707554Y820940D01*
X708253Y820404D01*
X709067Y820067D01*
X709941Y819951D01*
X710815Y820067D01*
X711496Y820348D01*
X743161D01*
X743932Y820450D01*
X744651Y820748D01*
X745267Y821221D01*
X754329Y830283D01*
X755169Y830172D01*
X756505Y830348D01*
X757750Y830864D01*
X758820Y831684D01*
X759588Y832686D01*
X759944Y832708D01*
X760149Y832677D01*
X762610Y830217D01*
X767728D01*
X770287Y832776D01*
Y837894D01*
X767728Y840453D01*
X762610D01*
X760149Y837992D01*
X759944Y837961D01*
X759588Y837983D01*
X758820Y838985D01*
X757750Y839805D01*
X756505Y840321D01*
X755169Y840497D01*
D02*
G37*
G36*
X468090Y840051D02*
X466793Y839880D01*
X465585Y839379D01*
X464547Y838583D01*
X463751Y837545D01*
X463250Y836336D01*
X463079Y835039D01*
X463250Y833742D01*
X463751Y832534D01*
X464547Y831496D01*
X465585Y830699D01*
X466793Y830199D01*
X468090Y830028D01*
X469387Y830199D01*
X470596Y830699D01*
X471634Y831496D01*
X472430Y832534D01*
X472931Y833742D01*
X473102Y835039D01*
X472931Y836336D01*
X472430Y837545D01*
X471634Y838583D01*
X470596Y839379D01*
X469387Y839880D01*
X468090Y840051D01*
D02*
G37*
G36*
X483090D02*
X481793Y839880D01*
X480585Y839379D01*
X479547Y838583D01*
X478751Y837545D01*
X478250Y836336D01*
X478079Y835039D01*
X478250Y833742D01*
X478751Y832534D01*
X479547Y831496D01*
X480585Y830699D01*
X481793Y830199D01*
X483090Y830028D01*
X484387Y830199D01*
X485596Y830699D01*
X486634Y831496D01*
X487430Y832534D01*
X487931Y833742D01*
X488102Y835039D01*
X487931Y836336D01*
X487430Y837545D01*
X486634Y838583D01*
X485596Y839379D01*
X484387Y839880D01*
X483090Y840051D01*
D02*
G37*
G36*
X498091D02*
X496793Y839880D01*
X495585Y839379D01*
X494547Y838583D01*
X493750Y837545D01*
X493250Y836336D01*
X493079Y835039D01*
X493250Y833742D01*
X493750Y832534D01*
X494547Y831496D01*
X495585Y830699D01*
X496793Y830199D01*
X498091Y830028D01*
X499388Y830199D01*
X500596Y830699D01*
X501634Y831496D01*
X502430Y832534D01*
X502931Y833742D01*
X503102Y835039D01*
X502931Y836336D01*
X502430Y837545D01*
X501634Y838583D01*
X500596Y839379D01*
X499388Y839880D01*
X498091Y840051D01*
D02*
G37*
G36*
X737385Y778479D02*
X734432D01*
Y774739D01*
X737385D01*
Y778479D01*
D02*
G37*
G36*
X742306D02*
X739354D01*
Y774739D01*
X742306D01*
Y778479D01*
D02*
G37*
G36*
X750968Y784188D02*
X743094D01*
Y774739D01*
X750968D01*
Y784188D01*
D02*
G37*
G36*
X407517Y753456D02*
X402399D01*
Y748928D01*
X407517D01*
Y753456D01*
D02*
G37*
G36*
X539247Y754880D02*
X536884D01*
Y752321D01*
X539247D01*
Y754880D01*
D02*
G37*
G36*
X742306Y784188D02*
X739354D01*
Y780448D01*
X742306D01*
Y784188D01*
D02*
G37*
G36*
X754145Y796498D02*
X751783D01*
Y793939D01*
X754145D01*
Y796498D01*
D02*
G37*
G36*
X737385Y784188D02*
X734432D01*
Y780448D01*
X737385D01*
Y784188D01*
D02*
G37*
G36*
X721468Y701988D02*
X713594D01*
Y692539D01*
X721468D01*
Y701988D01*
D02*
G37*
G36*
X504331Y702853D02*
X499213D01*
Y698325D01*
X504331D01*
Y702853D01*
D02*
G37*
G36*
X539260Y718468D02*
X536898D01*
Y715909D01*
X539260D01*
Y718468D01*
D02*
G37*
G36*
X677347Y718643D02*
X674984D01*
Y716084D01*
X677347D01*
Y718643D01*
D02*
G37*
G36*
X712806Y696279D02*
X709854D01*
Y692539D01*
X712806D01*
Y696279D01*
D02*
G37*
G36*
Y701988D02*
X709854D01*
Y698248D01*
X712806D01*
Y701988D01*
D02*
G37*
G36*
X707885D02*
X704932D01*
Y698248D01*
X707885D01*
Y701988D01*
D02*
G37*
G36*
X407317Y719956D02*
X402199D01*
Y715428D01*
X407317D01*
Y719956D01*
D02*
G37*
G36*
X689716Y703312D02*
X684598D01*
Y698784D01*
X689716D01*
Y703312D01*
D02*
G37*
G36*
X539260Y713940D02*
X536898D01*
Y711381D01*
X539260D01*
Y713940D01*
D02*
G37*
G36*
X642416Y703112D02*
X637298D01*
Y698584D01*
X642416D01*
Y703112D01*
D02*
G37*
G36*
X549917Y702856D02*
X544799D01*
Y698328D01*
X549917D01*
Y702856D01*
D02*
G37*
G36*
X724645Y714399D02*
X722283D01*
Y711840D01*
X724645D01*
Y714399D01*
D02*
G37*
G36*
X632547Y714199D02*
X630184D01*
Y711640D01*
X632547D01*
Y714199D01*
D02*
G37*
G36*
X677347Y714116D02*
X674984D01*
Y711557D01*
X677347D01*
Y714116D01*
D02*
G37*
G36*
X527420Y701615D02*
X524467D01*
Y697875D01*
X527420D01*
Y701615D01*
D02*
G37*
G36*
X522498D02*
X519546D01*
Y697875D01*
X522498D01*
Y701615D01*
D02*
G37*
G36*
X615785Y701818D02*
X612832D01*
Y698078D01*
X615785D01*
Y701818D01*
D02*
G37*
G36*
X504317Y732769D02*
X499199D01*
Y728242D01*
X504317D01*
Y732769D01*
D02*
G37*
G36*
X660585Y732080D02*
X657632D01*
Y728339D01*
X660585D01*
Y732080D01*
D02*
G37*
G36*
X665506D02*
X662554D01*
Y728339D01*
X665506D01*
Y732080D01*
D02*
G37*
G36*
X674168Y737788D02*
X666294D01*
Y728339D01*
X674168D01*
Y737788D01*
D02*
G37*
G36*
X707885Y696279D02*
X704932D01*
Y692539D01*
X707885D01*
Y696279D01*
D02*
G37*
G36*
X620706Y701818D02*
X617754D01*
Y698078D01*
X620706D01*
Y701818D01*
D02*
G37*
G36*
X724645Y718927D02*
X722283D01*
Y716368D01*
X724645D01*
Y718927D01*
D02*
G37*
G36*
X689817Y732560D02*
X684699D01*
Y728032D01*
X689817D01*
Y732560D01*
D02*
G37*
G36*
X632547Y718727D02*
X630184D01*
Y716168D01*
X632547D01*
Y718727D01*
D02*
G37*
G36*
X665437Y701824D02*
X662484D01*
Y698084D01*
X665437D01*
Y701824D01*
D02*
G37*
G36*
X660516D02*
X657563D01*
Y698084D01*
X660516D01*
Y701824D01*
D02*
G37*
G36*
X712906Y731980D02*
X709953D01*
Y728239D01*
X712906D01*
Y731980D01*
D02*
G37*
G36*
X721568Y737688D02*
X713694D01*
Y728239D01*
X721568D01*
Y737688D01*
D02*
G37*
G36*
X707985Y731980D02*
X705032D01*
Y728239D01*
X707985D01*
Y731980D01*
D02*
G37*
G36*
X552516Y732716D02*
X547398D01*
Y728188D01*
X552516D01*
Y732716D01*
D02*
G37*
%LPD*%
G36*
X629725Y495240D02*
X492823Y495240D01*
X492323Y495240D01*
X492323Y623307D01*
X629725D01*
Y495240D01*
D02*
G37*
%LPC*%
G36*
X532736Y539160D02*
X528996D01*
X525256D01*
Y536601D01*
X525955D01*
X526176Y536152D01*
X526073Y536018D01*
X525782Y535315D01*
X532211D01*
X531919Y536018D01*
X531816Y536152D01*
X532038Y536601D01*
X532736D01*
Y539160D01*
D02*
G37*
G36*
Y550787D02*
X525256D01*
Y550574D01*
X520549D01*
X519778Y550473D01*
X519060Y550175D01*
X518443Y549702D01*
X518443Y549702D01*
X518131Y549390D01*
X515453D01*
Y542697D01*
Y537579D01*
X515453D01*
X515682Y537318D01*
X515621Y536854D01*
X515736Y535981D01*
X516073Y535167D01*
X516609Y534468D01*
X517309Y533931D01*
X518123Y533594D01*
X518996Y533479D01*
X519870Y533594D01*
X520684Y533931D01*
X521383Y534468D01*
X521919Y535167D01*
X522257Y535981D01*
X522371Y536854D01*
X522310Y537318D01*
X522540Y537579D01*
X522540D01*
Y542697D01*
Y544618D01*
X524902D01*
X525256Y544264D01*
X525256Y543701D01*
X525256Y543201D01*
Y541128D01*
X528996D01*
X532736D01*
Y543201D01*
X532736Y543687D01*
X532736Y544187D01*
Y550787D01*
D02*
G37*
G36*
X592211Y533347D02*
X585782D01*
X586073Y532643D01*
X586609Y531944D01*
X587137Y531539D01*
X586967Y531039D01*
X585256D01*
Y528480D01*
X592736D01*
Y531039D01*
X591025D01*
X590856Y531539D01*
X591383Y531944D01*
X591919Y532643D01*
X592211Y533347D01*
D02*
G37*
G36*
X579060Y511973D02*
X575012D01*
Y507924D01*
X575364Y507970D01*
X576609Y508486D01*
X577678Y509306D01*
X578498Y510376D01*
X579014Y511621D01*
X579060Y511973D01*
D02*
G37*
G36*
X572211Y533347D02*
X565782D01*
X566073Y532643D01*
X566609Y531944D01*
X567137Y531539D01*
X566967Y531039D01*
X565256D01*
Y528480D01*
X572736D01*
Y531039D01*
X571025D01*
X570856Y531539D01*
X571383Y531944D01*
X571919Y532643D01*
X572211Y533347D01*
D02*
G37*
G36*
X552736Y604610D02*
X548996D01*
X545256D01*
Y602051D01*
X546160D01*
X546406Y601551D01*
X546073Y601117D01*
X545782Y600413D01*
X552211D01*
X551919Y601117D01*
X551586Y601551D01*
X551832Y602051D01*
X552736D01*
Y604610D01*
D02*
G37*
G36*
X608483Y621462D02*
X576280D01*
X575509Y621361D01*
X574790Y621064D01*
X574174Y620590D01*
X574174Y620590D01*
X572107Y618523D01*
X571633Y617906D01*
X571336Y617188D01*
X571235Y616417D01*
Y616238D01*
X565256D01*
Y615673D01*
X562539D01*
Y616041D01*
X555453D01*
Y609348D01*
Y604230D01*
X556018D01*
Y603507D01*
X555736Y602826D01*
X555621Y601953D01*
X555736Y601079D01*
X556073Y600265D01*
X556609Y599566D01*
X556898Y599344D01*
Y598844D01*
X556609Y598623D01*
X556073Y597924D01*
X555736Y597110D01*
X555621Y596236D01*
X555736Y595363D01*
X556018Y594682D01*
Y593959D01*
X555453D01*
Y587266D01*
Y582388D01*
X552736D01*
Y588551D01*
X552736Y589038D01*
X552736Y589538D01*
Y591610D01*
X545256D01*
X545256Y588826D01*
X544903Y588473D01*
X542540D01*
Y593959D01*
X541974D01*
Y594682D01*
X542256Y595363D01*
X542372Y596236D01*
X542256Y597110D01*
X541919Y597924D01*
X541383Y598623D01*
X541094Y598844D01*
Y599344D01*
X541383Y599566D01*
X541919Y600265D01*
X542256Y601079D01*
X542372Y601953D01*
X542256Y602826D01*
X541974Y603507D01*
Y604230D01*
X542540D01*
Y609716D01*
X544903D01*
X545256Y609363D01*
Y609151D01*
X545256Y608651D01*
Y606579D01*
X548996D01*
X552736D01*
Y608651D01*
X552736Y609138D01*
X552736Y609638D01*
Y616238D01*
X545256D01*
Y615673D01*
X542540D01*
Y616041D01*
X535453D01*
Y609348D01*
Y604230D01*
X536018D01*
Y603507D01*
X535736Y602826D01*
X535621Y601953D01*
X535736Y601079D01*
X536073Y600265D01*
X536609Y599566D01*
X536898Y599344D01*
Y598844D01*
X536609Y598623D01*
X536073Y597924D01*
X535736Y597110D01*
X535621Y596236D01*
X535736Y595363D01*
X536018Y594682D01*
Y593959D01*
X535453D01*
Y587266D01*
Y582388D01*
X532736D01*
Y588551D01*
X532736Y589038D01*
X532736Y589538D01*
Y591610D01*
X525256D01*
X525256Y588826D01*
X524902Y588473D01*
X522540D01*
Y593959D01*
X519471D01*
X518996Y594022D01*
X515059D01*
X514288Y593920D01*
X513570Y593622D01*
X512953Y593149D01*
X512953Y593149D01*
X512003Y592199D01*
X511541Y592391D01*
Y596995D01*
X518776Y604230D01*
X522540D01*
Y609716D01*
X524902D01*
X525256Y609363D01*
Y609151D01*
X525256Y608651D01*
Y606579D01*
X528996D01*
X532736D01*
Y608651D01*
X532736Y609138D01*
X532736Y609638D01*
Y616238D01*
X525256D01*
Y615673D01*
X522540D01*
Y616041D01*
X515453D01*
Y609330D01*
X506457Y600334D01*
X505984Y599718D01*
X505686Y598999D01*
X505585Y598228D01*
Y579803D01*
X505686Y579032D01*
X505984Y578314D01*
X506457Y577697D01*
X517973Y566182D01*
X518590Y565708D01*
X519308Y565411D01*
X520079Y565309D01*
X550714D01*
X551011Y564809D01*
X550775Y564240D01*
X550660Y563366D01*
X550775Y562493D01*
X551057Y561811D01*
Y550787D01*
X545256D01*
Y550574D01*
X540549D01*
X539778Y550473D01*
X539060Y550175D01*
X538443Y549702D01*
X538443Y549702D01*
X538131Y549390D01*
X535453D01*
Y542697D01*
Y537579D01*
X535453D01*
X535682Y537318D01*
X535621Y536854D01*
X535736Y535981D01*
X536073Y535167D01*
X536609Y534468D01*
X536898Y534246D01*
Y533746D01*
X536609Y533525D01*
X536073Y532826D01*
X535736Y532011D01*
X535621Y531138D01*
X535736Y530264D01*
X536018Y529583D01*
Y528861D01*
X535453D01*
Y522168D01*
Y518425D01*
X534953Y517997D01*
X534028Y518119D01*
X533112Y517998D01*
X532736Y518328D01*
Y523939D01*
X532736D01*
Y523953D01*
X532736D01*
Y526512D01*
X528996D01*
Y528480D01*
X532736D01*
Y531039D01*
X531025D01*
X530856Y531539D01*
X531383Y531944D01*
X531919Y532643D01*
X532211Y533347D01*
X525782D01*
X526073Y532643D01*
X526609Y531944D01*
X527137Y531539D01*
X526967Y531039D01*
X525256D01*
Y530336D01*
X524756Y530089D01*
X524326Y530419D01*
X523512Y530756D01*
X522638Y530871D01*
X521764Y530756D01*
X521083Y530474D01*
X520978D01*
X520978Y530474D01*
X520207Y530373D01*
X519489Y530075D01*
X518872Y529602D01*
X518872Y529602D01*
X518131Y528861D01*
X515453D01*
Y522168D01*
Y518805D01*
X514991Y518613D01*
X512736Y520868D01*
Y523622D01*
X512736Y523622D01*
Y523635D01*
X512736D01*
X512736Y524122D01*
Y530722D01*
X505591D01*
Y530998D01*
X503990D01*
X503852Y531498D01*
X504434Y531944D01*
X504971Y532643D01*
X505262Y533347D01*
X502047D01*
Y535315D01*
X505262D01*
X504971Y536018D01*
X504901Y536109D01*
X505154Y536601D01*
X505296Y536601D01*
X512402D01*
Y543201D01*
X512402Y543687D01*
X512402D01*
Y543701D01*
X512402D01*
Y550787D01*
X511963D01*
X511873Y551472D01*
X511575Y552190D01*
X511102Y552807D01*
X511102Y552807D01*
X507098Y556811D01*
X506481Y557284D01*
X505763Y557582D01*
X504992Y557683D01*
X499579D01*
X499579Y557683D01*
X499193Y557632D01*
X498808Y557582D01*
X498090Y557284D01*
X497473Y556811D01*
X495209Y554547D01*
X494736Y553930D01*
X494438Y553212D01*
X494337Y552441D01*
Y517402D01*
X494438Y516631D01*
X494736Y515912D01*
X495209Y515296D01*
X505741Y504764D01*
X505741Y504764D01*
X506357Y504291D01*
X507076Y503993D01*
X507847Y503892D01*
X507847Y503892D01*
X557941D01*
X558712Y503993D01*
X559430Y504291D01*
X560047Y504764D01*
X563188Y507905D01*
X564028Y507794D01*
X565364Y507970D01*
X566609Y508486D01*
X567678Y509306D01*
X568498Y510376D01*
X568757Y511000D01*
X569298D01*
X569557Y510376D01*
X570377Y509306D01*
X571447Y508486D01*
X572692Y507970D01*
X573043Y507924D01*
Y512957D01*
Y518059D01*
X572736Y518328D01*
Y523939D01*
X572736D01*
Y523953D01*
X572736D01*
Y526512D01*
X565256D01*
Y523953D01*
X565256D01*
Y523939D01*
X565256D01*
Y523374D01*
X562539D01*
Y528861D01*
X561974D01*
Y529583D01*
X562256Y530264D01*
X562371Y531138D01*
X562256Y532011D01*
X561919Y532826D01*
X561383Y533525D01*
X561094Y533746D01*
Y534246D01*
X561383Y534468D01*
X561919Y535167D01*
X562256Y535981D01*
X562371Y536854D01*
X562311Y537318D01*
X562539Y537579D01*
X562539D01*
Y542697D01*
Y544618D01*
X565256D01*
Y543701D01*
X565256D01*
Y543687D01*
X565256D01*
Y541128D01*
X568996D01*
Y539160D01*
X565256D01*
Y536601D01*
X565955D01*
X566176Y536152D01*
X566073Y536018D01*
X565782Y535315D01*
X572211D01*
X571919Y536018D01*
X571816Y536152D01*
X572038Y536601D01*
X572736D01*
Y539131D01*
X573198Y539322D01*
X573701Y538819D01*
X573701Y538819D01*
X574318Y538346D01*
X575036Y538048D01*
X575453Y537994D01*
Y537579D01*
X582540D01*
Y542697D01*
Y544618D01*
X585256D01*
Y543701D01*
X585256D01*
Y543687D01*
X585256D01*
Y541128D01*
X588996D01*
Y539160D01*
X585256D01*
Y536601D01*
X585955D01*
X586176Y536152D01*
X586073Y536018D01*
X585782Y535315D01*
X592211D01*
X591919Y536018D01*
X591817Y536152D01*
X592038Y536601D01*
X592736D01*
Y537187D01*
X593236Y537340D01*
X593676Y536767D01*
X594375Y536230D01*
X595189Y535893D01*
X596063Y535778D01*
X596278Y535807D01*
X596654Y535477D01*
Y535217D01*
X601575D01*
Y533248D01*
X596654D01*
Y531083D01*
Y527830D01*
X596278Y527501D01*
X596063Y527529D01*
X595189Y527414D01*
X594375Y527077D01*
X593676Y526540D01*
X593236Y525967D01*
X592736Y526120D01*
Y526512D01*
X585256D01*
Y524439D01*
X585256Y523953D01*
X585256D01*
Y523939D01*
X585256D01*
Y523374D01*
X582540D01*
Y528861D01*
X581627D01*
X581575Y528985D01*
X581102Y529602D01*
X580603Y530101D01*
Y531050D01*
X580885Y531731D01*
X581000Y532605D01*
X580885Y533478D01*
X580548Y534293D01*
X580012Y534992D01*
X579313Y535528D01*
X578499Y535865D01*
X577625Y535980D01*
X576751Y535865D01*
X575937Y535528D01*
X575238Y534992D01*
X574702Y534293D01*
X574365Y533478D01*
X574250Y532605D01*
X574365Y531731D01*
X574647Y531050D01*
Y528867D01*
X574748Y528096D01*
X575046Y527378D01*
X575453Y526848D01*
Y522168D01*
Y518425D01*
X575012Y518048D01*
Y513941D01*
X579060D01*
X579014Y514293D01*
X578498Y515538D01*
X577722Y516550D01*
X577835Y517050D01*
X582540D01*
Y517418D01*
X585256D01*
Y516853D01*
X592736D01*
Y522187D01*
X593236Y522340D01*
X593676Y521767D01*
X594375Y521230D01*
X595189Y520893D01*
X596063Y520778D01*
X596278Y520807D01*
X596654Y520477D01*
Y516083D01*
X598597D01*
Y515085D01*
X598393Y514594D01*
X598278Y513721D01*
X598393Y512847D01*
X598730Y512033D01*
X599267Y511334D01*
X599966Y510797D01*
X600780Y510460D01*
X601653Y510345D01*
X602527Y510460D01*
X603341Y510797D01*
X604040Y511334D01*
X604577Y512033D01*
X604914Y512847D01*
X605029Y513721D01*
X604914Y514594D01*
X604577Y515408D01*
X604553Y515439D01*
Y516083D01*
X606496D01*
Y521083D01*
Y525556D01*
X606872Y525885D01*
X607087Y525857D01*
X607960Y525972D01*
X608774Y526309D01*
X609473Y526846D01*
X610010Y527545D01*
X610347Y528359D01*
X610462Y529232D01*
X610439Y529406D01*
X610913Y529639D01*
X613425Y527126D01*
X613426Y527126D01*
X614042Y526653D01*
X614308Y526543D01*
X614471Y525934D01*
X614400Y525841D01*
X614062Y525027D01*
X613947Y524154D01*
X614062Y523280D01*
X614400Y522466D01*
X614936Y521767D01*
X614741Y521286D01*
X614400Y520841D01*
X614062Y520027D01*
X613947Y519153D01*
X614062Y518280D01*
X614400Y517466D01*
X614936Y516767D01*
X615635Y516230D01*
X616449Y515893D01*
X617323Y515778D01*
X618196Y515893D01*
X618654Y516083D01*
X627756D01*
Y521083D01*
Y526083D01*
Y531083D01*
Y536083D01*
Y541083D01*
Y546083D01*
Y551083D01*
Y553248D01*
X622835D01*
Y555217D01*
X627756D01*
Y557382D01*
X626524D01*
X626195Y557758D01*
X626210Y557874D01*
X626095Y558748D01*
X625758Y559562D01*
X625221Y560261D01*
X624522Y560797D01*
X623819Y561089D01*
Y557874D01*
X621850D01*
Y561089D01*
X621147Y560797D01*
X620448Y560261D01*
X619911Y559562D01*
X619574Y558748D01*
X619459Y557874D01*
X619475Y557758D01*
X619145Y557382D01*
X618466D01*
X618149Y557795D01*
X618149Y557795D01*
X610940Y565005D01*
X611057Y565594D01*
X611332Y565708D01*
X611948Y566182D01*
X619901Y574134D01*
X627756D01*
Y579134D01*
Y584134D01*
Y589134D01*
Y594134D01*
Y599134D01*
Y604134D01*
Y609134D01*
Y611299D01*
X622835D01*
Y613268D01*
X627756D01*
Y615433D01*
X626524D01*
X626195Y615809D01*
X626210Y615925D01*
X626095Y616799D01*
X625758Y617613D01*
X625221Y618312D01*
X624522Y618848D01*
X623819Y619140D01*
Y615925D01*
X621850D01*
Y619140D01*
X621147Y618848D01*
X620448Y618312D01*
X619911Y617613D01*
X619574Y616799D01*
X619459Y615925D01*
X619475Y615809D01*
X619145Y615433D01*
X617913D01*
Y613919D01*
X617451Y613728D01*
X610589Y620590D01*
X609972Y621064D01*
X609254Y621361D01*
X608483Y621462D01*
D02*
G37*
G36*
X532736Y604610D02*
X528996D01*
X525256D01*
Y602051D01*
X526160D01*
X526406Y601551D01*
X526073Y601117D01*
X525782Y600413D01*
X532211D01*
X531919Y601117D01*
X531586Y601551D01*
X531833Y602051D01*
X532736D01*
Y604610D01*
D02*
G37*
G36*
X532211Y598445D02*
X525782D01*
X526073Y597742D01*
X526609Y597042D01*
X527137Y596638D01*
X526967Y596138D01*
X525256D01*
Y593579D01*
X532736D01*
Y596138D01*
X531025D01*
X530856Y596638D01*
X531383Y597042D01*
X531919Y597742D01*
X532211Y598445D01*
D02*
G37*
G36*
X552211D02*
X545782D01*
X546073Y597742D01*
X546609Y597042D01*
X547137Y596638D01*
X546967Y596138D01*
X545256D01*
Y593579D01*
X552736D01*
Y596138D01*
X551025D01*
X550856Y596638D01*
X551383Y597042D01*
X551919Y597742D01*
X552211Y598445D01*
D02*
G37*
%LPD*%
G36*
X545256Y543701D02*
X545256D01*
Y543687D01*
X545256D01*
Y541128D01*
X548996D01*
Y539160D01*
X545256D01*
Y536601D01*
X545955D01*
X546176Y536152D01*
X546073Y536018D01*
X545782Y535315D01*
X548996D01*
Y533347D01*
X545782D01*
X546073Y532643D01*
X546609Y531944D01*
X547137Y531539D01*
X546967Y531039D01*
X545256D01*
Y528480D01*
X548996D01*
Y526512D01*
X545256D01*
Y523953D01*
X545256D01*
Y523939D01*
X545256D01*
Y523374D01*
X542540D01*
Y528861D01*
X541974D01*
Y529583D01*
X542256Y530264D01*
X542372Y531138D01*
X542256Y532011D01*
X541919Y532826D01*
X541383Y533525D01*
X541094Y533746D01*
Y534246D01*
X541383Y534468D01*
X541919Y535167D01*
X542256Y535981D01*
X542372Y536854D01*
X542310Y537318D01*
X542540Y537579D01*
X542540D01*
Y542697D01*
Y544618D01*
X545256D01*
Y543701D01*
D02*
G37*
G36*
X585256Y609151D02*
X585256D01*
Y609138D01*
X585256D01*
Y606579D01*
X588996D01*
Y604610D01*
X585256D01*
Y602051D01*
X586449D01*
X586556Y601738D01*
X586588Y601551D01*
X586073Y600881D01*
X585782Y600177D01*
X588996D01*
Y598209D01*
X585782D01*
X586073Y597505D01*
X586609Y596806D01*
X586829Y596638D01*
X586659Y596138D01*
X585256D01*
Y593579D01*
X588996D01*
Y591610D01*
X585256D01*
Y589051D01*
X585256D01*
Y589038D01*
X585256D01*
Y588473D01*
X582540D01*
Y593959D01*
X582076D01*
Y594682D01*
X582358Y595363D01*
X582473Y596236D01*
X582358Y597110D01*
X582021Y597924D01*
X581485Y598623D01*
X580786Y599159D01*
X579972Y599497D01*
X579098Y599612D01*
X578224Y599497D01*
X577410Y599159D01*
X576711Y598623D01*
X576175Y597924D01*
X575838Y597110D01*
X575723Y596236D01*
X575838Y595363D01*
X576120Y594682D01*
Y593959D01*
X575453D01*
Y587266D01*
Y582388D01*
X572736D01*
Y589038D01*
X572736D01*
Y589051D01*
X572736D01*
Y591610D01*
X565256D01*
Y589051D01*
X565256D01*
Y589038D01*
X565256D01*
Y588473D01*
X562539D01*
Y593959D01*
X561974D01*
Y594682D01*
X562256Y595363D01*
X562371Y596236D01*
X562256Y597110D01*
X561919Y597924D01*
X561383Y598623D01*
X561094Y598844D01*
Y599344D01*
X561383Y599566D01*
X561919Y600265D01*
X562256Y601079D01*
X562371Y601953D01*
X562256Y602826D01*
X561974Y603507D01*
Y604230D01*
X562539D01*
Y609716D01*
X564902D01*
X565256Y609363D01*
X565256Y609138D01*
X565256Y609138D01*
Y606579D01*
X568996D01*
X572736D01*
Y606961D01*
X573198Y607152D01*
X574092Y606258D01*
X574215Y606164D01*
X574908Y605470D01*
X575453Y605053D01*
Y604230D01*
X582540D01*
Y609716D01*
X585256D01*
Y609151D01*
D02*
G37*
G36*
X614339Y608416D02*
X614350Y608390D01*
X614823Y607773D01*
X616652Y605944D01*
X616492Y605471D01*
X616449Y605465D01*
X615635Y605128D01*
X614936Y604591D01*
X614400Y603892D01*
X614062Y603078D01*
X613947Y602205D01*
X614062Y601331D01*
X614400Y600517D01*
X614936Y599818D01*
X614741Y599337D01*
X614400Y598892D01*
X614062Y598078D01*
X613947Y597205D01*
X614062Y596331D01*
X614400Y595517D01*
X614741Y595072D01*
X614936Y594591D01*
X614400Y593892D01*
X614062Y593078D01*
X613947Y592205D01*
X614062Y591331D01*
X614400Y590517D01*
X614936Y589818D01*
X614741Y589337D01*
X614400Y588892D01*
X614062Y588078D01*
X613947Y587205D01*
X614062Y586331D01*
X614400Y585517D01*
X614741Y585072D01*
X614936Y584591D01*
X614400Y583892D01*
X614062Y583078D01*
X613947Y582205D01*
X614062Y581331D01*
X614400Y580517D01*
X614936Y579818D01*
X615635Y579282D01*
X615919Y579164D01*
X616017Y578674D01*
X612178Y574834D01*
X611738Y575102D01*
Y585906D01*
X611637Y586676D01*
X611339Y587395D01*
X610866Y588011D01*
X609488Y589389D01*
X608871Y589863D01*
X608153Y590160D01*
X607382Y590262D01*
X606496D01*
Y591299D01*
X601575D01*
Y593268D01*
X606496D01*
Y594134D01*
Y599134D01*
Y604134D01*
Y608607D01*
X606872Y608936D01*
X607087Y608908D01*
X607960Y609023D01*
X608774Y609360D01*
X609473Y609897D01*
X610010Y610596D01*
X610347Y611410D01*
X610381Y611667D01*
X610909Y611847D01*
X614339Y608416D01*
D02*
G37*
%LPC*%
G36*
X572211Y598445D02*
X565782D01*
X566073Y597742D01*
X566609Y597042D01*
X567137Y596638D01*
X566967Y596138D01*
X565256D01*
Y593579D01*
X572736D01*
Y596138D01*
X571025D01*
X570856Y596638D01*
X571383Y597042D01*
X571919Y597742D01*
X572211Y598445D01*
D02*
G37*
G36*
X572736Y604610D02*
X568996D01*
X565256D01*
Y602051D01*
X566160D01*
X566406Y601551D01*
X566073Y601117D01*
X565782Y600413D01*
X572211D01*
X571919Y601117D01*
X571586Y601551D01*
X571833Y602051D01*
X572736D01*
Y604610D01*
D02*
G37*
%LPD*%
G36*
X794554Y471588D02*
X794554Y462490D01*
X794554Y461862D01*
X794309Y460630D01*
X793828Y459470D01*
X793131Y458426D01*
X792687Y457982D01*
X792687Y457982D01*
X772912Y438207D01*
X772635Y437930D01*
X771983Y437494D01*
X771258Y437194D01*
X770489Y437041D01*
X770097Y437041D01*
X770097D01*
X770097D01*
D01*
X721227Y437041D01*
X721110Y437041D01*
X720893Y437131D01*
X720727Y437297D01*
X720637Y437514D01*
X720637Y437632D01*
Y437632D01*
Y442159D01*
X748386Y442159D01*
X748736Y442176D01*
X749422Y442313D01*
X750068Y442581D01*
X750650Y442970D01*
X750910Y443205D01*
X750910Y443205D01*
X778409Y470704D01*
X778619Y470915D01*
X779114Y471245D01*
X779663Y471472D01*
X780246Y471588D01*
X780544Y471588D01*
X780544Y471588D01*
X794554Y471588D01*
D02*
G37*
%LPC*%
G36*
X706646Y800527D02*
X704284D01*
Y797968D01*
X706646D01*
Y800527D01*
D02*
G37*
G36*
X689885Y783618D02*
X686932D01*
Y779878D01*
X689885D01*
Y783618D01*
D02*
G37*
G36*
X706646Y795999D02*
X704284D01*
Y793440D01*
X706646D01*
Y795999D01*
D02*
G37*
G36*
X694806Y783618D02*
X691854D01*
Y779878D01*
X694806D01*
Y783618D01*
D02*
G37*
G36*
X671716Y784912D02*
X666598D01*
Y780384D01*
X671716D01*
Y784912D01*
D02*
G37*
G36*
X442246Y731043D02*
X439884D01*
Y728484D01*
X442246D01*
Y731043D01*
D02*
G37*
G36*
Y735571D02*
X439884D01*
Y733012D01*
X442246D01*
Y735571D01*
D02*
G37*
G36*
X430337Y718724D02*
X427384D01*
Y714984D01*
X430337D01*
Y718724D01*
D02*
G37*
G36*
X616085Y737918D02*
X613132D01*
Y734178D01*
X616085D01*
Y737918D01*
D02*
G37*
G36*
X621006D02*
X618053D01*
Y734178D01*
X621006D01*
Y737918D01*
D02*
G37*
G36*
X616085Y732209D02*
X613132D01*
Y728469D01*
X616085D01*
Y732209D01*
D02*
G37*
G36*
X621006D02*
X618053D01*
Y728469D01*
X621006D01*
Y732209D01*
D02*
G37*
G36*
X568085Y701562D02*
X565132D01*
Y697822D01*
X568085D01*
Y701562D01*
D02*
G37*
G36*
X584846Y718471D02*
X582484D01*
Y715912D01*
X584846D01*
Y718471D01*
D02*
G37*
G36*
X597616Y703112D02*
X592498D01*
Y698584D01*
X597616D01*
Y703112D01*
D02*
G37*
G36*
X584846Y713943D02*
X582484D01*
Y711384D01*
X584846D01*
Y713943D01*
D02*
G37*
G36*
X573006Y701562D02*
X570053D01*
Y697822D01*
X573006D01*
Y701562D01*
D02*
G37*
G36*
X688316Y596826D02*
X687612Y596535D01*
X686913Y595998D01*
X686377Y595299D01*
X686086Y594596D01*
X688316D01*
Y596826D01*
D02*
G37*
G36*
X690284D02*
Y594596D01*
X692515D01*
X692223Y595299D01*
X691687Y595998D01*
X690988Y596535D01*
X690284Y596826D01*
D02*
G37*
G36*
X425416Y681816D02*
X422463D01*
Y678076D01*
X425416D01*
Y681816D01*
D02*
G37*
G36*
Y687524D02*
X422463D01*
Y683784D01*
X425416D01*
Y687524D01*
D02*
G37*
G36*
X430337D02*
X427384D01*
Y683784D01*
X430337D01*
Y687524D01*
D02*
G37*
G36*
Y681816D02*
X427384D01*
Y678076D01*
X430337D01*
Y681816D01*
D02*
G37*
G36*
X438998Y687524D02*
X431124D01*
Y678076D01*
X438998D01*
Y687524D01*
D02*
G37*
G36*
X442246Y699843D02*
X439884D01*
Y697284D01*
X442246D01*
Y699843D01*
D02*
G37*
%LPD*%
D10*
X635945Y657903D02*
D03*
X640945D02*
D03*
X630945D02*
D03*
X625945D02*
D03*
X615945D02*
D03*
X620945D02*
D03*
X605945D02*
D03*
X610945D02*
D03*
X605945Y679163D02*
D03*
X620945D02*
D03*
X615945D02*
D03*
X610945D02*
D03*
X630945D02*
D03*
X625945D02*
D03*
X635945D02*
D03*
X640945D02*
D03*
X495787Y657903D02*
D03*
X500787D02*
D03*
X490787D02*
D03*
X485787D02*
D03*
X475787D02*
D03*
X480787D02*
D03*
X465787D02*
D03*
X470787D02*
D03*
X465787Y679163D02*
D03*
X480787D02*
D03*
X475787D02*
D03*
X470787D02*
D03*
X490787D02*
D03*
X485787D02*
D03*
X495787D02*
D03*
X500787D02*
D03*
D11*
X743504Y575079D02*
D03*
Y570079D02*
D03*
Y560079D02*
D03*
Y565079D02*
D03*
X764764D02*
D03*
Y560079D02*
D03*
Y570079D02*
D03*
Y575079D02*
D03*
X687804Y435759D02*
D03*
Y440759D02*
D03*
Y450759D02*
D03*
Y445759D02*
D03*
X709064D02*
D03*
Y450759D02*
D03*
Y440759D02*
D03*
Y435759D02*
D03*
X601575Y582283D02*
D03*
Y577283D02*
D03*
Y587284D02*
D03*
Y592283D02*
D03*
Y602283D02*
D03*
Y597284D02*
D03*
Y612284D02*
D03*
Y607283D02*
D03*
X622835Y612284D02*
D03*
Y597284D02*
D03*
Y602283D02*
D03*
Y607283D02*
D03*
Y587284D02*
D03*
Y592283D02*
D03*
Y582283D02*
D03*
Y577283D02*
D03*
X601575Y524232D02*
D03*
Y519232D02*
D03*
Y529232D02*
D03*
Y534232D02*
D03*
Y544232D02*
D03*
Y539232D02*
D03*
Y554232D02*
D03*
Y549232D02*
D03*
X622835Y554232D02*
D03*
Y539232D02*
D03*
Y544232D02*
D03*
Y549232D02*
D03*
Y529232D02*
D03*
Y534232D02*
D03*
Y524232D02*
D03*
Y519232D02*
D03*
D12*
X791634Y482283D02*
D03*
Y468504D02*
D03*
D13*
X799800Y590158D02*
D03*
X787202D02*
D03*
X799800Y545900D02*
D03*
X787202D02*
D03*
D14*
X705200Y588100D02*
D03*
X696145D02*
D03*
Y581013D02*
D03*
X705200D02*
D03*
D15*
X549319Y441344D02*
D03*
D16*
X558375Y421659D02*
D03*
X549319D02*
D03*
X540264D02*
D03*
D17*
X408502Y747944D02*
D03*
Y765267D02*
D03*
X550902Y697344D02*
D03*
Y714667D02*
D03*
X643400Y733600D02*
D03*
Y750923D02*
D03*
X408302Y651444D02*
D03*
Y668767D02*
D03*
X553500Y733700D02*
D03*
Y751023D02*
D03*
X690700Y697800D02*
D03*
Y715123D02*
D03*
X408302Y683244D02*
D03*
Y700567D02*
D03*
X598600Y697600D02*
D03*
Y714923D02*
D03*
X690802Y733544D02*
D03*
Y750867D02*
D03*
X505315Y697341D02*
D03*
Y714664D02*
D03*
X598902Y733700D02*
D03*
Y751023D02*
D03*
X720200Y779800D02*
D03*
Y797123D02*
D03*
X408302Y714444D02*
D03*
Y731767D02*
D03*
X505302Y733753D02*
D03*
Y751076D02*
D03*
X643400Y697600D02*
D03*
Y714923D02*
D03*
X672700Y779400D02*
D03*
Y796723D02*
D03*
X788400Y559200D02*
D03*
Y576523D02*
D03*
X776200Y591043D02*
D03*
Y573721D02*
D03*
Y543405D02*
D03*
Y560728D02*
D03*
X601564Y456059D02*
D03*
Y438736D02*
D03*
D18*
X508996Y527179D02*
D03*
Y520079D02*
D03*
X508661Y540144D02*
D03*
Y547244D02*
D03*
X588996Y605594D02*
D03*
Y612695D02*
D03*
Y592594D02*
D03*
Y585495D02*
D03*
X568996Y605594D02*
D03*
Y612695D02*
D03*
Y592594D02*
D03*
Y585495D02*
D03*
X548996Y605594D02*
D03*
Y612695D02*
D03*
Y592594D02*
D03*
Y585495D02*
D03*
X528996Y605594D02*
D03*
Y612695D02*
D03*
Y592594D02*
D03*
Y585495D02*
D03*
X588996Y540144D02*
D03*
Y547244D02*
D03*
Y527496D02*
D03*
Y520396D02*
D03*
X568996Y540144D02*
D03*
Y547244D02*
D03*
Y527496D02*
D03*
Y520396D02*
D03*
X548996Y540144D02*
D03*
Y547244D02*
D03*
Y527496D02*
D03*
Y520396D02*
D03*
X528996Y540144D02*
D03*
Y547244D02*
D03*
Y527496D02*
D03*
Y520396D02*
D03*
D19*
X662297Y432959D02*
D03*
X626864D02*
D03*
D20*
X431000Y757700D02*
D03*
X435331Y747464D02*
D03*
X426669D02*
D03*
X573400Y707074D02*
D03*
X577731Y696838D02*
D03*
X569069D02*
D03*
X665900Y743300D02*
D03*
X670231Y733064D02*
D03*
X661569D02*
D03*
X430712Y661200D02*
D03*
X435042Y650964D02*
D03*
X426381D02*
D03*
X576000Y743430D02*
D03*
X580331Y733194D02*
D03*
X571669D02*
D03*
X713200Y707500D02*
D03*
X717531Y697264D02*
D03*
X708869D02*
D03*
X430731Y693036D02*
D03*
X435061Y682800D02*
D03*
X426400D02*
D03*
X621100Y707330D02*
D03*
X625431Y697094D02*
D03*
X616769D02*
D03*
X713300Y743200D02*
D03*
X717631Y732964D02*
D03*
X708969D02*
D03*
X527813Y707127D02*
D03*
X532144Y696891D02*
D03*
X523483D02*
D03*
X621400Y743430D02*
D03*
X625731Y733194D02*
D03*
X617069D02*
D03*
X742700Y789700D02*
D03*
X747031Y779464D02*
D03*
X738369D02*
D03*
X430731Y724236D02*
D03*
X435061Y714000D02*
D03*
X426400D02*
D03*
X527800Y743539D02*
D03*
X532131Y733303D02*
D03*
X523469D02*
D03*
X665831Y707336D02*
D03*
X670161Y697100D02*
D03*
X661500D02*
D03*
X695200Y789130D02*
D03*
X699531Y778894D02*
D03*
X690869D02*
D03*
D21*
X727712Y555139D02*
D03*
Y558289D02*
D03*
Y564588D02*
D03*
Y561439D02*
D03*
Y548840D02*
D03*
Y551990D02*
D03*
Y545690D02*
D03*
Y542541D02*
D03*
X694641Y551990D02*
D03*
Y548840D02*
D03*
Y542541D02*
D03*
Y545690D02*
D03*
Y558289D02*
D03*
Y555139D02*
D03*
Y561439D02*
D03*
Y564588D02*
D03*
D22*
X712751Y537029D02*
D03*
X715901D02*
D03*
X722200D02*
D03*
X719050D02*
D03*
X706452D02*
D03*
X709602D02*
D03*
X703302D02*
D03*
X700153D02*
D03*
X722200Y570100D02*
D03*
X719050D02*
D03*
X712751D02*
D03*
X715901D02*
D03*
X703302D02*
D03*
X700153D02*
D03*
X706452D02*
D03*
X709602D02*
D03*
D23*
X676837Y414994D02*
D03*
X690617D02*
D03*
D24*
X791240Y492413D02*
D03*
Y508913D02*
D03*
D25*
X548700Y784902D02*
D03*
Y797500D02*
D03*
X532087Y784902D02*
D03*
Y797500D02*
D03*
X548700Y821298D02*
D03*
Y808700D02*
D03*
X532087Y821358D02*
D03*
Y808760D02*
D03*
D26*
X732764Y437359D02*
D03*
Y426336D02*
D03*
X614564Y442859D02*
D03*
Y453883D02*
D03*
D27*
X547507Y465126D02*
D03*
X536484D02*
D03*
D28*
X578996Y612695D02*
D03*
Y607576D02*
D03*
Y585495D02*
D03*
Y590613D02*
D03*
X558996Y612695D02*
D03*
Y607576D02*
D03*
Y585495D02*
D03*
Y590613D02*
D03*
X538996Y612695D02*
D03*
Y607576D02*
D03*
Y585495D02*
D03*
Y590613D02*
D03*
X518996Y612695D02*
D03*
Y607576D02*
D03*
Y585495D02*
D03*
Y590613D02*
D03*
X578996Y546043D02*
D03*
Y540925D02*
D03*
Y520396D02*
D03*
Y525514D02*
D03*
X558996Y546043D02*
D03*
Y540925D02*
D03*
Y520396D02*
D03*
Y525514D02*
D03*
X502047Y527651D02*
D03*
Y522533D02*
D03*
Y546043D02*
D03*
Y540925D02*
D03*
X538996Y546043D02*
D03*
Y540925D02*
D03*
Y520396D02*
D03*
Y525514D02*
D03*
X518996Y546043D02*
D03*
Y540925D02*
D03*
Y520396D02*
D03*
Y525514D02*
D03*
X418600Y751600D02*
D03*
Y756718D02*
D03*
X561000Y700944D02*
D03*
Y706062D02*
D03*
X653543Y737191D02*
D03*
Y742309D02*
D03*
X418400Y655100D02*
D03*
Y660218D02*
D03*
X563598Y737356D02*
D03*
Y742474D02*
D03*
X700800Y701400D02*
D03*
Y706518D02*
D03*
X418400Y686900D02*
D03*
Y692018D02*
D03*
X608700Y701200D02*
D03*
Y706318D02*
D03*
X700900Y737100D02*
D03*
Y742218D02*
D03*
X515413Y700997D02*
D03*
Y706115D02*
D03*
X609000Y737300D02*
D03*
Y742418D02*
D03*
X730298Y783456D02*
D03*
Y788574D02*
D03*
X418400Y718100D02*
D03*
Y723218D02*
D03*
X515400Y737409D02*
D03*
Y742527D02*
D03*
X653500Y701200D02*
D03*
Y706318D02*
D03*
X682800Y783000D02*
D03*
Y788118D02*
D03*
X672464Y460059D02*
D03*
Y454941D02*
D03*
X722964Y459559D02*
D03*
Y454441D02*
D03*
X723064Y445759D02*
D03*
Y440641D02*
D03*
X743799Y549817D02*
D03*
Y544698D02*
D03*
X716864Y459559D02*
D03*
Y454441D02*
D03*
X678664Y459959D02*
D03*
Y454841D02*
D03*
X729264Y459559D02*
D03*
Y454441D02*
D03*
X689000Y587800D02*
D03*
Y582682D02*
D03*
X712600Y581200D02*
D03*
Y586318D02*
D03*
D29*
X418300Y765528D02*
D03*
X423418D02*
D03*
X560700Y714928D02*
D03*
X565818D02*
D03*
X653200Y751100D02*
D03*
X658318D02*
D03*
X418100Y669028D02*
D03*
X423218D02*
D03*
X563300Y751284D02*
D03*
X568418D02*
D03*
X700500Y715300D02*
D03*
X705618D02*
D03*
X418100Y700828D02*
D03*
X423218D02*
D03*
X608400Y715183D02*
D03*
X613518D02*
D03*
X700600Y751000D02*
D03*
X705718D02*
D03*
X515113Y714925D02*
D03*
X520231D02*
D03*
X608700Y751284D02*
D03*
X613818D02*
D03*
X730000Y797500D02*
D03*
X735118D02*
D03*
X418100Y732000D02*
D03*
X423218D02*
D03*
X515100Y751337D02*
D03*
X520218D02*
D03*
X653200Y715100D02*
D03*
X658318D02*
D03*
X682500Y796983D02*
D03*
X687618D02*
D03*
X649564Y463959D02*
D03*
X654682D02*
D03*
X656564Y457859D02*
D03*
X651446D02*
D03*
X752461Y583563D02*
D03*
X757579D02*
D03*
X439100Y765528D02*
D03*
X433982D02*
D03*
X581500Y714928D02*
D03*
X576382D02*
D03*
X674000Y751100D02*
D03*
X668882D02*
D03*
X438900Y669028D02*
D03*
X433782D02*
D03*
X584100Y751284D02*
D03*
X578982D02*
D03*
X721298Y715383D02*
D03*
X716180D02*
D03*
X438900Y700828D02*
D03*
X433782D02*
D03*
X629200Y715183D02*
D03*
X624082D02*
D03*
X721400Y751128D02*
D03*
X716282D02*
D03*
X535913Y714925D02*
D03*
X530795D02*
D03*
X629500Y751284D02*
D03*
X624382D02*
D03*
X750798Y797482D02*
D03*
X745680D02*
D03*
X438900Y732028D02*
D03*
X433782D02*
D03*
X535900Y751337D02*
D03*
X530782D02*
D03*
X674000Y715100D02*
D03*
X668882D02*
D03*
X543801Y457032D02*
D03*
X538683D02*
D03*
X679364Y465759D02*
D03*
X674246D02*
D03*
X686364Y426359D02*
D03*
X681246D02*
D03*
X703300Y796983D02*
D03*
X698182D02*
D03*
X757775Y549817D02*
D03*
X752657D02*
D03*
X757500Y590500D02*
D03*
X752382D02*
D03*
D30*
X730510Y779320D02*
X743493D01*
X720298Y779308D02*
X730298D01*
X703298Y785976D02*
Y796983D01*
X683010Y778920D02*
X696243D01*
X682798Y778908D02*
Y783056D01*
X672798Y778908D02*
X682798D01*
X701112Y733064D02*
X714363D01*
X701010Y697320D02*
X714249D01*
X690900Y733052D02*
X700900D01*
X700798Y697308D02*
Y701456D01*
X690798Y697308D02*
X700798D01*
X673998Y740239D02*
Y751184D01*
X653498Y733108D02*
Y737200D01*
X609212Y733220D02*
X622393D01*
X599000Y733208D02*
X609000D01*
X653710Y733120D02*
X666880D01*
X673998Y704313D02*
Y715183D01*
X643498Y733108D02*
X653498D01*
X653710Y697120D02*
X666805D01*
X653498Y697108D02*
Y701256D01*
X629198Y704198D02*
Y715183D01*
X608910Y697120D02*
X622120D01*
X643498Y697108D02*
X653498D01*
X608698D02*
Y701256D01*
X598698Y697108D02*
X608698D01*
X687604Y440959D02*
X697864D01*
X584098Y740299D02*
Y751284D01*
X563810Y733220D02*
X577019D01*
X553598Y733208D02*
X563598D01*
X515612Y733273D02*
X528706D01*
X505400Y733261D02*
X515400D01*
X561212Y696864D02*
X574423D01*
X551000Y696852D02*
X561000D01*
X515625Y696861D02*
X528766D01*
X505413Y696849D02*
X515413D01*
X418600Y747452D02*
Y751600D01*
Y747252D02*
Y747452D01*
X418400Y713952D02*
Y718100D01*
X418612Y713964D02*
X431680D01*
X418612Y682764D02*
X431681D01*
X408400Y682752D02*
X418400D01*
X408400Y650952D02*
X418400D01*
X508996Y520396D02*
X516435Y512957D01*
X678164Y449691D02*
Y454941D01*
X708864Y450959D02*
X715364D01*
X723064Y445759D02*
Y454441D01*
X772736Y570079D02*
X776378Y573721D01*
X786188Y574311D02*
X788400Y576523D01*
X776968Y574311D02*
X786188D01*
X776378Y573721D02*
X776968Y574311D01*
X786161Y561439D02*
X788400Y559200D01*
X776910Y561439D02*
X786161D01*
X776200Y560728D02*
X776910Y561439D01*
X785433Y588389D02*
X787202Y590158D01*
X785433Y579490D02*
Y588389D01*
Y579490D02*
X788400Y576523D01*
X785598Y556398D02*
X788400Y559200D01*
X785598Y547504D02*
Y556398D01*
Y547504D02*
X787202Y545900D01*
X776200Y573721D02*
X776378D01*
X764764Y570079D02*
X772736D01*
X773038Y565079D02*
X776100Y562016D01*
X764764Y565079D02*
X773038D01*
X408400Y666700D02*
Y672800D01*
X509700Y769300D02*
X512250Y771850D01*
X678164Y449691D02*
X682096Y445759D01*
X687804D01*
X579098Y590613D02*
Y596236D01*
X560549Y547596D02*
X568996D01*
X551000Y712600D02*
Y719700D01*
X408600Y763200D02*
Y770200D01*
Y763200D02*
X410928Y765528D01*
X599000Y748956D02*
Y758300D01*
X643498Y712856D02*
Y718956D01*
X515059Y591043D02*
X518996D01*
X598698Y712856D02*
Y718956D01*
X580549Y547596D02*
X588996D01*
X507227Y542478D02*
X508996D01*
X690798Y713056D02*
Y719156D01*
X643498Y748856D02*
Y757202D01*
X430712Y693000D02*
X431800Y694088D01*
X693228Y751128D02*
X700600D01*
X690900Y748800D02*
Y754900D01*
X520549Y547596D02*
X528996D01*
X507010Y525514D02*
X508996D01*
X505400Y749009D02*
Y755695D01*
Y712597D02*
Y719745D01*
X408400Y698500D02*
Y704600D01*
X540549Y547596D02*
X548996D01*
X408400Y729700D02*
Y735900D01*
X553598Y748956D02*
Y757798D01*
X588996Y540144D02*
Y542126D01*
Y534331D02*
Y540144D01*
X568996D02*
Y542126D01*
Y534331D02*
Y540144D01*
X588996Y527496D02*
Y534331D01*
Y525514D02*
Y527496D01*
X548996D02*
Y534331D01*
Y525514D02*
Y527496D01*
X568996D02*
Y534331D01*
Y525514D02*
Y527496D01*
X548996Y534331D02*
Y540144D01*
X528996D02*
Y542126D01*
Y534331D02*
Y540144D01*
Y527496D02*
Y534331D01*
Y525514D02*
Y527496D01*
X632900Y774100D02*
X653000D01*
X628595Y778405D02*
X632900Y774100D01*
X653000D02*
X659900Y767200D01*
X568595Y781595D02*
Y784947D01*
X628595Y778405D02*
Y784947D01*
X583595Y764505D02*
Y784947D01*
X598595Y766405D02*
Y784947D01*
X613595Y768805D02*
Y784947D01*
X543600Y756600D02*
X568595Y781595D01*
X577625Y528867D02*
Y532605D01*
Y528867D02*
X578996Y527496D01*
X558996Y546043D02*
X560549Y547596D01*
X538996Y546043D02*
X540549Y547596D01*
X518996Y546043D02*
X520549Y547596D01*
X548996Y540144D02*
Y542478D01*
X578996Y546043D02*
X580549Y547596D01*
X575807Y540925D02*
X578996D01*
X574213Y542520D02*
X575807Y540925D01*
X574213Y542520D02*
Y561102D01*
X518996Y536854D02*
Y540925D01*
X558996Y536854D02*
Y540925D01*
X538996Y536854D02*
Y540925D01*
X504029Y522533D02*
X507010Y525514D01*
X503661Y546043D02*
X507227Y542478D01*
X518996Y525514D02*
X520978Y527496D01*
X502047Y522533D02*
X504029D01*
X502047Y546043D02*
X503661D01*
X578996Y525514D02*
Y527496D01*
X619525Y607283D02*
X622835D01*
X616929Y609879D02*
X619525Y607283D01*
X616929Y609879D02*
Y610038D01*
X608483Y618484D02*
X616929Y610038D01*
X576280Y618484D02*
X608483D01*
X577014Y607576D02*
X578996D01*
X576227Y608364D02*
X577014Y607576D01*
X576198Y608364D02*
X576227D01*
X574469Y610093D02*
X576198Y608364D01*
X574469Y610093D02*
Y610122D01*
X574213Y610378D02*
X574469Y610122D01*
X574213Y610378D02*
Y616417D01*
X513287Y589272D02*
X515059Y591043D01*
X513287Y582953D02*
Y589272D01*
X508563Y598228D02*
X518110Y607775D01*
X508563Y579803D02*
Y598228D01*
X721400Y740101D02*
Y751128D01*
X743799Y544698D02*
X745781Y542717D01*
X716864Y452459D02*
Y454441D01*
X715364Y450959D02*
X716864Y452459D01*
X672464Y463977D02*
X674246Y465759D01*
X672464Y460059D02*
Y463977D01*
X745781Y542717D02*
X749311D01*
X520978Y527496D02*
X522638D01*
X629500Y740327D02*
Y751284D01*
X549319Y421659D02*
Y441344D01*
X588996Y592594D02*
Y599193D01*
Y605594D01*
X608760Y574980D02*
Y585906D01*
X606496Y572717D02*
X608760Y574980D01*
X554028Y572717D02*
X606496D01*
X554036Y512965D02*
Y563366D01*
X554028Y512957D02*
X554036Y512965D01*
X520079Y568287D02*
X609843D01*
X607382Y587284D02*
X608760Y585906D01*
X601575Y587284D02*
X607382D01*
X618839Y577283D02*
X622835D01*
X609843Y568287D02*
X618839Y577283D01*
X508563Y579803D02*
X520079Y568287D01*
X576870Y563760D02*
X607972D01*
X616043Y555689D01*
Y551161D02*
Y555689D01*
X574213Y561102D02*
X576870Y563760D01*
X622835Y554232D02*
Y557874D01*
Y612284D02*
Y615925D01*
X611614Y533150D02*
Y553358D01*
X516831Y579410D02*
X590354D01*
X617402Y582283D02*
X622835D01*
X513287Y582953D02*
X516831Y579410D01*
X590354D02*
X593150Y582205D01*
X596063D01*
X574213Y616417D02*
X576280Y618484D01*
X579429Y559331D02*
X605641D01*
X611614Y553358D01*
Y533150D02*
X615531Y529232D01*
X622835D01*
X601575Y534232D02*
X607008D01*
X558996Y525514D02*
Y531138D01*
X538996Y525886D02*
Y531138D01*
X616043Y551161D02*
X617972Y549232D01*
X622835D01*
X617402Y544232D02*
X622835D01*
X617402Y539232D02*
X622835D01*
X617402Y534232D02*
X622835D01*
X617402Y524232D02*
X622835D01*
X617402Y519232D02*
X622835D01*
X596142Y544232D02*
X601575D01*
X596142Y539232D02*
X601575D01*
X596142Y524232D02*
X601575D01*
X596142Y602283D02*
X601575D01*
X596142Y597284D02*
X601575D01*
X596142Y582283D02*
X601575D01*
X617402Y602283D02*
X622835D01*
X617402Y597284D02*
X622835D01*
X617402Y592283D02*
X622835D01*
X617402Y587284D02*
X622835D01*
X596142Y592283D02*
X601575D01*
X601575Y513799D02*
Y519232D01*
X596142Y607283D02*
X601575D01*
X596142Y577283D02*
X601575D01*
X596142Y549232D02*
X601575D01*
X578996Y520396D02*
X588996D01*
X558996D02*
X568996D01*
X538996D02*
X548996D01*
X518996D02*
X528996D01*
X579047Y612695D02*
X588945D01*
X579047Y585495D02*
X588945D01*
X516435Y512957D02*
X524028D01*
X502047Y527651D02*
Y534331D01*
Y540925D01*
X497315Y517402D02*
Y552441D01*
Y517402D02*
X507847Y506870D01*
X557941D01*
X497315Y552441D02*
X499579Y554705D01*
X557941Y506870D02*
X564028Y512957D01*
X499579Y554705D02*
X504992D01*
X508996Y550701D01*
Y548025D02*
Y550701D01*
X666805Y697120D02*
X673998Y704313D01*
X438900Y721183D02*
Y732028D01*
X431680Y713964D02*
X438900Y721183D01*
Y658191D02*
Y669028D01*
X431672Y650964D02*
X438900Y658191D01*
X426381Y650964D02*
X431672D01*
X418612D02*
X426381D01*
X438900Y689983D02*
Y700828D01*
X431681Y682764D02*
X438900Y689983D01*
X439100Y754651D02*
Y765528D01*
X431913Y747464D02*
X439100Y754651D01*
X426669Y747464D02*
X431913D01*
X721298Y704369D02*
Y715383D01*
X714249Y697320D02*
X721298Y704369D01*
X622120Y697120D02*
X629198Y704198D01*
X581500Y703941D02*
Y714928D01*
X574423Y696864D02*
X581500Y703941D01*
X535913Y704008D02*
Y714925D01*
X528766Y696861D02*
X535913Y704008D01*
X535900Y740467D02*
Y751337D01*
X577019Y733220D02*
X584098Y740299D01*
X622393Y733220D02*
X629500Y740327D01*
X666880Y733120D02*
X673998Y740239D01*
X714363Y733064D02*
X721400Y740101D01*
X750798Y786625D02*
Y797383D01*
X743493Y779320D02*
X750798Y786625D01*
X696243Y778920D02*
X703298Y785976D01*
X505181Y803900D02*
X513091Y811810D01*
X460900Y803900D02*
X505181D01*
X640945Y679163D02*
X646161D01*
X635945D02*
Y684675D01*
X640945Y679163D02*
Y686811D01*
X638779Y688976D02*
X640945Y686811D01*
X531496Y688976D02*
X638779D01*
X743799Y549817D02*
X752657D01*
X762900Y554941D02*
Y555000D01*
X757775Y549817D02*
X762900Y554941D01*
X605945Y657903D02*
Y662953D01*
X600984Y667913D02*
X605945Y662953D01*
X473721Y667913D02*
X600984D01*
X470787Y664980D02*
X473721Y667913D01*
X470787Y657903D02*
Y664980D01*
X640945Y652391D02*
Y657903D01*
X500787Y652391D02*
Y657903D01*
X635945Y672342D02*
Y679163D01*
X495787Y674291D02*
Y679163D01*
X521683D02*
X531496Y688976D01*
X500787Y679163D02*
X521683D01*
X630945Y652391D02*
Y657903D01*
X625945Y652391D02*
Y657903D01*
X620945Y652391D02*
Y657903D01*
X615945Y652391D02*
Y657903D01*
X630945Y679163D02*
Y684675D01*
X625945Y679163D02*
Y684675D01*
X620945Y679163D02*
Y684675D01*
X615945Y679163D02*
Y684675D01*
X645826Y751184D02*
X653198D01*
X660698Y743356D02*
X665810D01*
X490787Y679163D02*
Y707539D01*
X490748Y707579D02*
X490787Y707539D01*
X485787Y679163D02*
Y694882D01*
X480787Y679163D02*
Y723917D01*
X475787Y679163D02*
Y716535D01*
X522600Y743509D02*
X527712D01*
X490787Y657903D02*
Y663415D01*
X485787Y657903D02*
Y663415D01*
X480787Y657903D02*
Y663415D01*
X475787Y657903D02*
Y663415D01*
X465787Y679163D02*
Y684675D01*
X605945Y679163D02*
Y684675D01*
X635945Y652391D02*
Y657903D01*
X495787Y652391D02*
Y657903D01*
X650590Y795700D02*
X671754D01*
X730298Y779308D02*
Y783456D01*
X722626Y797383D02*
X729998D01*
X689998Y789156D02*
X695110D01*
X675126Y796983D02*
X682498D01*
X726800Y727700D02*
Y754300D01*
X722800Y758300D02*
X726800Y754300D01*
X696300Y758300D02*
X722800D01*
X722100Y723000D02*
X726800Y727700D01*
X694642Y723000D02*
X722100D01*
X680200Y727100D02*
Y755600D01*
X675800Y722700D02*
X680200Y727100D01*
X647242Y722700D02*
X675800D01*
X643498Y718956D02*
X647242Y722700D01*
X690798Y719156D02*
X694642Y723000D01*
X687400Y767200D02*
X696300Y758300D01*
X659900Y767200D02*
X687400D01*
X707998Y707556D02*
X713110D01*
X693126Y715383D02*
X700498D01*
X649100Y769600D02*
X655800Y762900D01*
X623800Y769600D02*
X649100D01*
X621600Y771800D02*
X623800Y769600D01*
X655800Y762900D02*
X682900D01*
X690900Y754900D01*
X700900Y737100D02*
Y737200D01*
Y733052D02*
Y737100D01*
X708100Y743300D02*
X713212D01*
X616900Y765500D02*
X644900D01*
X613595Y768805D02*
X616900Y765500D01*
X644900D02*
X651600Y758800D01*
X610300Y761300D02*
X639400D01*
X606600Y765000D02*
X610300Y761300D01*
X606600Y765000D02*
Y795700D01*
X639400Y761300D02*
X643498Y757202D01*
X634500Y728700D02*
Y754500D01*
X631700Y757300D02*
X634500Y754500D01*
X607700Y757300D02*
X631700D01*
X598595Y766405D02*
X607700Y757300D01*
X677000Y758800D02*
X680200Y755600D01*
X651600Y758800D02*
X677000D01*
X660698Y707356D02*
X665810D01*
X645826Y715183D02*
X653198D01*
X621600Y771800D02*
Y795700D01*
X629400Y723600D02*
X634500Y728700D01*
X603342Y723600D02*
X629400D01*
X598698Y718956D02*
X603342Y723600D01*
X615898Y707356D02*
X621010D01*
X601026Y715183D02*
X608398D01*
X591600Y765700D02*
X599000Y758300D01*
X591600Y765700D02*
Y795700D01*
X609000Y737300D02*
Y737356D01*
Y733208D02*
Y737300D01*
X616200Y743456D02*
X621312D01*
X601328Y751284D02*
X608700D01*
X554700Y723400D02*
X584600D01*
X551000Y719700D02*
X554700Y723400D01*
X584600D02*
X589400Y728200D01*
Y758700D01*
X583595Y764505D02*
X589400Y758700D01*
X561000Y700944D02*
Y701000D01*
Y696852D02*
Y700944D01*
X568200Y707100D02*
X573312D01*
X553328Y714928D02*
X560700D01*
X553598Y757798D02*
X576600Y780800D01*
Y795700D01*
Y795900D01*
X563598Y733208D02*
Y737356D01*
X570798Y743456D02*
X575910D01*
X555926Y751284D02*
X563298D01*
X515413Y696849D02*
Y700997D01*
X522613Y707097D02*
X527725D01*
X507741Y714925D02*
X515113D01*
X543300Y764800D02*
X559800Y781300D01*
Y795700D01*
X507728Y751337D02*
X515100D01*
X515400Y733261D02*
Y737409D01*
X468800Y769300D02*
X509700D01*
X457900Y758400D02*
X468800Y769300D01*
X457900Y690200D02*
Y758400D01*
X442200Y674500D02*
X457900Y690200D01*
X451500Y761200D02*
X460900Y770600D01*
X451500Y715600D02*
Y761200D01*
X442200Y706300D02*
X451500Y715600D01*
X410928Y765528D02*
X418300D01*
X418400Y650952D02*
Y655100D01*
X425600Y661200D02*
X430712D01*
X410728Y669028D02*
X418100D01*
X408400Y672800D02*
X410100Y674500D01*
X442200D01*
X410100Y706300D02*
X442200D01*
X408400Y704600D02*
X410100Y706300D01*
X410728Y700828D02*
X418100D01*
X425600Y693000D02*
X430712D01*
X418400Y682752D02*
Y686900D01*
X498091Y811700D02*
X498200D01*
X451800D02*
X498091D01*
X445900Y805800D02*
X451800Y811700D01*
X466900Y797800D02*
X498091D01*
X460600Y791500D02*
X466900Y797800D01*
X460600Y780200D02*
Y791500D01*
X445900Y765500D02*
X460600Y780200D01*
X445900Y748100D02*
Y765500D01*
X437100Y739300D02*
X445900Y748100D01*
X418812Y747464D02*
X426669D01*
X411800Y739300D02*
X437100D01*
X408400Y735900D02*
X411800Y739300D01*
X445900Y780700D02*
Y805800D01*
X440000Y774800D02*
X445900Y780700D01*
X413200Y774800D02*
X440000D01*
X408600Y770200D02*
X413200Y774800D01*
X425619Y724236D02*
X430731D01*
X410700Y732000D02*
X418100D01*
X408400Y713952D02*
X418400D01*
X425888Y757700D02*
X431000D01*
X418600Y747452D02*
X418800D01*
X408600D02*
X418600D01*
X418800D02*
X418812Y747464D01*
X804273Y545900D02*
X813477Y555104D01*
X799800Y545900D02*
X804273D01*
X799800Y588300D02*
X812996Y575104D01*
X762900Y555000D02*
Y559955D01*
X678664Y465759D02*
X690064D01*
X709064Y445759D02*
X723064D01*
X690064Y465759D02*
X690164Y465859D01*
X709941Y823327D02*
X743161D01*
X755169Y835335D01*
X705807Y828051D02*
X737886D01*
X745169Y835335D01*
X495787Y674291D02*
X497736Y672342D01*
X635945D01*
X528706Y733273D02*
X535900Y740467D01*
X505400Y755695D02*
X514505Y764800D01*
X543300D01*
X505400Y719745D02*
X508883Y723228D01*
X538976D01*
X543600Y727852D01*
Y756600D01*
X518996Y612695D02*
X528996D01*
X529606D01*
X518996Y585495D02*
X528996D01*
X529606D01*
X548996Y592594D02*
Y599429D01*
Y605594D01*
X538996Y590613D02*
Y596236D01*
Y601953D02*
Y607576D01*
X539250Y585495D02*
X548742D01*
X548996D02*
X549403D01*
X568996Y592594D02*
Y599429D01*
Y605594D01*
X539250Y612695D02*
X548742D01*
X548996D02*
X549403D01*
X559149Y585495D02*
X568844D01*
X568996D02*
X569200D01*
X559149Y612695D02*
X568844D01*
X568996D02*
X569200D01*
X528996Y592594D02*
Y599429D01*
Y605594D01*
X558996Y601953D02*
Y607576D01*
Y590613D02*
Y596236D01*
X678664Y459959D02*
Y465759D01*
D31*
X776000Y590506D02*
Y597500D01*
X776400Y538100D02*
Y543794D01*
X776200Y543994D02*
X776400Y543794D01*
D32*
X757400Y583204D02*
Y590500D01*
X695110Y789156D02*
X698182Y792228D01*
X601564Y439445D02*
X611150D01*
X747382Y583504D02*
X752461D01*
X713461Y795056D02*
X720298D01*
X704429Y551968D02*
X707491Y555030D01*
X601564Y438736D02*
Y439445D01*
Y426532D02*
Y438736D01*
X643595Y784947D02*
X650979D01*
X418600Y756718D02*
X424906D01*
X425888Y757700D01*
X423418Y765528D02*
X433982D01*
X423418D02*
X425888Y763058D01*
X423218Y669028D02*
X433782D01*
X423218D02*
X425600Y666646D01*
Y661200D02*
Y666646D01*
X419382Y661200D02*
X425600D01*
X418400Y660218D02*
X419382Y661200D01*
X423218Y700828D02*
X425600Y698446D01*
Y693000D02*
Y698446D01*
X423218Y700828D02*
X433782D01*
X419382Y693000D02*
X425600D01*
X418400Y692018D02*
X419382Y693000D01*
X419418Y724236D02*
X425619D01*
X418400Y723218D02*
X419418Y724236D01*
X423218Y732000D02*
X425619Y729599D01*
Y724236D02*
Y729599D01*
X433754Y732000D02*
X433782Y732028D01*
X423218Y732000D02*
X433754D01*
X425888Y757700D02*
Y763058D01*
X687618Y796983D02*
X689998Y794603D01*
Y789156D02*
Y794603D01*
X737498Y789556D02*
X737642Y789700D01*
X736517Y788574D02*
X737498Y789556D01*
Y795120D01*
X730298Y788574D02*
X736517D01*
X735118Y797500D02*
X737498Y795120D01*
X742700Y794502D02*
X745680Y797482D01*
X613518Y715183D02*
X624082D01*
X615898Y707356D02*
Y712803D01*
X613518Y715183D02*
X615898Y712803D01*
X609738Y707356D02*
X615898D01*
X608700Y706318D02*
X609738Y707356D01*
X565818Y714928D02*
X576382D01*
X568200Y707100D02*
Y712546D01*
X565818Y714928D02*
X568200Y712546D01*
X562038Y707100D02*
X568200D01*
X561000Y706062D02*
X562038Y707100D01*
X520231Y714925D02*
X530795D01*
X522613Y707097D02*
Y712543D01*
X520231Y714925D02*
X522613Y712543D01*
X515413Y706115D02*
X516395Y707097D01*
X522613D01*
X522600Y743509D02*
Y748955D01*
X520218Y751337D02*
X522600Y748955D01*
X520218Y751337D02*
X530782D01*
X515400Y742527D02*
X516382Y743509D01*
X522600D01*
X568418Y751284D02*
X578982D01*
X570798Y743456D02*
Y748903D01*
X568418Y751284D02*
X570798Y748903D01*
X569816Y742474D02*
X570798Y743456D01*
X563598Y742474D02*
X569816D01*
X613818Y751284D02*
X616200Y748902D01*
Y743456D02*
Y748902D01*
X610038Y743456D02*
X616200D01*
X609000Y742418D02*
X610038Y743456D01*
X613818Y751284D02*
X624382D01*
X660698Y707356D02*
Y712720D01*
X658318Y715100D02*
X660698Y712720D01*
X658318Y715100D02*
X668882D01*
X659661Y706318D02*
X660698Y707356D01*
X653500Y706318D02*
X659661D01*
X658318Y751100D02*
X660698Y748720D01*
Y743356D02*
Y748720D01*
X658318Y751100D02*
X668882D01*
X653543Y742309D02*
X654590Y743356D01*
X660698D01*
X716097Y715300D02*
X716180Y715383D01*
X705618Y715300D02*
X716097D01*
X705618D02*
X707998Y712920D01*
Y707556D02*
Y712920D01*
X700800Y706518D02*
X701838Y707556D01*
X707998D01*
X705718Y751000D02*
X708100Y748618D01*
Y743300D02*
Y748618D01*
X707018Y742218D02*
X708100Y743300D01*
X700900Y742218D02*
X707018D01*
X716154Y751000D02*
X716282Y751128D01*
X705718Y751000D02*
X716154D01*
X698182Y792228D02*
Y796983D01*
X688961Y788118D02*
X689998Y789156D01*
X682800Y788118D02*
X688961D01*
X742700Y789700D02*
Y794502D01*
X737642Y789700D02*
X742700D01*
X752382Y592482D02*
X757400Y597500D01*
X752382Y590500D02*
Y592482D01*
X710818Y588100D02*
X712600Y586318D01*
X705200Y588100D02*
X710818D01*
X690668Y581013D02*
X695079D01*
X689000Y582682D02*
X690668Y581013D01*
X675998Y426359D02*
X681246D01*
X672464Y454941D02*
X678164D01*
X656564Y457859D02*
X657664Y456759D01*
X663764D01*
X649564Y463959D02*
Y465959D01*
X654682Y463959D02*
X656564Y462077D01*
Y457859D02*
Y462077D01*
X601575Y529232D02*
X607087D01*
X601575Y612284D02*
X607087D01*
X730145Y574436D02*
Y618379D01*
X669361Y679163D02*
X730145Y618379D01*
X646457Y679163D02*
X669361D01*
X725809Y570100D02*
X730145Y574436D01*
X726870Y582283D02*
Y615945D01*
X670472Y672342D02*
X726870Y615945D01*
X635945Y672342D02*
X670472D01*
X655315Y648425D02*
X672300Y631440D01*
Y581440D02*
Y631440D01*
Y581440D02*
X689152Y564588D01*
X470079Y648425D02*
X655315D01*
X719050Y574464D02*
X726870Y582283D01*
X719050Y570100D02*
Y574464D01*
X722200Y570100D02*
X725809D01*
X689152Y564588D02*
X694641D01*
X611150Y439445D02*
X614564Y442859D01*
X626864Y432959D02*
Y445059D01*
X465787Y652716D02*
X470079Y648425D01*
X465787Y652716D02*
Y657903D01*
X691655Y545690D02*
X694641D01*
X715901Y570100D02*
Y576137D01*
X689300Y588100D02*
Y593612D01*
Y588100D02*
X696145D01*
X706452Y570100D02*
Y575612D01*
X712751Y570100D02*
Y575612D01*
X722200Y542541D02*
X727712D01*
X722200Y548840D02*
X727712D01*
X736048Y554700D02*
X750800D01*
X732459Y558289D02*
X736048Y554700D01*
X727712Y558289D02*
X732459D01*
X744151Y580273D02*
X747382Y583504D01*
X744151Y575104D02*
Y580273D01*
X757400Y597500D02*
X776000D01*
X687795Y536024D02*
Y541831D01*
X691655Y545690D01*
X722200Y537029D02*
X726235D01*
X694662Y551968D02*
X704429D01*
X694641Y551990D02*
X694662Y551968D01*
X694641Y555139D02*
X700153D01*
X718112Y578348D02*
Y581200D01*
X712600D02*
X718112D01*
X727712Y545690D02*
X733224D01*
X719050Y531517D02*
Y537029D01*
X712751Y531517D02*
Y537029D01*
X703302Y531517D02*
Y537029D01*
X715901Y576137D02*
X718112Y578348D01*
X757400Y583204D02*
X763049Y577555D01*
X757600Y590500D02*
X763400D01*
X763049Y575104D02*
Y577555D01*
X689000Y587800D02*
X689300Y588100D01*
X705200Y581013D02*
X705387Y581200D01*
X712600D01*
X708864Y445959D02*
X709064Y445759D01*
X686864Y451699D02*
X687604Y450959D01*
X686864Y451699D02*
Y456159D01*
X715164Y435859D02*
X716064Y434959D01*
X708964Y435859D02*
X715164D01*
X709602Y570100D02*
Y578202D01*
X712600Y581200D01*
X750896Y575104D02*
X753000Y573000D01*
Y556900D02*
Y573000D01*
X750800Y554700D02*
X753000Y556900D01*
X649564Y465959D02*
X655164Y471559D01*
X639664Y457859D02*
X651446D01*
X626864Y445059D02*
X639664Y457859D01*
X655164Y471559D02*
X675364D01*
X678664Y468259D01*
X744151Y575104D02*
X750896D01*
X711024Y776772D02*
Y792618D01*
X713461Y795056D01*
X650979Y784947D02*
X664567Y771358D01*
X705610D01*
X711024Y776772D01*
X558375Y421659D02*
X596692D01*
X601564Y426532D01*
X614564Y437995D02*
Y442859D01*
Y437995D02*
X619600Y432959D01*
X626864D01*
X678664Y465759D02*
Y468259D01*
D33*
X708864Y440959D02*
X720764D01*
X723064Y438659D01*
D34*
X744151Y565104D02*
Y570104D01*
X743635Y564588D02*
X744151Y565104D01*
X727712Y564588D02*
X743635D01*
X735368Y560104D02*
X744151D01*
X695079Y581013D02*
X696145D01*
X686464Y426259D02*
X692464D01*
X686364Y426359D02*
X686464Y426259D01*
X686351Y426364D02*
X686364Y426359D01*
X727712Y561439D02*
X734034D01*
X735368Y560104D01*
X700800Y577300D02*
Y585000D01*
X703900Y588100D01*
X705200D01*
X697700Y575900D02*
X700153Y573447D01*
X697700Y575900D02*
Y579458D01*
X696145Y581013D02*
X697700Y579458D01*
X703302Y570100D02*
Y574798D01*
X700800Y577300D02*
X703302Y574798D01*
X700153Y570100D02*
Y573447D01*
X708864Y435959D02*
X708964Y435859D01*
D35*
X791240Y482677D02*
X791634Y482283D01*
X791240Y482677D02*
Y492413D01*
X534200Y797700D02*
X548700D01*
X534200D02*
Y808700D01*
X548700Y797700D02*
Y808700D01*
X534200D02*
X548700D01*
X732764Y419478D02*
Y425155D01*
D36*
X483090Y785039D02*
X490768Y777362D01*
X541161D01*
X548700Y784902D01*
X468090Y785039D02*
X476063Y793012D01*
X518831D01*
X526941Y784902D01*
X532087D01*
X445553Y821179D02*
X532498D01*
X438091Y834939D02*
X438191Y835039D01*
X438091Y785039D02*
Y834939D01*
X453090Y835039D02*
X462047Y826083D01*
X518209D01*
X521654Y829528D01*
X544685D01*
X548700Y825513D01*
Y821298D02*
Y825513D01*
X438191Y828542D02*
Y835039D01*
Y828542D02*
X445553Y821179D01*
X532498D02*
X532677Y821358D01*
D37*
X727378Y555139D02*
X727545Y555306D01*
X706046Y527854D02*
X722000Y511900D01*
X701476Y527854D02*
X706046D01*
X700153Y529178D02*
X701476Y527854D01*
X737697Y544685D02*
Y548130D01*
X732000Y538988D02*
X737697Y544685D01*
X732000Y511900D02*
Y538988D01*
X737697Y548130D02*
X739383Y549817D01*
X743799D01*
X730687Y555139D02*
X737697Y548130D01*
X694641Y529259D02*
X712000Y511900D01*
X694641Y529259D02*
Y542541D01*
X700153Y529178D02*
Y537029D01*
X727712Y555139D02*
X730687D01*
X727545Y555306D02*
X727712Y555139D01*
X727378D02*
X727712D01*
D38*
X796704Y515104D02*
X813477D01*
X820104D01*
X827400Y522400D01*
X792750Y511150D02*
X796704Y515104D01*
X827400Y522400D02*
Y757800D01*
X551000Y808900D02*
X776300D01*
X827400Y757800D01*
D39*
X725964Y438659D02*
X729264Y441959D01*
Y454441D01*
D40*
X574028Y512957D02*
D03*
X564028D02*
D03*
X554028D02*
D03*
X544028D02*
D03*
X534028D02*
D03*
X715169Y835335D02*
D03*
X725169D02*
D03*
X735169D02*
D03*
X745169D02*
D03*
X755169D02*
D03*
X400000Y598500D02*
D03*
Y588500D02*
D03*
Y578500D02*
D03*
Y568500D02*
D03*
X430000D02*
D03*
Y578500D02*
D03*
Y588500D02*
D03*
Y598500D02*
D03*
Y608500D02*
D03*
D41*
X524028Y512957D02*
D03*
X765169Y835335D02*
D03*
X400000Y608500D02*
D03*
D42*
X752000Y511900D02*
D03*
D43*
Y501900D02*
D03*
X742000Y511900D02*
D03*
Y501900D02*
D03*
X732000Y511900D02*
D03*
X722000D02*
D03*
Y501900D02*
D03*
X732000D02*
D03*
X712000Y511900D02*
D03*
Y501900D02*
D03*
D44*
X438191Y835039D02*
D03*
X438091Y785039D02*
D03*
X453090Y835039D02*
D03*
Y785039D02*
D03*
X468090Y835039D02*
D03*
Y785039D02*
D03*
X483090Y835039D02*
D03*
Y785039D02*
D03*
X498091Y835039D02*
D03*
Y785039D02*
D03*
X513091Y835039D02*
D03*
Y785039D02*
D03*
X568695Y834947D02*
D03*
X568595Y784947D02*
D03*
X583595Y834947D02*
D03*
Y784947D02*
D03*
X598595Y834947D02*
D03*
Y784947D02*
D03*
X613595Y834947D02*
D03*
Y784947D02*
D03*
X628595Y834947D02*
D03*
Y784947D02*
D03*
X643595Y834947D02*
D03*
Y784947D02*
D03*
D45*
X813477Y555104D02*
D03*
Y535104D02*
D03*
Y575104D02*
D03*
Y495104D02*
D03*
Y515104D02*
D03*
D46*
X754606Y747736D02*
D03*
X479016D02*
D03*
D47*
X517815Y437205D02*
D03*
X527868D02*
D03*
X512250Y771850D02*
D03*
X607087Y529232D02*
D03*
X607087Y612284D02*
D03*
X588996Y599193D02*
D03*
X596063Y597205D02*
D03*
X554036Y563366D02*
D03*
X554028Y572717D02*
D03*
X622835Y557874D02*
D03*
Y615925D02*
D03*
X617323Y582205D02*
D03*
X538996Y601953D02*
D03*
Y596236D02*
D03*
X558996Y601953D02*
D03*
X568996Y599429D02*
D03*
X558996Y596236D02*
D03*
X579098D02*
D03*
X596063Y544153D02*
D03*
X579429Y559331D02*
D03*
X596063Y549154D02*
D03*
X617323Y534154D02*
D03*
X607087Y534311D02*
D03*
X558996Y536854D02*
D03*
X538996D02*
D03*
X577625Y532605D02*
D03*
X518996Y536854D02*
D03*
X558996Y531138D02*
D03*
X538996D02*
D03*
X528996Y534331D02*
D03*
X522638Y527496D02*
D03*
X617323Y544153D02*
D03*
Y539153D02*
D03*
Y524154D02*
D03*
X617323Y519153D02*
D03*
X596063Y539153D02*
D03*
X596063Y524154D02*
D03*
X596063Y602205D02*
D03*
Y582205D02*
D03*
X617323Y602205D02*
D03*
X617323Y597205D02*
D03*
X617323Y592205D02*
D03*
Y587205D02*
D03*
X596063Y592205D02*
D03*
X601653Y513721D02*
D03*
X596063Y607205D02*
D03*
X596063Y577205D02*
D03*
X548996Y599429D02*
D03*
X528996D02*
D03*
X588996Y534331D02*
D03*
X568996D02*
D03*
X548996D02*
D03*
X502047D02*
D03*
X460900Y803900D02*
D03*
X687795Y536024D02*
D03*
X726235Y537029D02*
D03*
X722200Y542541D02*
D03*
X707382Y555139D02*
D03*
X700153D02*
D03*
X646457Y679163D02*
D03*
X635945Y684675D02*
D03*
X689300Y593612D02*
D03*
X718112Y581200D02*
D03*
X722200Y548840D02*
D03*
X733224Y545690D02*
D03*
X719050Y531517D02*
D03*
X712751D02*
D03*
X703302D02*
D03*
X712751Y575612D02*
D03*
X706452D02*
D03*
X749311Y542717D02*
D03*
X640945Y652391D02*
D03*
X500787D02*
D03*
X630945D02*
D03*
X625945D02*
D03*
X620945D02*
D03*
X615945D02*
D03*
X630945Y684675D02*
D03*
X625945D02*
D03*
X620945D02*
D03*
X615945D02*
D03*
X660698Y743356D02*
D03*
X653498Y733056D02*
D03*
X515413Y696797D02*
D03*
X490787Y663415D02*
D03*
X485787D02*
D03*
X480787D02*
D03*
X475787D02*
D03*
X485787Y694882D02*
D03*
X475787Y716535D02*
D03*
X490748Y707579D02*
D03*
X480787Y723917D02*
D03*
X465787Y684675D02*
D03*
X605945D02*
D03*
X635945Y652391D02*
D03*
X495787D02*
D03*
X650590Y795700D02*
D03*
X737498Y789556D02*
D03*
X689998Y789156D02*
D03*
X700798Y697256D02*
D03*
X707998Y707556D02*
D03*
X708100Y743300D02*
D03*
X653498Y697056D02*
D03*
X660698Y707356D02*
D03*
X621600Y795700D02*
D03*
X606600D02*
D03*
X608698Y697056D02*
D03*
X615898Y707356D02*
D03*
X591600Y795700D02*
D03*
X609000Y733156D02*
D03*
X616200Y743456D02*
D03*
X561000Y696800D02*
D03*
X568200Y707100D02*
D03*
X576600Y795700D02*
D03*
X563598Y733156D02*
D03*
X570798Y743456D02*
D03*
X522613Y707097D02*
D03*
X559800Y795700D02*
D03*
X515400Y733209D02*
D03*
X522600Y743509D02*
D03*
X418400Y650900D02*
D03*
X425600Y661200D02*
D03*
X460900Y770600D02*
D03*
X513091Y811810D02*
D03*
X425600Y693000D02*
D03*
X418400Y682700D02*
D03*
X498091Y797800D02*
D03*
Y811700D02*
D03*
X425619Y724236D02*
D03*
X418600Y713952D02*
D03*
X425888Y757700D02*
D03*
X418800Y747452D02*
D03*
X776400Y538100D02*
D03*
X776000Y597500D02*
D03*
X762900Y555000D02*
D03*
X763400Y590500D02*
D03*
X527868Y442559D02*
D03*
X534364D02*
D03*
X663764Y456759D02*
D03*
X686864Y456159D02*
D03*
X716064Y434959D02*
D03*
X692464Y426259D02*
D03*
X501200Y427500D02*
D03*
Y437700D02*
D03*
Y447200D02*
D03*
Y457600D02*
D03*
X690164Y465859D02*
D03*
X697864Y440959D02*
D03*
X517815Y442559D02*
D03*
X705807Y828051D02*
D03*
X709941Y823327D02*
D03*
X700900Y733000D02*
D03*
X682798Y778856D02*
D03*
X730298Y779256D02*
D03*
M02*
