G04 Layer_Color=65535*
%FSLAX25Y25*%
%MOIN*%
G70*
G01*
G75*
%ADD30C,0.01968*%
%ADD32C,0.01181*%
%ADD33C,0.02362*%
%ADD35C,0.03937*%
%ADD37C,0.01000*%
%ADD39C,0.01575*%
%ADD48C,0.00100*%
%ADD49C,0.00787*%
%ADD50C,0.00591*%
%ADD51C,0.00394*%
%ADD52C,0.00300*%
%ADD53C,0.00606*%
%ADD54R,1.54921X0.05905*%
D30*
X404078Y406525D02*
X831578D01*
D32*
X633564Y413059D02*
X655764D01*
X624664Y421959D02*
X633564Y413059D01*
X624664Y421959D02*
Y443759D01*
X655764Y413059D02*
X664064Y421359D01*
Y443759D01*
X633394Y452489D02*
X655334D01*
X664064Y443759D01*
X624664D02*
X633394Y452489D01*
X399156Y488226D02*
Y494130D01*
X401124Y492162D01*
X403092Y494130D01*
Y488226D01*
X406043Y492162D02*
X408011D01*
X408995Y491178D01*
Y488226D01*
X406043D01*
X405059Y489210D01*
X406043Y490194D01*
X408995D01*
X414899Y494130D02*
Y488226D01*
X411947D01*
X410963Y489210D01*
Y491178D01*
X411947Y492162D01*
X414899D01*
X419818Y488226D02*
X417851D01*
X416867Y489210D01*
Y491178D01*
X417851Y492162D01*
X419818D01*
X420802Y491178D01*
Y490194D01*
X416867D01*
X428674Y488226D02*
X430642D01*
X429658D01*
Y492162D01*
X428674D01*
X433594Y488226D02*
Y492162D01*
X436545D01*
X437529Y491178D01*
Y488226D01*
X445401D02*
Y494130D01*
X448353D01*
X449336Y493146D01*
Y491178D01*
X448353Y490194D01*
X445401D01*
X447369D02*
X449336Y488226D01*
X451304Y492162D02*
Y489210D01*
X452288Y488226D01*
X455240D01*
Y492162D01*
X457208Y488226D02*
X460160D01*
X461144Y489210D01*
X460160Y490194D01*
X458192D01*
X457208Y491178D01*
X458192Y492162D01*
X461144D01*
X463112Y488226D02*
X466063D01*
X467047Y489210D01*
X466063Y490194D01*
X464095D01*
X463112Y491178D01*
X464095Y492162D01*
X467047D01*
X469015Y488226D02*
X470983D01*
X469999D01*
Y492162D01*
X469015D01*
X474919D02*
X476887D01*
X477871Y491178D01*
Y488226D01*
X474919D01*
X473935Y489210D01*
X474919Y490194D01*
X477871D01*
X398369Y527731D02*
Y521828D01*
X402304D01*
X404272Y527731D02*
Y521828D01*
X407224D01*
X408208Y522812D01*
Y526747D01*
X407224Y527731D01*
X404272D01*
X410176D02*
X412144D01*
X411160D01*
Y521828D01*
X410176D01*
X412144D01*
X415095D02*
X417063D01*
X416079D01*
Y527731D01*
X415095Y526747D01*
X420015Y521828D02*
X421983D01*
X420999D01*
Y527731D01*
X420015Y526747D01*
X424935Y521828D02*
X426903D01*
X425919D01*
Y527731D01*
X424935Y526747D01*
X433790Y527731D02*
X431822Y526747D01*
X429854Y524779D01*
Y522812D01*
X430838Y521828D01*
X432806D01*
X433790Y522812D01*
Y523795D01*
X432806Y524779D01*
X429854D01*
X398756Y516330D02*
Y510426D01*
X401708D01*
X402692Y511410D01*
Y515346D01*
X401708Y516330D01*
X398756D01*
X404660Y510426D02*
X406627D01*
X405643D01*
Y514362D01*
X404660D01*
X411547Y508458D02*
X412531D01*
X413515Y509442D01*
Y514362D01*
X410563D01*
X409579Y513378D01*
Y511410D01*
X410563Y510426D01*
X413515D01*
X415483D02*
X417451D01*
X416467D01*
Y514362D01*
X415483D01*
X421386Y515346D02*
Y514362D01*
X420402D01*
X422370D01*
X421386D01*
Y511410D01*
X422370Y510426D01*
X426306Y514362D02*
X428274D01*
X429258Y513378D01*
Y510426D01*
X426306D01*
X425322Y511410D01*
X426306Y512394D01*
X429258D01*
X431226Y510426D02*
X433194D01*
X432210D01*
Y516330D01*
X431226D01*
X442049Y510426D02*
X444017D01*
X443033D01*
Y514362D01*
X442049D01*
X446969Y510426D02*
Y514362D01*
X449921D01*
X450904Y513378D01*
Y510426D01*
X452872Y508458D02*
Y514362D01*
X455824D01*
X456808Y513378D01*
Y511410D01*
X455824Y510426D01*
X452872D01*
X458776Y514362D02*
Y511410D01*
X459760Y510426D01*
X462712D01*
Y514362D01*
X465663Y515346D02*
Y514362D01*
X464679D01*
X466647D01*
X465663D01*
Y511410D01*
X466647Y510426D01*
D33*
X658078Y643302D02*
G03*
X657579Y622314I0J-10500D01*
G01*
X742078Y622302D02*
G03*
X742577Y643291I0J10500D01*
G01*
X658078Y643302D02*
X742577D01*
X657578Y622302D02*
X742078D01*
X659878Y638610D02*
Y626802D01*
X667749D01*
X677589Y638610D02*
X673653D01*
X671685Y636642D01*
Y628770D01*
X673653Y626802D01*
X677589D01*
X679557Y628770D01*
Y636642D01*
X677589Y638610D01*
X683492Y626802D02*
Y638610D01*
X689396D01*
X691364Y636642D01*
Y632706D01*
X689396Y630738D01*
X683492D01*
X687428D02*
X691364Y626802D01*
X703171Y638610D02*
X695299D01*
Y626802D01*
X703171D01*
X695299Y632706D02*
X699235D01*
X707107Y626802D02*
Y638610D01*
X714978Y626802D01*
Y638610D01*
X718914D02*
X726785D01*
X722850D01*
Y626802D01*
X730721Y638610D02*
X738593D01*
Y636642D01*
X730721Y628770D01*
Y626802D01*
X738593D01*
D35*
X427881Y406525D02*
G03*
X427881Y406525I-1803J0D01*
G01*
X416881D02*
G03*
X416881Y406525I-1803J0D01*
G01*
X405881D02*
G03*
X405881Y406525I-1803J0D01*
G01*
X657100Y652700D02*
X661600D01*
X734300Y605000D02*
X737500Y608200D01*
X681400Y652700D02*
X685900D01*
X674579Y482047D02*
X719390D01*
X528051Y482185D02*
X638484D01*
X522600Y476734D02*
X528051Y482185D01*
X522600Y465500D02*
Y476734D01*
Y416500D02*
Y465500D01*
X737500Y608200D02*
X739700D01*
X734300Y538400D02*
Y605000D01*
Y538400D02*
X737300Y535400D01*
X802100D01*
X739700Y608200D02*
X746700D01*
X782000Y607700D02*
X833400D01*
X688200Y766200D02*
X718839D01*
X725787Y759252D01*
Y662106D02*
Y759252D01*
X647900Y652700D02*
X716381D01*
X769452Y701883D02*
X827052D01*
X765152Y697583D02*
X769452Y701883D01*
X765152Y681083D02*
Y697583D01*
Y681083D02*
X769252Y676983D01*
X827252D01*
X716381Y652700D02*
X725787Y662106D01*
X398327Y637697D02*
X452264D01*
X671457Y504134D02*
Y537795D01*
X670866Y574705D02*
Y605512D01*
X673917Y608563D01*
X721752D01*
X398130Y475047D02*
X498795D01*
X507695Y466147D01*
Y432947D02*
Y466147D01*
X498295Y423547D02*
X507695Y432947D01*
X397835Y423547D02*
X498295D01*
X452264Y637697D02*
X632897D01*
X647900Y652700D01*
X814900Y747800D02*
Y749768D01*
X816868D01*
Y747800D01*
X814900D01*
X776200D02*
Y749768D01*
X778168D01*
Y747800D01*
X776200D01*
X730709Y747100D02*
Y749068D01*
X732677D01*
Y747100D01*
X730709D01*
X447595Y550886D02*
X445627D01*
Y552854D01*
X447595D01*
Y550886D01*
Y560725D02*
X445627D01*
Y562693D01*
X447595D01*
Y560725D01*
Y570565D02*
X445627D01*
Y572532D01*
X447595D01*
Y570565D01*
Y580404D02*
X445627D01*
Y582372D01*
X447595D01*
Y580404D01*
Y590243D02*
X445627D01*
Y592211D01*
X447595D01*
Y590243D01*
Y600082D02*
X445627D01*
Y602050D01*
X447595D01*
Y600082D01*
Y609922D02*
X445627D01*
Y611890D01*
X447595D01*
Y609922D01*
Y619761D02*
X445627D01*
Y621729D01*
X447595D01*
Y619761D01*
D37*
X491614Y747736D02*
G03*
X491614Y747736I-12598J0D01*
G01*
X767205D02*
G03*
X767205Y747736I-12598J0D01*
G01*
X767816D02*
G03*
X767816Y747736I-13210J0D01*
G01*
X491614D02*
G03*
X491614Y747736I-12598J0D01*
G01*
X602945Y662663D02*
X643445D01*
X602945D02*
Y674663D01*
X643445D01*
X640445Y669163D02*
X643445Y672163D01*
Y674663D01*
X640445Y669163D02*
X643445Y666163D01*
Y662663D02*
Y666163D01*
X756504Y577579D02*
X760004D01*
X753504Y574579D02*
X756504Y577579D01*
X748004D02*
X750504D01*
X753504Y574579D01*
X748004Y557579D02*
Y577579D01*
Y557579D02*
X760004D01*
Y577579D01*
X786034Y486404D02*
X796858D01*
X787434Y462604D02*
X795934D01*
X786034Y464604D02*
X796934D01*
Y486304D01*
X786034Y464604D02*
Y486404D01*
X692564Y433259D02*
Y453259D01*
X704564D01*
Y433259D02*
Y453259D01*
X699064Y436259D02*
X702064Y433259D01*
X704564D01*
X696064D02*
X699064Y436259D01*
X692564Y433259D02*
X696064D01*
X804202Y582657D02*
Y597657D01*
X783202Y582657D02*
X804202D01*
X783202Y597657D02*
X804202D01*
X783202Y582657D02*
Y597657D01*
X708700Y578100D02*
Y591100D01*
X692700D02*
X708700D01*
X692700Y578100D02*
Y591100D01*
Y578100D02*
X708700D01*
X606335Y574784D02*
Y615283D01*
X618335D01*
Y574784D02*
Y615283D01*
X612835Y577783D02*
X615835Y574784D01*
X618335D01*
X609835D02*
X612835Y577783D01*
X606335Y574784D02*
X609835D01*
X606335Y516732D02*
Y557232D01*
X618335D01*
Y516732D02*
Y557232D01*
X612835Y519732D02*
X615835Y516732D01*
X618335D01*
X609835D02*
X612835Y519732D01*
X606335Y516732D02*
X609835D01*
X462787Y662663D02*
X503287D01*
X462787D02*
Y674663D01*
X503287D01*
X500287Y669163D02*
X503287Y672163D01*
Y674663D01*
X500287Y669163D02*
X503287Y666163D01*
Y662663D02*
Y666163D01*
X562764Y425659D02*
Y439159D01*
X562264Y425159D02*
X562764Y425659D01*
X535264Y439159D02*
X562764D01*
X535764Y425159D02*
X562264D01*
X535264Y425659D02*
Y439159D01*
Y425659D02*
X535764Y425159D01*
X771500Y489400D02*
Y524400D01*
X742000D02*
X771500D01*
X742000Y512900D02*
Y524400D01*
X722000Y489400D02*
X771500D01*
X722000Y512900D02*
Y524400D01*
X692500D02*
X722000D01*
X692500Y489400D02*
Y524400D01*
Y489400D02*
X722000D01*
X427932Y775139D02*
X523290D01*
X427890Y861319D02*
X523290Y861339D01*
X523327Y775197D02*
Y861319D01*
X427854Y775197D02*
Y861319D01*
X558437Y775047D02*
X653795D01*
X558395Y861226D02*
X653795Y861247D01*
X653831Y775104D02*
Y861226D01*
X558359Y775104D02*
Y861226D01*
X506496Y531579D02*
X511496D01*
X506161Y535744D02*
X511161D01*
X586496Y601194D02*
X591496D01*
X586496Y596994D02*
X591496D01*
X566496Y601194D02*
X571496D01*
X566496Y596994D02*
X571496D01*
X546496Y601194D02*
X551496D01*
X546496Y596994D02*
X551496D01*
X526496Y601194D02*
X531496D01*
X526496Y596994D02*
X531496D01*
X586496Y535744D02*
X591496D01*
X586496Y531896D02*
X591496D01*
X566496Y535744D02*
X571496D01*
X566496Y531896D02*
X571496D01*
X546496Y535744D02*
X551496D01*
X546496Y531896D02*
X551496D01*
X526496Y535744D02*
X531496D01*
X526496Y531896D02*
X531496D01*
X423169Y760964D02*
X438169D01*
X438669Y760464D01*
Y743964D02*
Y760464D01*
X423169Y743964D02*
X438669D01*
X423169D02*
Y760964D01*
X565569Y710338D02*
X580569D01*
X581069Y709838D01*
Y693338D02*
Y709838D01*
X565569Y693338D02*
X581069D01*
X565569D02*
Y710338D01*
X658069Y746564D02*
X673069D01*
X673569Y746064D01*
Y729564D02*
Y746064D01*
X658069Y729564D02*
X673569D01*
X658069D02*
Y746564D01*
X422881Y664464D02*
X437881D01*
X438381Y663964D01*
Y647464D02*
Y663964D01*
X422881Y647464D02*
X438381D01*
X422881D02*
Y664464D01*
X568169Y746694D02*
X583169D01*
X583669Y746194D01*
Y729694D02*
Y746194D01*
X568169Y729694D02*
X583669D01*
X568169D02*
Y746694D01*
X705369Y710764D02*
X720369D01*
X720869Y710264D01*
Y693764D02*
Y710264D01*
X705369Y693764D02*
X720869D01*
X705369D02*
Y710764D01*
X422900Y696300D02*
X437900D01*
X438400Y695800D01*
Y679300D02*
Y695800D01*
X422900Y679300D02*
X438400D01*
X422900D02*
Y696300D01*
X613269Y710594D02*
X628269D01*
X628769Y710094D01*
Y693594D02*
Y710094D01*
X613269Y693594D02*
X628769D01*
X613269D02*
Y710594D01*
X705469Y746464D02*
X720469D01*
X720969Y745964D01*
Y729464D02*
Y745964D01*
X705469Y729464D02*
X720969D01*
X705469D02*
Y746464D01*
X519983Y710391D02*
X534983D01*
X535483Y709891D01*
Y693391D02*
Y709891D01*
X519983Y693391D02*
X535483D01*
X519983D02*
Y710391D01*
X613569Y746694D02*
X628569D01*
X629069Y746194D01*
Y729694D02*
Y746194D01*
X613569Y729694D02*
X629069D01*
X613569D02*
Y746694D01*
X734869Y792964D02*
X749869D01*
X750369Y792464D01*
Y775964D02*
Y792464D01*
X734869Y775964D02*
X750369D01*
X734869D02*
Y792964D01*
X422900Y727500D02*
X437900D01*
X438400Y727000D01*
Y710500D02*
Y727000D01*
X422900Y710500D02*
X438400D01*
X422900D02*
Y727500D01*
X519969Y746803D02*
X534969D01*
X535469Y746303D01*
Y729803D02*
Y746303D01*
X519969Y729803D02*
X535469D01*
X519969D02*
Y746803D01*
X658000Y710600D02*
X673000D01*
X673500Y710100D01*
Y693600D02*
Y710100D01*
X658000Y693600D02*
X673500D01*
X658000D02*
Y710600D01*
X687369Y792394D02*
X702369D01*
X702869Y791894D01*
Y775394D02*
Y791894D01*
X687369Y775394D02*
X702869D01*
X687369D02*
Y792394D01*
X697397Y567344D02*
X721956D01*
X724956Y564344D01*
Y539785D02*
Y564344D01*
X697397Y539785D02*
X724956D01*
X697397D02*
Y567344D01*
X672717Y409394D02*
Y420218D01*
X696517Y410794D02*
Y419294D01*
X694517Y409394D02*
Y420294D01*
X672817D02*
X694517D01*
X672717Y409394D02*
X694517D01*
X852847Y482348D02*
Y589277D01*
X805603D02*
X852847D01*
X805603Y482348D02*
X852847D01*
X805603D02*
Y589277D01*
X541200Y780500D02*
X556200D01*
X541200D02*
Y801500D01*
X556200Y780500D02*
Y801500D01*
X541200D02*
X556200D01*
X524587Y780500D02*
X539587D01*
X524587D02*
Y801500D01*
X539587Y780500D02*
Y801500D01*
X524587D02*
X539587D01*
X541200Y825700D02*
X556200D01*
Y804700D02*
Y825700D01*
X541200Y804700D02*
Y825700D01*
Y804700D02*
X556200D01*
X524587Y825760D02*
X539587D01*
Y804760D02*
Y825760D01*
X524587Y804760D02*
Y825760D01*
Y804760D02*
X539587D01*
X804202Y538400D02*
Y553400D01*
X783202Y538400D02*
X804202D01*
X783202Y553400D02*
X804202D01*
X783202Y538400D02*
Y553400D01*
X737064Y423959D02*
Y439759D01*
X728464Y423959D02*
Y439859D01*
X610264Y440459D02*
Y456259D01*
X618864Y440359D02*
Y456259D01*
X534107Y460826D02*
X549907D01*
X534107Y469426D02*
X550007D01*
X741168Y587103D02*
Y582104D01*
X742168Y581105D01*
X744167D01*
X745167Y582104D01*
Y587103D01*
X747166Y581105D02*
X749165D01*
X748166D01*
Y587103D01*
X747166Y586103D01*
X685495Y462757D02*
Y457759D01*
X686495Y456759D01*
X688494D01*
X689494Y457759D01*
Y462757D01*
X695492Y456759D02*
X691493D01*
X695492Y460758D01*
Y461758D01*
X694492Y462757D01*
X692493D01*
X691493Y461758D01*
X704751Y403116D02*
X703833Y404035D01*
X701997D01*
X701078Y403116D01*
Y402198D01*
X701997Y401280D01*
X703833D01*
X704751Y400361D01*
Y399443D01*
X703833Y398525D01*
X701997D01*
X701078Y399443D01*
X709343Y398525D02*
X707507D01*
X706588Y399443D01*
Y401280D01*
X707507Y402198D01*
X709343D01*
X710261Y401280D01*
Y400361D01*
X706588D01*
X712098Y402198D02*
Y398525D01*
Y400361D01*
X713017Y401280D01*
X713935Y402198D01*
X714853D01*
X717608Y398525D02*
X719445D01*
X718527D01*
Y402198D01*
X717608D01*
X723118D02*
X724955D01*
X725873Y401280D01*
Y398525D01*
X723118D01*
X722200Y399443D01*
X723118Y400361D01*
X725873D01*
X727710Y398525D02*
X729547D01*
X728628D01*
Y404035D01*
X727710D01*
X732302Y402198D02*
X733220D01*
Y401280D01*
X732302D01*
Y402198D01*
Y399443D02*
X733220D01*
Y398525D01*
X732302D01*
Y399443D01*
X442078Y398025D02*
Y403535D01*
X443915Y401698D01*
X445751Y403535D01*
Y398025D01*
X451262Y402616D02*
X450343Y403535D01*
X448506D01*
X447588Y402616D01*
Y398943D01*
X448506Y398025D01*
X450343D01*
X451262Y398943D01*
X453098Y403535D02*
X456772D01*
X454935D01*
Y398025D01*
X458608D02*
Y403535D01*
X461363D01*
X462282Y402616D01*
Y400780D01*
X461363Y399861D01*
X458608D01*
X460445D02*
X462282Y398025D01*
X464118D02*
Y398943D01*
X465037D01*
Y398025D01*
X464118D01*
X468710Y402616D02*
X469628Y403535D01*
X471465D01*
X472383Y402616D01*
Y398943D01*
X471465Y398025D01*
X469628D01*
X468710Y398943D01*
Y402616D01*
X474220D02*
X475138Y403535D01*
X476975D01*
X477893Y402616D01*
Y398943D01*
X476975Y398025D01*
X475138D01*
X474220Y398943D01*
Y402616D01*
X479730D02*
X480648Y403535D01*
X482485D01*
X483403Y402616D01*
Y398943D01*
X482485Y398025D01*
X480648D01*
X479730Y398943D01*
Y402616D01*
X485240Y398025D02*
X487077D01*
X486158D01*
Y403535D01*
X485240Y402616D01*
X489832D02*
X490750Y403535D01*
X492587D01*
X493505Y402616D01*
Y398943D01*
X492587Y398025D01*
X490750D01*
X489832Y398943D01*
Y402616D01*
X499015Y403535D02*
X495342D01*
Y400780D01*
X497178Y401698D01*
X498097D01*
X499015Y400780D01*
Y398943D01*
X498097Y398025D01*
X496260D01*
X495342Y398943D01*
X500852Y402616D02*
X501770Y403535D01*
X503607D01*
X504525Y402616D01*
Y401698D01*
X503607Y400780D01*
X504525Y399861D01*
Y398943D01*
X503607Y398025D01*
X501770D01*
X500852Y398943D01*
Y399861D01*
X501770Y400780D01*
X500852Y401698D01*
Y402616D01*
X501770Y400780D02*
X503607D01*
X510035Y398025D02*
X506362D01*
X510035Y401698D01*
Y402616D01*
X509117Y403535D01*
X507280D01*
X506362Y402616D01*
X511872Y398025D02*
Y398943D01*
X512790D01*
Y398025D01*
X511872D01*
X516464Y402616D02*
X517382Y403535D01*
X519219D01*
X520137Y402616D01*
Y398943D01*
X519219Y398025D01*
X517382D01*
X516464Y398943D01*
Y402616D01*
X521974D02*
X522892Y403535D01*
X524729D01*
X525647Y402616D01*
Y398943D01*
X524729Y398025D01*
X522892D01*
X521974Y398943D01*
Y402616D01*
X527484Y398025D02*
Y398943D01*
X528402D01*
Y398025D01*
X527484D01*
X532075Y402616D02*
X532994Y403535D01*
X534830D01*
X535749Y402616D01*
Y398943D01*
X534830Y398025D01*
X532994D01*
X532075Y398943D01*
Y402616D01*
X537585D02*
X538504Y403535D01*
X540340D01*
X541259Y402616D01*
Y398943D01*
X540340Y398025D01*
X538504D01*
X537585Y398943D01*
Y402616D01*
X543095D02*
X544014Y403535D01*
X545850D01*
X546769Y402616D01*
Y401698D01*
X545850Y400780D01*
X544932D01*
X545850D01*
X546769Y399861D01*
Y398943D01*
X545850Y398025D01*
X544014D01*
X543095Y398943D01*
X764724Y772333D02*
Y773317D01*
X765707D01*
Y772333D01*
X764724D01*
X769643D02*
Y773317D01*
X770627D01*
Y772333D01*
X769643D01*
X774563D02*
Y773317D01*
X775547D01*
Y772333D01*
X774563D01*
X779483D02*
Y773317D01*
X780467D01*
Y772333D01*
X779483D01*
X784402D02*
Y773317D01*
X785386D01*
Y772333D01*
X784402D01*
X789322D02*
Y773317D01*
X790306D01*
Y772333D01*
X789322D01*
X764724Y790033D02*
Y791017D01*
X765707D01*
Y790033D01*
X764724D01*
X769643D02*
Y791017D01*
X770627D01*
Y790033D01*
X769643D01*
X774563D02*
Y791017D01*
X775547D01*
Y790033D01*
X774563D01*
X779483D02*
Y791017D01*
X780467D01*
Y790033D01*
X779483D01*
X784402D02*
Y791017D01*
X785386D01*
Y790033D01*
X784402D01*
X789322D02*
Y791017D01*
X790306D01*
Y790033D01*
X789322D01*
X643055Y492213D02*
Y493196D01*
X644039D01*
Y492213D01*
X643055D01*
X647975D02*
Y493196D01*
X648959D01*
Y492213D01*
X647975D01*
X652894D02*
Y493196D01*
X653878D01*
Y492213D01*
X652894D01*
X657814D02*
Y493196D01*
X658798D01*
Y492213D01*
X657814D01*
X662734D02*
Y493196D01*
X663718D01*
Y492213D01*
X662734D01*
X667654D02*
Y493196D01*
X668637D01*
Y492213D01*
X667654D01*
X643055Y474513D02*
Y475496D01*
X644039D01*
Y474513D01*
X643055D01*
X647975D02*
Y475496D01*
X648959D01*
Y474513D01*
X647975D01*
X652894D02*
Y475496D01*
X653878D01*
Y474513D01*
X652894D01*
X657814D02*
Y475496D01*
X658798D01*
Y474513D01*
X657814D01*
X662734D02*
Y475496D01*
X663718D01*
Y474513D01*
X662734D01*
X667654D02*
Y475496D01*
X668637D01*
Y474513D01*
X667654D01*
X751200Y600700D02*
Y601684D01*
X752184D01*
Y600700D01*
X751200D01*
X756120D02*
Y601684D01*
X757104D01*
Y600700D01*
X756120D01*
X761039D02*
Y601684D01*
X762023D01*
Y600700D01*
X761039D01*
X765959D02*
Y601684D01*
X766943D01*
Y600700D01*
X765959D01*
X770879D02*
Y601684D01*
X771863D01*
Y600700D01*
X770879D01*
X775798D02*
Y601684D01*
X776782D01*
Y600700D01*
X775798D01*
X751200Y615600D02*
Y616584D01*
X752184D01*
Y615600D01*
X751200D01*
X756120D02*
Y616584D01*
X757104D01*
Y615600D01*
X756120D01*
X761039D02*
Y616584D01*
X762023D01*
Y615600D01*
X761039D01*
X765959D02*
Y616584D01*
X766943D01*
Y615600D01*
X765959D01*
X770879D02*
Y616584D01*
X771863D01*
Y615600D01*
X770879D01*
X775798D02*
Y616584D01*
X776782D01*
Y615600D01*
X775798D01*
X771052Y696583D02*
Y697567D01*
X772036D01*
Y696583D01*
X771052D01*
X775972D02*
Y697567D01*
X776956D01*
Y696583D01*
X775972D01*
X780891D02*
Y697567D01*
X781875D01*
Y696583D01*
X780891D01*
X785811D02*
Y697567D01*
X786795D01*
Y696583D01*
X785811D01*
X790731D02*
Y697567D01*
X791715D01*
Y696583D01*
X790731D01*
X795650D02*
Y697567D01*
X796634D01*
Y696583D01*
X795650D01*
X800570D02*
Y697567D01*
X801554D01*
Y696583D01*
X800570D01*
X805490D02*
Y697567D01*
X806474D01*
Y696583D01*
X805490D01*
X810409D02*
Y697567D01*
X811393D01*
Y696583D01*
X810409D01*
X815329D02*
Y697567D01*
X816313D01*
Y696583D01*
X815329D01*
X820249D02*
Y697567D01*
X821233D01*
Y696583D01*
X820249D01*
X771052Y680983D02*
Y681967D01*
X772036D01*
Y680983D01*
X771052D01*
X775972D02*
Y681967D01*
X776956D01*
Y680983D01*
X775972D01*
X780891D02*
Y681967D01*
X781875D01*
Y680983D01*
X780891D01*
X785811D02*
Y681967D01*
X786795D01*
Y680983D01*
X785811D01*
X790731D02*
Y681967D01*
X791715D01*
Y680983D01*
X790731D01*
X795650D02*
Y681967D01*
X796634D01*
Y680983D01*
X795650D01*
X800570D02*
Y681967D01*
X801554D01*
Y680983D01*
X800570D01*
X805490D02*
Y681967D01*
X806474D01*
Y680983D01*
X805490D01*
X810409D02*
Y681967D01*
X811393D01*
Y680983D01*
X810409D01*
X815329D02*
Y681967D01*
X816313D01*
Y680983D01*
X815329D01*
X820249D02*
Y681967D01*
X821233D01*
Y680983D01*
X820249D01*
X662435Y542161D02*
X661451D01*
Y543145D01*
X662435D01*
Y542161D01*
Y547080D02*
X661451D01*
Y548064D01*
X662435D01*
Y547080D01*
Y552000D02*
X661451D01*
Y552984D01*
X662435D01*
Y552000D01*
Y556920D02*
X661451D01*
Y557904D01*
X662435D01*
Y556920D01*
Y561839D02*
X661451D01*
Y562823D01*
X662435D01*
Y561839D01*
Y566759D02*
X661451D01*
Y567743D01*
X662435D01*
Y566759D01*
X680135Y542161D02*
X679151D01*
Y543145D01*
X680135D01*
Y542161D01*
Y547080D02*
X679151D01*
Y548064D01*
X680135D01*
Y547080D01*
Y552000D02*
X679151D01*
Y552984D01*
X680135D01*
Y552000D01*
Y556920D02*
X679151D01*
Y557904D01*
X680135D01*
Y556920D01*
Y561839D02*
X679151D01*
Y562823D01*
X680135D01*
Y561839D01*
Y566759D02*
X679151D01*
Y567743D01*
X680135D01*
Y566759D01*
D39*
X766724Y785505D02*
Y777633D01*
X771971D01*
X779843Y785505D02*
X774595D01*
Y777633D01*
X779843D01*
X774595Y781569D02*
X777219D01*
X782467Y785505D02*
Y777633D01*
X786402D01*
X787714Y778945D01*
Y784193D01*
X786402Y785505D01*
X782467D01*
X645455Y480313D02*
Y488184D01*
X649391D01*
X650703Y486872D01*
Y484248D01*
X649391Y482936D01*
X645455D01*
X658574Y486872D02*
X657262Y488184D01*
X654638D01*
X653327Y486872D01*
Y485560D01*
X654638Y484248D01*
X657262D01*
X658574Y482936D01*
Y481625D01*
X657262Y480313D01*
X654638D01*
X653327Y481625D01*
X661198Y488184D02*
Y481625D01*
X662510Y480313D01*
X665134D01*
X666446Y481625D01*
Y488184D01*
X753800Y612271D02*
X759048Y604400D01*
Y612271D02*
X753800Y604400D01*
X766919D02*
X761671D01*
X766919Y609648D01*
Y610960D01*
X765607Y612271D01*
X762983D01*
X761671Y610960D01*
X769543Y612271D02*
X774791Y604400D01*
Y612271D02*
X769543Y604400D01*
X771927Y693354D02*
Y685483D01*
X777174D01*
X779798Y693354D02*
Y685483D01*
X783734D01*
X785046Y686795D01*
Y692042D01*
X783734Y693354D01*
X779798D01*
X787670D02*
X790294D01*
X788982D01*
Y685483D01*
X787670D01*
X790294D01*
X794229D02*
X796853D01*
X795541D01*
Y693354D01*
X794229Y692042D01*
X800789Y685483D02*
X803413D01*
X802101D01*
Y693354D01*
X800789Y692042D01*
X807348Y685483D02*
X809972D01*
X808660D01*
Y693354D01*
X807348Y692042D01*
X819156Y693354D02*
X816532Y692042D01*
X813908Y689418D01*
Y686795D01*
X815220Y685483D01*
X817844D01*
X819156Y686795D01*
Y688106D01*
X817844Y689418D01*
X813908D01*
X668376Y549808D02*
X667064Y548496D01*
Y545872D01*
X668376Y544561D01*
X673624D01*
X674935Y545872D01*
Y548496D01*
X673624Y549808D01*
X674935Y552432D02*
X667064D01*
Y556368D01*
X668376Y557680D01*
X671000D01*
X672312Y556368D01*
Y552432D01*
X667064Y560304D02*
X673624D01*
X674935Y561616D01*
Y564239D01*
X673624Y565551D01*
X667064D01*
D48*
X804411Y423473D02*
X825511D01*
X804411Y423573D02*
X825511D01*
X804411Y423673D02*
X825511D01*
X804411Y423773D02*
X825511D01*
X804411Y423873D02*
X825511D01*
X804411Y423973D02*
X825511D01*
X804411Y424073D02*
X825511D01*
X804411Y424173D02*
X825511D01*
X804411Y424273D02*
X825511D01*
X804411Y424373D02*
X825511D01*
X804411Y424473D02*
X825511D01*
X804411Y424573D02*
X825511D01*
X804411Y424673D02*
X825511D01*
X804411Y424773D02*
X825511D01*
X804411Y424873D02*
X825511D01*
X804411Y424973D02*
X825511D01*
X804411Y425073D02*
X825511D01*
X804411Y425173D02*
X825511D01*
X804411Y425273D02*
X825511D01*
X804411Y425373D02*
X825511D01*
X804411Y425473D02*
X825511D01*
X804411Y425573D02*
X825511D01*
X804411Y425673D02*
X825511D01*
X804411Y425773D02*
X825511D01*
X804411Y425873D02*
X825511D01*
X804411Y425973D02*
X825511D01*
X804411Y426073D02*
X825511D01*
X804411Y426173D02*
X825511D01*
X804411Y426273D02*
X825511D01*
X804411Y426373D02*
X825511D01*
X804411Y426473D02*
X825511D01*
X804411Y426573D02*
X825511D01*
X804411Y426673D02*
X825511D01*
X804411Y426773D02*
X825511D01*
X804411Y426873D02*
X825511D01*
X804411Y426973D02*
X825511D01*
X804411Y427073D02*
X825511D01*
X804411Y427173D02*
X825511D01*
X804411Y427273D02*
X825511D01*
X804411Y427373D02*
X825511D01*
X804411Y427473D02*
X825511D01*
X804411Y427573D02*
X825511D01*
X804411Y427673D02*
X825511D01*
X804411Y427773D02*
X825511D01*
X804411Y427873D02*
X825511D01*
X804411Y427973D02*
X825511D01*
X804411Y428073D02*
X825511D01*
X804411Y428173D02*
X825511D01*
X804411Y428273D02*
X825511D01*
X804411Y428373D02*
X825511D01*
X804411Y428473D02*
X825511D01*
X825911Y433773D02*
X826011D01*
X803111D02*
X803411D01*
X825811Y433873D02*
X826111D01*
X803011D02*
X803511D01*
X825811Y433973D02*
X826211D01*
X802911D02*
X803511D01*
X825611Y434073D02*
X826311D01*
X802911D02*
X803711D01*
X825511Y434173D02*
X826411D01*
X802911D02*
X803811D01*
X825511Y434273D02*
X826311D01*
X803011D02*
X803811D01*
X825311Y434373D02*
X826211D01*
X803111D02*
X804011D01*
X825211Y434473D02*
X826111D01*
X803211D02*
X804111D01*
X825211Y434573D02*
X826011D01*
X803311D02*
X804111D01*
X825011Y434673D02*
X825911D01*
X803411D02*
X804311D01*
X825011Y434773D02*
X825811D01*
X803511D02*
X804411D01*
X824911Y434873D02*
X825711D01*
X803611D02*
X804411D01*
X824811Y434973D02*
X825611D01*
X803711D02*
X804611D01*
X824711Y435073D02*
X825511D01*
X803811D02*
X804711D01*
X824611Y435173D02*
X825411D01*
X803911D02*
X804711D01*
X824511Y435273D02*
X825311D01*
X804011D02*
X804911D01*
X824411Y435373D02*
X825211D01*
X804111D02*
X805011D01*
X824311Y435473D02*
X825211D01*
X804211D02*
X805011D01*
X824211Y435573D02*
X825011D01*
X804311D02*
X805211D01*
X824111Y435673D02*
X824911D01*
X804411D02*
X805311D01*
X824011Y435773D02*
X824911D01*
X804511D02*
X805311D01*
X823911Y435873D02*
X824711D01*
X804611D02*
X805511D01*
X823811Y435973D02*
X824611D01*
X804711D02*
X805611D01*
X823811Y436073D02*
X824511D01*
X804811D02*
X805711D01*
X823611Y436173D02*
X824411D01*
X818811D02*
X819811D01*
X811011D02*
X812311D01*
X804911D02*
X805811D01*
X823511Y436273D02*
X824311D01*
X818511D02*
X820211D01*
X811011D02*
X812311D01*
X805011D02*
X805911D01*
X823511Y436373D02*
X824211D01*
X818411D02*
X820311D01*
X811011D02*
X812311D01*
X805111D02*
X806011D01*
X823311Y436473D02*
X824211D01*
X818211D02*
X820511D01*
X811011D02*
X812311D01*
X805211D02*
X806111D01*
X823211Y436573D02*
X824111D01*
X818011D02*
X820611D01*
X811011D02*
X812311D01*
X805311D02*
X806211D01*
X823211Y436673D02*
X824011D01*
X817911D02*
X820711D01*
X811011D02*
X812311D01*
X805411D02*
X806211D01*
X823011Y436773D02*
X823911D01*
X817811D02*
X820811D01*
X811011D02*
X812311D01*
X805511D02*
X806311D01*
X822911Y436873D02*
X823811D01*
X817711D02*
X820911D01*
X811011D02*
X812311D01*
X805711D02*
X806411D01*
X822911Y436973D02*
X823711D01*
X817611D02*
X821011D01*
X811011D02*
X812311D01*
X805711D02*
X806511D01*
X822711Y437073D02*
X823611D01*
X817611D02*
X821111D01*
X811011D02*
X812311D01*
X805811D02*
X806611D01*
X822711Y437173D02*
X823511D01*
X819711D02*
X821111D01*
X817511D02*
X818911D01*
X811011D02*
X812311D01*
X806011D02*
X806711D01*
X822611Y437273D02*
X823411D01*
X819911D02*
X821211D01*
X810911D02*
X818811D01*
X806011D02*
X806811D01*
X822511Y437373D02*
X823311D01*
X820011D02*
X821211D01*
X810811D02*
X818611D01*
X806111D02*
X806911D01*
X822411Y437473D02*
X823211D01*
X820211D02*
X821211D01*
X810711D02*
X818511D01*
X806211D02*
X807011D01*
X822311Y437573D02*
X823111D01*
X820211D02*
X821311D01*
X819011D02*
X819611D01*
X810711D02*
X818411D01*
X806311D02*
X807111D01*
X822211Y437673D02*
X823011D01*
X820311D02*
X821311D01*
X818811D02*
X819811D01*
X810611D02*
X818411D01*
X806411D02*
X807211D01*
X822111Y437773D02*
X822911D01*
X820311D02*
X821411D01*
X818711D02*
X819911D01*
X810611D02*
X818311D01*
X806511D02*
X807311D01*
X822011Y437873D02*
X822911D01*
X820311D02*
X821411D01*
X818711D02*
X819911D01*
X810611D02*
X818311D01*
X806611D02*
X807411D01*
X821911Y437973D02*
X822711D01*
X820411D02*
X821411D01*
X818711D02*
X820011D01*
X817211D02*
X818211D01*
X810611D02*
X811411D01*
X806711D02*
X807511D01*
X821811Y438073D02*
X822611D01*
X820411D02*
X821411D01*
X818611D02*
X820011D01*
X817211D02*
X818211D01*
X810611D02*
X811411D01*
X806811D02*
X807611D01*
X821711Y438173D02*
X822611D01*
X820411D02*
X821411D01*
X818611D02*
X820011D01*
X817211D02*
X818211D01*
X810611D02*
X811411D01*
X806911D02*
X807711D01*
X821711Y438273D02*
X822411D01*
X820411D02*
X821411D01*
X818611D02*
X820011D01*
X817211D02*
X818211D01*
X810611D02*
X811411D01*
X807011D02*
X807811D01*
X821511Y438373D02*
X822311D01*
X820411D02*
X821411D01*
X818711D02*
X820011D01*
X817211D02*
X818211D01*
X810611D02*
X811311D01*
X807111D02*
X807911D01*
X821511Y438473D02*
X822311D01*
X820311D02*
X821411D01*
X818711D02*
X820011D01*
X817211D02*
X818211D01*
X810611D02*
X811311D01*
X807211D02*
X808011D01*
X820311Y438573D02*
X822111D01*
X818711D02*
X819911D01*
X817311D02*
X818311D01*
X810611D02*
X811311D01*
X807311D02*
X808111D01*
X820311Y438673D02*
X822011D01*
X818811D02*
X819811D01*
X817311D02*
X818411D01*
X810611D02*
X811311D01*
X807411D02*
X808211D01*
X820211Y438773D02*
X822011D01*
X818911D02*
X819711D01*
X817311D02*
X818411D01*
X810611D02*
X811311D01*
X807511D02*
X808311D01*
X820211Y438873D02*
X821911D01*
X819111D02*
X819511D01*
X817311D02*
X818511D01*
X810611D02*
X811311D01*
X807611D02*
X808411D01*
X820011Y438973D02*
X821811D01*
X817411D02*
X818611D01*
X810611D02*
X811311D01*
X807711D02*
X808511D01*
X820011Y439073D02*
X821711D01*
X817411D02*
X818711D01*
X810511D02*
X811311D01*
X807811D02*
X808611D01*
X819811Y439173D02*
X821611D01*
X817411D02*
X818811D01*
X810511D02*
X811211D01*
X807911D02*
X808711D01*
X817511Y439273D02*
X821511D01*
X810511D02*
X811211D01*
X808011D02*
X808811D01*
X817611Y439373D02*
X821411D01*
X810511D02*
X811211D01*
X808111D02*
X808911D01*
X817611Y439473D02*
X821311D01*
X810511D02*
X811211D01*
X808211D02*
X809011D01*
X817711Y439573D02*
X821211D01*
X810511D02*
X811211D01*
X808311D02*
X809111D01*
X817811Y439673D02*
X821111D01*
X810511D02*
X811211D01*
X808411D02*
X809211D01*
X817911Y439773D02*
X821011D01*
X810511D02*
X811211D01*
X808511D02*
X809311D01*
X818011Y439873D02*
X820911D01*
X810511D02*
X811211D01*
X808611D02*
X809411D01*
X818211Y439973D02*
X820811D01*
X810511D02*
X811211D01*
X808711D02*
X809411D01*
X818411Y440073D02*
X820811D01*
X810511D02*
X811211D01*
X808811D02*
X809611D01*
X818711Y440173D02*
X820611D01*
X810511D02*
X811211D01*
X808911D02*
X809711D01*
X819011Y440273D02*
X820611D01*
X810511D02*
X811211D01*
X809011D02*
X809711D01*
X819111Y440373D02*
X820511D01*
X810511D02*
X811211D01*
X809111D02*
X809911D01*
X819111Y440473D02*
X820311D01*
X810411D02*
X811111D01*
X809211D02*
X810011D01*
X819111Y440573D02*
X820311D01*
X810411D02*
X811111D01*
X809211D02*
X810011D01*
X819111Y440673D02*
X820211D01*
X810411D02*
X811111D01*
X809311D02*
X810211D01*
X819111Y440773D02*
X820011D01*
X810411D02*
X811111D01*
X809411D02*
X810311D01*
X819111Y440873D02*
X820011D01*
X810411D02*
X811111D01*
X809511D02*
X810311D01*
X819111Y440973D02*
X819911D01*
X809611D02*
X811111D01*
X819011Y441073D02*
X819911D01*
X809711D02*
X811111D01*
X818911Y441173D02*
X819911D01*
X809811D02*
X811111D01*
X818811Y441273D02*
X819911D01*
X809911D02*
X811111D01*
X818711Y441373D02*
X819911D01*
X810011D02*
X811111D01*
X818611Y441473D02*
X819911D01*
X810111D02*
X811111D01*
X818511Y441573D02*
X819911D01*
X810211D02*
X811111D01*
X818411Y441673D02*
X819911D01*
X810311D02*
X811211D01*
X819211Y441773D02*
X819911D01*
X818411D02*
X819111D01*
X810311D02*
X811211D01*
X819211Y441873D02*
X819911D01*
X818211D02*
X819011D01*
X810311D02*
X811411D01*
X819211Y441973D02*
X820011D01*
X818111D02*
X818911D01*
X810311D02*
X811511D01*
X819311Y442073D02*
X820011D01*
X818011D02*
X818811D01*
X810311D02*
X811511D01*
X819311Y442173D02*
X820011D01*
X817911D02*
X818711D01*
X810311D02*
X811711D01*
X819311Y442273D02*
X820011D01*
X817811D02*
X818611D01*
X810311D02*
X811811D01*
X819311Y442373D02*
X820011D01*
X817711D02*
X818611D01*
X810311D02*
X811811D01*
X819311Y442473D02*
X820011D01*
X817611D02*
X818511D01*
X811111D02*
X812011D01*
X810311D02*
X811011D01*
X819311Y442573D02*
X820011D01*
X817511D02*
X818411D01*
X811211D02*
X812111D01*
X810211D02*
X810911D01*
X819311Y442673D02*
X820011D01*
X817411D02*
X818311D01*
X811311D02*
X812211D01*
X810211D02*
X810911D01*
X819311Y442773D02*
X820011D01*
X817311D02*
X818211D01*
X811411D02*
X812311D01*
X810211D02*
X810911D01*
X819311Y442873D02*
X820011D01*
X817311D02*
X818011D01*
X811511D02*
X812411D01*
X810211D02*
X810911D01*
X819311Y442973D02*
X820011D01*
X817211D02*
X818011D01*
X811611D02*
X812511D01*
X810211D02*
X810911D01*
X819311Y443073D02*
X820011D01*
X817111D02*
X817911D01*
X811711D02*
X812611D01*
X810211D02*
X810911D01*
X819311Y443173D02*
X820011D01*
X817011D02*
X817711D01*
X811811D02*
X812611D01*
X810211D02*
X810911D01*
X819311Y443273D02*
X820111D01*
X816911D02*
X817711D01*
X811911D02*
X812711D01*
X810211D02*
X810911D01*
X819411Y443373D02*
X820111D01*
X816811D02*
X817611D01*
X812011D02*
X812811D01*
X810211D02*
X810911D01*
X819411Y443473D02*
X820111D01*
X816711D02*
X817511D01*
X812211D02*
X812911D01*
X810211D02*
X810911D01*
X819411Y443573D02*
X820111D01*
X816611D02*
X817411D01*
X812211D02*
X813011D01*
X810211D02*
X810911D01*
X819411Y443673D02*
X820111D01*
X816511D02*
X817311D01*
X812311D02*
X813111D01*
X810211D02*
X810911D01*
X819411Y443773D02*
X820111D01*
X816411D02*
X817211D01*
X812511D02*
X813211D01*
X810211D02*
X810911D01*
X819411Y443873D02*
X820111D01*
X816311D02*
X817111D01*
X812511D02*
X813311D01*
X810211D02*
X810911D01*
X819411Y443973D02*
X820211D01*
X816211D02*
X817011D01*
X812611D02*
X813411D01*
X810111D02*
X810811D01*
X819411Y444073D02*
X820211D01*
X816111D02*
X816911D01*
X812711D02*
X813511D01*
X810111D02*
X810811D01*
X819411Y444173D02*
X820211D01*
X816111D02*
X816811D01*
X812811D02*
X813611D01*
X810111D02*
X810811D01*
X819411Y444273D02*
X820211D01*
X815911D02*
X816711D01*
X812911D02*
X813711D01*
X810111D02*
X810811D01*
X819411Y444373D02*
X820211D01*
X815811D02*
X816611D01*
X813011D02*
X813811D01*
X810111D02*
X810811D01*
X819411Y444473D02*
X820211D01*
X815811D02*
X816511D01*
X813111D02*
X813911D01*
X810111D02*
X810811D01*
X819411Y444573D02*
X820211D01*
X815611D02*
X816411D01*
X813211D02*
X814011D01*
X810111D02*
X810811D01*
X819511Y444673D02*
X820211D01*
X815511D02*
X816411D01*
X813311D02*
X814111D01*
X810011D02*
X810811D01*
X819511Y444773D02*
X820211D01*
X815511D02*
X816311D01*
X813411D02*
X814211D01*
X810011D02*
X810811D01*
X819511Y444873D02*
X820211D01*
X815311D02*
X816211D01*
X813511D02*
X814311D01*
X810011D02*
X810811D01*
X819511Y444973D02*
X820211D01*
X815211D02*
X816111D01*
X813611D02*
X814411D01*
X810011D02*
X810811D01*
X819511Y445073D02*
X820211D01*
X815211D02*
X816011D01*
X813711D02*
X814511D01*
X810011D02*
X810811D01*
X819511Y445173D02*
X820311D01*
X815111D02*
X815911D01*
X813811D02*
X814611D01*
X810011D02*
X810811D01*
X819611Y445273D02*
X820311D01*
X815011D02*
X815811D01*
X813911D02*
X814711D01*
X810011D02*
X810811D01*
X819611Y445373D02*
X820311D01*
X814911D02*
X815711D01*
X814011D02*
X814811D01*
X810011D02*
X810711D01*
X819611Y445473D02*
X820311D01*
X814111D02*
X815611D01*
X810011D02*
X810711D01*
X819611Y445573D02*
X820311D01*
X814211D02*
X815511D01*
X810011D02*
X810711D01*
X819611Y445673D02*
X820311D01*
X814311D02*
X815411D01*
X810011D02*
X810711D01*
X819611Y445773D02*
X820311D01*
X814411D02*
X815311D01*
X810011D02*
X810711D01*
X819611Y445873D02*
X820311D01*
X814411D02*
X815311D01*
X810011D02*
X810711D01*
X819611Y445973D02*
X820311D01*
X814311D02*
X815411D01*
X810011D02*
X810711D01*
X819611Y446073D02*
X820311D01*
X814211D02*
X815511D01*
X809911D02*
X810611D01*
X819611Y446173D02*
X820311D01*
X814111D02*
X815611D01*
X809911D02*
X810611D01*
X819611Y446273D02*
X820311D01*
X814011D02*
X815711D01*
X809911D02*
X810611D01*
X819611Y446373D02*
X820311D01*
X815011D02*
X815811D01*
X814011D02*
X814711D01*
X809911D02*
X810611D01*
X819611Y446473D02*
X820411D01*
X815111D02*
X815911D01*
X813811D02*
X814611D01*
X809911D02*
X810611D01*
X819711Y446573D02*
X820411D01*
X815211D02*
X815911D01*
X813811D02*
X814611D01*
X809911D02*
X810611D01*
X819711Y446673D02*
X820411D01*
X815311D02*
X816111D01*
X813711D02*
X814411D01*
X809911D02*
X810611D01*
X819711Y446773D02*
X820411D01*
X815411D02*
X816211D01*
X813511D02*
X814311D01*
X809911D02*
X810611D01*
X819711Y446873D02*
X820411D01*
X815511D02*
X816211D01*
X813511D02*
X814311D01*
X809911D02*
X810611D01*
X819711Y446973D02*
X820411D01*
X815611D02*
X816411D01*
X813411D02*
X814111D01*
X809911D02*
X810611D01*
X819711Y447073D02*
X820511D01*
X815711D02*
X816511D01*
X813211D02*
X814111D01*
X809911D02*
X810611D01*
X819711Y447173D02*
X820511D01*
X815811D02*
X816511D01*
X813211D02*
X814011D01*
X809911D02*
X810611D01*
X819711Y447273D02*
X820511D01*
X815911D02*
X816711D01*
X813111D02*
X813911D01*
X809911D02*
X810611D01*
X819711Y447373D02*
X820511D01*
X815911D02*
X816811D01*
X812911D02*
X813811D01*
X809811D02*
X810611D01*
X819711Y447473D02*
X820511D01*
X816011D02*
X816811D01*
X812911D02*
X813711D01*
X809811D02*
X810511D01*
X819711Y447573D02*
X820511D01*
X816111D02*
X817011D01*
X812811D02*
X813611D01*
X809811D02*
X810511D01*
X819711Y447673D02*
X820511D01*
X816211D02*
X817111D01*
X812711D02*
X813511D01*
X809811D02*
X810511D01*
X819711Y447773D02*
X820511D01*
X816311D02*
X817111D01*
X812611D02*
X813411D01*
X809811D02*
X810511D01*
X819811Y447873D02*
X820511D01*
X816411D02*
X817311D01*
X812511D02*
X813311D01*
X809811D02*
X810511D01*
X819811Y447973D02*
X820511D01*
X816511D02*
X817411D01*
X812411D02*
X813211D01*
X809811D02*
X810511D01*
X819811Y448073D02*
X820511D01*
X816611D02*
X817411D01*
X812311D02*
X813111D01*
X809811D02*
X810511D01*
X819811Y448173D02*
X820511D01*
X816711D02*
X817611D01*
X812211D02*
X813011D01*
X809711D02*
X810511D01*
X819811Y448273D02*
X820511D01*
X816811D02*
X817711D01*
X812111D02*
X812911D01*
X809711D02*
X810511D01*
X819811Y448373D02*
X820511D01*
X816911D02*
X817711D01*
X812011D02*
X812911D01*
X809711D02*
X810511D01*
X819911Y448473D02*
X820611D01*
X817011D02*
X817911D01*
X811911D02*
X812811D01*
X809711D02*
X810511D01*
X819911Y448573D02*
X820611D01*
X817111D02*
X818011D01*
X811811D02*
X812611D01*
X809711D02*
X810511D01*
X819911Y448673D02*
X820611D01*
X817211D02*
X818011D01*
X811811D02*
X812611D01*
X809711D02*
X810511D01*
X819911Y448773D02*
X820611D01*
X817311D02*
X818211D01*
X811711D02*
X812511D01*
X809711D02*
X810511D01*
X819911Y448873D02*
X820611D01*
X817411D02*
X818311D01*
X811511D02*
X812311D01*
X809711D02*
X810411D01*
X819911Y448973D02*
X820611D01*
X817511D02*
X818411D01*
X811511D02*
X812311D01*
X809711D02*
X810411D01*
X819911Y449073D02*
X820611D01*
X813711D02*
X818511D01*
X811411D02*
X812211D01*
X809711D02*
X810411D01*
X819911Y449173D02*
X820611D01*
X813711D02*
X818611D01*
X811211D02*
X812011D01*
X809711D02*
X810411D01*
X819911Y449273D02*
X820611D01*
X813711D02*
X818711D01*
X811211D02*
X812011D01*
X809711D02*
X810411D01*
X819911Y449373D02*
X820611D01*
X813711D02*
X818811D01*
X811111D02*
X811911D01*
X809711D02*
X810411D01*
X819911Y449473D02*
X820611D01*
X813711D02*
X818811D01*
X810911D02*
X811811D01*
X809611D02*
X810411D01*
X819911Y449573D02*
X820611D01*
X813711D02*
X818911D01*
X810911D02*
X811711D01*
X809611D02*
X810311D01*
X819911Y449673D02*
X820711D01*
X813711D02*
X819011D01*
X810811D02*
X811611D01*
X809611D02*
X810311D01*
X820011Y449773D02*
X820711D01*
X818411D02*
X819111D01*
X813711D02*
X818211D01*
X810711D02*
X811511D01*
X809611D02*
X810311D01*
X820011Y449873D02*
X820711D01*
X818411D02*
X819211D01*
X813711D02*
X818211D01*
X810611D02*
X811411D01*
X809611D02*
X810311D01*
X820011Y449973D02*
X820711D01*
X818511D02*
X819311D01*
X813711D02*
X818211D01*
X810511D02*
X811311D01*
X809611D02*
X810311D01*
X820011Y450073D02*
X820711D01*
X818711D02*
X819411D01*
X813711D02*
X818211D01*
X810411D02*
X811211D01*
X809611D02*
X810311D01*
X820011Y450173D02*
X820711D01*
X818711D02*
X819511D01*
X813711D02*
X818211D01*
X809611D02*
X811111D01*
X820011Y450273D02*
X820711D01*
X818811D02*
X819611D01*
X813711D02*
X818211D01*
X809611D02*
X811011D01*
X820011Y450373D02*
X820811D01*
X819011D02*
X819711D01*
X813711D02*
X818211D01*
X809611D02*
X810911D01*
X819911Y450473D02*
X822411D01*
X819011D02*
X819811D01*
X813711D02*
X818211D01*
X809611D02*
X810811D01*
X819111Y450573D02*
X822411D01*
X809611D02*
X810711D01*
X819311Y450673D02*
X822411D01*
X809611D02*
X810611D01*
X819311Y450773D02*
X822411D01*
X809611D02*
X810611D01*
X819411Y450873D02*
X822411D01*
X809511D02*
X810511D01*
X819511Y450973D02*
X822411D01*
X809511D02*
X810311D01*
X819611Y451073D02*
X822411D01*
X809511D02*
X810311D01*
X821811Y451173D02*
X822411D01*
X819711D02*
X820811D01*
X809411D02*
X810211D01*
X821811Y451273D02*
X822411D01*
X819811D02*
X820811D01*
X809311D02*
X810211D01*
X821811Y451373D02*
X822411D01*
X819911D02*
X820811D01*
X809211D02*
X810211D01*
X821811Y451473D02*
X822411D01*
X819911D02*
X820811D01*
X809111D02*
X810211D01*
X821811Y451573D02*
X822411D01*
X819911D02*
X820911D01*
X809011D02*
X810211D01*
X821811Y451673D02*
X822411D01*
X819911D02*
X821011D01*
X808911D02*
X810211D01*
X821811Y451773D02*
X822411D01*
X819911D02*
X821111D01*
X808811D02*
X810211D01*
X821811Y451873D02*
X822411D01*
X819911D02*
X821211D01*
X808711D02*
X810211D01*
X821811Y451973D02*
X822411D01*
X819911D02*
X821311D01*
X808611D02*
X810211D01*
X821811Y452073D02*
X822411D01*
X819911D02*
X821411D01*
X809411D02*
X810211D01*
X808511D02*
X809311D01*
X821811Y452173D02*
X822411D01*
X819911D02*
X821511D01*
X809411D02*
X810211D01*
X808411D02*
X809211D01*
X821811Y452273D02*
X822411D01*
X819911D02*
X821611D01*
X809411D02*
X810211D01*
X808411D02*
X809111D01*
X819911Y452373D02*
X822411D01*
X809411D02*
X810111D01*
X808211D02*
X809011D01*
X819911Y452473D02*
X822411D01*
X809411D02*
X810111D01*
X808111D02*
X808911D01*
X819911Y452573D02*
X822411D01*
X809411D02*
X810111D01*
X808111D02*
X808811D01*
X819911Y452673D02*
X822411D01*
X809411D02*
X810111D01*
X807911D02*
X808711D01*
X819911Y452773D02*
X822411D01*
X809411D02*
X810111D01*
X807811D02*
X808611D01*
X819911Y452873D02*
X822411D01*
X809411D02*
X810111D01*
X807811D02*
X808511D01*
X821511Y452973D02*
X822311D01*
X820211D02*
X821011D01*
X809311D02*
X810111D01*
X807611D02*
X808511D01*
X821611Y453073D02*
X822411D01*
X820311D02*
X821011D01*
X809311D02*
X810011D01*
X807511D02*
X808411D01*
X821711Y453173D02*
X822411D01*
X820311D02*
X821011D01*
X809311D02*
X810011D01*
X807511D02*
X808311D01*
X821811Y453273D02*
X822611D01*
X820311D02*
X821011D01*
X809311D02*
X810011D01*
X807411D02*
X808211D01*
X821911Y453373D02*
X822711D01*
X820311D02*
X821011D01*
X809311D02*
X810011D01*
X807311D02*
X808111D01*
X822011Y453473D02*
X822711D01*
X820311D02*
X821011D01*
X809311D02*
X810011D01*
X807211D02*
X808011D01*
X822111Y453573D02*
X822911D01*
X820311D02*
X821111D01*
X809311D02*
X810011D01*
X807111D02*
X807911D01*
X822211Y453673D02*
X823011D01*
X820311D02*
X821111D01*
X809311D02*
X810011D01*
X807011D02*
X807811D01*
X822311Y453773D02*
X823011D01*
X820311D02*
X821111D01*
X809311D02*
X810011D01*
X806911D02*
X807711D01*
X822411Y453873D02*
X823211D01*
X820311D02*
X821111D01*
X809311D02*
X810011D01*
X806811D02*
X807611D01*
X822511Y453973D02*
X823311D01*
X820311D02*
X821111D01*
X809311D02*
X810011D01*
X806711D02*
X807511D01*
X822611Y454073D02*
X823311D01*
X820311D02*
X821811D01*
X809311D02*
X810011D01*
X806611D02*
X807411D01*
X822711Y454173D02*
X823511D01*
X808411D02*
X822011D01*
X806511D02*
X807311D01*
X822811Y454273D02*
X823611D01*
X808411D02*
X822111D01*
X806411D02*
X807211D01*
X822811Y454373D02*
X823611D01*
X808411D02*
X822211D01*
X806411D02*
X807211D01*
X822911Y454473D02*
X823811D01*
X808411D02*
X822311D01*
X806311D02*
X807011D01*
X823011Y454573D02*
X823911D01*
X808411D02*
X822311D01*
X806111D02*
X806911D01*
X823111Y454673D02*
X823911D01*
X808411D02*
X822411D01*
X806111D02*
X806911D01*
X823211Y454773D02*
X824111D01*
X808411D02*
X822411D01*
X806011D02*
X806711D01*
X823311Y454873D02*
X824211D01*
X820311D02*
X822411D01*
X810611D02*
X811911D01*
X809211D02*
X810011D01*
X805811D02*
X806611D01*
X823411Y454973D02*
X824211D01*
X820211D02*
X822411D01*
X810611D02*
X811911D01*
X809211D02*
X810011D01*
X805811D02*
X806611D01*
X823511Y455073D02*
X824411D01*
X820211D02*
X822411D01*
X810611D02*
X811911D01*
X809311D02*
X810111D01*
X805711D02*
X806411D01*
X823611Y455173D02*
X824511D01*
X820011D02*
X822411D01*
X810611D02*
X811911D01*
X809311D02*
X810211D01*
X805511D02*
X806311D01*
X823711Y455273D02*
X824511D01*
X820011D02*
X822411D01*
X810611D02*
X811911D01*
X809411D02*
X810311D01*
X805511D02*
X806311D01*
X823811Y455373D02*
X824711D01*
X819911D02*
X822311D01*
X810611D02*
X811911D01*
X809411D02*
X810511D01*
X805311D02*
X806211D01*
X823911Y455473D02*
X824811D01*
X819611D02*
X822311D01*
X813811D02*
X817411D01*
X809611D02*
X811911D01*
X805311D02*
X806111D01*
X824011Y455573D02*
X824911D01*
X819611D02*
X822211D01*
X813811D02*
X817411D01*
X809611D02*
X811911D01*
X805211D02*
X806011D01*
X824111Y455673D02*
X825011D01*
X820811D02*
X822111D01*
X819311D02*
X820611D01*
X813811D02*
X817411D01*
X809711D02*
X811911D01*
X805111D02*
X805911D01*
X824211Y455773D02*
X825111D01*
X820911D02*
X822011D01*
X819011D02*
X820511D01*
X813811D02*
X817411D01*
X809911D02*
X811911D01*
X805011D02*
X805811D01*
X824311Y455873D02*
X825211D01*
X821111D02*
X821811D01*
X818711D02*
X820411D01*
X813811D02*
X817411D01*
X809911D02*
X811911D01*
X804911D02*
X805711D01*
X824411Y455973D02*
X825311D01*
X818311D02*
X820211D01*
X813811D02*
X817411D01*
X810111D02*
X812211D01*
X804811D02*
X805611D01*
X824511Y456073D02*
X825411D01*
X817611D02*
X820011D01*
X813811D02*
X817411D01*
X810311D02*
X812911D01*
X804711D02*
X805511D01*
X824611Y456173D02*
X825511D01*
X813811D02*
X819911D01*
X810411D02*
X813411D01*
X804611D02*
X805411D01*
X824711Y456273D02*
X825511D01*
X816711D02*
X819711D01*
X810611D02*
X814611D01*
X804511D02*
X805311D01*
X824911Y456373D02*
X825611D01*
X816711D02*
X819411D01*
X810611D02*
X814611D01*
X804411D02*
X805211D01*
X824911Y456473D02*
X825711D01*
X816711D02*
X819311D01*
X810611D02*
X814611D01*
X804311D02*
X805111D01*
X825011Y456573D02*
X825811D01*
X810611D02*
X818811D01*
X804211D02*
X805011D01*
X825211Y456673D02*
X825911D01*
X812011D02*
X818411D01*
X810611D02*
X811911D01*
X804111D02*
X804911D01*
X825211Y456773D02*
X826011D01*
X812311D02*
X818011D01*
X804111D02*
X804911D01*
X825311Y456873D02*
X826111D01*
X813211D02*
X817411D01*
X804011D02*
X804711D01*
X825511Y456973D02*
X826211D01*
X813811D02*
X817411D01*
X803811D02*
X804611D01*
X825511Y457073D02*
X826311D01*
X813811D02*
X817411D01*
X803811D02*
X804611D01*
X825611Y457173D02*
X826411D01*
X813811D02*
X817411D01*
X803711D02*
X804411D01*
X825811Y457273D02*
X826511D01*
X803511D02*
X804311D01*
X825811Y457373D02*
X826611D01*
X803511D02*
X804311D01*
X825911Y457473D02*
X826711D01*
X803411D02*
X804111D01*
X826111Y457573D02*
X826811D01*
X803211D02*
X804011D01*
X826111Y457673D02*
X826911D01*
X803211D02*
X804011D01*
X826211Y457773D02*
X827011D01*
X803111D02*
X803911D01*
X826311Y457873D02*
X827111D01*
X803011D02*
X803811D01*
X826411Y457973D02*
X827211D01*
X802911D02*
X803711D01*
X826511Y458073D02*
X827311D01*
X802811D02*
X803611D01*
X826611Y458173D02*
X827411D01*
X802711D02*
X803511D01*
X826711Y458273D02*
X827511D01*
X802611D02*
X803411D01*
X826811Y458373D02*
X827611D01*
X802511D02*
X803311D01*
X826911Y458473D02*
X827711D01*
X802411D02*
X803211D01*
X827011Y458573D02*
X827811D01*
X802411D02*
X803111D01*
X827111Y458673D02*
X827811D01*
X802411D02*
X803011D01*
X827211Y458773D02*
X827811D01*
X802411D02*
X802911D01*
X827311Y458873D02*
X827811D01*
X802411D02*
X802811D01*
X827411Y458973D02*
X827811D01*
X802411D02*
X802811D01*
X827511Y459073D02*
X827811D01*
X802411D02*
X802611D01*
X827611Y459173D02*
X827811D01*
X802411D02*
X802611D01*
X827711Y459273D02*
X827811D01*
X804900Y731800D02*
X805400D01*
X802400D02*
X802900D01*
X795600D02*
X796000D01*
X792800D02*
X793300D01*
X790600D02*
X791100D01*
X804600Y731900D02*
X805700D01*
X802100D02*
X803200D01*
X800200D02*
X800600D01*
X799000D02*
X799400D01*
X796400D02*
X796800D01*
X795300D02*
X796200D01*
X794000D02*
X794400D01*
X792500D02*
X793600D01*
X790300D02*
X791400D01*
X788900D02*
X789200D01*
X804500Y732000D02*
X805900D01*
X802000D02*
X803400D01*
X800200D02*
X800600D01*
X799000D02*
X799400D01*
X796400D02*
X796800D01*
X795200D02*
X796300D01*
X793900D02*
X794300D01*
X792400D02*
X793800D01*
X790100D02*
X791500D01*
X788900D02*
X789200D01*
X804400Y732100D02*
X806000D01*
X801900D02*
X803500D01*
X800200D02*
X800600D01*
X799000D02*
X799400D01*
X795100D02*
X796800D01*
X793300D02*
X794300D01*
X792300D02*
X793000D01*
X790000D02*
X791600D01*
X788900D02*
X789200D01*
X805500Y732200D02*
X806100D01*
X804300D02*
X804800D01*
X803000D02*
X803500D01*
X801800D02*
X802300D01*
X800200D02*
X800600D01*
X799000D02*
X799400D01*
X796100D02*
X796800D01*
X795000D02*
X795500D01*
X793600D02*
X794300D01*
X792300D02*
X792800D01*
X791200D02*
X791700D01*
X789900D02*
X790500D01*
X788900D02*
X789200D01*
X805600Y732300D02*
X806100D01*
X804200D02*
X804700D01*
X803100D02*
X803600D01*
X801700D02*
X802200D01*
X800200D02*
X800600D01*
X799000D02*
X799400D01*
X796200D02*
X796800D01*
X794900D02*
X795400D01*
X793700D02*
X794300D01*
X792300D02*
X792700D01*
X791300D02*
X791800D01*
X789900D02*
X790400D01*
X788900D02*
X789200D01*
X805700Y732400D02*
X806200D01*
X804200D02*
X804600D01*
X803200D02*
X803700D01*
X801700D02*
X802100D01*
X800200D02*
X800600D01*
X799000D02*
X799400D01*
X796300D02*
X796800D01*
X794900D02*
X795300D01*
X793800D02*
X794300D01*
X792200D02*
X792700D01*
X791400D02*
X791800D01*
X789800D02*
X790300D01*
X788900D02*
X789200D01*
X805800Y732500D02*
X806200D01*
X804100D02*
X804600D01*
X803300D02*
X803700D01*
X801600D02*
X802100D01*
X800200D02*
X800600D01*
X799000D02*
X799400D01*
X796400D02*
X796800D01*
X794800D02*
X795200D01*
X793800D02*
X794300D01*
X792200D02*
X792700D01*
X791400D02*
X791800D01*
X789800D02*
X790200D01*
X788900D02*
X789200D01*
X804100Y732600D02*
X804500D01*
X801600D02*
X802000D01*
X800200D02*
X800600D01*
X799000D02*
X799400D01*
X796400D02*
X796800D01*
X794800D02*
X795200D01*
X793900D02*
X794300D01*
X792300D02*
X792700D01*
X789800D02*
X790200D01*
X788900D02*
X789200D01*
X804100Y732700D02*
X804500D01*
X801600D02*
X802000D01*
X800200D02*
X800600D01*
X799000D02*
X799400D01*
X796400D02*
X796800D01*
X794800D02*
X795200D01*
X793900D02*
X794300D01*
X792300D02*
X792800D01*
X789800D02*
X790200D01*
X788900D02*
X789200D01*
X804100Y732800D02*
X804500D01*
X801600D02*
X802000D01*
X800200D02*
X800600D01*
X799000D02*
X799400D01*
X797300D02*
X798400D01*
X796400D02*
X796800D01*
X794800D02*
X795200D01*
X793900D02*
X794300D01*
X792300D02*
X793000D01*
X789700D02*
X790100D01*
X788900D02*
X789200D01*
X804100Y732900D02*
X806200D01*
X801600D02*
X803600D01*
X800200D02*
X800600D01*
X799000D02*
X799400D01*
X797300D02*
X798500D01*
X796400D02*
X796800D01*
X794800D02*
X795100D01*
X793900D02*
X794300D01*
X792400D02*
X793500D01*
X789700D02*
X791800D01*
X788900D02*
X789200D01*
X804100Y733000D02*
X806200D01*
X801600D02*
X803700D01*
X800200D02*
X800600D01*
X799000D02*
X799400D01*
X797200D02*
X798500D01*
X796400D02*
X796800D01*
X794700D02*
X795100D01*
X792500D02*
X794300D01*
X789700D02*
X791900D01*
X788900D02*
X789200D01*
X804100Y733100D02*
X806200D01*
X801600D02*
X803700D01*
X800200D02*
X800600D01*
X799000D02*
X799400D01*
X797300D02*
X798500D01*
X796400D02*
X796800D01*
X794700D02*
X795100D01*
X792700D02*
X794300D01*
X789700D02*
X791900D01*
X788900D02*
X789200D01*
X804100Y733200D02*
X806200D01*
X801600D02*
X803700D01*
X800200D02*
X800600D01*
X799000D02*
X799400D01*
X796400D02*
X796800D01*
X794800D02*
X795200D01*
X793300D02*
X794300D01*
X789700D02*
X791900D01*
X788900D02*
X789200D01*
X805800Y733300D02*
X806200D01*
X804100D02*
X804500D01*
X803300D02*
X803700D01*
X801600D02*
X802000D01*
X800200D02*
X800600D01*
X799000D02*
X799400D01*
X796400D02*
X796800D01*
X794800D02*
X795200D01*
X793800D02*
X794300D01*
X791500D02*
X791900D01*
X789800D02*
X790200D01*
X788900D02*
X789200D01*
X805800Y733400D02*
X806200D01*
X804100D02*
X804500D01*
X803300D02*
X803700D01*
X801600D02*
X802000D01*
X800200D02*
X800600D01*
X799000D02*
X799400D01*
X796400D02*
X796800D01*
X794800D02*
X795200D01*
X793900D02*
X794300D01*
X791400D02*
X791800D01*
X789800D02*
X790200D01*
X788900D02*
X789200D01*
X805700Y733500D02*
X806200D01*
X804100D02*
X804500D01*
X803200D02*
X803600D01*
X801600D02*
X802000D01*
X800200D02*
X800600D01*
X799000D02*
X799400D01*
X796300D02*
X796800D01*
X794800D02*
X795200D01*
X793900D02*
X794300D01*
X792300D02*
X792700D01*
X791400D02*
X791800D01*
X789800D02*
X790200D01*
X788900D02*
X789200D01*
X805700Y733600D02*
X806100D01*
X804200D02*
X804600D01*
X803200D02*
X803600D01*
X801700D02*
X802100D01*
X800200D02*
X800700D01*
X799000D02*
X799400D01*
X796300D02*
X796800D01*
X794900D02*
X795300D01*
X793900D02*
X794300D01*
X792300D02*
X792800D01*
X791400D02*
X791800D01*
X789800D02*
X790300D01*
X788900D02*
X789200D01*
X805600Y733700D02*
X806100D01*
X804200D02*
X804700D01*
X803100D02*
X803600D01*
X801700D02*
X802200D01*
X800200D02*
X800700D01*
X799000D02*
X799400D01*
X796200D02*
X796800D01*
X794900D02*
X795300D01*
X793800D02*
X794300D01*
X792400D02*
X792800D01*
X791300D02*
X791700D01*
X789900D02*
X790300D01*
X788900D02*
X789200D01*
X805500Y733800D02*
X806000D01*
X804300D02*
X804800D01*
X803000D02*
X803500D01*
X801800D02*
X802300D01*
X801100D02*
X801300D01*
X800200D02*
X800900D01*
X799000D02*
X799400D01*
X796100D02*
X796800D01*
X795000D02*
X795500D01*
X793700D02*
X794200D01*
X792400D02*
X792900D01*
X791200D02*
X791700D01*
X790000D02*
X790500D01*
X788900D02*
X789200D01*
X804400Y733900D02*
X805900D01*
X801900D02*
X803400D01*
X800200D02*
X801400D01*
X798700D02*
X799800D01*
X795000D02*
X796800D01*
X792500D02*
X794200D01*
X790000D02*
X791600D01*
X788900D02*
X789200D01*
X804500Y734000D02*
X805800D01*
X802000D02*
X803300D01*
X800600D02*
X801400D01*
X800200D02*
X800500D01*
X798700D02*
X799900D01*
X796400D02*
X796800D01*
X795100D02*
X796300D01*
X792600D02*
X794100D01*
X790100D02*
X791500D01*
X788900D02*
X789200D01*
X804600Y734100D02*
X805700D01*
X802100D02*
X803200D01*
X800700D02*
X801400D01*
X800200D02*
X800500D01*
X798700D02*
X799900D01*
X796400D02*
X796800D01*
X795300D02*
X796200D01*
X792700D02*
X794000D01*
X790300D02*
X791300D01*
X788900D02*
X789200D01*
X804900Y734200D02*
X805400D01*
X802400D02*
X802900D01*
X800900D02*
X801200D01*
X799000D02*
X799400D01*
X796400D02*
X796800D01*
X795500D02*
X796000D01*
X793100D02*
X793700D01*
X790600D02*
X791100D01*
X788900D02*
X789200D01*
X799000Y734300D02*
X799400D01*
X796400D02*
X796800D01*
X788900D02*
X789200D01*
X799000Y734400D02*
X799400D01*
X796400D02*
X796800D01*
X788900D02*
X789200D01*
X799000Y734500D02*
X799400D01*
X796400D02*
X796800D01*
X788900D02*
X789200D01*
X799000Y734600D02*
X799400D01*
X796400D02*
X796800D01*
X788900D02*
X789200D01*
X799000Y734700D02*
X799500D01*
X796400D02*
X796800D01*
X788900D02*
X789200D01*
X799100Y734800D02*
X800000D01*
X796400D02*
X796800D01*
X788900D02*
X789200D01*
X799100Y734900D02*
X800000D01*
X796400D02*
X796800D01*
X788900D02*
X789200D01*
X799200Y735000D02*
X800000D01*
X796400D02*
X796800D01*
X788900D02*
X789200D01*
X799400Y735100D02*
X800000D01*
X795900Y735500D02*
X798600D01*
X795200Y735600D02*
X799400D01*
X794600Y735700D02*
X799900D01*
X794200Y735800D02*
X800300D01*
X793800Y735900D02*
X800700D01*
X793500Y736000D02*
X801000D01*
X793200Y736100D02*
X801300D01*
X792900Y736200D02*
X801600D01*
X792700Y736300D02*
X801800D01*
X792400Y736400D02*
X802100D01*
X792200Y736500D02*
X802300D01*
X792000Y736600D02*
X802600D01*
X791800Y736700D02*
X802800D01*
X791600Y736800D02*
X803000D01*
X791400Y736900D02*
X803100D01*
X791200Y737000D02*
X803300D01*
X791000Y737100D02*
X803500D01*
X790800Y737200D02*
X803700D01*
X790700Y737300D02*
X803800D01*
X790500Y737400D02*
X804000D01*
X790400Y737500D02*
X804100D01*
X798500Y737600D02*
X804300D01*
X790200D02*
X796000D01*
X799200Y737700D02*
X804400D01*
X790100D02*
X795400D01*
X799600Y737800D02*
X804600D01*
X789900D02*
X794900D01*
X800000Y737900D02*
X804700D01*
X789800D02*
X794500D01*
X800400Y738000D02*
X804800D01*
X789700D02*
X794200D01*
X800700Y738100D02*
X805000D01*
X789500D02*
X793900D01*
X800900Y738200D02*
X805100D01*
X789400D02*
X793600D01*
X801200Y738300D02*
X805200D01*
X789300D02*
X793300D01*
X801400Y738400D02*
X805300D01*
X789200D02*
X793100D01*
X801600Y738500D02*
X805500D01*
X789100D02*
X792900D01*
X801800Y738600D02*
X805600D01*
X789000D02*
X792700D01*
X802000Y738700D02*
X805700D01*
X788800D02*
X792500D01*
X802200Y738800D02*
X805800D01*
X788700D02*
X792300D01*
X802400Y738900D02*
X805900D01*
X788600D02*
X792100D01*
X802600Y739000D02*
X806000D01*
X788500D02*
X791900D01*
X802700Y739100D02*
X806100D01*
X788400D02*
X791800D01*
X802900Y739200D02*
X806200D01*
X788300D02*
X791600D01*
X803100Y739300D02*
X806300D01*
X788200D02*
X791500D01*
X803200Y739400D02*
X806400D01*
X788100D02*
X791300D01*
X803300Y739500D02*
X806500D01*
X788100D02*
X791200D01*
X803500Y739600D02*
X806600D01*
X788000D02*
X791000D01*
X803600Y739700D02*
X806600D01*
X787900D02*
X790900D01*
X803700Y739800D02*
X806700D01*
X787800D02*
X790800D01*
X803900Y739900D02*
X806800D01*
X787700D02*
X790700D01*
X804000Y740000D02*
X806900D01*
X787600D02*
X790600D01*
X804100Y740100D02*
X807000D01*
X787500D02*
X790400D01*
X804200Y740200D02*
X807100D01*
X787500D02*
X790300D01*
X804300Y740300D02*
X807100D01*
X787400D02*
X790200D01*
X804400Y740400D02*
X807200D01*
X787300D02*
X790100D01*
X804500Y740500D02*
X807300D01*
X787200D02*
X790000D01*
X804600Y740600D02*
X807400D01*
X787200D02*
X789900D01*
X804700Y740700D02*
X807400D01*
X787100D02*
X789800D01*
X804800Y740800D02*
X807500D01*
X787000D02*
X789700D01*
X804900Y740900D02*
X807600D01*
X787000D02*
X789600D01*
X805000Y741000D02*
X807600D01*
X786900D02*
X789500D01*
X805100Y741100D02*
X807700D01*
X786800D02*
X789400D01*
X805200Y741200D02*
X807800D01*
X786800D02*
X789400D01*
X805200Y741300D02*
X807800D01*
X786700D02*
X789300D01*
X805300Y741400D02*
X807900D01*
X786600D02*
X789200D01*
X805400Y741500D02*
X807900D01*
X786600D02*
X789100D01*
X805500Y741600D02*
X808000D01*
X786500D02*
X789000D01*
X805600Y741700D02*
X808100D01*
X786500D02*
X789000D01*
X805600Y741800D02*
X808100D01*
X786400D02*
X788900D01*
X805700Y741900D02*
X808200D01*
X786300D02*
X788800D01*
X805800Y742000D02*
X808200D01*
X786300D02*
X788700D01*
X805800Y742100D02*
X808300D01*
X786200D02*
X788700D01*
X805900Y742200D02*
X808300D01*
X786200D02*
X788600D01*
X806000Y742300D02*
X808400D01*
X786100D02*
X788500D01*
X806000Y742400D02*
X808400D01*
X786100D02*
X788500D01*
X806100Y742500D02*
X808500D01*
X802300D02*
X803900D01*
X786000D02*
X788400D01*
X805900Y742600D02*
X808500D01*
X802000D02*
X804300D01*
X799600D02*
X800900D01*
X789400D02*
X790900D01*
X786000D02*
X788400D01*
X805700Y742700D02*
X808600D01*
X801800D02*
X804500D01*
X799600D02*
X800900D01*
X789400D02*
X790900D01*
X785900D02*
X788300D01*
X805500Y742800D02*
X808600D01*
X801700D02*
X804700D01*
X799600D02*
X800900D01*
X789400D02*
X790900D01*
X785900D02*
X788200D01*
X805300Y742900D02*
X808700D01*
X801500D02*
X804900D01*
X799600D02*
X800900D01*
X789400D02*
X790900D01*
X785900D02*
X788200D01*
X805100Y743000D02*
X808700D01*
X801400D02*
X805000D01*
X799600D02*
X800900D01*
X789400D02*
X790900D01*
X785800D02*
X788100D01*
X801300Y743100D02*
X808800D01*
X799600D02*
X800900D01*
X789400D02*
X790900D01*
X785800D02*
X788100D01*
X801200Y743200D02*
X808800D01*
X799600D02*
X800900D01*
X789400D02*
X790900D01*
X785700D02*
X788000D01*
X801100Y743300D02*
X808800D01*
X799600D02*
X800900D01*
X789400D02*
X790900D01*
X785700D02*
X788000D01*
X801000Y743400D02*
X808900D01*
X799600D02*
X800900D01*
X789400D02*
X790900D01*
X785600D02*
X787900D01*
X799600Y743500D02*
X808900D01*
X789400D02*
X790900D01*
X785600D02*
X787900D01*
X803500Y743600D02*
X808900D01*
X799600D02*
X802500D01*
X789400D02*
X790900D01*
X785600D02*
X787800D01*
X803700Y743700D02*
X809000D01*
X799600D02*
X802200D01*
X789400D02*
X790900D01*
X785500D02*
X787800D01*
X803600Y743800D02*
X809000D01*
X799600D02*
X802000D01*
X789400D02*
X790900D01*
X785500D02*
X787800D01*
X806800Y743900D02*
X809100D01*
X803400D02*
X806700D01*
X799600D02*
X801900D01*
X789400D02*
X790900D01*
X785500D02*
X787700D01*
X806900Y744000D02*
X809100D01*
X803200D02*
X806500D01*
X799600D02*
X801800D01*
X789400D02*
X790900D01*
X785400D02*
X787700D01*
X806900Y744100D02*
X809100D01*
X803000D02*
X806300D01*
X799600D02*
X801700D01*
X789400D02*
X790900D01*
X785400D02*
X787600D01*
X806900Y744200D02*
X809200D01*
X802800D02*
X806100D01*
X799600D02*
X801600D01*
X789400D02*
X790900D01*
X785400D02*
X787600D01*
X807000Y744300D02*
X809200D01*
X802600D02*
X806100D01*
X799600D02*
X801500D01*
X789400D02*
X790900D01*
X785300D02*
X787600D01*
X807000Y744400D02*
X809200D01*
X802400D02*
X806200D01*
X799600D02*
X801400D01*
X789400D02*
X790900D01*
X785300D02*
X787500D01*
X807000Y744500D02*
X809200D01*
X802200D02*
X806200D01*
X799600D02*
X801300D01*
X789400D02*
X790900D01*
X785300D02*
X787500D01*
X807100Y744600D02*
X809300D01*
X802000D02*
X806200D01*
X799600D02*
X801300D01*
X789400D02*
X790900D01*
X785300D02*
X787400D01*
X807100Y744700D02*
X809300D01*
X801800D02*
X806300D01*
X799600D02*
X801200D01*
X789400D02*
X790900D01*
X785200D02*
X787400D01*
X807100Y744800D02*
X809300D01*
X801600D02*
X806300D01*
X799600D02*
X801200D01*
X789400D02*
X790900D01*
X785200D02*
X787400D01*
X807200Y744900D02*
X809300D01*
X804900D02*
X806400D01*
X801400D02*
X804800D01*
X799600D02*
X801100D01*
X789400D02*
X790900D01*
X785200D02*
X787400D01*
X807200Y745000D02*
X809400D01*
X804900D02*
X806400D01*
X801200D02*
X804600D01*
X799600D02*
X801100D01*
X789400D02*
X790900D01*
X785200D02*
X787300D01*
X807200Y745100D02*
X809400D01*
X805000D02*
X806400D01*
X799600D02*
X804400D01*
X789400D02*
X790900D01*
X785100D02*
X787300D01*
X807300Y745200D02*
X809400D01*
X805000D02*
X806400D01*
X799600D02*
X804200D01*
X789400D02*
X790900D01*
X785100D02*
X787300D01*
X807300Y745300D02*
X809400D01*
X805000D02*
X806500D01*
X799600D02*
X804000D01*
X789400D02*
X790900D01*
X785100D02*
X787200D01*
X807300Y745400D02*
X809500D01*
X805100D02*
X806500D01*
X799600D02*
X803800D01*
X789400D02*
X790900D01*
X785100D02*
X787200D01*
X807300Y745500D02*
X809500D01*
X805100D02*
X806500D01*
X799600D02*
X803600D01*
X789400D02*
X790900D01*
X785000D02*
X787200D01*
X807300Y745600D02*
X809500D01*
X805100D02*
X806500D01*
X799600D02*
X803400D01*
X789400D02*
X790900D01*
X785000D02*
X787200D01*
X807400Y745700D02*
X809500D01*
X805100D02*
X806500D01*
X799600D02*
X803200D01*
X789400D02*
X790900D01*
X785000D02*
X787100D01*
X807400Y745800D02*
X809500D01*
X805100D02*
X806600D01*
X799600D02*
X803000D01*
X789400D02*
X790900D01*
X785000D02*
X787100D01*
X807400Y745900D02*
X809500D01*
X805200D02*
X806600D01*
X799500D02*
X802800D01*
X789400D02*
X790900D01*
X785000D02*
X787100D01*
X807400Y746000D02*
X809600D01*
X805200D02*
X806600D01*
X799300D02*
X802600D01*
X789400D02*
X790900D01*
X785000D02*
X787100D01*
X807500Y746100D02*
X809600D01*
X805200D02*
X806600D01*
X799100D02*
X802400D01*
X789400D02*
X790900D01*
X784900D02*
X787100D01*
X807500Y746200D02*
X809600D01*
X805200D02*
X806600D01*
X798900D02*
X802200D01*
X789400D02*
X790900D01*
X784900D02*
X787100D01*
X807500Y746300D02*
X809600D01*
X805200D02*
X806600D01*
X798700D02*
X802000D01*
X789400D02*
X790900D01*
X784900D02*
X787000D01*
X807500Y746400D02*
X809600D01*
X805200D02*
X806600D01*
X798500D02*
X801800D01*
X789400D02*
X790900D01*
X784900D02*
X787000D01*
X807500Y746500D02*
X809600D01*
X805200D02*
X806600D01*
X798300D02*
X801600D01*
X789400D02*
X790900D01*
X784900D02*
X787000D01*
X807500Y746600D02*
X809600D01*
X805200D02*
X806600D01*
X798100D02*
X801400D01*
X789400D02*
X790900D01*
X784900D02*
X787000D01*
X807500Y746700D02*
X809600D01*
X805200D02*
X806600D01*
X797900D02*
X801200D01*
X789400D02*
X790900D01*
X784900D02*
X787000D01*
X807500Y746800D02*
X809700D01*
X805200D02*
X806600D01*
X797700D02*
X801000D01*
X789400D02*
X790900D01*
X784900D02*
X787000D01*
X807600Y746900D02*
X809700D01*
X805200D02*
X806600D01*
X797500D02*
X800900D01*
X789400D02*
X790900D01*
X784900D02*
X787000D01*
X807600Y747000D02*
X809700D01*
X805200D02*
X806600D01*
X797300D02*
X800900D01*
X789400D02*
X790900D01*
X784800D02*
X787000D01*
X807600Y747100D02*
X809700D01*
X805200D02*
X806600D01*
X797100D02*
X800900D01*
X789400D02*
X790900D01*
X784800D02*
X786900D01*
X807600Y747200D02*
X809700D01*
X805200D02*
X806600D01*
X796900D02*
X800900D01*
X789400D02*
X795000D01*
X784800D02*
X786900D01*
X807600Y747300D02*
X809700D01*
X805200D02*
X806600D01*
X796700D02*
X800900D01*
X789400D02*
X795500D01*
X784800D02*
X786900D01*
X807600Y747400D02*
X809700D01*
X805200D02*
X806600D01*
X796500D02*
X800900D01*
X789400D02*
X795900D01*
X784800D02*
X786900D01*
X807600Y747500D02*
X809700D01*
X805100D02*
X806600D01*
X796300D02*
X800900D01*
X789400D02*
X796100D01*
X784800D02*
X786900D01*
X807600Y747600D02*
X809700D01*
X805100D02*
X806600D01*
X799600D02*
X800900D01*
X789400D02*
X799500D01*
X784800D02*
X786900D01*
X807600Y747700D02*
X809700D01*
X805100D02*
X806500D01*
X799600D02*
X801000D01*
X789400D02*
X799300D01*
X784800D02*
X786900D01*
X807600Y747800D02*
X809700D01*
X805100D02*
X806500D01*
X799600D02*
X801000D01*
X789400D02*
X799100D01*
X784800D02*
X786900D01*
X807600Y747900D02*
X809700D01*
X805100D02*
X806500D01*
X799600D02*
X801000D01*
X789400D02*
X798900D01*
X784800D02*
X786900D01*
X807600Y748000D02*
X809700D01*
X805000D02*
X806500D01*
X799600D02*
X801000D01*
X789400D02*
X798700D01*
X784800D02*
X786900D01*
X807600Y748100D02*
X809700D01*
X805000D02*
X806500D01*
X799600D02*
X801100D01*
X789400D02*
X798500D01*
X784800D02*
X786900D01*
X807600Y748200D02*
X809700D01*
X805000D02*
X806400D01*
X799600D02*
X801100D01*
X789400D02*
X798300D01*
X784800D02*
X786900D01*
X807600Y748300D02*
X809700D01*
X804900D02*
X806400D01*
X799600D02*
X801100D01*
X789400D02*
X798100D01*
X784800D02*
X786900D01*
X807600Y748400D02*
X809700D01*
X804900D02*
X806400D01*
X799600D02*
X801200D01*
X789400D02*
X797900D01*
X784800D02*
X786900D01*
X807600Y748500D02*
X809700D01*
X804900D02*
X806300D01*
X799600D02*
X801200D01*
X794300D02*
X797700D01*
X789400D02*
X790900D01*
X784800D02*
X786900D01*
X807600Y748600D02*
X809700D01*
X804800D02*
X806300D01*
X799600D02*
X801300D01*
X794200D02*
X797500D01*
X789400D02*
X790900D01*
X784800D02*
X786900D01*
X807600Y748700D02*
X809700D01*
X804800D02*
X806300D01*
X799600D02*
X801400D01*
X794000D02*
X797500D01*
X789400D02*
X790900D01*
X784800D02*
X787000D01*
X807600Y748800D02*
X809700D01*
X804700D02*
X806200D01*
X799600D02*
X801400D01*
X793800D02*
X797500D01*
X789400D02*
X790900D01*
X784900D02*
X787000D01*
X807600Y748900D02*
X809700D01*
X804600D02*
X806200D01*
X799600D02*
X801500D01*
X793600D02*
X797600D01*
X789400D02*
X790900D01*
X784900D02*
X787000D01*
X807500Y749000D02*
X809700D01*
X804500D02*
X806100D01*
X799600D02*
X801600D01*
X793400D02*
X797600D01*
X789400D02*
X790900D01*
X784900D02*
X787000D01*
X807500Y749100D02*
X809600D01*
X804500D02*
X806100D01*
X799600D02*
X801700D01*
X793200D02*
X797700D01*
X789400D02*
X790900D01*
X784900D02*
X787000D01*
X807500Y749200D02*
X809600D01*
X804400D02*
X806000D01*
X799600D02*
X801800D01*
X793000D02*
X797700D01*
X789400D02*
X790900D01*
X784900D02*
X787000D01*
X807500Y749300D02*
X809600D01*
X804200D02*
X806000D01*
X799600D02*
X801900D01*
X792800D02*
X797700D01*
X789400D02*
X790900D01*
X784900D02*
X787000D01*
X807500Y749400D02*
X809600D01*
X804100D02*
X805900D01*
X799600D02*
X802000D01*
X796100D02*
X797800D01*
X792600D02*
X795900D01*
X789400D02*
X790900D01*
X784900D02*
X787000D01*
X807500Y749500D02*
X809600D01*
X803900D02*
X805800D01*
X799600D02*
X802200D01*
X796200D02*
X797800D01*
X792400D02*
X795800D01*
X789400D02*
X790900D01*
X784900D02*
X787000D01*
X807500Y749600D02*
X809600D01*
X803700D02*
X805800D01*
X799600D02*
X802400D01*
X796200D02*
X797800D01*
X792200D02*
X795600D01*
X789400D02*
X790900D01*
X784900D02*
X787100D01*
X807400Y749700D02*
X809600D01*
X803300D02*
X805700D01*
X799600D02*
X802800D01*
X796300D02*
X797800D01*
X792000D02*
X795400D01*
X789400D02*
X790900D01*
X785000D02*
X787100D01*
X807400Y749800D02*
X809600D01*
X799600D02*
X805600D01*
X796300D02*
X797900D01*
X791800D02*
X795200D01*
X789400D02*
X790900D01*
X785000D02*
X787100D01*
X807400Y749900D02*
X809500D01*
X801100D02*
X805500D01*
X799600D02*
X801000D01*
X796300D02*
X797900D01*
X791600D02*
X795000D01*
X789400D02*
X790900D01*
X785000D02*
X787100D01*
X807400Y750000D02*
X809500D01*
X801200D02*
X805400D01*
X799600D02*
X801000D01*
X796300D02*
X797900D01*
X791400D02*
X794800D01*
X789400D02*
X790900D01*
X785000D02*
X787100D01*
X807400Y750100D02*
X809500D01*
X801300D02*
X805300D01*
X799600D02*
X801000D01*
X796400D02*
X797900D01*
X791200D02*
X794600D01*
X789400D02*
X790900D01*
X785000D02*
X787200D01*
X807300Y750200D02*
X809500D01*
X801400D02*
X805200D01*
X799600D02*
X801000D01*
X796400D02*
X797900D01*
X791000D02*
X794400D01*
X789400D02*
X790900D01*
X785000D02*
X787200D01*
X807300Y750300D02*
X809500D01*
X801500D02*
X805100D01*
X799600D02*
X801000D01*
X796400D02*
X797900D01*
X789400D02*
X794200D01*
X785100D02*
X787200D01*
X807300Y750400D02*
X809400D01*
X801600D02*
X804900D01*
X799600D02*
X801000D01*
X796400D02*
X797900D01*
X789400D02*
X794000D01*
X785100D02*
X787200D01*
X807300Y750500D02*
X809400D01*
X801800D02*
X804700D01*
X799600D02*
X801000D01*
X796400D02*
X797900D01*
X789400D02*
X793800D01*
X785100D02*
X787300D01*
X807200Y750600D02*
X809400D01*
X802000D02*
X804500D01*
X799600D02*
X801000D01*
X796400D02*
X797900D01*
X789400D02*
X793600D01*
X785100D02*
X787300D01*
X807200Y750700D02*
X809400D01*
X802200D02*
X804200D01*
X799600D02*
X801000D01*
X796400D02*
X797900D01*
X789400D02*
X793400D01*
X785100D02*
X787300D01*
X807200Y750800D02*
X809400D01*
X802600D02*
X803800D01*
X799600D02*
X801000D01*
X796400D02*
X797900D01*
X789400D02*
X793200D01*
X785200D02*
X787300D01*
X807200Y750900D02*
X809300D01*
X799600D02*
X801000D01*
X796300D02*
X797900D01*
X789400D02*
X793000D01*
X785200D02*
X787400D01*
X807100Y751000D02*
X809300D01*
X799600D02*
X801000D01*
X796300D02*
X797900D01*
X789400D02*
X792800D01*
X785200D02*
X787400D01*
X807100Y751100D02*
X809300D01*
X799600D02*
X801000D01*
X796300D02*
X797900D01*
X789300D02*
X792600D01*
X785200D02*
X787400D01*
X807100Y751200D02*
X809300D01*
X799600D02*
X801000D01*
X796300D02*
X797900D01*
X789100D02*
X792400D01*
X785300D02*
X787500D01*
X807000Y751300D02*
X809200D01*
X799600D02*
X801000D01*
X796200D02*
X797800D01*
X788900D02*
X792200D01*
X785300D02*
X787500D01*
X807000Y751400D02*
X809200D01*
X799600D02*
X801000D01*
X796200D02*
X797800D01*
X788700D02*
X792000D01*
X785300D02*
X787500D01*
X807000Y751500D02*
X809200D01*
X799600D02*
X801000D01*
X796100D02*
X797800D01*
X788500D02*
X791800D01*
X785400D02*
X787600D01*
X806900Y751600D02*
X809100D01*
X799600D02*
X801000D01*
X796100D02*
X797800D01*
X788300D02*
X791600D01*
X785400D02*
X787600D01*
X806900Y751700D02*
X809100D01*
X799600D02*
X801000D01*
X796000D02*
X797700D01*
X788100D02*
X791400D01*
X785400D02*
X787600D01*
X806800Y751800D02*
X809100D01*
X799600D02*
X801000D01*
X795900D02*
X797700D01*
X787900D02*
X791200D01*
X785500D02*
X787700D01*
X806800Y751900D02*
X809000D01*
X799600D02*
X801000D01*
X795800D02*
X797600D01*
X785500D02*
X791100D01*
X806700Y752000D02*
X809000D01*
X799600D02*
X801000D01*
X795700D02*
X797600D01*
X785500D02*
X790900D01*
X806700Y752100D02*
X809000D01*
X799600D02*
X801000D01*
X795600D02*
X797500D01*
X785600D02*
X790900D01*
X806700Y752200D02*
X808900D01*
X799600D02*
X801000D01*
X795400D02*
X797500D01*
X785600D02*
X790900D01*
X806600Y752300D02*
X808900D01*
X799600D02*
X801000D01*
X795200D02*
X797400D01*
X785600D02*
X790900D01*
X806600Y752400D02*
X808900D01*
X799600D02*
X801000D01*
X794400D02*
X797400D01*
X785700D02*
X790900D01*
X806500Y752500D02*
X808800D01*
X799600D02*
X801000D01*
X785700D02*
X797300D01*
X806500Y752600D02*
X808800D01*
X799600D02*
X801000D01*
X785700D02*
X797200D01*
X806400Y752700D02*
X808700D01*
X799600D02*
X801000D01*
X785800D02*
X797100D01*
X806400Y752800D02*
X808700D01*
X799600D02*
X801000D01*
X789400D02*
X797100D01*
X785800D02*
X789300D01*
X806300Y752900D02*
X808700D01*
X799600D02*
X801000D01*
X789400D02*
X796900D01*
X785900D02*
X789100D01*
X806300Y753000D02*
X808600D01*
X799600D02*
X801000D01*
X789400D02*
X796800D01*
X785900D02*
X788900D01*
X806200Y753100D02*
X808600D01*
X799600D02*
X801000D01*
X789400D02*
X796700D01*
X786000D02*
X788700D01*
X806100Y753200D02*
X808500D01*
X799600D02*
X801000D01*
X789400D02*
X796600D01*
X786000D02*
X788500D01*
X806100Y753300D02*
X808500D01*
X799600D02*
X801000D01*
X789400D02*
X796400D01*
X786100D02*
X788500D01*
X806000Y753400D02*
X808400D01*
X799600D02*
X801000D01*
X789400D02*
X796200D01*
X786100D02*
X788500D01*
X805900Y753500D02*
X808400D01*
X799600D02*
X801000D01*
X789400D02*
X795900D01*
X786200D02*
X788600D01*
X805900Y753600D02*
X808300D01*
X799600D02*
X801000D01*
X789400D02*
X795500D01*
X786200D02*
X788600D01*
X805800Y753700D02*
X808300D01*
X799600D02*
X801000D01*
X789400D02*
X794800D01*
X786300D02*
X788700D01*
X805700Y753800D02*
X808200D01*
X786300D02*
X788800D01*
X805700Y753900D02*
X808200D01*
X786400D02*
X788800D01*
X805600Y754000D02*
X808100D01*
X786400D02*
X788900D01*
X805500Y754100D02*
X808000D01*
X786500D02*
X789000D01*
X805400Y754200D02*
X808000D01*
X786500D02*
X789100D01*
X805400Y754300D02*
X807900D01*
X786600D02*
X789200D01*
X805300Y754400D02*
X807900D01*
X786700D02*
X789200D01*
X805200Y754500D02*
X807800D01*
X786700D02*
X789300D01*
X805100Y754600D02*
X807700D01*
X786800D02*
X789400D01*
X805000Y754700D02*
X807700D01*
X786800D02*
X789500D01*
X804900Y754800D02*
X807600D01*
X786900D02*
X789600D01*
X804900Y754900D02*
X807500D01*
X787000D02*
X789700D01*
X804800Y755000D02*
X807500D01*
X787100D02*
X789800D01*
X804700Y755100D02*
X807400D01*
X787100D02*
X789800D01*
X804600Y755200D02*
X807300D01*
X787200D02*
X789900D01*
X804500Y755300D02*
X807300D01*
X787300D02*
X790000D01*
X804400Y755400D02*
X807200D01*
X787300D02*
X790200D01*
X804300Y755500D02*
X807100D01*
X787400D02*
X790300D01*
X804100Y755600D02*
X807000D01*
X787500D02*
X790400D01*
X804000Y755700D02*
X806900D01*
X787600D02*
X790500D01*
X803900Y755800D02*
X806900D01*
X787700D02*
X790600D01*
X803800Y755900D02*
X806800D01*
X787700D02*
X790700D01*
X803700Y756000D02*
X806700D01*
X787800D02*
X790900D01*
X803500Y756100D02*
X806600D01*
X787900D02*
X791000D01*
X803400Y756200D02*
X806500D01*
X788000D02*
X791100D01*
X803300Y756300D02*
X806400D01*
X788100D02*
X791200D01*
X803100Y756400D02*
X806300D01*
X788200D02*
X791400D01*
X803000Y756500D02*
X806200D01*
X788300D02*
X791500D01*
X802800Y756600D02*
X806100D01*
X788400D02*
X791700D01*
X802700Y756700D02*
X806000D01*
X788500D02*
X791800D01*
X802500Y756800D02*
X805900D01*
X788600D02*
X792000D01*
X802300Y756900D02*
X805800D01*
X788700D02*
X792200D01*
X802100Y757000D02*
X805700D01*
X788800D02*
X792400D01*
X802000Y757100D02*
X805600D01*
X788900D02*
X792600D01*
X801800Y757200D02*
X805500D01*
X789000D02*
X792800D01*
X801500Y757300D02*
X805400D01*
X789100D02*
X793000D01*
X801300Y757400D02*
X805300D01*
X789200D02*
X793200D01*
X801100Y757500D02*
X805200D01*
X789400D02*
X793400D01*
X800800Y757600D02*
X805000D01*
X789500D02*
X793700D01*
X800500Y757700D02*
X804900D01*
X789600D02*
X794000D01*
X800200Y757800D02*
X804800D01*
X789700D02*
X794300D01*
X799900Y757900D02*
X804600D01*
X789900D02*
X794700D01*
X799400Y758000D02*
X804500D01*
X790000D02*
X795100D01*
X798900Y758100D02*
X804400D01*
X790200D02*
X795600D01*
X798000Y758200D02*
X804200D01*
X790300D02*
X796500D01*
X790400Y758300D02*
X804100D01*
X790600Y758400D02*
X803900D01*
X790800Y758500D02*
X803800D01*
X790900Y758600D02*
X803600D01*
X791100Y758700D02*
X803400D01*
X791300Y758800D02*
X803200D01*
X791500Y758900D02*
X803100D01*
X791700Y759000D02*
X802900D01*
X791900Y759100D02*
X802700D01*
X792100Y759200D02*
X802400D01*
X792300Y759300D02*
X802200D01*
X792500Y759400D02*
X802000D01*
X792800Y759500D02*
X801700D01*
X793100Y759600D02*
X801500D01*
X793300Y759700D02*
X801200D01*
X793700Y759800D02*
X800900D01*
X794000Y759900D02*
X800500D01*
X794400Y760000D02*
X800100D01*
X794900Y760100D02*
X799600D01*
X795500Y760200D02*
X799100D01*
X796400Y760300D02*
X798100D01*
X792100Y653300D02*
X795300D01*
X790700Y653200D02*
X796700D01*
X790400Y653100D02*
X797000D01*
X789800Y653000D02*
X797700D01*
X789100Y652900D02*
X798400D01*
X788700Y652800D02*
X798900D01*
X788100Y652700D02*
X799400D01*
X787700Y652600D02*
X799800D01*
X787300Y652500D02*
X800300D01*
X786900Y652400D02*
X800600D01*
X786600Y652300D02*
X801000D01*
X786200Y652200D02*
X801400D01*
X786000Y652100D02*
X801700D01*
X785600Y652000D02*
X802000D01*
X785400Y651900D02*
X802300D01*
X785200Y651800D02*
X802600D01*
X784900Y651700D02*
X802900D01*
X784800Y651600D02*
X803000D01*
X784500Y651500D02*
X803500D01*
X784400Y651400D02*
X803500D01*
X784100Y651300D02*
X804000D01*
X784000Y651200D02*
X804000D01*
X783700Y651100D02*
X804500D01*
X783700Y651000D02*
X804500D01*
X783500Y650900D02*
X804700D01*
X783300Y650800D02*
X805000D01*
X783100Y650700D02*
X805200D01*
X783000Y650600D02*
X805400D01*
X782800Y650500D02*
X805700D01*
X782700Y650400D02*
X805900D01*
X782600Y650300D02*
X806000D01*
X782400Y650200D02*
X806200D01*
X782300Y650100D02*
X806400D01*
X782200Y650000D02*
X806600D01*
X782000Y649900D02*
X806800D01*
X781900Y649800D02*
X806900D01*
X781800Y649700D02*
X806900D01*
X781600Y649600D02*
X806900D01*
X781600Y649500D02*
X806900D01*
X781400Y649400D02*
X806900D01*
X781400Y649300D02*
X806900D01*
X781200Y649200D02*
X806900D01*
X781200Y649100D02*
X806900D01*
X781000Y649000D02*
X806900D01*
X781000Y648900D02*
X806900D01*
X780900Y648800D02*
X806900D01*
X780800Y648700D02*
X806900D01*
X780700Y648600D02*
X806900D01*
X780600Y648500D02*
X806900D01*
X780500Y648400D02*
X806900D01*
X780400Y648300D02*
X806900D01*
X780300Y648200D02*
X806900D01*
X780300Y648100D02*
X806900D01*
X780200Y648000D02*
X806900D01*
X780100Y647900D02*
X806900D01*
X780000Y647800D02*
X806900D01*
X780000Y647700D02*
X806900D01*
X779900Y647600D02*
X806900D01*
X779800Y647500D02*
X806900D01*
X779800Y647400D02*
X806900D01*
X779700Y647300D02*
X806900D01*
X779600Y647200D02*
X784800D01*
X785900D02*
X806900D01*
X779500Y647100D02*
X784400D01*
X786300D02*
X806900D01*
X779500Y647000D02*
X783900D01*
X786800D02*
X806900D01*
X779400Y646900D02*
X783700D01*
X787000D02*
X806900D01*
X779300Y646800D02*
X783400D01*
X787300D02*
X806900D01*
X779300Y646700D02*
X783200D01*
X787500D02*
X806900D01*
X779200Y646600D02*
X783000D01*
X787700D02*
X806900D01*
X779100Y646500D02*
X782800D01*
X787900D02*
X796700D01*
X799900D02*
X806900D01*
X779100Y646400D02*
X782700D01*
X788000D02*
X796400D01*
X800400D02*
X806900D01*
X779100Y646300D02*
X782500D01*
X788200D02*
X796000D01*
X801100D02*
X806900D01*
X778900Y646200D02*
X782400D01*
X788200D02*
X795700D01*
X801500D02*
X806900D01*
X778900Y646100D02*
X782300D01*
X788400D02*
X795300D01*
X802000D02*
X806900D01*
X778800Y646000D02*
X782200D01*
X788500D02*
X795200D01*
X802200D02*
X806900D01*
X778800Y645900D02*
X782200D01*
X788500D02*
X795100D01*
X802400D02*
X806900D01*
X778800Y645800D02*
X782000D01*
X788700D02*
X794800D01*
X803000D02*
X806900D01*
X778700Y645700D02*
X782000D01*
X788700D02*
X794700D01*
X803000D02*
X806900D01*
X778600Y645600D02*
X781800D01*
X788900D02*
X794400D01*
X803500D02*
X806900D01*
X778600Y645500D02*
X781700D01*
X788900D02*
X794400D01*
X803700D02*
X806900D01*
X778600Y645400D02*
X781700D01*
X789000D02*
X794100D01*
X804100D02*
X806900D01*
X778500Y645300D02*
X781600D01*
X789100D02*
X794100D01*
X804200D02*
X806900D01*
X778400Y645200D02*
X781500D01*
X789100D02*
X793900D01*
X804400D02*
X806900D01*
X778400Y645100D02*
X781500D01*
X789200D02*
X793800D01*
X804600D02*
X806900D01*
X778400Y645000D02*
X781500D01*
X789200D02*
X793700D01*
X804900D02*
X806900D01*
X778300Y644900D02*
X781300D01*
X789400D02*
X793500D01*
X805100D02*
X806900D01*
X778300Y644800D02*
X781300D01*
X784900D02*
X785700D01*
X789400D02*
X793500D01*
X805300D02*
X806900D01*
X778200Y644700D02*
X781300D01*
X784600D02*
X786100D01*
X789400D02*
X793300D01*
X805600D02*
X806900D01*
X778200Y644600D02*
X781200D01*
X784400D02*
X786300D01*
X789500D02*
X793200D01*
X805700D02*
X806900D01*
X778100Y644500D02*
X781100D01*
X784200D02*
X786500D01*
X789600D02*
X793200D01*
X805900D02*
X806900D01*
X778100Y644400D02*
X781100D01*
X784000D02*
X786600D01*
X789600D02*
X793000D01*
X806100D02*
X806900D01*
X778100Y644300D02*
X781000D01*
X783900D02*
X786800D01*
X789600D02*
X793000D01*
X806300D02*
X806900D01*
X778100Y644200D02*
X781000D01*
X783800D02*
X786900D01*
X789700D02*
X792900D01*
X806500D02*
X806900D01*
X778000Y644100D02*
X781000D01*
X783700D02*
X786900D01*
X789700D02*
X792800D01*
X806600D02*
X806900D01*
X778000Y644000D02*
X780900D01*
X783600D02*
X787100D01*
X789800D02*
X792800D01*
X806700D02*
X806900D01*
X778000Y643900D02*
X780900D01*
X783500D02*
X787100D01*
X789800D02*
X792600D01*
X777900Y643800D02*
X780900D01*
X783500D02*
X787200D01*
X789800D02*
X792600D01*
X777900Y643700D02*
X780800D01*
X783400D02*
X787300D01*
X789800D02*
X792500D01*
X777900Y643600D02*
X780800D01*
X783300D02*
X787400D01*
X789800D02*
X792500D01*
X777800Y643500D02*
X780800D01*
X783300D02*
X787400D01*
X789900D02*
X792400D01*
X777800Y643400D02*
X780800D01*
X783300D02*
X787400D01*
X789900D02*
X792300D01*
X777800Y643300D02*
X780800D01*
X783200D02*
X787400D01*
X789900D02*
X792300D01*
X802400D02*
X811300D01*
X777700Y643200D02*
X780700D01*
X783200D02*
X787500D01*
X789900D02*
X792200D01*
X802400D02*
X811300D01*
X777700Y643100D02*
X780700D01*
X783100D02*
X787600D01*
X790000D02*
X792200D01*
X802400D02*
X811300D01*
X777700Y643000D02*
X780700D01*
X783100D02*
X787600D01*
X790000D02*
X792100D01*
X802400D02*
X811300D01*
X777700Y642900D02*
X780700D01*
X783100D02*
X787600D01*
X790000D02*
X792100D01*
X802400D02*
X811300D01*
X777700Y642800D02*
X780700D01*
X783100D02*
X787600D01*
X790000D02*
X792000D01*
X802400D02*
X811300D01*
X777700Y642700D02*
X780700D01*
X783100D02*
X787600D01*
X790000D02*
X792000D01*
X802400D02*
X811300D01*
X777600Y642600D02*
X780700D01*
X783100D02*
X787600D01*
X790000D02*
X791900D01*
X802400D02*
X811300D01*
X777600Y642500D02*
X780700D01*
X783100D02*
X787600D01*
X790000D02*
X791800D01*
X802400D02*
X811300D01*
X777600Y642400D02*
X780700D01*
X783100D02*
X787600D01*
X790000D02*
X791800D01*
X802400D02*
X811300D01*
X777500Y642300D02*
X780700D01*
X783100D02*
X787600D01*
X790000D02*
X791800D01*
X802400D02*
X811300D01*
X777500Y642200D02*
X780700D01*
X783100D02*
X787600D01*
X790000D02*
X791800D01*
X802400D02*
X811300D01*
X777500Y642100D02*
X780700D01*
X783100D02*
X787600D01*
X790000D02*
X791700D01*
X802400D02*
X811300D01*
X777400Y642000D02*
X780700D01*
X783100D02*
X787600D01*
X790000D02*
X791700D01*
X802400D02*
X811300D01*
X777400Y641900D02*
X780700D01*
X783100D02*
X787600D01*
X789900D02*
X791600D01*
X802400D02*
X811300D01*
X777400Y641800D02*
X780700D01*
X783100D02*
X787400D01*
X789900D02*
X791600D01*
X802400D02*
X811300D01*
X777400Y641700D02*
X780700D01*
X783100D02*
X787400D01*
X789800D02*
X791600D01*
X802400D02*
X811300D01*
X777400Y641600D02*
X780700D01*
X783100D02*
X787400D01*
X789800D02*
X791600D01*
X802400D02*
X811300D01*
X777400Y641500D02*
X780700D01*
X783100D02*
X787400D01*
X789800D02*
X791600D01*
X802400D02*
X811300D01*
X777400Y641400D02*
X780700D01*
X783100D02*
X787200D01*
X789800D02*
X791500D01*
X802400D02*
X811300D01*
X777400Y641300D02*
X780700D01*
X783100D02*
X787200D01*
X789800D02*
X791500D01*
X802400D02*
X811300D01*
X777400Y641200D02*
X780700D01*
X783100D02*
X787100D01*
X789800D02*
X791500D01*
X802400D02*
X811300D01*
X777400Y641100D02*
X780700D01*
X783100D02*
X787000D01*
X789800D02*
X791400D01*
X802400D02*
X811300D01*
X777400Y641000D02*
X780700D01*
X783100D02*
X787000D01*
X789700D02*
X791400D01*
X802400D02*
X811300D01*
X777300Y640900D02*
X780700D01*
X783100D02*
X786800D01*
X789600D02*
X791400D01*
X802400D02*
X811300D01*
X777300Y640800D02*
X780700D01*
X783100D02*
X786800D01*
X789600D02*
X791400D01*
X802400D02*
X811300D01*
X777300Y640700D02*
X780700D01*
X783100D02*
X786600D01*
X789600D02*
X791400D01*
X802400D02*
X811300D01*
X777300Y640600D02*
X780700D01*
X783100D02*
X786400D01*
X789600D02*
X791400D01*
X804600D02*
X809200D01*
X777300Y640500D02*
X780700D01*
X783100D02*
X784300D01*
X784400D02*
X786200D01*
X789500D02*
X791400D01*
X804600D02*
X809200D01*
X777300Y640400D02*
X780700D01*
X783100D02*
X784200D01*
X784800D02*
X785700D01*
X789400D02*
X791400D01*
X804600D02*
X809200D01*
X777300Y640300D02*
X780700D01*
X783100D02*
X784200D01*
X789400D02*
X791400D01*
X804600D02*
X809200D01*
X777300Y640200D02*
X780700D01*
X783100D02*
X784200D01*
X789400D02*
X791400D01*
X804600D02*
X809200D01*
X777300Y640100D02*
X780700D01*
X783100D02*
X784200D01*
X789300D02*
X791400D01*
X804600D02*
X809200D01*
X777300Y640000D02*
X780700D01*
X783100D02*
X784200D01*
X789200D02*
X791400D01*
X804600D02*
X809200D01*
X777300Y639900D02*
X780700D01*
X783100D02*
X784200D01*
X789100D02*
X791400D01*
X804600D02*
X809200D01*
X777300Y639800D02*
X780700D01*
X783100D02*
X784200D01*
X789100D02*
X791400D01*
X804600D02*
X809200D01*
X777300Y639700D02*
X780700D01*
X783100D02*
X784200D01*
X789000D02*
X791400D01*
X804600D02*
X809200D01*
X777300Y639600D02*
X780700D01*
X783100D02*
X784200D01*
X788900D02*
X791400D01*
X804600D02*
X809200D01*
X777300Y639500D02*
X780700D01*
X783100D02*
X784200D01*
X788800D02*
X791400D01*
X804600D02*
X809200D01*
X777300Y639400D02*
X780700D01*
X783100D02*
X784200D01*
X788700D02*
X791400D01*
X804600D02*
X809200D01*
X777300Y639300D02*
X780700D01*
X783100D02*
X784200D01*
X788600D02*
X791400D01*
X804600D02*
X809200D01*
X777300Y639200D02*
X780700D01*
X783100D02*
X784200D01*
X788500D02*
X791400D01*
X804600D02*
X809200D01*
X777300Y639100D02*
X780700D01*
X783100D02*
X784200D01*
X788400D02*
X791400D01*
X804600D02*
X809200D01*
X777400Y639000D02*
X780700D01*
X783100D02*
X784200D01*
X788300D02*
X791400D01*
X804600D02*
X809200D01*
X777400Y638900D02*
X780700D01*
X783100D02*
X784200D01*
X788200D02*
X791400D01*
X804600D02*
X809200D01*
X777400Y638800D02*
X780700D01*
X783100D02*
X784200D01*
X788100D02*
X791500D01*
X804600D02*
X809200D01*
X777400Y638700D02*
X780700D01*
X783100D02*
X784200D01*
X787900D02*
X791500D01*
X804600D02*
X809200D01*
X777400Y638600D02*
X780700D01*
X783100D02*
X784200D01*
X787700D02*
X791600D01*
X804600D02*
X809200D01*
X777400Y638500D02*
X780700D01*
X783100D02*
X784200D01*
X787700D02*
X791600D01*
X804600D02*
X809200D01*
X777400Y638400D02*
X780700D01*
X783100D02*
X784200D01*
X787300D02*
X791600D01*
X804600D02*
X809200D01*
X777400Y638300D02*
X780700D01*
X783100D02*
X784200D01*
X787300D02*
X791600D01*
X804600D02*
X809200D01*
X777400Y638200D02*
X780700D01*
X783100D02*
X784300D01*
X786800D02*
X791600D01*
X804600D02*
X809200D01*
X777400Y638100D02*
X780700D01*
X783100D02*
X784300D01*
X786700D02*
X791600D01*
X804600D02*
X809200D01*
X777400Y638000D02*
X780700D01*
X783100D02*
X784800D01*
X786100D02*
X791700D01*
X804600D02*
X809200D01*
X777500Y637900D02*
X780700D01*
X783100D02*
X791700D01*
X804600D02*
X809200D01*
X777500Y637800D02*
X780700D01*
X783100D02*
X791800D01*
X804600D02*
X809200D01*
X777500Y637700D02*
X780700D01*
X783100D02*
X791800D01*
X804600D02*
X809200D01*
X777600Y637600D02*
X780700D01*
X783100D02*
X791800D01*
X804600D02*
X809200D01*
X777600Y637500D02*
X780700D01*
X783100D02*
X791800D01*
X804600D02*
X809200D01*
X777600Y637400D02*
X780700D01*
X783100D02*
X791900D01*
X804600D02*
X809200D01*
X777600Y637300D02*
X780700D01*
X783100D02*
X792000D01*
X804600D02*
X809200D01*
X777700Y637200D02*
X780700D01*
X783100D02*
X792000D01*
X804600D02*
X809200D01*
X777700Y637100D02*
X780700D01*
X783100D02*
X792100D01*
X804600D02*
X809200D01*
X777700Y637000D02*
X780700D01*
X783100D02*
X792100D01*
X804600D02*
X809200D01*
X777700Y636900D02*
X780700D01*
X783100D02*
X792100D01*
X804600D02*
X809200D01*
X777700Y636800D02*
X780700D01*
X783100D02*
X792200D01*
X804600D02*
X809200D01*
X777800Y636700D02*
X780700D01*
X783100D02*
X792300D01*
X804600D02*
X809200D01*
X777800Y636600D02*
X780700D01*
X783100D02*
X792300D01*
X777800Y636500D02*
X780700D01*
X783100D02*
X792400D01*
X777900Y636400D02*
X780700D01*
X783100D02*
X792400D01*
X777900Y636300D02*
X780700D01*
X783100D02*
X792500D01*
X777900Y636200D02*
X780700D01*
X783100D02*
X792500D01*
X777900Y636100D02*
X780700D01*
X783100D02*
X792700D01*
X778000Y636000D02*
X780700D01*
X783100D02*
X792700D01*
X778000Y635900D02*
X780700D01*
X783100D02*
X792800D01*
X806600D02*
X806900D01*
X778100Y635800D02*
X780700D01*
X783100D02*
X792900D01*
X806500D02*
X806900D01*
X778100Y635700D02*
X780700D01*
X783100D02*
X793000D01*
X806300D02*
X806900D01*
X778100Y635600D02*
X780700D01*
X783100D02*
X793000D01*
X806100D02*
X806900D01*
X778100Y635500D02*
X780700D01*
X783100D02*
X793100D01*
X806000D02*
X806900D01*
X778200Y635400D02*
X780700D01*
X783100D02*
X793200D01*
X805800D02*
X806900D01*
X778200Y635300D02*
X780700D01*
X783100D02*
X793300D01*
X805600D02*
X806900D01*
X778300Y635200D02*
X780700D01*
X783100D02*
X793400D01*
X805400D02*
X806900D01*
X778300Y635100D02*
X780700D01*
X783100D02*
X793500D01*
X805100D02*
X806900D01*
X778400Y635000D02*
X780700D01*
X783100D02*
X793700D01*
X805000D02*
X806900D01*
X778400Y634900D02*
X780700D01*
X783100D02*
X793700D01*
X804700D02*
X806900D01*
X778400Y634800D02*
X780700D01*
X783100D02*
X793900D01*
X804500D02*
X806900D01*
X778500Y634700D02*
X780700D01*
X783100D02*
X794100D01*
X804200D02*
X806900D01*
X778500Y634600D02*
X780700D01*
X783100D02*
X794200D01*
X804000D02*
X806900D01*
X778600Y634500D02*
X780800D01*
X783100D02*
X794200D01*
X803900D02*
X806900D01*
X778600Y634400D02*
X780800D01*
X783100D02*
X794500D01*
X803400D02*
X806900D01*
X778700Y634300D02*
X780800D01*
X783100D02*
X794500D01*
X803400D02*
X806900D01*
X778700Y634200D02*
X780900D01*
X783100D02*
X794900D01*
X802900D02*
X806900D01*
X778800Y634100D02*
X780900D01*
X783100D02*
X794900D01*
X802700D02*
X806900D01*
X778800Y634000D02*
X781000D01*
X783100D02*
X795300D01*
X802200D02*
X806900D01*
X778900Y633900D02*
X781000D01*
X783100D02*
X795300D01*
X802000D02*
X806900D01*
X778900Y633800D02*
X781000D01*
X783100D02*
X795600D01*
X801700D02*
X806900D01*
X779000Y633700D02*
X781200D01*
X783100D02*
X795900D01*
X801200D02*
X806900D01*
X779100Y633600D02*
X781300D01*
X783100D02*
X796100D01*
X800700D02*
X806900D01*
X779100Y633500D02*
X781300D01*
X783100D02*
X796700D01*
X800000D02*
X806900D01*
X779200Y633400D02*
X781400D01*
X783100D02*
X797200D01*
X799200D02*
X806900D01*
X779300Y633300D02*
X781500D01*
X783100D02*
X806900D01*
X779300Y633200D02*
X781600D01*
X783100D02*
X806900D01*
X779300Y633100D02*
X781700D01*
X783100D02*
X806900D01*
X779400Y633000D02*
X781900D01*
X783100D02*
X806900D01*
X779500Y632900D02*
X782100D01*
X783100D02*
X806900D01*
X779500Y632800D02*
X782300D01*
X783100D02*
X806900D01*
X779700Y632700D02*
X782500D01*
X783100D02*
X806900D01*
X779700Y632600D02*
X806900D01*
X779800Y632500D02*
X806900D01*
X779900Y632400D02*
X806900D01*
X779900Y632300D02*
X806900D01*
X780000Y632200D02*
X806900D01*
X780100Y632100D02*
X806900D01*
X780200Y632000D02*
X806900D01*
X780200Y631900D02*
X806900D01*
X780300Y631800D02*
X806900D01*
X780400Y631700D02*
X806900D01*
X780500Y631600D02*
X806900D01*
X780600Y631500D02*
X806900D01*
X780700Y631400D02*
X806900D01*
X780700Y631300D02*
X806900D01*
X780800Y631200D02*
X806900D01*
X780900Y631100D02*
X806900D01*
X781000Y631000D02*
X806900D01*
X781100Y630900D02*
X806900D01*
X781200Y630800D02*
X806900D01*
X781300Y630700D02*
X806900D01*
X781400Y630600D02*
X806900D01*
X781500Y630500D02*
X806900D01*
X781700Y630400D02*
X806900D01*
X781800Y630300D02*
X806900D01*
X781900Y630200D02*
X806900D01*
X782000Y630100D02*
X806800D01*
X782100Y630000D02*
X806600D01*
X782300Y629900D02*
X806400D01*
X782300Y629800D02*
X806300D01*
X782600Y629700D02*
X806000D01*
X782700Y629600D02*
X805900D01*
X782800Y629500D02*
X805700D01*
X782900Y629400D02*
X805400D01*
X783000Y629300D02*
X805300D01*
X783300Y629200D02*
X805000D01*
X783400Y629100D02*
X804800D01*
X783600Y629000D02*
X804500D01*
X783700Y628900D02*
X804400D01*
X783800Y628800D02*
X804300D01*
X784100Y628700D02*
X803900D01*
X784200Y628600D02*
X803800D01*
X784500Y628500D02*
X803300D01*
X784600Y628400D02*
X803300D01*
X784900Y628300D02*
X802800D01*
X785100Y628200D02*
X802700D01*
X785200Y628100D02*
X802400D01*
X785600Y628000D02*
X802100D01*
X785800Y627900D02*
X801800D01*
X786200Y627800D02*
X801400D01*
X786400Y627700D02*
X801200D01*
X786800Y627600D02*
X800700D01*
X787200Y627500D02*
X800300D01*
X787500Y627400D02*
X800000D01*
X788100Y627300D02*
X799500D01*
X788400Y627200D02*
X799100D01*
X789100Y627100D02*
X798400D01*
X789500Y627000D02*
X798000D01*
X790300Y626900D02*
X797200D01*
X790900Y626800D02*
X796500D01*
X791300Y626700D02*
X796000D01*
X540746Y678477D02*
X564147D01*
X540547Y678377D02*
X564347D01*
X540447Y678277D02*
X564446D01*
X540346Y678177D02*
X564546D01*
X540246Y678077D02*
X564646D01*
X540246Y677977D02*
X564646D01*
X540246Y677877D02*
X564646D01*
X540146Y677777D02*
X564747D01*
X540146Y677677D02*
X564747D01*
X540146Y677577D02*
X564747D01*
X540146Y677477D02*
X564747D01*
X540146Y677377D02*
X564747D01*
X540146Y677277D02*
X564747D01*
X540146Y677177D02*
X564747D01*
X540146Y677077D02*
X564747D01*
X540146Y676977D02*
X564747D01*
X540146Y676877D02*
X564747D01*
X540146Y676777D02*
X564747D01*
X540146Y676677D02*
X564747D01*
X540146Y676577D02*
X564747D01*
X540146Y676477D02*
X541747D01*
X553246D02*
X564747D01*
X540146Y676377D02*
X541747D01*
X553246D02*
X564747D01*
X540146Y676277D02*
X541747D01*
X553246D02*
X564747D01*
X540146Y676177D02*
X541747D01*
X553246D02*
X564747D01*
X540146Y676077D02*
X541747D01*
X540146Y675977D02*
X541747D01*
X553246D02*
X564747D01*
X540146Y675877D02*
X541747D01*
X553246D02*
X564747D01*
X540146Y675777D02*
X541747D01*
X540146Y675677D02*
X541747D01*
X553246D02*
X564747D01*
X540146Y675577D02*
X541747D01*
X540146Y675477D02*
X541747D01*
X553246D02*
X564747D01*
X540146Y675377D02*
X541747D01*
X553246D02*
X564747D01*
X540146Y675277D02*
X541747D01*
X553246D02*
X564747D01*
X540146Y675177D02*
X541747D01*
X540146Y675077D02*
X541747D01*
X553246D02*
X564747D01*
X540146Y674977D02*
X541747D01*
X543347D02*
X551647D01*
X553246D02*
X564747D01*
X540146Y674877D02*
X541747D01*
X543347D02*
X551647D01*
X553246D02*
X564747D01*
X540146Y674777D02*
X541747D01*
X543347D02*
X551647D01*
X553246D02*
X564747D01*
X540146Y674677D02*
X541747D01*
X543347D02*
X551647D01*
X553246D02*
X564747D01*
X540146Y674577D02*
X541747D01*
X543347D02*
X551647D01*
X553246D02*
X564747D01*
X540146Y674477D02*
X541747D01*
X543347D02*
X551647D01*
X553246D02*
X564747D01*
X540146Y674377D02*
X541747D01*
X543347D02*
X551647D01*
X553246D02*
X564747D01*
X540146Y674277D02*
X541747D01*
X543347D02*
X551647D01*
X553246D02*
X564747D01*
X540146Y674177D02*
X541747D01*
X543347D02*
X551647D01*
X553246D02*
X564747D01*
X540146Y674077D02*
X541747D01*
X543347D02*
X551647D01*
X553246D02*
X564747D01*
X540146Y673977D02*
X541747D01*
X543347D02*
X551647D01*
X553246D02*
X564747D01*
X540146Y673877D02*
X541747D01*
X543347D02*
X551647D01*
X553246D02*
X564747D01*
X540146Y673777D02*
X541747D01*
X543347D02*
X551647D01*
X553246D02*
X564747D01*
X540146Y673677D02*
X541747D01*
X543347D02*
X551647D01*
X553246D02*
X564747D01*
X540146Y673577D02*
X541747D01*
X543347D02*
X551647D01*
X553246D02*
X564747D01*
X540146Y673477D02*
X541747D01*
X543347D02*
X551647D01*
X553246D02*
X564747D01*
X540146Y673377D02*
X541747D01*
X543347D02*
X551647D01*
X553246D02*
X564747D01*
X540146Y673277D02*
X541747D01*
X543347D02*
X551647D01*
X553246D02*
X564747D01*
X540146Y673177D02*
X541747D01*
X543347D02*
X551647D01*
X553246D02*
X564747D01*
X540146Y673077D02*
X541747D01*
X543347D02*
X551647D01*
X553246D02*
X564747D01*
X540146Y672977D02*
X541747D01*
X543347D02*
X551647D01*
X553246D02*
X564747D01*
X540146Y672877D02*
X541747D01*
X543347D02*
X551647D01*
X553246D02*
X564747D01*
X540146Y672777D02*
X541747D01*
X543347D02*
X551647D01*
X553246D02*
X564747D01*
X540146Y672677D02*
X541747D01*
X543347D02*
X551647D01*
X553246D02*
X564747D01*
X540146Y672577D02*
X541747D01*
X543347D02*
X551647D01*
X553246D02*
X564747D01*
X540146Y672477D02*
X541747D01*
X543347D02*
X551647D01*
X553246D02*
X564747D01*
X540146Y672377D02*
X541747D01*
X543347D02*
X551647D01*
X553246D02*
X564747D01*
X540146Y672277D02*
X541747D01*
X543347D02*
X551647D01*
X553246D02*
X564747D01*
X540146Y672177D02*
X541747D01*
X543347D02*
X551647D01*
X553246D02*
X564747D01*
X540146Y672077D02*
X541747D01*
X543347D02*
X551647D01*
X553246D02*
X564747D01*
X540146Y671977D02*
X541747D01*
X543347D02*
X551647D01*
X553246D02*
X564747D01*
X540146Y671877D02*
X541747D01*
X543347D02*
X551647D01*
X553246D02*
X564747D01*
X540146Y671777D02*
X541747D01*
X543347D02*
X551647D01*
X553246D02*
X564747D01*
X540146Y671677D02*
X541747D01*
X543347D02*
X551647D01*
X553246D02*
X564747D01*
X540146Y671577D02*
X541747D01*
X543347D02*
X551647D01*
X540146Y671477D02*
X541747D01*
X543347D02*
X551647D01*
X553246D02*
X564747D01*
X540146Y671377D02*
X541747D01*
X543347D02*
X551647D01*
X553246D02*
X564747D01*
X540146Y671277D02*
X541747D01*
X543347D02*
X551647D01*
X553246D02*
X564747D01*
X540146Y671177D02*
X541747D01*
X543347D02*
X551647D01*
X553246D02*
X564747D01*
X540146Y671077D02*
X541747D01*
X543347D02*
X551647D01*
X553246D02*
X564747D01*
X540146Y670977D02*
X541747D01*
X543347D02*
X551647D01*
X553246D02*
X564747D01*
X540146Y670877D02*
X541747D01*
X543347D02*
X551647D01*
X553246D02*
X564747D01*
X540146Y670777D02*
X541747D01*
X543347D02*
X551647D01*
X553246D02*
X564747D01*
X540146Y670677D02*
X541747D01*
X543347D02*
X551647D01*
X553246D02*
X564747D01*
X540146Y670577D02*
X541747D01*
X543347D02*
X551647D01*
X553246D02*
X564747D01*
X540146Y670477D02*
X541747D01*
X543347D02*
X551647D01*
X553246D02*
X564747D01*
X540146Y670377D02*
X541747D01*
X543347D02*
X551647D01*
X553246D02*
X564747D01*
X540146Y670277D02*
X541747D01*
X543347D02*
X551647D01*
X553246D02*
X564747D01*
X540146Y670177D02*
X541747D01*
X543347D02*
X551647D01*
X553246D02*
X564747D01*
X540146Y670077D02*
X541747D01*
X543347D02*
X551647D01*
X553246D02*
X564747D01*
X540146Y669977D02*
X541747D01*
X543347D02*
X551647D01*
X553246D02*
X564747D01*
X540146Y669877D02*
X541747D01*
X543347D02*
X551647D01*
X553246D02*
X564747D01*
X540146Y669777D02*
X541747D01*
X543347D02*
X551647D01*
X553246D02*
X564747D01*
X540146Y669677D02*
X541747D01*
X543347D02*
X551647D01*
X553246D02*
X564747D01*
X540146Y669577D02*
X551647D01*
X553246D02*
X561547D01*
X563047D02*
X564747D01*
X540146Y669477D02*
X551647D01*
X553246D02*
X561547D01*
X563146D02*
X564747D01*
X540146Y669377D02*
X551647D01*
X553246D02*
X561547D01*
X563146D02*
X564747D01*
X540146Y669277D02*
X551647D01*
X553246D02*
X561547D01*
X563146D02*
X564747D01*
X540146Y669177D02*
X551647D01*
X553246D02*
X561547D01*
X563146D02*
X564747D01*
X540146Y669077D02*
X551647D01*
X553246D02*
X561547D01*
X563146D02*
X564747D01*
X540146Y668977D02*
X551647D01*
X553246D02*
X561547D01*
X563146D02*
X564747D01*
X540146Y668877D02*
X551647D01*
X553246D02*
X561547D01*
X563146D02*
X564747D01*
X540146Y668777D02*
X551647D01*
X553246D02*
X561547D01*
X563146D02*
X564747D01*
X540146Y668677D02*
X551647D01*
X553246D02*
X561547D01*
X563146D02*
X564747D01*
X540146Y668577D02*
X551647D01*
X553246D02*
X561547D01*
X563146D02*
X564747D01*
X540146Y668477D02*
X551647D01*
X553246D02*
X561547D01*
X563146D02*
X564747D01*
X540146Y668377D02*
X551647D01*
X553246D02*
X561547D01*
X563146D02*
X564747D01*
X540146Y668277D02*
X551647D01*
X553246D02*
X561547D01*
X563146D02*
X564747D01*
X540146Y668177D02*
X551647D01*
X553246D02*
X561547D01*
X563146D02*
X564747D01*
X540146Y668077D02*
X551647D01*
X553246D02*
X561547D01*
X563146D02*
X564747D01*
X540146Y667977D02*
X551647D01*
X553246D02*
X561547D01*
X563146D02*
X564747D01*
X540146Y667877D02*
X551647D01*
X553246D02*
X561547D01*
X563146D02*
X564747D01*
X540146Y667777D02*
X551647D01*
X553246D02*
X561547D01*
X563146D02*
X564747D01*
X540146Y667677D02*
X551647D01*
X553246D02*
X561547D01*
X563146D02*
X564747D01*
X540146Y667577D02*
X551647D01*
X553246D02*
X561547D01*
X563146D02*
X564747D01*
X540146Y667477D02*
X551647D01*
X553246D02*
X561547D01*
X563146D02*
X564747D01*
X540146Y667377D02*
X551647D01*
X553246D02*
X561547D01*
X563146D02*
X564747D01*
X540146Y667277D02*
X551647D01*
X553246D02*
X561547D01*
X563146D02*
X564747D01*
X540146Y667177D02*
X551647D01*
X553246D02*
X561547D01*
X563146D02*
X564747D01*
X540146Y667077D02*
X551647D01*
X553246D02*
X561547D01*
X563146D02*
X564747D01*
X540146Y666977D02*
X551647D01*
X553246D02*
X561547D01*
X563146D02*
X564747D01*
X540146Y666877D02*
X551647D01*
X553246D02*
X561547D01*
X563146D02*
X564747D01*
X540146Y666777D02*
X551647D01*
X553246D02*
X561547D01*
X563146D02*
X564747D01*
X540146Y666677D02*
X551647D01*
X553246D02*
X561547D01*
X563146D02*
X564747D01*
X540146Y666577D02*
X551647D01*
X553246D02*
X561547D01*
X563146D02*
X564747D01*
X540146Y666477D02*
X551647D01*
X553246D02*
X561547D01*
X563146D02*
X564747D01*
X540146Y666377D02*
X551647D01*
X553246D02*
X561547D01*
X563146D02*
X564747D01*
X540146Y666277D02*
X551647D01*
X553246D02*
X561547D01*
X563146D02*
X564747D01*
X540146Y666177D02*
X551647D01*
X553246D02*
X561547D01*
X563146D02*
X564747D01*
X540146Y666077D02*
X551647D01*
X553246D02*
X561547D01*
X563146D02*
X564747D01*
X540146Y665977D02*
X551647D01*
X553246D02*
X561547D01*
X563146D02*
X564747D01*
X540146Y665877D02*
X551647D01*
X553246D02*
X561547D01*
X563146D02*
X564747D01*
X540146Y665777D02*
X551647D01*
X553246D02*
X561547D01*
X563146D02*
X564747D01*
X540146Y665677D02*
X551647D01*
X553246D02*
X561547D01*
X563146D02*
X564747D01*
X540146Y665577D02*
X551647D01*
X553246D02*
X561547D01*
X563146D02*
X564747D01*
X540146Y665477D02*
X551647D01*
X553246D02*
X561547D01*
X563146D02*
X564747D01*
X540146Y665377D02*
X551647D01*
X553246D02*
X561547D01*
X563146D02*
X564747D01*
X540146Y665277D02*
X551647D01*
X553246D02*
X561547D01*
X563146D02*
X564747D01*
X540146Y665177D02*
X551647D01*
X553246D02*
X561547D01*
X563146D02*
X564747D01*
X540146Y665077D02*
X551647D01*
X553246D02*
X561547D01*
X563146D02*
X564747D01*
X540146Y664977D02*
X551647D01*
X553246D02*
X561547D01*
X563146D02*
X564747D01*
X540146Y664877D02*
X551647D01*
X553246D02*
X561547D01*
X563146D02*
X564747D01*
X540146Y664777D02*
X551647D01*
X553246D02*
X561547D01*
X563146D02*
X564747D01*
X540146Y664677D02*
X551647D01*
X553246D02*
X561547D01*
X563146D02*
X564747D01*
X540146Y664577D02*
X551647D01*
X553246D02*
X561547D01*
X563146D02*
X564747D01*
X540146Y664477D02*
X551647D01*
X553246D02*
X561547D01*
X563146D02*
X564747D01*
X540146Y664377D02*
X551647D01*
X553246D02*
X561547D01*
X563146D02*
X564747D01*
X540146Y664277D02*
X551647D01*
X553246D02*
X561547D01*
X563146D02*
X564747D01*
X540146Y664177D02*
X551647D01*
X563146D02*
X564747D01*
X540146Y664077D02*
X551647D01*
X563146D02*
X564747D01*
X540146Y663977D02*
X551647D01*
X563146D02*
X564747D01*
X540146Y663877D02*
X551647D01*
X563146D02*
X564747D01*
X540146Y663777D02*
X551647D01*
X563146D02*
X564747D01*
X540146Y663677D02*
X551647D01*
X563146D02*
X564747D01*
X540146Y663577D02*
X551647D01*
X563146D02*
X564747D01*
X540146Y663477D02*
X551647D01*
X563146D02*
X564747D01*
X540146Y663377D02*
X551647D01*
X563146D02*
X564747D01*
X540146Y663277D02*
X551647D01*
X563146D02*
X564747D01*
X540146Y663177D02*
X551647D01*
X563146D02*
X564747D01*
X540146Y663077D02*
X551647D01*
X563146D02*
X564747D01*
X540146Y662977D02*
X551647D01*
X563146D02*
X564747D01*
X540146Y662877D02*
X551647D01*
X563146D02*
X564747D01*
X540146Y662777D02*
X551647D01*
X563146D02*
X564747D01*
X540146Y662677D02*
X564747D01*
X540146Y662577D02*
X564747D01*
X540146Y662477D02*
X564747D01*
X540146Y662377D02*
X564747D01*
X540146Y662277D02*
X564747D01*
X540146Y662177D02*
X564747D01*
X540146Y662077D02*
X564747D01*
X540146Y661977D02*
X564747D01*
X540146Y661877D02*
X564747D01*
X540146Y661777D02*
X564747D01*
X540146Y661677D02*
X564747D01*
X540146Y661577D02*
X564747D01*
X540146Y661477D02*
X564747D01*
X540146Y661377D02*
X564747D01*
X540246Y661277D02*
X564646D01*
X540246Y661177D02*
X564646D01*
X540346Y661077D02*
X564546D01*
X540447Y660977D02*
X564446D01*
X540547Y660877D02*
X564347D01*
X540647Y660777D02*
X564247D01*
D49*
X403402Y743844D02*
X404002Y743244D01*
X412802D01*
X413602Y744044D01*
Y769344D01*
X413102Y769844D02*
X413602Y769344D01*
X403802Y769844D02*
X413102D01*
X403402Y769444D02*
X403802Y769844D01*
X403402Y743844D02*
Y769444D01*
X545802Y693244D02*
X546402Y692644D01*
X555202D01*
X556002Y693444D01*
Y718744D01*
X555502Y719244D02*
X556002Y718744D01*
X546202Y719244D02*
X555502D01*
X545802Y718844D02*
X546202Y719244D01*
X545802Y693244D02*
Y718844D01*
X638300Y729500D02*
X638900Y728900D01*
X647700D01*
X648500Y729700D01*
Y755000D01*
X648000Y755500D02*
X648500Y755000D01*
X638700Y755500D02*
X648000D01*
X638300Y755100D02*
X638700Y755500D01*
X638300Y729500D02*
Y755100D01*
X403202Y647344D02*
X403802Y646744D01*
X412602D01*
X413402Y647544D01*
Y672844D01*
X412902Y673344D02*
X413402Y672844D01*
X403602Y673344D02*
X412902D01*
X403202Y672944D02*
X403602Y673344D01*
X403202Y647344D02*
Y672944D01*
X548400Y729600D02*
X549000Y729000D01*
X557800D01*
X558600Y729800D01*
Y755100D01*
X558100Y755600D02*
X558600Y755100D01*
X548800Y755600D02*
X558100D01*
X548400Y755200D02*
X548800Y755600D01*
X548400Y729600D02*
Y755200D01*
X685600Y693700D02*
X686200Y693100D01*
X695000D01*
X695800Y693900D01*
Y719200D01*
X695300Y719700D02*
X695800Y719200D01*
X686000Y719700D02*
X695300D01*
X685600Y719300D02*
X686000Y719700D01*
X685600Y693700D02*
Y719300D01*
X403202Y679144D02*
X403802Y678544D01*
X412602D01*
X413402Y679344D01*
Y704644D01*
X412902Y705144D02*
X413402Y704644D01*
X403602Y705144D02*
X412902D01*
X403202Y704744D02*
X403602Y705144D01*
X403202Y679144D02*
Y704744D01*
X593500Y693500D02*
X594100Y692900D01*
X602900D01*
X603700Y693700D01*
Y719000D01*
X603200Y719500D02*
X603700Y719000D01*
X593900Y719500D02*
X603200D01*
X593500Y719100D02*
X593900Y719500D01*
X593500Y693500D02*
Y719100D01*
X685702Y729444D02*
X686302Y728844D01*
X695102D01*
X695902Y729644D01*
Y754944D01*
X695402Y755444D02*
X695902Y754944D01*
X686102Y755444D02*
X695402D01*
X685702Y755044D02*
X686102Y755444D01*
X685702Y729444D02*
Y755044D01*
X500215Y693241D02*
X500815Y692641D01*
X509615D01*
X510415Y693441D01*
Y718741D01*
X509915Y719241D02*
X510415Y718741D01*
X500615Y719241D02*
X509915D01*
X500215Y718841D02*
X500615Y719241D01*
X500215Y693241D02*
Y718841D01*
X593802Y729600D02*
X594402Y729000D01*
X603202D01*
X604002Y729800D01*
Y755100D01*
X603502Y755600D02*
X604002Y755100D01*
X594202Y755600D02*
X603502D01*
X593802Y755200D02*
X594202Y755600D01*
X593802Y729600D02*
Y755200D01*
X715100Y775700D02*
X715700Y775100D01*
X724500D01*
X725300Y775900D01*
Y801200D01*
X724800Y801700D02*
X725300Y801200D01*
X715500Y801700D02*
X724800D01*
X715100Y801300D02*
X715500Y801700D01*
X715100Y775700D02*
Y801300D01*
X403202Y710344D02*
X403802Y709744D01*
X412602D01*
X413402Y710544D01*
Y735844D01*
X412902Y736344D02*
X413402Y735844D01*
X403602Y736344D02*
X412902D01*
X403202Y735944D02*
X403602Y736344D01*
X403202Y710344D02*
Y735944D01*
X500202Y729654D02*
X500802Y729053D01*
X509602D01*
X510402Y729853D01*
Y755154D01*
X509902Y755653D02*
X510402Y755154D01*
X500602Y755653D02*
X509902D01*
X500202Y755254D02*
X500602Y755653D01*
X500202Y729654D02*
Y755254D01*
X638300Y693500D02*
X638900Y692900D01*
X647700D01*
X648500Y693700D01*
Y719000D01*
X648000Y719500D02*
X648500Y719000D01*
X638700Y719500D02*
X648000D01*
X638300Y719100D02*
X638700Y719500D01*
X638300Y693500D02*
Y719100D01*
X667600Y775300D02*
X668200Y774700D01*
X677000D01*
X677800Y775500D01*
Y800800D01*
X677300Y801300D02*
X677800Y800800D01*
X668000Y801300D02*
X677300D01*
X667600Y800900D02*
X668000Y801300D01*
X667600Y775300D02*
Y800900D01*
X783300Y555100D02*
X783900Y554500D01*
X792700D01*
X793500Y555300D01*
Y580600D01*
X793000Y581100D02*
X793500Y580600D01*
X783700Y581100D02*
X793000D01*
X783300Y580700D02*
X783700Y581100D01*
X783300Y555100D02*
Y580700D01*
X780700Y595743D02*
X781300Y595143D01*
X771900Y595743D02*
X780700D01*
X771100Y594943D02*
X771900Y595743D01*
X771100Y569643D02*
Y594943D01*
Y569643D02*
X771600Y569143D01*
X780900D01*
X781300Y569543D01*
Y595143D01*
X771100Y539305D02*
X771700Y538705D01*
X780500D01*
X781300Y539505D01*
Y564806D01*
X780800Y565306D02*
X781300Y564806D01*
X771500Y565306D02*
X780800D01*
X771100Y564906D02*
X771500Y565306D01*
X771100Y539305D02*
Y564906D01*
X506396Y517779D02*
Y529579D01*
Y517779D02*
X511596D01*
Y529579D01*
X506396D02*
X511596D01*
X511261Y537744D02*
Y549544D01*
X506061D02*
X511261D01*
X506061Y537744D02*
Y549544D01*
Y537744D02*
X511261D01*
X591596Y603195D02*
Y614994D01*
X586396D02*
X591596D01*
X586396Y603195D02*
Y614994D01*
Y603195D02*
X591596D01*
X586396Y583194D02*
Y594994D01*
Y583194D02*
X591596D01*
Y594994D01*
X586396D02*
X591596D01*
X571596Y603195D02*
Y614994D01*
X566396D02*
X571596D01*
X566396Y603195D02*
Y614994D01*
Y603195D02*
X571596D01*
X566396Y583194D02*
Y594994D01*
Y583194D02*
X571596D01*
Y594994D01*
X566396D02*
X571596D01*
X551596Y603195D02*
Y614994D01*
X546396D02*
X551596D01*
X546396Y603195D02*
Y614994D01*
Y603195D02*
X551596D01*
X546396Y583194D02*
Y594994D01*
Y583194D02*
X551596D01*
Y594994D01*
X546396D02*
X551596D01*
X531596Y603195D02*
Y614994D01*
X526396D02*
X531596D01*
X526396Y603195D02*
Y614994D01*
Y603195D02*
X531596D01*
X526396Y583194D02*
Y594994D01*
Y583194D02*
X531596D01*
Y594994D01*
X526396D02*
X531596D01*
X591596Y537744D02*
Y549544D01*
X586396D02*
X591596D01*
X586396Y537744D02*
Y549544D01*
Y537744D02*
X591596D01*
X586396Y518096D02*
Y529896D01*
Y518096D02*
X591596D01*
Y529896D01*
X586396D02*
X591596D01*
X571596Y537744D02*
Y549544D01*
X566396D02*
X571596D01*
X566396Y537744D02*
Y549544D01*
Y537744D02*
X571596D01*
X566396Y518096D02*
Y529896D01*
Y518096D02*
X571596D01*
Y529896D01*
X566396D02*
X571596D01*
X551596Y537744D02*
Y549544D01*
X546396D02*
X551596D01*
X546396Y537744D02*
Y549544D01*
Y537744D02*
X551596D01*
X546396Y518096D02*
Y529896D01*
Y518096D02*
X551596D01*
Y529896D01*
X546396D02*
X551596D01*
X531596Y537744D02*
Y549544D01*
X526396D02*
X531596D01*
X526396Y537744D02*
Y549544D01*
Y537744D02*
X531596D01*
X526396Y518096D02*
Y529896D01*
Y518096D02*
X531596D01*
Y529896D01*
X526396D02*
X531596D01*
X606064Y460759D02*
X606664Y460159D01*
X597264Y460759D02*
X606064D01*
X596464Y459959D02*
X597264Y460759D01*
X596464Y434659D02*
Y459959D01*
Y434659D02*
X596964Y434159D01*
X606264D01*
X606664Y434559D01*
Y460159D01*
X793990Y506913D02*
X796740D01*
X792490Y505413D02*
X793990Y506913D01*
X785740D02*
X788490D01*
X789990Y505413D01*
X792490Y495413D02*
X793990Y493913D01*
X785740D02*
X788490D01*
X789990Y495413D01*
Y505413D02*
X792490D01*
X785740Y493913D02*
Y506913D01*
X789990Y495413D02*
X792490D01*
X796740Y493913D02*
Y506913D01*
X793990Y493913D02*
X796740D01*
X576396Y605594D02*
Y614294D01*
X581596Y605594D02*
Y614294D01*
Y583894D02*
Y592594D01*
X576396Y583894D02*
Y592594D01*
X556396Y605594D02*
Y614294D01*
X561596Y605594D02*
Y614294D01*
Y583894D02*
Y592594D01*
X556396Y583894D02*
Y592594D01*
X536396Y605594D02*
Y614294D01*
X541596Y605594D02*
Y614294D01*
Y583894D02*
Y592594D01*
X536396Y583894D02*
Y592594D01*
X516396Y605594D02*
Y614294D01*
X521596Y605594D02*
Y614294D01*
Y583894D02*
Y592594D01*
X516396Y583894D02*
Y592594D01*
X576396Y538943D02*
Y547643D01*
X581596Y538943D02*
Y547643D01*
Y518796D02*
Y527496D01*
X576396Y518796D02*
Y527496D01*
X556396Y538943D02*
Y547643D01*
X561596Y538943D02*
Y547643D01*
Y518796D02*
Y527496D01*
X556396Y518796D02*
Y527496D01*
X499447Y520551D02*
Y529251D01*
X504647Y520551D02*
Y529251D01*
X499447Y538943D02*
Y547643D01*
X504647Y538943D02*
Y547643D01*
X536396Y538943D02*
Y547643D01*
X541596Y538943D02*
Y547643D01*
Y518796D02*
Y527496D01*
X536396Y518796D02*
Y527496D01*
X516396Y538943D02*
Y547643D01*
X521596Y538943D02*
Y547643D01*
Y518796D02*
Y527496D01*
X516396Y518796D02*
Y527496D01*
X421200Y750000D02*
Y758700D01*
X416000Y750000D02*
Y758700D01*
X563600Y699344D02*
Y708044D01*
X558400Y699344D02*
Y708044D01*
X656143Y735591D02*
Y744291D01*
X650943Y735591D02*
Y744291D01*
X416700Y762928D02*
X425400D01*
X416700Y768128D02*
X425400D01*
X559100Y712328D02*
X567800D01*
X559100Y717528D02*
X567800D01*
X651600Y748500D02*
X660300D01*
X651600Y753700D02*
X660300D01*
X421000Y653500D02*
Y662200D01*
X415800Y653500D02*
Y662200D01*
X566198Y735756D02*
Y744456D01*
X560998Y735756D02*
Y744456D01*
X703400Y699800D02*
Y708500D01*
X698200Y699800D02*
Y708500D01*
X416500Y666428D02*
X425200D01*
X416500Y671628D02*
X425200D01*
X561700Y748684D02*
X570400D01*
X561700Y753884D02*
X570400D01*
X698900Y712700D02*
X707600D01*
X698900Y717900D02*
X707600D01*
X421000Y685300D02*
Y694000D01*
X415800Y685300D02*
Y694000D01*
X611300Y699600D02*
Y708300D01*
X606100Y699600D02*
Y708300D01*
X703500Y735500D02*
Y744200D01*
X698300Y735500D02*
Y744200D01*
X416500Y698228D02*
X425200D01*
X416500Y703428D02*
X425200D01*
X606800Y712583D02*
X615500D01*
X606800Y717783D02*
X615500D01*
X699000Y748400D02*
X707700D01*
X699000Y753600D02*
X707700D01*
X518013Y699397D02*
Y708097D01*
X512813Y699397D02*
Y708097D01*
X611600Y735700D02*
Y744400D01*
X606400Y735700D02*
Y744400D01*
X732898Y781856D02*
Y790556D01*
X727698Y781856D02*
Y790556D01*
X513513Y712325D02*
X522213D01*
X513513Y717525D02*
X522213D01*
X607100Y748684D02*
X615800D01*
X607100Y753884D02*
X615800D01*
X728400Y794900D02*
X737100D01*
X728400Y800100D02*
X737100D01*
X421000Y716500D02*
Y725200D01*
X415800Y716500D02*
Y725200D01*
X518000Y735809D02*
Y744509D01*
X512800Y735809D02*
Y744509D01*
X656100Y699600D02*
Y708300D01*
X650900Y699600D02*
Y708300D01*
X685400Y781400D02*
Y790100D01*
X680200Y781400D02*
Y790100D01*
X416500Y729400D02*
X425200D01*
X416500Y734600D02*
X425200D01*
X513500Y748737D02*
X522200D01*
X513500Y753937D02*
X522200D01*
X651600Y712500D02*
X660300D01*
X651600Y717700D02*
X660300D01*
X680900Y794383D02*
X689600D01*
X680900Y799583D02*
X689600D01*
X647964Y461359D02*
X656664D01*
X647964Y466559D02*
X656664D01*
X669864Y452959D02*
Y461659D01*
X675064Y452959D02*
Y461659D01*
X720364Y452459D02*
Y461159D01*
X725564Y452459D02*
Y461159D01*
X720464Y438659D02*
Y447359D01*
X725664Y438659D02*
Y447359D01*
X649464Y460459D02*
X658164D01*
X649464Y455259D02*
X658164D01*
X741199Y542717D02*
Y551416D01*
X746399Y542717D02*
Y551416D01*
X750861Y580963D02*
X759561D01*
X750861Y586163D02*
X759561D01*
X432000Y768128D02*
X440700D01*
X432000Y762928D02*
X440700D01*
X574400Y717528D02*
X583100D01*
X574400Y712328D02*
X583100D01*
X666900Y753700D02*
X675600D01*
X666900Y748500D02*
X675600D01*
X431800Y671628D02*
X440500D01*
X431800Y666428D02*
X440500D01*
X577000Y753884D02*
X585700D01*
X577000Y748684D02*
X585700D01*
X714198Y717983D02*
X722898D01*
X714198Y712783D02*
X722898D01*
X431800Y703428D02*
X440500D01*
X431800Y698228D02*
X440500D01*
X622100Y717783D02*
X630800D01*
X622100Y712583D02*
X630800D01*
X714300Y753728D02*
X723000D01*
X714300Y748528D02*
X723000D01*
X528813Y717525D02*
X537513D01*
X528813Y712325D02*
X537513D01*
X622400Y753884D02*
X631100D01*
X622400Y748684D02*
X631100D01*
X743698Y800082D02*
X752398D01*
X743698Y794882D02*
X752398D01*
X431800Y734628D02*
X440500D01*
X431800Y729428D02*
X440500D01*
X528800Y753937D02*
X537500D01*
X528800Y748737D02*
X537500D01*
X666900Y717700D02*
X675600D01*
X666900Y712500D02*
X675600D01*
X536701Y459632D02*
X545401D01*
X536701Y454432D02*
X545401D01*
X672264Y468359D02*
X680964D01*
X672264Y463159D02*
X680964D01*
X714264Y452459D02*
Y461159D01*
X719464Y452459D02*
Y461159D01*
X676064Y452859D02*
Y461559D01*
X681264Y452859D02*
Y461559D01*
X726664Y452459D02*
Y461159D01*
X731864Y452459D02*
Y461159D01*
X679264Y428959D02*
X687964D01*
X679264Y423759D02*
X687964D01*
X686400Y580700D02*
Y589400D01*
X691600Y580700D02*
Y589400D01*
X715200Y579600D02*
Y588300D01*
X710000Y579600D02*
Y588300D01*
X696200Y799583D02*
X704900D01*
X696200Y794383D02*
X704900D01*
X750675Y552417D02*
X759375D01*
X750675Y547217D02*
X759375D01*
X750400Y593100D02*
X759100D01*
X750400Y587900D02*
X759100D01*
X397975Y531328D02*
Y531852D01*
X398500D01*
Y531328D01*
X397975D01*
X400599D02*
Y531852D01*
X401123D01*
Y531328D01*
X400599D01*
X403223D02*
Y531852D01*
X403747D01*
Y531328D01*
X403223D01*
X405846D02*
Y531852D01*
X406371D01*
Y531328D01*
X405846D01*
X408470D02*
Y531852D01*
X408995D01*
Y531328D01*
X408470D01*
X411094D02*
Y531852D01*
X411619D01*
Y531328D01*
X411094D01*
X413718D02*
Y531852D01*
X414243D01*
Y531328D01*
X413718D01*
X416342D02*
Y531852D01*
X416866D01*
Y531328D01*
X416342D01*
X418965D02*
Y531852D01*
X419490D01*
Y531328D01*
X418965D01*
X421589D02*
Y531852D01*
X422114D01*
Y531328D01*
X421589D01*
X424213D02*
Y531852D01*
X424738D01*
Y531328D01*
X424213D01*
X426837D02*
Y531852D01*
X427362D01*
Y531328D01*
X426837D01*
X429461D02*
Y531852D01*
X429986D01*
Y531328D01*
X429461D01*
X432085D02*
Y531852D01*
X432609D01*
Y531328D01*
X432085D01*
X434708D02*
Y531852D01*
X435233D01*
Y531328D01*
X434708D01*
X437332D02*
Y531852D01*
X437857D01*
Y531328D01*
X437332D01*
X439956D02*
Y531852D01*
X440481D01*
Y531328D01*
X439956D01*
X442580D02*
Y531852D01*
X443105D01*
Y531328D01*
X442580D01*
X445204D02*
Y531852D01*
X445728D01*
Y531328D01*
X445204D01*
X447828D02*
Y531852D01*
X448352D01*
Y531328D01*
X447828D01*
X450451D02*
Y531852D01*
X450976D01*
Y531328D01*
X450451D01*
X453075D02*
Y531852D01*
X453600D01*
Y531328D01*
X453075D01*
X455699D02*
Y531852D01*
X456224D01*
Y531328D01*
X455699D01*
X458323D02*
Y531852D01*
X458848D01*
Y531328D01*
X458323D01*
X460947D02*
Y531852D01*
X461472D01*
Y531328D01*
X460947D01*
X463571D02*
Y531852D01*
X464095D01*
Y531328D01*
X463571D01*
X466194D02*
Y531852D01*
X466719D01*
Y531328D01*
X466194D01*
X468818D02*
Y531852D01*
X469343D01*
Y531328D01*
X468818D01*
X471442D02*
Y531852D01*
X471967D01*
Y531328D01*
X471442D01*
X474066D02*
Y531852D01*
X474591D01*
Y531328D01*
X474066D01*
X476690D02*
Y531852D01*
X477214D01*
Y531328D01*
X476690D01*
X398762Y503226D02*
Y503751D01*
X399287D01*
Y503226D01*
X398762D01*
X401386D02*
Y503751D01*
X401911D01*
Y503226D01*
X401386D01*
X404010D02*
Y503751D01*
X404535D01*
Y503226D01*
X404010D01*
X406634D02*
Y503751D01*
X407159D01*
Y503226D01*
X406634D01*
X409258D02*
Y503751D01*
X409782D01*
Y503226D01*
X409258D01*
X411881D02*
Y503751D01*
X412406D01*
Y503226D01*
X411881D01*
X414505D02*
Y503751D01*
X415030D01*
Y503226D01*
X414505D01*
X417129D02*
Y503751D01*
X417654D01*
Y503226D01*
X417129D01*
X419753D02*
Y503751D01*
X420278D01*
Y503226D01*
X419753D01*
X422377D02*
Y503751D01*
X422901D01*
Y503226D01*
X422377D01*
X425000D02*
Y503751D01*
X425525D01*
Y503226D01*
X425000D01*
X427624D02*
Y503751D01*
X428149D01*
Y503226D01*
X427624D01*
X430248D02*
Y503751D01*
X430773D01*
Y503226D01*
X430248D01*
X432872D02*
Y503751D01*
X433397D01*
Y503226D01*
X432872D01*
X435496D02*
Y503751D01*
X436021D01*
Y503226D01*
X435496D01*
X438120D02*
Y503751D01*
X438644D01*
Y503226D01*
X438120D01*
X440743D02*
Y503751D01*
X441268D01*
Y503226D01*
X440743D01*
X443367D02*
Y503751D01*
X443892D01*
Y503226D01*
X443367D01*
X445991D02*
Y503751D01*
X446516D01*
Y503226D01*
X445991D01*
X448615D02*
Y503751D01*
X449140D01*
Y503226D01*
X448615D01*
X451239D02*
Y503751D01*
X451764D01*
Y503226D01*
X451239D01*
X453863D02*
Y503751D01*
X454387D01*
Y503226D01*
X453863D01*
X456487D02*
Y503751D01*
X457011D01*
Y503226D01*
X456487D01*
X459110D02*
Y503751D01*
X459635D01*
Y503226D01*
X459110D01*
X461734D02*
Y503751D01*
X462259D01*
Y503226D01*
X461734D01*
X464358D02*
Y503751D01*
X464883D01*
Y503226D01*
X464358D01*
X466982D02*
Y503751D01*
X467507D01*
Y503226D01*
X466982D01*
X469606D02*
Y503751D01*
X470130D01*
Y503226D01*
X469606D01*
X472229D02*
Y503751D01*
X472754D01*
Y503226D01*
X472229D01*
X474853D02*
Y503751D01*
X475378D01*
Y503226D01*
X474853D01*
X477477D02*
Y503751D01*
X478002D01*
Y503226D01*
X477477D01*
D50*
X579028Y510957D02*
Y514957D01*
X576028Y517957D02*
X579028Y514957D01*
X522028Y517957D02*
X576028D01*
X522028Y507957D02*
X576028D01*
X579028Y510957D01*
X519028Y514957D02*
X522028Y517957D01*
X519028Y510957D02*
Y514957D01*
Y510957D02*
X522028Y507957D01*
X710169Y833335D02*
Y837335D01*
Y833335D02*
X713169Y830335D01*
X767169D01*
X713169Y840335D02*
X767169D01*
X710169Y837335D02*
X713169Y840335D01*
X767169Y830335D02*
X770169Y833335D01*
Y837335D01*
X767169Y840335D02*
X770169Y837335D01*
X444264Y413083D02*
Y411115D01*
X444920Y410459D01*
X445576Y411115D01*
X446232Y410459D01*
X446888Y411115D01*
Y413083D01*
X448200D02*
Y411115D01*
X448856Y410459D01*
X449512Y411115D01*
X450168Y410459D01*
X450824Y411115D01*
Y413083D01*
X452136D02*
Y411115D01*
X452792Y410459D01*
X453448Y411115D01*
X454104Y410459D01*
X454760Y411115D01*
Y413083D01*
X456072Y410459D02*
Y411115D01*
X456728D01*
Y410459D01*
X456072D01*
X459351D02*
X460663D01*
X460007D01*
Y414395D01*
X459351D01*
X464599Y410459D02*
X463287D01*
X462631Y411115D01*
Y412427D01*
X463287Y413083D01*
X464599D01*
X465255Y412427D01*
Y411771D01*
X462631D01*
X466567Y413083D02*
X467879Y410459D01*
X469191Y413083D01*
X470503Y410459D02*
X471814D01*
X471159D01*
Y413083D01*
X470503D01*
X473782Y410459D02*
Y413083D01*
X475750D01*
X476406Y412427D01*
Y410459D01*
X477718Y409147D02*
Y413083D01*
X479686D01*
X480342Y412427D01*
Y411115D01*
X479686Y410459D01*
X477718D01*
X481654Y414395D02*
Y410459D01*
Y412427D01*
X482310Y413083D01*
X483622D01*
X484278Y412427D01*
Y410459D01*
X486245D02*
X487557D01*
X488213Y411115D01*
Y412427D01*
X487557Y413083D01*
X486245D01*
X485590Y412427D01*
Y411115D01*
X486245Y410459D01*
X490181Y413739D02*
Y413083D01*
X489525D01*
X490837D01*
X490181D01*
Y411115D01*
X490837Y410459D01*
X493461D02*
X494773D01*
X495429Y411115D01*
Y412427D01*
X494773Y413083D01*
X493461D01*
X492805Y412427D01*
Y411115D01*
X493461Y410459D01*
X496741D02*
Y413083D01*
X498709D01*
X499365Y412427D01*
Y410459D01*
X500676D02*
X501989D01*
X501333D01*
Y413083D01*
X500676D01*
X506580D02*
X504612D01*
X503956Y412427D01*
Y411115D01*
X504612Y410459D01*
X506580D01*
X507892D02*
X509860D01*
X510516Y411115D01*
X509860Y411771D01*
X508548D01*
X507892Y412427D01*
X508548Y413083D01*
X510516D01*
X511828Y410459D02*
Y411115D01*
X512484D01*
Y410459D01*
X511828D01*
X517731Y413083D02*
X515764D01*
X515108Y412427D01*
Y411115D01*
X515764Y410459D01*
X517731D01*
X519699D02*
X521011D01*
X521667Y411115D01*
Y412427D01*
X521011Y413083D01*
X519699D01*
X519043Y412427D01*
Y411115D01*
X519699Y410459D01*
X522979D02*
Y413083D01*
X523635D01*
X524291Y412427D01*
Y410459D01*
Y412427D01*
X524947Y413083D01*
X525603Y412427D01*
Y410459D01*
X752984Y522530D02*
X751016D01*
X752000D01*
Y516626D01*
X752984Y517610D01*
D51*
X395512Y560429D02*
Y616571D01*
X434488Y560429D02*
Y616571D01*
X395512D02*
X434488D01*
X395512Y560429D02*
X434488D01*
X395512Y611000D02*
X405000D01*
Y606000D02*
Y611000D01*
X395512Y606000D02*
X405000D01*
X395512Y596000D02*
X405000D01*
Y601000D01*
X395512D02*
X405000D01*
X395512Y586000D02*
X405000D01*
Y591000D01*
X395512D02*
X405000D01*
X395512Y576000D02*
X405000D01*
Y581000D01*
X395512D02*
X405000D01*
X395512Y566000D02*
X405000D01*
Y571000D01*
X395512D02*
X405000D01*
D52*
X407695Y461447D02*
X413695D01*
X429895D02*
X430795D01*
X451195D02*
X458995D01*
X478495D02*
X478795D01*
X407695Y461147D02*
X413695D01*
X427195D02*
X433195D01*
X451195D02*
X458995D01*
X475795D02*
X481795D01*
X407695Y460847D02*
X413695D01*
X425995D02*
X434395D01*
X450895D02*
X459295D01*
X474595D02*
X482995D01*
X407695Y460547D02*
X413695D01*
X425095D02*
X435295D01*
X450895D02*
X459295D01*
X473995D02*
X484195D01*
X407695Y460247D02*
X413695D01*
X424195D02*
X435895D01*
X450895D02*
X459295D01*
X473395D02*
X484795D01*
X407695Y459947D02*
X413695D01*
X423595D02*
X436495D01*
X450595D02*
X459595D01*
X472795D02*
X485395D01*
X407695Y459647D02*
X413695D01*
X422995D02*
X436795D01*
X450595D02*
X459595D01*
X472195D02*
X485995D01*
X407695Y459347D02*
X413695D01*
X422695D02*
X437395D01*
X450595D02*
X459595D01*
X471895D02*
X486595D01*
X407695Y459047D02*
X413695D01*
X422095D02*
X437695D01*
X450295D02*
X459895D01*
X471595D02*
X487195D01*
X407695Y458747D02*
X413695D01*
X421795D02*
X437995D01*
X450295D02*
X459895D01*
X471295D02*
X487495D01*
X407695Y458447D02*
X413695D01*
X421495D02*
X438295D01*
X449995D02*
X460195D01*
X470995D02*
X487495D01*
X407695Y458147D02*
X413695D01*
X420895D02*
X438295D01*
X449995D02*
X460195D01*
X470695D02*
X487495D01*
X407695Y457847D02*
X413695D01*
X420595D02*
X437995D01*
X449995D02*
X460195D01*
X470395D02*
X487195D01*
X407695Y457547D02*
X413695D01*
X420295D02*
X437995D01*
X449695D02*
X460495D01*
X470095D02*
X487195D01*
X407695Y457247D02*
X413695D01*
X419995D02*
X437695D01*
X449695D02*
X460495D01*
X470095D02*
X486895D01*
X407695Y456947D02*
X413695D01*
X419995D02*
X437395D01*
X449695D02*
X460495D01*
X469795D02*
X486895D01*
X407695Y456647D02*
X413695D01*
X419695D02*
X437395D01*
X449395D02*
X460795D01*
X469795D02*
X486595D01*
X407695Y456347D02*
X413695D01*
X419395D02*
X437095D01*
X449395D02*
X460795D01*
X469495D02*
X477895D01*
X478795D02*
X486295D01*
X407695Y456047D02*
X413695D01*
X419095D02*
X428695D01*
X431695D02*
X437095D01*
X449095D02*
X454795D01*
X455395D02*
X461095D01*
X469495D02*
X476395D01*
X480595D02*
X486295D01*
X407695Y455747D02*
X413695D01*
X419095D02*
X427495D01*
X432595D02*
X436795D01*
X449095D02*
X454795D01*
X455395D02*
X461095D01*
X469195D02*
X475795D01*
X481795D02*
X485995D01*
X407695Y455447D02*
X413695D01*
X418795D02*
X426895D01*
X433195D02*
X436495D01*
X449095D02*
X454795D01*
X455395D02*
X461095D01*
X469195D02*
X475495D01*
X482695D02*
X485995D01*
X407695Y455147D02*
X413695D01*
X418795D02*
X426295D01*
X433795D02*
X436495D01*
X448795D02*
X454495D01*
X455695D02*
X461395D01*
X469195D02*
X475495D01*
X483295D02*
X485695D01*
X407695Y454847D02*
X413695D01*
X418495D02*
X425995D01*
X434095D02*
X436195D01*
X448795D02*
X454495D01*
X455695D02*
X461395D01*
X469195D02*
X475195D01*
X483895D02*
X485695D01*
X407695Y454547D02*
X413695D01*
X418495D02*
X425695D01*
X434395D02*
X436195D01*
X448795D02*
X454495D01*
X455695D02*
X461695D01*
X469195D02*
X475195D01*
X484195D02*
X485395D01*
X407695Y454247D02*
X413695D01*
X418195D02*
X425395D01*
X434695D02*
X435895D01*
X448495D02*
X454195D01*
X455995D02*
X461695D01*
X469195D02*
X475195D01*
X484795D02*
X485095D01*
X407695Y453947D02*
X413695D01*
X418195D02*
X425095D01*
X434995D02*
X435895D01*
X448495D02*
X454195D01*
X455995D02*
X461695D01*
X469195D02*
X475195D01*
X407695Y453647D02*
X413695D01*
X417895D02*
X424795D01*
X435295D02*
X435595D01*
X448195D02*
X454195D01*
X455995D02*
X461995D01*
X469195D02*
X475195D01*
X407695Y453347D02*
X413695D01*
X417895D02*
X424495D01*
X448195D02*
X453895D01*
X456295D02*
X461995D01*
X469195D02*
X475495D01*
X407695Y453047D02*
X413695D01*
X417895D02*
X424495D01*
X448195D02*
X453895D01*
X456295D02*
X461995D01*
X469195D02*
X475795D01*
X407695Y452747D02*
X413695D01*
X417595D02*
X424195D01*
X447895D02*
X453895D01*
X456595D02*
X462295D01*
X469195D02*
X476395D01*
X407695Y452447D02*
X413695D01*
X417595D02*
X423895D01*
X447895D02*
X453595D01*
X456595D02*
X462295D01*
X469195D02*
X477295D01*
X407695Y452147D02*
X413695D01*
X417595D02*
X423895D01*
X447895D02*
X453595D01*
X456595D02*
X462595D01*
X469195D02*
X478795D01*
X407695Y451847D02*
X413695D01*
X417595D02*
X423895D01*
X447595D02*
X453595D01*
X456895D02*
X462595D01*
X469495D02*
X479995D01*
X407695Y451547D02*
X413695D01*
X417295D02*
X423595D01*
X447595D02*
X453295D01*
X456895D02*
X462595D01*
X469495D02*
X481195D01*
X407695Y451247D02*
X413695D01*
X417295D02*
X423595D01*
X447295D02*
X453295D01*
X456895D02*
X462895D01*
X469495D02*
X482395D01*
X407695Y450947D02*
X413695D01*
X417295D02*
X423595D01*
X447295D02*
X452995D01*
X457195D02*
X462895D01*
X469795D02*
X483295D01*
X407695Y450647D02*
X413695D01*
X417295D02*
X423295D01*
X447295D02*
X452995D01*
X457195D02*
X462895D01*
X469795D02*
X484195D01*
X407695Y450347D02*
X413695D01*
X417295D02*
X423295D01*
X429295D02*
X440995D01*
X446995D02*
X452995D01*
X457195D02*
X463195D01*
X470095D02*
X485095D01*
X407695Y450047D02*
X413695D01*
X417295D02*
X423295D01*
X429295D02*
X440995D01*
X446995D02*
X452695D01*
X457495D02*
X463195D01*
X470395D02*
X485695D01*
X407695Y449747D02*
X413695D01*
X417295D02*
X423295D01*
X429295D02*
X440995D01*
X446995D02*
X452695D01*
X457495D02*
X463495D01*
X470695D02*
X485995D01*
X407695Y449447D02*
X413695D01*
X417295D02*
X423295D01*
X429295D02*
X440995D01*
X446695D02*
X452695D01*
X457495D02*
X463495D01*
X470995D02*
X486595D01*
X407695Y449147D02*
X413695D01*
X417295D02*
X423295D01*
X429295D02*
X440995D01*
X446695D02*
X452395D01*
X457795D02*
X463495D01*
X471295D02*
X486895D01*
X407695Y448847D02*
X413695D01*
X417295D02*
X423295D01*
X429295D02*
X440995D01*
X446395D02*
X452395D01*
X457795D02*
X463795D01*
X471595D02*
X487195D01*
X407695Y448547D02*
X413695D01*
X417295D02*
X423295D01*
X429295D02*
X440995D01*
X446395D02*
X452395D01*
X457795D02*
X463795D01*
X472195D02*
X487495D01*
X407695Y448247D02*
X413695D01*
X417295D02*
X423295D01*
X429295D02*
X440995D01*
X446395D02*
X452095D01*
X458095D02*
X463795D01*
X472795D02*
X487795D01*
X407695Y447947D02*
X413695D01*
X417295D02*
X423295D01*
X429295D02*
X440995D01*
X446095D02*
X452095D01*
X458095D02*
X464095D01*
X473395D02*
X488095D01*
X407695Y447647D02*
X413695D01*
X417295D02*
X423295D01*
X429295D02*
X440995D01*
X446095D02*
X452095D01*
X458095D02*
X464095D01*
X473995D02*
X488095D01*
X407695Y447347D02*
X413695D01*
X417295D02*
X423295D01*
X429295D02*
X440995D01*
X446095D02*
X451795D01*
X458395D02*
X464395D01*
X475195D02*
X488395D01*
X407695Y447047D02*
X413395D01*
X417295D02*
X423595D01*
X429295D02*
X440995D01*
X445795D02*
X451795D01*
X458395D02*
X464395D01*
X476095D02*
X488395D01*
X407695Y446747D02*
X413095D01*
X417295D02*
X423595D01*
X429295D02*
X440995D01*
X445795D02*
X451795D01*
X458395D02*
X464395D01*
X477595D02*
X488695D01*
X407695Y446447D02*
X413095D01*
X417295D02*
X423595D01*
X429295D02*
X440995D01*
X445495D02*
X451495D01*
X458695D02*
X464695D01*
X478795D02*
X488695D01*
X407695Y446147D02*
X412795D01*
X417595D02*
X423595D01*
X429295D02*
X440995D01*
X445495D02*
X451495D01*
X458695D02*
X464695D01*
X479995D02*
X488695D01*
X407695Y445847D02*
X412795D01*
X417595D02*
X423895D01*
X429295D02*
X440995D01*
X445495D02*
X464695D01*
X480895D02*
X488995D01*
X407695Y445547D02*
X412495D01*
X417595D02*
X423895D01*
X434995D02*
X440995D01*
X445195D02*
X464995D01*
X481795D02*
X488995D01*
X407695Y445247D02*
X412495D01*
X417595D02*
X424195D01*
X434995D02*
X440995D01*
X445195D02*
X464995D01*
X482095D02*
X488995D01*
X407695Y444947D02*
X412195D01*
X417895D02*
X424195D01*
X434995D02*
X440995D01*
X445195D02*
X465295D01*
X482395D02*
X488995D01*
X407695Y444647D02*
X411895D01*
X417895D02*
X424495D01*
X434995D02*
X440995D01*
X444895D02*
X465295D01*
X482695D02*
X488995D01*
X407695Y444347D02*
X411895D01*
X417895D02*
X424795D01*
X434995D02*
X440995D01*
X444895D02*
X465295D01*
X471295D02*
X471595D01*
X482695D02*
X488995D01*
X407695Y444047D02*
X411595D01*
X418195D02*
X425095D01*
X434995D02*
X440995D01*
X444595D02*
X465595D01*
X471295D02*
X472195D01*
X482695D02*
X488995D01*
X407695Y443747D02*
X411595D01*
X418195D02*
X425395D01*
X434995D02*
X440995D01*
X444595D02*
X465595D01*
X470995D02*
X472495D01*
X482695D02*
X488995D01*
X407695Y443447D02*
X411295D01*
X418495D02*
X425695D01*
X434995D02*
X440995D01*
X444595D02*
X465595D01*
X470995D02*
X472795D01*
X482695D02*
X488995D01*
X407695Y443147D02*
X411295D01*
X418495D02*
X425995D01*
X434995D02*
X440995D01*
X444295D02*
X465295D01*
X470695D02*
X473395D01*
X482695D02*
X488995D01*
X494995D02*
X496195D01*
X407695Y442847D02*
X410995D01*
X418795D02*
X426295D01*
X434395D02*
X440995D01*
X444295D02*
X465295D01*
X470695D02*
X473995D01*
X482395D02*
X488695D01*
X494095D02*
X497095D01*
X407695Y442547D02*
X410695D01*
X418795D02*
X426895D01*
X433795D02*
X440995D01*
X444295D02*
X464995D01*
X470395D02*
X474595D01*
X482395D02*
X488695D01*
X493795D02*
X497395D01*
X407695Y442247D02*
X410695D01*
X419095D02*
X427495D01*
X433195D02*
X440995D01*
X443995D02*
X464695D01*
X470095D02*
X475195D01*
X481795D02*
X488695D01*
X493495D02*
X497995D01*
X407695Y441947D02*
X410395D01*
X419395D02*
X428395D01*
X431995D02*
X440995D01*
X443995D02*
X464695D01*
X470095D02*
X476395D01*
X481195D02*
X488695D01*
X493195D02*
X498295D01*
X407695Y441647D02*
X410395D01*
X419395D02*
X440995D01*
X443695D02*
X464395D01*
X469795D02*
X478495D01*
X479695D02*
X488395D01*
X492895D02*
X498295D01*
X407695Y441347D02*
X410095D01*
X419695D02*
X440995D01*
X443695D02*
X464395D01*
X469795D02*
X488395D01*
X492595D02*
X498595D01*
X407695Y441047D02*
X409795D01*
X419995D02*
X440695D01*
X443695D02*
X464095D01*
X469495D02*
X488095D01*
X492595D02*
X498595D01*
X407695Y440747D02*
X409795D01*
X420295D02*
X440395D01*
X443395D02*
X449695D01*
X460495D02*
X463795D01*
X469495D02*
X488095D01*
X492295D02*
X498895D01*
X407695Y440447D02*
X409495D01*
X420595D02*
X440095D01*
X443395D02*
X449695D01*
X460495D02*
X463795D01*
X469195D02*
X487795D01*
X492295D02*
X498895D01*
X407695Y440147D02*
X409495D01*
X420895D02*
X439795D01*
X443395D02*
X449695D01*
X460495D02*
X463495D01*
X468895D02*
X487495D01*
X492295D02*
X498895D01*
X407695Y439847D02*
X409195D01*
X421195D02*
X439495D01*
X443095D02*
X449395D01*
X460795D02*
X463495D01*
X469195D02*
X487495D01*
X492295D02*
X498895D01*
X407695Y439547D02*
X409195D01*
X421495D02*
X439195D01*
X443095D02*
X449395D01*
X460795D02*
X463195D01*
X469495D02*
X487195D01*
X492295D02*
X498895D01*
X407695Y439247D02*
X408895D01*
X421795D02*
X438595D01*
X442795D02*
X449395D01*
X460795D02*
X463195D01*
X469795D02*
X486895D01*
X492295D02*
X498895D01*
X407695Y438947D02*
X408595D01*
X422095D02*
X438295D01*
X442795D02*
X449095D01*
X461095D02*
X462895D01*
X470395D02*
X486595D01*
X492595D02*
X498595D01*
X407695Y438647D02*
X408595D01*
X422695D02*
X437995D01*
X442795D02*
X449095D01*
X461095D02*
X462595D01*
X470695D02*
X485995D01*
X492595D02*
X498595D01*
X407695Y438347D02*
X408295D01*
X423295D02*
X437395D01*
X442495D02*
X449095D01*
X461395D02*
X462595D01*
X471295D02*
X485695D01*
X492895D02*
X498295D01*
X407695Y438047D02*
X408295D01*
X423595D02*
X436795D01*
X442495D02*
X448795D01*
X461395D02*
X462295D01*
X471895D02*
X485095D01*
X492895D02*
X498295D01*
X407695Y437747D02*
X407995D01*
X424495D02*
X436195D01*
X442195D02*
X448795D01*
X461395D02*
X462295D01*
X472795D02*
X484495D01*
X493195D02*
X497995D01*
X407695Y437447D02*
X407995D01*
X425095D02*
X435295D01*
X442195D02*
X448795D01*
X461695D02*
X461995D01*
X473695D02*
X483895D01*
X493495D02*
X497695D01*
X425995Y437147D02*
X434695D01*
X442195D02*
X448495D01*
X461695D02*
X461995D01*
X474595D02*
X482995D01*
X494095D02*
X497395D01*
X427195Y436847D02*
X433495D01*
X441895D02*
X448495D01*
X476095D02*
X481795D01*
X494695D02*
X496795D01*
X429895Y436547D02*
X430795D01*
D53*
X728543Y479823D02*
Y483759D01*
X730511Y485726D01*
X732479Y483759D01*
Y479823D01*
Y482775D01*
X728543D01*
X734447Y485726D02*
Y481791D01*
X736415Y479823D01*
X738383Y481791D01*
Y485726D01*
X740350Y479823D02*
Y485726D01*
X743302D01*
X744286Y484742D01*
Y482775D01*
X743302Y481791D01*
X740350D01*
X742318D02*
X744286Y479823D01*
X752158Y485726D02*
X754126D01*
X753142D01*
Y479823D01*
X752158D01*
X754126D01*
X761013Y484742D02*
X760029Y485726D01*
X758061D01*
X757077Y484742D01*
Y483759D01*
X758061Y482775D01*
X760029D01*
X761013Y481791D01*
Y480807D01*
X760029Y479823D01*
X758061D01*
X757077Y480807D01*
X762981Y479823D02*
Y485726D01*
X765933D01*
X766917Y484742D01*
Y482775D01*
X765933Y481791D01*
X762981D01*
X447361Y521761D02*
Y525304D01*
X449132D01*
X449722Y524713D01*
Y523532D01*
X449132Y522942D01*
X447361D01*
X448541D02*
X449722Y521761D01*
X452674D02*
X451493D01*
X450903Y522352D01*
Y523532D01*
X451493Y524123D01*
X452674D01*
X453264Y523532D01*
Y522942D01*
X450903D01*
X454445Y524123D02*
X455626Y521761D01*
X456806Y524123D01*
X457987Y521761D02*
Y522352D01*
X458577D01*
Y521761D01*
X457987D01*
X460939Y524713D02*
X461529Y525304D01*
X462710D01*
X463300Y524713D01*
Y524123D01*
X462710Y523532D01*
X462120D01*
X462710D01*
X463300Y522942D01*
Y522352D01*
X462710Y521761D01*
X461529D01*
X460939Y522352D01*
D54*
X731693Y843209D02*
D03*
M02*
