G04 Layer_Color=8388736*
%FSLAX25Y25*%
%MOIN*%
G70*
G01*
G75*
%ADD55R,0.03162X0.06706*%
%ADD56R,0.06706X0.03162*%
%ADD57R,0.07493X0.07099*%
%ADD58R,0.06706X0.13398*%
%ADD59R,0.05918X0.05131*%
G04:AMPARAMS|DCode=60|XSize=165.48mil|YSize=165.48mil|CornerRadius=43.37mil|HoleSize=0mil|Usage=FLASHONLY|Rotation=0.000|XOffset=0mil|YOffset=0mil|HoleType=Round|Shape=RoundedRectangle|*
%AMROUNDEDRECTD60*
21,1,0.16548,0.07874,0,0,0.0*
21,1,0.07874,0.16548,0,0,0.0*
1,1,0.08674,0.03937,-0.03937*
1,1,0.08674,-0.03937,-0.03937*
1,1,0.08674,-0.03937,0.03937*
1,1,0.08674,0.03937,0.03937*
%
%ADD60ROUNDEDRECTD60*%
G04:AMPARAMS|DCode=61|XSize=66.93mil|YSize=106.3mil|CornerRadius=18.7mil|HoleSize=0mil|Usage=FLASHONLY|Rotation=0.000|XOffset=0mil|YOffset=0mil|HoleType=Round|Shape=RoundedRectangle|*
%AMROUNDEDRECTD61*
21,1,0.06693,0.06890,0,0,0.0*
21,1,0.02953,0.10630,0,0,0.0*
1,1,0.03740,0.01476,-0.03445*
1,1,0.03740,-0.01476,-0.03445*
1,1,0.03740,-0.01476,0.03445*
1,1,0.03740,0.01476,0.03445*
%
%ADD61ROUNDEDRECTD61*%
%ADD62R,0.09068X0.07887*%
%ADD63R,0.04343X0.03950*%
G04:AMPARAMS|DCode=64|XSize=78.87mil|YSize=149.73mil|CornerRadius=7.54mil|HoleSize=0mil|Usage=FLASHONLY|Rotation=0.000|XOffset=0mil|YOffset=0mil|HoleType=Round|Shape=RoundedRectangle|*
%AMROUNDEDRECTD64*
21,1,0.07887,0.13465,0,0,0.0*
21,1,0.06378,0.14973,0,0,0.0*
1,1,0.01509,0.03189,-0.06732*
1,1,0.01509,-0.03189,-0.06732*
1,1,0.01509,-0.03189,0.06732*
1,1,0.01509,0.03189,0.06732*
%
%ADD64ROUNDEDRECTD64*%
%ADD65R,0.04737X0.06312*%
%ADD66O,0.06299X0.01968*%
%ADD67O,0.01968X0.06299*%
%ADD68R,0.07099X0.07493*%
G04:AMPARAMS|DCode=69|XSize=67.06mil|YSize=133.98mil|CornerRadius=18.76mil|HoleSize=0mil|Usage=FLASHONLY|Rotation=90.000|XOffset=0mil|YOffset=0mil|HoleType=Round|Shape=RoundedRectangle|*
%AMROUNDEDRECTD69*
21,1,0.06706,0.09646,0,0,90.0*
21,1,0.02953,0.13398,0,0,90.0*
1,1,0.03753,0.04823,0.01476*
1,1,0.03753,0.04823,-0.01476*
1,1,0.03753,-0.04823,-0.01476*
1,1,0.03753,-0.04823,0.01476*
%
%ADD69ROUNDEDRECTD69*%
%ADD70R,0.13398X0.06706*%
%ADD71R,0.07099X0.04737*%
%ADD72R,0.04737X0.07099*%
%ADD73R,0.03950X0.03556*%
%ADD74R,0.03556X0.03950*%
%ADD75C,0.07099*%
%ADD76P,0.07684X8X22.5*%
%ADD77R,0.07296X0.07296*%
%ADD78C,0.07296*%
%ADD79C,0.06800*%
%ADD80C,0.10642*%
%ADD81C,0.18516*%
G36*
X512172Y449640D02*
X553314Y449640D01*
Y449640D01*
X553702Y449640D01*
X554462Y449488D01*
X555179Y449192D01*
X555824Y448761D01*
X556372Y448212D01*
X556803Y447568D01*
X557099Y446851D01*
X557251Y446091D01*
Y445703D01*
X557251Y437435D01*
X557251D01*
Y437047D01*
X557100Y436286D01*
X556803Y435570D01*
X556372Y434925D01*
X555824Y434377D01*
X555179Y433946D01*
X554462Y433649D01*
X553702Y433498D01*
X553314D01*
X512664Y433498D01*
X512306Y433498D01*
X511602Y433638D01*
X510939Y433912D01*
X510343Y434311D01*
X509835Y434818D01*
X509437Y435415D01*
X509163Y436077D01*
X509023Y436781D01*
X509023Y437140D01*
X509023Y446490D01*
X509023Y446800D01*
X509144Y447409D01*
X509381Y447982D01*
X509726Y448498D01*
X510164Y448937D01*
X510680Y449281D01*
X511253Y449519D01*
X511862Y449640D01*
X512172Y449640D01*
D02*
G37*
D55*
X635945Y657903D02*
D03*
X640945D02*
D03*
X630945D02*
D03*
X625945D02*
D03*
X615945D02*
D03*
X620945D02*
D03*
X605945D02*
D03*
X610945D02*
D03*
X605945Y679163D02*
D03*
X620945D02*
D03*
X615945D02*
D03*
X610945D02*
D03*
X630945D02*
D03*
X625945D02*
D03*
X635945D02*
D03*
X640945D02*
D03*
X495787Y657903D02*
D03*
X500787D02*
D03*
X490787D02*
D03*
X485787D02*
D03*
X475787D02*
D03*
X480787D02*
D03*
X465787D02*
D03*
X470787D02*
D03*
X465787Y679163D02*
D03*
X480787D02*
D03*
X475787D02*
D03*
X470787D02*
D03*
X490787D02*
D03*
X485787D02*
D03*
X495787D02*
D03*
X500787D02*
D03*
D56*
X743504Y575079D02*
D03*
Y570079D02*
D03*
Y560079D02*
D03*
Y565079D02*
D03*
X764764D02*
D03*
Y560079D02*
D03*
Y570079D02*
D03*
Y575079D02*
D03*
X687804Y435759D02*
D03*
Y440759D02*
D03*
Y450759D02*
D03*
Y445759D02*
D03*
X709064D02*
D03*
Y450759D02*
D03*
Y440759D02*
D03*
Y435759D02*
D03*
X601575Y582283D02*
D03*
Y577283D02*
D03*
Y587284D02*
D03*
Y592283D02*
D03*
Y602283D02*
D03*
Y597284D02*
D03*
Y612284D02*
D03*
Y607283D02*
D03*
X622835Y612284D02*
D03*
Y597284D02*
D03*
Y602283D02*
D03*
Y607283D02*
D03*
Y587284D02*
D03*
Y592283D02*
D03*
Y582283D02*
D03*
Y577283D02*
D03*
X601575Y524232D02*
D03*
Y519232D02*
D03*
Y529232D02*
D03*
Y534232D02*
D03*
Y544232D02*
D03*
Y539232D02*
D03*
Y554232D02*
D03*
Y549232D02*
D03*
X622835Y554232D02*
D03*
Y539232D02*
D03*
Y544232D02*
D03*
Y549232D02*
D03*
Y529232D02*
D03*
Y534232D02*
D03*
Y524232D02*
D03*
Y519232D02*
D03*
D57*
X791634Y482283D02*
D03*
Y468504D02*
D03*
D58*
X799800Y590158D02*
D03*
X787202D02*
D03*
X799800Y545900D02*
D03*
X787202D02*
D03*
D59*
X705200Y588100D02*
D03*
X696145D02*
D03*
Y581013D02*
D03*
X705200D02*
D03*
D60*
X549319Y441344D02*
D03*
D61*
X558375Y421659D02*
D03*
X549319D02*
D03*
X540264D02*
D03*
D62*
X408502Y747944D02*
D03*
Y765267D02*
D03*
X550902Y697344D02*
D03*
Y714667D02*
D03*
X643400Y733600D02*
D03*
Y750923D02*
D03*
X408302Y651444D02*
D03*
Y668767D02*
D03*
X553500Y733700D02*
D03*
Y751023D02*
D03*
X690700Y697800D02*
D03*
Y715123D02*
D03*
X408302Y683244D02*
D03*
Y700567D02*
D03*
X598600Y697600D02*
D03*
Y714923D02*
D03*
X690802Y733544D02*
D03*
Y750867D02*
D03*
X505315Y697341D02*
D03*
Y714664D02*
D03*
X598902Y733700D02*
D03*
Y751023D02*
D03*
X720200Y779800D02*
D03*
Y797123D02*
D03*
X408302Y714444D02*
D03*
Y731767D02*
D03*
X505302Y733753D02*
D03*
Y751076D02*
D03*
X643400Y697600D02*
D03*
Y714923D02*
D03*
X672700Y779400D02*
D03*
Y796723D02*
D03*
X788400Y559200D02*
D03*
Y576523D02*
D03*
X776200Y591043D02*
D03*
Y573721D02*
D03*
Y543405D02*
D03*
Y560728D02*
D03*
X601564Y456059D02*
D03*
Y438736D02*
D03*
D63*
X508996Y527179D02*
D03*
Y520079D02*
D03*
X508661Y540144D02*
D03*
Y547244D02*
D03*
X588996Y605594D02*
D03*
Y612695D02*
D03*
Y592594D02*
D03*
Y585495D02*
D03*
X568996Y605594D02*
D03*
Y612695D02*
D03*
Y592594D02*
D03*
Y585495D02*
D03*
X548996Y605594D02*
D03*
Y612695D02*
D03*
Y592594D02*
D03*
Y585495D02*
D03*
X528996Y605594D02*
D03*
Y612695D02*
D03*
Y592594D02*
D03*
Y585495D02*
D03*
X588996Y540144D02*
D03*
Y547244D02*
D03*
Y527496D02*
D03*
Y520396D02*
D03*
X568996Y540144D02*
D03*
Y547244D02*
D03*
Y527496D02*
D03*
Y520396D02*
D03*
X548996Y540144D02*
D03*
Y547244D02*
D03*
Y527496D02*
D03*
Y520396D02*
D03*
X528996Y540144D02*
D03*
Y547244D02*
D03*
Y527496D02*
D03*
Y520396D02*
D03*
D64*
X662297Y432959D02*
D03*
X626864D02*
D03*
D65*
X431000Y757700D02*
D03*
X435331Y747464D02*
D03*
X426669D02*
D03*
X573400Y707074D02*
D03*
X577731Y696838D02*
D03*
X569069D02*
D03*
X665900Y743300D02*
D03*
X670231Y733064D02*
D03*
X661569D02*
D03*
X430712Y661200D02*
D03*
X435042Y650964D02*
D03*
X426381D02*
D03*
X576000Y743430D02*
D03*
X580331Y733194D02*
D03*
X571669D02*
D03*
X713200Y707500D02*
D03*
X717531Y697264D02*
D03*
X708869D02*
D03*
X430731Y693036D02*
D03*
X435061Y682800D02*
D03*
X426400D02*
D03*
X621100Y707330D02*
D03*
X625431Y697094D02*
D03*
X616769D02*
D03*
X713300Y743200D02*
D03*
X717631Y732964D02*
D03*
X708969D02*
D03*
X527813Y707127D02*
D03*
X532144Y696891D02*
D03*
X523483D02*
D03*
X621400Y743430D02*
D03*
X625731Y733194D02*
D03*
X617069D02*
D03*
X742700Y789700D02*
D03*
X747031Y779464D02*
D03*
X738369D02*
D03*
X430731Y724236D02*
D03*
X435061Y714000D02*
D03*
X426400D02*
D03*
X527800Y743539D02*
D03*
X532131Y733303D02*
D03*
X523469D02*
D03*
X665831Y707336D02*
D03*
X670161Y697100D02*
D03*
X661500D02*
D03*
X695200Y789130D02*
D03*
X699531Y778894D02*
D03*
X690869D02*
D03*
D66*
X727712Y555139D02*
D03*
Y558289D02*
D03*
Y564588D02*
D03*
Y561439D02*
D03*
Y548840D02*
D03*
Y551990D02*
D03*
Y545690D02*
D03*
Y542541D02*
D03*
X694641Y551990D02*
D03*
Y548840D02*
D03*
Y542541D02*
D03*
Y545690D02*
D03*
Y558289D02*
D03*
Y555139D02*
D03*
Y561439D02*
D03*
Y564588D02*
D03*
D67*
X712751Y537029D02*
D03*
X715901D02*
D03*
X722200D02*
D03*
X719050D02*
D03*
X706452D02*
D03*
X709602D02*
D03*
X703302D02*
D03*
X700153D02*
D03*
X722200Y570100D02*
D03*
X719050D02*
D03*
X712751D02*
D03*
X715901D02*
D03*
X703302D02*
D03*
X700153D02*
D03*
X706452D02*
D03*
X709602D02*
D03*
D68*
X676837Y414994D02*
D03*
X690617D02*
D03*
D69*
X791240Y492413D02*
D03*
Y508913D02*
D03*
D70*
X548700Y784902D02*
D03*
Y797500D02*
D03*
X532087Y784902D02*
D03*
Y797500D02*
D03*
X548700Y821298D02*
D03*
Y808700D02*
D03*
X532087Y821358D02*
D03*
Y808760D02*
D03*
D71*
X732764Y437359D02*
D03*
Y426336D02*
D03*
X614564Y442859D02*
D03*
Y453883D02*
D03*
D72*
X547507Y465126D02*
D03*
X536484D02*
D03*
D73*
X578996Y612695D02*
D03*
Y607576D02*
D03*
Y585495D02*
D03*
Y590613D02*
D03*
X558996Y612695D02*
D03*
Y607576D02*
D03*
Y585495D02*
D03*
Y590613D02*
D03*
X538996Y612695D02*
D03*
Y607576D02*
D03*
Y585495D02*
D03*
Y590613D02*
D03*
X518996Y612695D02*
D03*
Y607576D02*
D03*
Y585495D02*
D03*
Y590613D02*
D03*
X578996Y546043D02*
D03*
Y540925D02*
D03*
Y520396D02*
D03*
Y525514D02*
D03*
X558996Y546043D02*
D03*
Y540925D02*
D03*
Y520396D02*
D03*
Y525514D02*
D03*
X502047Y527651D02*
D03*
Y522533D02*
D03*
Y546043D02*
D03*
Y540925D02*
D03*
X538996Y546043D02*
D03*
Y540925D02*
D03*
Y520396D02*
D03*
Y525514D02*
D03*
X518996Y546043D02*
D03*
Y540925D02*
D03*
Y520396D02*
D03*
Y525514D02*
D03*
X418600Y751600D02*
D03*
Y756718D02*
D03*
X561000Y700944D02*
D03*
Y706062D02*
D03*
X653543Y737191D02*
D03*
Y742309D02*
D03*
X418400Y655100D02*
D03*
Y660218D02*
D03*
X563598Y737356D02*
D03*
Y742474D02*
D03*
X700800Y701400D02*
D03*
Y706518D02*
D03*
X418400Y686900D02*
D03*
Y692018D02*
D03*
X608700Y701200D02*
D03*
Y706318D02*
D03*
X700900Y737100D02*
D03*
Y742218D02*
D03*
X515413Y700997D02*
D03*
Y706115D02*
D03*
X609000Y737300D02*
D03*
Y742418D02*
D03*
X730298Y783456D02*
D03*
Y788574D02*
D03*
X418400Y718100D02*
D03*
Y723218D02*
D03*
X515400Y737409D02*
D03*
Y742527D02*
D03*
X653500Y701200D02*
D03*
Y706318D02*
D03*
X682800Y783000D02*
D03*
Y788118D02*
D03*
X672464Y460059D02*
D03*
Y454941D02*
D03*
X722964Y459559D02*
D03*
Y454441D02*
D03*
X723064Y445759D02*
D03*
Y440641D02*
D03*
X743799Y549817D02*
D03*
Y544698D02*
D03*
X716864Y459559D02*
D03*
Y454441D02*
D03*
X678664Y459959D02*
D03*
Y454841D02*
D03*
X729264Y459559D02*
D03*
Y454441D02*
D03*
X689000Y587800D02*
D03*
Y582682D02*
D03*
X712600Y581200D02*
D03*
Y586318D02*
D03*
D74*
X418300Y765528D02*
D03*
X423418D02*
D03*
X560700Y714928D02*
D03*
X565818D02*
D03*
X653200Y751100D02*
D03*
X658318D02*
D03*
X418100Y669028D02*
D03*
X423218D02*
D03*
X563300Y751284D02*
D03*
X568418D02*
D03*
X700500Y715300D02*
D03*
X705618D02*
D03*
X418100Y700828D02*
D03*
X423218D02*
D03*
X608400Y715183D02*
D03*
X613518D02*
D03*
X700600Y751000D02*
D03*
X705718D02*
D03*
X515113Y714925D02*
D03*
X520231D02*
D03*
X608700Y751284D02*
D03*
X613818D02*
D03*
X730000Y797500D02*
D03*
X735118D02*
D03*
X418100Y732000D02*
D03*
X423218D02*
D03*
X515100Y751337D02*
D03*
X520218D02*
D03*
X653200Y715100D02*
D03*
X658318D02*
D03*
X682500Y796983D02*
D03*
X687618D02*
D03*
X649564Y463959D02*
D03*
X654682D02*
D03*
X656564Y457859D02*
D03*
X651446D02*
D03*
X752461Y583563D02*
D03*
X757579D02*
D03*
X439100Y765528D02*
D03*
X433982D02*
D03*
X581500Y714928D02*
D03*
X576382D02*
D03*
X674000Y751100D02*
D03*
X668882D02*
D03*
X438900Y669028D02*
D03*
X433782D02*
D03*
X584100Y751284D02*
D03*
X578982D02*
D03*
X721298Y715383D02*
D03*
X716180D02*
D03*
X438900Y700828D02*
D03*
X433782D02*
D03*
X629200Y715183D02*
D03*
X624082D02*
D03*
X721400Y751128D02*
D03*
X716282D02*
D03*
X535913Y714925D02*
D03*
X530795D02*
D03*
X629500Y751284D02*
D03*
X624382D02*
D03*
X750798Y797482D02*
D03*
X745680D02*
D03*
X438900Y732028D02*
D03*
X433782D02*
D03*
X535900Y751337D02*
D03*
X530782D02*
D03*
X674000Y715100D02*
D03*
X668882D02*
D03*
X543801Y457032D02*
D03*
X538683D02*
D03*
X679364Y465759D02*
D03*
X674246D02*
D03*
X686364Y426359D02*
D03*
X681246D02*
D03*
X703300Y796983D02*
D03*
X698182D02*
D03*
X757775Y549817D02*
D03*
X752657D02*
D03*
X757500Y590500D02*
D03*
X752382D02*
D03*
D75*
X574028Y512957D02*
D03*
X564028D02*
D03*
X554028D02*
D03*
X544028D02*
D03*
X534028D02*
D03*
X715169Y835335D02*
D03*
X725169D02*
D03*
X735169D02*
D03*
X745169D02*
D03*
X755169D02*
D03*
X400000Y598500D02*
D03*
Y588500D02*
D03*
Y578500D02*
D03*
Y568500D02*
D03*
X430000D02*
D03*
Y578500D02*
D03*
Y588500D02*
D03*
Y598500D02*
D03*
Y608500D02*
D03*
D76*
X524028Y512957D02*
D03*
X765169Y835335D02*
D03*
X400000Y608500D02*
D03*
D77*
X752000Y511900D02*
D03*
D78*
Y501900D02*
D03*
X742000Y511900D02*
D03*
Y501900D02*
D03*
X732000Y511900D02*
D03*
X722000D02*
D03*
Y501900D02*
D03*
X732000D02*
D03*
X712000Y511900D02*
D03*
Y501900D02*
D03*
D79*
X438191Y835039D02*
D03*
X438091Y785039D02*
D03*
X453090Y835039D02*
D03*
Y785039D02*
D03*
X468090Y835039D02*
D03*
Y785039D02*
D03*
X483090Y835039D02*
D03*
Y785039D02*
D03*
X498091Y835039D02*
D03*
Y785039D02*
D03*
X513091Y835039D02*
D03*
Y785039D02*
D03*
X568695Y834947D02*
D03*
X568595Y784947D02*
D03*
X583595Y834947D02*
D03*
Y784947D02*
D03*
X598595Y834947D02*
D03*
Y784947D02*
D03*
X613595Y834947D02*
D03*
Y784947D02*
D03*
X628595Y834947D02*
D03*
Y784947D02*
D03*
X643595Y834947D02*
D03*
Y784947D02*
D03*
D80*
X813477Y555104D02*
D03*
Y535104D02*
D03*
Y575104D02*
D03*
Y495104D02*
D03*
Y515104D02*
D03*
D81*
X754606Y747736D02*
D03*
X479016D02*
D03*
M02*
