G04 Layer_Color=8421504*
%FSLAX25Y25*%
%MOIN*%
G70*
G01*
G75*
%ADD10R,0.02362X0.05905*%
%ADD11R,0.05905X0.02362*%
%ADD12R,0.06693X0.06299*%
%ADD13R,0.05905X0.12598*%
%ADD14R,0.05118X0.04331*%
G04:AMPARAMS|DCode=15|XSize=157.48mil|YSize=157.48mil|CornerRadius=39.37mil|HoleSize=0mil|Usage=FLASHONLY|Rotation=0.000|XOffset=0mil|YOffset=0mil|HoleType=Round|Shape=RoundedRectangle|*
%AMROUNDEDRECTD15*
21,1,0.15748,0.07874,0,0,0.0*
21,1,0.07874,0.15748,0,0,0.0*
1,1,0.07874,0.03937,-0.03937*
1,1,0.07874,-0.03937,-0.03937*
1,1,0.07874,-0.03937,0.03937*
1,1,0.07874,0.03937,0.03937*
%
%ADD15ROUNDEDRECTD15*%
G04:AMPARAMS|DCode=16|XSize=59.05mil|YSize=98.42mil|CornerRadius=14.76mil|HoleSize=0mil|Usage=FLASHONLY|Rotation=0.000|XOffset=0mil|YOffset=0mil|HoleType=Round|Shape=RoundedRectangle|*
%AMROUNDEDRECTD16*
21,1,0.05905,0.06890,0,0,0.0*
21,1,0.02953,0.09842,0,0,0.0*
1,1,0.02953,0.01476,-0.03445*
1,1,0.02953,-0.01476,-0.03445*
1,1,0.02953,-0.01476,0.03445*
1,1,0.02953,0.01476,0.03445*
%
%ADD16ROUNDEDRECTD16*%
%ADD17R,0.08268X0.07087*%
%ADD18R,0.03543X0.03150*%
G04:AMPARAMS|DCode=19|XSize=70.87mil|YSize=141.73mil|CornerRadius=3.54mil|HoleSize=0mil|Usage=FLASHONLY|Rotation=0.000|XOffset=0mil|YOffset=0mil|HoleType=Round|Shape=RoundedRectangle|*
%AMROUNDEDRECTD19*
21,1,0.07087,0.13465,0,0,0.0*
21,1,0.06378,0.14173,0,0,0.0*
1,1,0.00709,0.03189,-0.06732*
1,1,0.00709,-0.03189,-0.06732*
1,1,0.00709,-0.03189,0.06732*
1,1,0.00709,0.03189,0.06732*
%
%ADD19ROUNDEDRECTD19*%
%ADD20R,0.03937X0.05512*%
%ADD21O,0.05905X0.01575*%
%ADD22O,0.01575X0.05905*%
%ADD23R,0.06299X0.06693*%
G04:AMPARAMS|DCode=24|XSize=59.05mil|YSize=125.98mil|CornerRadius=14.76mil|HoleSize=0mil|Usage=FLASHONLY|Rotation=90.000|XOffset=0mil|YOffset=0mil|HoleType=Round|Shape=RoundedRectangle|*
%AMROUNDEDRECTD24*
21,1,0.05905,0.09646,0,0,90.0*
21,1,0.02953,0.12598,0,0,90.0*
1,1,0.02953,0.04823,0.01476*
1,1,0.02953,0.04823,-0.01476*
1,1,0.02953,-0.04823,-0.01476*
1,1,0.02953,-0.04823,0.01476*
%
%ADD24ROUNDEDRECTD24*%
%ADD25R,0.12598X0.05905*%
%ADD26R,0.06299X0.03937*%
%ADD27R,0.03937X0.06299*%
%ADD28R,0.03150X0.02756*%
%ADD29R,0.02756X0.03150*%
D10*
X635945Y657903D02*
D03*
X640945D02*
D03*
X630945D02*
D03*
X625945D02*
D03*
X615945D02*
D03*
X620945D02*
D03*
X605945D02*
D03*
X610945D02*
D03*
X605945Y679163D02*
D03*
X620945D02*
D03*
X615945D02*
D03*
X610945D02*
D03*
X630945D02*
D03*
X625945D02*
D03*
X635945D02*
D03*
X640945D02*
D03*
X495787Y657903D02*
D03*
X500787D02*
D03*
X490787D02*
D03*
X485787D02*
D03*
X475787D02*
D03*
X480787D02*
D03*
X465787D02*
D03*
X470787D02*
D03*
X465787Y679163D02*
D03*
X480787D02*
D03*
X475787D02*
D03*
X470787D02*
D03*
X490787D02*
D03*
X485787D02*
D03*
X495787D02*
D03*
X500787D02*
D03*
D11*
X743504Y575079D02*
D03*
Y570079D02*
D03*
Y560079D02*
D03*
Y565079D02*
D03*
X764764D02*
D03*
Y560079D02*
D03*
Y570079D02*
D03*
Y575079D02*
D03*
X687804Y435759D02*
D03*
Y440759D02*
D03*
Y450759D02*
D03*
Y445759D02*
D03*
X709064D02*
D03*
Y450759D02*
D03*
Y440759D02*
D03*
Y435759D02*
D03*
X601575Y582283D02*
D03*
Y577283D02*
D03*
Y587284D02*
D03*
Y592283D02*
D03*
Y602283D02*
D03*
Y597284D02*
D03*
Y612284D02*
D03*
Y607283D02*
D03*
X622835Y612284D02*
D03*
Y597284D02*
D03*
Y602283D02*
D03*
Y607283D02*
D03*
Y587284D02*
D03*
Y592283D02*
D03*
Y582283D02*
D03*
Y577283D02*
D03*
X601575Y524232D02*
D03*
Y519232D02*
D03*
Y529232D02*
D03*
Y534232D02*
D03*
Y544232D02*
D03*
Y539232D02*
D03*
Y554232D02*
D03*
Y549232D02*
D03*
X622835Y554232D02*
D03*
Y539232D02*
D03*
Y544232D02*
D03*
Y549232D02*
D03*
Y529232D02*
D03*
Y534232D02*
D03*
Y524232D02*
D03*
Y519232D02*
D03*
D12*
X791634Y482283D02*
D03*
Y468504D02*
D03*
D13*
X799800Y590158D02*
D03*
X787202D02*
D03*
X799800Y545900D02*
D03*
X787202D02*
D03*
D14*
X705200Y588100D02*
D03*
X696145D02*
D03*
Y581013D02*
D03*
X705200D02*
D03*
D15*
X549319Y441344D02*
D03*
D16*
X558375Y421659D02*
D03*
X549319D02*
D03*
X540264D02*
D03*
D17*
X408502Y747944D02*
D03*
Y765267D02*
D03*
X550902Y697344D02*
D03*
Y714667D02*
D03*
X643400Y733600D02*
D03*
Y750923D02*
D03*
X408302Y651444D02*
D03*
Y668767D02*
D03*
X553500Y733700D02*
D03*
Y751023D02*
D03*
X690700Y697800D02*
D03*
Y715123D02*
D03*
X408302Y683244D02*
D03*
Y700567D02*
D03*
X598600Y697600D02*
D03*
Y714923D02*
D03*
X690802Y733544D02*
D03*
Y750867D02*
D03*
X505315Y697341D02*
D03*
Y714664D02*
D03*
X598902Y733700D02*
D03*
Y751023D02*
D03*
X720200Y779800D02*
D03*
Y797123D02*
D03*
X408302Y714444D02*
D03*
Y731767D02*
D03*
X505302Y733753D02*
D03*
Y751076D02*
D03*
X643400Y697600D02*
D03*
Y714923D02*
D03*
X672700Y779400D02*
D03*
Y796723D02*
D03*
X788400Y559200D02*
D03*
Y576523D02*
D03*
X776200Y591043D02*
D03*
Y573721D02*
D03*
Y543405D02*
D03*
Y560728D02*
D03*
X601564Y456059D02*
D03*
Y438736D02*
D03*
D18*
X508996Y527179D02*
D03*
Y520079D02*
D03*
X508661Y540144D02*
D03*
Y547244D02*
D03*
X588996Y605594D02*
D03*
Y612695D02*
D03*
Y592594D02*
D03*
Y585495D02*
D03*
X568996Y605594D02*
D03*
Y612695D02*
D03*
Y592594D02*
D03*
Y585495D02*
D03*
X548996Y605594D02*
D03*
Y612695D02*
D03*
Y592594D02*
D03*
Y585495D02*
D03*
X528996Y605594D02*
D03*
Y612695D02*
D03*
Y592594D02*
D03*
Y585495D02*
D03*
X588996Y540144D02*
D03*
Y547244D02*
D03*
Y527496D02*
D03*
Y520396D02*
D03*
X568996Y540144D02*
D03*
Y547244D02*
D03*
Y527496D02*
D03*
Y520396D02*
D03*
X548996Y540144D02*
D03*
Y547244D02*
D03*
Y527496D02*
D03*
Y520396D02*
D03*
X528996Y540144D02*
D03*
Y547244D02*
D03*
Y527496D02*
D03*
Y520396D02*
D03*
D19*
X662297Y432959D02*
D03*
X626864D02*
D03*
D20*
X431000Y757700D02*
D03*
X435331Y747464D02*
D03*
X426669D02*
D03*
X573400Y707074D02*
D03*
X577731Y696838D02*
D03*
X569069D02*
D03*
X665900Y743300D02*
D03*
X670231Y733064D02*
D03*
X661569D02*
D03*
X430712Y661200D02*
D03*
X435042Y650964D02*
D03*
X426381D02*
D03*
X576000Y743430D02*
D03*
X580331Y733194D02*
D03*
X571669D02*
D03*
X713200Y707500D02*
D03*
X717531Y697264D02*
D03*
X708869D02*
D03*
X430731Y693036D02*
D03*
X435061Y682800D02*
D03*
X426400D02*
D03*
X621100Y707330D02*
D03*
X625431Y697094D02*
D03*
X616769D02*
D03*
X713300Y743200D02*
D03*
X717631Y732964D02*
D03*
X708969D02*
D03*
X527813Y707127D02*
D03*
X532144Y696891D02*
D03*
X523483D02*
D03*
X621400Y743430D02*
D03*
X625731Y733194D02*
D03*
X617069D02*
D03*
X742700Y789700D02*
D03*
X747031Y779464D02*
D03*
X738369D02*
D03*
X430731Y724236D02*
D03*
X435061Y714000D02*
D03*
X426400D02*
D03*
X527800Y743539D02*
D03*
X532131Y733303D02*
D03*
X523469D02*
D03*
X665831Y707336D02*
D03*
X670161Y697100D02*
D03*
X661500D02*
D03*
X695200Y789130D02*
D03*
X699531Y778894D02*
D03*
X690869D02*
D03*
D21*
X727712Y555139D02*
D03*
Y558289D02*
D03*
Y564588D02*
D03*
Y561439D02*
D03*
Y548840D02*
D03*
Y551990D02*
D03*
Y545690D02*
D03*
Y542541D02*
D03*
X694641Y551990D02*
D03*
Y548840D02*
D03*
Y542541D02*
D03*
Y545690D02*
D03*
Y558289D02*
D03*
Y555139D02*
D03*
Y561439D02*
D03*
Y564588D02*
D03*
D22*
X712751Y537029D02*
D03*
X715901D02*
D03*
X722200D02*
D03*
X719050D02*
D03*
X706452D02*
D03*
X709602D02*
D03*
X703302D02*
D03*
X700153D02*
D03*
X722200Y570100D02*
D03*
X719050D02*
D03*
X712751D02*
D03*
X715901D02*
D03*
X703302D02*
D03*
X700153D02*
D03*
X706452D02*
D03*
X709602D02*
D03*
D23*
X676837Y414994D02*
D03*
X690617D02*
D03*
D24*
X791240Y492413D02*
D03*
Y508913D02*
D03*
D25*
X548700Y784902D02*
D03*
Y797500D02*
D03*
X532087Y784902D02*
D03*
Y797500D02*
D03*
X548700Y821298D02*
D03*
Y808700D02*
D03*
X532087Y821358D02*
D03*
Y808760D02*
D03*
D26*
X732764Y437359D02*
D03*
Y426336D02*
D03*
X614564Y442859D02*
D03*
Y453883D02*
D03*
D27*
X547507Y465126D02*
D03*
X536484D02*
D03*
D28*
X578996Y612695D02*
D03*
Y607576D02*
D03*
Y585495D02*
D03*
Y590613D02*
D03*
X558996Y612695D02*
D03*
Y607576D02*
D03*
Y585495D02*
D03*
Y590613D02*
D03*
X538996Y612695D02*
D03*
Y607576D02*
D03*
Y585495D02*
D03*
Y590613D02*
D03*
X518996Y612695D02*
D03*
Y607576D02*
D03*
Y585495D02*
D03*
Y590613D02*
D03*
X578996Y546043D02*
D03*
Y540925D02*
D03*
Y520396D02*
D03*
Y525514D02*
D03*
X558996Y546043D02*
D03*
Y540925D02*
D03*
Y520396D02*
D03*
Y525514D02*
D03*
X502047Y527651D02*
D03*
Y522533D02*
D03*
Y546043D02*
D03*
Y540925D02*
D03*
X538996Y546043D02*
D03*
Y540925D02*
D03*
Y520396D02*
D03*
Y525514D02*
D03*
X518996Y546043D02*
D03*
Y540925D02*
D03*
Y520396D02*
D03*
Y525514D02*
D03*
X418600Y751600D02*
D03*
Y756718D02*
D03*
X561000Y700944D02*
D03*
Y706062D02*
D03*
X653543Y737191D02*
D03*
Y742309D02*
D03*
X418400Y655100D02*
D03*
Y660218D02*
D03*
X563598Y737356D02*
D03*
Y742474D02*
D03*
X700800Y701400D02*
D03*
Y706518D02*
D03*
X418400Y686900D02*
D03*
Y692018D02*
D03*
X608700Y701200D02*
D03*
Y706318D02*
D03*
X700900Y737100D02*
D03*
Y742218D02*
D03*
X515413Y700997D02*
D03*
Y706115D02*
D03*
X609000Y737300D02*
D03*
Y742418D02*
D03*
X730298Y783456D02*
D03*
Y788574D02*
D03*
X418400Y718100D02*
D03*
Y723218D02*
D03*
X515400Y737409D02*
D03*
Y742527D02*
D03*
X653500Y701200D02*
D03*
Y706318D02*
D03*
X682800Y783000D02*
D03*
Y788118D02*
D03*
X672464Y460059D02*
D03*
Y454941D02*
D03*
X722964Y459559D02*
D03*
Y454441D02*
D03*
X723064Y445759D02*
D03*
Y440641D02*
D03*
X743799Y549817D02*
D03*
Y544698D02*
D03*
X716864Y459559D02*
D03*
Y454441D02*
D03*
X678664Y459959D02*
D03*
Y454841D02*
D03*
X729264Y459559D02*
D03*
Y454441D02*
D03*
X689000Y587800D02*
D03*
Y582682D02*
D03*
X712600Y581200D02*
D03*
Y586318D02*
D03*
D29*
X418300Y765528D02*
D03*
X423418D02*
D03*
X560700Y714928D02*
D03*
X565818D02*
D03*
X653200Y751100D02*
D03*
X658318D02*
D03*
X418100Y669028D02*
D03*
X423218D02*
D03*
X563300Y751284D02*
D03*
X568418D02*
D03*
X700500Y715300D02*
D03*
X705618D02*
D03*
X418100Y700828D02*
D03*
X423218D02*
D03*
X608400Y715183D02*
D03*
X613518D02*
D03*
X700600Y751000D02*
D03*
X705718D02*
D03*
X515113Y714925D02*
D03*
X520231D02*
D03*
X608700Y751284D02*
D03*
X613818D02*
D03*
X730000Y797500D02*
D03*
X735118D02*
D03*
X418100Y732000D02*
D03*
X423218D02*
D03*
X515100Y751337D02*
D03*
X520218D02*
D03*
X653200Y715100D02*
D03*
X658318D02*
D03*
X682500Y796983D02*
D03*
X687618D02*
D03*
X649564Y463959D02*
D03*
X654682D02*
D03*
X656564Y457859D02*
D03*
X651446D02*
D03*
X752461Y583563D02*
D03*
X757579D02*
D03*
X439100Y765528D02*
D03*
X433982D02*
D03*
X581500Y714928D02*
D03*
X576382D02*
D03*
X674000Y751100D02*
D03*
X668882D02*
D03*
X438900Y669028D02*
D03*
X433782D02*
D03*
X584100Y751284D02*
D03*
X578982D02*
D03*
X721298Y715383D02*
D03*
X716180D02*
D03*
X438900Y700828D02*
D03*
X433782D02*
D03*
X629200Y715183D02*
D03*
X624082D02*
D03*
X721400Y751128D02*
D03*
X716282D02*
D03*
X535913Y714925D02*
D03*
X530795D02*
D03*
X629500Y751284D02*
D03*
X624382D02*
D03*
X750798Y797482D02*
D03*
X745680D02*
D03*
X438900Y732028D02*
D03*
X433782D02*
D03*
X535900Y751337D02*
D03*
X530782D02*
D03*
X674000Y715100D02*
D03*
X668882D02*
D03*
X543801Y457032D02*
D03*
X538683D02*
D03*
X679364Y465759D02*
D03*
X674246D02*
D03*
X686364Y426359D02*
D03*
X681246D02*
D03*
X703300Y796983D02*
D03*
X698182D02*
D03*
X757775Y549817D02*
D03*
X752657D02*
D03*
X757500Y590500D02*
D03*
X752382D02*
D03*
M02*
