G04 Layer_Physical_Order=3*
G04 Layer_Color=16440176*
%FSLAX25Y25*%
%MOIN*%
G70*
G01*
G75*
%ADD30C,0.01968*%
%ADD32C,0.01181*%
%ADD41P,0.06818X8X22.5*%
%ADD43C,0.06496*%
%ADD47C,0.02756*%
G36*
X805479Y787632D02*
X830873Y787632D01*
X830873Y402297D01*
X398294D01*
X398294Y563194D01*
X398794Y563496D01*
X400000Y563338D01*
X401336Y563514D01*
X402581Y564029D01*
X403650Y564850D01*
X404471Y565919D01*
X404986Y567164D01*
X405162Y568500D01*
X404986Y569836D01*
X404471Y571081D01*
X403650Y572150D01*
X402581Y572971D01*
X401956Y573229D01*
Y573771D01*
X402581Y574029D01*
X403650Y574850D01*
X404471Y575919D01*
X404986Y577164D01*
X405162Y578500D01*
X404986Y579836D01*
X404471Y581081D01*
X403650Y582150D01*
X402581Y582971D01*
X401956Y583229D01*
Y583771D01*
X402581Y584029D01*
X403650Y584850D01*
X404471Y585919D01*
X404986Y587164D01*
X405162Y588500D01*
X404986Y589836D01*
X404471Y591081D01*
X403650Y592150D01*
X402581Y592971D01*
X401956Y593229D01*
Y593771D01*
X402581Y594029D01*
X403650Y594850D01*
X404471Y595919D01*
X404986Y597164D01*
X405162Y598500D01*
X404986Y599836D01*
X404471Y601081D01*
X403650Y602150D01*
X402648Y602919D01*
X402627Y603275D01*
X402657Y603480D01*
X405118Y605941D01*
Y611059D01*
X402559Y613618D01*
X398294D01*
X398294Y787632D01*
X425853Y787632D01*
X425853Y846687D01*
X805479Y846687D01*
X805479Y787632D01*
D02*
G37*
%LPC*%
G36*
X465787Y688050D02*
X464914Y687935D01*
X464100Y687598D01*
X463401Y687062D01*
X462864Y686363D01*
X462527Y685548D01*
X462412Y684675D01*
X462527Y683801D01*
X462864Y682987D01*
X463401Y682288D01*
X464100Y681752D01*
X464914Y681415D01*
X465787Y681299D01*
X466661Y681415D01*
X467475Y681752D01*
X468174Y682288D01*
X468711Y682987D01*
X469048Y683801D01*
X469163Y684675D01*
X469048Y685548D01*
X468711Y686363D01*
X468174Y687062D01*
X467475Y687598D01*
X466661Y687935D01*
X465787Y688050D01*
D02*
G37*
G36*
X418400Y686075D02*
X417526Y685960D01*
X416712Y685623D01*
X416013Y685087D01*
X415477Y684388D01*
X415140Y683574D01*
X415025Y682700D01*
X415140Y681826D01*
X415477Y681012D01*
X416013Y680313D01*
X416712Y679777D01*
X417526Y679440D01*
X418400Y679325D01*
X419274Y679440D01*
X420088Y679777D01*
X420787Y680313D01*
X421323Y681012D01*
X421660Y681826D01*
X421775Y682700D01*
X421660Y683574D01*
X421323Y684388D01*
X420787Y685087D01*
X420088Y685623D01*
X419274Y685960D01*
X418400Y686075D01*
D02*
G37*
G36*
X646457Y682538D02*
X645583Y682423D01*
X644769Y682086D01*
X644070Y681550D01*
X643534Y680851D01*
X643196Y680037D01*
X643081Y679163D01*
X643196Y678289D01*
X643534Y677475D01*
X644070Y676776D01*
X644769Y676240D01*
X645583Y675903D01*
X646457Y675788D01*
X647330Y675903D01*
X648144Y676240D01*
X648843Y676776D01*
X649380Y677475D01*
X649717Y678289D01*
X649832Y679163D01*
X649717Y680037D01*
X649380Y680851D01*
X648843Y681550D01*
X648144Y682086D01*
X647330Y682423D01*
X646457Y682538D01*
D02*
G37*
G36*
X635945Y688050D02*
X635071Y687935D01*
X634257Y687598D01*
X633558Y687062D01*
X633332D01*
X632632Y687598D01*
X631818Y687935D01*
X630945Y688050D01*
X630071Y687935D01*
X629257Y687598D01*
X628558Y687062D01*
X628332D01*
X627633Y687598D01*
X626819Y687935D01*
X625945Y688050D01*
X625071Y687935D01*
X624257Y687598D01*
X623558Y687062D01*
X623332D01*
X622633Y687598D01*
X621818Y687935D01*
X620945Y688050D01*
X620071Y687935D01*
X619257Y687598D01*
X618558Y687062D01*
X618332D01*
X617632Y687598D01*
X616819Y687935D01*
X615945Y688050D01*
X615071Y687935D01*
X614257Y687598D01*
X613558Y687062D01*
X613022Y686363D01*
X612685Y685548D01*
X612570Y684675D01*
X612685Y683801D01*
X613022Y682987D01*
X613558Y682288D01*
X614257Y681752D01*
X615071Y681415D01*
X615945Y681299D01*
X616819Y681415D01*
X617632Y681752D01*
X618332Y682288D01*
X618558D01*
X619257Y681752D01*
X620071Y681415D01*
X620945Y681299D01*
X621818Y681415D01*
X622633Y681752D01*
X623332Y682288D01*
X623558D01*
X624257Y681752D01*
X625071Y681415D01*
X625945Y681299D01*
X626819Y681415D01*
X627633Y681752D01*
X628332Y682288D01*
X628558D01*
X629257Y681752D01*
X630071Y681415D01*
X630945Y681299D01*
X631818Y681415D01*
X632632Y681752D01*
X633332Y682288D01*
X633558D01*
X634257Y681752D01*
X635071Y681415D01*
X635945Y681299D01*
X636819Y681415D01*
X637633Y681752D01*
X638332Y682288D01*
X638868Y682987D01*
X639205Y683801D01*
X639320Y684675D01*
X639205Y685548D01*
X638868Y686363D01*
X638332Y687062D01*
X637633Y687598D01*
X636819Y687935D01*
X635945Y688050D01*
D02*
G37*
G36*
X605945D02*
X605071Y687935D01*
X604257Y687598D01*
X603558Y687062D01*
X603022Y686363D01*
X602685Y685548D01*
X602569Y684675D01*
X602685Y683801D01*
X603022Y682987D01*
X603558Y682288D01*
X604257Y681752D01*
X605071Y681415D01*
X605945Y681299D01*
X606818Y681415D01*
X607632Y681752D01*
X608332Y682288D01*
X608868Y682987D01*
X609205Y683801D01*
X609320Y684675D01*
X609205Y685548D01*
X608868Y686363D01*
X608332Y687062D01*
X607632Y687598D01*
X606818Y687935D01*
X605945Y688050D01*
D02*
G37*
G36*
X425600Y696375D02*
X424726Y696260D01*
X423912Y695923D01*
X423213Y695387D01*
X422677Y694688D01*
X422340Y693874D01*
X422225Y693000D01*
X422340Y692126D01*
X422677Y691312D01*
X423213Y690613D01*
X423912Y690077D01*
X424726Y689740D01*
X425600Y689625D01*
X426474Y689740D01*
X427288Y690077D01*
X427987Y690613D01*
X428523Y691312D01*
X428860Y692126D01*
X428975Y693000D01*
X428860Y693874D01*
X428523Y694688D01*
X427987Y695387D01*
X427288Y695923D01*
X426474Y696260D01*
X425600Y696375D01*
D02*
G37*
G36*
X490787Y666790D02*
X489914Y666675D01*
X489100Y666338D01*
X488655Y665997D01*
X488287Y665848D01*
X487920Y665997D01*
X487475Y666338D01*
X486661Y666675D01*
X485787Y666790D01*
X484914Y666675D01*
X484100Y666338D01*
X483655Y665997D01*
X483287Y665848D01*
X482920Y665997D01*
X482475Y666338D01*
X481661Y666675D01*
X480787Y666790D01*
X479914Y666675D01*
X479100Y666338D01*
X478655Y665997D01*
X478287Y665848D01*
X477920Y665997D01*
X477475Y666338D01*
X476661Y666675D01*
X475787Y666790D01*
X474914Y666675D01*
X474100Y666338D01*
X473401Y665802D01*
X472864Y665103D01*
X472527Y664289D01*
X472412Y663415D01*
X472527Y662541D01*
X472864Y661727D01*
X473401Y661028D01*
X474100Y660492D01*
X474914Y660155D01*
X475787Y660040D01*
X476661Y660155D01*
X477475Y660492D01*
X477920Y660833D01*
X478287Y660982D01*
X478655Y660833D01*
X479100Y660492D01*
X479914Y660155D01*
X480787Y660040D01*
X481661Y660155D01*
X482475Y660492D01*
X482920Y660833D01*
X483287Y660982D01*
X483655Y660833D01*
X484100Y660492D01*
X484914Y660155D01*
X485787Y660040D01*
X486661Y660155D01*
X487475Y660492D01*
X487920Y660833D01*
X488287Y660982D01*
X488655Y660833D01*
X489100Y660492D01*
X489914Y660155D01*
X490787Y660040D01*
X491661Y660155D01*
X492475Y660492D01*
X493174Y661028D01*
X493711Y661727D01*
X494048Y662541D01*
X494163Y663415D01*
X494048Y664289D01*
X493711Y665103D01*
X493174Y665802D01*
X492475Y666338D01*
X491661Y666675D01*
X490787Y666790D01*
D02*
G37*
G36*
X418400Y654275D02*
X417526Y654160D01*
X416712Y653823D01*
X416013Y653287D01*
X415477Y652588D01*
X415140Y651774D01*
X415025Y650900D01*
X415140Y650026D01*
X415477Y649212D01*
X416013Y648513D01*
X416712Y647977D01*
X417526Y647640D01*
X418400Y647525D01*
X419274Y647640D01*
X420088Y647977D01*
X420787Y648513D01*
X421323Y649212D01*
X421660Y650026D01*
X421775Y650900D01*
X421660Y651774D01*
X421323Y652588D01*
X420787Y653287D01*
X420088Y653823D01*
X419274Y654160D01*
X418400Y654275D01*
D02*
G37*
G36*
X776000Y600875D02*
X775126Y600760D01*
X774312Y600423D01*
X773613Y599887D01*
X773077Y599188D01*
X772740Y598374D01*
X772625Y597500D01*
X772740Y596626D01*
X773077Y595812D01*
X773613Y595113D01*
X774312Y594577D01*
X775126Y594240D01*
X776000Y594125D01*
X776874Y594240D01*
X777688Y594577D01*
X778387Y595113D01*
X778923Y595812D01*
X779260Y596626D01*
X779375Y597500D01*
X779260Y598374D01*
X778923Y599188D01*
X778387Y599887D01*
X777688Y600423D01*
X776874Y600760D01*
X776000Y600875D01*
D02*
G37*
G36*
X689300Y596987D02*
X688426Y596872D01*
X687612Y596535D01*
X686913Y595998D01*
X686377Y595299D01*
X686040Y594485D01*
X685925Y593612D01*
X686040Y592738D01*
X686377Y591924D01*
X686913Y591225D01*
X687612Y590689D01*
X688426Y590351D01*
X689300Y590237D01*
X690174Y590351D01*
X690988Y590689D01*
X691687Y591225D01*
X692223Y591924D01*
X692560Y592738D01*
X692675Y593612D01*
X692560Y594485D01*
X692223Y595299D01*
X691687Y595998D01*
X690988Y596535D01*
X690174Y596872D01*
X689300Y596987D01*
D02*
G37*
G36*
X425600Y664575D02*
X424726Y664460D01*
X423912Y664123D01*
X423213Y663587D01*
X422677Y662888D01*
X422340Y662074D01*
X422225Y661200D01*
X422340Y660326D01*
X422677Y659512D01*
X423213Y658813D01*
X423912Y658277D01*
X424726Y657940D01*
X425600Y657825D01*
X426474Y657940D01*
X427288Y658277D01*
X427987Y658813D01*
X428523Y659512D01*
X428860Y660326D01*
X428975Y661200D01*
X428860Y662074D01*
X428523Y662888D01*
X427987Y663587D01*
X427288Y664123D01*
X426474Y664460D01*
X425600Y664575D01*
D02*
G37*
G36*
X635945Y655767D02*
X635071Y655652D01*
X634257Y655314D01*
X633812Y654973D01*
X633445Y654824D01*
X633077Y654973D01*
X632632Y655314D01*
X631818Y655652D01*
X630945Y655767D01*
X630071Y655652D01*
X629257Y655314D01*
X628812Y654973D01*
X628445Y654824D01*
X628078Y654973D01*
X627633Y655314D01*
X626819Y655652D01*
X625945Y655767D01*
X625071Y655652D01*
X624257Y655314D01*
X623812Y654973D01*
X623445Y654824D01*
X623077Y654973D01*
X622633Y655314D01*
X621818Y655652D01*
X620945Y655767D01*
X620071Y655652D01*
X619257Y655314D01*
X618812Y654973D01*
X618445Y654824D01*
X618078Y654973D01*
X617632Y655314D01*
X616819Y655652D01*
X615945Y655767D01*
X615071Y655652D01*
X614257Y655314D01*
X613558Y654778D01*
X613022Y654079D01*
X612685Y653265D01*
X612570Y652391D01*
X612685Y651518D01*
X613022Y650704D01*
X613558Y650005D01*
X614257Y649468D01*
X615071Y649131D01*
X615945Y649016D01*
X616819Y649131D01*
X617632Y649468D01*
X618078Y649810D01*
X618445Y649959D01*
X618812Y649810D01*
X619257Y649468D01*
X620071Y649131D01*
X620945Y649016D01*
X621818Y649131D01*
X622633Y649468D01*
X623077Y649810D01*
X623445Y649959D01*
X623812Y649810D01*
X624257Y649468D01*
X625071Y649131D01*
X625945Y649016D01*
X626819Y649131D01*
X627633Y649468D01*
X628078Y649810D01*
X628445Y649959D01*
X628812Y649810D01*
X629257Y649468D01*
X630071Y649131D01*
X630945Y649016D01*
X631818Y649131D01*
X632632Y649468D01*
X633077Y649810D01*
X633445Y649959D01*
X633812Y649810D01*
X634257Y649468D01*
X635071Y649131D01*
X635945Y649016D01*
X636819Y649131D01*
X637633Y649468D01*
X638332Y650005D01*
X638868Y650704D01*
X639205Y651518D01*
X639320Y652391D01*
X639205Y653265D01*
X638868Y654079D01*
X638332Y654778D01*
X637633Y655314D01*
X636819Y655652D01*
X635945Y655767D01*
D02*
G37*
G36*
X495787D02*
X494914Y655652D01*
X494100Y655314D01*
X493401Y654778D01*
X492864Y654079D01*
X492527Y653265D01*
X492412Y652391D01*
X492527Y651518D01*
X492864Y650704D01*
X493401Y650005D01*
X494100Y649468D01*
X494914Y649131D01*
X495787Y649016D01*
X496661Y649131D01*
X497475Y649468D01*
X498174Y650005D01*
X498710Y650704D01*
X499048Y651518D01*
X499163Y652391D01*
X499048Y653265D01*
X498710Y654079D01*
X498174Y654778D01*
X497475Y655314D01*
X496661Y655652D01*
X495787Y655767D01*
D02*
G37*
G36*
X485787Y698257D02*
X484914Y698142D01*
X484100Y697805D01*
X483401Y697269D01*
X482864Y696570D01*
X482527Y695755D01*
X482412Y694882D01*
X482527Y694008D01*
X482864Y693194D01*
X483401Y692495D01*
X484100Y691959D01*
X484914Y691622D01*
X485787Y691507D01*
X486661Y691622D01*
X487475Y691959D01*
X488174Y692495D01*
X488710Y693194D01*
X489048Y694008D01*
X489163Y694882D01*
X489048Y695755D01*
X488710Y696570D01*
X488174Y697269D01*
X487475Y697805D01*
X486661Y698142D01*
X485787Y698257D01*
D02*
G37*
G36*
X707998Y710931D02*
X707125Y710816D01*
X706311Y710479D01*
X705612Y709943D01*
X705075Y709244D01*
X704738Y708429D01*
X704623Y707556D01*
X704738Y706682D01*
X705075Y705868D01*
X705612Y705169D01*
X706311Y704633D01*
X707125Y704296D01*
X707998Y704181D01*
X708872Y704296D01*
X709686Y704633D01*
X710385Y705169D01*
X710922Y705868D01*
X711259Y706682D01*
X711374Y707556D01*
X711259Y708429D01*
X710922Y709244D01*
X710385Y709943D01*
X709686Y710479D01*
X708872Y710816D01*
X707998Y710931D01*
D02*
G37*
G36*
X660698Y710731D02*
X659825Y710616D01*
X659011Y710279D01*
X658312Y709743D01*
X657775Y709044D01*
X657438Y708229D01*
X657323Y707356D01*
X657438Y706482D01*
X657775Y705668D01*
X658312Y704969D01*
X659011Y704433D01*
X659825Y704096D01*
X660698Y703981D01*
X661572Y704096D01*
X662386Y704433D01*
X663085Y704969D01*
X663622Y705668D01*
X663959Y706482D01*
X664074Y707356D01*
X663959Y708229D01*
X663622Y709044D01*
X663085Y709743D01*
X662386Y710279D01*
X661572Y710616D01*
X660698Y710731D01*
D02*
G37*
G36*
X615898D02*
X615025Y710616D01*
X614211Y710279D01*
X613512Y709743D01*
X612975Y709044D01*
X612638Y708229D01*
X612523Y707356D01*
X612638Y706482D01*
X612975Y705668D01*
X613512Y704969D01*
X614211Y704433D01*
X615025Y704096D01*
X615898Y703981D01*
X616772Y704096D01*
X617586Y704433D01*
X618285Y704969D01*
X618822Y705668D01*
X619159Y706482D01*
X619274Y707356D01*
X619159Y708229D01*
X618822Y709044D01*
X618285Y709743D01*
X617586Y710279D01*
X616772Y710616D01*
X615898Y710731D01*
D02*
G37*
G36*
X490748Y710954D02*
X489874Y710839D01*
X489060Y710502D01*
X488361Y709966D01*
X487825Y709266D01*
X487488Y708452D01*
X487373Y707579D01*
X487488Y706705D01*
X487825Y705891D01*
X488361Y705192D01*
X489060Y704656D01*
X489874Y704318D01*
X490748Y704203D01*
X491622Y704318D01*
X492436Y704656D01*
X493135Y705192D01*
X493671Y705891D01*
X494008Y706705D01*
X494123Y707579D01*
X494008Y708452D01*
X493671Y709266D01*
X493135Y709966D01*
X492436Y710502D01*
X491622Y710839D01*
X490748Y710954D01*
D02*
G37*
G36*
X480787Y727293D02*
X479914Y727178D01*
X479100Y726840D01*
X478401Y726304D01*
X477864Y725605D01*
X477527Y724791D01*
X477412Y723917D01*
X477527Y723044D01*
X477864Y722230D01*
X478401Y721531D01*
X479100Y720994D01*
X479914Y720657D01*
X480787Y720542D01*
X481661Y720657D01*
X482475Y720994D01*
X483174Y721531D01*
X483710Y722230D01*
X484048Y723044D01*
X484163Y723917D01*
X484048Y724791D01*
X483710Y725605D01*
X483174Y726304D01*
X482475Y726840D01*
X481661Y727178D01*
X480787Y727293D01*
D02*
G37*
G36*
X475787Y719911D02*
X474914Y719796D01*
X474100Y719459D01*
X473401Y718922D01*
X472864Y718223D01*
X472527Y717409D01*
X472412Y716535D01*
X472527Y715662D01*
X472864Y714848D01*
X473401Y714149D01*
X474100Y713612D01*
X474914Y713275D01*
X475787Y713160D01*
X476661Y713275D01*
X477475Y713612D01*
X478174Y714149D01*
X478711Y714848D01*
X479048Y715662D01*
X479163Y716535D01*
X479048Y717409D01*
X478711Y718223D01*
X478174Y718922D01*
X477475Y719459D01*
X476661Y719796D01*
X475787Y719911D01*
D02*
G37*
G36*
X418600Y717327D02*
X417726Y717212D01*
X416912Y716875D01*
X416213Y716339D01*
X415677Y715640D01*
X415340Y714826D01*
X415225Y713952D01*
X415340Y713078D01*
X415677Y712264D01*
X416213Y711565D01*
X416912Y711029D01*
X417726Y710692D01*
X418600Y710577D01*
X419474Y710692D01*
X420288Y711029D01*
X420987Y711565D01*
X421523Y712264D01*
X421860Y713078D01*
X421975Y713952D01*
X421860Y714826D01*
X421523Y715640D01*
X420987Y716339D01*
X420288Y716875D01*
X419474Y717212D01*
X418600Y717327D01*
D02*
G37*
G36*
X608698Y700431D02*
X607825Y700316D01*
X607011Y699979D01*
X606312Y699443D01*
X605775Y698744D01*
X605438Y697929D01*
X605323Y697056D01*
X605438Y696182D01*
X605775Y695368D01*
X606312Y694669D01*
X607011Y694133D01*
X607825Y693796D01*
X608698Y693681D01*
X609572Y693796D01*
X610386Y694133D01*
X611085Y694669D01*
X611622Y695368D01*
X611959Y696182D01*
X612074Y697056D01*
X611959Y697929D01*
X611622Y698744D01*
X611085Y699443D01*
X610386Y699979D01*
X609572Y700316D01*
X608698Y700431D01*
D02*
G37*
G36*
X561000Y700175D02*
X560126Y700060D01*
X559312Y699723D01*
X558613Y699187D01*
X558077Y698488D01*
X557740Y697674D01*
X557625Y696800D01*
X557740Y695926D01*
X558077Y695112D01*
X558613Y694413D01*
X559312Y693877D01*
X560126Y693540D01*
X561000Y693425D01*
X561874Y693540D01*
X562688Y693877D01*
X563387Y694413D01*
X563923Y695112D01*
X564260Y695926D01*
X564375Y696800D01*
X564260Y697674D01*
X563923Y698488D01*
X563387Y699187D01*
X562688Y699723D01*
X561874Y700060D01*
X561000Y700175D01*
D02*
G37*
G36*
X515413Y700172D02*
X514540Y700057D01*
X513726Y699720D01*
X513027Y699184D01*
X512490Y698485D01*
X512153Y697671D01*
X512038Y696797D01*
X512153Y695923D01*
X512490Y695109D01*
X513027Y694410D01*
X513726Y693874D01*
X514540Y693537D01*
X515413Y693422D01*
X516287Y693537D01*
X517101Y693874D01*
X517800Y694410D01*
X518336Y695109D01*
X518674Y695923D01*
X518789Y696797D01*
X518674Y697671D01*
X518336Y698485D01*
X517800Y699184D01*
X517101Y699720D01*
X516287Y700057D01*
X515413Y700172D01*
D02*
G37*
G36*
X653498Y700431D02*
X652625Y700316D01*
X651811Y699979D01*
X651112Y699443D01*
X650575Y698744D01*
X650238Y697929D01*
X650123Y697056D01*
X650238Y696182D01*
X650575Y695368D01*
X651112Y694669D01*
X651811Y694133D01*
X652625Y693796D01*
X653498Y693681D01*
X654372Y693796D01*
X655186Y694133D01*
X655885Y694669D01*
X656422Y695368D01*
X656759Y696182D01*
X656874Y697056D01*
X656759Y697929D01*
X656422Y698744D01*
X655885Y699443D01*
X655186Y699979D01*
X654372Y700316D01*
X653498Y700431D01*
D02*
G37*
G36*
X568200Y710475D02*
X567326Y710360D01*
X566512Y710023D01*
X565813Y709487D01*
X565277Y708788D01*
X564940Y707974D01*
X564825Y707100D01*
X564940Y706226D01*
X565277Y705412D01*
X565813Y704713D01*
X566512Y704177D01*
X567326Y703840D01*
X568200Y703725D01*
X569074Y703840D01*
X569888Y704177D01*
X570587Y704713D01*
X571123Y705412D01*
X571460Y706226D01*
X571575Y707100D01*
X571460Y707974D01*
X571123Y708788D01*
X570587Y709487D01*
X569888Y710023D01*
X569074Y710360D01*
X568200Y710475D01*
D02*
G37*
G36*
X522613Y710472D02*
X521740Y710357D01*
X520926Y710020D01*
X520227Y709484D01*
X519690Y708785D01*
X519353Y707971D01*
X519238Y707097D01*
X519353Y706223D01*
X519690Y705409D01*
X520227Y704710D01*
X520926Y704174D01*
X521740Y703837D01*
X522613Y703722D01*
X523487Y703837D01*
X524301Y704174D01*
X525000Y704710D01*
X525536Y705409D01*
X525874Y706223D01*
X525989Y707097D01*
X525874Y707971D01*
X525536Y708785D01*
X525000Y709484D01*
X524301Y710020D01*
X523487Y710357D01*
X522613Y710472D01*
D02*
G37*
G36*
X700798Y700631D02*
X699925Y700516D01*
X699111Y700179D01*
X698412Y699643D01*
X697875Y698944D01*
X697538Y698130D01*
X697423Y697256D01*
X697538Y696382D01*
X697875Y695568D01*
X698412Y694869D01*
X699111Y694333D01*
X699925Y693996D01*
X700798Y693881D01*
X701672Y693996D01*
X702486Y694333D01*
X703185Y694869D01*
X703722Y695568D01*
X704059Y696382D01*
X704174Y697256D01*
X704059Y698130D01*
X703722Y698944D01*
X703185Y699643D01*
X702486Y700179D01*
X701672Y700516D01*
X700798Y700631D01*
D02*
G37*
G36*
X663764Y460135D02*
X662891Y460020D01*
X662077Y459682D01*
X661378Y459146D01*
X660841Y458447D01*
X660504Y457633D01*
X660389Y456759D01*
X660504Y455886D01*
X660841Y455072D01*
X661378Y454373D01*
X662077Y453836D01*
X662891Y453499D01*
X663764Y453384D01*
X664638Y453499D01*
X665452Y453836D01*
X666151Y454373D01*
X666687Y455072D01*
X667025Y455886D01*
X667140Y456759D01*
X667025Y457633D01*
X666687Y458447D01*
X666151Y459146D01*
X665452Y459682D01*
X664638Y460020D01*
X663764Y460135D01*
D02*
G37*
G36*
X686864Y459535D02*
X685991Y459420D01*
X685177Y459082D01*
X684478Y458546D01*
X683941Y457847D01*
X683604Y457033D01*
X683489Y456159D01*
X683604Y455286D01*
X683941Y454472D01*
X684478Y453773D01*
X685177Y453236D01*
X685991Y452899D01*
X686864Y452784D01*
X687738Y452899D01*
X688552Y453236D01*
X689251Y453773D01*
X689787Y454472D01*
X690125Y455286D01*
X690240Y456159D01*
X690125Y457033D01*
X689787Y457847D01*
X689251Y458546D01*
X688552Y459082D01*
X687738Y459420D01*
X686864Y459535D01*
D02*
G37*
G36*
X501200Y450575D02*
X500326Y450460D01*
X499512Y450123D01*
X498813Y449587D01*
X498277Y448888D01*
X497940Y448074D01*
X497825Y447200D01*
X497940Y446326D01*
X498277Y445512D01*
X498813Y444813D01*
X499512Y444277D01*
X500326Y443940D01*
X501200Y443825D01*
X502074Y443940D01*
X502888Y444277D01*
X503587Y444813D01*
X504123Y445512D01*
X504460Y446326D01*
X504575Y447200D01*
X504460Y448074D01*
X504123Y448888D01*
X503587Y449587D01*
X502888Y450123D01*
X502074Y450460D01*
X501200Y450575D01*
D02*
G37*
G36*
Y460975D02*
X500326Y460860D01*
X499512Y460523D01*
X498813Y459987D01*
X498277Y459288D01*
X497940Y458474D01*
X497825Y457600D01*
X497940Y456726D01*
X498277Y455912D01*
X498813Y455213D01*
X499512Y454677D01*
X500326Y454340D01*
X501200Y454225D01*
X502074Y454340D01*
X502888Y454677D01*
X503587Y455213D01*
X504123Y455912D01*
X504460Y456726D01*
X504575Y457600D01*
X504460Y458474D01*
X504123Y459288D01*
X503587Y459987D01*
X502888Y460523D01*
X502074Y460860D01*
X501200Y460975D01*
D02*
G37*
G36*
X813477Y502027D02*
X812126Y501894D01*
X810828Y501500D01*
X809631Y500861D01*
X808582Y500000D01*
X807721Y498950D01*
X807081Y497753D01*
X806687Y496455D01*
X806554Y495104D01*
X806687Y493753D01*
X807081Y492455D01*
X807721Y491258D01*
X808582Y490209D01*
X809631Y489348D01*
X810828Y488708D01*
X812126Y488314D01*
X813477Y488181D01*
X814828Y488314D01*
X816126Y488708D01*
X817323Y489348D01*
X818372Y490209D01*
X819233Y491258D01*
X819873Y492455D01*
X820267Y493753D01*
X820400Y495104D01*
X820267Y496455D01*
X819873Y497753D01*
X819233Y498950D01*
X818372Y500000D01*
X817323Y500861D01*
X816126Y501500D01*
X814828Y501894D01*
X813477Y502027D01*
D02*
G37*
G36*
X637599Y631181D02*
X484449D01*
Y495240D01*
X484449Y495240D01*
X484449D01*
X484449Y487366D01*
X637599Y487366D01*
Y631181D01*
D02*
G37*
G36*
X690164Y469235D02*
X689291Y469120D01*
X688477Y468782D01*
X687778Y468246D01*
X687241Y467547D01*
X686904Y466733D01*
X686789Y465859D01*
X686904Y464986D01*
X687241Y464172D01*
X687778Y463473D01*
X688477Y462936D01*
X689291Y462599D01*
X690164Y462484D01*
X691038Y462599D01*
X691852Y462936D01*
X692551Y463473D01*
X693087Y464172D01*
X693425Y464986D01*
X693540Y465859D01*
X693425Y466733D01*
X693087Y467547D01*
X692551Y468246D01*
X691852Y468782D01*
X691038Y469120D01*
X690164Y469235D01*
D02*
G37*
G36*
X716064Y438335D02*
X715191Y438220D01*
X714377Y437882D01*
X713678Y437346D01*
X713141Y436647D01*
X712804Y435833D01*
X712689Y434959D01*
X712804Y434086D01*
X713141Y433272D01*
X713678Y432573D01*
X714377Y432036D01*
X715191Y431699D01*
X716064Y431584D01*
X716938Y431699D01*
X717752Y432036D01*
X718451Y432573D01*
X718987Y433272D01*
X719325Y434086D01*
X719440Y434959D01*
X719325Y435833D01*
X718987Y436647D01*
X718451Y437346D01*
X717752Y437882D01*
X716938Y438220D01*
X716064Y438335D01*
D02*
G37*
G36*
X501200Y430875D02*
X500326Y430760D01*
X499512Y430423D01*
X498813Y429887D01*
X498277Y429188D01*
X497940Y428374D01*
X497825Y427500D01*
X497940Y426626D01*
X498277Y425812D01*
X498813Y425113D01*
X499512Y424577D01*
X500326Y424240D01*
X501200Y424125D01*
X502074Y424240D01*
X502888Y424577D01*
X503587Y425113D01*
X504123Y425812D01*
X504460Y426626D01*
X504575Y427500D01*
X504460Y428374D01*
X504123Y429188D01*
X503587Y429887D01*
X502888Y430423D01*
X502074Y430760D01*
X501200Y430875D01*
D02*
G37*
G36*
X692464Y429635D02*
X691591Y429520D01*
X690777Y429182D01*
X690078Y428646D01*
X689541Y427947D01*
X689204Y427133D01*
X689089Y426259D01*
X689204Y425386D01*
X689541Y424572D01*
X690078Y423873D01*
X690777Y423336D01*
X691591Y422999D01*
X692464Y422884D01*
X693338Y422999D01*
X694152Y423336D01*
X694851Y423873D01*
X695387Y424572D01*
X695725Y425386D01*
X695840Y426259D01*
X695725Y427133D01*
X695387Y427947D01*
X694851Y428646D01*
X694152Y429182D01*
X693338Y429520D01*
X692464Y429635D01*
D02*
G37*
G36*
X517815Y440580D02*
X516941Y440465D01*
X516127Y440128D01*
X515428Y439591D01*
X514892Y438892D01*
X514555Y438078D01*
X514440Y437205D01*
X514555Y436331D01*
X514892Y435517D01*
X515428Y434818D01*
X516127Y434282D01*
X516941Y433944D01*
X517815Y433829D01*
X518689Y433944D01*
X519503Y434282D01*
X520202Y434818D01*
X520738Y435517D01*
X521075Y436331D01*
X521190Y437205D01*
X521075Y438078D01*
X520738Y438892D01*
X520202Y439591D01*
X519503Y440128D01*
X518689Y440465D01*
X517815Y440580D01*
D02*
G37*
G36*
X697864Y444335D02*
X696991Y444220D01*
X696177Y443882D01*
X695478Y443346D01*
X694941Y442647D01*
X694604Y441833D01*
X694489Y440959D01*
X694604Y440086D01*
X694941Y439272D01*
X695478Y438573D01*
X696177Y438036D01*
X696991Y437699D01*
X697864Y437584D01*
X698738Y437699D01*
X699552Y438036D01*
X700251Y438573D01*
X700787Y439272D01*
X701125Y440086D01*
X701240Y440959D01*
X701125Y441833D01*
X700787Y442647D01*
X700251Y443346D01*
X699552Y443882D01*
X698738Y444220D01*
X697864Y444335D01*
D02*
G37*
G36*
X501200Y441075D02*
X500326Y440960D01*
X499512Y440623D01*
X498813Y440087D01*
X498277Y439388D01*
X497940Y438574D01*
X497825Y437700D01*
X497940Y436826D01*
X498277Y436012D01*
X498813Y435313D01*
X499512Y434777D01*
X500326Y434440D01*
X501200Y434325D01*
X502074Y434440D01*
X502888Y434777D01*
X503587Y435313D01*
X504123Y436012D01*
X504460Y436826D01*
X504575Y437700D01*
X504460Y438574D01*
X504123Y439388D01*
X503587Y440087D01*
X502888Y440623D01*
X502074Y440960D01*
X501200Y441075D01*
D02*
G37*
G36*
X527868Y440580D02*
X526994Y440465D01*
X526180Y440128D01*
X525481Y439591D01*
X524945Y438892D01*
X524607Y438078D01*
X524492Y437205D01*
X524607Y436331D01*
X524945Y435517D01*
X525481Y434818D01*
X526180Y434282D01*
X526994Y433944D01*
X527868Y433829D01*
X528741Y433944D01*
X529555Y434282D01*
X530254Y434818D01*
X530791Y435517D01*
X531128Y436331D01*
X531243Y437205D01*
X531128Y438078D01*
X530791Y438892D01*
X530254Y439591D01*
X529555Y440128D01*
X528741Y440465D01*
X527868Y440580D01*
D02*
G37*
G36*
X762900Y558375D02*
X762026Y558260D01*
X761212Y557923D01*
X760513Y557387D01*
X759977Y556688D01*
X759640Y555874D01*
X759525Y555000D01*
X759640Y554126D01*
X759977Y553312D01*
X760513Y552613D01*
X761212Y552077D01*
X762026Y551740D01*
X762900Y551625D01*
X763774Y551740D01*
X764588Y552077D01*
X765287Y552613D01*
X765823Y553312D01*
X766160Y554126D01*
X766275Y555000D01*
X766160Y555874D01*
X765823Y556688D01*
X765287Y557387D01*
X764588Y557923D01*
X763774Y558260D01*
X762900Y558375D01*
D02*
G37*
G36*
X813477Y562027D02*
X812126Y561894D01*
X810828Y561500D01*
X809631Y560860D01*
X808582Y560000D01*
X807721Y558950D01*
X807081Y557754D01*
X806687Y556455D01*
X806554Y555104D01*
X806687Y553754D01*
X807081Y552455D01*
X807721Y551258D01*
X808582Y550209D01*
X809631Y549348D01*
X810828Y548708D01*
X812126Y548314D01*
X813477Y548181D01*
X814828Y548314D01*
X816126Y548708D01*
X817323Y549348D01*
X818372Y550209D01*
X819233Y551258D01*
X819873Y552455D01*
X820267Y553754D01*
X820400Y555104D01*
X820267Y556455D01*
X819873Y557754D01*
X819233Y558950D01*
X818372Y560000D01*
X817323Y560860D01*
X816126Y561500D01*
X814828Y561894D01*
X813477Y562027D01*
D02*
G37*
G36*
X733224Y549066D02*
X732350Y548951D01*
X731536Y548614D01*
X730837Y548077D01*
X730301Y547378D01*
X729963Y546564D01*
X729848Y545690D01*
X729963Y544817D01*
X730301Y544003D01*
X730837Y543304D01*
X731536Y542767D01*
X732350Y542430D01*
X733224Y542315D01*
X734097Y542430D01*
X734911Y542767D01*
X735610Y543304D01*
X736147Y544003D01*
X736484Y544817D01*
X736599Y545690D01*
X736484Y546564D01*
X736147Y547378D01*
X735610Y548077D01*
X734911Y548614D01*
X734097Y548951D01*
X733224Y549066D01*
D02*
G37*
G36*
X707382Y558515D02*
X706508Y558400D01*
X705694Y558063D01*
X704995Y557526D01*
X704459Y556827D01*
X704122Y556013D01*
X704057Y555525D01*
X704019Y555237D01*
X703515D01*
X703477Y555525D01*
X703413Y556013D01*
X703076Y556827D01*
X702539Y557526D01*
X701840Y558063D01*
X701026Y558400D01*
X700153Y558515D01*
X699279Y558400D01*
X698465Y558063D01*
X697766Y557526D01*
X697230Y556827D01*
X696892Y556013D01*
X696777Y555139D01*
X696892Y554266D01*
X697230Y553452D01*
X697766Y552753D01*
X698465Y552216D01*
X699279Y551879D01*
X700153Y551764D01*
X701026Y551879D01*
X701840Y552216D01*
X702539Y552753D01*
X703076Y553452D01*
X703413Y554266D01*
X703477Y554753D01*
X703515Y555041D01*
X704019D01*
X704057Y554753D01*
X704122Y554266D01*
X704459Y553452D01*
X704995Y552753D01*
X705694Y552216D01*
X706508Y551879D01*
X707382Y551764D01*
X708255Y551879D01*
X709070Y552216D01*
X709769Y552753D01*
X710305Y553452D01*
X710642Y554266D01*
X710757Y555139D01*
X710642Y556013D01*
X710305Y556827D01*
X709769Y557526D01*
X709070Y558063D01*
X708255Y558400D01*
X707382Y558515D01*
D02*
G37*
G36*
X718112Y584575D02*
X717238Y584460D01*
X716424Y584123D01*
X715725Y583587D01*
X715189Y582888D01*
X714852Y582074D01*
X714737Y581200D01*
X714852Y580326D01*
X715189Y579512D01*
X715725Y578813D01*
X716424Y578277D01*
X717238Y577940D01*
X718112Y577825D01*
X718985Y577940D01*
X719800Y578277D01*
X720499Y578813D01*
X721035Y579512D01*
X721372Y580326D01*
X721487Y581200D01*
X721372Y582074D01*
X721035Y582888D01*
X720499Y583587D01*
X719800Y584123D01*
X718985Y584460D01*
X718112Y584575D01*
D02*
G37*
G36*
X813477Y582027D02*
X812126Y581894D01*
X810828Y581500D01*
X809631Y580861D01*
X808582Y579999D01*
X807721Y578950D01*
X807081Y577753D01*
X806687Y576455D01*
X806554Y575104D01*
X806687Y573753D01*
X807081Y572455D01*
X807721Y571258D01*
X808582Y570209D01*
X809631Y569348D01*
X810828Y568708D01*
X812126Y568314D01*
X813477Y568181D01*
X814828Y568314D01*
X816126Y568708D01*
X817323Y569348D01*
X818372Y570209D01*
X819233Y571258D01*
X819873Y572455D01*
X820267Y573753D01*
X820400Y575104D01*
X820267Y576455D01*
X819873Y577753D01*
X819233Y578950D01*
X818372Y579999D01*
X817323Y580861D01*
X816126Y581500D01*
X814828Y581894D01*
X813477Y582027D01*
D02*
G37*
G36*
X430000Y613662D02*
X428664Y613486D01*
X427419Y612971D01*
X426350Y612150D01*
X425529Y611081D01*
X425014Y609836D01*
X424838Y608500D01*
X425014Y607164D01*
X425529Y605919D01*
X426350Y604850D01*
X427419Y604029D01*
X428044Y603771D01*
Y603229D01*
X427419Y602971D01*
X426350Y602150D01*
X425529Y601081D01*
X425014Y599836D01*
X424838Y598500D01*
X425014Y597164D01*
X425529Y595919D01*
X426350Y594850D01*
X427419Y594029D01*
X428044Y593771D01*
Y593229D01*
X427419Y592971D01*
X426350Y592150D01*
X425529Y591081D01*
X425014Y589836D01*
X424838Y588500D01*
X425014Y587164D01*
X425529Y585919D01*
X426350Y584850D01*
X427419Y584029D01*
X428044Y583771D01*
Y583229D01*
X427419Y582971D01*
X426350Y582150D01*
X425529Y581081D01*
X425014Y579836D01*
X424838Y578500D01*
X425014Y577164D01*
X425529Y575919D01*
X426350Y574850D01*
X427419Y574029D01*
X428044Y573771D01*
Y573229D01*
X427419Y572971D01*
X426350Y572150D01*
X425529Y571081D01*
X425014Y569836D01*
X424838Y568500D01*
X425014Y567164D01*
X425529Y565919D01*
X426350Y564850D01*
X427419Y564029D01*
X428664Y563514D01*
X430000Y563338D01*
X431336Y563514D01*
X432581Y564029D01*
X433650Y564850D01*
X434471Y565919D01*
X434986Y567164D01*
X435162Y568500D01*
X434986Y569836D01*
X434471Y571081D01*
X433650Y572150D01*
X432581Y572971D01*
X431956Y573229D01*
Y573771D01*
X432581Y574029D01*
X433650Y574850D01*
X434471Y575919D01*
X434986Y577164D01*
X435162Y578500D01*
X434986Y579836D01*
X434471Y581081D01*
X433650Y582150D01*
X432581Y582971D01*
X431956Y583229D01*
Y583771D01*
X432581Y584029D01*
X433650Y584850D01*
X434471Y585919D01*
X434986Y587164D01*
X435162Y588500D01*
X434986Y589836D01*
X434471Y591081D01*
X433650Y592150D01*
X432581Y592971D01*
X431956Y593229D01*
Y593771D01*
X432581Y594029D01*
X433650Y594850D01*
X434471Y595919D01*
X434986Y597164D01*
X435162Y598500D01*
X434986Y599836D01*
X434471Y601081D01*
X433650Y602150D01*
X432581Y602971D01*
X431956Y603229D01*
Y603771D01*
X432581Y604029D01*
X433650Y604850D01*
X434471Y605919D01*
X434986Y607164D01*
X435162Y608500D01*
X434986Y609836D01*
X434471Y611081D01*
X433650Y612150D01*
X432581Y612971D01*
X431336Y613486D01*
X430000Y613662D01*
D02*
G37*
G36*
X813477Y542027D02*
X812126Y541894D01*
X810828Y541500D01*
X809631Y540861D01*
X808582Y539999D01*
X807721Y538950D01*
X807081Y537753D01*
X806687Y536455D01*
X806554Y535104D01*
X806687Y533753D01*
X807081Y532455D01*
X807721Y531258D01*
X808582Y530209D01*
X809631Y529348D01*
X810828Y528708D01*
X812126Y528314D01*
X813477Y528181D01*
X814828Y528314D01*
X816126Y528708D01*
X817323Y529348D01*
X818372Y530209D01*
X819233Y531258D01*
X819873Y532455D01*
X820267Y533753D01*
X820400Y535104D01*
X820267Y536455D01*
X819873Y537753D01*
X819233Y538950D01*
X818372Y539999D01*
X817323Y540861D01*
X816126Y541500D01*
X814828Y541894D01*
X813477Y542027D01*
D02*
G37*
G36*
X742000Y517162D02*
X740638Y516982D01*
X739369Y516457D01*
X738279Y515621D01*
X737443Y514531D01*
X737250Y514064D01*
X736750D01*
X736557Y514531D01*
X735720Y515621D01*
X734631Y516457D01*
X733362Y516982D01*
X732000Y517162D01*
X730638Y516982D01*
X729369Y516457D01*
X728279Y515621D01*
X727443Y514531D01*
X727250Y514064D01*
X726750D01*
X726557Y514531D01*
X725721Y515621D01*
X724631Y516457D01*
X723362Y516982D01*
X722000Y517162D01*
X720638Y516982D01*
X719369Y516457D01*
X718280Y515621D01*
X717443Y514531D01*
X717250Y514064D01*
X716750D01*
X716557Y514531D01*
X715721Y515621D01*
X714631Y516457D01*
X713362Y516982D01*
X712000Y517162D01*
X710638Y516982D01*
X709369Y516457D01*
X708280Y515621D01*
X707443Y514531D01*
X706918Y513262D01*
X706739Y511900D01*
X706918Y510538D01*
X707443Y509269D01*
X708280Y508180D01*
X709369Y507343D01*
X709836Y507150D01*
Y506650D01*
X709369Y506457D01*
X708280Y505620D01*
X707443Y504531D01*
X706918Y503262D01*
X706739Y501900D01*
X706918Y500538D01*
X707443Y499269D01*
X708280Y498179D01*
X709369Y497343D01*
X710638Y496818D01*
X712000Y496638D01*
X713362Y496818D01*
X714631Y497343D01*
X715721Y498179D01*
X716557Y499269D01*
X716750Y499736D01*
X717250D01*
X717443Y499269D01*
X718280Y498179D01*
X719369Y497343D01*
X720638Y496818D01*
X722000Y496638D01*
X723362Y496818D01*
X724631Y497343D01*
X725721Y498179D01*
X726557Y499269D01*
X726750Y499736D01*
X727250D01*
X727443Y499269D01*
X728279Y498179D01*
X729369Y497343D01*
X730638Y496818D01*
X732000Y496638D01*
X733362Y496818D01*
X734631Y497343D01*
X735720Y498179D01*
X736557Y499269D01*
X736750Y499736D01*
X737250D01*
X737443Y499269D01*
X738279Y498179D01*
X739369Y497343D01*
X740638Y496818D01*
X742000Y496638D01*
X743362Y496818D01*
X744631Y497343D01*
X745720Y498179D01*
X746557Y499269D01*
X747082Y500538D01*
X747261Y501900D01*
X747082Y503262D01*
X746557Y504531D01*
X745720Y505620D01*
X744631Y506457D01*
X744164Y506650D01*
Y507150D01*
X744631Y507343D01*
X745720Y508180D01*
X746283Y508913D01*
X746783Y508743D01*
Y506683D01*
X757217D01*
Y517116D01*
X746783D01*
Y515057D01*
X746283Y514887D01*
X745720Y515621D01*
X744631Y516457D01*
X743362Y516982D01*
X742000Y517162D01*
D02*
G37*
G36*
X813477Y522027D02*
X812126Y521894D01*
X810828Y521500D01*
X809631Y520860D01*
X808582Y520000D01*
X807721Y518950D01*
X807081Y517754D01*
X806687Y516455D01*
X806554Y515104D01*
X806687Y513754D01*
X807081Y512455D01*
X807721Y511258D01*
X808582Y510209D01*
X809631Y509348D01*
X810828Y508708D01*
X812126Y508314D01*
X813477Y508181D01*
X814828Y508314D01*
X816126Y508708D01*
X817323Y509348D01*
X818372Y510209D01*
X819233Y511258D01*
X819873Y512455D01*
X820267Y513754D01*
X820400Y515104D01*
X820267Y516455D01*
X819873Y517754D01*
X819233Y518950D01*
X818372Y520000D01*
X817323Y520860D01*
X816126Y521500D01*
X814828Y521894D01*
X813477Y522027D01*
D02*
G37*
G36*
X687795Y539399D02*
X686922Y539284D01*
X686108Y538947D01*
X685409Y538410D01*
X684872Y537711D01*
X684535Y536897D01*
X684420Y536024D01*
X684535Y535150D01*
X684872Y534336D01*
X685409Y533637D01*
X686108Y533101D01*
X686922Y532763D01*
X687795Y532648D01*
X688669Y532763D01*
X689483Y533101D01*
X690182Y533637D01*
X690718Y534336D01*
X691056Y535150D01*
X691171Y536024D01*
X691056Y536897D01*
X690718Y537711D01*
X690182Y538410D01*
X689483Y538947D01*
X688669Y539284D01*
X687795Y539399D01*
D02*
G37*
G36*
X776400Y541475D02*
X775526Y541360D01*
X774712Y541023D01*
X774013Y540487D01*
X773477Y539788D01*
X773140Y538974D01*
X773025Y538100D01*
X773140Y537226D01*
X773477Y536412D01*
X774013Y535713D01*
X774712Y535177D01*
X775526Y534840D01*
X776400Y534725D01*
X777274Y534840D01*
X778088Y535177D01*
X778787Y535713D01*
X779323Y536412D01*
X779660Y537226D01*
X779775Y538100D01*
X779660Y538974D01*
X779323Y539788D01*
X778787Y540487D01*
X778088Y541023D01*
X777274Y541360D01*
X776400Y541475D01*
D02*
G37*
G36*
X722200Y552215D02*
X721326Y552101D01*
X720512Y551763D01*
X719813Y551227D01*
X719277Y550528D01*
X718940Y549714D01*
X718825Y548840D01*
X718940Y547967D01*
X719277Y547153D01*
X719813Y546453D01*
X720438Y545974D01*
X720479Y545690D01*
X720438Y545407D01*
X719813Y544928D01*
X719277Y544229D01*
X718940Y543414D01*
X718825Y542541D01*
X718940Y541667D01*
X719277Y540853D01*
X719813Y540154D01*
X720512Y539618D01*
X721326Y539281D01*
X722200Y539166D01*
X723074Y539281D01*
X723134Y539305D01*
X723449Y538895D01*
X723312Y538717D01*
X722975Y537903D01*
X722860Y537029D01*
X722975Y536156D01*
X723312Y535342D01*
X723849Y534642D01*
X724548Y534106D01*
X725362Y533769D01*
X726235Y533654D01*
X727109Y533769D01*
X727923Y534106D01*
X728622Y534642D01*
X729158Y535342D01*
X729496Y536156D01*
X729611Y537029D01*
X729496Y537903D01*
X729158Y538717D01*
X728622Y539416D01*
X727923Y539952D01*
X727109Y540289D01*
X726235Y540404D01*
X725362Y540289D01*
X725302Y540265D01*
X724987Y540675D01*
X725123Y540853D01*
X725460Y541667D01*
X725575Y542541D01*
X725460Y543414D01*
X725123Y544229D01*
X724587Y544928D01*
X723962Y545407D01*
X723921Y545690D01*
X723962Y545974D01*
X724587Y546453D01*
X725123Y547153D01*
X725460Y547967D01*
X725575Y548840D01*
X725460Y549714D01*
X725123Y550528D01*
X724587Y551227D01*
X723888Y551763D01*
X723074Y552101D01*
X722200Y552215D01*
D02*
G37*
G36*
X719050Y534893D02*
X718177Y534778D01*
X717363Y534440D01*
X716664Y533904D01*
X716185Y533280D01*
X715901Y533238D01*
X715617Y533280D01*
X715138Y533904D01*
X714439Y534440D01*
X713625Y534778D01*
X712751Y534893D01*
X711878Y534778D01*
X711063Y534440D01*
X710364Y533904D01*
X709828Y533205D01*
X709491Y532391D01*
X709376Y531517D01*
X709491Y530644D01*
X709828Y529830D01*
X710364Y529131D01*
X711063Y528594D01*
X711878Y528257D01*
X712751Y528142D01*
X713625Y528257D01*
X714439Y528594D01*
X715138Y529131D01*
X715617Y529755D01*
X715901Y529797D01*
X716185Y529755D01*
X716664Y529131D01*
X717363Y528594D01*
X718177Y528257D01*
X719050Y528142D01*
X719924Y528257D01*
X720738Y528594D01*
X721437Y529131D01*
X721974Y529830D01*
X722311Y530644D01*
X722426Y531517D01*
X722311Y532391D01*
X721974Y533205D01*
X721437Y533904D01*
X720738Y534440D01*
X719924Y534778D01*
X719050Y534893D01*
D02*
G37*
G36*
X606600Y799075D02*
X605726Y798960D01*
X604912Y798623D01*
X604213Y798087D01*
X603677Y797388D01*
X603340Y796574D01*
X603225Y795700D01*
X603340Y794826D01*
X603677Y794012D01*
X604213Y793313D01*
X604912Y792777D01*
X605726Y792440D01*
X606600Y792325D01*
X607474Y792440D01*
X608288Y792777D01*
X608987Y793313D01*
X609523Y794012D01*
X609860Y794826D01*
X609975Y795700D01*
X609860Y796574D01*
X609523Y797388D01*
X608987Y798087D01*
X608288Y798623D01*
X607474Y798960D01*
X606600Y799075D01*
D02*
G37*
G36*
X591600D02*
X590726Y798960D01*
X589912Y798623D01*
X589213Y798087D01*
X588677Y797388D01*
X588340Y796574D01*
X588225Y795700D01*
X588340Y794826D01*
X588677Y794012D01*
X589213Y793313D01*
X589912Y792777D01*
X590726Y792440D01*
X591600Y792325D01*
X592474Y792440D01*
X593288Y792777D01*
X593987Y793313D01*
X594523Y794012D01*
X594860Y794826D01*
X594975Y795700D01*
X594860Y796574D01*
X594523Y797388D01*
X593987Y798087D01*
X593288Y798623D01*
X592474Y798960D01*
X591600Y799075D01*
D02*
G37*
G36*
X576600D02*
X575726Y798960D01*
X574912Y798623D01*
X574213Y798087D01*
X573677Y797388D01*
X573340Y796574D01*
X573225Y795700D01*
X573340Y794826D01*
X573677Y794012D01*
X574213Y793313D01*
X574912Y792777D01*
X575726Y792440D01*
X576600Y792325D01*
X577474Y792440D01*
X578288Y792777D01*
X578987Y793313D01*
X579523Y794012D01*
X579860Y794826D01*
X579975Y795700D01*
X579860Y796574D01*
X579523Y797388D01*
X578987Y798087D01*
X578288Y798623D01*
X577474Y798960D01*
X576600Y799075D01*
D02*
G37*
G36*
X621600D02*
X620726Y798960D01*
X619912Y798623D01*
X619213Y798087D01*
X618677Y797388D01*
X618340Y796574D01*
X618225Y795700D01*
X618340Y794826D01*
X618677Y794012D01*
X619213Y793313D01*
X619912Y792777D01*
X620726Y792440D01*
X621600Y792325D01*
X622474Y792440D01*
X623288Y792777D01*
X623987Y793313D01*
X624523Y794012D01*
X624860Y794826D01*
X624975Y795700D01*
X624860Y796574D01*
X624523Y797388D01*
X623987Y798087D01*
X623288Y798623D01*
X622474Y798960D01*
X621600Y799075D01*
D02*
G37*
G36*
X460900Y807275D02*
X460026Y807160D01*
X459212Y806823D01*
X458513Y806287D01*
X457977Y805588D01*
X457640Y804774D01*
X457525Y803900D01*
X457640Y803026D01*
X457977Y802212D01*
X458513Y801513D01*
X459212Y800977D01*
X460026Y800640D01*
X460900Y800525D01*
X461774Y800640D01*
X462588Y800977D01*
X463287Y801513D01*
X463823Y802212D01*
X464160Y803026D01*
X464275Y803900D01*
X464160Y804774D01*
X463823Y805588D01*
X463287Y806287D01*
X462588Y806823D01*
X461774Y807160D01*
X460900Y807275D01*
D02*
G37*
G36*
X498091Y801175D02*
X497217Y801060D01*
X496403Y800723D01*
X495704Y800187D01*
X495167Y799488D01*
X494830Y798674D01*
X494715Y797800D01*
X494830Y796926D01*
X495167Y796112D01*
X495704Y795413D01*
X496403Y794877D01*
X497217Y794540D01*
X498091Y794425D01*
X498964Y794540D01*
X499778Y794877D01*
X500477Y795413D01*
X501014Y796112D01*
X501351Y796926D01*
X501466Y797800D01*
X501351Y798674D01*
X501014Y799488D01*
X500477Y800187D01*
X499778Y800723D01*
X498964Y801060D01*
X498091Y801175D01*
D02*
G37*
G36*
X650590Y799075D02*
X649717Y798960D01*
X648903Y798623D01*
X648203Y798087D01*
X647667Y797388D01*
X647330Y796574D01*
X647215Y795700D01*
X647330Y794826D01*
X647667Y794012D01*
X648203Y793313D01*
X648903Y792777D01*
X649717Y792440D01*
X650590Y792325D01*
X651464Y792440D01*
X652278Y792777D01*
X652977Y793313D01*
X653513Y794012D01*
X653851Y794826D01*
X653966Y795700D01*
X653851Y796574D01*
X653513Y797388D01*
X652977Y798087D01*
X652278Y798623D01*
X651464Y798960D01*
X650590Y799075D01*
D02*
G37*
G36*
X559800D02*
X558926Y798960D01*
X558112Y798623D01*
X557413Y798087D01*
X556877Y797388D01*
X556540Y796574D01*
X556425Y795700D01*
X556540Y794826D01*
X556877Y794012D01*
X557413Y793313D01*
X558112Y792777D01*
X558926Y792440D01*
X559800Y792325D01*
X560674Y792440D01*
X561488Y792777D01*
X562187Y793313D01*
X562723Y794012D01*
X563060Y794826D01*
X563175Y795700D01*
X563060Y796574D01*
X562723Y797388D01*
X562187Y798087D01*
X561488Y798623D01*
X560674Y798960D01*
X559800Y799075D01*
D02*
G37*
G36*
X483090Y790051D02*
X481793Y789880D01*
X480585Y789379D01*
X479547Y788583D01*
X478751Y787545D01*
X478250Y786336D01*
X478079Y785039D01*
X478250Y783742D01*
X478751Y782534D01*
X479547Y781496D01*
X480585Y780699D01*
X481793Y780199D01*
X483090Y780028D01*
X484387Y780199D01*
X485596Y780699D01*
X486634Y781496D01*
X487430Y782534D01*
X487931Y783742D01*
X488102Y785039D01*
X487931Y786336D01*
X487430Y787545D01*
X486634Y788583D01*
X485596Y789379D01*
X484387Y789880D01*
X483090Y790051D01*
D02*
G37*
G36*
X468090D02*
X466793Y789880D01*
X465585Y789379D01*
X464547Y788583D01*
X463751Y787545D01*
X463250Y786336D01*
X463079Y785039D01*
X463250Y783742D01*
X463751Y782534D01*
X464547Y781496D01*
X465585Y780699D01*
X466793Y780199D01*
X468090Y780028D01*
X469387Y780199D01*
X470596Y780699D01*
X471634Y781496D01*
X472430Y782534D01*
X472931Y783742D01*
X473102Y785039D01*
X472931Y786336D01*
X472430Y787545D01*
X471634Y788583D01*
X470596Y789379D01*
X469387Y789880D01*
X468090Y790051D01*
D02*
G37*
G36*
X453090D02*
X451793Y789880D01*
X450585Y789379D01*
X449547Y788583D01*
X448750Y787545D01*
X448250Y786336D01*
X448079Y785039D01*
X448250Y783742D01*
X448750Y782534D01*
X449547Y781496D01*
X450585Y780699D01*
X451793Y780199D01*
X453090Y780028D01*
X454388Y780199D01*
X455596Y780699D01*
X456634Y781496D01*
X457430Y782534D01*
X457931Y783742D01*
X458102Y785039D01*
X457931Y786336D01*
X457430Y787545D01*
X456634Y788583D01*
X455596Y789379D01*
X454388Y789880D01*
X453090Y790051D01*
D02*
G37*
G36*
X498091D02*
X496793Y789880D01*
X495585Y789379D01*
X494547Y788583D01*
X493750Y787545D01*
X493250Y786336D01*
X493079Y785039D01*
X493250Y783742D01*
X493750Y782534D01*
X494547Y781496D01*
X495585Y780699D01*
X496793Y780199D01*
X498091Y780028D01*
X499388Y780199D01*
X500596Y780699D01*
X501634Y781496D01*
X502430Y782534D01*
X502931Y783742D01*
X503102Y785039D01*
X502931Y786336D01*
X502430Y787545D01*
X501634Y788583D01*
X500596Y789379D01*
X499388Y789880D01*
X498091Y790051D01*
D02*
G37*
G36*
X737498Y792931D02*
X736625Y792816D01*
X735811Y792479D01*
X735112Y791943D01*
X734575Y791244D01*
X734238Y790429D01*
X734123Y789556D01*
X734238Y788682D01*
X734575Y787868D01*
X735112Y787169D01*
X735811Y786633D01*
X736625Y786296D01*
X737498Y786181D01*
X738372Y786296D01*
X739186Y786633D01*
X739885Y787169D01*
X740422Y787868D01*
X740759Y788682D01*
X740874Y789556D01*
X740759Y790429D01*
X740422Y791244D01*
X739885Y791943D01*
X739186Y792479D01*
X738372Y792816D01*
X737498Y792931D01*
D02*
G37*
G36*
X689998Y792531D02*
X689125Y792416D01*
X688311Y792079D01*
X687612Y791543D01*
X687075Y790844D01*
X686738Y790029D01*
X686623Y789156D01*
X686738Y788282D01*
X687075Y787468D01*
X687612Y786769D01*
X688311Y786233D01*
X689125Y785896D01*
X689998Y785781D01*
X690872Y785896D01*
X691686Y786233D01*
X692385Y786769D01*
X692922Y787468D01*
X693259Y788282D01*
X693374Y789156D01*
X693259Y790029D01*
X692922Y790844D01*
X692385Y791543D01*
X691686Y792079D01*
X690872Y792416D01*
X689998Y792531D01*
D02*
G37*
G36*
X513091Y790051D02*
X511793Y789880D01*
X510585Y789379D01*
X509547Y788583D01*
X508750Y787545D01*
X508250Y786336D01*
X508079Y785039D01*
X508250Y783742D01*
X508750Y782534D01*
X509547Y781496D01*
X510585Y780699D01*
X511793Y780199D01*
X513091Y780028D01*
X514388Y780199D01*
X515596Y780699D01*
X516634Y781496D01*
X517430Y782534D01*
X517931Y783742D01*
X518102Y785039D01*
X517931Y786336D01*
X517430Y787545D01*
X516634Y788583D01*
X515596Y789379D01*
X514388Y789880D01*
X513091Y790051D01*
D02*
G37*
G36*
X498091Y815075D02*
X497217Y814960D01*
X496403Y814623D01*
X495704Y814087D01*
X495167Y813388D01*
X494830Y812574D01*
X494715Y811700D01*
X494830Y810826D01*
X495167Y810012D01*
X495704Y809313D01*
X496403Y808777D01*
X497217Y808440D01*
X498091Y808325D01*
X498964Y808440D01*
X499778Y808777D01*
X500477Y809313D01*
X501014Y810012D01*
X501351Y810826D01*
X501466Y811700D01*
X501351Y812574D01*
X501014Y813388D01*
X500477Y814087D01*
X499778Y814623D01*
X498964Y814960D01*
X498091Y815075D01*
D02*
G37*
G36*
X468090Y840051D02*
X466793Y839880D01*
X465585Y839379D01*
X464547Y838583D01*
X463751Y837545D01*
X463250Y836336D01*
X463079Y835039D01*
X463250Y833742D01*
X463751Y832534D01*
X464547Y831496D01*
X465585Y830699D01*
X466793Y830199D01*
X468090Y830028D01*
X469387Y830199D01*
X470596Y830699D01*
X471634Y831496D01*
X472430Y832534D01*
X472931Y833742D01*
X473102Y835039D01*
X472931Y836336D01*
X472430Y837545D01*
X471634Y838583D01*
X470596Y839379D01*
X469387Y839880D01*
X468090Y840051D01*
D02*
G37*
G36*
X453090D02*
X451793Y839880D01*
X450585Y839379D01*
X449547Y838583D01*
X448750Y837545D01*
X448250Y836336D01*
X448079Y835039D01*
X448250Y833742D01*
X448750Y832534D01*
X449547Y831496D01*
X450585Y830699D01*
X451793Y830199D01*
X453090Y830028D01*
X454388Y830199D01*
X455596Y830699D01*
X456634Y831496D01*
X457430Y832534D01*
X457931Y833742D01*
X458102Y835039D01*
X457931Y836336D01*
X457430Y837545D01*
X456634Y838583D01*
X455596Y839379D01*
X454388Y839880D01*
X453090Y840051D01*
D02*
G37*
G36*
X438191D02*
X436893Y839880D01*
X435685Y839379D01*
X434647Y838583D01*
X433850Y837545D01*
X433350Y836336D01*
X433179Y835039D01*
X433350Y833742D01*
X433850Y832534D01*
X434647Y831496D01*
X435685Y830699D01*
X436893Y830199D01*
X438191Y830028D01*
X439488Y830199D01*
X440696Y830699D01*
X441734Y831496D01*
X442530Y832534D01*
X443031Y833742D01*
X443202Y835039D01*
X443031Y836336D01*
X442530Y837545D01*
X441734Y838583D01*
X440696Y839379D01*
X439488Y839880D01*
X438191Y840051D01*
D02*
G37*
G36*
X483090D02*
X481793Y839880D01*
X480585Y839379D01*
X479547Y838583D01*
X478751Y837545D01*
X478250Y836336D01*
X478079Y835039D01*
X478250Y833742D01*
X478751Y832534D01*
X479547Y831496D01*
X480585Y830699D01*
X481793Y830199D01*
X483090Y830028D01*
X484387Y830199D01*
X485596Y830699D01*
X486634Y831496D01*
X487430Y832534D01*
X487931Y833742D01*
X488102Y835039D01*
X487931Y836336D01*
X487430Y837545D01*
X486634Y838583D01*
X485596Y839379D01*
X484387Y839880D01*
X483090Y840051D01*
D02*
G37*
G36*
X755169Y840497D02*
X753833Y840321D01*
X752588Y839805D01*
X751519Y838985D01*
X750699Y837916D01*
X750440Y837291D01*
X749899D01*
X749640Y837916D01*
X748820Y838985D01*
X747750Y839805D01*
X746505Y840321D01*
X745169Y840497D01*
X743833Y840321D01*
X742588Y839805D01*
X741519Y838985D01*
X740699Y837916D01*
X740440Y837291D01*
X739899D01*
X739640Y837916D01*
X738820Y838985D01*
X737750Y839805D01*
X736505Y840321D01*
X735169Y840497D01*
X733833Y840321D01*
X732588Y839805D01*
X731519Y838985D01*
X730699Y837916D01*
X730440Y837291D01*
X729899D01*
X729640Y837916D01*
X728820Y838985D01*
X727750Y839805D01*
X726505Y840321D01*
X725169Y840497D01*
X723833Y840321D01*
X722588Y839805D01*
X721519Y838985D01*
X720699Y837916D01*
X720440Y837291D01*
X719899D01*
X719640Y837916D01*
X718820Y838985D01*
X717750Y839805D01*
X716505Y840321D01*
X715169Y840497D01*
X713833Y840321D01*
X712588Y839805D01*
X711519Y838985D01*
X710699Y837916D01*
X710183Y836671D01*
X710007Y835335D01*
X710183Y833999D01*
X710699Y832753D01*
X711519Y831684D01*
X712588Y830864D01*
X713833Y830348D01*
X715169Y830172D01*
X716505Y830348D01*
X717750Y830864D01*
X718820Y831684D01*
X719640Y832753D01*
X719899Y833378D01*
X720440D01*
X720699Y832753D01*
X721519Y831684D01*
X722588Y830864D01*
X723833Y830348D01*
X725169Y830172D01*
X726505Y830348D01*
X727750Y830864D01*
X728820Y831684D01*
X729640Y832753D01*
X729899Y833378D01*
X730440D01*
X730699Y832753D01*
X731519Y831684D01*
X732588Y830864D01*
X733833Y830348D01*
X735169Y830172D01*
X736505Y830348D01*
X737750Y830864D01*
X738820Y831684D01*
X739640Y832753D01*
X739899Y833378D01*
X740440D01*
X740699Y832753D01*
X741519Y831684D01*
X742588Y830864D01*
X743833Y830348D01*
X745169Y830172D01*
X746505Y830348D01*
X747750Y830864D01*
X748820Y831684D01*
X749640Y832753D01*
X749899Y833378D01*
X750440D01*
X750699Y832753D01*
X751519Y831684D01*
X752588Y830864D01*
X753833Y830348D01*
X755169Y830172D01*
X756505Y830348D01*
X757750Y830864D01*
X758820Y831684D01*
X759640Y832753D01*
X760156Y833999D01*
X760331Y835335D01*
X760156Y836671D01*
X759640Y837916D01*
X758820Y838985D01*
X757750Y839805D01*
X756505Y840321D01*
X755169Y840497D01*
D02*
G37*
G36*
X513091Y840051D02*
X511793Y839880D01*
X510585Y839379D01*
X509547Y838583D01*
X508750Y837545D01*
X508250Y836336D01*
X508079Y835039D01*
X508250Y833742D01*
X508750Y832534D01*
X509547Y831496D01*
X510585Y830699D01*
X511793Y830199D01*
X513091Y830028D01*
X514388Y830199D01*
X515596Y830699D01*
X516634Y831496D01*
X517430Y832534D01*
X517931Y833742D01*
X518102Y835039D01*
X517931Y836336D01*
X517430Y837545D01*
X516634Y838583D01*
X515596Y839379D01*
X514388Y839880D01*
X513091Y840051D01*
D02*
G37*
G36*
X498091D02*
X496793Y839880D01*
X495585Y839379D01*
X494547Y838583D01*
X493750Y837545D01*
X493250Y836336D01*
X493079Y835039D01*
X493250Y833742D01*
X493750Y832534D01*
X494547Y831496D01*
X495585Y830699D01*
X496793Y830199D01*
X498091Y830028D01*
X499388Y830199D01*
X500596Y830699D01*
X501634Y831496D01*
X502430Y832534D01*
X502931Y833742D01*
X503102Y835039D01*
X502931Y836336D01*
X502430Y837545D01*
X501634Y838583D01*
X500596Y839379D01*
X499388Y839880D01*
X498091Y840051D01*
D02*
G37*
G36*
X643595Y839958D02*
X642298Y839787D01*
X641089Y839287D01*
X640052Y838490D01*
X639255Y837452D01*
X638755Y836244D01*
X638584Y834947D01*
X638755Y833650D01*
X639255Y832441D01*
X640052Y831403D01*
X641089Y830607D01*
X642298Y830106D01*
X643595Y829935D01*
X644892Y830106D01*
X646101Y830607D01*
X647139Y831403D01*
X647935Y832441D01*
X648436Y833650D01*
X648606Y834947D01*
X648436Y836244D01*
X647935Y837452D01*
X647139Y838490D01*
X646101Y839287D01*
X644892Y839787D01*
X643595Y839958D01*
D02*
G37*
G36*
X568695D02*
X567398Y839787D01*
X566189Y839287D01*
X565152Y838490D01*
X564355Y837452D01*
X563855Y836244D01*
X563684Y834947D01*
X563855Y833650D01*
X564355Y832441D01*
X565152Y831403D01*
X566189Y830607D01*
X567398Y830106D01*
X568695Y829935D01*
X569992Y830106D01*
X571201Y830607D01*
X572239Y831403D01*
X573035Y832441D01*
X573536Y833650D01*
X573706Y834947D01*
X573536Y836244D01*
X573035Y837452D01*
X572239Y838490D01*
X571201Y839287D01*
X569992Y839787D01*
X568695Y839958D01*
D02*
G37*
G36*
X705807Y831427D02*
X704934Y831312D01*
X704119Y830974D01*
X703420Y830438D01*
X702884Y829739D01*
X702547Y828925D01*
X702432Y828051D01*
X702547Y827178D01*
X702884Y826363D01*
X703420Y825665D01*
X704119Y825128D01*
X704934Y824791D01*
X705807Y824676D01*
X706367Y824750D01*
X706718Y824292D01*
X706681Y824200D01*
X706566Y823327D01*
X706681Y822453D01*
X707018Y821639D01*
X707554Y820940D01*
X708253Y820404D01*
X709067Y820067D01*
X709941Y819951D01*
X710815Y820067D01*
X711629Y820404D01*
X712328Y820940D01*
X712864Y821639D01*
X713201Y822453D01*
X713316Y823327D01*
X713201Y824200D01*
X712864Y825014D01*
X712328Y825714D01*
X711629Y826250D01*
X710815Y826587D01*
X709941Y826702D01*
X709381Y826628D01*
X709030Y827086D01*
X709067Y827178D01*
X709182Y828051D01*
X709067Y828925D01*
X708730Y829739D01*
X708194Y830438D01*
X707495Y830974D01*
X706681Y831312D01*
X705807Y831427D01*
D02*
G37*
G36*
X513091Y815185D02*
X512217Y815070D01*
X511403Y814733D01*
X510704Y814196D01*
X510167Y813497D01*
X509830Y812683D01*
X509715Y811810D01*
X509830Y810936D01*
X510167Y810122D01*
X510704Y809423D01*
X511403Y808886D01*
X512217Y808549D01*
X513091Y808434D01*
X513964Y808549D01*
X514778Y808886D01*
X515477Y809423D01*
X516014Y810122D01*
X516351Y810936D01*
X516466Y811810D01*
X516351Y812683D01*
X516014Y813497D01*
X515477Y814196D01*
X514778Y814733D01*
X513964Y815070D01*
X513091Y815185D01*
D02*
G37*
G36*
X583595Y839958D02*
X582298Y839787D01*
X581089Y839287D01*
X580052Y838490D01*
X579255Y837452D01*
X578755Y836244D01*
X578584Y834947D01*
X578755Y833650D01*
X579255Y832441D01*
X580052Y831403D01*
X581089Y830607D01*
X582298Y830106D01*
X583595Y829935D01*
X584892Y830106D01*
X586101Y830607D01*
X587139Y831403D01*
X587935Y832441D01*
X588436Y833650D01*
X588607Y834947D01*
X588436Y836244D01*
X587935Y837452D01*
X587139Y838490D01*
X586101Y839287D01*
X584892Y839787D01*
X583595Y839958D01*
D02*
G37*
G36*
X628595D02*
X627298Y839787D01*
X626089Y839287D01*
X625051Y838490D01*
X624255Y837452D01*
X623755Y836244D01*
X623584Y834947D01*
X623755Y833650D01*
X624255Y832441D01*
X625051Y831403D01*
X626089Y830607D01*
X627298Y830106D01*
X628595Y829935D01*
X629892Y830106D01*
X631101Y830607D01*
X632139Y831403D01*
X632935Y832441D01*
X633436Y833650D01*
X633606Y834947D01*
X633436Y836244D01*
X632935Y837452D01*
X632139Y838490D01*
X631101Y839287D01*
X629892Y839787D01*
X628595Y839958D01*
D02*
G37*
G36*
X613595D02*
X612298Y839787D01*
X611089Y839287D01*
X610051Y838490D01*
X609255Y837452D01*
X608754Y836244D01*
X608584Y834947D01*
X608754Y833650D01*
X609255Y832441D01*
X610051Y831403D01*
X611089Y830607D01*
X612298Y830106D01*
X613595Y829935D01*
X614892Y830106D01*
X616101Y830607D01*
X617139Y831403D01*
X617935Y832441D01*
X618436Y833650D01*
X618607Y834947D01*
X618436Y836244D01*
X617935Y837452D01*
X617139Y838490D01*
X616101Y839287D01*
X614892Y839787D01*
X613595Y839958D01*
D02*
G37*
G36*
X598595D02*
X597298Y839787D01*
X596089Y839287D01*
X595051Y838490D01*
X594255Y837452D01*
X593754Y836244D01*
X593584Y834947D01*
X593754Y833650D01*
X594255Y832441D01*
X595051Y831403D01*
X596089Y830607D01*
X597298Y830106D01*
X598595Y829935D01*
X599892Y830106D01*
X601101Y830607D01*
X602139Y831403D01*
X602935Y832441D01*
X603436Y833650D01*
X603607Y834947D01*
X603436Y836244D01*
X602935Y837452D01*
X602139Y838490D01*
X601101Y839287D01*
X599892Y839787D01*
X598595Y839958D01*
D02*
G37*
G36*
X512250Y775226D02*
X511377Y775111D01*
X510563Y774774D01*
X509864Y774237D01*
X509327Y773538D01*
X508990Y772724D01*
X508875Y771850D01*
X508990Y770977D01*
X509327Y770163D01*
X509864Y769464D01*
X510563Y768927D01*
X511377Y768590D01*
X512250Y768475D01*
X513124Y768590D01*
X513938Y768927D01*
X514637Y769464D01*
X515173Y770163D01*
X515511Y770977D01*
X515626Y771850D01*
X515511Y772724D01*
X515173Y773538D01*
X514637Y774237D01*
X513938Y774774D01*
X513124Y775111D01*
X512250Y775226D01*
D02*
G37*
G36*
X628595Y789958D02*
X627298Y789787D01*
X626089Y789287D01*
X625051Y788490D01*
X624255Y787452D01*
X623755Y786244D01*
X623584Y784947D01*
X623755Y783650D01*
X624255Y782441D01*
X625051Y781403D01*
X626089Y780607D01*
X627298Y780106D01*
X628595Y779935D01*
X629892Y780106D01*
X631101Y780607D01*
X632139Y781403D01*
X632935Y782441D01*
X633436Y783650D01*
X633606Y784947D01*
X633436Y786244D01*
X632935Y787452D01*
X632139Y788490D01*
X631101Y789287D01*
X629892Y789787D01*
X628595Y789958D01*
D02*
G37*
G36*
X613595D02*
X612298Y789787D01*
X611089Y789287D01*
X610051Y788490D01*
X609255Y787452D01*
X608754Y786244D01*
X608584Y784947D01*
X608754Y783650D01*
X609255Y782441D01*
X610051Y781403D01*
X611089Y780607D01*
X612298Y780106D01*
X613595Y779935D01*
X614892Y780106D01*
X616101Y780607D01*
X617139Y781403D01*
X617935Y782441D01*
X618436Y783650D01*
X618607Y784947D01*
X618436Y786244D01*
X617935Y787452D01*
X617139Y788490D01*
X616101Y789287D01*
X614892Y789787D01*
X613595Y789958D01*
D02*
G37*
G36*
X522600Y746885D02*
X521726Y746770D01*
X520912Y746433D01*
X520213Y745896D01*
X519677Y745197D01*
X519340Y744383D01*
X519225Y743509D01*
X519340Y742636D01*
X519677Y741822D01*
X520213Y741123D01*
X520912Y740586D01*
X521726Y740249D01*
X522600Y740134D01*
X523474Y740249D01*
X524288Y740586D01*
X524987Y741123D01*
X525523Y741822D01*
X525860Y742636D01*
X525975Y743509D01*
X525860Y744383D01*
X525523Y745197D01*
X524987Y745896D01*
X524288Y746433D01*
X523474Y746770D01*
X522600Y746885D01*
D02*
G37*
G36*
X418800Y750827D02*
X417926Y750712D01*
X417112Y750375D01*
X416413Y749839D01*
X415877Y749140D01*
X415540Y748326D01*
X415425Y747452D01*
X415540Y746578D01*
X415877Y745764D01*
X416413Y745065D01*
X417112Y744529D01*
X417926Y744192D01*
X418800Y744077D01*
X419674Y744192D01*
X420488Y744529D01*
X421187Y745065D01*
X421723Y745764D01*
X422060Y746578D01*
X422175Y747452D01*
X422060Y748326D01*
X421723Y749140D01*
X421187Y749839D01*
X420488Y750375D01*
X419674Y750712D01*
X418800Y750827D01*
D02*
G37*
G36*
X643595Y789958D02*
X642298Y789787D01*
X641089Y789287D01*
X640052Y788490D01*
X639255Y787452D01*
X638755Y786244D01*
X638584Y784947D01*
X638755Y783650D01*
X639255Y782441D01*
X640052Y781403D01*
X641089Y780607D01*
X642298Y780106D01*
X643595Y779935D01*
X644892Y780106D01*
X646101Y780607D01*
X647139Y781403D01*
X647935Y782441D01*
X648436Y783650D01*
X648606Y784947D01*
X648436Y786244D01*
X647935Y787452D01*
X647139Y788490D01*
X646101Y789287D01*
X644892Y789787D01*
X643595Y789958D01*
D02*
G37*
G36*
X598595D02*
X597298Y789787D01*
X596089Y789287D01*
X595051Y788490D01*
X594255Y787452D01*
X593754Y786244D01*
X593584Y784947D01*
X593754Y783650D01*
X594255Y782441D01*
X595051Y781403D01*
X596089Y780607D01*
X597298Y780106D01*
X598595Y779935D01*
X599892Y780106D01*
X601101Y780607D01*
X602139Y781403D01*
X602935Y782441D01*
X603436Y783650D01*
X603607Y784947D01*
X603436Y786244D01*
X602935Y787452D01*
X602139Y788490D01*
X601101Y789287D01*
X599892Y789787D01*
X598595Y789958D01*
D02*
G37*
G36*
X460900Y773975D02*
X460026Y773860D01*
X459212Y773523D01*
X458513Y772987D01*
X457977Y772288D01*
X457640Y771474D01*
X457525Y770600D01*
X457640Y769726D01*
X457977Y768912D01*
X458513Y768213D01*
X459212Y767677D01*
X460026Y767340D01*
X460900Y767225D01*
X461774Y767340D01*
X462588Y767677D01*
X463287Y768213D01*
X463823Y768912D01*
X464160Y769726D01*
X464275Y770600D01*
X464160Y771474D01*
X463823Y772288D01*
X463287Y772987D01*
X462588Y773523D01*
X461774Y773860D01*
X460900Y773975D01*
D02*
G37*
G36*
X730298Y782631D02*
X729425Y782516D01*
X728611Y782179D01*
X727912Y781643D01*
X727375Y780944D01*
X727038Y780129D01*
X726923Y779256D01*
X727038Y778382D01*
X727375Y777568D01*
X727912Y776869D01*
X728611Y776333D01*
X729425Y775996D01*
X730298Y775881D01*
X731172Y775996D01*
X731986Y776333D01*
X732685Y776869D01*
X733222Y777568D01*
X733559Y778382D01*
X733674Y779256D01*
X733559Y780129D01*
X733222Y780944D01*
X732685Y781643D01*
X731986Y782179D01*
X731172Y782516D01*
X730298Y782631D01*
D02*
G37*
G36*
X682798Y782231D02*
X681925Y782116D01*
X681111Y781779D01*
X680412Y781243D01*
X679875Y780544D01*
X679538Y779730D01*
X679423Y778856D01*
X679538Y777982D01*
X679875Y777168D01*
X680412Y776469D01*
X681111Y775933D01*
X681925Y775596D01*
X682798Y775481D01*
X683672Y775596D01*
X684486Y775933D01*
X685185Y776469D01*
X685722Y777168D01*
X686059Y777982D01*
X686174Y778856D01*
X686059Y779730D01*
X685722Y780544D01*
X685185Y781243D01*
X684486Y781779D01*
X683672Y782116D01*
X682798Y782231D01*
D02*
G37*
G36*
X425888Y761075D02*
X425015Y760960D01*
X424200Y760623D01*
X423501Y760087D01*
X422965Y759388D01*
X422628Y758574D01*
X422513Y757700D01*
X422628Y756826D01*
X422965Y756012D01*
X423501Y755313D01*
X424200Y754777D01*
X425015Y754440D01*
X425888Y754325D01*
X426762Y754440D01*
X427576Y754777D01*
X428275Y755313D01*
X428811Y756012D01*
X429148Y756826D01*
X429263Y757700D01*
X429148Y758574D01*
X428811Y759388D01*
X428275Y760087D01*
X427576Y760623D01*
X426762Y760960D01*
X425888Y761075D01*
D02*
G37*
G36*
X583595Y789958D02*
X582298Y789787D01*
X581089Y789287D01*
X580052Y788490D01*
X579255Y787452D01*
X578755Y786244D01*
X578584Y784947D01*
X578755Y783650D01*
X579255Y782441D01*
X580052Y781403D01*
X581089Y780607D01*
X582298Y780106D01*
X583595Y779935D01*
X584892Y780106D01*
X586101Y780607D01*
X587139Y781403D01*
X587935Y782441D01*
X588436Y783650D01*
X588607Y784947D01*
X588436Y786244D01*
X587935Y787452D01*
X587139Y788490D01*
X586101Y789287D01*
X584892Y789787D01*
X583595Y789958D01*
D02*
G37*
G36*
X568595D02*
X567298Y789787D01*
X566089Y789287D01*
X565052Y788490D01*
X564255Y787452D01*
X563755Y786244D01*
X563584Y784947D01*
X563755Y783650D01*
X564255Y782441D01*
X565052Y781403D01*
X566089Y780607D01*
X567298Y780106D01*
X568595Y779935D01*
X569892Y780106D01*
X571101Y780607D01*
X572139Y781403D01*
X572935Y782441D01*
X573436Y783650D01*
X573606Y784947D01*
X573436Y786244D01*
X572935Y787452D01*
X572139Y788490D01*
X571101Y789287D01*
X569892Y789787D01*
X568595Y789958D01*
D02*
G37*
G36*
X563598Y736531D02*
X562725Y736416D01*
X561911Y736079D01*
X561212Y735543D01*
X560675Y734844D01*
X560338Y734029D01*
X560223Y733156D01*
X560338Y732282D01*
X560675Y731468D01*
X561212Y730769D01*
X561911Y730233D01*
X562725Y729896D01*
X563598Y729781D01*
X564472Y729896D01*
X565286Y730233D01*
X565985Y730769D01*
X566522Y731468D01*
X566859Y732282D01*
X566974Y733156D01*
X566859Y734029D01*
X566522Y734844D01*
X565985Y735543D01*
X565286Y736079D01*
X564472Y736416D01*
X563598Y736531D01*
D02*
G37*
G36*
X609000D02*
X608126Y736416D01*
X607312Y736079D01*
X606613Y735543D01*
X606077Y734844D01*
X605740Y734029D01*
X605625Y733156D01*
X605740Y732282D01*
X606077Y731468D01*
X606613Y730769D01*
X607312Y730233D01*
X608126Y729896D01*
X609000Y729781D01*
X609874Y729896D01*
X610688Y730233D01*
X611387Y730769D01*
X611923Y731468D01*
X612260Y732282D01*
X612375Y733156D01*
X612260Y734029D01*
X611923Y734844D01*
X611387Y735543D01*
X610688Y736079D01*
X609874Y736416D01*
X609000Y736531D01*
D02*
G37*
G36*
X515400Y736585D02*
X514526Y736470D01*
X513712Y736133D01*
X513013Y735596D01*
X512477Y734897D01*
X512140Y734083D01*
X512025Y733209D01*
X512140Y732336D01*
X512477Y731522D01*
X513013Y730823D01*
X513712Y730286D01*
X514526Y729949D01*
X515400Y729834D01*
X516274Y729949D01*
X517088Y730286D01*
X517787Y730823D01*
X518323Y731522D01*
X518660Y732336D01*
X518775Y733209D01*
X518660Y734083D01*
X518323Y734897D01*
X517787Y735596D01*
X517088Y736133D01*
X516274Y736470D01*
X515400Y736585D01*
D02*
G37*
G36*
X425619Y727611D02*
X424745Y727496D01*
X423931Y727159D01*
X423232Y726623D01*
X422696Y725924D01*
X422359Y725110D01*
X422244Y724236D01*
X422359Y723363D01*
X422696Y722549D01*
X423232Y721849D01*
X423931Y721313D01*
X424745Y720976D01*
X425619Y720861D01*
X426493Y720976D01*
X427307Y721313D01*
X428006Y721849D01*
X428542Y722549D01*
X428879Y723363D01*
X428994Y724236D01*
X428879Y725110D01*
X428542Y725924D01*
X428006Y726623D01*
X427307Y727159D01*
X426493Y727496D01*
X425619Y727611D01*
D02*
G37*
G36*
X700900Y736375D02*
X700026Y736260D01*
X699212Y735923D01*
X698513Y735387D01*
X697977Y734688D01*
X697640Y733874D01*
X697525Y733000D01*
X697640Y732126D01*
X697977Y731312D01*
X698513Y730613D01*
X699212Y730077D01*
X700026Y729740D01*
X700900Y729625D01*
X701774Y729740D01*
X702588Y730077D01*
X703287Y730613D01*
X703823Y731312D01*
X704160Y732126D01*
X704275Y733000D01*
X704160Y733874D01*
X703823Y734688D01*
X703287Y735387D01*
X702588Y735923D01*
X701774Y736260D01*
X700900Y736375D01*
D02*
G37*
G36*
X653498Y736431D02*
X652625Y736316D01*
X651811Y735979D01*
X651112Y735443D01*
X650575Y734744D01*
X650238Y733929D01*
X650123Y733056D01*
X650238Y732182D01*
X650575Y731368D01*
X651112Y730669D01*
X651811Y730133D01*
X652625Y729796D01*
X653498Y729681D01*
X654372Y729796D01*
X655186Y730133D01*
X655885Y730669D01*
X656422Y731368D01*
X656759Y732182D01*
X656874Y733056D01*
X656759Y733929D01*
X656422Y734744D01*
X655885Y735443D01*
X655186Y735979D01*
X654372Y736316D01*
X653498Y736431D01*
D02*
G37*
G36*
X480048Y763484D02*
X477984D01*
X475937Y763215D01*
X473943Y762681D01*
X472036Y761891D01*
X470248Y760858D01*
X468610Y759602D01*
X467150Y758142D01*
X465894Y756504D01*
X464861Y754716D01*
X464071Y752809D01*
X463537Y750815D01*
X463268Y748769D01*
Y746704D01*
X463537Y744657D01*
X464071Y742663D01*
X464861Y740756D01*
X465894Y738968D01*
X467150Y737331D01*
X468610Y735871D01*
X470248Y734614D01*
X472036Y733582D01*
X473943Y732792D01*
X475937Y732258D01*
X477984Y731988D01*
X480048D01*
X482095Y732258D01*
X484089Y732792D01*
X485996Y733582D01*
X487784Y734614D01*
X489421Y735871D01*
X490881Y737331D01*
X492138Y738968D01*
X493170Y740756D01*
X493960Y742663D01*
X494494Y744657D01*
X494764Y746704D01*
Y748769D01*
X494494Y750815D01*
X493960Y752809D01*
X493170Y754716D01*
X492138Y756504D01*
X490881Y758142D01*
X489421Y759602D01*
X487784Y760858D01*
X485996Y761891D01*
X484089Y762681D01*
X482095Y763215D01*
X480048Y763484D01*
D02*
G37*
G36*
X570798Y746831D02*
X569925Y746716D01*
X569111Y746379D01*
X568412Y745843D01*
X567875Y745144D01*
X567538Y744330D01*
X567423Y743456D01*
X567538Y742582D01*
X567875Y741768D01*
X568412Y741069D01*
X569111Y740533D01*
X569925Y740196D01*
X570798Y740081D01*
X571672Y740196D01*
X572486Y740533D01*
X573185Y741069D01*
X573722Y741768D01*
X574059Y742582D01*
X574174Y743456D01*
X574059Y744330D01*
X573722Y745144D01*
X573185Y745843D01*
X572486Y746379D01*
X571672Y746716D01*
X570798Y746831D01*
D02*
G37*
G36*
X616200D02*
X615326Y746716D01*
X614512Y746379D01*
X613813Y745843D01*
X613277Y745144D01*
X612940Y744330D01*
X612825Y743456D01*
X612940Y742582D01*
X613277Y741768D01*
X613813Y741069D01*
X614512Y740533D01*
X615326Y740196D01*
X616200Y740081D01*
X617074Y740196D01*
X617888Y740533D01*
X618587Y741069D01*
X619123Y741768D01*
X619460Y742582D01*
X619575Y743456D01*
X619460Y744330D01*
X619123Y745144D01*
X618587Y745843D01*
X617888Y746379D01*
X617074Y746716D01*
X616200Y746831D01*
D02*
G37*
G36*
X438091Y790051D02*
X436793Y789880D01*
X435585Y789379D01*
X434547Y788583D01*
X433750Y787545D01*
X433250Y786336D01*
X433079Y785039D01*
X433250Y783742D01*
X433750Y782534D01*
X434547Y781496D01*
X435585Y780699D01*
X436793Y780199D01*
X438091Y780028D01*
X439388Y780199D01*
X440596Y780699D01*
X441634Y781496D01*
X442430Y782534D01*
X442931Y783742D01*
X443102Y785039D01*
X442931Y786336D01*
X442430Y787545D01*
X441634Y788583D01*
X440596Y789379D01*
X439388Y789880D01*
X438091Y790051D01*
D02*
G37*
G36*
X755639Y763484D02*
X753574D01*
X751527Y763215D01*
X749533Y762681D01*
X747626Y761891D01*
X745838Y760858D01*
X744201Y759602D01*
X742741Y758142D01*
X741484Y756504D01*
X740452Y754716D01*
X739662Y752809D01*
X739128Y750815D01*
X738858Y748769D01*
Y746704D01*
X739128Y744657D01*
X739662Y742663D01*
X740452Y740756D01*
X741484Y738968D01*
X742741Y737331D01*
X744201Y735871D01*
X745838Y734614D01*
X747626Y733582D01*
X749533Y732792D01*
X751527Y732258D01*
X753574Y731988D01*
X755639D01*
X757685Y732258D01*
X759679Y732792D01*
X761586Y733582D01*
X763374Y734614D01*
X765012Y735871D01*
X766472Y737331D01*
X767728Y738968D01*
X768761Y740756D01*
X769551Y742663D01*
X770085Y744657D01*
X770354Y746704D01*
Y748769D01*
X770085Y750815D01*
X769551Y752809D01*
X768761Y754716D01*
X767728Y756504D01*
X766472Y758142D01*
X765012Y759602D01*
X763374Y760858D01*
X761586Y761891D01*
X759679Y762681D01*
X757685Y763215D01*
X755639Y763484D01*
D02*
G37*
G36*
X708100Y746675D02*
X707226Y746560D01*
X706412Y746223D01*
X705713Y745687D01*
X705177Y744988D01*
X704840Y744174D01*
X704725Y743300D01*
X704840Y742426D01*
X705177Y741612D01*
X705713Y740913D01*
X706412Y740377D01*
X707226Y740040D01*
X708100Y739925D01*
X708974Y740040D01*
X709788Y740377D01*
X710487Y740913D01*
X711023Y741612D01*
X711360Y742426D01*
X711475Y743300D01*
X711360Y744174D01*
X711023Y744988D01*
X710487Y745687D01*
X709788Y746223D01*
X708974Y746560D01*
X708100Y746675D01*
D02*
G37*
G36*
X660698Y746731D02*
X659825Y746616D01*
X659011Y746279D01*
X658312Y745743D01*
X657775Y745044D01*
X657438Y744230D01*
X657323Y743356D01*
X657438Y742482D01*
X657775Y741668D01*
X658312Y740969D01*
X659011Y740433D01*
X659825Y740096D01*
X660698Y739981D01*
X661572Y740096D01*
X662386Y740433D01*
X663085Y740969D01*
X663622Y741668D01*
X663959Y742482D01*
X664074Y743356D01*
X663959Y744230D01*
X663622Y745044D01*
X663085Y745743D01*
X662386Y746279D01*
X661572Y746616D01*
X660698Y746731D01*
D02*
G37*
%LPD*%
G36*
X629725Y495240D02*
X492823Y495240D01*
X492323Y495240D01*
X492323Y623307D01*
X629725D01*
Y495240D01*
D02*
G37*
%LPC*%
G36*
X538996Y540230D02*
X538123Y540115D01*
X537309Y539778D01*
X536609Y539241D01*
X536073Y538542D01*
X535736Y537728D01*
X535621Y536854D01*
X535736Y535981D01*
X536073Y535167D01*
X536609Y534468D01*
X536898Y534246D01*
Y533746D01*
X536609Y533525D01*
X536073Y532826D01*
X535736Y532011D01*
X535621Y531138D01*
X535736Y530264D01*
X536073Y529450D01*
X536609Y528751D01*
X537309Y528215D01*
X538123Y527878D01*
X538996Y527763D01*
X539870Y527878D01*
X540684Y528215D01*
X541383Y528751D01*
X541919Y529450D01*
X542256Y530264D01*
X542372Y531138D01*
X542256Y532011D01*
X541919Y532826D01*
X541383Y533525D01*
X541094Y533746D01*
Y534246D01*
X541383Y534468D01*
X541919Y535167D01*
X542256Y535981D01*
X542372Y536854D01*
X542256Y537728D01*
X541919Y538542D01*
X541383Y539241D01*
X540684Y539778D01*
X539870Y540115D01*
X538996Y540230D01*
D02*
G37*
G36*
X558996D02*
X558123Y540115D01*
X557308Y539778D01*
X556609Y539241D01*
X556073Y538542D01*
X555736Y537728D01*
X555621Y536854D01*
X555736Y535981D01*
X556073Y535167D01*
X556609Y534468D01*
X556898Y534246D01*
Y533746D01*
X556609Y533525D01*
X556073Y532826D01*
X555736Y532011D01*
X555621Y531138D01*
X555736Y530264D01*
X556073Y529450D01*
X556609Y528751D01*
X557308Y528215D01*
X558123Y527878D01*
X558996Y527763D01*
X559870Y527878D01*
X560684Y528215D01*
X561383Y528751D01*
X561919Y529450D01*
X562256Y530264D01*
X562371Y531138D01*
X562256Y532011D01*
X561919Y532826D01*
X561383Y533525D01*
X561094Y533746D01*
Y534246D01*
X561383Y534468D01*
X561919Y535167D01*
X562256Y535981D01*
X562371Y536854D01*
X562256Y537728D01*
X561919Y538542D01*
X561383Y539241D01*
X560684Y539778D01*
X559870Y540115D01*
X558996Y540230D01*
D02*
G37*
G36*
X522638Y530871D02*
X521764Y530756D01*
X520950Y530419D01*
X520251Y529883D01*
X519715Y529184D01*
X519378Y528370D01*
X519263Y527496D01*
X519378Y526622D01*
X519715Y525808D01*
X520251Y525109D01*
X520950Y524573D01*
X521764Y524236D01*
X522638Y524121D01*
X523512Y524236D01*
X524326Y524573D01*
X525025Y525109D01*
X525561Y525808D01*
X525898Y526622D01*
X526013Y527496D01*
X525898Y528370D01*
X525561Y529184D01*
X525025Y529883D01*
X524326Y530419D01*
X523512Y530756D01*
X522638Y530871D01*
D02*
G37*
G36*
X574028Y518119D02*
X572692Y517943D01*
X571447Y517427D01*
X570377Y516607D01*
X569557Y515538D01*
X569298Y514913D01*
X568757D01*
X568498Y515538D01*
X567678Y516607D01*
X566609Y517427D01*
X565364Y517943D01*
X564028Y518119D01*
X562692Y517943D01*
X561447Y517427D01*
X560377Y516607D01*
X559557Y515538D01*
X559298Y514913D01*
X558757D01*
X558498Y515538D01*
X557678Y516607D01*
X556609Y517427D01*
X555364Y517943D01*
X554028Y518119D01*
X552692Y517943D01*
X551446Y517427D01*
X550377Y516607D01*
X549557Y515538D01*
X549298Y514913D01*
X548757D01*
X548498Y515538D01*
X547678Y516607D01*
X546609Y517427D01*
X545364Y517943D01*
X544028Y518119D01*
X542692Y517943D01*
X541446Y517427D01*
X540377Y516607D01*
X539557Y515538D01*
X539298Y514913D01*
X538757D01*
X538498Y515538D01*
X537678Y516607D01*
X536609Y517427D01*
X535364Y517943D01*
X534028Y518119D01*
X532692Y517943D01*
X531447Y517427D01*
X530377Y516607D01*
X529557Y515538D01*
X529041Y514293D01*
X528865Y512957D01*
X529041Y511621D01*
X529557Y510376D01*
X530377Y509306D01*
X531447Y508486D01*
X532692Y507970D01*
X534028Y507794D01*
X535364Y507970D01*
X536609Y508486D01*
X537678Y509306D01*
X538498Y510376D01*
X538757Y511000D01*
X539298D01*
X539557Y510376D01*
X540377Y509306D01*
X541446Y508486D01*
X542692Y507970D01*
X544028Y507794D01*
X545364Y507970D01*
X546609Y508486D01*
X547678Y509306D01*
X548498Y510376D01*
X548757Y511000D01*
X549298D01*
X549557Y510376D01*
X550377Y509306D01*
X551446Y508486D01*
X552692Y507970D01*
X554028Y507794D01*
X555364Y507970D01*
X556609Y508486D01*
X557678Y509306D01*
X558498Y510376D01*
X558757Y511000D01*
X559298D01*
X559557Y510376D01*
X560377Y509306D01*
X561447Y508486D01*
X562692Y507970D01*
X564028Y507794D01*
X565364Y507970D01*
X566609Y508486D01*
X567678Y509306D01*
X568498Y510376D01*
X568757Y511000D01*
X569298D01*
X569557Y510376D01*
X570377Y509306D01*
X571447Y508486D01*
X572692Y507970D01*
X574028Y507794D01*
X575364Y507970D01*
X576609Y508486D01*
X577678Y509306D01*
X578498Y510376D01*
X579014Y511621D01*
X579190Y512957D01*
X579014Y514293D01*
X578498Y515538D01*
X577678Y516607D01*
X576609Y517427D01*
X575364Y517943D01*
X574028Y518119D01*
D02*
G37*
G36*
X617323Y527529D02*
X616449Y527414D01*
X615635Y527077D01*
X614936Y526540D01*
X614400Y525841D01*
X614062Y525027D01*
X613947Y524154D01*
X614062Y523280D01*
X614400Y522466D01*
X614936Y521767D01*
X614741Y521286D01*
X614400Y520841D01*
X614062Y520027D01*
X613947Y519153D01*
X614062Y518280D01*
X614400Y517466D01*
X614936Y516767D01*
X615635Y516230D01*
X616449Y515893D01*
X617323Y515778D01*
X618196Y515893D01*
X619010Y516230D01*
X619710Y516767D01*
X620246Y517466D01*
X620583Y518280D01*
X620698Y519153D01*
X620583Y520027D01*
X620246Y520841D01*
X619905Y521286D01*
X619756Y521654D01*
X619905Y522021D01*
X620246Y522466D01*
X620583Y523280D01*
X620698Y524154D01*
X620583Y525027D01*
X620246Y525841D01*
X619710Y526540D01*
X619010Y527077D01*
X618196Y527414D01*
X617323Y527529D01*
D02*
G37*
G36*
X596063Y527529D02*
X595189Y527414D01*
X594375Y527077D01*
X593676Y526540D01*
X593140Y525841D01*
X592803Y525027D01*
X592688Y524154D01*
X592803Y523280D01*
X593140Y522466D01*
X593676Y521767D01*
X594375Y521230D01*
X595189Y520893D01*
X596063Y520778D01*
X596937Y520893D01*
X597751Y521230D01*
X598450Y521767D01*
X598986Y522466D01*
X599323Y523280D01*
X599438Y524154D01*
X599323Y525027D01*
X598986Y525841D01*
X598450Y526540D01*
X597751Y527077D01*
X596937Y527414D01*
X596063Y527529D01*
D02*
G37*
G36*
X596063Y585580D02*
X595189Y585465D01*
X594375Y585128D01*
X593676Y584591D01*
X593140Y583892D01*
X592803Y583078D01*
X592688Y582205D01*
X592803Y581331D01*
X593140Y580517D01*
X593676Y579818D01*
X594375Y579282D01*
X595189Y578944D01*
X596063Y578829D01*
X596937Y578944D01*
X597751Y579282D01*
X598450Y579818D01*
X598986Y580517D01*
X599323Y581331D01*
X599438Y582205D01*
X599323Y583078D01*
X598986Y583892D01*
X598450Y584591D01*
X597751Y585128D01*
X596937Y585465D01*
X596063Y585580D01*
D02*
G37*
G36*
X607087Y615659D02*
X606213Y615544D01*
X605399Y615207D01*
X604700Y614670D01*
X604164Y613971D01*
X603826Y613157D01*
X603711Y612284D01*
X603826Y611410D01*
X604164Y610596D01*
X604700Y609897D01*
X605399Y609360D01*
X606080Y609078D01*
X608242Y606916D01*
Y537942D01*
X607742Y537600D01*
X607087Y537686D01*
X606213Y537571D01*
X605399Y537234D01*
X604700Y536698D01*
X604164Y535999D01*
X603826Y535185D01*
X603711Y534311D01*
X603826Y533437D01*
X604164Y532623D01*
X604543Y532129D01*
X604653Y531772D01*
X604543Y531415D01*
X604164Y530920D01*
X603826Y530106D01*
X603711Y529232D01*
X603826Y528359D01*
X604164Y527545D01*
X604700Y526846D01*
X605399Y526309D01*
X606213Y525972D01*
X607087Y525857D01*
X607960Y525972D01*
X608641Y526254D01*
X608661D01*
X609432Y526356D01*
X610151Y526653D01*
X610767Y527126D01*
X613326Y529685D01*
X613800Y530302D01*
X614097Y531020D01*
X614199Y531791D01*
X614199Y531791D01*
Y531907D01*
X614699Y532076D01*
X614936Y531767D01*
X615635Y531230D01*
X616449Y530893D01*
X617323Y530778D01*
X618196Y530893D01*
X619010Y531230D01*
X619710Y531767D01*
X620246Y532466D01*
X620583Y533280D01*
X620698Y534154D01*
X620583Y535027D01*
X620246Y535841D01*
X619905Y536286D01*
X619756Y536654D01*
X619905Y537021D01*
X620246Y537466D01*
X620583Y538280D01*
X620698Y539153D01*
X620583Y540027D01*
X620246Y540841D01*
X619905Y541286D01*
X619756Y541653D01*
X619905Y542021D01*
X620246Y542466D01*
X620583Y543280D01*
X620698Y544153D01*
X620583Y545027D01*
X620246Y545841D01*
X619710Y546540D01*
X619010Y547077D01*
X618196Y547414D01*
X617323Y547529D01*
X616449Y547414D01*
X615635Y547077D01*
X614936Y546540D01*
X614699Y546231D01*
X614199Y546401D01*
Y579958D01*
X614699Y580127D01*
X614936Y579818D01*
X615635Y579282D01*
X616449Y578944D01*
X617323Y578829D01*
X618196Y578944D01*
X619010Y579282D01*
X619710Y579818D01*
X620246Y580517D01*
X620583Y581331D01*
X620698Y582205D01*
X620583Y583078D01*
X620246Y583892D01*
X619710Y584591D01*
X619905Y585072D01*
X620246Y585517D01*
X620583Y586331D01*
X620698Y587205D01*
X620583Y588078D01*
X620246Y588892D01*
X619905Y589337D01*
X619710Y589818D01*
X620246Y590517D01*
X620583Y591331D01*
X620698Y592205D01*
X620583Y593078D01*
X620246Y593892D01*
X619710Y594591D01*
X619905Y595072D01*
X620246Y595517D01*
X620583Y596331D01*
X620698Y597205D01*
X620583Y598078D01*
X620246Y598892D01*
X619905Y599337D01*
X619756Y599705D01*
X619905Y600072D01*
X620246Y600517D01*
X620583Y601331D01*
X620698Y602205D01*
X620583Y603078D01*
X620246Y603892D01*
X619710Y604591D01*
X619010Y605128D01*
X618196Y605465D01*
X617323Y605580D01*
X616449Y605465D01*
X615635Y605128D01*
X614936Y604591D01*
X614699Y604282D01*
X614199Y604452D01*
Y608149D01*
X614199Y608150D01*
X614097Y608920D01*
X613800Y609639D01*
X613326Y610255D01*
X613326Y610256D01*
X610292Y613290D01*
X610010Y613971D01*
X609473Y614670D01*
X608774Y615207D01*
X607960Y615544D01*
X607087Y615659D01*
D02*
G37*
G36*
X548996Y602805D02*
X548123Y602690D01*
X547308Y602352D01*
X546609Y601816D01*
X546073Y601117D01*
X545736Y600303D01*
X545621Y599429D01*
X545736Y598556D01*
X546073Y597742D01*
X546609Y597042D01*
X547308Y596506D01*
X548123Y596169D01*
X548996Y596054D01*
X549870Y596169D01*
X550684Y596506D01*
X551383Y597042D01*
X551919Y597742D01*
X552256Y598556D01*
X552372Y599429D01*
X552256Y600303D01*
X551919Y601117D01*
X551383Y601816D01*
X550684Y602352D01*
X549870Y602690D01*
X548996Y602805D01*
D02*
G37*
G36*
X568996D02*
X568123Y602690D01*
X567309Y602352D01*
X566609Y601816D01*
X566073Y601117D01*
X565736Y600303D01*
X565621Y599429D01*
X565736Y598556D01*
X566073Y597742D01*
X566609Y597042D01*
X567309Y596506D01*
X568123Y596169D01*
X568996Y596054D01*
X569870Y596169D01*
X570684Y596506D01*
X571383Y597042D01*
X571919Y597742D01*
X572257Y598556D01*
X572371Y599429D01*
X572257Y600303D01*
X571919Y601117D01*
X571383Y601816D01*
X570684Y602352D01*
X569870Y602690D01*
X568996Y602805D01*
D02*
G37*
G36*
X554028Y576092D02*
X553154Y575977D01*
X552340Y575640D01*
X551641Y575103D01*
X551104Y574404D01*
X550767Y573590D01*
X550652Y572717D01*
X550767Y571843D01*
X551104Y571029D01*
X551641Y570330D01*
X552340Y569793D01*
X553154Y569456D01*
X554028Y569341D01*
X554901Y569456D01*
X555715Y569793D01*
X556414Y570330D01*
X556951Y571029D01*
X557288Y571843D01*
X557403Y572717D01*
X557288Y573590D01*
X556951Y574404D01*
X556414Y575103D01*
X555715Y575640D01*
X554901Y575977D01*
X554028Y576092D01*
D02*
G37*
G36*
X596063Y605580D02*
X595189Y605465D01*
X594375Y605128D01*
X593676Y604591D01*
X593140Y603892D01*
X592803Y603078D01*
X592688Y602205D01*
X592803Y601331D01*
X593140Y600517D01*
X593676Y599818D01*
X593481Y599337D01*
X593140Y598892D01*
X592803Y598078D01*
X592688Y597205D01*
X592803Y596331D01*
X593140Y595517D01*
X593481Y595072D01*
X593630Y594705D01*
X593481Y594337D01*
X593140Y593892D01*
X592803Y593078D01*
X592688Y592205D01*
X592803Y591331D01*
X593140Y590517D01*
X593676Y589818D01*
X594375Y589282D01*
X595189Y588944D01*
X596063Y588829D01*
X596937Y588944D01*
X597751Y589282D01*
X598450Y589818D01*
X598986Y590517D01*
X599323Y591331D01*
X599438Y592205D01*
X599323Y593078D01*
X598986Y593892D01*
X598645Y594337D01*
X598450Y594818D01*
X598986Y595517D01*
X599323Y596331D01*
X599438Y597205D01*
X599323Y598078D01*
X598986Y598892D01*
X598645Y599337D01*
X598450Y599818D01*
X598986Y600517D01*
X599323Y601331D01*
X599438Y602205D01*
X599323Y603078D01*
X598986Y603892D01*
X598450Y604591D01*
X597751Y605128D01*
X596937Y605465D01*
X596063Y605580D01*
D02*
G37*
G36*
X579098Y599612D02*
X578224Y599497D01*
X577410Y599159D01*
X576711Y598623D01*
X576175Y597924D01*
X575838Y597110D01*
X575723Y596236D01*
X575838Y595363D01*
X576175Y594549D01*
X576711Y593850D01*
X577410Y593313D01*
X578224Y592976D01*
X579098Y592861D01*
X579972Y592976D01*
X580786Y593313D01*
X581485Y593850D01*
X582021Y594549D01*
X582358Y595363D01*
X582473Y596236D01*
X582358Y597110D01*
X582021Y597924D01*
X581485Y598623D01*
X580786Y599159D01*
X579972Y599497D01*
X579098Y599612D01*
D02*
G37*
G36*
X588996Y602568D02*
X588123Y602453D01*
X587309Y602116D01*
X586609Y601580D01*
X586073Y600881D01*
X585736Y600067D01*
X585621Y599193D01*
X585736Y598319D01*
X586073Y597505D01*
X586609Y596806D01*
X587309Y596270D01*
X588123Y595933D01*
X588996Y595818D01*
X589870Y595933D01*
X590684Y596270D01*
X591383Y596806D01*
X591919Y597505D01*
X592256Y598319D01*
X592372Y599193D01*
X592256Y600067D01*
X591919Y600881D01*
X591383Y601580D01*
X590684Y602116D01*
X589870Y602453D01*
X588996Y602568D01*
D02*
G37*
G36*
X558996Y605328D02*
X558123Y605213D01*
X557308Y604876D01*
X556609Y604340D01*
X556073Y603640D01*
X555736Y602826D01*
X555621Y601953D01*
X555736Y601079D01*
X556073Y600265D01*
X556609Y599566D01*
X556898Y599344D01*
Y598844D01*
X556609Y598623D01*
X556073Y597924D01*
X555736Y597110D01*
X555621Y596236D01*
X555736Y595363D01*
X556073Y594549D01*
X556609Y593850D01*
X557308Y593313D01*
X558123Y592976D01*
X558996Y592861D01*
X559870Y592976D01*
X560684Y593313D01*
X561383Y593850D01*
X561919Y594549D01*
X562256Y595363D01*
X562371Y596236D01*
X562256Y597110D01*
X561919Y597924D01*
X561383Y598623D01*
X561094Y598844D01*
Y599344D01*
X561383Y599566D01*
X561919Y600265D01*
X562256Y601079D01*
X562371Y601953D01*
X562256Y602826D01*
X561919Y603640D01*
X561383Y604340D01*
X560684Y604876D01*
X559870Y605213D01*
X558996Y605328D01*
D02*
G37*
G36*
X528996Y602805D02*
X528123Y602690D01*
X527309Y602352D01*
X526609Y601816D01*
X526073Y601117D01*
X525736Y600303D01*
X525621Y599429D01*
X525736Y598556D01*
X526073Y597742D01*
X526609Y597042D01*
X527309Y596506D01*
X528123Y596169D01*
X528996Y596054D01*
X529870Y596169D01*
X530684Y596506D01*
X531383Y597042D01*
X531919Y597742D01*
X532257Y598556D01*
X532372Y599429D01*
X532257Y600303D01*
X531919Y601117D01*
X531383Y601816D01*
X530684Y602352D01*
X529870Y602690D01*
X528996Y602805D01*
D02*
G37*
G36*
X538996Y605328D02*
X538123Y605213D01*
X537309Y604876D01*
X536609Y604340D01*
X536073Y603640D01*
X535736Y602826D01*
X535621Y601953D01*
X535736Y601079D01*
X536073Y600265D01*
X536609Y599566D01*
X536898Y599344D01*
Y598844D01*
X536609Y598623D01*
X536073Y597924D01*
X535736Y597110D01*
X535621Y596236D01*
X535736Y595363D01*
X536073Y594549D01*
X536609Y593850D01*
X537309Y593313D01*
X538123Y592976D01*
X538996Y592861D01*
X539870Y592976D01*
X540684Y593313D01*
X541383Y593850D01*
X541919Y594549D01*
X542256Y595363D01*
X542372Y596236D01*
X542256Y597110D01*
X541919Y597924D01*
X541383Y598623D01*
X541094Y598844D01*
Y599344D01*
X541383Y599566D01*
X541919Y600265D01*
X542256Y601079D01*
X542372Y601953D01*
X542256Y602826D01*
X541919Y603640D01*
X541383Y604340D01*
X540684Y604876D01*
X539870Y605213D01*
X538996Y605328D01*
D02*
G37*
G36*
X622835Y619301D02*
X621961Y619185D01*
X621147Y618848D01*
X620448Y618312D01*
X619911Y617613D01*
X619574Y616799D01*
X619459Y615925D01*
X619574Y615052D01*
X619911Y614237D01*
X620448Y613539D01*
X621147Y613002D01*
X621961Y612665D01*
X622835Y612550D01*
X623708Y612665D01*
X624522Y613002D01*
X625221Y613539D01*
X625758Y614237D01*
X626095Y615052D01*
X626210Y615925D01*
X626095Y616799D01*
X625758Y617613D01*
X625221Y618312D01*
X624522Y618848D01*
X623708Y619185D01*
X622835Y619301D01*
D02*
G37*
G36*
X548996Y537706D02*
X548123Y537591D01*
X547308Y537254D01*
X546609Y536717D01*
X546073Y536018D01*
X545736Y535204D01*
X545621Y534331D01*
X545736Y533457D01*
X546073Y532643D01*
X546609Y531944D01*
X547308Y531408D01*
X548123Y531070D01*
X548996Y530955D01*
X549870Y531070D01*
X550684Y531408D01*
X551383Y531944D01*
X551919Y532643D01*
X552256Y533457D01*
X552372Y534331D01*
X552256Y535204D01*
X551919Y536018D01*
X551383Y536717D01*
X550684Y537254D01*
X549870Y537591D01*
X548996Y537706D01*
D02*
G37*
G36*
X568996D02*
X568123Y537591D01*
X567309Y537254D01*
X566609Y536717D01*
X566073Y536018D01*
X565736Y535204D01*
X565621Y534331D01*
X565736Y533457D01*
X566073Y532643D01*
X566609Y531944D01*
X567309Y531408D01*
X568123Y531070D01*
X568996Y530955D01*
X569870Y531070D01*
X570684Y531408D01*
X571383Y531944D01*
X571919Y532643D01*
X572257Y533457D01*
X572371Y534331D01*
X572257Y535204D01*
X571919Y536018D01*
X571383Y536717D01*
X570684Y537254D01*
X569870Y537591D01*
X568996Y537706D01*
D02*
G37*
G36*
X528996D02*
X528123Y537591D01*
X527309Y537254D01*
X526609Y536717D01*
X526073Y536018D01*
X525736Y535204D01*
X525621Y534331D01*
X525736Y533457D01*
X526073Y532643D01*
X526609Y531944D01*
X527309Y531408D01*
X528123Y531070D01*
X528996Y530955D01*
X529870Y531070D01*
X530684Y531408D01*
X531383Y531944D01*
X531919Y532643D01*
X532257Y533457D01*
X532372Y534331D01*
X532257Y535204D01*
X531919Y536018D01*
X531383Y536717D01*
X530684Y537254D01*
X529870Y537591D01*
X528996Y537706D01*
D02*
G37*
G36*
X577625Y535980D02*
X576751Y535865D01*
X575937Y535528D01*
X575238Y534992D01*
X574702Y534293D01*
X574365Y533478D01*
X574250Y532605D01*
X574365Y531731D01*
X574702Y530917D01*
X575238Y530218D01*
X575937Y529682D01*
X576751Y529345D01*
X577625Y529230D01*
X578499Y529345D01*
X579313Y529682D01*
X580012Y530218D01*
X580548Y530917D01*
X580885Y531731D01*
X581000Y532605D01*
X580885Y533478D01*
X580548Y534293D01*
X580012Y534992D01*
X579313Y535528D01*
X578499Y535865D01*
X577625Y535980D01*
D02*
G37*
G36*
X502047Y537706D02*
X501174Y537591D01*
X500360Y537254D01*
X499661Y536717D01*
X499124Y536018D01*
X498787Y535204D01*
X498672Y534331D01*
X498787Y533457D01*
X499124Y532643D01*
X499661Y531944D01*
X500360Y531408D01*
X501174Y531070D01*
X502047Y530955D01*
X502921Y531070D01*
X503735Y531408D01*
X504434Y531944D01*
X504971Y532643D01*
X505308Y533457D01*
X505423Y534331D01*
X505308Y535204D01*
X504971Y536018D01*
X504434Y536717D01*
X503735Y537254D01*
X502921Y537591D01*
X502047Y537706D01*
D02*
G37*
G36*
X588996D02*
X588123Y537591D01*
X587309Y537254D01*
X586609Y536717D01*
X586073Y536018D01*
X585736Y535204D01*
X585621Y534331D01*
X585736Y533457D01*
X586073Y532643D01*
X586609Y531944D01*
X587309Y531408D01*
X588123Y531070D01*
X588996Y530955D01*
X589870Y531070D01*
X590684Y531408D01*
X591383Y531944D01*
X591919Y532643D01*
X592256Y533457D01*
X592372Y534331D01*
X592256Y535204D01*
X591919Y536018D01*
X591383Y536717D01*
X590684Y537254D01*
X589870Y537591D01*
X588996Y537706D01*
D02*
G37*
G36*
X579429Y562706D02*
X578556Y562591D01*
X577742Y562254D01*
X577042Y561717D01*
X576506Y561018D01*
X576169Y560204D01*
X576054Y559331D01*
X576169Y558457D01*
X576506Y557643D01*
X577042Y556944D01*
X577742Y556408D01*
X578556Y556070D01*
X579429Y555955D01*
X580303Y556070D01*
X581117Y556408D01*
X581816Y556944D01*
X582352Y557643D01*
X582690Y558457D01*
X582805Y559331D01*
X582690Y560204D01*
X582352Y561018D01*
X581816Y561717D01*
X581117Y562254D01*
X580303Y562591D01*
X579429Y562706D01*
D02*
G37*
G36*
X554036Y566742D02*
X553162Y566627D01*
X552348Y566289D01*
X551649Y565753D01*
X551112Y565054D01*
X550775Y564240D01*
X550660Y563366D01*
X550775Y562493D01*
X551112Y561679D01*
X551649Y560979D01*
X552348Y560443D01*
X553162Y560106D01*
X554036Y559991D01*
X554909Y560106D01*
X555723Y560443D01*
X556422Y560979D01*
X556959Y561679D01*
X557296Y562493D01*
X557411Y563366D01*
X557296Y564240D01*
X556959Y565054D01*
X556422Y565753D01*
X555723Y566289D01*
X554909Y566627D01*
X554036Y566742D01*
D02*
G37*
G36*
X622835Y561249D02*
X621961Y561134D01*
X621147Y560797D01*
X620448Y560261D01*
X619911Y559562D01*
X619574Y558748D01*
X619459Y557874D01*
X619574Y557000D01*
X619911Y556186D01*
X620448Y555487D01*
X621147Y554951D01*
X621961Y554614D01*
X622835Y554499D01*
X623708Y554614D01*
X624522Y554951D01*
X625221Y555487D01*
X625758Y556186D01*
X626095Y557000D01*
X626210Y557874D01*
X626095Y558748D01*
X625758Y559562D01*
X625221Y560261D01*
X624522Y560797D01*
X623708Y561134D01*
X622835Y561249D01*
D02*
G37*
G36*
X518996Y540230D02*
X518123Y540115D01*
X517309Y539778D01*
X516609Y539241D01*
X516073Y538542D01*
X515736Y537728D01*
X515621Y536854D01*
X515736Y535981D01*
X516073Y535167D01*
X516609Y534468D01*
X517309Y533931D01*
X518123Y533594D01*
X518996Y533479D01*
X519870Y533594D01*
X520684Y533931D01*
X521383Y534468D01*
X521919Y535167D01*
X522257Y535981D01*
X522371Y536854D01*
X522257Y537728D01*
X521919Y538542D01*
X521383Y539241D01*
X520684Y539778D01*
X519870Y540115D01*
X518996Y540230D01*
D02*
G37*
G36*
X596063Y547529D02*
X595189Y547414D01*
X594375Y547077D01*
X593676Y546540D01*
X593140Y545841D01*
X592803Y545027D01*
X592688Y544153D01*
X592803Y543280D01*
X593140Y542466D01*
X593481Y542021D01*
X593630Y541653D01*
X593481Y541286D01*
X593140Y540841D01*
X592803Y540027D01*
X592688Y539153D01*
X592803Y538280D01*
X593140Y537466D01*
X593676Y536767D01*
X594375Y536230D01*
X595189Y535893D01*
X596063Y535778D01*
X596937Y535893D01*
X597751Y536230D01*
X598450Y536767D01*
X598986Y537466D01*
X599323Y538280D01*
X599438Y539153D01*
X599323Y540027D01*
X598986Y540841D01*
X598645Y541286D01*
X598496Y541654D01*
X598645Y542021D01*
X598986Y542466D01*
X599323Y543280D01*
X599438Y544153D01*
X599323Y545027D01*
X598986Y545841D01*
X598450Y546540D01*
X597751Y547077D01*
X596937Y547414D01*
X596063Y547529D01*
D02*
G37*
%LPD*%
D30*
X607087Y612284D02*
X611221Y608150D01*
Y531791D02*
Y608150D01*
X608661Y529232D02*
X611221Y531791D01*
X607087Y529232D02*
X608661D01*
D32*
X620364Y599705D02*
G03*
X621260Y602205I-3041J2500D01*
G01*
X621260Y597205D02*
G03*
X620364Y599705I-3937J0D01*
G01*
Y594705D02*
G03*
X621260Y597205I-3041J2500D01*
G01*
X620364Y589705D02*
G03*
X621260Y592205I-3041J2500D01*
G01*
D02*
G03*
X620364Y594705I-3937J0D01*
G01*
X620231Y618878D02*
G03*
X624213Y612237I2604J-2953D01*
G01*
X610806Y613576D02*
G03*
X605795Y608565I-3719J-1292D01*
G01*
X621260Y602205D02*
G03*
X614764Y605197I-3937J0D01*
G01*
Y608150D02*
G03*
X613726Y610655I-3543J0D01*
G01*
X614764Y608150D02*
G03*
X613723Y610658I-3543J0D01*
G01*
X621260Y587205D02*
G03*
X620364Y589705I-3937J0D01*
G01*
Y584705D02*
G03*
X621260Y587205I-3041J2500D01*
G01*
X624213Y561562D02*
G03*
X624213Y554186I-1378J-3688D01*
G01*
X621260Y582205D02*
G03*
X620364Y584705I-3937J0D01*
G01*
X614764Y579213D02*
G03*
X621260Y582205I2559J2992D01*
G01*
X599104Y599705D02*
G03*
X600000Y602205I-3041J2500D01*
G01*
Y597205D02*
G03*
X599104Y599705I-3937J0D01*
G01*
X600000Y602205D02*
G03*
X592191Y601494I-3937J0D01*
G01*
D02*
G03*
X592144Y596828I-3195J-2301D01*
G01*
X583035Y596236D02*
G03*
X583035Y596236I-3937J0D01*
G01*
X599104Y594705D02*
G03*
X600000Y597205I-3041J2500D01*
G01*
X600000Y592205D02*
G03*
X599104Y594705I-3937J0D01*
G01*
X592144Y596828D02*
G03*
X593022Y594705I3919J376D01*
G01*
D02*
G03*
X600000Y592205I3041J-2500D01*
G01*
X600000Y582205D02*
G03*
X600000Y582205I-3937J0D01*
G01*
X583366Y559331D02*
G03*
X583366Y559331I-3937J0D01*
G01*
X620364Y541653D02*
G03*
X621260Y544153I-3041J2500D01*
G01*
Y539153D02*
G03*
X620364Y541653I-3937J0D01*
G01*
Y536654D02*
G03*
X621260Y539153I-3041J2500D01*
G01*
X621260Y534154D02*
G03*
X620364Y536654I-3937J0D01*
G01*
X621260Y544153D02*
G03*
X614764Y547145I-3937J0D01*
G01*
X614715Y531204D02*
G03*
X621260Y534154I2608J2949D01*
G01*
X613726Y529286D02*
G03*
X614715Y531204I-2506J2506D01*
G01*
X604078Y531772D02*
G03*
X608809Y525692I3009J-2539D01*
G01*
X607677Y538203D02*
G03*
X604078Y531772I-591J-3892D01*
G01*
X613723Y529283D02*
G03*
X614715Y531204I-2503J2508D01*
G01*
X620364Y521654D02*
G03*
X621260Y524154I-3041J2500D01*
G01*
X621260Y519153D02*
G03*
X620364Y521654I-3937J0D01*
G01*
X621260Y524154D02*
G03*
X614282Y521654I-3937J0D01*
G01*
X608809Y525692D02*
G03*
X611170Y526729I-148J3540D01*
G01*
X608809Y525692D02*
G03*
X611167Y526727I-148J3540D01*
G01*
X614282Y521654D02*
G03*
X621260Y519153I3041J-2500D01*
G01*
X600000Y544153D02*
G03*
X593022Y541654I-3937J0D01*
G01*
X600000Y539153D02*
G03*
X599104Y541653I-3937J0D01*
G01*
D02*
G03*
X600000Y544153I-3041J2500D01*
G01*
X593022Y541654D02*
G03*
X600000Y539153I3041J-2500D01*
G01*
X592933Y534331D02*
G03*
X592933Y534331I-3937J0D01*
G01*
X581562Y532605D02*
G03*
X581562Y532605I-3937J0D01*
G01*
X600000Y524154D02*
G03*
X600000Y524154I-3937J0D01*
G01*
X579736Y512957D02*
G03*
X569028Y515711I-5709J0D01*
G01*
Y510202D02*
G03*
X579736Y512957I5000J2755D01*
G01*
X561704Y599094D02*
G03*
X562933Y601953I-2708J2858D01*
G01*
X572933Y599429D02*
G03*
X572933Y599429I-3937J0D01*
G01*
X562933Y596236D02*
G03*
X561704Y599094I-3937J0D01*
G01*
X562933Y601953D02*
G03*
X556289Y599094I-3937J0D01*
G01*
D02*
G03*
X562933Y596236I2708J-2858D01*
G01*
X557965Y572717D02*
G03*
X557965Y572717I-3937J0D01*
G01*
X557972Y563366D02*
G03*
X557972Y563366I-3937J0D01*
G01*
X552933Y599429D02*
G03*
X552933Y599429I-3937J0D01*
G01*
X541704Y599094D02*
G03*
X542933Y601953I-2708J2858D01*
G01*
X536289Y599094D02*
G03*
X542933Y596236I2708J-2858D01*
G01*
D02*
G03*
X541704Y599094I-3937J0D01*
G01*
X542933Y601953D02*
G03*
X536289Y599094I-3937J0D01*
G01*
X532933Y599429D02*
G03*
X532933Y599429I-3937J0D01*
G01*
X572933Y534331D02*
G03*
X572933Y534331I-3937J0D01*
G01*
X561704Y533996D02*
G03*
X562933Y536854I-2708J2858D01*
G01*
D02*
G03*
X556289Y533996I-3937J0D01*
G01*
X562933Y531138D02*
G03*
X561704Y533996I-3937J0D01*
G01*
X556289D02*
G03*
X562933Y531138I2708J-2858D01*
G01*
X552933Y534331D02*
G03*
X552933Y534331I-3937J0D01*
G01*
X569028Y515711D02*
G03*
X559028Y515711I-5000J-2755D01*
G01*
Y510202D02*
G03*
X569028Y510202I5000J2755D01*
G01*
X559028Y515711D02*
G03*
X549028Y515711I-5000J-2755D01*
G01*
Y510202D02*
G03*
X559028Y510202I5000J2755D01*
G01*
X549028Y515711D02*
G03*
X539028Y515711I-5000J-2755D01*
G01*
Y510202D02*
G03*
X549028Y510202I5000J2755D01*
G01*
X541704Y533996D02*
G03*
X542933Y536854I-2708J2858D01*
G01*
D02*
G03*
X536289Y533996I-3937J0D01*
G01*
X522933Y536854D02*
G03*
X522933Y536854I-3937J0D01*
G01*
X532933Y534331D02*
G03*
X532933Y534331I-3937J0D01*
G01*
X542933Y531138D02*
G03*
X541704Y533996I-3937J0D01*
G01*
X536289D02*
G03*
X542933Y531138I2708J-2858D01*
G01*
X505984Y534331D02*
G03*
X505984Y534331I-3937J0D01*
G01*
X539028Y515711D02*
G03*
X539028Y510202I-5000J-2755D01*
G01*
X526575Y527496D02*
G03*
X526575Y527496I-3937J0D01*
G01*
X621257Y602361D02*
X624213D01*
X620349Y604723D02*
X624213D01*
X621236Y597637D02*
X624213D01*
X620584Y599999D02*
X624213D01*
X621259Y602304D02*
Y612317D01*
Y597304D02*
Y602106D01*
X624213Y612237D02*
X624213Y561562D01*
X623621Y561732D02*
Y612068D01*
X621196Y592912D02*
X624213D01*
X620754Y595274D02*
X624213D01*
X621259Y592304D02*
Y597105D01*
X610541Y614172D02*
X619310D01*
X614517Y609448D02*
X624213D01*
X612571Y611810D02*
X624213D01*
X614172Y610110D02*
Y618878D01*
X611810Y612571D02*
Y618878D01*
X610806Y613576D02*
X613723Y610658D01*
X618896Y605814D02*
Y618878D01*
X616534Y606062D02*
Y618878D01*
X614764Y607085D02*
X624213D01*
X614764Y605197D02*
Y608150D01*
X621135Y588188D02*
X624213D01*
X620895Y590550D02*
X624213D01*
X621053Y583463D02*
X624213D01*
X621010Y585826D02*
X624213D01*
X621259Y587304D02*
Y592105D01*
Y582304D02*
Y587106D01*
X621102Y581101D02*
X624213D01*
X619191Y578739D02*
X624213D01*
X618009Y548030D02*
X624213D01*
X621259Y561482D02*
Y582105D01*
X618896Y547762D02*
Y578596D01*
X614764Y566928D02*
X624213D01*
X614764Y569290D02*
X624213D01*
X614764Y562204D02*
X624213D01*
X614764Y564566D02*
X624213D01*
X614764Y576377D02*
X624213D01*
X614764Y571652D02*
X624213D01*
X614764Y574015D02*
X624213D01*
X614764Y555117D02*
X620024D01*
X614764Y559841D02*
X619424D01*
X614764Y550393D02*
X624213D01*
X614764Y552755D02*
X624213D01*
X616534Y548011D02*
Y578347D01*
X614764Y557479D02*
X618918D01*
X614764Y548030D02*
X616637D01*
X609448Y615434D02*
Y618878D01*
X607085Y616221D02*
Y618878D01*
X605795Y608565D02*
X607677Y606682D01*
X599089Y604723D02*
X607677D01*
X595274Y606062D02*
Y618878D01*
X592912Y604565D02*
Y618878D01*
X604723Y615432D02*
Y618878D01*
X597637Y605814D02*
Y618878D01*
X599997Y602361D02*
X607677D01*
X599976Y597637D02*
X607677D01*
X599324Y599999D02*
X607677D01*
X599999Y597302D02*
Y602107D01*
Y602302D02*
Y618878D01*
X590550Y602810D02*
Y618878D01*
X588188Y603046D02*
Y618878D01*
X571624Y602361D02*
X586659D01*
X571652Y602335D02*
Y618878D01*
X569290Y603355D02*
Y618878D01*
X585826Y601527D02*
Y618878D01*
X578739Y600157D02*
Y618878D01*
X582777Y597637D02*
X585380D01*
X580257Y599999D02*
X585143D01*
X581101Y599625D02*
Y618878D01*
X576377Y599082D02*
Y618878D01*
X572892Y599999D02*
X577939D01*
X599936Y592912D02*
X607677D01*
X599494Y595274D02*
X607677D01*
X599635Y590550D02*
X607677D01*
X597609Y585826D02*
X607677D01*
X599999Y592302D02*
Y597107D01*
X595274Y586062D02*
Y588347D01*
X599842Y581101D02*
X607677D01*
X599793Y583463D02*
X607677D01*
X597931Y578739D02*
X607677D01*
X596749Y548030D02*
X607677D01*
X599999Y582302D02*
Y592107D01*
X597637Y585814D02*
Y588596D01*
X595274Y548011D02*
Y578347D01*
X592912Y584565D02*
Y589844D01*
X589377Y595274D02*
X592632D01*
X572501Y597637D02*
X575418D01*
X582916Y595274D02*
X588615D01*
X581208Y592912D02*
X592190D01*
X582121Y562204D02*
X607677D01*
X583333Y559841D02*
X607677D01*
X582904Y557479D02*
X607677D01*
X581101Y562895D02*
Y592847D01*
X576377Y561817D02*
Y593391D01*
X578739Y563207D02*
Y592316D01*
X621168Y543306D02*
X624213D01*
X620957Y545668D02*
X624213D01*
X621218Y538582D02*
X624213D01*
X620829Y540944D02*
X624213D01*
X621259Y544253D02*
Y554266D01*
Y539253D02*
Y544054D01*
X624213Y554186D02*
X624213Y499784D01*
X623621D02*
Y554016D01*
X621249Y533857D02*
X624213D01*
X620674Y536219D02*
X624213D01*
X621259Y534253D02*
Y539054D01*
Y524253D02*
Y534054D01*
X614764Y547145D02*
Y579213D01*
X599908Y543306D02*
X607677D01*
X599697Y545668D02*
X607677D01*
Y538203D02*
Y606682D01*
X607085Y538248D02*
Y607274D01*
X599958Y538582D02*
X607677D01*
X599569Y540944D02*
X607677D01*
X620227Y531495D02*
X624213D01*
X618896Y527762D02*
Y530545D01*
X621252Y524408D02*
X624213D01*
X620264Y526771D02*
X624213D01*
X621224Y519684D02*
X624213D01*
X620648Y522046D02*
X624213D01*
X616534Y528011D02*
Y530296D01*
X614172Y526514D02*
Y529831D01*
X613573Y529133D02*
X624213D01*
X621259Y519253D02*
Y524054D01*
Y499784D02*
Y519054D01*
X620808Y517322D02*
X624213D01*
X618896Y499784D02*
Y515545D01*
X614172Y499784D02*
Y516793D01*
X616534Y499784D02*
Y515296D01*
X611211Y526771D02*
X614382D01*
X599389Y522046D02*
X613997D01*
X577707Y517322D02*
X613838D01*
X611170Y526729D02*
X613723Y529283D01*
X599992Y524408D02*
X613394D01*
X579725Y512597D02*
X624213D01*
X579373Y514960D02*
X624213D01*
X579046Y510235D02*
X624213D01*
X576625Y507873D02*
X624213D01*
X611810Y499784D02*
Y527370D01*
X609448Y499784D02*
Y525777D01*
X604723Y537460D02*
Y609135D01*
X599999Y544251D02*
Y582107D01*
X592912Y546514D02*
Y579844D01*
X599999Y539250D02*
Y544056D01*
X597637Y547762D02*
Y578596D01*
X602361Y499784D02*
Y618878D01*
X599999Y524252D02*
Y539057D01*
X598688Y536219D02*
X603643D01*
X597637Y527762D02*
Y535545D01*
X595274Y528011D02*
Y535296D01*
X592912Y534736D02*
Y536793D01*
Y526514D02*
Y533925D01*
X590550Y537948D02*
Y595576D01*
X585826Y536665D02*
Y596859D01*
X588188Y538184D02*
Y595340D01*
X579186Y536219D02*
X585542D01*
X571652Y537237D02*
Y596523D01*
X569290Y538257D02*
Y595503D01*
X578739Y536381D02*
Y555455D01*
X576377Y536339D02*
Y556844D01*
X583463Y499784D02*
Y618878D01*
X581101Y534453D02*
Y555766D01*
X574015Y534175D02*
Y618878D01*
X572451Y536219D02*
X576064D01*
X592905Y533857D02*
X603176D01*
X591727Y531495D02*
X603865D01*
X604723Y499784D02*
Y526084D01*
X599004Y526771D02*
X604014D01*
X581402Y531495D02*
X586265D01*
X581357Y533857D02*
X585088D01*
X597637Y499784D02*
Y520545D01*
X607085Y499784D02*
Y525295D01*
X599999Y499784D02*
Y524055D01*
X595274Y499784D02*
Y520296D01*
X592912Y499784D02*
Y521793D01*
X590550Y499784D02*
Y530713D01*
X585826Y499784D02*
Y531997D01*
X588188Y499784D02*
Y530478D01*
X579481Y529133D02*
X603151D01*
X576377Y518160D02*
Y528871D01*
X578739Y516180D02*
Y528829D01*
X571727Y531495D02*
X573848D01*
X571652Y518148D02*
Y531425D01*
X574015Y518665D02*
Y531035D01*
X569290Y516142D02*
Y530405D01*
X581101Y499784D02*
Y530757D01*
X578739Y499784D02*
Y509733D01*
X576377Y499784D02*
Y507754D01*
X571652Y499784D02*
Y507766D01*
X569290Y499784D02*
Y509771D01*
X574015Y499784D02*
Y507248D01*
X566928Y602779D02*
Y618878D01*
X561793Y604723D02*
X593037D01*
X562912Y602361D02*
X566369D01*
X562414Y599999D02*
X565101D01*
X559841Y605798D02*
Y618878D01*
X557479Y605586D02*
Y618878D01*
X562204Y604236D02*
Y618878D01*
X566928Y537681D02*
Y596079D01*
X562814Y595274D02*
X575280D01*
X561106Y592912D02*
X576988D01*
X562676Y597637D02*
X565491D01*
X562204Y539137D02*
Y593953D01*
X557479Y574610D02*
Y592603D01*
X497047Y616534D02*
X618945D01*
X497047Y618878D02*
X620231Y618878D01*
X497047Y607085D02*
X607274D01*
X497047Y609448D02*
X604356D01*
X555117Y602625D02*
Y618878D01*
X497047Y614172D02*
X603632D01*
X541793Y604723D02*
X556199D01*
X497047Y611810D02*
X603178D01*
X552892Y599999D02*
X555578D01*
X541106Y592912D02*
X556886D01*
X555117Y596909D02*
Y601280D01*
X552501Y597637D02*
X555317D01*
X542814Y595274D02*
X555178D01*
X557745Y574015D02*
X607677D01*
X555478Y576377D02*
X607677D01*
X557818Y571652D02*
X607677D01*
X555967Y569290D02*
X607677D01*
X557479Y565274D02*
Y570823D01*
X557785Y564566D02*
X607677D01*
X555713Y566928D02*
X607677D01*
X559841Y540699D02*
Y592391D01*
X557797Y562204D02*
X576737D01*
X562534Y538582D02*
X592168D01*
X555790Y559841D02*
X575526D01*
X557479Y540487D02*
Y561458D01*
X555117Y537527D02*
Y559581D01*
X497047Y585826D02*
X594517D01*
X497047Y588188D02*
X607677D01*
X497047Y555117D02*
X607677D01*
X497047Y578739D02*
X594195D01*
X497047Y583463D02*
X592333D01*
X497047Y590550D02*
X592491D01*
X497047Y557479D02*
X575955D01*
X497047Y581101D02*
X592284D01*
X497047Y550393D02*
X607677D01*
X497047Y552755D02*
X607677D01*
X497047Y540944D02*
X592556D01*
X497047Y548030D02*
X595377D01*
X497047Y543306D02*
X592218D01*
X497047Y545668D02*
X592429D01*
X542534Y538582D02*
X555458D01*
X550393Y603110D02*
Y618878D01*
X548030Y603246D02*
Y618878D01*
X551624Y602361D02*
X555080D01*
X542912D02*
X546369D01*
X538582Y605868D02*
Y618878D01*
X536219Y604744D02*
Y618878D01*
X545668Y601533D02*
Y618878D01*
X540944Y605374D02*
Y618878D01*
X552755Y600601D02*
Y618878D01*
Y576442D02*
Y598257D01*
X542414Y599999D02*
X545101D01*
X531495Y602471D02*
Y618878D01*
X497047Y604723D02*
X536199D01*
X532892Y599999D02*
X535578D01*
X531624Y602361D02*
X535080D01*
X529133Y603364D02*
Y618878D01*
X526771Y602677D02*
Y618878D01*
X497047Y599999D02*
X525101D01*
X497047Y602361D02*
X526369D01*
X522046Y539344D02*
Y618878D01*
X519684Y540731D02*
Y618878D01*
X503149Y538111D02*
Y618878D01*
X500786Y538060D02*
Y618878D01*
X517322Y540418D02*
Y618878D01*
X555117Y576500D02*
Y595564D01*
X550393Y574229D02*
Y595748D01*
X555117Y567152D02*
Y568933D01*
X552755Y567089D02*
Y568991D01*
X542676Y597637D02*
X545491D01*
X532501D02*
X535317D01*
X550393Y564859D02*
Y571204D01*
X538582Y540769D02*
Y592321D01*
X548030Y538147D02*
Y595612D01*
X545668Y536434D02*
Y597326D01*
X550393Y538012D02*
Y561873D01*
X540944Y540276D02*
Y592815D01*
X531495Y537373D02*
Y596387D01*
X529133Y538265D02*
Y595495D01*
X536219Y539645D02*
Y593445D01*
X497047Y574015D02*
X550311D01*
X497047Y576377D02*
X552578D01*
X497047Y566928D02*
X552358D01*
X497047Y569290D02*
X552088D01*
X497047Y595274D02*
X535178D01*
X497047Y597637D02*
X525491D01*
X497047Y571652D02*
X550237D01*
X497047Y592912D02*
X536886D01*
X497047Y562204D02*
X550274D01*
X497047Y564566D02*
X550286D01*
X522534Y538582D02*
X535458D01*
X497047Y559841D02*
X552282D01*
X526771Y537578D02*
Y596181D01*
X497047Y538582D02*
X515458D01*
X522882Y536219D02*
X525542D01*
X562882D02*
X565542D01*
X562917Y531495D02*
X566265D01*
X561843Y533857D02*
X565088D01*
X555117Y531810D02*
Y536182D01*
X564566Y518640D02*
Y618878D01*
X566928Y517874D02*
Y530981D01*
X562384Y529133D02*
X575769D01*
X562204Y518366D02*
Y528855D01*
X555117Y518561D02*
Y530465D01*
X559841Y516838D02*
Y527293D01*
X557479Y517504D02*
Y527505D01*
X552451Y536219D02*
X555111D01*
X552905Y533857D02*
X556149D01*
X551727Y531495D02*
X555075D01*
X552755Y535502D02*
Y559643D01*
X542882Y536219D02*
X545542D01*
X542917Y531495D02*
X546265D01*
X541843Y533857D02*
X545088D01*
X552755Y518522D02*
Y533159D01*
X550393Y517358D02*
Y530650D01*
X542384Y529133D02*
X555608D01*
X526508Y526771D02*
X593122D01*
X545668Y518425D02*
Y532227D01*
X543306Y518620D02*
Y618878D01*
X548030Y517027D02*
Y530514D01*
X567707Y517322D02*
X570349D01*
X566625Y507873D02*
X571431D01*
X557707Y517322D02*
X560349D01*
X559841Y499784D02*
Y509075D01*
X556625Y507873D02*
X561431D01*
X566928Y499784D02*
Y508040D01*
X557479Y499784D02*
Y508410D01*
X564566Y499784D02*
Y507273D01*
X562204Y499784D02*
Y507547D01*
X552755Y499784D02*
Y507392D01*
X550393Y499784D02*
Y508555D01*
X555117Y499784D02*
Y507353D01*
X525080Y524408D02*
X592134D01*
X497047Y522046D02*
X592737D01*
X497047Y519684D02*
X613422D01*
X547707Y517322D02*
X550349D01*
X546625Y507873D02*
X551431D01*
X497047Y503149D02*
X624213D01*
X497047Y505511D02*
X624213D01*
X497047Y499784D02*
X624213Y499784D01*
X497047Y500786D02*
X624213D01*
X548030Y499784D02*
Y508886D01*
X545668Y499784D02*
Y507489D01*
X543306Y499784D02*
Y507294D01*
X532905Y533857D02*
X536149D01*
X532451Y536219D02*
X535111D01*
X522046Y531388D02*
Y534365D01*
X531727Y531495D02*
X535075D01*
X521549Y533857D02*
X525088D01*
X533857Y518663D02*
Y618878D01*
X524408Y531012D02*
Y618878D01*
X517322Y499784D02*
Y533291D01*
X519684Y530099D02*
Y532978D01*
X505502Y536219D02*
X515111D01*
X505956Y533857D02*
X516443D01*
X504778Y531495D02*
X526265D01*
X505511Y536203D02*
Y618878D01*
X498424Y535871D02*
Y618878D01*
X497047Y531495D02*
X499316D01*
X497047Y536219D02*
X498593D01*
X510235Y499784D02*
Y618878D01*
X507873Y499784D02*
Y618878D01*
X514960Y499784D02*
Y618878D01*
X512597Y499784D02*
Y618878D01*
X498424Y499784D02*
Y532790D01*
X497047Y618878D02*
X497047Y499784D01*
X505511D02*
Y532459D01*
X540944Y517761D02*
Y527716D01*
X537707Y517322D02*
X540349D01*
X536625Y507873D02*
X541431D01*
X531495Y518073D02*
Y531288D01*
X529133Y515894D02*
Y530396D01*
X538582Y516399D02*
Y527223D01*
X536219Y518228D02*
Y528347D01*
X540944Y499784D02*
Y508153D01*
X538582Y499784D02*
Y509514D01*
X536219Y499784D02*
Y507686D01*
X533857Y499784D02*
Y507251D01*
X529133Y499784D02*
Y510019D01*
X526771Y499784D02*
Y531083D01*
X531495Y499784D02*
Y507841D01*
X526219Y529133D02*
X535608D01*
X497047Y517322D02*
X530349D01*
X497047Y512597D02*
X528330D01*
X497047Y514960D02*
X528682D01*
X497047Y529133D02*
X519057D01*
X497047Y524408D02*
X520195D01*
X497047Y526771D02*
X518768D01*
X524408Y499784D02*
Y523980D01*
X522046Y499784D02*
Y523604D01*
X497047Y507873D02*
X531431D01*
X497047Y510235D02*
X529009D01*
X503149Y499784D02*
Y530551D01*
X500786Y499784D02*
Y530601D01*
X519684Y499784D02*
Y524893D01*
D41*
X524028Y512957D02*
D03*
X765169Y835335D02*
D03*
D43*
X752000Y501900D02*
D03*
D47*
X607087Y529232D02*
D03*
X607087Y612284D02*
D03*
X596063Y549154D02*
D03*
X601653Y513721D02*
D03*
X596063Y607205D02*
D03*
X596063Y577205D02*
D03*
X703302Y531517D02*
D03*
X712751Y575612D02*
D03*
X706452D02*
D03*
X749311Y542717D02*
D03*
X640945Y652391D02*
D03*
X500787D02*
D03*
X763400Y590500D02*
D03*
X527868Y442559D02*
D03*
X534364D02*
D03*
X517815D02*
D03*
M02*
