<svg xmlns="http://www.w3.org/2000/svg" width="1200" height="700" viewBox="0 0 1200 700"><rect width="1200" height="700" fill="#f5f3ee"/><rect x="28" y="28" width="1144" height="644" rx="28" fill="#fbfaf7" stroke="#ded8cd"/><text x="700" y="105" font-family="DejaVu Sans, Arial" font-size="42" font-weight="700" fill="#33312d">Подсветка полок</text><text x="700" y="150" font-family="DejaVu Sans, Arial" font-size="23" fill="#6c665d">Скрытый мебельный профиль</text><g transform="translate(110,85)"><rect x="30" y="20" width="470" height="520" fill="#bb8a58" stroke="#8f633c" stroke-width="5"/><rect x="60" y="50" width="410" height="135" fill="#a97647"/><rect x="60" y="205" width="410" height="135" fill="#a97647"/><rect x="60" y="360" width="410" height="135" fill="#a97647"/><g fill="#fff0b8"><rect x="365" y="48" width="90" height="9" rx="4"/><rect x="365" y="203" width="90" height="9" rx="4"/><rect x="365" y="358" width="90" height="9" rx="4"/></g><g fill="#ffe2a0" opacity=".35"><path d="M180 58 H455 V170 H120 Z"/><path d="M180 213 H455 V325 H120 Z"/><path d="M180 368 H455 V480 H120 Z"/></g></g><text x="700" y="230" font-family="DejaVu Sans" font-size="24" fill="#45413b">• источник скрыт за кромкой</text><text x="700" y="275" font-family="DejaVu Sans" font-size="24" fill="#45413b">• 24 V или IKEA MITTLED</text><text x="700" y="320" font-family="DejaVu Sans" font-size="24" fill="#45413b">• 2700 K, CRI ≥ 90</text><text x="700" y="365" font-family="DejaVu Sans" font-size="24" fill="#45413b">• отдельное диммирование</text><text x="700" y="625" font-family="DejaVu Sans, Arial" font-size="18" fill="#968b7b">Схематический референс · точную модель сверять по ссылке</text></svg>